<svg xmlns="http://www.w3.org/2000/svg"><defs><font id="Exo-Regular"><font-face font-family="Exo-Regular" ascent="1002" descent="-327" bbox="-508 -270 1333 1101"/><glyph glyph-name="!" unicode="!" horiz-adv-x="171" d="M92 735h79l-12-536h-57M101-1q-9 9-9 16v80q0 16 16 16h44q16 0 16-16V15q0-16-16-16h-44"/><glyph glyph-name="&quot;" unicode="&quot;" horiz-adv-x="243" d="M40 679v67h77v-67l-8-172H48m118 172v67h77v-67l-8-172h-61"/><glyph glyph-name="#" unicode="#" horiz-adv-x="665" d="M188 230H22l8 51h168l27 167H56l9 51h170l40 233h51l-40-233h154l39 233h51l-39-233h174l-7-51H482l-26-167h174l-7-51H445L406 0h-51l39 230H239L201 0h-51m255 281l26 167H276l-27-167"/><glyph glyph-name="$" unicode="$" horiz-adv-x="519" d="M429 406q90-93 90-171v-57q0-96-54.5-137.5T314-5v-84h-47v83q-51 2-111.5 7T63 12v61q78-8 220-8 76 0 118 24t42 87v50q0 104-110 104h-79q-95 0-144.5 41.5T60 508v42q0 101 54 146.5T274 742l-7 21 35 61 12-34-27-48q44-1 102-7.5t97-13.5v-60q-135 9-204 9-74 0-110-26.5T136 547v-34q0-58 30.5-82.5T257 406h85"/><glyph glyph-name="%" unicode="%" horiz-adv-x="913" d="M106 349q-60 62-60 128v127q0 66 30 97t103 31h101q71 0 100.5-31t29.5-97V477q0-66-29.5-97T278 349H177m492 383h54L283 0h-57m43 400q48 0 68.5 19t20.5 68v107q0 48-19 67.5T271 681h-84q-48 0-68.5-18T98 594V487q0-49 19.5-68t67.5-19M609 3q-59 62-59 128v127q0 66 29.5 97T682 386h101q71 0 100.5-31t29.5-97V131q0-66-29.5-97T781 3H680m93 51q48 0 68.5 19t20.5 68v107q0 48-19 67.5T775 335h-85q-48 0-68.5-18T601 248V141q0-48 19.5-67.5T688 54"/><glyph glyph-name="&amp;" unicode="&amp;" horiz-adv-x="638" d="M179-6Q90 42 65 86.5T40 189q0 109 95 189l66 56-18 27q-51 70-51 140 0 69 47.5 101T303 734q95 0 171-13v-57H316q-105 0-105-77 0-25 11.5-51t38.5-63l199-271 149 139 29-34-69-93-68-65L612 0h-86l-77 103-34-30q-47-43-88.5-61T235-6m45 74q59 26 93 59l32 30-165 222-52-45q-39-33-55.5-66.5T116 197q0-59 35.5-94T247 68"/><glyph glyph-name="'" unicode="'" horiz-adv-x="117" d="M40 679v67h77v-67l-8-172H48"/><glyph glyph-name="(" unicode="(" horiz-adv-x="325" d="M169-83Q82 171 82 326q0 150 44.5 279T251 860h73q-77-135-120-263.5T161 326q0-145 41-270t123-266h-74"/><glyph glyph-name=")" unicode=")" horiz-adv-x="264" d="M102-74q83 253 83 399t-40 270Q105 719 22 860h74q83-127 125.5-252.5T264 325q0-154-42.5-280.5T96-210H22"/><glyph glyph-name="*" unicode="*" horiz-adv-x="399" d="M190 723l31 10 65-124-45-19m25-32l114 83 19-27-102-92M55 584v32l141 9 2-47m-73-166l30 135 47-10-47-135m64 81l24 42 117-85-19-26"/><glyph glyph-name="+" unicode="+" horiz-adv-x="528" d="M528 323H337V132h-66v191H80v66h191v191h66V389h191"/><glyph glyph-name="," unicode="," horiz-adv-x="137" d="M81-78q-14 2-16 3v25q12 0 16.5 3.5T86-33V5h-8q-7 0-11.5 4.5T62 21v72q0 18 16 18h43q16 0 16-18V-29q0-49-47-49"/><glyph glyph-name="-" unicode="-" horiz-adv-x="318" d="M25 323h293v-66H25"/><glyph glyph-name="." unicode="." horiz-adv-x="138" d="M71-1q-9 9-9 16v80q0 16 16 16h44q16 0 16-16V15q0-16-16-16H78"/><glyph glyph-name="/" unicode="/" horiz-adv-x="380" d="M303 770h77L99-72H22"/><glyph glyph-name="0" unicode="0" horiz-adv-x="579" d="M175-2Q76 85 76 173v390q0 86 50 132.5T259 742h143q89 0 133-48t44-131V173q0-88-47-131.5T402-2H259m125 71q115 0 115 114v374q0 113-112 113H272q-54 0-85-29.5T156 557V183q0-56 31-85t87-29"/><glyph glyph-name="1" unicode="1" horiz-adv-x="275" d="M195 665L44 624v51l159 68h72V0h-80"/><glyph glyph-name="2" unicode="2" horiz-adv-x="545" d="M54 65l272 261q62 59 87.5 107.5T439 543q0 60-35 92t-124 32H80v61q48 5 106.5 9.5T297 742q119 0 170-49.5T518 553q0-77-30-136.5T387 289L162 73h383V0H54"/><glyph glyph-name="3" unicode="3" horiz-adv-x="514" d="M154-6L43 7v61h241q72 0 111 24t39 88v49q0 54-37.5 79T306 335l-189 7v58l186 8q121 5 121 96v49q0 55-36.5 84.5T278 667H68v61q107 14 239 14 96-1 145.5-47T502 569v-63q0-61-33-94t-73-41q26-6 53-24t46-50.5q19-32.5 19-77.5v-51q0-84-53.5-129T310-6"/><glyph glyph-name="4" unicode="4" horiz-adv-x="571" d="M391 188H44l-18 43 278 505h81L118 256h273v196l17 69h62V256h101v-55l-101-13V1h-79"/><glyph glyph-name="5" unicode="5" horiz-adv-x="567" d="M194-5L84 6v61h255q67 0 108 32.5t41 88.5v80q0 53-31.5 82T365 379h-79q-93 0-107-84h-75l21 441h418v-72H194l-13-270q13 22 44.5 37.5T301 447h88q84 0 131-46t47-119V173q0-87-62-132.5T338-5"/><glyph glyph-name="6" unicode="6" horiz-adv-x="559" d="M207-3Q119 61 95 142.5T71 368q0 374 261 374 86 0 183-11v-61H333q-87 0-134.5-67T151 405q75 10 203 10 103 0 154-36t51-118V158q0-84-47-122.5T388-3H274m99 72q50 0 78.5 22t28.5 79v78q0 59-34.5 79T336 347H151q0-108 15.5-169t45-85Q241 69 287 69"/><glyph glyph-name="7" unicode="7" horiz-adv-x="504" d="M403 656H33v80h445l26-41L235 0h-89"/><glyph glyph-name="8" unicode="8" horiz-adv-x="562" d="M177-2Q82 68 82 144v106q0 49 28.5 81.5T176 373q-80 34-80 130v84q0 79 44.5 116.5T258 741h138q152 0 152-154v-84q0-38-20-74t-55-46q44-9 66.5-45.5T562 256V144Q562-2 396-2H261m115 411q48 0 71 27.5t23 64.5v69q0 56-22 79.5T381 673H272q-52 0-75-24t-23-79v-69q0-42 24.5-67t73.5-25M380 66q53 0 78 22.5t25 66.5v93q0 50-24.5 71.5T376 341H272q-40 0-75.5-23T161 248v-93q0-46 30-67.5T272 66"/><glyph glyph-name="9" unicode="9" horiz-adv-x="553" d="M205-5L110 6v61h182q87 0 134.5 67T474 332q-75-10-203-10-103 0-154 36T66 476v103q0 83 46.5 122T236 740h114q67 0 111-32t68-113.5Q553 513 553 369 553-5 293-5m181 395q0 108-15.5 169t-45 85Q384 668 337 668h-86q-50 0-78.5-22.5T144 567v-78q0-58 35-78.5T289 390"/><glyph glyph-name=":" unicode=":" horiz-adv-x="138" d="M71-1q-9 9-9 16v80q0 16 16 16h44q16 0 16-16V15q0-16-16-16H78m-7 423q-9 9-9 16v80q0 16 16 16h44q16 0 16-16v-80q0-16-16-16H78"/><glyph glyph-name=";" unicode=";" horiz-adv-x="138" d="M71 422q-9 9-9 16v80q0 16 16 16h44q16 0 16-16v-80q0-16-16-16H78m3-500q-14 2-16 3v25q12 0 16.5 3.5T86-33V5h-8q-7 0-11.5 4.5T62 21v72q0 18 16 18h43q16 0 16-18V-29q0-49-47-49"/><glyph glyph-name="&lt;" unicode="&lt;" horiz-adv-x="511" d="M96 313v72l415 134v-69L171 350l340-104v-69"/><glyph glyph-name="=" unicode="=" horiz-adv-x="528" d="M80 525h448v-66H80m0 50h448v-66H80"/><glyph glyph-name="&gt;" unicode="&gt;" horiz-adv-x="513" d="M98 246l340 103L98 450v69l415-134v-72L98 177"/><glyph glyph-name="?" unicode="?" horiz-adv-x="453" d="M170 356h50q83 0 118 25t35 90v59q0 75-32 106.5T237 668q-49 0-94-9t-98-29v56q91 53 215 53 102 0 147.5-51.5T453 541v-71q0-90-53-133.5T231 293v-94h-61m1-200q-9 9-9 16v80q0 16 16 16h44q16 0 16-16V15q0-16-16-16h-44"/><glyph glyph-name="@" unicode="@" horiz-adv-x="781" d="M176-164Q71-65 71 33v322q0 71 40 127.5T262 539h191q73 0 119.5-32T619 389V27h-49l-12 61q-2-1-59.5-35.5T362 18q-59 0-93.5 37T234 145v46q0 59 36 91t102 32h184v70q0 92-103 92H262q-60 0-94-28t-34-96V40q0-75 37.5-107.5T262-100h319q71 0 104 35t33 105v479q0 69-35.5 109.5T581 669H187v47q35 7 118 11.5t180 4.5h96q88 0 144-53t56-160V40q0-100-47-152t-150-52H262M422 81q104 34 134 53v137l-170-9q-37-2-61.5-16T300 192v-35q0-35 23-55.5T386 81"/><glyph glyph-name="A" unicode="A" horiz-adv-x="640" d="M286 736h102L640 0h-82l-74 210H188L116 0H34m430 282L337 666 208 282"/><glyph glyph-name="B" unicode="B" horiz-adv-x="559" d="M77 736h266q190 0 190-189 0-66-29.5-109T429 382q50-11 90-55t40-123q0-112-52-158T353 0H77m271 410q49 0 79 36.5t30 97.5q0 120-114 120H157V410M351 71q64 0 98 32t34 114q0 60-37.5 95T351 347H157V71"/><glyph glyph-name="C" unicode="C" horiz-adv-x="535" d="M223-6Q113 53 86 134T59 370q0 147 28 227.5T172 710q57 32 152 32 46 0 105.5-7.5T535 715v-59q-35 5-90 10t-109 5q-75 0-117-24.5t-61.5-89Q138 493 138 369q0-128 18.5-192.5t59.5-88Q257 65 334 65q127 0 201 13V18Q489 7 431.5.5T318-6"/><glyph glyph-name="D" unicode="D" horiz-adv-x="610" d="M77 736h291q129 0 185.5-92T610 368q0-176-61.5-272T368 0H77m285 71q85 0 127 78.5T531 368q0 109-17.5 174T459 635.5Q422 664 362 664H157V71"/><glyph glyph-name="E" unicode="E" horiz-adv-x="530" d="M164-4Q77 55 77 139v449q0 78 42 113t103 35q160-3 249-7l59-2v-64H242q-85 0-85-88V401l329-5v-61l-329-5V157q0-51 24-69t65-18h284V6Q340-4 227-4"/><glyph glyph-name="F" unicode="F" horiz-adv-x="530" d="M77 588q0 78 42 113t103 35l56-1q24-1 104.5-2.5T530 726v-63H241q-40 0-62-22.5T157 576V385l329-5v-61l-329-5V0H77"/><glyph glyph-name="G" unicode="G" horiz-adv-x="575" d="M202-5Q100 74 79.5 154.5T59 370q0 131 22 211t76.5 120.5Q212 742 308 742q57 0 120-7t117-19v-59q-40 5-103 9.5T320 671q-72 0-111.5-30t-55-94.5Q138 482 138 369q0-120 15.5-184T207 94.5Q245 68 317 68q44 0 92.5 11t89.5 27v217H321v59q65 10 165 10 58 0 89-4V0h-58l-12 52q-45-23-100-40T293-5"/><glyph glyph-name="H" unicode="H" horiz-adv-x="604" d="M77 736h80V395h368v341h79V0h-79v324H157V0H77"/><glyph glyph-name="I" unicode="I" horiz-adv-x="157" d="M77 736h80V0H77"/><glyph glyph-name="J" unicode="J" horiz-adv-x="307" d="M112-6Q48 7 27 17v61q61-13 98-13 51 0 77 23t26 83v565h79V161q0-90-40.5-128.5T140-6"/><glyph glyph-name="K" unicode="K" horiz-adv-x="575" d="M77 736h80V403h129l202 333h84L349 368 575 0h-85L286 331H157V0H77"/><glyph glyph-name="L" unicode="L" horiz-adv-x="506" d="M155 0Q77 67 77 148v588h80V159q0-49 23-67.5T242 73h264V0H225"/><glyph glyph-name="M" unicode="M" horiz-adv-x="778" d="M701 0l-70 611L454 0h-73L201 606 134 0H57l84 736h81l196-636 192 636h82L778 0"/><glyph glyph-name="N" unicode="N" horiz-adv-x="619" d="M91 736h65l384-599v599h79V0h-65L170 599V0H91"/><glyph glyph-name="O" unicode="O" horiz-adv-x="627" d="M239-6Q120 49 89.5 128.5T59 365q0 156 31.5 237.5T182 713q60 29 161 29 104 0 164-28.5t90-110Q627 522 627 365t-30.5-236.5q-30.5-79.5-90-107T343-6m80 71q85 44 105 108t20 192q0 133-20 198t-62.5 86.5Q423 671 343 671q-76 0-119-21.5T159.5 562Q138 496 138 365q0-129 19-192.5T218.5 87Q261 65 343 65"/><glyph glyph-name="P" unicode="P" horiz-adv-x="562" d="M77 736h293q192 0 192-235 0-138-57.5-190T366 259q-29 0-97 3.5T157 269V0H77m279 330q126 0 126 170 0 164-119 164H157V330"/><glyph glyph-name="Q" unicode="Q" horiz-adv-x="627" d="M239-6Q120 49 89.5 128.5T59 365q0 156 31.5 237.5T182 713q60 29 161 29 104 0 164-28.5t90-110Q627 522 627 365t-30.5-236.5q-30.5-79.5-90-107T343-6m80 71q85 44 105 108t20 192q0 133-20 198t-62.5 86.5Q423 671 343 671q-76 0-119-21.5T159.5 562Q138 496 138 365q0-129 19-192.5T218.5 87Q261 65 343 65m103-235Q354-99 346-35h54q11-37 40.5-55.5T505-109q25 0 52 9v-62q-27-8-51-8"/><glyph glyph-name="R" unicode="R" horiz-adv-x="569" d="M77 736h290q86 0 138.5-46T558 519q0-107-40-151t-100-56L569 0h-81L345 301l-55 1-133 3V0H77m278 366q59 0 91.5 32T479 519q0 84-33 114.5T355 664H157V366"/><glyph glyph-name="S" unicode="S" horiz-adv-x="519" d="M239-6Q100 5 63 12v61q78-8 220-8 76 0 118 24t42 87v50q0 104-110 104h-79q-95 0-144.5 41.5T60 508v42q0 101 54 146.5T274 742q45 0 108.5-6.5T486 721v-60q-135 9-204 9-74 0-110-26.5T136 547v-34q0-58 30.5-82.5T257 406h85q87 0 132-46.5T519 235v-57q0-103-62.5-143.5T286-6"/><glyph glyph-name="T" unicode="T" horiz-adv-x="550" d="M244 664H16v72h534v-72H323V0h-79"/><glyph glyph-name="U" unicode="U" horiz-adv-x="609" d="M205-6Q67 98 67 228v508h80V228q0-90 47.5-126T338 66q96 0 143.5 36T529 228v508h80V228q0-130-69-182T338-6"/><glyph glyph-name="V" unicode="V" horiz-adv-x="640" d="M34 736h82L338 83l221 653h81L388 0H286"/><glyph glyph-name="W" unicode="W" horiz-adv-x="957" d="M34 736h82l158-627 182 627h80l181-627 158 627h82L768 0h-86L496 625 309 0h-86"/><glyph glyph-name="X" unicode="X" horiz-adv-x="588" d="M358 362L586 0h-87L309 302 125 0H38l229 368L35 736h87l194-308 185 308h87"/><glyph glyph-name="Y" unicode="Y" horiz-adv-x="582" d="M269 244L35 736h83l192-412 192 412h80L349 244V0h-80"/><glyph glyph-name="Z" unicode="Z" horiz-adv-x="522" d="M43 65l383 599H43v72h479v-65L139 71h383V0H43"/><glyph glyph-name="[" unicode="[" horiz-adv-x="312" d="M158-210Q93-97 93-22v682q0 77 35 129.5T249 842h63v-65h-44q-45 0-70.5-30.5T172 651V-19q0-58 23.5-92t72.5-34h44v-65h-63"/><glyph glyph-name="\" unicode="\" horiz-adv-x="380" d="M22 770h77L380-72h-77"/><glyph glyph-name="]" unicode="]" horiz-adv-x="240" d="M22-145h43q50 0 73 33.5T161-19v670q0 65-25.5 95.5T65 777H22v65h63q86 0 120.5-52.5T240 660V-22q0-75-32.5-131.5T85-210H22"/><glyph glyph-name="^" unicode="^" horiz-adv-x="343" d="M177 664h56l110-133h-48l-91 94-100-94H55"/><glyph glyph-name="_" unicode="_" horiz-adv-x="609" d="M0-98h609v-66H0"/><glyph glyph-name="`" unicode="`" horiz-adv-x="193" d="M22 767h67l104-136h-46"/><glyph glyph-name="a" unicode="a" horiz-adv-x="472" d="M120-6Q45 66 45 128v38q0 65 42.5 103T212 307h181v66q0 54-29.5 80T255 479H89v47q94 16 195 16 97 0 142.5-39.5T472 377V0h-61l-15 61q-7-6-43.5-23T269 7.5Q222-6 180-6m62 59q78 20 109.5 31T393 99v168l-163-7q-55-2-80.5-27T124 165v-24q0-46 26.5-67T215 53"/><glyph glyph-name="b" unicode="b" horiz-adv-x="521" d="M241-6l-86 60-15-54H76v763h79V485q42 24 89.5 40t85.5 16q98 0 144.5-64T521 263Q521-6 333-6m41 66q68 103 68 206 0 84-16.5 129.5T380 458q-29 17-72 17-42 0-77-11t-76-34V103q37-20 73.5-31.5T308 60"/><glyph glyph-name="c" unicode="c" horiz-adv-x="457" d="M168-6Q57 113 57 266q0 107 25.5 167t72.5 83.5Q202 540 272 540q96 0 177-14v-47H293q-55 0-88.5-18t-51-64.5Q136 350 136 264q0-82 18.5-127.5t52.5-63Q241 56 294 56h163V10Q363-6 270-6"/><glyph glyph-name="d" unicode="d" horiz-adv-x="502" d="M150-6Q57 124 57 263q0 100 20 161t64 89q44 28 118 28 76 0 164-32v254h79V0h-64l-15 54q-24-21-77-40.5T249-6m65 65q71 25 109 45v349q-47 14-76.5 20t-66.5 6q-53 0-84-19.5T150.5 394Q136 348 136 266q0-112 31-159.5T272 59"/><glyph glyph-name="e" unicode="e" horiz-adv-x="484" d="M194-6Q99 44 78 103T57 268q0 107 21.5 166t69.5 83q48 24 133 24 73 0 117-16t65-54.5Q484 432 484 364t-39.5-98.5Q405 235 332 235H136q1-69 14-106.5t48-55Q233 56 299 56h172V8q-54-7-96-10.5T280-6m45 293q46 0 67 17t21 59q0 67-29.5 92.5T281 481q-58 0-89-17t-44-58q-13-41-13-119"/><glyph glyph-name="f" unicode="f" horiz-adv-x="361" d="M105 469H23v51l82 14v61q0 89 34.5 131.5T258 769q51 0 103-10v-56h-89q-51 0-69.5-24.5T184 599v-65h166v-65H184V0h-79"/><glyph glyph-name="g" unicode="g" horiz-adv-x="553" d="M553 490l-120-10q20-13 33.5-26.5t24-41Q501 385 501 343q0-70-45-116t-144-46h-85q-45 0-68-13t-23-44q0-22 16.5-33T192 80h177q93 0 138.5-36T553-67v-22q0-74-50.5-115T356-245H207q-81 0-128.5 33.5T31-113v24q0 44 24 75t63 48Q93 46 80 66.5T67 113q0 76 90 95-52 21-73.5 62.5T62 363q0 172 206 172h285M374 242q55 60 55 110 0 121-116 121h-57q-60 0-91-26.5T134 359q0-117 110-117h60M221 18q-48 0-81.5-23.5T106-76v-22q0-89 119-89h124q62 0 95.5 23.5T478-92v20q0 43-27 66.5T359 18"/><glyph glyph-name="h" unicode="h" horiz-adv-x="515" d="M76 763h79V475q41 29 92.5 48.5T351 543q81 0 122.5-50T515 364V0h-79v355q0 51-30 83.5T325 471q-48 0-85.5-12.5T155 419V0H76"/><glyph glyph-name="i" unicode="i" horiz-adv-x="159" d="M81 629q-9 9-9 16v78q0 16 16 16h56q15 0 15-16v-78q0-16-15-16H88m-12-95h79V0H76"/><glyph glyph-name="j" unicode="j" horiz-adv-x="159" d="M80 629q-9 9-9 16v78q0 16 16 16h57q7 0 11-4.5t4-11.5v-78q0-7-4-11.5t-11-4.5H87m-11-95h79V17q0-69-5.5-137T135-237H76"/><glyph glyph-name="k" unicode="k" horiz-adv-x="490" d="M76 763h79V321h76l163 213h84L290 285 490 0h-84L228 250h-73V0H76"/><glyph glyph-name="l" unicode="l" horiz-adv-x="284" d="M145-1Q76 77 76 171v592h79V181q0-66 18-90t57-29l54-6V-1h-68"/><glyph glyph-name="m" unicode="m" horiz-adv-x="876" d="M76 534h62l17-59q100 68 200 68 48 0 83.5-21.5T494 464q42 31 102.5 55T709 543q83 0 125-51t42-132V0h-79v354q0 52-30.5 84.5T684 471q-43 0-89.5-16T505 413q10-32 10-60V0h-79v354q0 52-29.5 84.5T325 471q-48 0-85.5-12.5T155 419V0H76"/><glyph glyph-name="n" unicode="n" horiz-adv-x="515" d="M76 534h62l17-59q42 29 93 48.5T350 543q83 0 124-51t41-129V0h-79v354q0 52-29.5 84.5T325 471q-48 0-85.5-12.5T155 419V0H76"/><glyph glyph-name="o" unicode="o" horiz-adv-x="520" d="M206-6Q106 40 81.5 99.5T57 268q0 110 25 169.5t74 81.5q49 22 132 22 82 0 132-22.5t75-82Q520 377 520 268T495 99.5Q470 40 420.5 17T288-6m55 65q63 29 80 74t17 135q0 90-16.5 134.5t-48.5 59Q343 476 288 476q-56 0-87.5-14.5t-48-59Q136 358 136 268t16.5-135q16.5-45 48-59.5T288 59"/><glyph glyph-name="p" unicode="p" horiz-adv-x="521" d="M76 534h64l15-55q32 23 81 42.5t94 19.5q98 0 144.5-77T521 268q0-137-46.5-206T330-7q-43 0-88.5 14T155 44v-281H76M442 60v208q0 105-38 156t-96 51q-42 0-79-12.5T155 430V103q76-43 153-43"/><glyph glyph-name="q" unicode="q" horiz-adv-x="502" d="M423 54q-40-27-87-43.5T247-6Q144-6 100.5 60.5T57 268q0 139 48.5 206T257 541q107 0 245-14v-764h-79M340 59l83 45v375H275q-75 0-107-54t-32-155q0-114 30-162.5T266 59"/><glyph glyph-name="r" unicode="r" horiz-adv-x="388" d="M76 534h60l19-93q39 47 84 73t99 26q27 0 50-5v-81q-45 5-58 5-53 0-91.5-19T155 379V0H76"/><glyph glyph-name="s" unicode="s" horiz-adv-x="451" d="M215-6Q79 2 54 8v48h219q56 0 82 15t26 63v24q0 75-97 75h-75q-77 0-118.5 30T49 365v28q0 76 44.5 111T237 539q43 0 101.5-4.5T430 524v-48H224q-54 0-80-18t-26-65v-22q0-43 25.5-57.5T222 299h76q73 0 113-34t40-98v-37q0-76-49-106T260-6"/><glyph glyph-name="t" unicode="t" horiz-adv-x="334" d="M174 0q-74 81-72 173l3 296H20v51l86 14 13 149h61V534h154v-65H180V173q0-61 23-83.5T261 64l65-6V0h-73"/><glyph glyph-name="u" unicode="u" horiz-adv-x="515" d="M75-6v540h79V178q0-64 28.5-89T270 64q45 0 84 12.5t82 38.5v419h79V0h-62l-17 59Q334-6 235-6"/><glyph glyph-name="v" unicode="v" horiz-adv-x="517" d="M19 534h81L266 74l171 460h80L310 0h-90"/><glyph glyph-name="w" unicode="w" horiz-adv-x="778" d="M19 534h81L231 74l135 460h69L570 74l127 460h81L617 0h-87L399 428 267 0h-86"/><glyph glyph-name="x" unicode="x" horiz-adv-x="486" d="M298 263L486 0h-82L251 214 102 0H22l188 271L22 534h81l155-215 146 214 82 1"/><glyph glyph-name="y" unicode="y" horiz-adv-x="522" d="M287 0q-45 1-82 29.5T147 125L19 534h83l119-392q25-74 83-74l137 466h81L327-138l-46-99h-62"/><glyph glyph-name="z" unicode="z" horiz-adv-x="451" d="M51 60l308 409H44v65h407v-60L142 65h309V0H51"/><glyph glyph-name="{" unicode="{" horiz-adv-x="288" d="M179-210q-78 91-78 172v267q0 32-24 50.5T22 296v75q80 7 80 67v218q0 186 186 186v-65q-57 0-82-32.5T181 630V427q0-41-24-64.5T93 334q38-6 62.5-30.5T180 245V-15q0-73 25-103t83-30v-62"/><glyph glyph-name="|" unicode="|" horiz-adv-x="159" d="M93 770h66V-72H93"/><glyph glyph-name="}" unicode="}" horiz-adv-x="288" d="M22-148q58 0 83 30t25 103v260q0 34 24.5 58.5T217 334q-40 5-64 28.5T129 427v203q0 82-25 114.5T22 777v65q186 0 186-186V438q0-60 80-67v-75q-31 2-55-16.5T209 229V-38q0-81-39-126.5T22-210"/><glyph glyph-name="~" unicode="~" horiz-adv-x="396" d="M272 538q-33 18-57 34-3 2-15.5 10T178 594q-9 4-16 4-24 0-44-10.5T66 553l-11 27q29 30 55.5 47t56.5 17q15 0 31-8.5t40-25.5q18-14 30-20.5t21-6.5q41 0 95 49l12-29q-27-30-52-47.5T288 538"/><glyph glyph-name="¡" unicode="¡" horiz-adv-x="174" d="M165 535q9-9 9-16v-80q0-16-16-16h-44q-16 0-16 16v80q0 16 16 16h44m16-736H95l12 536h57"/><glyph glyph-name="¢" unicode="¢" horiz-adv-x="443" d="M239-5q-61 1-103 23T69 99q-25 59-25 167 0 109 24 168t66 80.5Q176 536 240 536v87h48v-88q70-5 148-28v-47q-65 14-175 14-49 0-78-16t-44.5-61.5Q123 351 123 263q0-84 16-129t46.5-61Q216 57 266 57q94 0 177 18V27q-43-16-77.5-23T286-5v-81h-47"/><glyph glyph-name="£" unicode="£" horiz-adv-x="544" d="M63 59l109 12v263l-109 6v42l109 10v126q0 123 52.5 171.5T384 738q60 0 148-10v-62H388q-48 0-77-11t-44-41.5Q252 583 252 525V392l214-7v-45l-214-6V71h292V0H63"/><glyph glyph-name="¤" unicode="¤" horiz-adv-x="531" d="M469 303l-32-43 94-94-37-37-94 94q-43-32-96-32t-96 32l-94-94-37 37 94 94q-31 44-31 96t31 96l-94 94 37 37 94-94q43 32 96 32t96-32l94 94 37-37-94-94q32-43 32-96M353 238q69 70 69 118 0 49-34.5 83.5T304 474q-48 0-82-34.5T188 356q0-48 34-83t82-35"/><glyph glyph-name="¥" unicode="¥" horiz-adv-x="567" d="M364 307h166v-47H342l-8-16v-63h196v-47H334V0h-80v134H79v47h175v63l-8 16H79v47h145L20 736h83l192-412 192 412h80"/><glyph glyph-name="¦" unicode="¦" horiz-adv-x="159" d="M93 770h66V429H93m0-173h66V-72H93"/><glyph glyph-name="§" unicode="§" horiz-adv-x="498" d="M265-6Q128-1 97 4v55h205q64 0 87 17.5t23 52.5v53q0 23-5.5 34.5t-22.5 16q-17 4.5-54 4.5H203q-79 0-114 23.5T54 343v53q0 44 16 64.5t52 30.5q-59 18-59 99v63q0 68 40.5 99.5T226 784q53 0 126-3t102-8v-54H236q-50 0-73.5-16T139 642v-49q0-33 18.5-44.5T220 537h126q59 0 92-11t46.5-34.5Q498 468 498 427v-52q0-42-15-63.5T433 283q33-8 44.5-32t11.5-61v-64q0-72-43.5-102T316-6m14 305q43 0 61 4t24.5 16q6.5 12 6.5 42v51q0 26-7.5 39t-27 18.5Q368 475 330 475H219q-51 0-70-13.5T130 410v-50q0-31 19-46t70-15"/><glyph glyph-name="¨" unicode="¨" horiz-adv-x="338" d="M84 653q-9 9-9 16v78q0 16 16 16h37q7 0 11-4.5t4-11.5v-78q0-7-4-11.5t-11-4.5H91m188 0q-9 9-9 16v78q0 16 16 16h37q7 0 11-4.5t4-11.5v-78q0-7-4-11.5t-11-4.5h-37"/><glyph glyph-name="©" unicode="©" horiz-adv-x="781" d="M225 0Q112 111 86 195T60 368q0 155 57 259.5T313 732h238q133 0 181.5-107T781 368q0-108-26.5-191.5t-78-130Q625 0 551 0H313m234 43q54 0 96.5 35.5T710 187q24 73 24 181 0 143-41.5 232T551 689H313q-91 0-148.5-74.5T107 361q0-82 23-154.5t69.5-118Q246 43 313 43m5 104q-81 96-81 218 0 218 151 218 35 0 86-5t89-14v-36q-43 6-89 9t-73 3q-58 0-87.5-41.5T284 362q0-87 27-129.5t89-42.5q91 0 169 16v-36q-41-14-82-18.5t-99-4.5"/><glyph glyph-name="ª" unicode="ª" horiz-adv-x="365" d="M32 531q62 51 122 51h133v49q0 37-21 54.5T187 703H64v41q64 13 146 14 75 0 111-29t36-94V360h-54l-13 44q-6-5-32.5-17T197 365.5q-34-9.5-64-9.5-45 0-73 25.5T32 451v33m150-80q55 14 77 21.5t28 10.5v117l-117-6q-38-1-56-18.5T96 482v-17q0-32 19.5-46.5T162 404M34 306h331v-42H34"/><glyph glyph-name="«" unicode="«" horiz-adv-x="564" d="M55 280l213 209 42-41-171-168 175-171-42-44m33 215l213 209 42-41-171-168 175-171-42-44"/><glyph glyph-name="¬" unicode="¬" horiz-adv-x="528" d="M528 509V203h-66v240H80v66"/><glyph glyph-name="­" unicode="­" horiz-adv-x="318" d="M25 323h293v-66H25"/><glyph glyph-name="®" unicode="®" horiz-adv-x="781" d="M225 0Q112 111 86 195T60 368q0 155 57 259.5T313 732h238q133 0 181.5-107T781 368q0-108-26.5-191.5t-78-130Q625 0 551 0H313m234 43q54 0 96.5 35.5T710 187q24 73 24 181 0 143-41.5 232T551 689H313q-91 0-148.5-74.5T107 361q0-82 23-154.5t69.5-118Q246 43 313 43m-44 537h181q58 0 92.5-28T577 450q0-47-15-71t-33-31q-18-7-48-13l102-182h-48L435 335l-119 4V153h-47m183 219q42 0 60 15t18 62q0 48-20 68t-58 20H316V372"/><glyph glyph-name="¯" unicode="¯" horiz-adv-x="320" d="M55 719h265v-47H55"/><glyph glyph-name="°" unicode="°" horiz-adv-x="296" d="M108 497q-74 74-74 132t37.5 95.5Q109 762 165 762q58 0 94.5-37.5T296 629q0-58-36.5-95T165 497m41 38q52 53 52 94t-26 68q-26 27-67 27t-67.5-27Q71 670 71 629t26.5-67.5Q124 535 165 535"/><glyph glyph-name="±" unicode="±" horiz-adv-x="528" d="M80 65725h448v-66H80M528 473H337V282h-66v191H80v66h191v191h66V539h191"/><glyph glyph-name="²" unicode="²" horiz-adv-x="415" d="M48 333l196 189q44 41 62.5 76.5T325 676q0 40-24.5 62T214 760H67v53l29 3q78 8 133 8 90 0 128-36.5T395 684q0-56-22-98.5T296 489L143 343h272v-63H48"/><glyph glyph-name="³" unicode="³" horiz-adv-x="394" d="M111 276l-70 11v53h175q52 0 80 16.5t28 59.5v33q0 37-26 54t-65 19l-137 5v51l134 5q42 2 64 17.5t22 48.5v34q0 77-105 77H59v53q73 12 179 11 72 0 109.5-34t37.5-94v-45q0-44-23.5-67.5T308 552q33-7 59.5-34.5T394 443v-36q0-63-41-97t-116-34"/><glyph glyph-name="´" unicode="´" horiz-adv-x="193" d="M126 767h67L68 631H22"/><glyph glyph-name="¶" unicode="¶" horiz-adv-x="558" d="M274 323q-9-6-29.5-9.5T195 311q-77 0-117.5 43T37 462v134q0 68 47 104t116 36h358v-59h-77V0h-56v679h-95v-949h-56m0 637v312h-71q-55 0-82.5-25.5T93 583V469q0-60 36-81t74-21"/><glyph glyph-name="·" unicode="·" horiz-adv-x="170" d="M102 332q-9 8-9 15v47q0 16 16 16h44q17 0 17-16v-47q0-15-17-15h-44"/><glyph glyph-name="¸" unicode="¸" horiz-adv-x="184" d="M184-58v-60q0-34-25-53t-71-19H55v33l22 2q28 3 42 13.5t14 31.5q0 19-14.5 31T67-66l52 79h37l-44-67"/><glyph glyph-name="¹" unicode="¹" horiz-adv-x="404" d="M404 341v-61H68v61h133v417L76 728v50l131 47h64V341"/><glyph glyph-name="º" unicode="º" horiz-adv-x="391" d="M278 757q75-34 94-77.5T391 556q0-80-18.5-123t-56-60Q279 356 215 356q-63 0-100.5 17.5t-56 60.5Q40 477 40 556q0 81 18.5 124.5t56 60Q152 757 215 757m38-349q44 21 56 53t12 96q0 64-12 96t-34 42q-22 10-60 10-39 0-60.5-10t-33-42Q110 621 110 557t11.5-96q11.5-32 33.5-42.5t60-10.5M49 306h333v-42H49"/><glyph glyph-name="»" unicode="»" horiz-adv-x="557" d="M52 108l171 169L49 447l43 42 215-212L93 65m209 43l171 169-174 170 43 42 215-212L343 65"/><glyph glyph-name="¼" unicode="¼" horiz-adv-x="1231" d="M796 770h58L479 0h-59m673 133H839l-11 46 196 361h71L905 191h188v126l17 64h50V191h71v-47l-71-11V1h-67M411 341v-61H75v61h133v417L83 728v50l131 47h64V341"/><glyph glyph-name="½" unicode="½" horiz-adv-x="1210" d="M796 770h58L479 0h-59m423 53l196 189q44 41 62.5 76.5T1120 396q0 40-24.5 62t-86.5 22H862v53l29 3q78 8 133 8 90 0 128-36.5t38-103.5q0-56-22-98.5t-77-96.5L938 63h272V0H843M411 341v-61H75v61h133v417L83 728v50l131 47h64V341"/><glyph glyph-name="¾" unicode="¾" horiz-adv-x="1231" d="M796 770h58L479 0h-59m673 133H839l-11 46 196 361h71L905 191h188v126l17 64h50V191h71v-47l-71-11V1h-67M121 276l-70 11v53h175q52 0 80 16.5t28 59.5v33q0 37-26 54t-65 19l-137 5v51l134 5q42 2 64 17.5t22 48.5v34q0 77-105 77H69v53q73 12 179 11 72 0 109.5-34t37.5-94v-45q0-44-23.5-67.5T318 552q33-7 59.5-34.5T404 443v-36q0-63-41-97t-116-34"/><glyph glyph-name="¿" unicode="¿" horiz-adv-x="486" d="M360 535q9-9 9-16v-80q0-16-16-16h-44q-16 0-16 16v80q0 16 16 16h44m8-357h-50q-83 0-118-25t-35-90V4q0-75 32-106.5T294-134q49 0 94 9t98 29v-56q-91-53-215-53-102 0-147.5 51.5T78-7v71q0 90 53.5 133.5T300 241v94h61"/><glyph glyph-name="À" unicode="À" horiz-adv-x="640" d="M286 736h102L640 0h-82l-74 210H188L116 0H34m430 282L337 666 208 282m-14 645h67l104-136h-46"/><glyph glyph-name="Á" unicode="Á" horiz-adv-x="640" d="M286 736h102L640 0h-82l-74 210H188L116 0H34m430 282L337 666 208 282m214 645h67L364 791h-46"/><glyph glyph-name="Â" unicode="Â" horiz-adv-x="640" d="M286 736h102L640 0h-82l-74 210H188L116 0H34m430 282L337 666 208 282m104 644h56l110-135h-48l-91 97-100-97h-49"/><glyph glyph-name="Ã" unicode="Ã" horiz-adv-x="640" d="M286 736h102L640 0h-82l-74 210H188L116 0H34m430 282L337 666 208 282m-42 580q56 52 95 52 23 0 41.5-8.5T348 881q21-14 36.5-21t31.5-7q26 0 43 16.5t18 46.5h40q-1-51-26-80t-70-29q-21 0-39.5 8T336 840q-23 14-39 21.5t-32 7.5q-25 0-41.5-16T206 807h-41"/><glyph glyph-name="Ä" unicode="Ä" horiz-adv-x="640" d="M286 736h102L640 0h-82l-74 210H188L116 0H34m430 282L337 666 208 282m-22 531q-9 9-9 16v78q0 16 16 16h37q7 0 11.5-4.5T246 907v-78q0-7-4.5-11.5T230 813h-37m229 0q-9 9-9 16v78q0 16 16 16h37q7 0 11-4.5t4-11.5v-78q0-7-4-11.5t-11-4.5h-37"/><glyph glyph-name="Å" unicode="Å" horiz-adv-x="640" d="M286 736h102L640 0h-82l-74 210H188L116 0H34m430 282L337 666 208 282m73 482q-55 48-55 106 0 59 28 83.5t84 24.5q56 0 83-24.5t27-83.5q0-58-27-82t-83-24m38 33q32 31 32 73t-16 58.5Q376 945 338 945t-55.5-16.5Q265 912 265 870q0-41 17.5-57t55.5-16"/><glyph glyph-name="Æ" unicode="Æ" horiz-adv-x="906" d="M558-4q-75 56-78 122v91H242L113 0H34l357 601q38 71 89.5 103T612 736q99 0 251-8l43-2v-63H625q-39 0-55.5-16T553 596V401l310-5v-61l-310-5V157q0-47 24-67t71-20h258V7l-26-1Q724-4 630-4M480 277v338L279 277"/><glyph glyph-name="Ç" unicode="Ç" horiz-adv-x="535" d="M261 671q-84-49-103.5-113.5T138 369q0-128 18.5-192.5t59.5-88Q257 65 334 65q127 0 201 13V18Q456-2 352-5l-32-49q72-4 72-64 0-34-25-53t-71-19h-33v33l22 2q28 3 42 13.5t14 31.5q0 19-14.5 31T275-66l39 60q-93 1-147 30.5T86 135q-27 81-27 235 0 147 28 227.5T172 710q57 32 152 32 46 0 105.5-7.5T535 715v-59q-35 5-90 10t-109 5"/><glyph glyph-name="È" unicode="È" horiz-adv-x="530" d="M164-4Q77 55 77 139v449q0 78 42 113t103 35q160-3 249-7l59-2v-64H242q-85 0-85-88V401l329-5v-61l-329-5V157q0-51 24-69t65-18h284V6Q340-4 227-4m-59 931h67l104-136h-46"/><glyph glyph-name="É" unicode="É" horiz-adv-x="530" d="M164-4Q77 55 77 139v449q0 78 42 113t103 35q160-3 249-7l59-2v-64H242q-85 0-85-88V401l329-5v-61l-329-5V157q0-51 24-69t65-18h284V6Q340-4 227-4m169 931h67L338 791h-46"/><glyph glyph-name="Ê" unicode="Ê" horiz-adv-x="530" d="M164-4Q77 55 77 139v449q0 78 42 113t103 35q160-3 249-7l59-2v-64H242q-85 0-85-88V401l329-5v-61l-329-5V157q0-51 24-69t65-18h284V6Q340-4 227-4m59 930h56l110-135h-48l-91 97-100-97h-49"/><glyph glyph-name="Ë" unicode="Ë" horiz-adv-x="530" d="M164-4Q77 55 77 139v449q0 78 42 113t103 35q160-3 249-7l59-2v-64H242q-85 0-85-88V401l329-5v-61l-329-5V157q0-51 24-69t65-18h284V6Q340-4 227-4m-67 817q-9 9-9 16v78q0 16 16 16h37q7 0 11.5-4.5T220 907v-78q0-7-4.5-11.5T204 813h-37m229 0q-9 9-9 16v78q0 16 16 16h37q7 0 11-4.5t4-11.5v-78q0-7-4-11.5t-11-4.5h-37"/><glyph glyph-name="Ì" unicode="Ì" horiz-adv-x="157" d="M77 736h80V0H77M-26 927h67l104-136H99"/><glyph glyph-name="Í" unicode="Í" horiz-adv-x="269" d="M77 736h80V0H77m125 927h67L144 791H98"/><glyph glyph-name="Î" unicode="Î" horiz-adv-x="258" d="M77 736h80V0H77m15 926h56l110-135h-48l-91 97-100-97h-49"/><glyph glyph-name="Ï" unicode="Ï" horiz-adv-x="261" d="M77 736h80V0H77M-34 813q-9 9-9 16v78q0 16 16 16h37q7 0 11.5-4.5T26 907v-78q0-7-4.5-11.5T10 813h-37m229 0q-9 9-9 16v78q0 16 16 16h37q7 0 11-4.5t4-11.5v-78q0-7-4-11.5t-11-4.5h-37"/><glyph glyph-name="Ð" unicode="Ð" horiz-adv-x="610" d="M497 736q113-184 113-368 0-176-61.5-272T368 0H77v345H15v55h62v336h291m79-665q84 157 84 297 0 109-17.5 174T459 635.5Q422 664 362 664H157V400h168v-55H157V71h205"/><glyph glyph-name="Ñ" unicode="Ñ" horiz-adv-x="619" d="M91 736h65l384-599v599h79V0h-65L170 599V0H91m78 862q56 52 95 52 23 0 41.5-8.5T351 881q21-14 36.5-21t31.5-7q26 0 43 16.5t18 46.5h40q-1-51-26-80t-70-29q-21 0-39.5 8T339 840q-23 14-39 21.5t-32 7.5q-25 0-41.5-16T209 807h-41"/><glyph glyph-name="Ò" unicode="Ò" horiz-adv-x="627" d="M239-6Q120 49 89.5 128.5T59 365q0 156 31.5 237.5T182 713q60 29 161 29 104 0 164-28.5t90-110Q627 522 627 365t-30.5-236.5q-30.5-79.5-90-107T343-6m80 71q85 44 105 108t20 192q0 133-20 198t-62.5 86.5Q423 671 343 671q-76 0-119-21.5T159.5 562Q138 496 138 365q0-129 19-192.5T218.5 87Q261 65 343 65M200 927h67l104-136h-46"/><glyph glyph-name="Ó" unicode="Ó" horiz-adv-x="627" d="M239-6Q120 49 89.5 128.5T59 365q0 156 31.5 237.5T182 713q60 29 161 29 104 0 164-28.5t90-110Q627 522 627 365t-30.5-236.5q-30.5-79.5-90-107T343-6m80 71q85 44 105 108t20 192q0 133-20 198t-62.5 86.5Q423 671 343 671q-76 0-119-21.5T159.5 562Q138 496 138 365q0-129 19-192.5T218.5 87Q261 65 343 65m85 862h67L370 791h-46"/><glyph glyph-name="Ô" unicode="Ô" horiz-adv-x="627" d="M239-6Q120 49 89.5 128.5T59 365q0 156 31.5 237.5T182 713q60 29 161 29 104 0 164-28.5t90-110Q627 522 627 365t-30.5-236.5q-30.5-79.5-90-107T343-6m80 71q85 44 105 108t20 192q0 133-20 198t-62.5 86.5Q423 671 343 671q-76 0-119-21.5T159.5 562Q138 496 138 365q0-129 19-192.5T218.5 87Q261 65 343 65m-25 861h56l110-135h-48l-91 97-100-97h-49"/><glyph glyph-name="Õ" unicode="Õ" horiz-adv-x="627" d="M239-6Q120 49 89.5 128.5T59 365q0 156 31.5 237.5T182 713q60 29 161 29 104 0 164-28.5t90-110Q627 522 627 365t-30.5-236.5q-30.5-79.5-90-107T343-6m80 71q85 44 105 108t20 192q0 133-20 198t-62.5 86.5Q423 671 343 671q-76 0-119-21.5T159.5 562Q138 496 138 365q0-129 19-192.5T218.5 87Q261 65 343 65M172 862q56 52 95 52 23 0 41.5-8.5T354 881q21-14 36.5-21t31.5-7q26 0 43 16.5t18 46.5h40q-1-51-26-80t-70-29q-21 0-39.5 8T342 840q-23 14-39 21.5t-32 7.5q-25 0-41.5-16T212 807h-41"/><glyph glyph-name="Ö" unicode="Ö" horiz-adv-x="627" d="M239-6Q120 49 89.5 128.5T59 365q0 156 31.5 237.5T182 713q60 29 161 29 104 0 164-28.5t90-110Q627 522 627 365t-30.5-236.5q-30.5-79.5-90-107T343-6m80 71q85 44 105 108t20 192q0 133-20 198t-62.5 86.5Q423 671 343 671q-76 0-119-21.5T159.5 562Q138 496 138 365q0-129 19-192.5T218.5 87Q261 65 343 65M192 813q-9 9-9 16v78q0 16 16 16h37q7 0 11.5-4.5T252 907v-78q0-7-4.5-11.5T236 813h-37m229 0q-9 9-9 16v78q0 16 16 16h37q7 0 11-4.5t4-11.5v-78q0-7-4-11.5t-11-4.5h-37"/><glyph glyph-name="×" unicode="×" horiz-adv-x="486" d="M304 403l-47-47-135 135 47 47m182-182l-47 47 135 135 47-47M257 356l47-47-135-135-47 47m229 135l135-135-47-47-135 135"/><glyph glyph-name="Ø" unicode="Ø" horiz-adv-x="627" d="M597 620q30-144 30-255 0-157-30.5-236.5t-90-107Q447-6 343-6q-65 0-110.5 9.5T154 37L130 0H72l47 72q-30 41-45 112T59 365q0 156 31.5 237.5T182 713q60 29 161 29 64 0 110-10t79-34l25 38h58l-49-74M138 210l29-65 322 487q-23 23-58 31t-88 8q-76 0-119-21.5T159.5 562Q138 496 138 365M423 65q85 44 105 108t20 192q0 82-7 136t-23 88L197 102q24-21 58.5-29t87.5-8"/><glyph glyph-name="Ù" unicode="Ù" horiz-adv-x="609" d="M205-6Q67 98 67 228v508h80V228q0-90 47.5-126T338 66q96 0 143.5 36T529 228v508h80V228q0-130-69-182T338-6M191 927h67l104-136h-46"/><glyph glyph-name="Ú" unicode="Ú" horiz-adv-x="609" d="M205-6Q67 98 67 228v508h80V228q0-90 47.5-126T338 66q96 0 143.5 36T529 228v508h80V228q0-130-69-182T338-6m81 933h67L361 791h-46"/><glyph glyph-name="Û" unicode="Û" horiz-adv-x="609" d="M205-6Q67 98 67 228v508h80V228q0-90 47.5-126T338 66q96 0 143.5 36T529 228v508h80V228q0-130-69-182T338-6m-29 932h56l110-135h-48l-91 97-100-97h-49"/><glyph glyph-name="Ü" unicode="Ü" horiz-adv-x="609" d="M205-6Q67 98 67 228v508h80V228q0-90 47.5-126T338 66q96 0 143.5 36T529 228v508h80V228q0-130-69-182T338-6M183 813q-9 9-9 16v78q0 16 16 16h37q7 0 11.5-4.5T243 907v-78q0-7-4.5-11.5T227 813h-37m229 0q-9 9-9 16v78q0 16 16 16h37q7 0 11-4.5t4-11.5v-78q0-7-4-11.5t-11-4.5h-37"/><glyph glyph-name="Ý" unicode="Ý" horiz-adv-x="582" d="M269 244L35 736h83l192-412 192 412h80L349 244V0h-80m126 927h67L337 791h-46"/><glyph glyph-name="Þ" unicode="Þ" horiz-adv-x="518" d="M77 736h80V601h169q83 0 137.5-46T518 382q0-128-57.5-176.5T323 157q-23 0-77.5 4t-88.5 7V0H77m236 229q125 0 125 153 0 147-118 147H157V229"/><glyph glyph-name="ß" unicode="ß" horiz-adv-x="561" d="M346-7Q256 2 230 8v52q68-4 145-4 61 0 85.5 26t24.5 58v23q0 29-21.5 43T397 235q-36 12-58.5 23t-38 31.5Q285 310 285 343q0 38 19 65.5t59 66.5q36 34 54.5 60.5T436 596q0 105-141 105-74 0-112-40.5T145 541V0H66v548q0 97 58 158t171 61q112 0 164-45.5T511 601q0-47-22-79.5T424 450q-33-31-48-50.5T361 355q0-27 20.5-40.5T445 285q37-13 60-25t39.5-34.5Q561 203 561 168v-29q0-73-48.5-109.5T392-7"/><glyph glyph-name="à" unicode="à" horiz-adv-x="472" d="M120-6Q45 66 45 128v38q0 65 42.5 103T212 307h181v66q0 54-29.5 80T255 479H89v47q94 16 195 16 97 0 142.5-39.5T472 377V0h-61l-15 61q-7-6-43.5-23T269 7.5Q222-6 180-6m62 59q78 20 109.5 31T393 99v168l-163-7q-55-2-80.5-27T124 165v-24q0-46 26.5-67T215 53m-74 714h67l104-136h-46"/><glyph glyph-name="á" unicode="á" horiz-adv-x="472" d="M120-6Q45 66 45 128v38q0 65 42.5 103T212 307h181v66q0 54-29.5 80T255 479H89v47q94 16 195 16 97 0 142.5-39.5T472 377V0h-61l-15 61q-7-6-43.5-23T269 7.5Q222-6 180-6m62 59q78 20 109.5 31T393 99v168l-163-7q-55-2-80.5-27T124 165v-24q0-46 26.5-67T215 53m127 714h67L284 631h-46"/><glyph glyph-name="â" unicode="â" horiz-adv-x="472" d="M120-6Q45 66 45 128v38q0 65 42.5 103T212 307h181v66q0 54-29.5 80T255 479H89v47q94 16 195 16 97 0 142.5-39.5T472 377V0h-61l-15 61q-7-6-43.5-23T269 7.5Q222-6 180-6m62 59q78 20 109.5 31T393 99v168l-163-7q-55-2-80.5-27T124 165v-24q0-46 26.5-67T215 53m30 713h56l110-135h-48l-91 97-100-97h-49"/><glyph glyph-name="ã" unicode="ã" horiz-adv-x="472" d="M120-6Q45 66 45 128v38q0 65 42.5 103T212 307h181v66q0 54-29.5 80T255 479H89v47q94 16 195 16 97 0 142.5-39.5T472 377V0h-61l-15 61q-7-6-43.5-23T269 7.5Q222-6 180-6m62 59q78 20 109.5 31T393 99v168l-163-7q-55-2-80.5-27T124 165v-24q0-46 26.5-67T215 53M107 702q56 52 95 52 23 0 41.5-8.5T289 721q21-14 36.5-21t31.5-7q26 0 43 16.5t18 46.5h40q-1-51-26-80t-70-29q-21 0-39.5 8T277 680q-23 14-39 21.5t-32 7.5q-25 0-41.5-16T147 647h-41"/><glyph glyph-name="ä" unicode="ä" horiz-adv-x="472" d="M120-6Q45 66 45 128v38q0 65 42.5 103T212 307h181v66q0 54-29.5 80T255 479H89v47q94 16 195 16 97 0 142.5-39.5T472 377V0h-61l-15 61q-7-6-43.5-23T269 7.5Q222-6 180-6m62 59q78 20 109.5 31T393 99v168l-163-7q-55-2-80.5-27T124 165v-24q0-46 26.5-67T215 53m-69 600q-9 9-9 16v78q0 16 16 16h36q16 0 16-16v-78q0-16-16-16h-36m188 0q-9 9-9 16v78q0 16 16 16h36q16 0 16-16v-78q0-16-16-16h-36"/><glyph glyph-name="å" unicode="å" horiz-adv-x="472" d="M120-6Q45 66 45 128v38q0 65 42.5 103T212 307h181v66q0 54-29.5 80T255 479H89v47q94 16 195 16 97 0 142.5-39.5T472 377V0h-61l-15 61q-7-6-43.5-23T269 7.5Q222-6 180-6m62 59q78 20 109.5 31T393 99v168l-163-7q-55-2-80.5-27T124 165v-24q0-46 26.5-67T215 53m-1 541q-55 48-55 106 0 59 28 83.5t84 24.5q56 0 83-24.5t27-83.5q0-58-27-82t-83-24m38 33q32 31 32 73t-16 58.5Q309 775 271 775t-55.5-16.5Q198 742 198 700q0-41 17.5-57t55.5-16"/><glyph glyph-name="æ" unicode="æ" horiz-adv-x="821" d="M116-6Q46 68 46 131v33q0 64 42 101t122 37h184v72q0 49-29.5 77T264 479H90v47q43 8 83.5 12t101.5 4q59 0 103-23t62-68q19 48 63.5 69T615 541q108 0 157-39t49-139q0-65-38.5-90.5T664 247H472q-1-110 44-150.5T645 56h162V8Q728-6 612-6 479-6 423 102q-42-46-105.5-77T183-6m479 306q44 0 65.5 13t21.5 51q0 63-31 89t-107 26q-56 0-85-15t-41-52.5Q473 374 472 300M266 53q101 47 141 89-13 44-14 116l-170-4q-51-1-74.5-25.5T125 165v-23q0-47 25-68t64-21"/><glyph glyph-name="ç" unicode="ç" horiz-adv-x="457" d="M366-5l-77-1-32-48q72-4 72-64 0-34-25-53t-71-19h-33v33l22 2q28 3 42 13.5t14 31.5q0 19-14.5 31T212-66l40 60q-93 5-144 65.5T57 266q0 107 25.5 167t72.5 83.5Q202 540 272 540q96 0 177-14v-47H293q-55 0-88.5-18t-51-64.5Q136 350 136 264q0-82 18.5-127.5t52.5-63Q241 56 294 56h163V10"/><glyph glyph-name="è" unicode="è" horiz-adv-x="484" d="M194-6Q99 44 78 103T57 268q0 107 21.5 166t69.5 83q48 24 133 24 73 0 117-16t65-54.5Q484 432 484 364t-39.5-98.5Q405 235 332 235H136q1-69 14-106.5t48-55Q233 56 299 56h172V8q-54-7-96-10.5T280-6m45 293q46 0 67 17t21 59q0 67-29.5 92.5T281 481q-58 0-89-17t-44-58q-13-41-13-119m6 480h67l104-136h-46"/><glyph glyph-name="é" unicode="é" horiz-adv-x="484" d="M194-6Q99 44 78 103T57 268q0 107 21.5 166t69.5 83q48 24 133 24 73 0 117-16t65-54.5Q484 432 484 364t-39.5-98.5Q405 235 332 235H136q1-69 14-106.5t48-55Q233 56 299 56h172V8q-54-7-96-10.5T280-6m45 293q46 0 67 17t21 59q0 67-29.5 92.5T281 481q-58 0-89-17t-44-58q-13-41-13-119m207 480h67L284 631h-46"/><glyph glyph-name="ê" unicode="ê" horiz-adv-x="484" d="M194-6Q99 44 78 103T57 268q0 107 21.5 166t69.5 83q48 24 133 24 73 0 117-16t65-54.5Q484 432 484 364t-39.5-98.5Q405 235 332 235H136q1-69 14-106.5t48-55Q233 56 299 56h172V8q-54-7-96-10.5T280-6m45 293q46 0 67 17t21 59q0 67-29.5 92.5T281 481q-58 0-89-17t-44-58q-13-41-13-119m110 479h56l110-135h-48l-91 97-100-97h-49"/><glyph glyph-name="ë" unicode="ë" horiz-adv-x="484" d="M194-6Q99 44 78 103T57 268q0 107 21.5 166t69.5 83q48 24 133 24 73 0 117-16t65-54.5Q484 432 484 364t-39.5-98.5Q405 235 332 235H136q1-69 14-106.5t48-55Q233 56 299 56h172V8q-54-7-96-10.5T280-6m45 293q46 0 67 17t21 59q0 67-29.5 92.5T281 481q-58 0-89-17t-44-58q-13-41-13-119m11 366q-9 9-9 16v78q0 16 16 16h36q16 0 16-16v-78q0-16-16-16h-36m188 0q-9 9-9 16v78q0 16 16 16h36q16 0 16-16v-78q0-16-16-16h-36"/><glyph glyph-name="ì" unicode="ì" horiz-adv-x="157" d="M76 534h79V0H76m166 767h67l104-136h-46"/><glyph glyph-name="í" unicode="í" horiz-adv-x="254" d="M76 534h79V0H76m111 767h67L129 631H83"/><glyph glyph-name="î" unicode="î" horiz-adv-x="256" d="M76 534h79V0H76m270 766h56l110-135h-48l-91 97-100-97h-49"/><glyph glyph-name="ï" unicode="ï" horiz-adv-x="245" d="M76 534h79V0H76M-9 653q-9 9-9 16v78q0 16 16 16h36q16 0 16-16v-78q0-16-16-16H-2m188 0q-9 9-9 16v78q0 16 16 16h36q16 0 16-16v-78q0-16-16-16h-36"/><glyph glyph-name="ð" unicode="ð" horiz-adv-x="520" d="M520 267q0-109-25-168t-74.5-82Q371-6 288-6q-82 0-132 23T81.5 98.5Q57 157 57 264q0 108 25.5 166.5t73 80.5Q203 533 279 533q52 0 89-11.5t61-38.5q-25 107-86 162l-160-62-11 29 141 55q-61 40-165 50v50q148-9 231-74l128 50 12-30-113-44q57-57 85.5-155T520 269v-2M343 59q63 29 80 73t17 133q0 88-16.5 132T375 455q-32 14-87 14-56 0-87.5-14t-48-58Q136 353 136 265q0-89 16.5-133t48-58.5Q232 59 288 59"/><glyph glyph-name="ñ" unicode="ñ" horiz-adv-x="515" d="M76 534h62l17-59q42 29 93 48.5T350 543q83 0 124-51t41-129V0h-79v354q0 52-29.5 84.5T325 471q-48 0-85.5-12.5T155 419V0H76m54 702q56 52 95 52 23 0 41.5-8.5T312 721q21-14 36.5-21t31.5-7q26 0 43 16.5t18 46.5h40q-1-51-26-80t-70-29q-21 0-39.5 8T300 680q-23 14-39 21.5t-32 7.5q-25 0-41.5-16T170 647h-41"/><glyph glyph-name="ò" unicode="ò" horiz-adv-x="520" d="M206-6Q106 40 81.5 99.5T57 268q0 110 25 169.5t74 81.5q49 22 132 22 82 0 132-22.5t75-82Q520 377 520 268T495 99.5Q470 40 420.5 17T288-6m55 65q63 29 80 74t17 135q0 90-16.5 134.5t-48.5 59Q343 476 288 476q-56 0-87.5-14.5t-48-59Q136 358 136 268t16.5-135q16.5-45 48-59.5T288 59M159 767h67l104-136h-46"/><glyph glyph-name="ó" unicode="ó" horiz-adv-x="520" d="M206-6Q106 40 81.5 99.5T57 268q0 110 25 169.5t74 81.5q49 22 132 22 82 0 132-22.5t75-82Q520 377 520 268T495 99.5Q470 40 420.5 17T288-6m55 65q63 29 80 74t17 135q0 90-16.5 134.5t-48.5 59Q343 476 288 476q-56 0-87.5-14.5t-48-59Q136 358 136 268t16.5-135q16.5-45 48-59.5T288 59m72 708h67L302 631h-46"/><glyph glyph-name="ô" unicode="ô" horiz-adv-x="520" d="M206-6Q106 40 81.5 99.5T57 268q0 110 25 169.5t74 81.5q49 22 132 22 82 0 132-22.5t75-82Q520 377 520 268T495 99.5Q470 40 420.5 17T288-6m55 65q63 29 80 74t17 135q0 90-16.5 134.5t-48.5 59Q343 476 288 476q-56 0-87.5-14.5t-48-59Q136 358 136 268t16.5-135q16.5-45 48-59.5T288 59m-25 707h56l110-135h-48l-91 97-100-97h-49"/><glyph glyph-name="õ" unicode="õ" horiz-adv-x="520" d="M206-6Q106 40 81.5 99.5T57 268q0 110 25 169.5t74 81.5q49 22 132 22 82 0 132-22.5t75-82Q520 377 520 268T495 99.5Q470 40 420.5 17T288-6m55 65q63 29 80 74t17 135q0 90-16.5 134.5t-48.5 59Q343 476 288 476q-56 0-87.5-14.5t-48-59Q136 358 136 268t16.5-135q16.5-45 48-59.5T288 59M124 702q56 52 95 52 23 0 41.5-8.5T306 721q21-14 36.5-21t31.5-7q26 0 43 16.5t18 46.5h40q-1-51-26-80t-70-29q-21 0-39.5 8T294 680q-23 14-39 21.5t-32 7.5q-25 0-41.5-16T164 647h-41"/><glyph glyph-name="ö" unicode="ö" horiz-adv-x="520" d="M206-6Q106 40 81.5 99.5T57 268q0 110 25 169.5t74 81.5q49 22 132 22 82 0 132-22.5t75-82Q520 377 520 268T495 99.5Q470 40 420.5 17T288-6m55 65q63 29 80 74t17 135q0 90-16.5 134.5t-48.5 59Q343 476 288 476q-56 0-87.5-14.5t-48-59Q136 358 136 268t16.5-135q16.5-45 48-59.5T288 59M164 653q-9 9-9 16v78q0 16 16 16h36q16 0 16-16v-78q0-16-16-16h-36m188 0q-9 9-9 16v78q0 16 16 16h36q16 0 16-16v-78q0-16-16-16h-36"/><glyph glyph-name="÷" unicode="÷" horiz-adv-x="528" d="M271 507q-13 13-13 23v49q0 12 6 18.5t18 6.5h44q25 0 25-25v-49q0-23-25-23h-44M80 389h448v-66H80m191-215q-13 13-13 23v50q0 12 6 18.5t18 6.5h44q25 0 25-25v-50q0-23-25-23h-44"/><glyph glyph-name="ø" unicode="ø" horiz-adv-x="525" d="M475 472q45-62 45-204 0-109-25-168.5T420.5 17Q371-6 288-6q-56 0-96 10t-67 34L94 0H51l51 63q-45 63-45 205 0 110 25 169.5t74 81.5q49 22 132 22 56 0 96.5-10t67.5-34l30 37h43M136 175l18-47 250 310q-17 22-45 30t-71 8q-56 0-87.5-14.5t-48-59Q136 358 136 268m304 92l-18 46L172 97q18-22 45.5-30t70.5-8q55 0 86.5 14.5T423 133q17 45 17 135"/><glyph glyph-name="ù" unicode="ù" horiz-adv-x="515" d="M75-6v540h79V178q0-64 28.5-89T270 64q45 0 84 12.5t82 38.5v419h79V0h-62l-17 59Q334-6 235-6m-78 773h67l104-136h-46"/><glyph glyph-name="ú" unicode="ú" horiz-adv-x="515" d="M75-6v540h79V178q0-64 28.5-89T270 64q45 0 84 12.5t82 38.5v419h79V0h-62l-17 59Q334-6 235-6m123 773h67L300 631h-46"/><glyph glyph-name="û" unicode="û" horiz-adv-x="515" d="M75-6v540h79V178q0-64 28.5-89T270 64q45 0 84 12.5t82 38.5v419h79V0h-62l-17 59Q334-6 235-6m26 772h56l110-135h-48l-91 97-100-97h-49"/><glyph glyph-name="ü" unicode="ü" horiz-adv-x="515" d="M75-6v540h79V178q0-64 28.5-89T270 64q45 0 84 12.5t82 38.5v419h79V0h-62l-17 59Q334-6 235-6m-73 659q-9 9-9 16v78q0 16 16 16h36q16 0 16-16v-78q0-16-16-16h-36m188 0q-9 9-9 16v78q0 16 16 16h36q16 0 16-16v-78q0-16-16-16h-36"/><glyph glyph-name="ý" unicode="ý" horiz-adv-x="522" d="M287 0q-45 1-82 29.5T147 125L19 534h83l119-392q25-74 83-74l137 466h81L327-138l-46-99h-62M339 767h67L281 631h-46"/><glyph glyph-name="þ" unicode="þ" horiz-adv-x="521" d="M76 763h79V479q32 23 81 42.5t94 19.5q96 0 143.5-77.5T521 268Q521-7 330-7q-43 0-88.5 14T155 44v-281H76M442 60v205q0 107-38 158.5T308 475q-42 0-79-12.5T155 430V103q76-43 153-43"/><glyph glyph-name="ÿ" unicode="ÿ" horiz-adv-x="522" d="M287 0q-45 1-82 29.5T147 125L19 534h83l119-392q25-74 83-74l137 466h81L327-138l-46-99h-62m-76 890q-9 9-9 16v78q0 16 16 16h36q16 0 16-16v-78q0-16-16-16h-36m188 0q-9 9-9 16v78q0 16 16 16h36q16 0 16-16v-78q0-16-16-16h-36"/><glyph glyph-name="Ā" unicode="Ā" horiz-adv-x="640" d="M286 736h102L640 0h-82l-74 210H188L116 0H34m430 282L337 666 208 282m-10 597h265v-47H198"/><glyph glyph-name="ā" unicode="ā" horiz-adv-x="472" d="M120-6Q45 66 45 128v38q0 65 42.5 103T212 307h181v66q0 54-29.5 80T255 479H89v47q94 16 195 16 97 0 142.5-39.5T472 377V0h-61l-15 61q-7-6-43.5-23T269 7.5Q222-6 180-6m62 59q78 20 109.5 31T393 99v168l-163-7q-55-2-80.5-27T124 165v-24q0-46 26.5-67T215 53m-80 666h265v-47H135"/><glyph glyph-name="Ă" unicode="Ă" horiz-adv-x="640" d="M286 736h102L640 0h-82l-74 210H188L116 0H34m430 282L337 666 208 282m63 507q-72 68-72 141h39q0-53 24.5-78t64.5-25q96 0 96 103h39q0-75-36-108t-96-33"/><glyph glyph-name="ă" unicode="ă" horiz-adv-x="472" d="M120-6Q45 66 45 128v38q0 65 42.5 103T212 307h181v66q0 54-29.5 80T255 479H89v47q94 16 195 16 97 0 142.5-39.5T472 377V0h-61l-15 61q-7-6-43.5-23T269 7.5Q222-6 180-6m62 59q78 20 109.5 31T393 99v168l-163-7q-55-2-80.5-27T124 165v-24q0-46 26.5-67T215 53m-11 576q-72 68-72 141h39q0-53 25-78t64-25q96 0 96 103h39q0-75-36-108t-96-33"/><glyph glyph-name="Ą" unicode="Ą" horiz-adv-x="640" d="M286 736h102L640 0h-82l-74 210H188L116 0H34m430 282L337 666 208 282m331-469q-56 50-56 89 0 30 19 55t56 43h30q-63-35-63-81 0-30 22-47.5t61-17.5h6v-38q-11-3-26-3"/><glyph glyph-name="ą" unicode="ą" horiz-adv-x="498" d="M498-146v-38q-10-3-26-3-49 0-77 25t-28 64q0 30 19 55t56 43h-31l-15 61q-7-6-43.5-23T269 7.5Q222-6 180-6q-60 0-97.5 36T45 128v38q0 65 42.5 103T212 307h181v66q0 54-29.5 80T255 479H89v47q94 16 195 16 97 0 142.5-39.5T472 377V0q-63-35-63-81 0-30 22-47.5t61-17.5m-99 413l-163-7q-55-2-80.5-27T124 165v-24q0-46 26.5-67T215 53q27 0 66 10t70.5 21Q383 95 393 99"/><glyph glyph-name="Ć" unicode="Ć" horiz-adv-x="535" d="M223-6Q113 53 86 134T59 370q0 147 28 227.5T172 710q57 32 152 32 46 0 105.5-7.5T535 715v-59q-35 5-90 10t-109 5q-75 0-117-24.5t-61.5-89Q138 493 138 369q0-128 18.5-192.5t59.5-88Q257 65 334 65q127 0 201 13V18Q489 7 431.5.5T318-6m91 933h67L351 791h-46"/><glyph glyph-name="ć" unicode="ć" horiz-adv-x="457" d="M168-6Q57 113 57 266q0 107 25.5 167t72.5 83.5Q202 540 272 540q96 0 177-14v-47H293q-55 0-88.5-18t-51-64.5Q136 350 136 264q0-82 18.5-127.5t52.5-63Q241 56 294 56h163V10Q363-6 270-6m72 773h67L284 631h-46"/><glyph glyph-name="Ĉ" unicode="Ĉ" horiz-adv-x="535" d="M223-6Q113 53 86 134T59 370q0 147 28 227.5T172 710q57 32 152 32 46 0 105.5-7.5T535 715v-59q-35 5-90 10t-109 5q-75 0-117-24.5t-61.5-89Q138 493 138 369q0-128 18.5-192.5t59.5-88Q257 65 334 65q127 0 201 13V18Q489 7 431.5.5T318-6m-19 932h56l110-135h-48l-91 97-100-97h-49"/><glyph glyph-name="ĉ" unicode="ĉ" horiz-adv-x="457" d="M168-6Q57 113 57 266q0 107 25.5 167t72.5 83.5Q202 540 272 540q96 0 177-14v-47H293q-55 0-88.5-18t-51-64.5Q136 350 136 264q0-82 18.5-127.5t52.5-63Q241 56 294 56h163V10Q363-6 270-6m-25 772h56l110-135h-48l-91 97-100-97h-49"/><glyph glyph-name="Ċ" unicode="Ċ" horiz-adv-x="535" d="M223-6Q113 53 86 134T59 370q0 147 28 227.5T172 710q57 32 152 32 46 0 105.5-7.5T535 715v-59q-35 5-90 10t-109 5q-75 0-117-24.5t-61.5-89Q138 493 138 369q0-128 18.5-192.5t59.5-88Q257 65 334 65q127 0 201 13V18Q489 7 431.5.5T318-6m-21 826q-9 9-9 16v78q0 16 16 16h37q7 0 11-4.5t4-11.5v-78q0-7-4-11.5t-11-4.5h-37"/><glyph glyph-name="ċ" unicode="ċ" horiz-adv-x="457" d="M168-6Q57 113 57 266q0 107 25.5 167t72.5 83.5Q202 540 272 540q96 0 177-14v-47H293q-55 0-88.5-18t-51-64.5Q136 350 136 264q0-82 18.5-127.5t52.5-63Q241 56 294 56h163V10Q363-6 270-6m-26 666q-9 9-9 16v78q0 16 16 16h37q7 0 11-4.5t4-11.5v-78q0-7-4-11.5t-11-4.5h-37"/><glyph glyph-name="Č" unicode="Č" horiz-adv-x="535" d="M223-6Q113 53 86 134T59 370q0 147 28 227.5T172 710q57 32 152 32 46 0 105.5-7.5T535 715v-59q-35 5-90 10t-109 5q-75 0-117-24.5t-61.5-89Q138 493 138 369q0-128 18.5-192.5t59.5-88Q257 65 334 65q127 0 201 13V18Q489 7 431.5.5T318-6M184 926h48l92-97 100 97h48L351 791h-56"/><glyph glyph-name="č" unicode="č" horiz-adv-x="457" d="M168-6Q57 113 57 266q0 107 25.5 167t72.5 83.5Q202 540 272 540q96 0 177-14v-47H293q-55 0-88.5-18t-51-64.5Q136 350 136 264q0-82 18.5-127.5t52.5-63Q241 56 294 56h163V10Q363-6 270-6M130 766h48l92-97 100 97h48L297 631h-56"/><glyph glyph-name="Ď" unicode="Ď" horiz-adv-x="610" d="M77 736h291q129 0 185.5-92T610 368q0-176-61.5-272T368 0H77m285 71q85 0 127 78.5T531 368q0 109-17.5 174T459 635.5Q422 664 362 664H157V71m21 855h48l92-97 100 97h48L345 791h-56"/><glyph glyph-name="ď" unicode="ď" horiz-adv-x="642" d="M150-6Q57 124 57 263q0 100 20 161t64 89q44 28 118 28 76 0 164-32v254h79V0h-64l-15 54q-24-21-77-40.5T249-6m65 65q71 25 109 45v349q-47 14-76.5 20t-66.5 6q-53 0-84-19.5T150.5 394Q136 348 136 266q0-112 31-159.5T272 59m297 664v60h73v-60l-6-141h-61"/><glyph glyph-name="Đ" unicode="Đ" horiz-adv-x="610" d="M497 736q113-184 113-368 0-176-61.5-272T368 0H77v345H15v55h62v336h291m79-665q84 157 84 297 0 109-17.5 174T459 635.5Q422 664 362 664H157V400h168v-55H157V71h205"/><glyph glyph-name="đ" unicode="đ" horiz-adv-x="571" d="M571 629h-69V0h-64l-15 54q-24-21-77-40.5T249-6q-99 0-145.5 65T57 263q0 100 20 161t64 89q44 28 118 28 76 0 164-32v120H284v35h139v99h79v-99h69M423 453q-47 14-76.5 20t-66.5 6q-53 0-84-19.5T150.5 394Q136 348 136 266q0-112 31-159.5T272 59q42 0 77.5 12.5T423 104"/><glyph glyph-name="Ē" unicode="Ē" horiz-adv-x="530" d="M164-4Q77 55 77 139v449q0 78 42 113t103 35q160-3 249-7l59-2v-64H242q-85 0-85-88V401l329-5v-61l-329-5V157q0-51 24-69t65-18h284V6Q340-4 227-4m-55 883h265v-47H172"/><glyph glyph-name="ē" unicode="ē" horiz-adv-x="484" d="M194-6Q99 44 78 103T57 268q0 107 21.5 166t69.5 83q48 24 133 24 73 0 117-16t65-54.5Q484 432 484 364t-39.5-98.5Q405 235 332 235H136q1-69 14-106.5t48-55Q233 56 299 56h172V8q-54-7-96-10.5T280-6m45 293q46 0 67 17t21 59q0 67-29.5 92.5T281 481q-58 0-89-17t-44-58q-13-41-13-119m0 432h265v-47H135"/><glyph glyph-name="Ĕ" unicode="Ĕ" horiz-adv-x="530" d="M164-4Q77 55 77 139v449q0 78 42 113t103 35q160-3 249-7l59-2v-64H242q-85 0-85-88V401l329-5v-61l-329-5V157q0-51 24-69t65-18h284V6Q340-4 227-4m18 793q-72 68-72 141h39q0-53 24.5-78t64.5-25q96 0 96 103h39q0-75-36-108t-96-33"/><glyph glyph-name="ĕ" unicode="ĕ" horiz-adv-x="484" d="M194-6Q99 44 78 103T57 268q0 107 21.5 166t69.5 83q48 24 133 24 73 0 117-16t65-54.5Q484 432 484 364t-39.5-98.5Q405 235 332 235H136q1-69 14-106.5t48-55Q233 56 299 56h172V8q-54-7-96-10.5T280-6m45 293q46 0 67 17t21 59q0 67-29.5 92.5T281 481q-58 0-89-17t-44-58q-13-41-13-119m69 342q-72 68-72 141h39q0-53 25-78t64-25q96 0 96 103h39q0-75-36-108t-96-33"/><glyph glyph-name="Ė" unicode="Ė" horiz-adv-x="530" d="M164-4Q77 55 77 139v449q0 78 42 113t103 35q160-3 249-7l59-2v-64H242q-85 0-85-88V401l329-5v-61l-329-5V157q0-51 24-69t65-18h284V6Q340-4 227-4m57 824q-9 9-9 16v78q0 16 16 16h37q7 0 11-4.5t4-11.5v-78q0-7-4-11.5t-11-4.5h-37"/><glyph glyph-name="ė" unicode="ė" horiz-adv-x="484" d="M194-6Q99 44 78 103T57 268q0 107 21.5 166t69.5 83q48 24 133 24 73 0 117-16t65-54.5Q484 432 484 364t-39.5-98.5Q405 235 332 235H136q1-69 14-106.5t48-55Q233 56 299 56h172V8q-54-7-96-10.5T280-6m45 293q46 0 67 17t21 59q0 67-29.5 92.5T281 481q-58 0-89-17t-44-58q-13-41-13-119m109 373q-9 9-9 16v78q0 16 16 16h37q7 0 11-4.5t4-11.5v-78q0-7-4-11.5t-11-4.5h-37"/><glyph glyph-name="Ę" unicode="Ę" horiz-adv-x="555" d="M555-140v-38q-10-3-26-3-49 0-77 25t-28 64q0 29 18 53.5T495 4Q323-4 227-4q-63 0-106.5 29.5T77 139v449q0 78 42 113t103 35q160-3 249-7l59-2v-64H242q-85 0-85-88V401l329-5v-61l-329-5V157q0-51 24-69t65-18h284V6h-1q-63-35-63-81 0-30 22-47.5t61-17.5"/><glyph glyph-name="ę" unicode="ę" horiz-adv-x="496" d="M496-122v-38q-11-3-26-3-49 0-77 25t-28 64q0 43 37 74-55-6-122-6-86 0-133.5 25T78 103q-21 59-21 165 0 107 21.5 166t69.5 83q48 24 133 24 73 0 117-16t65-54.5Q484 432 484 364t-39.5-98.5Q405 235 332 235H136q1-69 14-106.5t48-55Q233 56 299 56h172V8l-30-4q-34-28-34-61 0-30 22-47.5t61-17.5M223 481q-62-34-75-75t-13-119h190q46 0 67 17t21 59q0 67-29.5 92.5T281 481"/><glyph glyph-name="Ě" unicode="Ě" horiz-adv-x="530" d="M164-4Q77 55 77 139v449q0 78 42 113t103 35q160-3 249-7l59-2v-64H242q-85 0-85-88V401l329-5v-61l-329-5V157q0-51 24-69t65-18h284V6Q340-4 227-4m-56 930h48l92-97 100 97h48L338 791h-56"/><glyph glyph-name="ě" unicode="ě" horiz-adv-x="484" d="M194-6Q99 44 78 103T57 268q0 107 21.5 166t69.5 83q48 24 133 24 73 0 117-16t65-54.5Q484 432 484 364t-39.5-98.5Q405 235 332 235H136q1-69 14-106.5t48-55Q233 56 299 56h172V8q-54-7-96-10.5T280-6m45 293q46 0 67 17t21 59q0 67-29.5 92.5T281 481q-58 0-89-17t-44-58q-13-41-13-119m-5 479h48l92-97 100 97h48L297 631h-56"/><glyph glyph-name="Ĝ" unicode="Ĝ" horiz-adv-x="575" d="M202-5Q100 74 79.5 154.5T59 370q0 131 22 211t76.5 120.5Q212 742 308 742q57 0 120-7t117-19v-59q-40 5-103 9.5T320 671q-72 0-111.5-30t-55-94.5Q138 482 138 369q0-120 15.5-184T207 94.5Q245 68 317 68q44 0 92.5 11t89.5 27v217H321v59q65 10 165 10 58 0 89-4V0h-58l-12 52q-45-23-100-40T293-5m10 931h56l110-135h-48l-91 97-100-97h-49"/><glyph glyph-name="ĝ" unicode="ĝ" horiz-adv-x="553" d="M553 490l-120-10q20-13 33.5-26.5t24-41Q501 385 501 343q0-70-45-116t-144-46h-85q-45 0-68-13t-23-44q0-22 16.5-33T192 80h177q93 0 138.5-36T553-67v-22q0-74-50.5-115T356-245H207q-81 0-128.5 33.5T31-113v24q0 44 24 75t63 48Q93 46 80 66.5T67 113q0 76 90 95-52 21-73.5 62.5T62 363q0 172 206 172h285M374 242q55 60 55 110 0 121-116 121h-57q-60 0-91-26.5T134 359q0-117 110-117h60M221 18q-48 0-81.5-23.5T106-76v-22q0-89 119-89h124q62 0 95.5 23.5T478-92v20q0 43-27 66.5T359 18m-95 748h56l110-135h-48l-91 97-100-97h-49"/><glyph glyph-name="Ğ" unicode="Ğ" horiz-adv-x="575" d="M202-5Q100 74 79.5 154.5T59 370q0 131 22 211t76.5 120.5Q212 742 308 742q57 0 120-7t117-19v-59q-40 5-103 9.5T320 671q-72 0-111.5-30t-55-94.5Q138 482 138 369q0-120 15.5-184T207 94.5Q245 68 317 68q44 0 92.5 11t89.5 27v217H321v59q65 10 165 10 58 0 89-4V0h-58l-12 52q-45-23-100-40T293-5m-31 794q-72 68-72 141h39q0-53 24.5-78t64.5-25q96 0 96 103h39q0-75-36-108t-96-33"/><glyph glyph-name="ğ" unicode="ğ" horiz-adv-x="553" d="M553 490l-120-10q20-13 33.5-26.5t24-41Q501 385 501 343q0-70-45-116t-144-46h-85q-45 0-68-13t-23-44q0-22 16.5-33T192 80h177q93 0 138.5-36T553-67v-22q0-74-50.5-115T356-245H207q-81 0-128.5 33.5T31-113v24q0 44 24 75t63 48Q93 46 80 66.5T67 113q0 76 90 95-52 21-73.5 62.5T62 363q0 172 206 172h285M374 242q55 60 55 110 0 121-116 121h-57q-60 0-91-26.5T134 359q0-117 110-117h60M221 18q-48 0-81.5-23.5T106-76v-22q0-89 119-89h124q62 0 95.5 23.5T478-92v20q0 43-27 66.5T359 18M223 629q-72 68-72 141h39q0-53 25-78t64-25q96 0 96 103h39q0-75-36-108t-96-33"/><glyph glyph-name="Ġ" unicode="Ġ" horiz-adv-x="575" d="M202-5Q100 74 79.5 154.5T59 370q0 131 22 211t76.5 120.5Q212 742 308 742q57 0 120-7t117-19v-59q-40 5-103 9.5T320 671q-72 0-111.5-30t-55-94.5Q138 482 138 369q0-120 15.5-184T207 94.5Q245 68 317 68q44 0 92.5 11t89.5 27v217H321v59q65 10 165 10 58 0 89-4V0h-58l-12 52q-45-23-100-40T293-5m8 825q-9 9-9 16v78q0 16 16 16h37q7 0 11-4.5t4-11.5v-78q0-7-4-11.5t-11-4.5h-37"/><glyph glyph-name="ġ" unicode="ġ" horiz-adv-x="553" d="M553 490l-120-10q20-13 33.5-26.5t24-41Q501 385 501 343q0-70-45-116t-144-46h-85q-45 0-68-13t-23-44q0-22 16.5-33T192 80h177q93 0 138.5-36T553-67v-22q0-74-50.5-115T356-245H207q-81 0-128.5 33.5T31-113v24q0 44 24 75t63 48Q93 46 80 66.5T67 113q0 76 90 95-52 21-73.5 62.5T62 363q0 172 206 172h285M374 242q55 60 55 110 0 121-116 121h-57q-60 0-91-26.5T134 359q0-117 110-117h60M221 18q-48 0-81.5-23.5T106-76v-22q0-89 119-89h124q62 0 95.5 23.5T478-92v20q0 43-27 66.5T359 18m-96 642q-9 9-9 16v78q0 16 16 16h37q7 0 11-4.5t4-11.5v-78q0-7-4-11.5t-11-4.5h-37"/><glyph glyph-name="Ģ" unicode="Ģ" horiz-adv-x="575" d="M202-5Q100 74 79.5 154.5T59 370q0 131 22 211t76.5 120.5Q212 742 308 742q57 0 120-7t117-19v-59q-40 5-103 9.5T320 671q-72 0-111.5-30t-55-94.5Q138 482 138 369q0-120 15.5-184T207 94.5Q245 68 317 68q44 0 92.5 11t89.5 27v217H321v59q65 10 165 10 58 0 89-4V0h-58l-12 52q-45-23-100-40T293-5m-36-165l30 5q26 4 40 11.5t21 28.5q7 21 7 62h49q0-52-9-81.5T362.5-188Q339-202 295-202h-38"/><glyph glyph-name="ģ" unicode="ģ" horiz-adv-x="553" d="M553 490l-120-10q20-13 33.5-26.5t24-41Q501 385 501 343q0-70-45-116t-144-46h-85q-45 0-68-13t-23-44q0-22 16.5-33T192 80h177q93 0 138.5-36T553-67v-22q0-74-50.5-115T356-245H207q-81 0-128.5 33.5T31-113v24q0 44 24 75t63 48Q93 46 80 66.5T67 113q0 76 90 95-52 21-73.5 62.5T62 363q0 172 206 172h285M374 242q55 60 55 110 0 121-116 121h-57q-60 0-91-26.5T134 359q0-117 110-117h60M221 18q-48 0-81.5-23.5T106-76v-22q0-89 119-89h124q62 0 95.5 23.5T478-92v20q0 43-27 66.5T359 18M236 667q18 59 41.5 72.5T345 753h38v-32l-30-5q-26-4-40-11.5T292 676q-7-21-7-62h-49"/><glyph glyph-name="Ĥ" unicode="Ĥ" horiz-adv-x="604" d="M77 736h80V395h368v341h79V0h-79v324H157V0H77m239 926h56l110-135h-48l-91 97-100-97h-49"/><glyph glyph-name="ĥ" unicode="ĥ" horiz-adv-x="515" d="M76 763h79V475q41 29 92.5 48.5T351 543q81 0 122.5-50T515 364V0h-79v355q0 51-30 83.5T325 471q-48 0-85.5-12.5T155 419V0H76m62 946h56l110-135h-48l-91 97-100-97H16"/><glyph glyph-name="Ħ" unicode="Ħ" horiz-adv-x="667" d="M667 525h-63V0h-79v324H157V0H77v525H15v46h62v165h80V571h368v165h79V571h63m-142-46H157V395h368"/><glyph glyph-name="ħ" unicode="ħ" horiz-adv-x="515" d="M432 543q83-100 83-179V0h-79v355q0 51-30 83.5T325 471q-48 0-85.5-12.5T155 419V0H76v629H4v35h72v99h79v-99h136v-35H155V475q41 29 92.5 48.5T351 543"/><glyph glyph-name="Ĩ" unicode="Ĩ" horiz-adv-x="297" d="M77 736h80V0H77M-54 862q56 52 95 52 23 0 41.5-8.5T128 881q21-14 36.5-21t31.5-7q26 0 43 16.5t18 46.5h40q-1-51-26-80t-70-29q-21 0-39.5 8T116 840q-23 14-39 21.5T45 869q-25 0-41.5-16T-14 807h-41"/><glyph glyph-name="ĩ" unicode="ĩ" horiz-adv-x="303" d="M76 534h79V0H76m132 702q56 52 95 52 23 0 41.5-8.5T390 721q21-14 36.5-21t31.5-7q26 0 43 16.5t18 46.5h40q-1-51-26-80t-70-29q-21 0-39.5 8T378 680q-23 14-39 21.5t-32 7.5q-25 0-41.5-16T248 647h-41"/><glyph glyph-name="Ī" unicode="Ī" horiz-adv-x="243" d="M77 736h80V0H77m-99 879h265v-47H-22"/><glyph glyph-name="ī" unicode="ī" horiz-adv-x="245" d="M76 534h79V0H76m160 719h265v-47H236"/><glyph glyph-name="Ĭ" unicode="Ĭ" horiz-adv-x="242" d="M77 736h80V0H77M51 789q-72 68-72 141h39q0-53 24.5-78t64.5-25q96 0 96 103h39q0-75-36-108t-96-33"/><glyph glyph-name="ĭ" unicode="ĭ" horiz-adv-x="240" d="M76 534h79V0H76m229 629q-72 68-72 141h39q0-53 25-78t64-25q96 0 96 103h39q0-75-36-108t-96-33"/><glyph glyph-name="Į" unicode="Į" horiz-adv-x="182" d="M77 736h80V0H77m286-187q-56 50-56 89 0 30 19 55t56 43h30q-63-35-63-81 0-30 22-47.5t61-17.5h6v-38q-11-3-26-3"/><glyph glyph-name="į" unicode="į" horiz-adv-x="181" d="M81 629q-9 9-9 16v78q0 16 16 16h56q15 0 15-16v-78q0-16-15-16H88m-12-95h79V0H76m286-187q-56 50-56 89 0 30 19 55t56 43h30q-63-35-63-81 0-30 22-47.5t61-17.5h6v-38q-11-3-26-3"/><glyph glyph-name="İ" unicode="İ" horiz-adv-x="157" d="M77 736h80V0H77m13 820q-9 9-9 16v78q0 16 16 16h37q7 0 11-4.5t4-11.5v-78q0-7-4-11.5t-11-4.5H97"/><glyph glyph-name="ı" unicode="ı" horiz-adv-x="155" d="M76 534h79V0H76"/><glyph glyph-name="Ĵ" unicode="Ĵ" horiz-adv-x="409" d="M112-6Q48 7 27 17v61q61-13 98-13 51 0 77 23t26 83v565h79V161q0-90-40.5-128.5T140-6m103 932h56l110-135h-48l-91 97-100-97h-49"/><glyph glyph-name="ĵ" unicode="ĵ" horiz-adv-x="256" d="M76 534h79V17q0-69-5.5-137T135-237H76M346 766h56l110-135h-48l-91 97-100-97h-49"/><glyph glyph-name="Ķ" unicode="Ķ" horiz-adv-x="575" d="M77 736h80V403h129l202 333h84L349 368 575 0h-85L286 331H157V0H77m133-170l30 5q26 4 40 11.5t21 28.5q7 21 7 62h49q0-52-9-81.5T315.5-188Q292-202 248-202h-38"/><glyph glyph-name="ķ" unicode="ķ" horiz-adv-x="490" d="M76 763h79V321h76l163 213h84L290 285 490 0h-84L228 250h-73V0H76m98-170l30 5q26 4 40 11.5t21 28.5q7 21 7 62h49q0-52-9-81.5T279.5-188Q256-202 212-202h-38"/><glyph glyph-name="ĸ" unicode="ĸ" horiz-adv-x="490" d="M76 540h79V317h74l163 217h86L290 280 490 0h-85L229 245h-74V0H76"/><glyph glyph-name="Ĺ" unicode="Ĺ" horiz-adv-x="506" d="M155 0Q77 67 77 148v588h80V159q0-49 23-67.5T242 73h264V0H225m-23 927h67L144 791H98"/><glyph glyph-name="ĺ" unicode="ĺ" horiz-adv-x="284" d="M145-1Q76 77 76 171v592h79V181q0-66 18-90t57-29l54-6V-1h-68m-29 1002h67L129 865H83"/><glyph glyph-name="Ļ" unicode="Ļ" horiz-adv-x="506" d="M155 0Q77 67 77 148v588h80V159q0-49 23-67.5T242 73h264V0H225m-34-170l30 5q26 4 40 11.5t21 28.5q7 21 7 62h49q0-52-9-81.5T296.5-188Q273-202 229-202h-38"/><glyph glyph-name="ļ" unicode="ļ" horiz-adv-x="284" d="M145-1Q76 77 76 171v592h79V181q0-66 18-90t57-29l54-6V-1h-68M83-170l30 5q26 4 40 11.5t21 28.5q7 21 7 62h49q0-52-9-81.5T188.5-188Q165-202 121-202H83"/><glyph glyph-name="Ľ" unicode="Ľ" horiz-adv-x="506" d="M155 0Q77 67 77 148v588h80V159q0-49 23-67.5T242 73h264V0H225m19 723v60h73v-60l-6-141h-61"/><glyph glyph-name="ľ" unicode="ľ" horiz-adv-x="295" d="M145-1Q76 77 76 171v592h79V181q0-66 18-90t57-29l54-6V-1h-68m6 724v60h73v-60l-6-141h-61"/><glyph glyph-name="Ŀ" unicode="Ŀ" horiz-adv-x="506" d="M155 0Q77 67 77 148v588h80V159q0-49 23-67.5T242 73h264V0H225m138 352q-9 8-9 15v47q0 16 16 16h44q17 0 17-16v-47q0-15-17-15h-44"/><glyph glyph-name="ŀ" unicode="ŀ" horiz-adv-x="316" d="M145-1Q76 77 76 171v592h79V181q0-66 18-90t57-29l54-6V-1h-68m32 340q-9 8-9 15v47q0 16 16 16h44q17 0 17-16v-47q0-15-17-15h-44"/><glyph glyph-name="Ł" unicode="Ł" horiz-adv-x="506" d="M506 73V0H225q-70 0-109 33.5T77 148v199L2 314v47l75 33v342h80V418l135 59v-46l-135-59V159q0-49 23-67.5T242 73"/><glyph glyph-name="ł" unicode="ł" horiz-adv-x="284" d="M284 56V-1h-68q-71 0-105.5 39T76 171v212L3 356v47l73 27v333h79V456l102 36v-47l-102-36V181q0-66 18-90t57-29"/><glyph glyph-name="Ń" unicode="Ń" horiz-adv-x="619" d="M91 736h65l384-599v599h79V0h-65L170 599V0H91m333 927h67L366 791h-46"/><glyph glyph-name="ń" unicode="ń" horiz-adv-x="515" d="M76 534h62l17-59q42 29 93 48.5T350 543q83 0 124-51t41-129V0h-79v354q0 52-29.5 84.5T325 471q-48 0-85.5-12.5T155 419V0H76m289 767h67L307 631h-46"/><glyph glyph-name="Ņ" unicode="Ņ" horiz-adv-x="619" d="M91 736h65l384-599v599h79V0h-65L170 599V0H91m166-170l30 5q26 4 40 11.5t21 28.5q7 21 7 62h49q0-52-9-81.5T362.5-188Q339-202 295-202h-38"/><glyph glyph-name="ņ" unicode="ņ" horiz-adv-x="515" d="M76 534h62l17-59q42 29 93 48.5T350 543q83 0 124-51t41-129V0h-79v354q0 52-29.5 84.5T325 471q-48 0-85.5-12.5T155 419V0H76m135-170l30 5q26 4 40 11.5t21 28.5q7 21 7 62h49q0-52-9-81.5T316.5-188Q293-202 249-202h-38"/><glyph glyph-name="Ň" unicode="Ň" horiz-adv-x="619" d="M91 736h65l384-599v599h79V0h-65L170 599V0H91m108 926h48l92-97 100 97h48L366 791h-56"/><glyph glyph-name="ň" unicode="ň" horiz-adv-x="515" d="M76 534h62l17-59q42 29 93 48.5T350 543q83 0 124-51t41-129V0h-79v354q0 52-29.5 84.5T325 471q-48 0-85.5-12.5T155 419V0H76m77 766h48l92-97 100 97h48L320 631h-56"/><glyph glyph-name="Ŋ" unicode="Ŋ" horiz-adv-x="619" d="M619 736V-76q0-90-44-128.5T439-243q-28 0-60 6.5T326-220v61q63-13 101-13 55 0 84 23t29 83v88L170 599V0H91v736h65l384-599v599"/><glyph glyph-name="ŋ" unicode="ŋ" horiz-adv-x="515" d="M433 543q82-102 82-180V-1q0-166-129-236h-64q54 41 84 96T436-3v357q0 52-29.5 84.5T325 471q-48 0-85.5-12.5T155 419V0H76v534h62l17-59q42 29 93 48.5T350 543"/><glyph glyph-name="Ō" unicode="Ō" horiz-adv-x="627" d="M239-6Q120 49 89.5 128.5T59 365q0 156 31.5 237.5T182 713q60 29 161 29 104 0 164-28.5t90-110Q627 522 627 365t-30.5-236.5q-30.5-79.5-90-107T343-6m80 71q85 44 105 108t20 192q0 133-20 198t-62.5 86.5Q423 671 343 671q-76 0-119-21.5T159.5 562Q138 496 138 365q0-129 19-192.5T218.5 87Q261 65 343 65M204 879h265v-47H204"/><glyph glyph-name="ō" unicode="ō" horiz-adv-x="520" d="M206-6Q106 40 81.5 99.5T57 268q0 110 25 169.5t74 81.5q49 22 132 22 82 0 132-22.5t75-82Q520 377 520 268T495 99.5Q470 40 420.5 17T288-6m55 65q63 29 80 74t17 135q0 90-16.5 134.5t-48.5 59Q343 476 288 476q-56 0-87.5-14.5t-48-59Q136 358 136 268t16.5-135q16.5-45 48-59.5T288 59M153 719h265v-47H153"/><glyph glyph-name="Ŏ" unicode="Ŏ" horiz-adv-x="627" d="M239-6Q120 49 89.5 128.5T59 365q0 156 31.5 237.5T182 713q60 29 161 29 104 0 164-28.5t90-110Q627 522 627 365t-30.5-236.5q-30.5-79.5-90-107T343-6m80 71q85 44 105 108t20 192q0 133-20 198t-62.5 86.5Q423 671 343 671q-76 0-119-21.5T159.5 562Q138 496 138 365q0-129 19-192.5T218.5 87Q261 65 343 65m-66 724q-72 68-72 141h39q0-53 24.5-78t64.5-25q96 0 96 103h39q0-75-36-108t-96-33"/><glyph glyph-name="ŏ" unicode="ŏ" horiz-adv-x="520" d="M206-6Q106 40 81.5 99.5T57 268q0 110 25 169.5t74 81.5q49 22 132 22 82 0 132-22.5t75-82Q520 377 520 268T495 99.5Q470 40 420.5 17T288-6m55 65q63 29 80 74t17 135q0 90-16.5 134.5t-48.5 59Q343 476 288 476q-56 0-87.5-14.5t-48-59Q136 358 136 268t16.5-135q16.5-45 48-59.5T288 59m-66 570q-72 68-72 141h39q0-53 25-78t64-25q96 0 96 103h39q0-75-36-108t-96-33"/><glyph glyph-name="Ő" unicode="Ő" horiz-adv-x="627" d="M239-6Q120 49 89.5 128.5T59 365q0 156 31.5 237.5T182 713q60 29 161 29 104 0 164-28.5t90-110Q627 522 627 365t-30.5-236.5q-30.5-79.5-90-107T343-6m80 71q85 44 105 108t20 192q0 133-20 198t-62.5 86.5Q423 671 343 671q-76 0-119-21.5T159.5 562Q138 496 138 365q0-129 19-192.5T218.5 87Q261 65 343 65m-19 862h65L270 791h-46m250 136h65L420 791h-46"/><glyph glyph-name="ő" unicode="ő" horiz-adv-x="520" d="M206-6Q106 40 81.5 99.5T57 268q0 110 25 169.5t74 81.5q49 22 132 22 82 0 132-22.5t75-82Q520 377 520 268T495 99.5Q470 40 420.5 17T288-6m55 65q63 29 80 74t17 135q0 90-16.5 134.5t-48.5 59Q343 476 288 476q-56 0-87.5-14.5t-48-59Q136 358 136 268t16.5-135q16.5-45 48-59.5T288 59m-19 708h65L215 631h-46m250 136h65L365 631h-46"/><glyph glyph-name="Œ" unicode="Œ" horiz-adv-x="1001" d="M628 663V401l329-5v-61l-329-5V157q0-51 24-69t65-18h284V6Q809-4 696-4 592-4 562 65q-34-41-86-56T343-6Q239-6 179.5 21.5t-90 107Q59 208 59 365q0 156 31.5 237.5T182 713q60 29 161 29 82 0 135-16.5t86-60.5q18 37 52.5 54t76.5 17q160-3 249-7l59-2v-64H713M423 65q85 44 105 108t20 192q0 133-20 198t-62.5 86.5Q423 671 343 671q-76 0-119-21.5T159.5 562Q138 496 138 365q0-129 19-192.5T218.5 87Q261 65 343 65"/><glyph glyph-name="œ" unicode="œ" horiz-adv-x="864" d="M516 139q75-83 159-83h175V8Q747-6 655-6q-66 0-109 23t-67 73q-24-54-70.5-75T286-6q-81 0-130.5 23t-74 82.5Q57 159 57 268q0 110 25 169.5t74 81.5q49 22 132 22 74 0 120-20t70-72q23 47 65.5 69.5T653 541q74 0 119-15t68.5-55Q864 431 864 357q0-62-39-92t-105-30H515m60 246q-61-90-61-194h191q43 0 65 16.5t22 60.5q0 48-15 73.5T733 472q-29 9-80 9M343 56q63 30 80 75.5T440 268q0 91-16.5 136.5t-48.5 60Q343 479 288 479q-56 0-87.5-14.5t-48-60Q136 359 136 268t16.5-136.5Q169 86 200.5 71T288 56"/><glyph glyph-name="Ŕ" unicode="Ŕ" horiz-adv-x="569" d="M77 736h290q86 0 138.5-46T558 519q0-107-40-151t-100-56L569 0h-81L345 301l-55 1-133 3V0H77m278 366q59 0 91.5 32T479 519q0 84-33 114.5T355 664H157V366m221 561h67L320 791h-46"/><glyph glyph-name="ŕ" unicode="ŕ" horiz-adv-x="388" d="M76 534h60l19-93q39 47 84 73t99 26q27 0 50-5v-81q-45 5-58 5-53 0-91.5-19T155 379V0H76m206 767h67L224 631h-46"/><glyph glyph-name="Ŗ" unicode="Ŗ" horiz-adv-x="569" d="M77 736h290q86 0 138.5-46T558 519q0-107-40-151t-100-56L569 0h-81L345 301l-55 1-133 3V0H77m278 366q59 0 91.5 32T479 519q0 84-33 114.5T355 664H157V366m56-536l30 5q26 4 40 11.5t21 28.5q7 21 7 62h49q0-52-9-81.5T318.5-188Q295-202 251-202h-38"/><glyph glyph-name="ŗ" unicode="ŗ" horiz-adv-x="388" d="M76 534h60l19-93q39 47 84 73t99 26q27 0 50-5v-81q-45 5-58 5-53 0-91.5-19T155 379V0H76M33-170l30 5q26 4 40 11.5t21 28.5q7 21 7 62h49q0-52-9-81.5T138.5-188Q115-202 71-202H33"/><glyph glyph-name="Ř" unicode="Ř" horiz-adv-x="569" d="M77 736h290q86 0 138.5-46T558 519q0-107-40-151t-100-56L569 0h-81L345 301l-55 1-133 3V0H77m278 366q59 0 91.5 32T479 519q0 84-33 114.5T355 664H157V366m-4 560h48l92-97 100 97h48L320 791h-56"/><glyph glyph-name="ř" unicode="ř" horiz-adv-x="388" d="M76 534h60l19-93q39 47 84 73t99 26q27 0 50-5v-81q-45 5-58 5-53 0-91.5-19T155 379V0H76m-6 766h48l92-97 100 97h48L237 631h-56"/><glyph glyph-name="Ś" unicode="Ś" horiz-adv-x="519" d="M239-6Q100 5 63 12v61q78-8 220-8 76 0 118 24t42 87v50q0 104-110 104h-79q-95 0-144.5 41.5T60 508v42q0 101 54 146.5T274 742q45 0 108.5-6.5T486 721v-60q-135 9-204 9-74 0-110-26.5T136 547v-34q0-58 30.5-82.5T257 406h85q87 0 132-46.5T519 235v-57q0-103-62.5-143.5T286-6m82 933h67L310 791h-46"/><glyph glyph-name="ś" unicode="ś" horiz-adv-x="451" d="M215-6Q79 2 54 8v48h219q56 0 82 15t26 63v24q0 75-97 75h-75q-77 0-118.5 30T49 365v28q0 76 44.5 111T237 539q43 0 101.5-4.5T430 524v-48H224q-54 0-80-18t-26-65v-22q0-43 25.5-57.5T222 299h76q73 0 113-34t40-98v-37q0-76-49-106T260-6m52 773h67L254 631h-46"/><glyph glyph-name="Ŝ" unicode="Ŝ" horiz-adv-x="519" d="M239-6Q100 5 63 12v61q78-8 220-8 76 0 118 24t42 87v50q0 104-110 104h-79q-95 0-144.5 41.5T60 508v42q0 101 54 146.5T274 742q45 0 108.5-6.5T486 721v-60q-135 9-204 9-74 0-110-26.5T136 547v-34q0-58 30.5-82.5T257 406h85q87 0 132-46.5T519 235v-57q0-103-62.5-143.5T286-6m-28 932h56l110-135h-48l-91 97-100-97h-49"/><glyph glyph-name="ŝ" unicode="ŝ" horiz-adv-x="451" d="M215-6Q79 2 54 8v48h219q56 0 82 15t26 63v24q0 75-97 75h-75q-77 0-118.5 30T49 365v28q0 76 44.5 111T237 539q43 0 101.5-4.5T430 524v-48H224q-54 0-80-18t-26-65v-22q0-43 25.5-57.5T222 299h76q73 0 113-34t40-98v-37q0-76-49-106T260-6m-45 772h56l110-135h-48l-91 97-100-97H93"/><glyph glyph-name="Ş" unicode="Ş" horiz-adv-x="519" d="M429 406q90-93 90-171v-57q0-99-58-140T302-6l-32-48q72-4 72-64 0-34-25-53t-71-19h-33v33l22 2q28 3 42 13.5t14 31.5q0 19-14.5 31T225-66l40 60q-51 2-110.5 7T63 12v61q78-8 220-8 76 0 118 24t42 87v50q0 104-110 104h-79q-95 0-144.5 41.5T60 508v42q0 101 54 146.5T274 742q45 0 108.5-6.5T486 721v-60q-135 9-204 9-74 0-110-26.5T136 547v-34q0-58 30.5-82.5T257 406h85"/><glyph glyph-name="ş" unicode="ş" horiz-adv-x="451" d="M371 299q80-68 80-132v-37q0-76-49-106T260-6h-2l-31-48q72-4 72-64 0-34-25-53t-71-19h-33v33l22 2q28 3 42 13.5t14 31.5q0 19-14.5 31T182-66l40 61q-44 1-95.5 5T54 8v48h219q56 0 82 15t26 63v24q0 75-97 75h-75q-77 0-118.5 30T49 365v28q0 76 44.5 111T237 539q43 0 101.5-4.5T430 524v-48H224q-54 0-80-18t-26-65v-22q0-43 25.5-57.5T222 299h76"/><glyph glyph-name="Š" unicode="Š" horiz-adv-x="519" d="M239-6Q100 5 63 12v61q78-8 220-8 76 0 118 24t42 87v50q0 104-110 104h-79q-95 0-144.5 41.5T60 508v42q0 101 54 146.5T274 742q45 0 108.5-6.5T486 721v-60q-135 9-204 9-74 0-110-26.5T136 547v-34q0-58 30.5-82.5T257 406h85q87 0 132-46.5T519 235v-57q0-103-62.5-143.5T286-6M143 926h48l92-97 100 97h48L310 791h-56"/><glyph glyph-name="š" unicode="š" horiz-adv-x="451" d="M215-6Q79 2 54 8v48h219q56 0 82 15t26 63v24q0 75-97 75h-75q-77 0-118.5 30T49 365v28q0 76 44.5 111T237 539q43 0 101.5-4.5T430 524v-48H224q-54 0-80-18t-26-65v-22q0-43 25.5-57.5T222 299h76q73 0 113-34t40-98v-37q0-76-49-106T260-6M100 766h48l92-97 100 97h48L267 631h-56"/><glyph glyph-name="Ţ" unicode="Ţ" horiz-adv-x="550" d="M305 0l-35-54q72-4 72-64 0-34-25-53t-71-19h-33v33l22 2q28 3 42 13.5t14 31.5q0 19-14.5 31T225-66l43 66h-24v664H16v72h534v-72H323V0"/><glyph glyph-name="ţ" unicode="ţ" horiz-adv-x="334" d="M180 469V173q0-61 23-83.5T261 64l65-6V0h-73q-14 0-36 2l-37-56q72-4 72-64 0-34-25-53t-71-19h-33v33l22 2q28 3 42 13.5t14 31.5q0 19-14.5 31T135-66l50 76q-43 14-63.5 54T102 173l3 296H20v51l86 14 13 149h61V534h154v-65"/><glyph glyph-name="Ť" unicode="Ť" horiz-adv-x="550" d="M244 664H16v72h534v-72H323V0h-79M143 926h48l92-97 100 97h48L310 791h-56"/><glyph glyph-name="ť" unicode="ť" horiz-adv-x="334" d="M174 0q-74 81-72 173l3 296H20v51l86 14 13 149h61V534h154v-65H180V173q0-61 23-83.5T261 64l65-6V0h-73m-6 723v60h73v-60l-6-141h-61"/><glyph glyph-name="Ŧ" unicode="Ŧ" horiz-adv-x="550" d="M323 664V411h178v-46H323V0h-79v365H65v46h179v253H16v72h534v-72"/><glyph glyph-name="ŧ" unicode="ŧ" horiz-adv-x="334" d="M180 469V329h140v-34H180V173q0-61 23-83.5T261 64l65-6V0h-73q-79 0-116 40.5T102 173l1 122H20v34h84l1 140H20v51l86 14 13 149h61V534h154v-65"/><glyph glyph-name="Ũ" unicode="Ũ" horiz-adv-x="609" d="M205-6Q67 98 67 228v508h80V228q0-90 47.5-126T338 66q96 0 143.5 36T529 228v508h80V228q0-130-69-182T338-6M163 862q56 52 95 52 23 0 41.5-8.5T345 881q21-14 36.5-21t31.5-7q26 0 43 16.5t18 46.5h40q-1-51-26-80t-70-29q-21 0-39.5 8T333 840q-23 14-39 21.5t-32 7.5q-25 0-41.5-16T203 807h-41"/><glyph glyph-name="ũ" unicode="ũ" horiz-adv-x="515" d="M75-6v540h79V178q0-64 28.5-89T270 64q45 0 84 12.5t82 38.5v419h79V0h-62l-17 59Q334-6 235-6M122 702q56 52 95 52 23 0 41.5-8.5T304 721q21-14 36.5-21t31.5-7q26 0 43 16.5t18 46.5h40q-1-51-26-80t-70-29q-21 0-39.5 8T292 680q-23 14-39 21.5t-32 7.5q-25 0-41.5-16T162 647h-41"/><glyph glyph-name="Ū" unicode="Ū" horiz-adv-x="609" d="M205-6Q67 98 67 228v508h80V228q0-90 47.5-126T338 66q96 0 143.5 36T529 228v508h80V228q0-130-69-182T338-6M195 879h265v-47H195"/><glyph glyph-name="ū" unicode="ū" horiz-adv-x="515" d="M75-6v540h79V178q0-64 28.5-89T270 64q45 0 84 12.5t82 38.5v419h79V0h-62l-17 59Q334-6 235-6m-84 725h265v-47H151"/><glyph glyph-name="Ŭ" unicode="Ŭ" horiz-adv-x="609" d="M205-6Q67 98 67 228v508h80V228q0-90 47.5-126T338 66q96 0 143.5 36T529 228v508h80V228q0-130-69-182T338-6m-70 795q-72 68-72 141h39q0-53 24.5-78t64.5-25q96 0 96 103h39q0-75-36-108t-96-33"/><glyph glyph-name="ŭ" unicode="ŭ" horiz-adv-x="515" d="M75-6v540h79V178q0-64 28.5-89T270 64q45 0 84 12.5t82 38.5v419h79V0h-62l-17 59Q334-6 235-6m-15 635q-72 68-72 141h39q0-53 25-78t64-25q96 0 96 103h39q0-75-36-108t-96-33"/><glyph glyph-name="Ů" unicode="Ů" horiz-adv-x="609" d="M205-6Q67 98 67 228v508h80V228q0-90 47.5-126T338 66q96 0 143.5 36T529 228v508h80V228q0-130-69-182T338-6m-60 770q-55 48-55 106 0 59 28 83.5t84 24.5q56 0 83-24.5t27-83.5q0-58-27-82t-83-24m38 33q32 31 32 73t-16 58.5Q373 945 335 945t-55.5-16.5Q262 912 262 870q0-41 17.5-57t55.5-16"/><glyph glyph-name="ů" unicode="ů" horiz-adv-x="515" d="M75-6v540h79V178q0-64 28.5-89T270 64q45 0 84 12.5t82 38.5v419h79V0h-62l-17 59Q334-6 235-6m-5 600q-55 48-55 106 0 59 28 83.5t84 24.5q56 0 83-24.5t27-83.5q0-58-27-82t-83-24m38 33q32 31 32 73t-16 58.5Q325 775 287 775t-55.5-16.5Q214 742 214 700q0-41 17.5-57t55.5-16"/><glyph glyph-name="Ű" unicode="Ű" horiz-adv-x="609" d="M205-6Q67 98 67 228v508h80V228q0-90 47.5-126T338 66q96 0 143.5 36T529 228v508h80V228q0-130-69-182T338-6m-23 933h65L261 791h-46m250 136h65L411 791h-46"/><glyph glyph-name="ű" unicode="ű" horiz-adv-x="515" d="M75-6v540h79V178q0-64 28.5-89T270 64q45 0 84 12.5t82 38.5v419h79V0h-62l-17 59Q334-6 235-6m32 773h65L213 631h-46m250 136h65L363 631h-46"/><glyph glyph-name="Ų" unicode="Ų" horiz-adv-x="609" d="M609 736V228q0-108-47.5-161.5T421-1q-62-34-62-80 0-30 22-47.5t61-17.5h6v-38q-10-3-26-3-49 0-77 25t-28 64q0 59 66 93-15-1-45-1-133 0-202 52T67 228v508h80V228q0-90 47.5-126T338 66q96 0 143.5 36T529 228v508"/><glyph glyph-name="ų" unicode="ų" horiz-adv-x="540" d="M540-146v-38q-10-3-26-3-49 0-77 25t-28 64q0 30 19 55t56 43h-31l-17 59Q334-6 235-6 75-6 75 158v376h79V178q0-64 28.5-89T270 64q45 0 84 12.5t82 38.5v419h79V0h-1q-63-35-63-81 0-30 22-47.5t61-17.5"/><glyph glyph-name="Ŵ" unicode="Ŵ" horiz-adv-x="957" d="M34 736h82l158-627 182 627h80l181-627 158 627h82L768 0h-86L496 625 309 0h-86m258 926h56l110-135h-48l-91 97-100-97h-49"/><glyph glyph-name="ŵ" unicode="ŵ" horiz-adv-x="778" d="M19 534h81L231 74l135 460h69L570 74l127 460h81L617 0h-87L399 428 267 0h-86m197 766h56l110-135h-48l-91 97-100-97h-49"/><glyph glyph-name="Ŷ" unicode="Ŷ" horiz-adv-x="582" d="M269 244L35 736h83l192-412 192 412h80L349 244V0h-80m16 926h56l110-135h-48l-91 97-100-97h-49"/><glyph glyph-name="ŷ" unicode="ŷ" horiz-adv-x="522" d="M287 0q-45 1-82 29.5T147 125L19 534h83l119-392q25-74 83-74l137 466h81L327-138l-46-99h-62m23 1003h56l110-135h-48l-91 97-100-97h-49"/><glyph glyph-name="Ÿ" unicode="Ÿ" horiz-adv-x="582" d="M269 244L35 736h83l192-412 192 412h80L349 244V0h-80M159 813q-9 9-9 16v78q0 16 16 16h37q7 0 11.5-4.5T219 907v-78q0-7-4.5-11.5T203 813h-37m229 0q-9 9-9 16v78q0 16 16 16h37q7 0 11-4.5t4-11.5v-78q0-7-4-11.5t-11-4.5h-37"/><glyph glyph-name="Ź" unicode="Ź" horiz-adv-x="522" d="M43 65l383 599H43v72h479v-65L139 71h383V0H43m320 927h67L305 791h-46"/><glyph glyph-name="ź" unicode="ź" horiz-adv-x="451" d="M51 60l308 409H44v65h407v-60L142 65h309V0H51m258 767h67L251 631h-46"/><glyph glyph-name="Ż" unicode="Ż" horiz-adv-x="522" d="M43 65l383 599H43v72h479v-65L139 71h383V0H43m208 820q-9 9-9 16v78q0 16 16 16h37q7 0 11-4.5t4-11.5v-78q0-7-4-11.5t-11-4.5h-37"/><glyph glyph-name="ż" unicode="ż" horiz-adv-x="451" d="M51 60l308 409H44v65h407v-60L142 65h309V0H51m160 660q-9 9-9 16v78q0 16 16 16h37q7 0 11-4.5t4-11.5v-78q0-7-4-11.5t-11-4.5h-37"/><glyph glyph-name="Ž" unicode="Ž" horiz-adv-x="522" d="M43 65l383 599H43v72h479v-65L139 71h383V0H43m95 926h48l92-97 100 97h48L305 791h-56"/><glyph glyph-name="ž" unicode="ž" horiz-adv-x="451" d="M51 60l308 409H44v65h407v-60L142 65h309V0H51m46 766h48l92-97 100 97h48L264 631h-56"/><glyph glyph-name="Ə" unicode="Ə" horiz-adv-x="552" d="M218-6Q113 61 87 135.5T61 333v57h411q-1 116-21.5 175.5T383 648q-47 23-136 23-68 0-109.5-6T89 658v60q86 24 182 24 102 0 161.5-29T522 605q30-79 30-230 0-148-30-232T437 26.5Q382-6 301-6m55 71q73 44 93 101t21 159H140q1-98 16-153.5t49-81Q239 65 300 65"/><glyph glyph-name="ƒ" unicode="ƒ" horiz-adv-x="577" d="M87-204q-50 7-66 12l9 50h64q36 0 60 19.5T194.5-57Q211-11 224 71l54 331h-94l8 59h93l22 120q13 78 33 125t53.5 70q33.5 23 87.5 23 62 0 96-13l-8-49h-65q-38 0-60.5-16.5t-36.5-53Q393 631 383 566l-18-106h128l-9-58H357L306 88Q289-19 266-81.5T206-174q-37-30-94-30"/><glyph glyph-name="Ơ" unicode="Ơ" horiz-adv-x="640" d="M584 655q43-156 43-290 0-157-30.5-236.5t-90-107Q447-6 343-6T179.5 21.5q-59.5 27.5-90 107T59 365q0 156 31.5 237.5T182 713q60 29 161 29 50 0 90-6h71q38 0 58.5 26t20.5 87h57q0-73-28-111.5T538 693M423 65q85 44 105 108t20 192q0 133-20 198t-62.5 86.5Q423 671 343 671q-76 0-119-21.5T159.5 562Q138 496 138 365q0-129 19-192.5T218.5 87Q261 65 343 65"/><glyph glyph-name="ơ" unicode="ơ" horiz-adv-x="551" d="M489 462q31-109 31-194 0-109-25-168.5T420.5 17Q371-6 288-6q-82 0-132 23T81.5 99.5Q57 159 57 268q0 110 25 169.5t74 81.5q49 22 132 22 49 0 84-7h43q38 0 58.5 26t20.5 87h57q0-70-25-107.5T458 492M343 59q63 29 80 74t17 135q0 90-16.5 134.5t-48.5 59Q343 476 288 476q-56 0-87.5-14.5t-48-59Q136 358 136 268t16.5-135q16.5-45 48-59.5T288 59"/><glyph glyph-name="Ư" unicode="Ư" horiz-adv-x="705" d="M705 779q-52-76-96-85V228q0-130-69-182T338-6Q205-6 136 46T67 228v508h80V228q0-90 47.5-126T338 66q96 0 143.5 36T529 228v508h40q38 0 58.5 26t20.5 87h57"/><glyph glyph-name="ư" unicode="ư" horiz-adv-x="610" d="M610 578q-52-76-95-86V0h-62l-17 59Q334-6 235-6 75-6 75 158v376h79V178q0-64 28.5-89T270 64q45 0 84 12.5t82 38.5v419h37q38 0 58.5 26t20.5 87h58"/><glyph glyph-name="Ǧ" unicode="Ǧ" horiz-adv-x="575" d="M202-5Q100 74 79.5 154.5T59 370q0 131 22 211t76.5 120.5Q212 742 308 742q57 0 120-7t117-19v-59q-40 5-103 9.5T320 671q-72 0-111.5-30t-55-94.5Q138 482 138 369q0-120 15.5-184T207 94.5Q245 68 317 68q44 0 92.5 11t89.5 27v217H321v59q65 10 165 10 58 0 89-4V0h-58l-12 52q-45-23-100-40T293-5M188 926h48l92-97 100 97h48L355 791h-56"/><glyph glyph-name="ǧ" unicode="ǧ" horiz-adv-x="553" d="M553 490l-120-10q20-13 33.5-26.5t24-41Q501 385 501 343q0-70-45-116t-144-46h-85q-45 0-68-13t-23-44q0-22 16.5-33T192 80h177q93 0 138.5-36T553-67v-22q0-74-50.5-115T356-245H207q-81 0-128.5 33.5T31-113v24q0 44 24 75t63 48Q93 46 80 66.5T67 113q0 76 90 95-52 21-73.5 62.5T62 363q0 172 206 172h285M374 242q55 60 55 110 0 121-116 121h-57q-60 0-91-26.5T134 359q0-117 110-117h60M221 18q-48 0-81.5-23.5T106-76v-22q0-89 119-89h124q62 0 95.5 23.5T478-92v20q0 43-27 66.5T359 18M149 766h48l92-97 100 97h48L316 631h-56"/><glyph glyph-name="Ǫ" unicode="Ǫ" horiz-adv-x="627" d="M352-38v-43q0-30 22-47.5t61-17.5h6v-38q-10-3-26-3-49 0-77 25t-28 64q0 27 16 51t48 42q-10-1-31-1-104 0-163.5 27.5t-90 107Q59 208 59 365q0 156 31.5 237.5T182 713q60 29 161 29 104 0 164-28.5t90-110Q627 522 627 365q0-138-23.5-215.5T533 38Q486 4 409-3M138 236q38-127 80.5-149T343 65q80 0 122.5 22t62.5 86q20 64 20 192 0 133-20 198t-62.5 86.5Q423 671 343 671q-76 0-119-21.5T159.5 562Q138 496 138 365"/><glyph glyph-name="ǫ" unicode="ǫ" horiz-adv-x="520" d="M277-37v-44q0-30 22-47.5t61-17.5h6v-38q-11-3-26-3-49 0-77 25t-28 64q0 57 63 92h-10q-82 0-132 23T81.5 99.5Q57 159 57 268q0 110 25 169.5t74 81.5q49 22 132 22 82 0 132-22.5t75-82Q520 377 520 268q0-99-20.5-156.5t-61-84Q398 1 333-4M136 178q33-90 64.5-104.5T288 59q55 0 86.5 14.5T423 133q17 45 17 135t-16.5 134.5Q407 447 375 461.5T288 476q-56 0-87.5-14.5t-48-59Q136 358 136 268"/><glyph glyph-name="Ǻ" unicode="Ǻ" horiz-adv-x="640" d="M281 764q-55 48-55 106 0 56 25.5 81t76.5 27l94 123h67L373 975q38-6 56.5-31.5T448 870q0-58-27-82t-83-24m-38 181q-35-33-35-75 0-41 17.5-57t55.5-16q38 0 54 15.5t16 57.5q0 42-16 58.5T338 945M640 0h-82l-74 210H188L116 0H34l252 736h102m76-454L337 666 208 282"/><glyph glyph-name="ǻ" unicode="ǻ" horiz-adv-x="472" d="M214 594q-55 48-55 106 0 55 24.5 80t74.5 28l91 119h67L304 806q39-7 58-32t19-74q0-58-27-82t-83-24m-38 181q-35-33-35-75 0-41 17.5-57t55.5-16q38 0 54 15.5t16 57.5q0 42-16 58.5T271 775m110-233q91-79 91-165V0h-61l-15 61q-7-6-43.5-23T269 7.5Q222-6 180-6q-60 0-97.5 36T45 128v38q0 65 42.5 103T212 307h181v66q0 54-29.5 80T255 479H89v47q94 16 195 16m109-275l-163-7q-55-2-80.5-27T124 165v-24q0-46 26.5-67T215 53q27 0 66 10t70.5 21Q383 95 393 99"/><glyph glyph-name="Ǽ" unicode="Ǽ" horiz-adv-x="906" d="M558-4q-75 56-78 122v91H242L113 0H34l357 601q38 71 89.5 103T612 736q99 0 251-8l43-2v-63H625q-39 0-55.5-16T553 596V401l310-5v-61l-310-5V157q0-47 24-67t71-20h258V7l-26-1Q724-4 630-4M480 277v338L279 277m336 650h67L557 791h-46"/><glyph glyph-name="ǽ" unicode="ǽ" horiz-adv-x="821" d="M116-6Q46 68 46 131v33q0 64 42 101t122 37h184v72q0 49-29.5 77T264 479H90v47q43 8 83.5 12t101.5 4q59 0 103-23t62-68q19 48 63.5 69T615 541q108 0 157-39t49-139q0-65-38.5-90.5T664 247H472q-1-110 44-150.5T645 56h162V8Q728-6 612-6 479-6 423 102q-42-46-105.5-77T183-6m479 306q44 0 65.5 13t21.5 51q0 63-31 89t-107 26q-56 0-85-15t-41-52.5Q473 374 472 300M266 53q101 47 141 89-13 44-14 116l-170-4q-51-1-74.5-25.5T125 165v-23q0-47 25-68t64-21m297 714h67L453 631h-46"/><glyph glyph-name="Ǿ" unicode="Ǿ" horiz-adv-x="627" d="M597 620q30-144 30-255 0-157-30.5-236.5t-90-107Q447-6 343-6q-65 0-110.5 9.5T154 37L130 0H72l47 72q-30 41-45 112T59 365q0 156 31.5 237.5T182 713q60 29 161 29 64 0 110-10t79-34l25 38h58l-49-74M138 210l29-65 322 487q-23 23-58 31t-88 8q-76 0-119-21.5T159.5 562Q138 496 138 365M423 65q85 44 105 108t20 192q0 82-7 136t-23 88L197 102q24-21 58.5-29t87.5-8m85 862h67L370 791h-46"/><glyph glyph-name="ǿ" unicode="ǿ" horiz-adv-x="525" d="M475 472q45-62 45-204 0-109-25-168.5T420.5 17Q371-6 288-6q-56 0-96 10t-67 34L94 0H51l51 63q-45 63-45 205 0 110 25 169.5t74 81.5q49 22 132 22 56 0 96.5-10t67.5-34l30 37h43M136 175l18-47 250 310q-17 22-45 30t-71 8q-56 0-87.5-14.5t-48-59Q136 358 136 268m304 92l-18 46L172 97q18-22 45.5-30t70.5-8q55 0 86.5 14.5T423 133q17 45 17 135m-80 499h67L302 631h-46"/><glyph glyph-name="Ȁ" unicode="Ȁ" horiz-adv-x="640" d="M286 736h102L640 0h-82l-74 210H188L116 0H34m430 282L337 666 208 282m-77 645h68l104-136h-47m21 136h68l104-136h-47"/><glyph glyph-name="ȁ" unicode="ȁ" horiz-adv-x="472" d="M120-6Q45 66 45 128v38q0 65 42.5 103T212 307h181v66q0 54-29.5 80T255 479H89v47q94 16 195 16 97 0 142.5-39.5T472 377V0h-61l-15 61q-7-6-43.5-23T269 7.5Q222-6 180-6m62 59q78 20 109.5 31T393 99v168l-163-7q-55-2-80.5-27T124 165v-24q0-46 26.5-67T215 53M69 767h68l104-136h-47m21 136h68l104-136h-47"/><glyph glyph-name="Ȃ" unicode="Ȃ" horiz-adv-x="640" d="M286 736h102L640 0h-82l-74 210H188L116 0H34m430 282L337 666 208 282m185 649q72-68 72-141h-39q0 54-25 78.5T337 893q-96 0-96-103h-39q0 75 36 108t96 33"/><glyph glyph-name="ȃ" unicode="ȃ" horiz-adv-x="472" d="M120-6Q45 66 45 128v38q0 65 42.5 103T212 307h181v66q0 54-29.5 80T255 479H89v47q94 16 195 16 97 0 142.5-39.5T472 377V0h-61l-15 61q-7-6-43.5-23T269 7.5Q222-6 180-6m62 59q78 20 109.5 31T393 99v168l-163-7q-55-2-80.5-27T124 165v-24q0-46 26.5-67T215 53m112 718q72-68 72-141h-39q0 54-25 78.5T271 733q-96 0-96-103h-39q0 75 36 108t96 33"/><glyph glyph-name="Ȅ" unicode="Ȅ" horiz-adv-x="530" d="M164-4Q77 55 77 139v449q0 78 42 113t103 35q160-3 249-7l59-2v-64H242q-85 0-85-88V401l329-5v-61l-329-5V157q0-51 24-69t65-18h284V6Q340-4 227-4M106 927h68l104-136h-47m21 136h68l104-136h-47"/><glyph glyph-name="ȅ" unicode="ȅ" horiz-adv-x="484" d="M194-6Q99 44 78 103T57 268q0 107 21.5 166t69.5 83q48 24 133 24 73 0 117-16t65-54.5Q484 432 484 364t-39.5-98.5Q405 235 332 235H136q1-69 14-106.5t48-55Q233 56 299 56h172V8q-54-7-96-10.5T280-6m45 293q46 0 67 17t21 59q0 67-29.5 92.5T281 481q-58 0-89-17t-44-58q-13-41-13-119M69 767h68l104-136h-47m21 136h68l104-136h-47"/><glyph glyph-name="Ȇ" unicode="Ȇ" horiz-adv-x="530" d="M164-4Q77 55 77 139v449q0 78 42 113t103 35q160-3 249-7l59-2v-64H242q-85 0-85-88V401l329-5v-61l-329-5V157q0-51 24-69t65-18h284V6Q340-4 227-4m140 935q72-68 72-141h-39q0 54-25 78.5T311 893q-96 0-96-103h-39q0 75 36 108t96 33"/><glyph glyph-name="ȇ" unicode="ȇ" horiz-adv-x="484" d="M194-6Q99 44 78 103T57 268q0 107 21.5 166t69.5 83q48 24 133 24 73 0 117-16t65-54.5Q484 432 484 364t-39.5-98.5Q405 235 332 235H136q1-69 14-106.5t48-55Q233 56 299 56h172V8q-54-7-96-10.5T280-6m45 293q46 0 67 17t21 59q0 67-29.5 92.5T281 481q-58 0-89-17t-44-58q-13-41-13-119m192 484q72-68 72-141h-39q0 54-25 78.5T271 733q-96 0-96-103h-39q0 75 36 108t96 33"/><glyph glyph-name="Ȉ" unicode="Ȉ" horiz-adv-x="229" d="M77 736h80V0H77M-89 927h68L83 791H36m21 136h68l104-136h-47"/><glyph glyph-name="ȉ" unicode="ȉ" horiz-adv-x="232" d="M76 534h79V0H76M-86 767h68L86 631H39m21 136h68l104-136h-47"/><glyph glyph-name="Ȋ" unicode="Ȋ" horiz-adv-x="245" d="M77 736h80V0H77m96 931q72-68 72-141h-39q0 54-25 78.5T117 893q-96 0-96-103h-39q0 75 36 108t96 33"/><glyph glyph-name="ȋ" unicode="ȋ" horiz-adv-x="244" d="M76 534h79V0H76m96 771q72-68 72-141h-39q0 54-25 78.5T116 733q-96 0-96-103h-39q0 75 36 108t96 33"/><glyph glyph-name="Ȍ" unicode="Ȍ" horiz-adv-x="627" d="M239-6Q120 49 89.5 128.5T59 365q0 156 31.5 237.5T182 713q60 29 161 29 104 0 164-28.5t90-110Q627 522 627 365t-30.5-236.5q-30.5-79.5-90-107T343-6m80 71q85 44 105 108t20 192q0 133-20 198t-62.5 86.5Q423 671 343 671q-76 0-119-21.5T159.5 562Q138 496 138 365q0-129 19-192.5T218.5 87Q261 65 343 65M138 927h68l104-136h-47m21 136h68l104-136h-47"/><glyph glyph-name="ȍ" unicode="ȍ" horiz-adv-x="520" d="M206-6Q106 40 81.5 99.5T57 268q0 110 25 169.5t74 81.5q49 22 132 22 82 0 132-22.5t75-82Q520 377 520 268T495 99.5Q470 40 420.5 17T288-6m55 65q63 29 80 74t17 135q0 90-16.5 134.5t-48.5 59Q343 476 288 476q-56 0-87.5-14.5t-48-59Q136 358 136 268t16.5-135q16.5-45 48-59.5T288 59M86 767h68l104-136h-47m21 136h68l104-136h-47"/><glyph glyph-name="Ȏ" unicode="Ȏ" horiz-adv-x="627" d="M239-6Q120 49 89.5 128.5T59 365q0 156 31.5 237.5T182 713q60 29 161 29 104 0 164-28.5t90-110Q627 522 627 365t-30.5-236.5q-30.5-79.5-90-107T343-6m80 71q85 44 105 108t20 192q0 133-20 198t-62.5 86.5Q423 671 343 671q-76 0-119-21.5T159.5 562Q138 496 138 365q0-129 19-192.5T218.5 87Q261 65 343 65m56 866q72-68 72-141h-39q0 54-25 78.5T343 893q-96 0-96-103h-39q0 75 36 108t96 33"/><glyph glyph-name="ȏ" unicode="ȏ" horiz-adv-x="520" d="M206-6Q106 40 81.5 99.5T57 268q0 110 25 169.5t74 81.5q49 22 132 22 82 0 132-22.5t75-82Q520 377 520 268T495 99.5Q470 40 420.5 17T288-6m55 65q63 29 80 74t17 135q0 90-16.5 134.5t-48.5 59Q343 476 288 476q-56 0-87.5-14.5t-48-59Q136 358 136 268t16.5-135q16.5-45 48-59.5T288 59m57 712q72-68 72-141h-39q0 54-25 78.5T289 733q-96 0-96-103h-39q0 75 36 108t96 33"/><glyph glyph-name="Ȑ" unicode="Ȑ" horiz-adv-x="569" d="M77 736h290q86 0 138.5-46T558 519q0-107-40-151t-100-56L569 0h-81L345 301l-55 1-133 3V0H77m278 366q59 0 91.5 32T479 519q0 84-33 114.5T355 664H157V366M88 927h68l104-136h-47m21 136h68l104-136h-47"/><glyph glyph-name="ȑ" unicode="ȑ" horiz-adv-x="388" d="M76 534h60l19-93q39 47 84 73t99 26q27 0 50-5v-81q-45 5-58 5-53 0-91.5-19T155 379V0H76M8 767h68l104-136h-47m21 136h68l104-136h-47"/><glyph glyph-name="Ȓ" unicode="Ȓ" horiz-adv-x="569" d="M77 736h290q86 0 138.5-46T558 519q0-107-40-151t-100-56L569 0h-81L345 301l-55 1-133 3V0H77m278 366q59 0 91.5 32T479 519q0 84-33 114.5T355 664H157V366m192 565q72-68 72-141h-39q0 54-25 78.5T293 893q-96 0-96-103h-39q0 75 36 108t96 33"/><glyph glyph-name="ȓ" unicode="ȓ" horiz-adv-x="388" d="M76 534h60l19-93q39 47 84 73t99 26q27 0 50-5v-81q-45 5-58 5-53 0-91.5-19T155 379V0H76m191 771q72-68 72-141h-39q0 54-25 78.5T211 733q-96 0-96-103H76q0 75 36 108t96 33"/><glyph glyph-name="Ȕ" unicode="Ȕ" horiz-adv-x="609" d="M205-6Q67 98 67 228v508h80V228q0-90 47.5-126T338 66q96 0 143.5 36T529 228v508h80V228q0-130-69-182T338-6M129 927h68l104-136h-47m21 136h68l104-136h-47"/><glyph glyph-name="ȕ" unicode="ȕ" horiz-adv-x="515" d="M75-6v540h79V178q0-64 28.5-89T270 64q45 0 84 12.5t82 38.5v419h79V0h-62l-17 59Q334-6 235-6M84 767h68l104-136h-47m21 136h68l104-136h-47"/><glyph glyph-name="Ȗ" unicode="Ȗ" horiz-adv-x="609" d="M205-6Q67 98 67 228v508h80V228q0-90 47.5-126T338 66q96 0 143.5 36T529 228v508h80V228q0-130-69-182T338-6m52 937q72-68 72-141h-39q0 54-25 78.5T334 893q-96 0-96-103h-39q0 75 36 108t96 33"/><glyph glyph-name="ȗ" unicode="ȗ" horiz-adv-x="515" d="M75-6v540h79V178q0-64 28.5-89T270 64q45 0 84 12.5t82 38.5v419h79V0h-62l-17 59Q334-6 235-6m108 777q72-68 72-141h-39q0 54-25 78.5T287 733q-96 0-96-103h-39q0 75 36 108t96 33"/><glyph glyph-name="Ș" unicode="Ș" horiz-adv-x="519" d="M239-6Q100 5 63 12v61q78-8 220-8 76 0 118 24t42 87v50q0 104-110 104h-79q-95 0-144.5 41.5T60 508v42q0 101 54 146.5T274 742q45 0 108.5-6.5T486 721v-60q-135 9-204 9-74 0-110-26.5T136 547v-34q0-58 30.5-82.5T257 406h85q87 0 132-46.5T519 235v-57q0-103-62.5-143.5T286-6m-85-164l30 5q26 4 40 11.5t21 28.5q7 21 7 62h49q0-52-9-81.5T306.5-188Q283-202 239-202h-38"/><glyph glyph-name="ș" unicode="ș" horiz-adv-x="451" d="M215-6Q79 2 54 8v48h219q56 0 82 15t26 63v24q0 75-97 75h-75q-77 0-118.5 30T49 365v28q0 76 44.5 111T237 539q43 0 101.5-4.5T430 524v-48H224q-54 0-80-18t-26-65v-22q0-43 25.5-57.5T222 299h76q73 0 113-34t40-98v-37q0-76-49-106T260-6M157-170l30 5q26 4 40 11.5t21 28.5q7 21 7 62h49q0-52-9-81.5T262.5-188Q239-202 195-202h-38"/><glyph glyph-name="Ț" unicode="Ț" horiz-adv-x="550" d="M244 664H16v72h534v-72H323V0h-79m-78-170l30 5q26 4 40 11.5t21 28.5q7 21 7 62h49q0-52-9-81.5T271.5-188Q248-202 204-202h-38"/><glyph glyph-name="ț" unicode="ț" horiz-adv-x="334" d="M174 0q-74 81-72 173l3 296H20v51l86 14 13 149h61V534h154v-65H180V173q0-61 23-83.5T261 64l65-6V0h-73M101-170l30 5q26 4 40 11.5t21 28.5q7 21 7 62h49q0-52-9-81.5T206.5-188Q183-202 139-202h-38"/><glyph glyph-name="Ȫ" unicode="Ȫ" horiz-adv-x="627" d="M239-6Q120 49 89.5 128.5T59 365q0 156 31.5 237.5T182 713q60 29 161 29 104 0 164-28.5t90-110Q627 522 627 365t-30.5-236.5q-30.5-79.5-90-107T343-6m80 71q85 44 105 108t20 192q0 133-20 198t-62.5 86.5Q423 671 343 671q-76 0-119-21.5T159.5 562Q138 496 138 365q0-129 19-192.5T218.5 87Q261 65 343 65M206 813q-9 9-9 16v78q0 16 16 16h37q7 0 11.5-4.5T266 907v-78q0-7-4.5-11.5T250 813h-37m229 0q-9 9-9 16v78q0 16 16 16h37q7 0 11-4.5t4-11.5v-78q0-7-4-11.5t-11-4.5h-37m-231 232h265v-47H218"/><glyph glyph-name="ȫ" unicode="ȫ" horiz-adv-x="520" d="M206-6Q106 40 81.5 99.5T57 268q0 110 25 169.5t74 81.5q49 22 132 22 82 0 132-22.5t75-82Q520 377 520 268T495 99.5Q470 40 420.5 17T288-6m55 65q63 29 80 74t17 135q0 90-16.5 134.5t-48.5 59Q343 476 288 476q-56 0-87.5-14.5t-48-59Q136 358 136 268t16.5-135q16.5-45 48-59.5T288 59M164 653q-9 9-9 16v78q0 16 16 16h36q16 0 16-16v-78q0-16-16-16h-36m188 0q-9 9-9 16v78q0 16 16 16h36q16 0 16-16v-78q0-16-16-16h-36M153 885h265v-47H153"/><glyph glyph-name="Ȭ" unicode="Ȭ" horiz-adv-x="627" d="M239-6Q120 49 89.5 128.5T59 365q0 156 31.5 237.5T182 713q60 29 161 29 104 0 164-28.5t90-110Q627 522 627 365t-30.5-236.5q-30.5-79.5-90-107T343-6m80 71q85 44 105 108t20 192q0 133-20 198t-62.5 86.5Q423 671 343 671q-76 0-119-21.5T159.5 562Q138 496 138 365q0-129 19-192.5T218.5 87Q261 65 343 65m-122 971h265v-47H221m-49-127q56 52 95 52 23 0 41.5-8.5T354 881q21-14 36.5-21t31.5-7q26 0 43 16.5t18 46.5h40q-1-51-26-80t-70-29q-21 0-39.5 8T342 840q-23 14-39 21.5t-32 7.5q-25 0-41.5-16T212 807h-41"/><glyph glyph-name="ȭ" unicode="ȭ" horiz-adv-x="520" d="M206-6Q106 40 81.5 99.5T57 268q0 110 25 169.5t74 81.5q49 22 132 22 82 0 132-22.5t75-82Q520 377 520 268T495 99.5Q470 40 420.5 17T288-6m55 65q63 29 80 74t17 135q0 90-16.5 134.5t-48.5 59Q343 476 288 476q-56 0-87.5-14.5t-48-59Q136 358 136 268t16.5-135q16.5-45 48-59.5T288 59M153 885h265v-47H153m-39-136q56 52 95 52 23 0 41.5-8.5T296 721q21-14 36.5-21t31.5-7q26 0 43 16.5t18 46.5h40q-1-51-26-80t-70-29q-21 0-39.5 8T284 680q-23 14-39 21.5t-32 7.5q-25 0-41.5-16T154 647h-41"/><glyph glyph-name="Ȱ" unicode="Ȱ" horiz-adv-x="627" d="M239-6Q120 49 89.5 128.5T59 365q0 156 31.5 237.5T182 713q60 29 161 29 104 0 164-28.5t90-110Q627 522 627 365t-30.5-236.5q-30.5-79.5-90-107T343-6m80 71q85 44 105 108t20 192q0 133-20 198t-62.5 86.5Q423 671 343 671q-76 0-119-21.5T159.5 562Q138 496 138 365q0-129 19-192.5T218.5 87Q261 65 343 65m-27 755q-9 9-9 16v78q0 16 16 16h37q7 0 11-4.5t4-11.5v-78q0-7-4-11.5t-11-4.5h-37m-119 219h265v-47H204"/><glyph glyph-name="ȱ" unicode="ȱ" horiz-adv-x="520" d="M206-6Q106 40 81.5 99.5T57 268q0 110 25 169.5t74 81.5q49 22 132 22 82 0 132-22.5t75-82Q520 377 520 268T495 99.5Q470 40 420.5 17T288-6m55 65q63 29 80 74t17 135q0 90-16.5 134.5t-48.5 59Q343 476 288 476q-56 0-87.5-14.5t-48-59Q136 358 136 268t16.5-135q16.5-45 48-59.5T288 59m-26 601q-9 9-9 16v78q0 16 16 16h37q7 0 11-4.5t4-11.5v-78q0-7-4-11.5t-11-4.5h-37M153 879h265v-47H153"/><glyph glyph-name="Ȳ" unicode="Ȳ" horiz-adv-x="582" d="M269 244L35 736h83l192-412 192 412h80L349 244V0h-80m-98 879h265v-47H171"/><glyph glyph-name="ȳ" unicode="ȳ" horiz-adv-x="522" d="M287 0q-45 1-82 29.5T147 125L19 534h83l119-392q25-74 83-74l137 466h81L327-138l-46-99h-62m-87 956h265v-47H132"/><glyph glyph-name="ȷ" unicode="ȷ" horiz-adv-x="155" d="M76 534h79V17q0-69-5.5-137T135-237H76"/><glyph glyph-name="ə" unicode="ə" horiz-adv-x="484" d="M347 541q95-50 116-109t21-165q0-107-21.5-166T393 18Q345-6 260-6q-73 0-117 16T78 64.5Q57 103 57 171t39.5 98.5Q136 300 209 300h196q-1 69-14 106.5t-48 55Q308 479 242 479H70v48q54 7 96 10.5t95 3.5m-45-293q-46 0-67-17t-21-59q0-67 29.5-92.5T260 54q58 0 89 17t44 58q13 41 13 119"/><glyph glyph-name="ʹ" unicode="ʹ" horiz-adv-x="112" d="M368 763l-32-301h-55l14 301"/><glyph glyph-name="ʺ" unicode="ʺ" horiz-adv-x="238" d="M368 763l-32-301h-55l14 301m-57 0l-32-301h-55l14 301"/><glyph glyph-name="ʻ" unicode="ʻ" horiz-adv-x="118" d="M99 744q14-2 16-3v-25q-12 0-16.5-3.5T94 699v-38h8q7 0 11.5-4.5T118 645v-72q0-18-16-18H59q-16 0-16 18v122q0 49 47 49"/><glyph glyph-name="ʼ" unicode="ʼ" horiz-adv-x="131" d="M67 525l-12 2v28q23 0 23 23v50h-9q-7 0-12 5t-5 14v80q0 20 17 20h48q14 0 14-20V584q0-33-17-46t-40-13"/><glyph glyph-name="ʾ" unicode="ʾ" horiz-adv-x="170" d="M25 623q51 0 74 17t23 57q0 41-23 58t-74 17v36q73 0 109-25.5t36-85.5q0-60-35.5-85T25 587"/><glyph glyph-name="ʿ" unicode="ʿ" horiz-adv-x="174" d="M100 587q-72 50-72 110t36 85.5Q100 808 174 808v-36q-51 0-74.5-17T76 697q0-40 23.5-57t74.5-17v-36"/><glyph glyph-name="ˆ" unicode="ˆ" horiz-adv-x="343" d="M177 766h56l110-135h-48l-91 97-100-97H55"/><glyph glyph-name="ˇ" unicode="ˇ" horiz-adv-x="343" d="M55 766h48l92-97 100 97h48L222 631h-56"/><glyph glyph-name="ˈ" unicode="ˈ" horiz-adv-x="95" d="M95 763V503H30v260"/><glyph glyph-name="ˉ" unicode="ˉ" horiz-adv-x="294" d="M285 719h265v-47H285"/><glyph glyph-name="ˊ" unicode="ˊ" horiz-adv-x="193" d="M126 767h67L68 631H22"/><glyph glyph-name="ˋ" unicode="ˋ" horiz-adv-x="193" d="M22 767h67l104-136h-46"/><glyph glyph-name="ˌ" unicode="ˌ" horiz-adv-x="95" d="M95 65559v-260H30v260"/><glyph glyph-name="˘" unicode="˘" horiz-adv-x="311" d="M120 629q-72 68-72 141h39q0-53 25-78t64-25q96 0 96 103h39q0-75-36-108t-96-33"/><glyph glyph-name="˙" unicode="˙" horiz-adv-x="119" d="M60 653q-9 9-9 16v78q0 16 16 16h37q7 0 11-4.5t4-11.5v-78q0-7-4-11.5t-11-4.5H67"/><glyph glyph-name="˚" unicode="˚" horiz-adv-x="277" d="M110 594q-55 48-55 106 0 59 28 83.5t84 24.5q56 0 83-24.5t27-83.5q0-58-27-82t-83-24m38 33q32 31 32 73t-16 58.5Q205 775 167 775t-55.5-16.5Q94 742 94 700q0-41 17.5-57t55.5-16"/><glyph glyph-name="˛" unicode="˛" horiz-adv-x="184" d="M109-187q-56 50-56 89 0 30 19 55t56 43h30Q95-35 95-81q0-30 22-47.5t61-17.5h6v-38q-11-3-26-3"/><glyph glyph-name="˜" unicode="˜" horiz-adv-x="403" d="M52 702q56 52 95 52 23 0 41.5-8.5T234 721q21-14 36.5-21t31.5-7q26 0 43 16.5t18 46.5h40q-1-51-26-80t-70-29q-21 0-39.5 8T222 680q-23 14-39 21.5t-32 7.5q-25 0-41.5-16T92 647H51"/><glyph glyph-name="˝" unicode="˝" horiz-adv-x="337" d="M122 767h65L68 631H22m250 136h65L218 631h-46"/><glyph glyph-name="̀" unicode="̀" horiz-adv-x="-227" d="M65138 767h67l104-136h-46"/><glyph glyph-name="́" unicode="́" horiz-adv-x="-130" d="M65339 767h67l-125-136h-46"/><glyph glyph-name="̂" unicode="̂" horiz-adv-x="-128" d="M65242 766h56l110-135h-48l-91 97-100-97h-49"/><glyph glyph-name="̃" unicode="̃" horiz-adv-x="-92" d="M65093 702q56 52 95 52 23 0 41.5-8.5t45.5-24.5q21-14 36.5-21t31.5-7q26 0 43 16.5t18 46.5h40q-1-51-26-80t-70-29q-21 0-39.5 8t-45.5 25q-23 14-39 21.5t-32 7.5q-25 0-41.5-16t-17.5-46h-41"/><glyph glyph-name="̄" unicode="̄" horiz-adv-x="-139" d="M65132 719h265v-47h-265"/><glyph glyph-name="̆" unicode="̆" horiz-adv-x="-144" d="M65201 629q-72 68-72 141h39q0-53 25-78t64-25q96 0 96 103h39q0-75-36-108t-96-33"/><glyph glyph-name="̇" unicode="̇" horiz-adv-x="-236" d="M-295 660q-9 9-9 16v78q0 16 16 16h37q7 0 11-4.5t4-11.5v-78q0-7-4-11.5t-11-4.5h-37"/><glyph glyph-name="̈" unicode="̈" horiz-adv-x="-139" d="M-393 653q-9 9-9 16v78q0 16 16 16h36q16 0 16-16v-78q0-16-16-16h-36m188 0q-9 9-9 16v78q0 16 16 16h36q16 0 16-16v-78q0-16-16-16h-36"/><glyph glyph-name="̉" unicode="̉" horiz-adv-x="-229" d="M-328 640q56 17 56 59 0 44-48 44-18 0-36-6v34q18 6 46 6 41 0 61-20.5t20-56.5q0-33-24.5-57.5T-328 603"/><glyph glyph-name="̊" unicode="̊" horiz-adv-x="-158" d="M65211 594q-55 48-55 106 0 59 28 83.5t84 24.5q56 0 83-24.5t27-83.5q0-58-27-82t-83-24m38 33q32 31 32 73t-16 58.5q-16 16.5-54 16.5t-55.5-16.5Q65195 742 65195 700q0-41 17.5-57t55.5-16"/><glyph glyph-name="̋" unicode="̋" horiz-adv-x="-73" d="M65248 767h65l-119-136h-46m250 136h65l-119-136h-46"/><glyph glyph-name="̌" unicode="̌" horiz-adv-x="-121" d="M65127 766h48l92-97 100 97h48l-121-135h-56"/><glyph glyph-name="̏" unicode="̏" horiz-adv-x="-169" d="M-487 767h68l104-136h-47m21 136h68l104-136h-47"/><glyph glyph-name="̑" unicode="̑" horiz-adv-x="-140" d="M-212 771q72-68 72-141h-39q0 54-25 78.5t-64 24.5q-96 0-96-103h-39q0 75 36 108t96 33"/><glyph glyph-name="̒" unicode="̒" horiz-adv-x="-233" d="M-380 667q18 59 41.5 72.5T-271 753h38v-32l-30-5q-26-4-40-11.5t-21-28.5q-7-21-7-62h-49"/><glyph glyph-name="̛" unicode="̛" horiz-adv-x="-31" d="M-260 534h93q38 0 58.5 26t20.5 87h57q0-82-34.5-120t-89.5-38h-105"/><glyph glyph-name="̣" unicode="̣" horiz-adv-x="-236" d="M-296-210q-9 9-9 16v78q0 16 16 16h37q7 0 11.5-4.5t4.5-11.5v-78q0-7-4.5-11.5T-252-210h-37"/><glyph glyph-name="̤" unicode="̤" horiz-adv-x="-124" d="M-419-197q-9 9-9 16v78q0 16 16 16h37q7 0 11.5-4.5t4.5-11.5v-78q0-7-4.5-11.5T-375-197h-37m229 0q-9 9-9 16v78q0 16 16 16h37q7 0 11-4.5t4-11.5v-78q0-7-4-11.5t-11-4.5h-37"/><glyph glyph-name="̦" unicode="̦" horiz-adv-x="-242" d="M-389-170l30 5q26 4 40 11.5t21 28.5q7 21 7 62h49q0-52-9-81.5t-32.5-43.5q-23.5-14-67.5-14h-38"/><glyph glyph-name="̧" unicode="̧" horiz-adv-x="-210" d="M65326-58v-60q0-34-25-53t-71-19h-33v33l22 2q28 3 42 13.5t14 31.5q0 19-14.5 31t-51.5 13l52 79h37l-44-67"/><glyph glyph-name="̨" unicode="̨" horiz-adv-x="-216" d="M65245-187q-56 50-56 89 0 30 19 55t56 43h30q-63-35-63-81 0-30 22-47.5t61-17.5h6v-38q-11-3-26-3"/><glyph glyph-name="̮" unicode="̮" horiz-adv-x="-141" d="M-332-221q-72 68-72 141h39q0-54 24.5-78.5T-276-183q96 0 96 103h39q0-75-36-108t-96-33"/><glyph glyph-name="̱" unicode="̱" horiz-adv-x="-140" d="M-405-141h265v-47h-265"/><glyph glyph-name="̵" unicode="̵" horiz-adv-x="-30" d="M-308 327h278v-38h-278"/><glyph glyph-name="Ω" unicode="Ω" horiz-adv-x="724" d="M556 739q153-187 153-349 0-89-42-174T547 70l177-8V0H464v69q84 62 124.5 143.5T629 383q0 132-57 208.5T390 668q-126 0-184-75.5T148 387q0-98 39-170T317 69V0H58v62l177 9Q69 197 69 395q0 148 76 246t245 98"/><glyph glyph-name="μ" unicode="μ" horiz-adv-x="515" d="M515 534V0h-62l-14 59q-37-30-83-47.5T259-6q-61 0-105 29v-292H75v803h79V178q0-63 30-88.5T270 64q46 0 84 12.5t82 38.5v419"/><glyph glyph-name="π" unicode="π" horiz-adv-x="559" d="M551 534v-73H442V136q0-43 14.5-60T504 59h55V13Q525-6 478-6q-58 0-87 33t-29 105v329H201V0h-79v461H22v73"/><glyph glyph-name="Ḃ" unicode="Ḃ" horiz-adv-x="559" d="M77 736h266q190 0 190-189 0-66-29.5-109T429 382q50-11 90-55t40-123q0-112-52-158T353 0H77m271 410q49 0 79 36.5t30 97.5q0 120-114 120H157V410M351 71q64 0 98 32t34 114q0 60-37.5 95T351 347H157V71m109 749q-9 9-9 16v78q0 16 16 16h37q7 0 11-4.5t4-11.5v-78q0-7-4-11.5t-11-4.5h-37"/><glyph glyph-name="ḃ" unicode="ḃ" horiz-adv-x="521" d="M241-6l-86 60-15-54H76v763h79V485q42 24 89.5 40t85.5 16q98 0 144.5-64T521 263Q521-6 333-6m41 66q68 103 68 206 0 84-16.5 129.5T380 458q-29 17-72 17-42 0-77-11t-76-34V103q37-20 73.5-31.5T308 60M89 860q-9 9-9 16v78q0 16 16 16h37q7 0 11-4.5t4-11.5v-78q0-7-4-11.5t-11-4.5H96"/><glyph glyph-name="Ḉ" unicode="Ḉ" horiz-adv-x="535" d="M351 791h-46l104 136h67M261 671q-84-49-103.5-113.5T138 369q0-128 18.5-192.5t59.5-88Q257 65 334 65q127 0 201 13V18Q456-2 352-5l-32-49q72-4 72-64 0-34-25-53t-71-19h-33v33l22 2q28 3 42 13.5t14 31.5q0 19-14.5 31T275-66l39 60q-93 1-147 30.5T86 135q-27 81-27 235 0 147 28 227.5T172 710q57 32 152 32 46 0 105.5-7.5T535 715v-59q-35 5-90 10t-109 5"/><glyph glyph-name="ḉ" unicode="ḉ" horiz-adv-x="457" d="M284 631h-46l104 136h67M366-5l-77-1-32-48q72-4 72-64 0-34-25-53t-71-19h-33v33l22 2q28 3 42 13.5t14 31.5q0 19-14.5 31T212-66l40 60q-93 5-144 65.5T57 266q0 107 25.5 167t72.5 83.5Q202 540 272 540q96 0 177-14v-47H293q-55 0-88.5-18t-51-64.5Q136 350 136 264q0-82 18.5-127.5t52.5-63Q241 56 294 56h163V10"/><glyph glyph-name="Ḋ" unicode="Ḋ" horiz-adv-x="610" d="M77 736h291q129 0 185.5-92T610 368q0-176-61.5-272T368 0H77m285 71q85 0 127 78.5T531 368q0 109-17.5 174T459 635.5Q422 664 362 664H157V71m134 749q-9 9-9 16v78q0 16 16 16h37q7 0 11-4.5t4-11.5v-78q0-7-4-11.5t-11-4.5h-37"/><glyph glyph-name="ḋ" unicode="ḋ" horiz-adv-x="502" d="M150-6Q57 124 57 263q0 100 20 161t64 89q44 28 118 28 76 0 164-32v254h79V0h-64l-15 54q-24-21-77-40.5T249-6m65 65q71 25 109 45v349q-47 14-76.5 20t-66.5 6q-53 0-84-19.5T150.5 394Q136 348 136 266q0-112 31-159.5T272 59m165 801q-9 9-9 16v78q0 16 16 16h37q7 0 11-4.5t4-11.5v-78q0-7-4-11.5t-11-4.5h-37"/><glyph glyph-name="Ḍ" unicode="Ḍ" horiz-adv-x="610" d="M77 736h291q129 0 185.5-92T610 368q0-176-61.5-272T368 0H77m285 71q85 0 127 78.5T531 368q0 109-17.5 174T459 635.5Q422 664 362 664H157V71m121-281q-9 9-9 16v78q0 16 16 16h37q7 0 11-4.5t4-11.5v-78q0-7-4-11.5t-11-4.5h-37"/><glyph glyph-name="ḍ" unicode="ḍ" horiz-adv-x="502" d="M150-6Q57 124 57 263q0 100 20 161t64 89q44 28 118 28 76 0 164-32v254h79V0h-64l-15 54q-24-21-77-40.5T249-6m65 65q71 25 109 45v349q-47 14-76.5 20t-66.5 6q-53 0-84-19.5T150.5 394Q136 348 136 266q0-112 31-159.5T272 59m-14-269q-9 9-9 16v78q0 16 16 16h37q7 0 11.5-4.5T318-116v-78q0-7-4.5-11.5T302-210h-37"/><glyph glyph-name="Ḏ" unicode="Ḏ" horiz-adv-x="610" d="M77 736h291q129 0 185.5-92T610 368q0-176-61.5-272T368 0H77m285 71q85 0 127 78.5T531 368q0 109-17.5 174T459 635.5Q422 664 362 664H157V71m11-212h265v-47H168"/><glyph glyph-name="ḏ" unicode="ḏ" horiz-adv-x="502" d="M150-6Q57 124 57 263q0 100 20 161t64 89q44 28 118 28 76 0 164-32v254h79V0h-64l-15 54q-24-21-77-40.5T249-6m65 65q71 25 109 45v349q-47 14-76.5 20t-66.5 6q-53 0-84-19.5T150.5 394Q136 348 136 266q0-112 31-159.5T272 59M151-141h265v-47H151"/><glyph glyph-name="Ḕ" unicode="Ḕ" horiz-adv-x="530" d="M164-4Q77 55 77 139v449q0 78 42 113t103 35q160-3 249-7l59-2v-64H242q-85 0-85-88V401l329-5v-61l-329-5V157q0-51 24-69t65-18h284V6Q340-4 227-4m-55 883h265v-47H172m-13 225h67l104-136h-46"/><glyph glyph-name="ḕ" unicode="ḕ" horiz-adv-x="484" d="M194-6Q99 44 78 103T57 268q0 107 21.5 166t69.5 83q48 24 133 24 73 0 117-16t65-54.5Q484 432 484 364t-39.5-98.5Q405 235 332 235H136q1-69 14-106.5t48-55Q233 56 299 56h172V8q-54-7-96-10.5T280-6m45 293q46 0 67 17t21 59q0 67-29.5 92.5T281 481q-58 0-89-17t-44-58q-13-41-13-119m0 432h265v-47H135m-4 222h67l104-136h-46"/><glyph glyph-name="Ḗ" unicode="Ḗ" horiz-adv-x="530" d="M164-4Q77 55 77 139v449q0 78 42 113t103 35q160-3 249-7l59-2v-64H242q-85 0-85-88V401l329-5v-61l-329-5V157q0-51 24-69t65-18h284V6Q340-4 227-4m-55 883h265v-47H172m220 225h67L334 921h-46"/><glyph glyph-name="ḗ" unicode="ḗ" horiz-adv-x="484" d="M194-6Q99 44 78 103T57 268q0 107 21.5 166t69.5 83q48 24 133 24 73 0 117-16t65-54.5Q484 432 484 364t-39.5-98.5Q405 235 332 235H136q1-69 14-106.5t48-55Q233 56 299 56h172V8q-54-7-96-10.5T280-6m45 293q46 0 67 17t21 59q0 67-29.5 92.5T281 481q-58 0-89-17t-44-58q-13-41-13-119m0 432h265v-47H135m204 222h67L281 758h-46"/><glyph glyph-name="Ḝ" unicode="Ḝ" horiz-adv-x="530" d="M245 789q-72 68-72 141h39q0-53 25-78t64-25q96 0 96 103h39q0-75-36-108t-96-33M157 663V401l329-5v-61l-329-5V157q0-51 24-69t65-18h284V6Q421 0 341-2l-34-52q72-4 72-64 0-34-25-53t-71-19h-33v33l22 2q28 3 42 13.5t14 31.5q0 19-14.5 31T262-66l42 63-77-1q-63 0-106.5 29.5T77 139v449q0 78 42 113t103 35q160-3 249-7l59-2v-64H242"/><glyph glyph-name="ḝ" unicode="ḝ" horiz-adv-x="484" d="M204 629q-72 68-72 141h39q0-53 25-78t64-25q96 0 96 103h39q0-75-36-108t-96-33M137 166q26-75 61-92.5T299 56h172V8q-52-7-92.5-10.5T289-6l-32-48q72-4 72-64 0-34-25-53t-71-19h-33v33l22 2q28 3 42 13.5t14 31.5q0 19-14.5 31T212-66l40 61q-74 4-116 31t-60.5 84.5Q57 168 57 268q0 107 21.5 166t69.5 83q48 24 133 24 73 0 117-16t65-54.5Q484 432 484 364t-39.5-98.5Q405 235 332 235H136m87 246q-62-34-75-75t-13-119h190q46 0 67 17t21 59q0 67-29.5 92.5T281 481"/><glyph glyph-name="Ḟ" unicode="Ḟ" horiz-adv-x="530" d="M77 588q0 78 42 113t103 35l56-1q24-1 104.5-2.5T530 726v-63H241q-40 0-62-22.5T157 576V385l329-5v-61l-329-5V0H77m207 820q-9 9-9 16v78q0 16 16 16h37q7 0 11-4.5t4-11.5v-78q0-7-4-11.5t-11-4.5h-37"/><glyph glyph-name="ḟ" unicode="ḟ" horiz-adv-x="361" d="M105 469H23v51l82 14v61q0 89 34.5 131.5T258 769q51 0 103-10v-56h-89q-51 0-69.5-24.5T184 599v-65h166v-65H184V0h-79m129 870q-9 9-9 16v78q0 16 16 16h37q7 0 11-4.5t4-11.5v-78q0-7-4-11.5t-11-4.5h-37"/><glyph glyph-name="Ḡ" unicode="Ḡ" horiz-adv-x="575" d="M202-5Q100 74 79.5 154.5T59 370q0 131 22 211t76.5 120.5Q212 742 308 742q57 0 120-7t117-19v-59q-40 5-103 9.5T320 671q-72 0-111.5-30t-55-94.5Q138 482 138 369q0-120 15.5-184T207 94.5Q245 68 317 68q44 0 92.5 11t89.5 27v217H321v59q65 10 165 10 58 0 89-4V0h-58l-12 52q-45-23-100-40T293-5M189 879h265v-47H189"/><glyph glyph-name="ḡ" unicode="ḡ" horiz-adv-x="553" d="M553 490l-120-10q20-13 33.5-26.5t24-41Q501 385 501 343q0-70-45-116t-144-46h-85q-45 0-68-13t-23-44q0-22 16.5-33T192 80h177q93 0 138.5-36T553-67v-22q0-74-50.5-115T356-245H207q-81 0-128.5 33.5T31-113v24q0 44 24 75t63 48Q93 46 80 66.5T67 113q0 76 90 95-52 21-73.5 62.5T62 363q0 172 206 172h285M374 242q55 60 55 110 0 121-116 121h-57q-60 0-91-26.5T134 359q0-117 110-117h60M221 18q-48 0-81.5-23.5T106-76v-22q0-89 119-89h124q62 0 95.5 23.5T478-92v20q0 43-27 66.5T359 18M154 719h265v-47H154"/><glyph glyph-name="Ḥ" unicode="Ḥ" horiz-adv-x="604" d="M77 736h80V395h368v341h79V0h-79v324H157V0H77m238-210q-9 9-9 16v78q0 16 16 16h37q7 0 11-4.5t4-11.5v-78q0-7-4-11.5t-11-4.5h-37"/><glyph glyph-name="ḥ" unicode="ḥ" horiz-adv-x="515" d="M76 763h79V475q41 29 92.5 48.5T351 543q81 0 122.5-50T515 364V0h-79v355q0 51-30 83.5T325 471q-48 0-85.5-12.5T155 419V0H76m190-210q-9 9-9 16v78q0 16 16 16h37q7 0 11.5-4.5T326-116v-78q0-7-4.5-11.5T310-210h-37"/><glyph glyph-name="Ḫ" unicode="Ḫ" horiz-adv-x="604" d="M77 736h80V395h368v341h79V0h-79v324H157V0H77m201-221q-72 68-72 141h39q0-54 24.5-78.5T334-183q96 0 96 103h39q0-75-36-108t-96-33"/><glyph glyph-name="ḫ" unicode="ḫ" horiz-adv-x="515" d="M76 763h79V475q41 29 92.5 48.5T351 543q81 0 122.5-50T515 364V0h-79v355q0 51-30 83.5T325 471q-48 0-85.5-12.5T155 419V0H76m156-221q-72 68-72 141h39q0-54 24.5-78.5T288-183q96 0 96 103h39q0-75-36-108t-96-33"/><glyph glyph-name="Ḯ" unicode="Ḯ" horiz-adv-x="266" d="M77 736h80V0H77M-34 813q-9 9-9 16v78q0 16 16 16h37q7 0 11.5-4.5T26 907v-78q0-7-4.5-11.5T10 813h-37m229 0q-9 9-9 16v78q0 16 16 16h37q7 0 11-4.5t4-11.5v-78q0-7-4-11.5t-11-4.5h-37m-10 277h67L141 954H95"/><glyph glyph-name="ḯ" unicode="ḯ" horiz-adv-x="251" d="M76 534h79V0H76M-9 653q-9 9-9 16v78q0 16 16 16h36q16 0 16-16v-78q0-16-16-16H-2m188 0q-9 9-9 16v78q0 16 16 16h36q16 0 16-16v-78q0-16-16-16h-36m-9 280h67L126 797H80"/><glyph glyph-name="Ḷ" unicode="Ḷ" horiz-adv-x="506" d="M155 0Q77 67 77 148v588h80V159q0-49 23-67.5T242 73h264V0H225m22-210q-9 9-9 16v78q0 16 16 16h37q7 0 11-4.5t4-11.5v-78q0-7-4-11.5t-11-4.5h-37"/><glyph glyph-name="ḷ" unicode="ḷ" horiz-adv-x="284" d="M145-1Q76 77 76 171v592h79V181q0-66 18-90t57-29l54-6V-1h-68m-79-209q-9 9-9 16v78q0 16 16 16h37q7 0 11.5-4.5T197-116v-78q0-7-4.5-11.5T181-210h-37"/><glyph glyph-name="Ḻ" unicode="Ḻ" horiz-adv-x="506" d="M155 0Q77 67 77 148v588h80V159q0-49 23-67.5T242 73h264V0H225m-88-141h265v-47H137"/><glyph glyph-name="ḻ" unicode="ḻ" horiz-adv-x="295" d="M145-1Q76 77 76 171v592h79V181q0-66 18-90t57-29l54-6V-1h-68M30-141h265v-47H30"/><glyph glyph-name="Ṁ" unicode="Ṁ" horiz-adv-x="778" d="M701 0l-70 611L454 0h-73L201 606 134 0H57l84 736h81l196-636 192 636h82L778 0M387 820q-9 9-9 16v78q0 16 16 16h37q7 0 11-4.5t4-11.5v-78q0-7-4-11.5t-11-4.5h-37"/><glyph glyph-name="ṁ" unicode="ṁ" horiz-adv-x="876" d="M76 534h62l17-59q100 68 200 68 48 0 83.5-21.5T494 464q42 31 102.5 55T709 543q83 0 125-51t42-132V0h-79v354q0 52-30.5 84.5T684 471q-43 0-89.5-16T505 413q10-32 10-60V0h-79v354q0 52-29.5 84.5T325 471q-48 0-85.5-12.5T155 419V0H76m378 660q-9 9-9 16v78q0 16 16 16h37q7 0 11-4.5t4-11.5v-78q0-7-4-11.5t-11-4.5h-37"/><glyph glyph-name="Ṃ" unicode="Ṃ" horiz-adv-x="778" d="M701 0l-70 611L454 0h-73L201 606 134 0H57l84 736h81l196-636 192 636h82L778 0M388-210q-9 9-9 16v78q0 16 16 16h37q7 0 11-4.5t4-11.5v-78q0-7-4-11.5t-11-4.5h-37"/><glyph glyph-name="ṃ" unicode="ṃ" horiz-adv-x="876" d="M76 534h62l17-59q100 68 200 68 48 0 83.5-21.5T494 464q42 31 102.5 55T709 543q83 0 125-51t42-132V0h-79v354q0 52-30.5 84.5T684 471q-43 0-89.5-16T505 413q10-32 10-60V0h-79v354q0 52-29.5 84.5T325 471q-48 0-85.5-12.5T155 419V0H76m369-210q-9 9-9 16v78q0 16 16 16h37q7 0 11.5-4.5T505-116v-78q0-7-4.5-11.5T489-210h-37"/><glyph glyph-name="Ṅ" unicode="Ṅ" horiz-adv-x="619" d="M91 736h65l384-599v599h79V0h-65L170 599V0H91m222-210q-9 9-9 16v78q0 16 16 16h37q7 0 11-4.5t4-11.5v-78q0-7-4-11.5t-11-4.5h-37"/><glyph glyph-name="ṅ" unicode="ṅ" horiz-adv-x="515" d="M76 534h62l17-59q42 29 93 48.5T350 543q83 0 124-51t41-129V0h-79v354q0 52-29.5 84.5T325 471q-48 0-85.5-12.5T155 419V0H76m188-210q-9 9-9 16v78q0 16 16 16h37q7 0 11.5-4.5T324-116v-78q0-7-4.5-11.5T308-210h-37"/><glyph glyph-name="Ṇ" unicode="Ṇ" horiz-adv-x="619" d="M91 736h65l384-599v599h79V0h-65L170 599V0H91m222-210q-9 9-9 16v78q0 16 16 16h37q7 0 11-4.5t4-11.5v-78q0-7-4-11.5t-11-4.5h-37"/><glyph glyph-name="ṇ" unicode="ṇ" horiz-adv-x="515" d="M76 534h62l17-59q42 29 93 48.5T350 543q83 0 124-51t41-129V0h-79v354q0 52-29.5 84.5T325 471q-48 0-85.5-12.5T155 419V0H76m188-210q-9 9-9 16v78q0 16 16 16h37q7 0 11.5-4.5T324-116v-78q0-7-4.5-11.5T308-210h-37"/><glyph glyph-name="Ṉ" unicode="Ṉ" horiz-adv-x="619" d="M91 736h65l384-599v599h79V0h-65L170 599V0H91m112-141h265v-47H203"/><glyph glyph-name="ṉ" unicode="ṉ" horiz-adv-x="515" d="M76 534h62l17-59q42 29 93 48.5T350 543q83 0 124-51t41-129V0h-79v354q0 52-29.5 84.5T325 471q-48 0-85.5-12.5T155 419V0H76m81-141h265v-47H157"/><glyph glyph-name="Ṍ" unicode="Ṍ" horiz-adv-x="627" d="M239-6Q120 49 89.5 128.5T59 365q0 156 31.5 237.5T182 713q60 29 161 29 104 0 164-28.5t90-110Q627 522 627 365t-30.5-236.5q-30.5-79.5-90-107T343-6m80 71q85 44 105 108t20 192q0 133-20 198t-62.5 86.5Q423 671 343 671q-76 0-119-21.5T159.5 562Q138 496 138 365q0-129 19-192.5T218.5 87Q261 65 343 65M172 862q56 52 95 52 23 0 41.5-8.5T354 881q21-14 36.5-21t31.5-7q26 0 43 16.5t18 46.5h40q-1-51-26-80t-70-29q-21 0-39.5 8T342 840q-23 14-39 21.5t-32 7.5q-25 0-41.5-16T212 807h-41m247 277h67L360 948h-46"/><glyph glyph-name="ṍ" unicode="ṍ" horiz-adv-x="520" d="M206-6Q106 40 81.5 99.5T57 268q0 110 25 169.5t74 81.5q49 22 132 22 82 0 132-22.5t75-82Q520 377 520 268T495 99.5Q470 40 420.5 17T288-6m55 65q63 29 80 74t17 135q0 90-16.5 134.5t-48.5 59Q343 476 288 476q-56 0-87.5-14.5t-48-59Q136 358 136 268t16.5-135q16.5-45 48-59.5T288 59M124 702q56 52 95 52 23 0 41.5-8.5T306 721q21-14 36.5-21t31.5-7q26 0 43 16.5t18 46.5h40q-1-51-26-80t-70-29q-21 0-39.5 8T294 680q-23 14-39 21.5t-32 7.5q-25 0-41.5-16T164 647h-41m233 273h67L298 784h-46"/><glyph glyph-name="Ṏ" unicode="Ṏ" horiz-adv-x="627" d="M239-6Q120 49 89.5 128.5T59 365q0 156 31.5 237.5T182 713q60 29 161 29 104 0 164-28.5t90-110Q627 522 627 365t-30.5-236.5q-30.5-79.5-90-107T343-6m80 71q85 44 105 108t20 192q0 133-20 198t-62.5 86.5Q423 671 343 671q-76 0-119-21.5T159.5 562Q138 496 138 365q0-129 19-192.5T218.5 87Q261 65 343 65M172 862q56 52 95 52 23 0 41.5-8.5T354 881q21-14 36.5-21t31.5-7q26 0 43 16.5t18 46.5h40q-1-51-26-80t-70-29q-21 0-39.5 8T342 840q-23 14-39 21.5t-32 7.5q-25 0-41.5-16T212 807h-41m28 163q-9 9-9 16v78q0 16 16 16h37q7 0 11.5-4.5t4.5-11.5v-78q0-7-4.5-11.5T243 970h-37m229 0q-9 9-9 16v78q0 16 16 16h37q7 0 11-4.5t4-11.5v-78q0-7-4-11.5t-11-4.5h-37"/><glyph glyph-name="ṏ" unicode="ṏ" horiz-adv-x="520" d="M206-6Q106 40 81.5 99.5T57 268q0 110 25 169.5t74 81.5q49 22 132 22 82 0 132-22.5t75-82Q520 377 520 268T495 99.5Q470 40 420.5 17T288-6m55 65q63 29 80 74t17 135q0 90-16.5 134.5t-48.5 59Q343 476 288 476q-56 0-87.5-14.5t-48-59Q136 358 136 268t16.5-135q16.5-45 48-59.5T288 59M124 702q56 52 95 52 23 0 41.5-8.5T306 721q21-14 36.5-21t31.5-7q26 0 43 16.5t18 46.5h40q-1-51-26-80t-70-29q-21 0-39.5 8T294 680q-23 14-39 21.5t-32 7.5q-25 0-41.5-16T164 647h-41m51 163q-9 9-9 16v78q0 16 16 16h36q16 0 16-16v-78q0-16-16-16h-36m188 0q-9 9-9 16v78q0 16 16 16h36q16 0 16-16v-78q0-16-16-16h-36"/><glyph glyph-name="Ṑ" unicode="Ṑ" horiz-adv-x="627" d="M239-6Q120 49 89.5 128.5T59 365q0 156 31.5 237.5T182 713q60 29 161 29 104 0 164-28.5t90-110Q627 522 627 365t-30.5-236.5q-30.5-79.5-90-107T343-6m80 71q85 44 105 108t20 192q0 133-20 198t-62.5 86.5Q423 671 343 671q-76 0-119-21.5T159.5 562Q138 496 138 365q0-129 19-192.5T218.5 87Q261 65 343 65M204 879h265v-47H204m-14 228h67l104-136h-46"/><glyph glyph-name="ṑ" unicode="ṑ" horiz-adv-x="520" d="M206-6Q106 40 81.5 99.5T57 268q0 110 25 169.5t74 81.5q49 22 132 22 82 0 132-22.5t75-82Q520 377 520 268T495 99.5Q470 40 420.5 17T288-6m55 65q63 29 80 74t17 135q0 90-16.5 134.5t-48.5 59Q343 476 288 476q-56 0-87.5-14.5t-48-59Q136 358 136 268t16.5-135q16.5-45 48-59.5T288 59M153 719h265v-47H153m-1 222h67l104-136h-46"/><glyph glyph-name="Ṓ" unicode="Ṓ" horiz-adv-x="627" d="M239-6Q120 49 89.5 128.5T59 365q0 156 31.5 237.5T182 713q60 29 161 29 104 0 164-28.5t90-110Q627 522 627 365t-30.5-236.5q-30.5-79.5-90-107T343-6m80 71q85 44 105 108t20 192q0 133-20 198t-62.5 86.5Q423 671 343 671q-76 0-119-21.5T159.5 562Q138 496 138 365q0-129 19-192.5T218.5 87Q261 65 343 65M204 879h265v-47H204m221 228h67L367 924h-46"/><glyph glyph-name="ṓ" unicode="ṓ" horiz-adv-x="520" d="M206-6Q106 40 81.5 99.5T57 268q0 110 25 169.5t74 81.5q49 22 132 22 82 0 132-22.5t75-82Q520 377 520 268T495 99.5Q470 40 420.5 17T288-6m55 65q63 29 80 74t17 135q0 90-16.5 134.5t-48.5 59Q343 476 288 476q-56 0-87.5-14.5t-48-59Q136 358 136 268t16.5-135q16.5-45 48-59.5T288 59M153 719h265v-47H153m203 222h67L298 758h-46"/><glyph glyph-name="Ṗ" unicode="Ṗ" horiz-adv-x="562" d="M77 736h293q192 0 192-235 0-138-57.5-190T366 259q-29 0-97 3.5T157 269V0H77m279 330q126 0 126 170 0 164-119 164H157V330m106 490q-9 9-9 16v78q0 16 16 16h37q7 0 11-4.5t4-11.5v-78q0-7-4-11.5t-11-4.5h-37"/><glyph glyph-name="ṗ" unicode="ṗ" horiz-adv-x="521" d="M76 534h64l15-55q32 23 81 42.5t94 19.5q98 0 144.5-77T521 268q0-137-46.5-206T330-7q-43 0-88.5 14T155 44v-281H76M442 60v208q0 105-38 156t-96 51q-42 0-79-12.5T155 430V103q76-43 153-43m-58 600q-9 9-9 16v78q0 16 16 16h37q7 0 11-4.5t4-11.5v-78q0-7-4-11.5t-11-4.5h-37"/><glyph glyph-name="Ṛ" unicode="Ṛ" horiz-adv-x="569" d="M77 736h290q86 0 138.5-46T558 519q0-107-40-151t-100-56L569 0h-81L345 301l-55 1-133 3V0H77m278 366q59 0 91.5 32T479 519q0 84-33 114.5T355 664H157V366m112-576q-9 9-9 16v78q0 16 16 16h37q7 0 11-4.5t4-11.5v-78q0-7-4-11.5t-11-4.5h-37"/><glyph glyph-name="ṛ" unicode="ṛ" horiz-adv-x="388" d="M76 534h60l19-93q39 47 84 73t99 26q27 0 50-5v-81q-45 5-58 5-53 0-91.5-19T155 379V0H76m10-210q-9 9-9 16v78q0 16 16 16h37q7 0 11.5-4.5T146-116v-78q0-7-4.5-11.5T130-210H93"/><glyph glyph-name="Ṟ" unicode="Ṟ" horiz-adv-x="569" d="M77 736h290q86 0 138.5-46T558 519q0-107-40-151t-100-56L569 0h-81L345 301l-55 1-133 3V0H77m278 366q59 0 91.5 32T479 519q0 84-33 114.5T355 664H157V366m2-507h265v-47H159"/><glyph glyph-name="ṟ" unicode="ṟ" horiz-adv-x="388" d="M76 534h60l19-93q39 47 84 73t99 26q27 0 50-5v-81q-45 5-58 5-53 0-91.5-19T155 379V0H76m-97-141h265v-47H-21"/><glyph glyph-name="Ṡ" unicode="Ṡ" horiz-adv-x="519" d="M239-6Q100 5 63 12v61q78-8 220-8 76 0 118 24t42 87v50q0 104-110 104h-79q-95 0-144.5 41.5T60 508v42q0 101 54 146.5T274 742q45 0 108.5-6.5T486 721v-60q-135 9-204 9-74 0-110-26.5T136 547v-34q0-58 30.5-82.5T257 406h85q87 0 132-46.5T519 235v-57q0-103-62.5-143.5T286-6m-30 826q-9 9-9 16v78q0 16 16 16h37q7 0 11-4.5t4-11.5v-78q0-7-4-11.5t-11-4.5h-37"/><glyph glyph-name="ṡ" unicode="ṡ" horiz-adv-x="451" d="M215-6Q79 2 54 8v48h219q56 0 82 15t26 63v24q0 75-97 75h-75q-77 0-118.5 30T49 365v28q0 76 44.5 111T237 539q43 0 101.5-4.5T430 524v-48H224q-54 0-80-18t-26-65v-22q0-43 25.5-57.5T222 299h76q73 0 113-34t40-98v-37q0-76-49-106T260-6m-46 666q-9 9-9 16v78q0 16 16 16h37q7 0 11-4.5t4-11.5v-78q0-7-4-11.5t-11-4.5h-37"/><glyph glyph-name="Ṣ" unicode="Ṣ" horiz-adv-x="519" d="M239-6Q100 5 63 12v61q78-8 220-8 76 0 118 24t42 87v50q0 104-110 104h-79q-95 0-144.5 41.5T60 508v42q0 101 54 146.5T274 742q45 0 108.5-6.5T486 721v-60q-135 9-204 9-74 0-110-26.5T136 547v-34q0-58 30.5-82.5T257 406h85q87 0 132-46.5T519 235v-57q0-103-62.5-143.5T286-6m-29-204q-9 9-9 16v78q0 16 16 16h37q7 0 11-4.5t4-11.5v-78q0-7-4-11.5t-11-4.5h-37"/><glyph glyph-name="ṣ" unicode="ṣ" horiz-adv-x="451" d="M215-6Q79 2 54 8v48h219q56 0 82 15t26 63v24q0 75-97 75h-75q-77 0-118.5 30T49 365v28q0 76 44.5 111T237 539q43 0 101.5-4.5T430 524v-48H224q-54 0-80-18t-26-65v-22q0-43 25.5-57.5T222 299h76q73 0 113-34t40-98v-37q0-76-49-106T260-6m-49-204q-9 9-9 16v78q0 16 16 16h37q7 0 11.5-4.5T271-116v-78q0-7-4.5-11.5T255-210h-37"/><glyph glyph-name="Ṥ" unicode="Ṥ" horiz-adv-x="519" d="M239-6Q100 5 63 12v61q78-8 220-8 76 0 118 24t42 87v50q0 104-110 104h-79q-95 0-144.5 41.5T60 508v42q0 101 54 146.5T274 742q45 0 108.5-6.5T486 721v-60q-135 9-204 9-74 0-110-26.5T136 547v-34q0-58 30.5-82.5T257 406h85q87 0 132-46.5T519 235v-57q0-103-62.5-143.5T286-6m49 933h67L277 791h-46m62 165q-9 9-9 16v78q0 16 16 16h37q7 0 11-4.5t4-11.5v-78q0-7-4-11.5t-11-4.5h-37"/><glyph glyph-name="ṥ" unicode="ṥ" horiz-adv-x="451" d="M215-6Q79 2 54 8v48h219q56 0 82 15t26 63v24q0 75-97 75h-75q-77 0-118.5 30T49 365v28q0 76 44.5 111T237 539q43 0 101.5-4.5T430 524v-48H224q-54 0-80-18t-26-65v-22q0-43 25.5-57.5T222 299h76q73 0 113-34t40-98v-37q0-76-49-106T260-6m15 773h67L217 631h-46m59 165q-9 9-9 16v78q0 16 16 16h37q7 0 11-4.5t4-11.5v-78q0-7-4-11.5t-11-4.5h-37"/><glyph glyph-name="Ṧ" unicode="Ṧ" horiz-adv-x="519" d="M239-6Q100 5 63 12v61q78-8 220-8 76 0 118 24t42 87v50q0 104-110 104h-79q-95 0-144.5 41.5T60 508v42q0 101 54 146.5T274 742q45 0 108.5-6.5T486 721v-60q-135 9-204 9-74 0-110-26.5T136 547v-34q0-58 30.5-82.5T257 406h85q87 0 132-46.5T519 235v-57q0-103-62.5-143.5T286-6M143 926h48l92-97 100 97h48L310 791h-56m2 169q-9 9-9 16v78q0 16 16 16h37q7 0 11-4.5t4-11.5v-78q0-7-4-11.5t-11-4.5h-37"/><glyph glyph-name="ṧ" unicode="ṧ" horiz-adv-x="451" d="M215-6Q79 2 54 8v48h219q56 0 82 15t26 63v24q0 75-97 75h-75q-77 0-118.5 30T49 365v28q0 76 44.5 111T237 539q43 0 101.5-4.5T430 524v-48H224q-54 0-80-18t-26-65v-22q0-43 25.5-57.5T222 299h76q73 0 113-34t40-98v-37q0-76-49-106T260-6M100 766h48l92-97 100 97h48L267 631h-56m3 169q-9 9-9 16v78q0 16 16 16h37q7 0 11-4.5t4-11.5v-78q0-7-4-11.5t-11-4.5h-37"/><glyph glyph-name="Ṩ" unicode="Ṩ" horiz-adv-x="519" d="M239-6Q100 5 63 12v61q78-8 220-8 76 0 118 24t42 87v50q0 104-110 104h-79q-95 0-144.5 41.5T60 508v42q0 101 54 146.5T274 742q45 0 108.5-6.5T486 721v-60q-135 9-204 9-74 0-110-26.5T136 547v-34q0-58 30.5-82.5T257 406h85q87 0 132-46.5T519 235v-57q0-103-62.5-143.5T286-6m-29-204q-9 9-9 16v78q0 16 16 16h37q7 0 11-4.5t4-11.5v-78q0-7-4-11.5t-11-4.5h-37m-8 1030q-9 9-9 16v78q0 16 16 16h37q7 0 11-4.5t4-11.5v-78q0-7-4-11.5t-11-4.5h-37"/><glyph glyph-name="ṩ" unicode="ṩ" horiz-adv-x="451" d="M215-6Q79 2 54 8v48h219q56 0 82 15t26 63v24q0 75-97 75h-75q-77 0-118.5 30T49 365v28q0 76 44.5 111T237 539q43 0 101.5-4.5T430 524v-48H224q-54 0-80-18t-26-65v-22q0-43 25.5-57.5T222 299h76q73 0 113-34t40-98v-37q0-76-49-106T260-6m-49-204q-9 9-9 16v78q0 16 16 16h37q7 0 11.5-4.5T271-116v-78q0-7-4.5-11.5T255-210h-37m-4 870q-9 9-9 16v78q0 16 16 16h37q7 0 11-4.5t4-11.5v-78q0-7-4-11.5t-11-4.5h-37"/><glyph glyph-name="Ṫ" unicode="Ṫ" horiz-adv-x="550" d="M244 664H16v72h534v-72H323V0h-79m12 820q-9 9-9 16v78q0 16 16 16h37q7 0 11-4.5t4-11.5v-78q0-7-4-11.5t-11-4.5h-37"/><glyph glyph-name="ṫ" unicode="ṫ" horiz-adv-x="334" d="M174 0q-74 81-72 173l3 296H20v51l86 14 13 149h61V534h154v-65H180V173q0-61 23-83.5T261 64l65-6V0h-73M126 747q-9 9-9 16v78q0 16 16 16h37q7 0 11-4.5t4-11.5v-78q0-7-4-11.5t-11-4.5h-37"/><glyph glyph-name="Ṭ" unicode="Ṭ" horiz-adv-x="550" d="M244 664H16v72h534v-72H323V0h-79m13-210q-9 9-9 16v78q0 16 16 16h37q7 0 11-4.5t4-11.5v-78q0-7-4-11.5t-11-4.5h-37"/><glyph glyph-name="ṭ" unicode="ṭ" horiz-adv-x="334" d="M174 0q-74 81-72 173l3 296H20v51l86 14 13 149h61V534h154v-65H180V173q0-61 23-83.5T261 64l65-6V0h-73m-89-210q-9 9-9 16v78q0 16 16 16h37q7 0 11.5-4.5T224-116v-78q0-7-4.5-11.5T208-210h-37"/><glyph glyph-name="Ṯ" unicode="Ṯ" horiz-adv-x="550" d="M244 664H16v72h534v-72H323V0h-79m-97-141h265v-47H147"/><glyph glyph-name="ṯ" unicode="ṯ" horiz-adv-x="334" d="M174 0q-74 81-72 173l3 296H20v51l86 14 13 149h61V534h154v-65H180V173q0-61 23-83.5T261 64l65-6V0h-73M57-141h265v-47H57"/><glyph glyph-name="Ṹ" unicode="Ṹ" horiz-adv-x="609" d="M205-6Q67 98 67 228v508h80V228q0-90 47.5-126T338 66q96 0 143.5 36T529 228v508h80V228q0-130-69-182T338-6M163 862q56 52 95 52 23 0 41.5-8.5T345 881q21-14 36.5-21t31.5-7q26 0 43 16.5t18 46.5h40q-1-51-26-80t-70-29q-21 0-39.5 8T333 840q-23 14-39 21.5t-32 7.5q-25 0-41.5-16T203 807h-41m257 270h67L361 941h-46"/><glyph glyph-name="ṹ" unicode="ṹ" horiz-adv-x="515" d="M75-6v540h79V178q0-64 28.5-89T270 64q45 0 84 12.5t82 38.5v419h79V0h-62l-17 59Q334-6 235-6M122 702q56 52 95 52 23 0 41.5-8.5T304 721q21-14 36.5-21t31.5-7q26 0 43 16.5t18 46.5h40q-1-51-26-80t-70-29q-21 0-39.5 8T292 680q-23 14-39 21.5t-32 7.5q-25 0-41.5-16T162 647h-41m234 273h67L297 784h-46"/><glyph glyph-name="Ṻ" unicode="Ṻ" horiz-adv-x="609" d="M205-6Q67 98 67 228v508h80V228q0-90 47.5-126T338 66q96 0 143.5 36T529 228v508h80V228q0-130-69-182T338-6M195 879h265v-47H195m-12 111q-9 9-9 16v78q0 16 16 16h37q7 0 11.5-4.5t4.5-11.5v-78q0-7-4.5-11.5T227 943h-37m229 0q-9 9-9 16v78q0 16 16 16h37q7 0 11-4.5t4-11.5v-78q0-7-4-11.5t-11-4.5h-37"/><glyph glyph-name="ṻ" unicode="ṻ" horiz-adv-x="515" d="M75-6v540h79V178q0-64 28.5-89T270 64q45 0 84 12.5t82 38.5v419h79V0h-62l-17 59Q334-6 235-6m-84 725h265v-47H151m11 114q-9 9-9 16v78q0 16 16 16h36q16 0 16-16v-78q0-16-16-16h-36m188 0q-9 9-9 16v78q0 16 16 16h36q16 0 16-16v-78q0-16-16-16h-36"/><glyph glyph-name="Ẁ" unicode="Ẁ" horiz-adv-x="957" d="M34 736h82l158-627 182 627h80l181-627 158 627h82L768 0h-86L496 625 309 0h-86m140 927h67l104-136h-46"/><glyph glyph-name="ẁ" unicode="ẁ" horiz-adv-x="778" d="M19 534h81L231 74l135 460h69L570 74l127 460h81L617 0h-87L399 428 267 0h-86m93 767h67l104-136h-46"/><glyph glyph-name="Ẃ" unicode="Ẃ" horiz-adv-x="957" d="M34 736h82l158-627 182 627h80l181-627 158 627h82L768 0h-86L496 625 309 0h-86m368 927h67L533 791h-46"/><glyph glyph-name="ẃ" unicode="ẃ" horiz-adv-x="778" d="M19 534h81L231 74l135 460h69L570 74l127 460h81L617 0h-87L399 428 267 0h-86m294 767h67L417 631h-46"/><glyph glyph-name="Ẅ" unicode="Ẅ" horiz-adv-x="957" d="M34 736h82l158-627 182 627h80l181-627 158 627h82L768 0h-86L496 625 309 0h-86m132 813q-9 9-9 16v78q0 16 16 16h37q7 0 11.5-4.5T415 907v-78q0-7-4.5-11.5T399 813h-37m229 0q-9 9-9 16v78q0 16 16 16h37q7 0 11-4.5t4-11.5v-78q0-7-4-11.5t-11-4.5h-37"/><glyph glyph-name="ẅ" unicode="ẅ" horiz-adv-x="778" d="M19 534h81L231 74l135 460h69L570 74l127 460h81L617 0h-87L399 428 267 0h-86m98 653q-9 9-9 16v78q0 16 16 16h36q16 0 16-16v-78q0-16-16-16h-36m188 0q-9 9-9 16v78q0 16 16 16h36q16 0 16-16v-78q0-16-16-16h-36"/><glyph glyph-name="Ẏ" unicode="Ẏ" horiz-adv-x="582" d="M269 244L35 736h83l192-412 192 412h80L349 244V0h-80m15-210q-9 9-9 16v78q0 16 16 16h37q7 0 11-4.5t4-11.5v-78q0-7-4-11.5t-11-4.5h-37"/><glyph glyph-name="ẏ" unicode="ẏ" horiz-adv-x="522" d="M287 0q-45 1-82 29.5T147 125L19 534h83l119-392q25-74 83-74l137 466h81L327-138l-46-99h-62m211 27q-9 9-9 16v78q0 16 16 16h37q7 0 11.5-4.5T490-116v-78q0-7-4.5-11.5T474-210h-37"/><glyph glyph-name="Ẓ" unicode="Ẓ" horiz-adv-x="522" d="M43 65l383 599H43v72h479v-65L139 71h383V0H43m209-210q-9 9-9 16v78q0 16 16 16h37q7 0 11-4.5t4-11.5v-78q0-7-4-11.5t-11-4.5h-37"/><glyph glyph-name="ẓ" unicode="ẓ" horiz-adv-x="451" d="M51 60l308 409H44v65h407v-60L142 65h309V0H51m157-210q-9 9-9 16v78q0 16 16 16h37q7 0 11.5-4.5T268-116v-78q0-7-4.5-11.5T252-210h-37"/><glyph glyph-name="ẗ" unicode="ẗ" horiz-adv-x="334" d="M174 0q-74 81-72 173l3 296H20v51l86 14 13 149h61V534h154v-65H180V173q0-61 23-83.5T261 64l65-6V0h-73M37 740q-9 9-9 16v78q0 16 16 16h36q16 0 16-16v-78q0-16-16-16H44m188 0q-9 9-9 16v78q0 16 16 16h36q16 0 16-16v-78q0-16-16-16h-36"/><glyph glyph-name="ẞ" unicode="ẞ" horiz-adv-x="612" d="M521 395q91-86 91-166v-57q0-99-60-138.5T388-6q-29 0-74.5 4.5T242 8v61q48-3 136-3 73 0 113.5 23.5T532 176v49q0 53-27.5 78.5T416 329H296v66h62l90 222 44 47H257q-48 0-74-25.5T157 563V0H77v562q0 90 50.5 132T255 736q78-1 166.5-3t132.5-3q7-1 21-1l-8-16 8 4-152-272-54-50h65"/><glyph glyph-name="Ạ" unicode="Ạ" horiz-adv-x="640" d="M286 736h102L640 0h-82l-74 210H188L116 0H34m430 282L337 666 208 282m103-492q-9 9-9 16v78q0 16 16 16h37q7 0 11-4.5t4-11.5v-78q0-7-4-11.5t-11-4.5h-37"/><glyph glyph-name="ạ" unicode="ạ" horiz-adv-x="472" d="M120-6Q45 66 45 128v38q0 65 42.5 103T212 307h181v66q0 54-29.5 80T255 479H89v47q94 16 195 16 97 0 142.5-39.5T472 377V0h-61l-15 61q-7-6-43.5-23T269 7.5Q222-6 180-6m62 59q78 20 109.5 31T393 99v168l-163-7q-55-2-80.5-27T124 165v-24q0-46 26.5-67T215 53m26-263q-9 9-9 16v78q0 16 16 16h37q7 0 11.5-4.5T301-116v-78q0-7-4.5-11.5T285-210h-37"/><glyph glyph-name="Ả" unicode="Ả" horiz-adv-x="640" d="M286 736h102L640 0h-82l-74 210H188L116 0H34m430 282L337 666 208 282m107 525q56 17 56 59 0 44-48 44-18 0-36-6v34q18 6 46 6 41 0 61-20.5t20-56.5q0-33-24.5-57.5T315 770"/><glyph glyph-name="ả" unicode="ả" horiz-adv-x="472" d="M120-6Q45 66 45 128v38q0 65 42.5 103T212 307h181v66q0 54-29.5 80T255 479H89v47q94 16 195 16 97 0 142.5-39.5T472 377V0h-61l-15 61q-7-6-43.5-23T269 7.5Q222-6 180-6m62 59q78 20 109.5 31T393 99v168l-163-7q-55-2-80.5-27T124 165v-24q0-46 26.5-67T215 53m37 587q56 17 56 59 0 44-48 44-18 0-36-6v34q18 6 46 6 41 0 61-20.5t20-56.5q0-33-24.5-57.5T252 603"/><glyph glyph-name="Ấ" unicode="Ấ" horiz-adv-x="640" d="M286 736h102L640 0h-82l-74 210H188L116 0H34m430 282L337 666 208 282m368 715L467 868h-46l87 129M368 889l110-98h-48l-92 61-100-61h-48l121 98"/><glyph glyph-name="ấ" unicode="ấ" horiz-adv-x="509" d="M120-6Q45 66 45 128v38q0 65 42.5 103T212 307h181v66q0 54-29.5 80T255 479H89v47q94 16 195 16 97 0 142.5-39.5T472 377V0h-61l-15 61q-7-6-43.5-23T269 7.5Q222-6 180-6m62 59q78 20 109.5 31T393 99v168l-163-7q-55-2-80.5-27T124 165v-24q0-46 26.5-67T215 53m294 784L400 708h-46l87 129M301 729l110-98h-48l-92 61-100-61h-48l121 98"/><glyph glyph-name="Ầ" unicode="Ầ" horiz-adv-x="640" d="M286 736h102L640 0h-82l-74 210H188L116 0H34m430 282L337 666 208 282m-42 715l87-129h-46L98 997m270-108l110-98h-48l-92 61-100-61h-48l121 98"/><glyph glyph-name="ầ" unicode="ầ" horiz-adv-x="472" d="M120-6Q45 66 45 128v38q0 65 42.5 103T212 307h181v66q0 54-29.5 80T255 479H89v47q94 16 195 16 97 0 142.5-39.5T472 377V0h-61l-15 61q-7-6-43.5-23T269 7.5Q222-6 180-6m62 59q78 20 109.5 31T393 99v168l-163-7q-55-2-80.5-27T124 165v-24q0-46 26.5-67T215 53M99 837l87-129h-46L31 837m270-108l110-98h-48l-92 61-100-61h-48l121 98"/><glyph glyph-name="Ẩ" unicode="Ẩ" horiz-adv-x="640" d="M286 736h102L640 0h-82l-74 210H188L116 0H34m430 282L337 666 208 282m236 597q26 8 38 21.5t12 29.5q0 37-42 37-13 0-35-6v30q20 7 45 7 36 0 54-17.5t18-47.5q0-30-22-53.5T444 843m-133 46h57l110-98h-48l-92 61-100-61h-48"/><glyph glyph-name="ẩ" unicode="ẩ" horiz-adv-x="472" d="M120-6Q45 66 45 128v38q0 65 42.5 103T212 307h181v66q0 54-29.5 80T255 479H89v47q94 16 195 16 97 0 142.5-39.5T472 377V0h-61l-15 61q-7-6-43.5-23T269 7.5Q222-6 180-6m62 59q78 20 109.5 31T393 99v168l-163-7q-55-2-80.5-27T124 165v-24q0-46 26.5-67T215 53m162 666q26 8 38 21.5t12 29.5q0 37-42 37-13 0-35-6v30q20 7 45 7 36 0 54-17.5t18-47.5q0-30-22-53.5T377 683m-133 46h57l110-98h-48l-92 61-100-61h-48"/><glyph glyph-name="Ẫ" unicode="Ẫ" horiz-adv-x="640" d="M286 736h102L640 0h-82l-74 210H188L116 0H34m430 282L337 666 208 282m68 737q35-12 60-23 40-19 64-19t39 11.5q15 11.5 15 32.5h40q-3-85-83-85-19 0-36 5.5T333 958q-23 10-38.5 15t-30.5 5q-21 0-34.5-11T216 936h-41q2 45 25 64t57 19m221-228h-48l-92 61-100-61h-48l121 98h57"/><glyph glyph-name="ẫ" unicode="ẫ" horiz-adv-x="472" d="M120-6Q45 66 45 128v38q0 65 42.5 103T212 307h181v66q0 54-29.5 80T255 479H89v47q94 16 195 16 97 0 142.5-39.5T472 377V0h-61l-15 61q-7-6-43.5-23T269 7.5Q222-6 180-6m62 59q78 20 109.5 31T393 99v168l-163-7q-55-2-80.5-27T124 165v-24q0-46 26.5-67T215 53m-6 806q35-12 60-23 40-19 64-19t39 11.5q15 11.5 15 32.5h40q-3-85-83-85-19 0-36 5.5T266 798q-23 10-38.5 15t-30.5 5q-21 0-34.5-11T149 776h-41q2 45 25 64t57 19m221-228h-48l-92 61-100-61h-48l121 98h57"/><glyph glyph-name="Ậ" unicode="Ậ" horiz-adv-x="640" d="M286 736h102L640 0h-82l-74 210H188L116 0H34m430 282L337 666 208 282m104 644h56l110-135h-48l-91 97-100-97h-49M311-210q-9 9-9 16v78q0 16 16 16h37q7 0 11-4.5t4-11.5v-78q0-7-4-11.5t-11-4.5h-37"/><glyph glyph-name="ậ" unicode="ậ" horiz-adv-x="472" d="M120-6Q45 66 45 128v38q0 65 42.5 103T212 307h181v66q0 54-29.5 80T255 479H89v47q94 16 195 16 97 0 142.5-39.5T472 377V0h-61l-15 61q-7-6-43.5-23T269 7.5Q222-6 180-6m62 59q78 20 109.5 31T393 99v168l-163-7q-55-2-80.5-27T124 165v-24q0-46 26.5-67T215 53m30 713h56l110-135h-48l-91 97-100-97h-49m118-841q-9 9-9 16v78q0 16 16 16h37q7 0 11.5-4.5T301-116v-78q0-7-4.5-11.5T285-210h-37"/><glyph glyph-name="Ắ" unicode="Ắ" horiz-adv-x="640" d="M286 736h102L640 0h-82l-74 210H188L116 0H34m430 282L337 666 208 282m198 755h67L348 901h-46m-64-47q50-37 89-37 46 0 71 18t25 59h39q0-60-36-86t-96-26q-58 0-94.5 27T199 894h39"/><glyph glyph-name="ắ" unicode="ắ" horiz-adv-x="472" d="M120-6Q45 66 45 128v38q0 65 42.5 103T212 307h181v66q0 54-29.5 80T255 479H89v47q94 16 195 16 97 0 142.5-39.5T472 377V0h-61l-15 61q-7-6-43.5-23T269 7.5Q222-6 180-6m62 59q78 20 109.5 31T393 99v168l-163-7q-55-2-80.5-27T124 165v-24q0-46 26.5-67T215 53m124 824h67L281 741h-46m-64-47q50-37 89-37 46 0 71 18t25 59h39q0-60-36-86t-96-26q-58 0-94.5 27T132 734h39"/><glyph glyph-name="Ằ" unicode="Ằ" horiz-adv-x="640" d="M286 736h102L640 0h-82l-74 210H188L116 0H34m430 282L337 666 208 282m-10 755h67l104-136h-46m-85-47q50-37 89-37 46 0 71 18t25 59h39q0-60-36-86t-96-26q-58 0-94.5 27T199 894h39"/><glyph glyph-name="ằ" unicode="ằ" horiz-adv-x="472" d="M120-6Q45 66 45 128v38q0 65 42.5 103T212 307h181v66q0 54-29.5 80T255 479H89v47q94 16 195 16 97 0 142.5-39.5T472 377V0h-61l-15 61q-7-6-43.5-23T269 7.5Q222-6 180-6m62 59q78 20 109.5 31T393 99v168l-163-7q-55-2-80.5-27T124 165v-24q0-46 26.5-67T215 53m-84 824h67l104-136h-46m-85-47q50-37 89-37 46 0 71 18t25 59h39q0-60-36-86t-96-26q-58 0-94.5 27T132 734h39"/><glyph glyph-name="Ẳ" unicode="Ẳ" horiz-adv-x="640" d="M286 736h102L640 0h-82l-74 210H188L116 0H34m430 282L337 666 208 282m106 614q56 17 56 59 0 44-48 44-18 0-36-6v34q18 6 46 6 41 0 61-20.5t20-56.5q0-33-24.5-57.5T314 859m-42-77q-73 54-73 112h39q0-40 25-58.5t64-18.5q46 0 71 18t25 59h39q0-60-36-86t-96-26"/><glyph glyph-name="ẳ" unicode="ẳ" horiz-adv-x="472" d="M120-6Q45 66 45 128v38q0 65 42.5 103T212 307h181v66q0 54-29.5 80T255 479H89v47q94 16 195 16 97 0 142.5-39.5T472 377V0h-61l-15 61q-7-6-43.5-23T269 7.5Q222-6 180-6m62 59q78 20 109.5 31T393 99v168l-163-7q-55-2-80.5-27T124 165v-24q0-46 26.5-67T215 53m32 683q56 17 56 59 0 44-48 44-18 0-36-6v34q18 6 46 6 41 0 61-20.5t20-56.5q0-33-24.5-57.5T247 699m-42-77q-73 54-73 112h39q0-40 25-58.5t64-18.5q46 0 71 18t25 59h39q0-60-36-86t-96-26"/><glyph glyph-name="Ẵ" unicode="Ẵ" horiz-adv-x="640" d="M286 736h102L640 0h-82l-74 210H188L116 0H34m430 282L337 666 208 282m68 730q35-12 60-23 40-19 64-19t39 11.5q15 11.5 15 32.5h40q-3-84-83-84-18 0-35.5 5.5T335 952q-22 10-37 15t-30 5q-23 0-37.5-11T216 929h-41q2 45 25 64t57 19m-19-158q50-37 89-37 46 0 71 18t25 59h39q0-60-36-86t-96-26q-58 0-94.5 27T199 894h39"/><glyph glyph-name="ẵ" unicode="ẵ" horiz-adv-x="472" d="M120-6Q45 66 45 128v38q0 65 42.5 103T212 307h181v66q0 54-29.5 80T255 479H89v47q94 16 195 16 97 0 142.5-39.5T472 377V0h-61l-15 61q-7-6-43.5-23T269 7.5Q222-6 180-6m62 59q78 20 109.5 31T393 99v168l-163-7q-55-2-80.5-27T124 165v-24q0-46 26.5-67T215 53m-6 799q35-12 60-23 40-19 64-19t39 11.5q15 11.5 15 32.5h40q-3-84-83-84-18 0-35.5 5.5T268 792q-22 10-37 15t-30 5q-23 0-37.5-11T149 769h-41q2 45 25 64t57 19m-19-158q50-37 89-37 46 0 71 18t25 59h39q0-60-36-86t-96-26q-58 0-94.5 27T132 734h39"/><glyph glyph-name="Ặ" unicode="Ặ" horiz-adv-x="640" d="M286 736h102L640 0h-82l-74 210H188L116 0H34m430 282L337 666 208 282m63 507q-72 68-72 141h39q0-53 24.5-78t64.5-25q96 0 96 103h39q0-75-36-108t-96-33m-19-999q-9 9-9 16v78q0 16 16 16h37q7 0 11-4.5t4-11.5v-78q0-7-4-11.5t-11-4.5h-37"/><glyph glyph-name="ặ" unicode="ặ" horiz-adv-x="472" d="M120-6Q45 66 45 128v38q0 65 42.5 103T212 307h181v66q0 54-29.5 80T255 479H89v47q94 16 195 16 97 0 142.5-39.5T472 377V0h-61l-15 61q-7-6-43.5-23T269 7.5Q222-6 180-6m62 59q78 20 109.5 31T393 99v168l-163-7q-55-2-80.5-27T124 165v-24q0-46 26.5-67T215 53m-11 576q-72 68-72 141h39q0-53 25-78t64-25q96 0 96 103h39q0-75-36-108t-96-33m-22-839q-9 9-9 16v78q0 16 16 16h37q7 0 11.5-4.5T301-116v-78q0-7-4.5-11.5T285-210h-37"/><glyph glyph-name="Ẹ" unicode="Ẹ" horiz-adv-x="530" d="M164-4Q77 55 77 139v449q0 78 42 113t103 35q160-3 249-7l59-2v-64H242q-85 0-85-88V401l329-5v-61l-329-5V157q0-51 24-69t65-18h284V6Q340-4 227-4m67-206q-9 9-9 16v78q0 16 16 16h37q7 0 11-4.5t4-11.5v-78q0-7-4-11.5t-11-4.5h-37"/><glyph glyph-name="ẹ" unicode="ẹ" horiz-adv-x="484" d="M194-6Q99 44 78 103T57 268q0 107 21.5 166t69.5 83q48 24 133 24 73 0 117-16t65-54.5Q484 432 484 364t-39.5-98.5Q405 235 332 235H136q1-69 14-106.5t48-55Q233 56 299 56h172V8q-54-7-96-10.5T280-6m45 293q46 0 67 17t21 59q0 67-29.5 92.5T281 481q-58 0-89-17t-44-58q-13-41-13-119m106-497q-9 9-9 16v78q0 16 16 16h37q7 0 11.5-4.5T301-116v-78q0-7-4.5-11.5T285-210h-37"/><glyph glyph-name="Ẻ" unicode="Ẻ" horiz-adv-x="530" d="M164-4Q77 55 77 139v449q0 78 42 113t103 35q160-3 249-7l59-2v-64H242q-85 0-85-88V401l329-5v-61l-329-5V157q0-51 24-69t65-18h284V6Q340-4 227-4m62 811q56 17 56 59 0 44-48 44-18 0-36-6v34q18 6 46 6 41 0 61-20.5t20-56.5q0-33-24.5-57.5T289 770"/><glyph glyph-name="ẻ" unicode="ẻ" horiz-adv-x="484" d="M194-6Q99 44 78 103T57 268q0 107 21.5 166t69.5 83q48 24 133 24 73 0 117-16t65-54.5Q484 432 484 364t-39.5-98.5Q405 235 332 235H136q1-69 14-106.5t48-55Q233 56 299 56h172V8q-54-7-96-10.5T280-6m45 293q46 0 67 17t21 59q0 67-29.5 92.5T281 481q-58 0-89-17t-44-58q-13-41-13-119m117 353q56 17 56 59 0 44-48 44-18 0-36-6v34q18 6 46 6 41 0 61-20.5t20-56.5q0-33-24.5-57.5T252 603"/><glyph glyph-name="Ẽ" unicode="Ẽ" horiz-adv-x="530" d="M164-4Q77 55 77 139v449q0 78 42 113t103 35q160-3 249-7l59-2v-64H242q-85 0-85-88V401l329-5v-61l-329-5V157q0-51 24-69t65-18h284V6Q340-4 227-4m-86 866q56 52 95 52 23 0 41.5-8.5T323 881q21-14 36.5-21t31.5-7q26 0 43 16.5t18 46.5h40q-1-51-26-80t-70-29q-21 0-39.5 8T311 840q-23 14-39 21.5t-32 7.5q-25 0-41.5-16T181 807h-41"/><glyph glyph-name="ẽ" unicode="ẽ" horiz-adv-x="484" d="M194-6Q99 44 78 103T57 268q0 107 21.5 166t69.5 83q48 24 133 24 73 0 117-16t65-54.5Q484 432 484 364t-39.5-98.5Q405 235 332 235H136q1-69 14-106.5t48-55Q233 56 299 56h172V8q-54-7-96-10.5T280-6m45 293q46 0 67 17t21 59q0 67-29.5 92.5T281 481q-58 0-89-17t-44-58q-13-41-13-119m-28 415q56 52 95 52 23 0 41.5-8.5T289 721q21-14 36.5-21t31.5-7q26 0 43 16.5t18 46.5h40q-1-51-26-80t-70-29q-21 0-39.5 8T277 680q-23 14-39 21.5t-32 7.5q-25 0-41.5-16T147 647h-41"/><glyph glyph-name="Ế" unicode="Ế" horiz-adv-x="550" d="M164-4Q77 55 77 139v449q0 78 42 113t103 35q160-3 249-7l59-2v-64H242q-85 0-85-88V401l329-5v-61l-329-5V157q0-51 24-69t65-18h284V6Q340-4 227-4M550 997L441 868h-46l87 129M342 889l110-98h-48l-92 61-100-61h-48l121 98"/><glyph glyph-name="ế" unicode="ế" horiz-adv-x="509" d="M194-6Q99 44 78 103T57 268q0 107 21.5 166t69.5 83q48 24 133 24 73 0 117-16t65-54.5Q484 432 484 364t-39.5-98.5Q405 235 332 235H136q1-69 14-106.5t48-55Q233 56 299 56h172V8q-54-7-96-10.5T280-6m45 293q46 0 67 17t21 59q0 67-29.5 92.5T281 481q-58 0-89-17t-44-58q-13-41-13-119m374 550L400 708h-46l87 129M301 729l110-98h-48l-92 61-100-61h-48l121 98"/><glyph glyph-name="Ề" unicode="Ề" horiz-adv-x="530" d="M164-4Q77 55 77 139v449q0 78 42 113t103 35q160-3 249-7l59-2v-64H242q-85 0-85-88V401l329-5v-61l-329-5V157q0-51 24-69t65-18h284V6Q340-4 227-4M140 997l87-129h-46L72 997m270-108l110-98h-48l-92 61-100-61h-48l121 98"/><glyph glyph-name="ề" unicode="ề" horiz-adv-x="484" d="M194-6Q99 44 78 103T57 268q0 107 21.5 166t69.5 83q48 24 133 24 73 0 117-16t65-54.5Q484 432 484 364t-39.5-98.5Q405 235 332 235H136q1-69 14-106.5t48-55Q233 56 299 56h172V8q-54-7-96-10.5T280-6m45 293q46 0 67 17t21 59q0 67-29.5 92.5T281 481q-58 0-89-17t-44-58q-13-41-13-119M99 837l87-129h-46L31 837m270-108l110-98h-48l-92 61-100-61h-48l121 98"/><glyph glyph-name="Ể" unicode="Ể" horiz-adv-x="530" d="M164-4Q77 55 77 139v449q0 78 42 113t103 35q160-3 249-7l59-2v-64H242q-85 0-85-88V401l329-5v-61l-329-5V157q0-51 24-69t65-18h284V6Q340-4 227-4m191 883q26 8 38 21.5t12 29.5q0 37-42 37-13 0-35-6v30q20 7 45 7 36 0 54-17.5t18-47.5q0-30-22-53.5T418 843m-133 46h57l110-98h-48l-92 61-100-61h-48"/><glyph glyph-name="ể" unicode="ể" horiz-adv-x="484" d="M194-6Q99 44 78 103T57 268q0 107 21.5 166t69.5 83q48 24 133 24 73 0 117-16t65-54.5Q484 432 484 364t-39.5-98.5Q405 235 332 235H136q1-69 14-106.5t48-55Q233 56 299 56h172V8q-54-7-96-10.5T280-6m45 293q46 0 67 17t21 59q0 67-29.5 92.5T281 481q-58 0-89-17t-44-58q-13-41-13-119m242 432q26 8 38 21.5t12 29.5q0 37-42 37-13 0-35-6v30q20 7 45 7 36 0 54-17.5t18-47.5q0-30-22-53.5T377 683m-133 46h57l110-98h-48l-92 61-100-61h-48"/><glyph glyph-name="Ễ" unicode="Ễ" horiz-adv-x="530" d="M164-4Q77 55 77 139v449q0 78 42 113t103 35q160-3 249-7l59-2v-64H242q-85 0-85-88V401l329-5v-61l-329-5V157q0-51 24-69t65-18h284V6Q340-4 227-4m23 1023q35-12 60-23 40-19 64-19t39 11.5q15 11.5 15 32.5h40q-3-85-83-85-19 0-36 5.5T307 958q-23 10-38.5 15t-30.5 5q-21 0-34.5-11T190 936h-41q2 45 25 64t57 19m221-228h-48l-92 61-100-61h-48l121 98h57"/><glyph glyph-name="ễ" unicode="ễ" horiz-adv-x="484" d="M194-6Q99 44 78 103T57 268q0 107 21.5 166t69.5 83q48 24 133 24 73 0 117-16t65-54.5Q484 432 484 364t-39.5-98.5Q405 235 332 235H136q1-69 14-106.5t48-55Q233 56 299 56h172V8q-54-7-96-10.5T280-6m45 293q46 0 67 17t21 59q0 67-29.5 92.5T281 481q-58 0-89-17t-44-58q-13-41-13-119m74 572q35-12 60-23 40-19 64-19t39 11.5q15 11.5 15 32.5h40q-3-85-83-85-19 0-36 5.5T266 798q-23 10-38.5 15t-30.5 5q-21 0-34.5-11T149 776h-41q2 45 25 64t57 19m221-228h-48l-92 61-100-61h-48l121 98h57"/><glyph glyph-name="Ệ" unicode="Ệ" horiz-adv-x="530" d="M164-4Q77 55 77 139v449q0 78 42 113t103 35q160-3 249-7l59-2v-64H242q-85 0-85-88V401l329-5v-61l-329-5V157q0-51 24-69t65-18h284V6Q340-4 227-4m59 930h56l110-135h-48l-91 97-100-97h-49M294-210q-9 9-9 16v78q0 16 16 16h37q7 0 11-4.5t4-11.5v-78q0-7-4-11.5t-11-4.5h-37"/><glyph glyph-name="ệ" unicode="ệ" horiz-adv-x="484" d="M194-6Q99 44 78 103T57 268q0 107 21.5 166t69.5 83q48 24 133 24 73 0 117-16t65-54.5Q484 432 484 364t-39.5-98.5Q405 235 332 235H136q1-69 14-106.5t48-55Q233 56 299 56h172V8q-54-7-96-10.5T280-6m45 293q46 0 67 17t21 59q0 67-29.5 92.5T281 481q-58 0-89-17t-44-58q-13-41-13-119m110 479h56l110-135h-48l-91 97-100-97h-49m118-841q-9 9-9 16v78q0 16 16 16h37q7 0 11.5-4.5T301-116v-78q0-7-4.5-11.5T285-210h-37"/><glyph glyph-name="Ỉ" unicode="Ỉ" horiz-adv-x="194" d="M77 736h80V0H77m18 807q56 17 56 59 0 44-48 44-18 0-36-6v34q18 6 46 6 41 0 61-20.5t20-56.5q0-33-24.5-57.5T95 770"/><glyph glyph-name="ỉ" unicode="ỉ" horiz-adv-x="196" d="M76 534h79V0H76m21 640q56 17 56 59 0 44-48 44-18 0-36-6v34q18 6 46 6 41 0 61-20.5t20-56.5q0-33-24.5-57.5T97 603"/><glyph glyph-name="Ị" unicode="Ị" horiz-adv-x="157" d="M77 736h80V0H77m14-210q-9 9-9 16v78q0 16 16 16h37q7 0 11-4.5t4-11.5v-78q0-7-4-11.5t-11-4.5H98"/><glyph glyph-name="ị" unicode="ị" horiz-adv-x="159" d="M81 629q-9 9-9 16v78q0 16 16 16h56q15 0 15-16v-78q0-16-15-16H88m-12-95h79V0H76m10-210q-9 9-9 16v78q0 16 16 16h37q7 0 11.5-4.5T146-116v-78q0-7-4.5-11.5T130-210H93"/><glyph glyph-name="Ọ" unicode="Ọ" horiz-adv-x="627" d="M239-6Q120 49 89.5 128.5T59 365q0 156 31.5 237.5T182 713q60 29 161 29 104 0 164-28.5t90-110Q627 522 627 365t-30.5-236.5q-30.5-79.5-90-107T343-6m80 71q85 44 105 108t20 192q0 133-20 198t-62.5 86.5Q423 671 343 671q-76 0-119-21.5T159.5 562Q138 496 138 365q0-129 19-192.5T218.5 87Q261 65 343 65m-26-275q-9 9-9 16v78q0 16 16 16h37q7 0 11-4.5t4-11.5v-78q0-7-4-11.5t-11-4.5h-37"/><glyph glyph-name="ọ" unicode="ọ" horiz-adv-x="520" d="M206-6Q106 40 81.5 99.5T57 268q0 110 25 169.5t74 81.5q49 22 132 22 82 0 132-22.5t75-82Q520 377 520 268T495 99.5Q470 40 420.5 17T288-6m55 65q63 29 80 74t17 135q0 90-16.5 134.5t-48.5 59Q343 476 288 476q-56 0-87.5-14.5t-48-59Q136 358 136 268t16.5-135q16.5-45 48-59.5T288 59m-29-269q-9 9-9 16v78q0 16 16 16h37q7 0 11.5-4.5T319-116v-78q0-7-4.5-11.5T303-210h-37"/><glyph glyph-name="Ỏ" unicode="Ỏ" horiz-adv-x="627" d="M239-6Q120 49 89.5 128.5T59 365q0 156 31.5 237.5T182 713q60 29 161 29 104 0 164-28.5t90-110Q627 522 627 365t-30.5-236.5q-30.5-79.5-90-107T343-6m80 71q85 44 105 108t20 192q0 133-20 198t-62.5 86.5Q423 671 343 671q-76 0-119-21.5T159.5 562Q138 496 138 365q0-129 19-192.5T218.5 87Q261 65 343 65m-22 742q56 17 56 59 0 44-48 44-18 0-36-6v34q18 6 46 6 41 0 61-20.5t20-56.5q0-33-24.5-57.5T321 770"/><glyph glyph-name="ỏ" unicode="ỏ" horiz-adv-x="520" d="M206-6Q106 40 81.5 99.5T57 268q0 110 25 169.5t74 81.5q49 22 132 22 82 0 132-22.5t75-82Q520 377 520 268T495 99.5Q470 40 420.5 17T288-6m55 65q63 29 80 74t17 135q0 90-16.5 134.5t-48.5 59Q343 476 288 476q-56 0-87.5-14.5t-48-59Q136 358 136 268t16.5-135q16.5-45 48-59.5T288 59m-18 581q56 17 56 59 0 44-48 44-18 0-36-6v34q18 6 46 6 41 0 61-20.5t20-56.5q0-33-24.5-57.5T270 603"/><glyph glyph-name="Ố" unicode="Ố" horiz-adv-x="627" d="M239-6Q120 49 89.5 128.5T59 365q0 156 31.5 237.5T182 713q60 29 161 29 104 0 164-28.5t90-110Q627 522 627 365t-30.5-236.5q-30.5-79.5-90-107T343-6m80 71q85 44 105 108t20 192q0 133-20 198t-62.5 86.5Q423 671 343 671q-76 0-119-21.5T159.5 562Q138 496 138 365q0-129 19-192.5T218.5 87Q261 65 343 65m239 932L473 868h-46l87 129M374 889l110-98h-48l-92 61-100-61h-48l121 98"/><glyph glyph-name="ố" unicode="ố" horiz-adv-x="527" d="M206-6Q106 40 81.5 99.5T57 268q0 110 25 169.5t74 81.5q49 22 132 22 82 0 132-22.5t75-82Q520 377 520 268T495 99.5Q470 40 420.5 17T288-6m55 65q63 29 80 74t17 135q0 90-16.5 134.5t-48.5 59Q343 476 288 476q-56 0-87.5-14.5t-48-59Q136 358 136 268t16.5-135q16.5-45 48-59.5T288 59m239 778L418 708h-46l87 129M319 729l110-98h-48l-92 61-100-61h-48l121 98"/><glyph glyph-name="Ồ" unicode="Ồ" horiz-adv-x="627" d="M239-6Q120 49 89.5 128.5T59 365q0 156 31.5 237.5T182 713q60 29 161 29 104 0 164-28.5t90-110Q627 522 627 365t-30.5-236.5q-30.5-79.5-90-107T343-6m80 71q85 44 105 108t20 192q0 133-20 198t-62.5 86.5Q423 671 343 671q-76 0-119-21.5T159.5 562Q138 496 138 365q0-129 19-192.5T218.5 87Q261 65 343 65M172 997l87-129h-46L104 997m270-108l110-98h-48l-92 61-100-61h-48l121 98"/><glyph glyph-name="ồ" unicode="ồ" horiz-adv-x="520" d="M206-6Q106 40 81.5 99.5T57 268q0 110 25 169.5t74 81.5q49 22 132 22 82 0 132-22.5t75-82Q520 377 520 268T495 99.5Q470 40 420.5 17T288-6m55 65q63 29 80 74t17 135q0 90-16.5 134.5t-48.5 59Q343 476 288 476q-56 0-87.5-14.5t-48-59Q136 358 136 268t16.5-135q16.5-45 48-59.5T288 59M117 837l87-129h-46L49 837m270-108l110-98h-48l-92 61-100-61h-48l121 98"/><glyph glyph-name="Ổ" unicode="Ổ" horiz-adv-x="627" d="M239-6Q120 49 89.5 128.5T59 365q0 156 31.5 237.5T182 713q60 29 161 29 104 0 164-28.5t90-110Q627 522 627 365t-30.5-236.5q-30.5-79.5-90-107T343-6m80 71q85 44 105 108t20 192q0 133-20 198t-62.5 86.5Q423 671 343 671q-76 0-119-21.5T159.5 562Q138 496 138 365q0-129 19-192.5T218.5 87Q261 65 343 65m107 814q26 8 38 21.5t12 29.5q0 37-42 37-13 0-35-6v30q20 7 45 7 36 0 54-17.5t18-47.5q0-30-22-53.5T450 843m-133 46h57l110-98h-48l-92 61-100-61h-48"/><glyph glyph-name="ổ" unicode="ổ" horiz-adv-x="520" d="M206-6Q106 40 81.5 99.5T57 268q0 110 25 169.5t74 81.5q49 22 132 22 82 0 132-22.5t75-82Q520 377 520 268T495 99.5Q470 40 420.5 17T288-6m55 65q63 29 80 74t17 135q0 90-16.5 134.5t-48.5 59Q343 476 288 476q-56 0-87.5-14.5t-48-59Q136 358 136 268t16.5-135q16.5-45 48-59.5T288 59m107 660q26 8 38 21.5t12 29.5q0 37-42 37-13 0-35-6v30q20 7 45 7 36 0 54-17.5t18-47.5q0-30-22-53.5T395 683m-133 46h57l110-98h-48l-92 61-100-61h-48"/><glyph glyph-name="Ỗ" unicode="Ỗ" horiz-adv-x="627" d="M239-6Q120 49 89.5 128.5T59 365q0 156 31.5 237.5T182 713q60 29 161 29 104 0 164-28.5t90-110Q627 522 627 365t-30.5-236.5q-30.5-79.5-90-107T343-6m80 71q85 44 105 108t20 192q0 133-20 198t-62.5 86.5Q423 671 343 671q-76 0-119-21.5T159.5 562Q138 496 138 365q0-129 19-192.5T218.5 87Q261 65 343 65m-61 954q35-12 60-23 40-19 64-19t39 11.5q15 11.5 15 32.5h40q-3-85-83-85-19 0-36 5.5T339 958q-23 10-38.5 15t-30.5 5q-21 0-34.5-11T222 936h-41q2 45 25 64t57 19m221-228h-48l-92 61-100-61h-48l121 98h57"/><glyph glyph-name="ỗ" unicode="ỗ" horiz-adv-x="520" d="M206-6Q106 40 81.5 99.5T57 268q0 110 25 169.5t74 81.5q49 22 132 22 82 0 132-22.5t75-82Q520 377 520 268T495 99.5Q470 40 420.5 17T288-6m55 65q63 29 80 74t17 135q0 90-16.5 134.5t-48.5 59Q343 476 288 476q-56 0-87.5-14.5t-48-59Q136 358 136 268t16.5-135q16.5-45 48-59.5T288 59m-61 800q35-12 60-23 40-19 64-19t39 11.5q15 11.5 15 32.5h40q-3-85-83-85-19 0-36 5.5T284 798q-23 10-38.5 15t-30.5 5q-21 0-34.5-11T167 776h-41q2 45 25 64t57 19m221-228h-48l-92 61-100-61h-48l121 98h57"/><glyph glyph-name="Ộ" unicode="Ộ" horiz-adv-x="627" d="M239-6Q120 49 89.5 128.5T59 365q0 156 31.5 237.5T182 713q60 29 161 29 104 0 164-28.5t90-110Q627 522 627 365t-30.5-236.5q-30.5-79.5-90-107T343-6m80 71q85 44 105 108t20 192q0 133-20 198t-62.5 86.5Q423 671 343 671q-76 0-119-21.5T159.5 562Q138 496 138 365q0-129 19-192.5T218.5 87Q261 65 343 65m-25 861h56l110-135h-48l-91 97-100-97h-49M317-210q-9 9-9 16v78q0 16 16 16h37q7 0 11-4.5t4-11.5v-78q0-7-4-11.5t-11-4.5h-37"/><glyph glyph-name="ộ" unicode="ộ" horiz-adv-x="520" d="M206-6Q106 40 81.5 99.5T57 268q0 110 25 169.5t74 81.5q49 22 132 22 82 0 132-22.5t75-82Q520 377 520 268T495 99.5Q470 40 420.5 17T288-6m55 65q63 29 80 74t17 135q0 90-16.5 134.5t-48.5 59Q343 476 288 476q-56 0-87.5-14.5t-48-59Q136 358 136 268t16.5-135q16.5-45 48-59.5T288 59m-25 707h56l110-135h-48l-91 97-100-97h-49m118-841q-9 9-9 16v78q0 16 16 16h37q7 0 11.5-4.5T319-116v-78q0-7-4.5-11.5T303-210h-37"/><glyph glyph-name="Ớ" unicode="Ớ" horiz-adv-x="640" d="M584 655q43-156 43-290 0-157-30.5-236.5t-90-107Q447-6 343-6T179.5 21.5q-59.5 27.5-90 107T59 365q0 156 31.5 237.5T182 713q60 29 161 29 50 0 90-6h71q38 0 58.5 26t20.5 87h57q0-73-28-111.5T538 693M423 65q85 44 105 108t20 192q0 133-20 198t-62.5 86.5Q423 671 343 671q-76 0-119-21.5T159.5 562Q138 496 138 365q0-129 19-192.5T218.5 87Q261 65 343 65m73 862h67L358 791h-46"/><glyph glyph-name="ớ" unicode="ớ" horiz-adv-x="551" d="M489 462q31-109 31-194 0-109-25-168.5T420.5 17Q371-6 288-6q-82 0-132 23T81.5 99.5Q57 159 57 268q0 110 25 169.5t74 81.5q49 22 132 22 49 0 84-7h43q38 0 58.5 26t20.5 87h57q0-70-25-107.5T458 492M343 59q63 29 80 74t17 135q0 90-16.5 134.5t-48.5 59Q343 476 288 476q-56 0-87.5-14.5t-48-59Q136 358 136 268t16.5-135q16.5-45 48-59.5T288 59m79 708h67L309 631h-46"/><glyph glyph-name="Ờ" unicode="Ờ" horiz-adv-x="640" d="M584 655q43-156 43-290 0-157-30.5-236.5t-90-107Q447-6 343-6T179.5 21.5q-59.5 27.5-90 107T59 365q0 156 31.5 237.5T182 713q60 29 161 29 50 0 90-6h71q38 0 58.5 26t20.5 87h57q0-73-28-111.5T538 693M423 65q85 44 105 108t20 192q0 133-20 198t-62.5 86.5Q423 671 343 671q-76 0-119-21.5T159.5 562Q138 496 138 365q0-129 19-192.5T218.5 87Q261 65 343 65M185 927h67l104-136h-46"/><glyph glyph-name="ờ" unicode="ờ" horiz-adv-x="551" d="M489 462q31-109 31-194 0-109-25-168.5T420.5 17Q371-6 288-6q-82 0-132 23T81.5 99.5Q57 159 57 268q0 110 25 169.5t74 81.5q49 22 132 22 49 0 84-7h43q38 0 58.5 26t20.5 87h57q0-70-25-107.5T458 492M343 59q63 29 80 74t17 135q0 90-16.5 134.5t-48.5 59Q343 476 288 476q-56 0-87.5-14.5t-48-59Q136 358 136 268t16.5-135q16.5-45 48-59.5T288 59M152 767h67l104-136h-46"/><glyph glyph-name="Ở" unicode="Ở" horiz-adv-x="640" d="M584 655q43-156 43-290 0-157-30.5-236.5t-90-107Q447-6 343-6T179.5 21.5q-59.5 27.5-90 107T59 365q0 156 31.5 237.5T182 713q60 29 161 29 50 0 90-6h71q38 0 58.5 26t20.5 87h57q0-73-28-111.5T538 693M423 65q85 44 105 108t20 192q0 133-20 198t-62.5 86.5Q423 671 343 671q-76 0-119-21.5T159.5 562Q138 496 138 365q0-129 19-192.5T218.5 87Q261 65 343 65m-22 742q56 17 56 59 0 44-48 44-18 0-36-6v34q18 6 46 6 41 0 61-20.5t20-56.5q0-33-24.5-57.5T321 770"/><glyph glyph-name="ở" unicode="ở" horiz-adv-x="551" d="M489 462q31-109 31-194 0-109-25-168.5T420.5 17Q371-6 288-6q-82 0-132 23T81.5 99.5Q57 159 57 268q0 110 25 169.5t74 81.5q49 22 132 22 49 0 84-7h43q38 0 58.5 26t20.5 87h57q0-70-25-107.5T458 492M343 59q63 29 80 74t17 135q0 90-16.5 134.5t-48.5 59Q343 476 288 476q-56 0-87.5-14.5t-48-59Q136 358 136 268t16.5-135q16.5-45 48-59.5T288 59m-16 581q56 17 56 59 0 44-48 44-18 0-36-6v34q18 6 46 6 41 0 61-20.5t20-56.5q0-33-24.5-57.5T272 603"/><glyph glyph-name="Ỡ" unicode="Ỡ" horiz-adv-x="640" d="M584 655q43-156 43-290 0-157-30.5-236.5t-90-107Q447-6 343-6T179.5 21.5q-59.5 27.5-90 107T59 365q0 156 31.5 237.5T182 713q60 29 161 29 50 0 90-6h71q38 0 58.5 26t20.5 87h57q0-73-28-111.5T538 693M423 65q85 44 105 108t20 192q0 133-20 198t-62.5 86.5Q423 671 343 671q-76 0-119-21.5T159.5 562Q138 496 138 365q0-129 19-192.5T218.5 87Q261 65 343 65M167 862q56 52 95 52 23 0 41.5-8.5T349 881q21-14 36.5-21t31.5-7q26 0 43 16.5t18 46.5h40q-1-51-26-80t-70-29q-21 0-39.5 8T337 840q-23 14-39 21.5t-32 7.5q-25 0-41.5-16T207 807h-41"/><glyph glyph-name="ỡ" unicode="ỡ" horiz-adv-x="551" d="M489 462q31-109 31-194 0-109-25-168.5T420.5 17Q371-6 288-6q-82 0-132 23T81.5 99.5Q57 159 57 268q0 110 25 169.5t74 81.5q49 22 132 22 49 0 84-7h43q38 0 58.5 26t20.5 87h57q0-70-25-107.5T458 492M343 59q63 29 80 74t17 135q0 90-16.5 134.5t-48.5 59Q343 476 288 476q-56 0-87.5-14.5t-48-59Q136 358 136 268t16.5-135q16.5-45 48-59.5T288 59M107 702q56 52 95 52 23 0 41.5-8.5T289 721q21-14 36.5-21t31.5-7q26 0 43 16.5t18 46.5h40q-1-51-26-80t-70-29q-21 0-39.5 8T277 680q-23 14-39 21.5t-32 7.5q-25 0-41.5-16T147 647h-41"/><glyph glyph-name="Ợ" unicode="Ợ" horiz-adv-x="640" d="M584 655q43-156 43-290 0-157-30.5-236.5t-90-107Q447-6 343-6T179.5 21.5q-59.5 27.5-90 107T59 365q0 156 31.5 237.5T182 713q60 29 161 29 50 0 90-6h71q38 0 58.5 26t20.5 87h57q0-73-28-111.5T538 693M423 65q85 44 105 108t20 192q0 133-20 198t-62.5 86.5Q423 671 343 671q-76 0-119-21.5T159.5 562Q138 496 138 365q0-129 19-192.5T218.5 87Q261 65 343 65m-26-275q-9 9-9 16v78q0 16 16 16h37q7 0 11-4.5t4-11.5v-78q0-7-4-11.5t-11-4.5h-37"/><glyph glyph-name="ợ" unicode="ợ" horiz-adv-x="551" d="M489 462q31-109 31-194 0-109-25-168.5T420.5 17Q371-6 288-6q-82 0-132 23T81.5 99.5Q57 159 57 268q0 110 25 169.5t74 81.5q49 22 132 22 49 0 84-7h43q38 0 58.5 26t20.5 87h57q0-70-25-107.5T458 492M343 59q63 29 80 74t17 135q0 90-16.5 134.5t-48.5 59Q343 476 288 476q-56 0-87.5-14.5t-48-59Q136 358 136 268t16.5-135q16.5-45 48-59.5T288 59m-19-269q-9 9-9 16v78q0 16 16 16h37q7 0 11.5-4.5T329-116v-78q0-7-4.5-11.5T313-210h-37"/><glyph glyph-name="Ụ" unicode="Ụ" horiz-adv-x="609" d="M205-6Q67 98 67 228v508h80V228q0-90 47.5-126T338 66q96 0 143.5 36T529 228v508h80V228q0-130-69-182T338-6m-30-204q-9 9-9 16v78q0 16 16 16h37q7 0 11-4.5t4-11.5v-78q0-7-4-11.5t-11-4.5h-37"/><glyph glyph-name="ụ" unicode="ụ" horiz-adv-x="515" d="M75-6v540h79V178q0-64 28.5-89T270 64q45 0 84 12.5t82 38.5v419h79V0h-62l-17 59Q334-6 235-6m22-204q-9 9-9 16v78q0 16 16 16h37q7 0 11.5-4.5T317-116v-78q0-7-4.5-11.5T301-210h-37"/><glyph glyph-name="Ủ" unicode="Ủ" horiz-adv-x="609" d="M205-6Q67 98 67 228v508h80V228q0-90 47.5-126T338 66q96 0 143.5 36T529 228v508h80V228q0-130-69-182T338-6m-26 813q56 17 56 59 0 44-48 44-18 0-36-6v34q18 6 46 6 41 0 61-20.5t20-56.5q0-33-24.5-57.5T312 770"/><glyph glyph-name="ủ" unicode="ủ" horiz-adv-x="515" d="M75-6v540h79V178q0-64 28.5-89T270 64q45 0 84 12.5t82 38.5v419h79V0h-62l-17 59Q334-6 235-6m33 646q56 17 56 59 0 44-48 44-18 0-36-6v34q18 6 46 6 41 0 61-20.5t20-56.5q0-33-24.5-57.5T268 603"/><glyph glyph-name="Ứ" unicode="Ứ" horiz-adv-x="705" d="M705 779q-52-76-96-85V228q0-130-69-182T338-6Q205-6 136 46T67 228v508h80V228q0-90 47.5-126T338 66q96 0 143.5 36T529 228v508h40q38 0 58.5 26t20.5 87h57m-296 78h67L351 791h-46"/><glyph glyph-name="ứ" unicode="ứ" horiz-adv-x="610" d="M610 578q-52-76-95-86V0h-62l-17 59Q334-6 235-6 75-6 75 158v376h79V178q0-64 28.5-89T270 64q45 0 84 12.5t82 38.5v419h37q38 0 58.5 26t20.5 87h58M367 767h67L309 631h-46"/><glyph glyph-name="Ừ" unicode="Ừ" horiz-adv-x="705" d="M705 779q-52-76-96-85V228q0-130-69-182T338-6Q205-6 136 46T67 228v508h80V228q0-90 47.5-126T338 66q96 0 143.5 36T529 228v508h40q38 0 58.5 26t20.5 87h57m-510 78h67l104-136h-46"/><glyph glyph-name="ừ" unicode="ừ" horiz-adv-x="610" d="M610 578q-52-76-95-86V0h-62l-17 59Q334-6 235-6 75-6 75 158v376h79V178q0-64 28.5-89T270 64q45 0 84 12.5t82 38.5v419h37q38 0 58.5 26t20.5 87h58M162 767h67l104-136h-46"/><glyph glyph-name="Ử" unicode="Ử" horiz-adv-x="705" d="M705 779q-52-76-96-85V228q0-130-69-182T338-6Q205-6 136 46T67 228v508h80V228q0-90 47.5-126T338 66q96 0 143.5 36T529 228v508h40q38 0 58.5 26t20.5 87h57m-388-42q56 17 56 59 0 44-48 44-18 0-36-6v34q18 6 46 6 41 0 61-20.5t20-56.5q0-33-24.5-57.5T317 770"/><glyph glyph-name="ử" unicode="ử" horiz-adv-x="610" d="M610 578q-52-76-95-86V0h-62l-17 59Q334-6 235-6 75-6 75 158v376h79V178q0-64 28.5-89T270 64q45 0 84 12.5t82 38.5v419h37q38 0 58.5 26t20.5 87h58m-335-7q56 17 56 59 0 44-48 44-18 0-36-6v34q18 6 46 6 41 0 61-20.5t20-56.5q0-33-24.5-57.5T275 603"/><glyph glyph-name="Ữ" unicode="Ữ" horiz-adv-x="705" d="M705 779q-52-76-96-85V228q0-130-69-182T338-6Q205-6 136 46T67 228v508h80V228q0-90 47.5-126T338 66q96 0 143.5 36T529 228v508h40q38 0 58.5 26t20.5 87h57m-535 13q56 52 95 52 23 0 41.5-8.5T352 881q21-14 36.5-21t31.5-7q26 0 43 16.5t18 46.5h40q-1-51-26-80t-70-29q-21 0-39.5 8T340 840q-23 14-39 21.5t-32 7.5q-25 0-41.5-16T210 807h-41"/><glyph glyph-name="ữ" unicode="ữ" horiz-adv-x="610" d="M610 578q-52-76-95-86V0h-62l-17 59Q334-6 235-6 75-6 75 158v376h79V178q0-64 28.5-89T270 64q45 0 84 12.5t82 38.5v419h37q38 0 58.5 26t20.5 87h58m-490 55q56 52 95 52 23 0 41.5-8.5T302 721q21-14 36.5-21t31.5-7q26 0 43 16.5t18 46.5h40q-1-51-26-80t-70-29q-21 0-39.5 8T290 680q-23 14-39 21.5t-32 7.5q-25 0-41.5-16T160 647h-41"/><glyph glyph-name="Ự" unicode="Ự" horiz-adv-x="705" d="M705 779q-52-76-96-85V228q0-130-69-182T338-6Q205-6 136 46T67 228v508h80V228q0-90 47.5-126T338 66q96 0 143.5 36T529 228v508h40q38 0 58.5 26t20.5 87h57M300-210q-9 9-9 16v78q0 16 16 16h37q7 0 11-4.5t4-11.5v-78q0-7-4-11.5t-11-4.5h-37"/><glyph glyph-name="ự" unicode="ự" horiz-adv-x="610" d="M610 578q-52-76-95-86V0h-62l-17 59Q334-6 235-6 75-6 75 158v376h79V178q0-64 28.5-89T270 64q45 0 84 12.5t82 38.5v419h37q38 0 58.5 26t20.5 87h58M247-210q-9 9-9 16v78q0 16 16 16h37q7 0 11.5-4.5T307-116v-78q0-7-4.5-11.5T291-210h-37"/><glyph glyph-name="Ỳ" unicode="Ỳ" horiz-adv-x="582" d="M269 244L35 736h83l192-412 192 412h80L349 244V0h-80M167 927h67l104-136h-46"/><glyph glyph-name="ỳ" unicode="ỳ" horiz-adv-x="522" d="M287 0q-45 1-82 29.5T147 125L19 534h83l119-392q25-74 83-74l137 466h81L327-138l-46-99h-62M138 767h67l104-136h-46"/><glyph glyph-name="Ỵ" unicode="Ỵ" horiz-adv-x="582" d="M269 244L35 736h83l192-412 192 412h80L349 244V0h-80m15-210q-9 9-9 16v78q0 16 16 16h37q7 0 11-4.5t4-11.5v-78q0-7-4-11.5t-11-4.5h-37"/><glyph glyph-name="ỵ" unicode="ỵ" horiz-adv-x="522" d="M287 0q-45 1-82 29.5T147 125L19 534h83l119-392q25-74 83-74l137 466h81L327-138l-46-99h-62m211 27q-9 9-9 16v78q0 16 16 16h37q7 0 11.5-4.5T490-116v-78q0-7-4.5-11.5T474-210h-37"/><glyph glyph-name="Ỷ" unicode="Ỷ" horiz-adv-x="582" d="M269 244L35 736h83l192-412 192 412h80L349 244V0h-80m19 807q56 17 56 59 0 44-48 44-18 0-36-6v34q18 6 46 6 41 0 61-20.5t20-56.5q0-33-24.5-57.5T288 770"/><glyph glyph-name="ỷ" unicode="ỷ" horiz-adv-x="522" d="M287 0q-45 1-82 29.5T147 125L19 534h83l119-392q25-74 83-74l137 466h81L327-138l-46-99h-62m30 877q56 17 56 59 0 44-48 44-18 0-36-6v34q18 6 46 6 41 0 61-20.5t20-56.5q0-33-24.5-57.5T249 603"/><glyph glyph-name="Ỹ" unicode="Ỹ" horiz-adv-x="582" d="M269 244L35 736h83l192-412 192 412h80L349 244V0h-80M139 862q56 52 95 52 23 0 41.5-8.5T321 881q21-14 36.5-21t31.5-7q26 0 43 16.5t18 46.5h40q-1-51-26-80t-70-29q-21 0-39.5 8T309 840q-23 14-39 21.5t-32 7.5q-25 0-41.5-16T179 807h-41"/><glyph glyph-name="ỹ" unicode="ỹ" horiz-adv-x="522" d="M287 0q-45 1-82 29.5T147 125L19 534h83l119-392q25-74 83-74l137 466h81L327-138l-46-99h-62M103 702q56 52 95 52 23 0 41.5-8.5T285 721q21-14 36.5-21t31.5-7q26 0 43 16.5t18 46.5h40q-1-51-26-80t-70-29q-21 0-39.5 8T273 680q-23 14-39 21.5t-32 7.5q-25 0-41.5-16T143 647h-41"/><glyph glyph-name="‐" unicode="‐" horiz-adv-x="318" d="M25 323h293v-66H25"/><glyph glyph-name="‒" unicode="‒" horiz-adv-x="541" d="M68 323h473v-67H68"/><glyph glyph-name="–" unicode="–" horiz-adv-x="498" d="M25 323h473v-67H25"/><glyph glyph-name="—" unicode="—" horiz-adv-x="721" d="M25 323h696v-67H25"/><glyph glyph-name="―" unicode="―" horiz-adv-x="721" d="M25 323h696v-67H25"/><glyph glyph-name="‘" unicode="‘" horiz-adv-x="134" d="M55 528v162q0 34 17 46.5t40 12.5q9 0 19-2v-28q-23 0-23-23v-50h8q8 0 13-5t5-14v-79q0-20-18-20H69"/><glyph glyph-name="’" unicode="’" horiz-adv-x="131" d="M67 525l-12 2v28q23 0 23 23v50h-9q-7 0-12 5t-5 14v80q0 20 17 20h48q14 0 14-20V584q0-33-17-46t-40-13"/><glyph glyph-name="‚" unicode="‚" horiz-adv-x="131" d="M61-109l-6 2v28q23 0 23 23v50h-9q-7 0-12 5t-5 14v80q0 19 17 19h48q14 0 14-19V-50q0-34-17-46.5T74-109"/><glyph glyph-name="“" unicode="“" horiz-adv-x="253" d="M55 528v162q0 34 17 46.5t40 12.5q9 0 19-2v-28q-23 0-23-23v-50h8q8 0 13-5t5-14v-79q0-20-18-20H69m105 0v162q0 34 17 46.5t40 12.5q9 0 19-2v-28q-23 0-23-23v-50h8q8 0 13-5t5-14v-79q0-20-18-20h-47"/><glyph glyph-name="”" unicode="”" horiz-adv-x="250" d="M67 525l-12 2v28q23 0 23 23v50h-9q-7 0-12 5t-5 14v80q0 20 17 20h48q14 0 14-20V584q0-33-17-46t-40-13m112 0l-12 2v28q23 0 23 23v50h-9q-7 0-12 5t-5 14v80q0 20 17 20h48q14 0 14-20V584q0-33-17-46t-40-13"/><glyph glyph-name="„" unicode="„" horiz-adv-x="250" d="M61-109l-6 2v28q23 0 23 23v50h-9q-7 0-12 5t-5 14v80q0 19 17 19h48q14 0 14-19V-50q0-34-17-46.5T74-109m106 0l-6 2v28q23 0 23 23v50h-9q-7 0-12 5t-5 14v80q0 19 17 19h48q14 0 14-19V-50q0-34-17-46.5T193-109"/><glyph glyph-name="†" unicode="†" horiz-adv-x="405" d="M173 475l-151 8v58l151 8 8 221h65l8-221 151-8v-58l-151-8-9-547h-65"/><glyph glyph-name="‡" unicode="‡" horiz-adv-x="405" d="M172 162l-150 9v58l151 9v237l-151 8v58l151 8 8 221h65l8-221 151-8v-58l-151-8V238l151-9v-58l-152-9-7-234h-66"/><glyph glyph-name="•" unicode="•" horiz-adv-x="224" d="M111 315q-18 17-18 32v69q0 16 8.5 25.5T126 451h63q35 0 35-35v-69q0-32-35-32h-63"/><glyph glyph-name="…" unicode="…" horiz-adv-x="718" d="M107 0q-9 9-9 16v79q0 17 16 17h44q16 0 16-17V16q0-16-16-16h-44m265 0q-9 9-9 16v79q0 17 16 17h44q16 0 16-17V16q0-16-16-16h-44m265 0q-9 9-9 16v79q0 17 16 17h44q16 0 16-17V16q0-16-16-16h-44"/><glyph glyph-name="‰" unicode="‰" horiz-adv-x="1333" d="M106 349q-60 62-60 128v127q0 66 30 97t103 31h101q71 0 100.5-31t29.5-97V477q0-66-29.5-97T278 349H177m492 383h54L283 0h-57m43 400q48 0 68.5 19t20.5 68v107q0 48-19 67.5T271 681h-84q-48 0-68.5-18T98 594V487q0-49 19.5-68t67.5-19M609 3q-59 62-59 128v127q0 66 29.5 97T682 386h101q71 0 100.5-31t29.5-97V131q0-66-29.5-97T781 3H680m349 0q-59 62-59 128v127q0 66 29.5 97t102.5 31h101q71 0 100.5-31t29.5-97V131q0-66-29.5-97T1201 3h-101M773 54q48 0 68.5 19t20.5 68v107q0 48-19 67.5T775 335h-85q-48 0-68.5-18T601 248V141q0-48 19.5-67.5T688 54m505 0q48 0 68.5 19t20.5 68v107q0 48-19 67.5t-68 19.5h-85q-48 0-68.5-18t-20.5-69V141q0-48 19.5-67.5T1108 54"/><glyph glyph-name="′" unicode="′" horiz-adv-x="122" d="M122 763L90 462H35l14 301"/><glyph glyph-name="″" unicode="″" horiz-adv-x="248" d="M122 763L90 462H35l14 301m199 0l-32-301h-55l14 301"/><glyph glyph-name="‹" unicode="‹" horiz-adv-x="314" d="M55 280l213 209 42-41-171-168 175-171-42-44"/><glyph glyph-name="›" unicode="›" horiz-adv-x="307" d="M52 108l171 169L49 447l43 42 215-212L93 65"/><glyph glyph-name="⁄" unicode="⁄" horiz-adv-x="335" d="M277 770h58L-40 0h-59"/><glyph glyph-name="⁰" unicode="⁰" horiz-adv-x="412" d="M44 755q76 69 139 69h95q67 0 100.5-35.5T412 691V409q0-66-35.5-98.5T278 278h-96q-64 0-101 33t-37 98v282m219-351q79 0 79 78v267q0 39-20 58.5T263 763h-68q-37 0-59-20.5T114 685V418q0-39 22-58.5t59-19.5"/><glyph glyph-name="⁴" unicode="⁴" horiz-adv-x="436" d="M298 413H44l-11 46 196 361h71L110 471h188v126l17 64h50V471h71v-47l-71-11V281h-67"/><glyph glyph-name="⁵" unicode="⁵" horiz-adv-x="429" d="M256 338q45 0 74 21t29 59v59q0 35-22 54.5T274 551h-55q-65 0-75-56H78l16 325h316v-61H154l-9-187q11 16 33 26t54 10h65q62 0 97-33t35-87v-80q0-66-46.5-99T255 276q-94 0-191 9v53"/><glyph glyph-name="⁶" unicode="⁶" horiz-adv-x="421" d="M324 824l64-8v-53H253q-63 0-97-46t-34-137q55 9 147 9 77 0 114.5-27.5T421 474v-77q0-62-35.5-90.5T291 278h-84q-51 0-85 23.5T70 384q-18 59-18 165 0 143 51 209t147 66m27-485q76 0 76 69v54q0 40-24 54.5T252 531H122q0-109 23-150.5t71-41.5"/><glyph glyph-name="⁷" unicode="⁷" horiz-adv-x="406" d="M387 820l19-41-198-499h-79l190 472H48v68"/><glyph glyph-name="⁸" unicode="⁸" horiz-adv-x="409" d="M118 278q-70 54-70 110v77q0 35 20.5 59t46.5 31q-29 14-43.5 39T57 649v62q0 58 33.5 85.5T179 824h104q55 0 85.5-27.5T399 711v-62q0-31-14.5-55.5T345 559q30-7 47-33.5t17-57.5v-80q0-110-126-110H183m84 305q32 0 49 18.5t17 40.5v54q0 36-15.5 53T271 766h-79q-36 0-52.5-17T123 696v-54q0-25 18-42t51-17m79-246q71 0 71 60v68q0 34-17 48.5T268 528h-77q-27 0-52-15.5T114 465v-68q0-31 21-45.5t56-14.5"/><glyph glyph-name="⁹" unicode="⁹" horiz-adv-x="415" d="M150 276l-70 9v53h135q63 0 96.5 46T345 521q-54-9-146-9-77 0-114.5 27.5T47 627v77q0 62 35.5 90.5T177 823h84q51 0 84.5-23.5t51.5-83Q415 657 415 552q0-144-50.5-210T218 276m-27 486q-35 0-55.5-15.5T115 692v-53q0-40 25-54.5t78-14.5h127q0 75-10.5 117T304 745.5Q284 762 252 762"/><glyph glyph-name="₀" unicode="₀" horiz-adv-x="412" d="M44 255q76 69 139 69h95q67 0 100.5-35.5T412 191V-91q0-66-35.5-98.5T278-222h-96q-64 0-101 33T44-91v282m219-351q79 0 79 78v267q0 39-20 58.5T263 263h-68q-37 0-59-20.5T114 185V-82q0-39 22-58.5t59-19.5"/><glyph glyph-name="₁" unicode="₁" horiz-adv-x="404" d="M404-159v-61H68v61h133v417L76 228v50l131 47h64v-484"/><glyph glyph-name="₂" unicode="₂" horiz-adv-x="415" d="M48-167L244 22q44 41 62.5 76.5T325 176q0 40-24.5 62T214 260H67v53l29 3q78 8 133 8 90 0 128-36.5T395 184q0-56-22-98.5T296-11L143-157h272v-63H48"/><glyph glyph-name="₃" unicode="₃" horiz-adv-x="394" d="M111-224l-70 11v53h175q52 0 80 16.5T324-84v33q0 37-26 54t-65 19L96 27v51l134 5q42 2 64 17.5t22 48.5v34q0 77-105 77H59v53q73 12 179 11 72 0 109.5-34t37.5-94v-45q0-44-23.5-67.5T308 52q33-7 59.5-34.5T394-57v-36q0-63-41-97t-116-34"/><glyph glyph-name="₄" unicode="₄" horiz-adv-x="436" d="M298-87H44L33-41l196 361h71L110-29h188V97l17 64h50V-29h71v-47l-71-11v-132h-67"/><glyph glyph-name="₅" unicode="₅" horiz-adv-x="429" d="M256-162q45 0 74 21t29 59v59q0 35-22 54.5T274 51h-55q-65 0-75-56H78l16 325h316v-61H154l-9-187q11 16 33 26t54 10h65q62 0 97-33t35-87v-80q0-66-46.5-99T255-224q-94 0-191 9v53"/><glyph glyph-name="₆" unicode="₆" horiz-adv-x="421" d="M324 324l64-8v-53H253q-63 0-97-46T122 80q55 9 147 9 77 0 114.5-27.5T421-26v-77q0-62-35.5-90.5T291-222h-84q-51 0-85 23.5T70-116Q52-57 52 49q0 143 51 209t147 66m27-485q76 0 76 69v54q0 40-24 54.5T252 31H122q0-109 23-150.5t71-41.5"/><glyph glyph-name="₇" unicode="₇" horiz-adv-x="406" d="M387 320l19-41-198-499h-79l190 472H48v68"/><glyph glyph-name="₈" unicode="₈" horiz-adv-x="409" d="M118-222q-70 54-70 110v77q0 35 20.5 59T115 55Q86 69 71.5 94T57 149v62q0 58 33.5 85.5T179 324h104q55 0 85.5-27.5T399 211v-62q0-31-14.5-55.5T345 59q30-7 47-33.5T409-32v-80q0-110-126-110H183m84 305q32 0 49 18.5t17 40.5v54q0 36-15.5 53T271 266h-79q-36 0-52.5-17T123 196v-54q0-25 18-42t51-17m79-246q71 0 71 60v68q0 34-17 48.5T268 28h-77q-27 0-52-15.5T114-35v-68q0-31 21-45.5t56-14.5"/><glyph glyph-name="₉" unicode="₉" horiz-adv-x="415" d="M150-224l-70 9v53h135q63 0 96.5 46T345 21q-54-9-146-9-77 0-114.5 27.5T47 127v77q0 62 35.5 90.5T177 323h84q51 0 84.5-23.5t51.5-83Q415 157 415 52q0-144-50.5-210T218-224m-27 486q-35 0-55.5-15.5T115 192v-53q0-40 25-54.5T218 70h127q0 75-10.5 117T304 245.5Q284 262 252 262"/><glyph glyph-name="₡" unicode="₡" horiz-adv-x="599" d="M351 59q67 0 111.5 4.5T553 79V26q-36-14-93-23T333-6h-22l-38-104h-45L267-2q-52 8-85 28l-49-136H88l59 162q-43 41-63.5 118.5T63 374q0 149 36 231.5T198.5 719Q262 750 356 750l43-1 16 44h44l-18-49q47-6 89-21l25 70h44L334 59M136 284q19-116 40-151l200 551h-4q-85 0-135-23.5t-75.5-91Q136 502 136 372M240 71l51-8 219 605q-46 10-91 14L207 96"/><glyph glyph-name="₣" unicode="₣" horiz-adv-x="533" d="M271 663q-44-45-44-87V425l263-5v-61l-263-5V203l258-5v-54l-258-5V0h-80v139l-85 5v54l85 5v388q0 75 41.5 110T289 736q106 0 244-10v-63H311"/><glyph glyph-name="₤" unicode="₤" horiz-adv-x="544" d="M63 59l109 12v172l-108 3v39l108 4v88l-109 3v38l109 4v102q0 82 24.5 129t70.5 66q46 19 117 19 60 0 148-10v-62H388q-49 0-78-11t-43.5-41.5Q252 583 252 525V422l214-4v-38l-214-3v-91l214-4v-39l-214-3V71h292V0H63"/><glyph glyph-name="₦" unicode="₦" horiz-adv-x="579" d="M514 466V277h65v-46h-65V0h-57L342 231H162V0H95v231H30v46h65v189H30v46h65v231h57l116-231h180v231h66V512h65v-46M319 277L162 590V277m286 189H291l157-313"/><glyph glyph-name="₧" unicode="₧" horiz-adv-x="599" d="M599 440h-68q-6-138-61-189.5T340 199q-25 0-79.5 3.5T170 209V0H91v440H17v46h74v250h252q79 0 132.5-52.5T532 486h67M170 664V486h282q-5 178-115 178m105-394l9 170H170V270h160"/><glyph glyph-name="₩" unicode="₩" horiz-adv-x="597" d="M528 466l-19-189h88v-46h-93L480 0h-69L300 471 192 0h-70L99 231H5v46h90L76 466H5v46h66L49 736h72l58-562 103 429h41l100-429 61 562h72l-23-224h64v-46"/><glyph glyph-name="₫" unicode="₫" horiz-adv-x="585" d="M585 704v-35h-69V133h-64l-16 54q-24-22-76.5-41T263 127q-99 0-145.5 54T71 350q0 84 20 134t64 73.5Q199 581 273 581q77 0 163-32v120H297v35h139v79h80v-79m-80-211q-48 14-76.5 20t-65.5 6q-52 0-83.5-15.5t-46-51.5Q150 416 150 353q0-86 31.5-123.5T286 192q41 0 76.5 12t73.5 33M74 32h477v-66H74"/><glyph glyph-name="€" unicode="€" horiz-adv-x="568" d="M304 671q-79-35-101-80.5T174 461l275-5v-39l-277-4q-1-14-1-44 0-44 1-63l277-5v-39l-274-5q7-79 29-120t60-56.5Q302 65 367 65q127 0 201 13V18Q522 7 464.5.5T351-6q-83 0-134 21t-81.5 78Q105 150 96 257l-74 6v39l71 4q-1 20-1 64 0 29 1 43l-71 5v37l73 5q8 110 39 171t84.5 86Q272 742 357 742q46 0 105.5-7.5T568 715v-59q-35 5-90 10t-109 5"/><glyph glyph-name="₭" unicode="₭" horiz-adv-x="570" d="M293 330H170V0H91v330H24v74h67v332h79V404h123l191 332h83L375 404h177v-74H376L570 0h-84"/><glyph glyph-name="₱" unicode="₱" horiz-adv-x="599" d="M599 540h-81q1-12 1-39 0-47-8-87h88v-45H498q-42-110-168-110-25 0-87 6l-53 4V0h-72v369H10v45h108v126H10v45h108v151h215q65 0 113.5-32T512 585h87M445 330v170q0 91-32 127.5T327 664H190V330h130"/><glyph glyph-name="₲" unicode="₲" horiz-adv-x="566" d="M566 388V0h-52l-13 52Q434 17 357 2v-102h-44v96q-9-1-26-1-92 0-143 39T72.5 152Q52 231 52 363q0 128 23 206.5T155 688q57 40 158 40v65h44v-66q103-5 195-24v-60q-106 12-195 14V71q67 8 136 35v282M313 68v589q-74-2-114.5-32.5t-57-92.5Q125 470 125 362q0-117 16-179.5T196.5 94Q236 68 310 68"/><glyph glyph-name="₵" unicode="₵" horiz-adv-x="556" d="M448 663l-67 1V62q52 1 91 6t84 15V26Q490 1 381-5v-95h-44v94h-2q-95 0-152.5 30.5t-87 111Q66 216 66 364q0 143 33 223.5t91.5 112Q249 731 337 733v60h44v-61q53-2 100.5-11.5T556 700v-57M138 243q37-127 79.5-153T337 62v601q-70-3-112.5-27.5t-64.5-89Q138 482 138 362"/><glyph glyph-name="₹" unicode="₹" horiz-adv-x="579" d="M579 690H391q52-50 57-157h131v-46H447q-5-100-43-141.5T309 292L459 0h-85L229 285l-48 1-123 3v64h187q53 0 85.5 28.5T368 487H58v46h311q-4 75-33 103t-77 28H58v72h521"/><glyph glyph-name="₺" unicode="₺" horiz-adv-x="567" d="M567 343q0-133-44.5-208T397 30Q316 0 195 0h-79v296L10 242v47l106 54v110L10 399v46l106 54v237h79V540l264 135v-46L195 494V384l264 135v-47L195 337V71q101 0 166 25t99 84.5Q494 240 494 343"/><glyph glyph-name="₼" unicode="₼" horiz-adv-x="567" d="M419 674q102-174 122-316.5T567 0h-73l-10 235q-8 154-41.5 259T326 612V80h-43v532q-83-13-116.5-117T125 235L115 0H42q6 216 26 358.5T139 588q51 87 144 96v102h43V684"/><glyph glyph-name="₽" unicode="₽" horiz-adv-x="544" d="M307 280l-60 2q-36 2-54 2V164h289v-46H193V0h-76v118H17v46h100v140H17v45h100v387h231q89 0 142.5-50.5T544 509q0-119-54-174t-151-55m-146 69h135q75 0 107.5 39T468 509q0 85-32.5 120T328 664H193"/><glyph glyph-name="ℓ" unicode="ℓ" horiz-adv-x="385" d="M90 591q0 73 40 110.5T240 739q65 0 105-41t40-112q0-82-58-153T169 281v-73q0-55 9.5-85.5t31-45.5Q231 62 269 57l70-9V0H228q-70 0-104 42T90 184v60q-8-8-22-17.5T45 213l-12 38q32 28 57 55m228 322q-43 49-80 49-29 0-49-19.5T169 603V358q52 50 81 82.5t48.5 70.5q19.5 38 19.5 79"/><glyph glyph-name="№" unicode="№" horiz-adv-x="1092" d="M471-6l-29 89-190 544q-13 36-43 36-39 0-39-51V0H91v624q0 56 30 86.5t80 30.5q47 0 75-21.5t44-67.5l189-549q5-14 16-22.5t24-8.5q21 0 32 13.5t11 37.5v417q0 208 199 208h144q72 0 114.5-48t42.5-148q0-86-37.5-130.5T943 377h-32q-50 0-81.5 21T782 469q-16 50-16 136h61q0-94 21.5-132t65.5-38h26q47 0 69 28.5t22 88.5q0 130-98 130H800q-61 0-95-31t-34-114V104q0-51-31.5-80.5T560-6"/><glyph glyph-name="™" unicode="™" horiz-adv-x="692" d="M135 692H22v40h272v-40H182V383h-47m218 349h48l108-279 97 279h48l38-349h-45l-25 269-96-269h-34L388 652l-22-269h-46"/><glyph glyph-name="Ω" unicode="Ω" horiz-adv-x="724" d="M556 739q153-187 153-349 0-89-42-174T547 70l177-8V0H464v69q84 62 124.5 143.5T629 383q0 132-57 208.5T390 668q-126 0-184-75.5T148 387q0-98 39-170T317 69V0H58v62l177 9Q69 197 69 395q0 148 76 246t245 98"/><glyph glyph-name="℮" unicode="℮" horiz-adv-x="850" d="M209 645q139 53 235 53 87 0 153.5-23T725 604q58-46 89.5-120T850 317H201q-7 0-10-3t-3-13V117q0-20 34-51.5t92.5-55Q373-13 444-13q74 0 143 33t115 85h75q-40-43-76-71t-75-44q-45-17-83-24t-99-7q-94 0-165.5 25T151 62Q40 167 40 327t111 264m532-251l13-1q4 0 4.5 2.5t.5 8.5v186q0 28-40.5 60.5t-101 54.5Q499 673 443 673q-67 0-125.5-25t-94-57.5Q188 558 188 540V353q0-9 3-11t9-2"/><glyph glyph-name="∂" unicode="∂" horiz-adv-x="569" d="M348 448q103-24 141-51 0 134-43 203t-147 69q-53 0-103-17t-85-39l-12 58q50 34 99 51.5T307 740q262 0 262-353 0-174-62.5-283T305-5q-67 0-122 26T95 99q-33 52-33 128 0 111 62.5 166T303 448m76-381q78 96 91.5 157.5T484 341q-24 13-74.5 25T317 378q-88 0-132.5-35T140 229q0-80 48-121t119-41"/><glyph glyph-name="∅" unicode="∅" horiz-adv-x="594" d="M494 464q44-60 44-157v-81q0-101-50.5-166.5T339-6h-69q-84 0-135 51L42-63 15-36l95 111q-39 62-39 151v81q0 101 50.5 166.5T270 539h69q81 0 131-47l98 115 26-26M150 174l15-36 255 297q-33 34-83 34h-64q-55 0-89-41t-34-125v-73m309 131l-18 41-256-299q32-39 88-39h64q55 0 88.5 40.5T459 230v73"/><glyph glyph-name="∆" unicode="∆" horiz-adv-x="640" d="M385 736L640 0H34l256 736m47-85L136 71h401"/><glyph glyph-name="∏" unicode="∏" horiz-adv-x="588" d="M588 736v-72h-80V0h-79v664H181V0h-80v664H22v72"/><glyph glyph-name="∑" unicode="∑" horiz-adv-x="543" d="M44 663v73h499v-73H140l213-391-214-398h404v-74H44v76l214 396"/><glyph glyph-name="−" unicode="−" horiz-adv-x="528" d="M80 389h448v-66H80"/><glyph glyph-name="∕" unicode="∕" horiz-adv-x="541" d="M483 713h58L126 0H67"/><glyph glyph-name="∙" unicode="∙" horiz-adv-x="351" d="M271 306q-13 13-13 23v52q0 12 6 18.5t18 6.5h44q25 0 25-25v-52q0-23-25-23h-44"/><glyph glyph-name="√" unicode="√" horiz-adv-x="600" d="M153 365l109-252 253 687h85L306 0h-75L98 292H22v73"/><glyph glyph-name="∞" unicode="∞" horiz-adv-x="741" d="M259 514q100-77 137-130 30 50 86.5 90T598 514q87 0 115-48t28-125q0-80-32.5-126T589 169q-57 0-108 37.5T395 300q-33-59-81-95t-111-36q-84 0-116 46T55 341q0 52 10.5 89t43 60.5Q141 514 204 514m52-289q77 72 104 117-32 47-73.5 81.5T208 458q-55 0-74.5-26.5T114 341q0-60 21-88t72-28m434 0q41 60 41 116 0 58-19 87.5T590 458q-40 0-83.5-35.5T434 342q29-50 68-83.5t82-33.5"/><glyph glyph-name="∫" unicode="∫" horiz-adv-x="429" d="M135-141q50 63 50 132v624q0 87 35.5 135.5T331 799q51 0 72.5-6t25.5-7v-49h-71q-52 0-72.5-32.5T265 612V-4q0-93-37-146t-112-53q-26 0-52.5 4T22-190v49h71"/><glyph glyph-name="≈" unicode="≈" horiz-adv-x="528" d="M80 479q21 19 49 29.5t58 10.5q27 0 52.5-5t60.5-15q38-10 64-15t54-5q68 0 110 40v-66q-42-40-107-40-29 0-56 5t-68 16q-35 9-59 14t-48 5q-30 0-59-10.5T80 413m0-174q21 19 49 29.5t58 10.5q27 0 52.5-5t60.5-15q38-10 64-15t54-5q68 0 110 40v-66q-42-40-107-40-29 0-56 5t-68 16q-35 9-59 14t-48 5q-30 0-59-10.5T80 173"/><glyph glyph-name="≠" unicode="≠" horiz-adv-x="528" d="M383 443L283 269h245v-66H246L175 79h-58l71 124H80v66h145l100 174H80v66h282l71 124h58l-71-124h108v-66"/><glyph glyph-name="≤" unicode="≤" horiz-adv-x="529" d="M97 373v71l415 128v-69l-340-93 340-98v-68M81 139h448V73H81"/><glyph glyph-name="≥" unicode="≥" horiz-adv-x="528" d="M98 312l340 97-340 94v69l415-128v-71L98 244M80 139h448V73H80"/><glyph glyph-name="◊" unicode="◊" horiz-adv-x="504" d="M286 732l218-359L286 0h-40L22 373l224 359m182-359L266 639 98 373 266 98"/><glyph glyph-name="ﬁ" unicode="ﬁ" horiz-adv-x="542" d="M538 0h-79v469H181V0h-79v469H20v51l82 14v71q0 86 33 125t114 39q61 0 113-15v-56q-47 5-90 5-53 0-72-25.5T181 595v-61h357m4 205v-94q0-16-15-16h-56q-7 0-11.5 4.5T455 645v78q0 16 16 16h56"/><glyph glyph-name="ﬂ" unicode="ﬂ" horiz-adv-x="667" d="M667 57V0h-67q-72 0-106.5 39T459 172v527q-104 4-157 4-70 0-95.5-25.5T181 595v-61h165v-65H181V0h-79v469H20v51l82 14v64q0 89 43 130t147 41q65 0 115.5-5T538 748V182q0-66 18-90t57-29"/><glyph glyph-name="ﬄ" unicode="ﬄ" horiz-adv-x="1050" d="M1050 57V0h-67q-72 0-106.5 39T842 172v527q-104 4-157 4-70 0-95.5-25.5T564 595v-61h165v-65H564V0h-79v469H181V0h-79v469H20v51l82 14v71q0 86 33 125t114 39q61 0 113-15v-56q-47 5-90 5-53 0-72-25.5T181 595v-61h304v64q0 89 43 130t147 41q65 0 115.5-5T921 748V182q0-66 18-90t57-29"/><glyph horiz-adv-x="171" d="M92 735h79l-12-536h-57M101-1q-9 9-9 16v80q0 16 16 16h44q16 0 16-16V15q0-16-16-16h-44"/><glyph horiz-adv-x="243" d="M40 679v67h77v-67l-8-172H48m118 172v67h77v-67l-8-172h-61"/><glyph glyph-name="!" unicode="!" horiz-adv-x="665" d="M188 230H22l8 51h168l27 167H56l9 51h170l40 233h51l-40-233h154l39 233h51l-39-233h174l-7-51H482l-26-167h174l-7-51H445L406 0h-51l39 230H239L201 0h-51m255 281l26 167H276l-27-167"/><glyph glyph-name="&quot;" unicode="&quot;" horiz-adv-x="519" d="M429 406q90-93 90-171v-57q0-96-54.5-137.5T314-5v-84h-47v83q-51 2-111.5 7T63 12v61q78-8 220-8 76 0 118 24t42 87v50q0 104-110 104h-79q-95 0-144.5 41.5T60 508v42q0 101 54 146.5T274 742l-7 21 35 61 12-34-27-48q44-1 102-7.5t97-13.5v-60q-135 9-204 9-74 0-110-26.5T136 547v-34q0-58 30.5-82.5T257 406h85"/><glyph glyph-name="#" unicode="#" horiz-adv-x="913" d="M106 349q-60 62-60 128v127q0 66 30 97t103 31h101q71 0 100.5-31t29.5-97V477q0-66-29.5-97T278 349H177m492 383h54L283 0h-57m43 400q48 0 68.5 19t20.5 68v107q0 48-19 67.5T271 681h-84q-48 0-68.5-18T98 594V487q0-49 19.5-68t67.5-19M609 3q-59 62-59 128v127q0 66 29.5 97T682 386h101q71 0 100.5-31t29.5-97V131q0-66-29.5-97T781 3H680m93 51q48 0 68.5 19t20.5 68v107q0 48-19 67.5T775 335h-85q-48 0-68.5-18T601 248V141q0-48 19.5-67.5T688 54"/><glyph glyph-name="$" unicode="$" horiz-adv-x="638" d="M179-6Q90 42 65 86.5T40 189q0 109 95 189l66 56-18 27q-51 70-51 140 0 69 47.5 101T303 734q95 0 171-13v-57H316q-105 0-105-77 0-25 11.5-51t38.5-63l199-271 149 139 29-34-69-93-68-65L612 0h-86l-77 103-34-30q-47-43-88.5-61T235-6m45 74q59 26 93 59l32 30-165 222-52-45q-39-33-55.5-66.5T116 197q0-59 35.5-94T247 68"/><glyph glyph-name="%" unicode="%" horiz-adv-x="117" d="M40 679v67h77v-67l-8-172H48"/><glyph glyph-name="&amp;" unicode="&amp;" horiz-adv-x="325" d="M169-83Q82 171 82 326q0 150 44.5 279T251 860h73q-77-135-120-263.5T161 326q0-145 41-270t123-266h-74"/><glyph glyph-name="'" unicode="'" horiz-adv-x="264" d="M102-74q83 253 83 399t-40 270Q105 719 22 860h74q83-127 125.5-252.5T264 325q0-154-42.5-280.5T96-210H22"/><glyph glyph-name="(" unicode="(" horiz-adv-x="399" d="M190 723l31 10 65-124-45-19m25-32l114 83 19-27-102-92M55 584v32l141 9 2-47m-73-166l30 135 47-10-47-135m64 81l24 42 117-85-19-26"/><glyph glyph-name=")" unicode=")" horiz-adv-x="528" d="M528 323H337V132h-66v191H80v66h191v191h66V389h191"/><glyph glyph-name="*" unicode="*" horiz-adv-x="137" d="M81-78q-14 2-16 3v25q12 0 16.5 3.5T86-33V5h-8q-7 0-11.5 4.5T62 21v72q0 18 16 18h43q16 0 16-18V-29q0-49-47-49"/><glyph glyph-name="+" unicode="+" horiz-adv-x="318" d="M25 323h293v-66H25"/><glyph glyph-name="," unicode="," horiz-adv-x="138" d="M71-1q-9 9-9 16v80q0 16 16 16h44q16 0 16-16V15q0-16-16-16H78"/><glyph glyph-name="-" unicode="-" horiz-adv-x="380" d="M303 770h77L99-72H22"/><glyph glyph-name="." unicode="." horiz-adv-x="579" d="M175-2Q76 85 76 173v390q0 86 50 132.5T259 742h143q89 0 133-48t44-131V173q0-88-47-131.5T402-2H259m125 71q115 0 115 114v374q0 113-112 113H272q-54 0-85-29.5T156 557V183q0-56 31-85t87-29"/><glyph glyph-name="/" unicode="/" horiz-adv-x="275" d="M195 665L44 624v51l159 68h72V0h-80"/><glyph glyph-name="0" unicode="0" horiz-adv-x="545" d="M54 65l272 261q62 59 87.5 107.5T439 543q0 60-35 92t-124 32H80v61q48 5 106.5 9.5T297 742q119 0 170-49.5T518 553q0-77-30-136.5T387 289L162 73h383V0H54"/><glyph glyph-name="1" unicode="1" horiz-adv-x="514" d="M154-6L43 7v61h241q72 0 111 24t39 88v49q0 54-37.5 79T306 335l-189 7v58l186 8q121 5 121 96v49q0 55-36.5 84.5T278 667H68v61q107 14 239 14 96-1 145.5-47T502 569v-63q0-61-33-94t-73-41q26-6 53-24t46-50.5q19-32.5 19-77.5v-51q0-84-53.5-129T310-6"/><glyph glyph-name="2" unicode="2" horiz-adv-x="571" d="M391 188H44l-18 43 278 505h81L118 256h273v196l17 69h62V256h101v-55l-101-13V1h-79"/><glyph glyph-name="3" unicode="3" horiz-adv-x="567" d="M194-5L84 6v61h255q67 0 108 32.5t41 88.5v80q0 53-31.5 82T365 379h-79q-93 0-107-84h-75l21 441h418v-72H194l-13-270q13 22 44.5 37.5T301 447h88q84 0 131-46t47-119V173q0-87-62-132.5T338-5"/><glyph glyph-name="4" unicode="4" horiz-adv-x="559" d="M207-3Q119 61 95 142.5T71 368q0 374 261 374 86 0 183-11v-61H333q-87 0-134.5-67T151 405q75 10 203 10 103 0 154-36t51-118V158q0-84-47-122.5T388-3H274m99 72q50 0 78.5 22t28.5 79v78q0 59-34.5 79T336 347H151q0-108 15.5-169t45-85Q241 69 287 69"/><glyph glyph-name="5" unicode="5" horiz-adv-x="504" d="M403 656H33v80h445l26-41L235 0h-89"/><glyph glyph-name="6" unicode="6" horiz-adv-x="562" d="M177-2Q82 68 82 144v106q0 49 28.5 81.5T176 373q-80 34-80 130v84q0 79 44.5 116.5T258 741h138q152 0 152-154v-84q0-38-20-74t-55-46q44-9 66.5-45.5T562 256V144Q562-2 396-2H261m115 411q48 0 71 27.5t23 64.5v69q0 56-22 79.5T381 673H272q-52 0-75-24t-23-79v-69q0-42 24.5-67t73.5-25M380 66q53 0 78 22.5t25 66.5v93q0 50-24.5 71.5T376 341H272q-40 0-75.5-23T161 248v-93q0-46 30-67.5T272 66"/><glyph glyph-name="7" unicode="7" horiz-adv-x="553" d="M205-5L110 6v61h182q87 0 134.5 67T474 332q-75-10-203-10-103 0-154 36T66 476v103q0 83 46.5 122T236 740h114q67 0 111-32t68-113.5Q553 513 553 369 553-5 293-5m181 395q0 108-15.5 169t-45 85Q384 668 337 668h-86q-50 0-78.5-22.5T144 567v-78q0-58 35-78.5T289 390"/><glyph glyph-name="8" unicode="8" horiz-adv-x="138" d="M71-1q-9 9-9 16v80q0 16 16 16h44q16 0 16-16V15q0-16-16-16H78m-7 423q-9 9-9 16v80q0 16 16 16h44q16 0 16-16v-80q0-16-16-16H78"/><glyph glyph-name="9" unicode="9" horiz-adv-x="138" d="M71 422q-9 9-9 16v80q0 16 16 16h44q16 0 16-16v-80q0-16-16-16H78m3-500q-14 2-16 3v25q12 0 16.5 3.5T86-33V5h-8q-7 0-11.5 4.5T62 21v72q0 18 16 18h43q16 0 16-18V-29q0-49-47-49"/><glyph glyph-name=":" unicode=":" horiz-adv-x="511" d="M96 313v72l415 134v-69L171 350l340-104v-69"/><glyph glyph-name=";" unicode=";" horiz-adv-x="528" d="M80 525h448v-66H80m0 50h448v-66H80"/><glyph glyph-name="&lt;" unicode="&lt;" horiz-adv-x="513" d="M98 246l340 103L98 450v69l415-134v-72L98 177"/><glyph glyph-name="=" unicode="=" horiz-adv-x="453" d="M170 356h50q83 0 118 25t35 90v59q0 75-32 106.5T237 668q-49 0-94-9t-98-29v56q91 53 215 53 102 0 147.5-51.5T453 541v-71q0-90-53-133.5T231 293v-94h-61m1-200q-9 9-9 16v80q0 16 16 16h44q16 0 16-16V15q0-16-16-16h-44"/><glyph glyph-name="&gt;" unicode="&gt;" horiz-adv-x="781" d="M176-164Q71-65 71 33v322q0 71 40 127.5T262 539h191q73 0 119.5-32T619 389V27h-49l-12 61q-2-1-59.5-35.5T362 18q-59 0-93.5 37T234 145v46q0 59 36 91t102 32h184v70q0 92-103 92H262q-60 0-94-28t-34-96V40q0-75 37.5-107.5T262-100h319q71 0 104 35t33 105v479q0 69-35.5 109.5T581 669H187v47q35 7 118 11.5t180 4.5h96q88 0 144-53t56-160V40q0-100-47-152t-150-52H262M422 81q104 34 134 53v137l-170-9q-37-2-61.5-16T300 192v-35q0-35 23-55.5T386 81"/><glyph glyph-name="?" unicode="?" horiz-adv-x="640" d="M286 736h102L640 0h-82l-74 210H188L116 0H34m430 282L337 666 208 282"/><glyph glyph-name="@" unicode="@" horiz-adv-x="559" d="M77 736h266q190 0 190-189 0-66-29.5-109T429 382q50-11 90-55t40-123q0-112-52-158T353 0H77m271 410q49 0 79 36.5t30 97.5q0 120-114 120H157V410M351 71q64 0 98 32t34 114q0 60-37.5 95T351 347H157V71"/><glyph glyph-name="A" unicode="A" horiz-adv-x="535" d="M223-6Q113 53 86 134T59 370q0 147 28 227.5T172 710q57 32 152 32 46 0 105.5-7.5T535 715v-59q-35 5-90 10t-109 5q-75 0-117-24.5t-61.5-89Q138 493 138 369q0-128 18.5-192.5t59.5-88Q257 65 334 65q127 0 201 13V18Q489 7 431.5.5T318-6"/><glyph glyph-name="B" unicode="B" horiz-adv-x="610" d="M77 736h291q129 0 185.5-92T610 368q0-176-61.5-272T368 0H77m285 71q85 0 127 78.5T531 368q0 109-17.5 174T459 635.5Q422 664 362 664H157V71"/><glyph glyph-name="C" unicode="C" horiz-adv-x="530" d="M164-4Q77 55 77 139v449q0 78 42 113t103 35q160-3 249-7l59-2v-64H242q-85 0-85-88V401l329-5v-61l-329-5V157q0-51 24-69t65-18h284V6Q340-4 227-4"/><glyph glyph-name="D" unicode="D" horiz-adv-x="530" d="M77 588q0 78 42 113t103 35l56-1q24-1 104.5-2.5T530 726v-63H241q-40 0-62-22.5T157 576V385l329-5v-61l-329-5V0H77"/><glyph glyph-name="E" unicode="E" horiz-adv-x="575" d="M202-5Q100 74 79.5 154.5T59 370q0 131 22 211t76.5 120.5Q212 742 308 742q57 0 120-7t117-19v-59q-40 5-103 9.5T320 671q-72 0-111.5-30t-55-94.5Q138 482 138 369q0-120 15.5-184T207 94.5Q245 68 317 68q44 0 92.5 11t89.5 27v217H321v59q65 10 165 10 58 0 89-4V0h-58l-12 52q-45-23-100-40T293-5"/><glyph glyph-name="F" unicode="F" horiz-adv-x="604" d="M77 736h80V395h368v341h79V0h-79v324H157V0H77"/><glyph glyph-name="G" unicode="G" horiz-adv-x="157" d="M77 736h80V0H77"/><glyph glyph-name="H" unicode="H" horiz-adv-x="307" d="M112-6Q48 7 27 17v61q61-13 98-13 51 0 77 23t26 83v565h79V161q0-90-40.5-128.5T140-6"/><glyph glyph-name="I" unicode="I" horiz-adv-x="575" d="M77 736h80V403h129l202 333h84L349 368 575 0h-85L286 331H157V0H77"/><glyph glyph-name="J" unicode="J" horiz-adv-x="506" d="M155 0Q77 67 77 148v588h80V159q0-49 23-67.5T242 73h264V0H225"/><glyph glyph-name="K" unicode="K" horiz-adv-x="778" d="M701 0l-70 611L454 0h-73L201 606 134 0H57l84 736h81l196-636 192 636h82L778 0"/><glyph glyph-name="L" unicode="L" horiz-adv-x="619" d="M91 736h65l384-599v599h79V0h-65L170 599V0H91"/><glyph glyph-name="M" unicode="M" horiz-adv-x="627" d="M239-6Q120 49 89.5 128.5T59 365q0 156 31.5 237.5T182 713q60 29 161 29 104 0 164-28.5t90-110Q627 522 627 365t-30.5-236.5q-30.5-79.5-90-107T343-6m80 71q85 44 105 108t20 192q0 133-20 198t-62.5 86.5Q423 671 343 671q-76 0-119-21.5T159.5 562Q138 496 138 365q0-129 19-192.5T218.5 87Q261 65 343 65"/><glyph glyph-name="N" unicode="N" horiz-adv-x="562" d="M77 736h293q192 0 192-235 0-138-57.5-190T366 259q-29 0-97 3.5T157 269V0H77m279 330q126 0 126 170 0 164-119 164H157V330"/><glyph glyph-name="O" unicode="O" horiz-adv-x="627" d="M239-6Q120 49 89.5 128.5T59 365q0 156 31.5 237.5T182 713q60 29 161 29 104 0 164-28.5t90-110Q627 522 627 365t-30.5-236.5q-30.5-79.5-90-107T343-6m80 71q85 44 105 108t20 192q0 133-20 198t-62.5 86.5Q423 671 343 671q-76 0-119-21.5T159.5 562Q138 496 138 365q0-129 19-192.5T218.5 87Q261 65 343 65m103-235Q354-99 346-35h54q11-37 40.5-55.5T505-109q25 0 52 9v-62q-27-8-51-8"/><glyph glyph-name="P" unicode="P" horiz-adv-x="569" d="M77 736h290q86 0 138.5-46T558 519q0-107-40-151t-100-56L569 0h-81L345 301l-55 1-133 3V0H77m278 366q59 0 91.5 32T479 519q0 84-33 114.5T355 664H157V366"/><glyph glyph-name="Q" unicode="Q" horiz-adv-x="519" d="M239-6Q100 5 63 12v61q78-8 220-8 76 0 118 24t42 87v50q0 104-110 104h-79q-95 0-144.5 41.5T60 508v42q0 101 54 146.5T274 742q45 0 108.5-6.5T486 721v-60q-135 9-204 9-74 0-110-26.5T136 547v-34q0-58 30.5-82.5T257 406h85q87 0 132-46.5T519 235v-57q0-103-62.5-143.5T286-6"/><glyph glyph-name="R" unicode="R" horiz-adv-x="550" d="M244 664H16v72h534v-72H323V0h-79"/><glyph glyph-name="S" unicode="S" horiz-adv-x="609" d="M205-6Q67 98 67 228v508h80V228q0-90 47.5-126T338 66q96 0 143.5 36T529 228v508h80V228q0-130-69-182T338-6"/><glyph glyph-name="T" unicode="T" horiz-adv-x="640" d="M34 736h82L338 83l221 653h81L388 0H286"/><glyph glyph-name="U" unicode="U" horiz-adv-x="957" d="M34 736h82l158-627 182 627h80l181-627 158 627h82L768 0h-86L496 625 309 0h-86"/><glyph glyph-name="V" unicode="V" horiz-adv-x="588" d="M358 362L586 0h-87L309 302 125 0H38l229 368L35 736h87l194-308 185 308h87"/><glyph glyph-name="W" unicode="W" horiz-adv-x="582" d="M269 244L35 736h83l192-412 192 412h80L349 244V0h-80"/><glyph glyph-name="X" unicode="X" horiz-adv-x="522" d="M43 65l383 599H43v72h479v-65L139 71h383V0H43"/><glyph glyph-name="Y" unicode="Y" horiz-adv-x="312" d="M158-210Q93-97 93-22v682q0 77 35 129.5T249 842h63v-65h-44q-45 0-70.5-30.5T172 651V-19q0-58 23.5-92t72.5-34h44v-65h-63"/><glyph glyph-name="Z" unicode="Z" horiz-adv-x="380" d="M22 770h77L380-72h-77"/><glyph glyph-name="[" unicode="[" horiz-adv-x="240" d="M22-145h43q50 0 73 33.5T161-19v670q0 65-25.5 95.5T65 777H22v65h63q86 0 120.5-52.5T240 660V-22q0-75-32.5-131.5T85-210H22"/><glyph glyph-name="\" unicode="\" horiz-adv-x="343" d="M177 664h56l110-133h-48l-91 94-100-94H55"/><glyph glyph-name="]" unicode="]" horiz-adv-x="609" d="M0-98h609v-66H0"/><glyph glyph-name="^" unicode="^" horiz-adv-x="193" d="M22 767h67l104-136h-46"/><glyph glyph-name="_" unicode="_" horiz-adv-x="472" d="M120-6Q45 66 45 128v38q0 65 42.5 103T212 307h181v66q0 54-29.5 80T255 479H89v47q94 16 195 16 97 0 142.5-39.5T472 377V0h-61l-15 61q-7-6-43.5-23T269 7.5Q222-6 180-6m62 59q78 20 109.5 31T393 99v168l-163-7q-55-2-80.5-27T124 165v-24q0-46 26.5-67T215 53"/><glyph glyph-name="`" unicode="`" horiz-adv-x="521" d="M241-6l-86 60-15-54H76v763h79V485q42 24 89.5 40t85.5 16q98 0 144.5-64T521 263Q521-6 333-6m41 66q68 103 68 206 0 84-16.5 129.5T380 458q-29 17-72 17-42 0-77-11t-76-34V103q37-20 73.5-31.5T308 60"/><glyph glyph-name="a" unicode="a" horiz-adv-x="457" d="M168-6Q57 113 57 266q0 107 25.5 167t72.5 83.5Q202 540 272 540q96 0 177-14v-47H293q-55 0-88.5-18t-51-64.5Q136 350 136 264q0-82 18.5-127.5t52.5-63Q241 56 294 56h163V10Q363-6 270-6"/><glyph glyph-name="b" unicode="b" horiz-adv-x="502" d="M150-6Q57 124 57 263q0 100 20 161t64 89q44 28 118 28 76 0 164-32v254h79V0h-64l-15 54q-24-21-77-40.5T249-6m65 65q71 25 109 45v349q-47 14-76.5 20t-66.5 6q-53 0-84-19.5T150.5 394Q136 348 136 266q0-112 31-159.5T272 59"/><glyph glyph-name="c" unicode="c" horiz-adv-x="484" d="M194-6Q99 44 78 103T57 268q0 107 21.5 166t69.5 83q48 24 133 24 73 0 117-16t65-54.5Q484 432 484 364t-39.5-98.5Q405 235 332 235H136q1-69 14-106.5t48-55Q233 56 299 56h172V8q-54-7-96-10.5T280-6m45 293q46 0 67 17t21 59q0 67-29.5 92.5T281 481q-58 0-89-17t-44-58q-13-41-13-119"/><glyph glyph-name="d" unicode="d" horiz-adv-x="361" d="M105 469H23v51l82 14v61q0 89 34.5 131.5T258 769q51 0 103-10v-56h-89q-51 0-69.5-24.5T184 599v-65h166v-65H184V0h-79"/><glyph glyph-name="e" unicode="e" horiz-adv-x="553" d="M553 490l-120-10q20-13 33.5-26.5t24-41Q501 385 501 343q0-70-45-116t-144-46h-85q-45 0-68-13t-23-44q0-22 16.5-33T192 80h177q93 0 138.5-36T553-67v-22q0-74-50.5-115T356-245H207q-81 0-128.5 33.5T31-113v24q0 44 24 75t63 48Q93 46 80 66.5T67 113q0 76 90 95-52 21-73.5 62.5T62 363q0 172 206 172h285M374 242q55 60 55 110 0 121-116 121h-57q-60 0-91-26.5T134 359q0-117 110-117h60M221 18q-48 0-81.5-23.5T106-76v-22q0-89 119-89h124q62 0 95.5 23.5T478-92v20q0 43-27 66.5T359 18"/><glyph glyph-name="f" unicode="f" horiz-adv-x="515" d="M76 763h79V475q41 29 92.5 48.5T351 543q81 0 122.5-50T515 364V0h-79v355q0 51-30 83.5T325 471q-48 0-85.5-12.5T155 419V0H76"/><glyph glyph-name="g" unicode="g" horiz-adv-x="159" d="M81 629q-9 9-9 16v78q0 16 16 16h56q15 0 15-16v-78q0-16-15-16H88m-12-95h79V0H76"/><glyph glyph-name="h" unicode="h" horiz-adv-x="159" d="M80 629q-9 9-9 16v78q0 16 16 16h57q7 0 11-4.5t4-11.5v-78q0-7-4-11.5t-11-4.5H87m-11-95h79V17q0-69-5.5-137T135-237H76"/><glyph glyph-name="i" unicode="i" horiz-adv-x="490" d="M76 763h79V321h76l163 213h84L290 285 490 0h-84L228 250h-73V0H76"/><glyph glyph-name="j" unicode="j" horiz-adv-x="284" d="M145-1Q76 77 76 171v592h79V181q0-66 18-90t57-29l54-6V-1h-68"/><glyph glyph-name="k" unicode="k" horiz-adv-x="876" d="M76 534h62l17-59q100 68 200 68 48 0 83.5-21.5T494 464q42 31 102.5 55T709 543q83 0 125-51t42-132V0h-79v354q0 52-30.5 84.5T684 471q-43 0-89.5-16T505 413q10-32 10-60V0h-79v354q0 52-29.5 84.5T325 471q-48 0-85.5-12.5T155 419V0H76"/><glyph glyph-name="l" unicode="l" horiz-adv-x="515" d="M76 534h62l17-59q42 29 93 48.5T350 543q83 0 124-51t41-129V0h-79v354q0 52-29.5 84.5T325 471q-48 0-85.5-12.5T155 419V0H76"/><glyph glyph-name="m" unicode="m" horiz-adv-x="520" d="M206-6Q106 40 81.5 99.5T57 268q0 110 25 169.5t74 81.5q49 22 132 22 82 0 132-22.5t75-82Q520 377 520 268T495 99.5Q470 40 420.5 17T288-6m55 65q63 29 80 74t17 135q0 90-16.5 134.5t-48.5 59Q343 476 288 476q-56 0-87.5-14.5t-48-59Q136 358 136 268t16.5-135q16.5-45 48-59.5T288 59"/><glyph glyph-name="n" unicode="n" horiz-adv-x="521" d="M76 534h64l15-55q32 23 81 42.5t94 19.5q98 0 144.5-77T521 268q0-137-46.5-206T330-7q-43 0-88.5 14T155 44v-281H76M442 60v208q0 105-38 156t-96 51q-42 0-79-12.5T155 430V103q76-43 153-43"/><glyph glyph-name="o" unicode="o" horiz-adv-x="502" d="M423 54q-40-27-87-43.5T247-6Q144-6 100.5 60.5T57 268q0 139 48.5 206T257 541q107 0 245-14v-764h-79M340 59l83 45v375H275q-75 0-107-54t-32-155q0-114 30-162.5T266 59"/><glyph glyph-name="p" unicode="p" horiz-adv-x="388" d="M76 534h60l19-93q39 47 84 73t99 26q27 0 50-5v-81q-45 5-58 5-53 0-91.5-19T155 379V0H76"/><glyph glyph-name="q" unicode="q" horiz-adv-x="451" d="M215-6Q79 2 54 8v48h219q56 0 82 15t26 63v24q0 75-97 75h-75q-77 0-118.5 30T49 365v28q0 76 44.5 111T237 539q43 0 101.5-4.5T430 524v-48H224q-54 0-80-18t-26-65v-22q0-43 25.5-57.5T222 299h76q73 0 113-34t40-98v-37q0-76-49-106T260-6"/><glyph glyph-name="r" unicode="r" horiz-adv-x="334" d="M174 0q-74 81-72 173l3 296H20v51l86 14 13 149h61V534h154v-65H180V173q0-61 23-83.5T261 64l65-6V0h-73"/><glyph glyph-name="s" unicode="s" horiz-adv-x="515" d="M75-6v540h79V178q0-64 28.5-89T270 64q45 0 84 12.5t82 38.5v419h79V0h-62l-17 59Q334-6 235-6"/><glyph glyph-name="t" unicode="t" horiz-adv-x="517" d="M19 534h81L266 74l171 460h80L310 0h-90"/><glyph glyph-name="u" unicode="u" horiz-adv-x="778" d="M19 534h81L231 74l135 460h69L570 74l127 460h81L617 0h-87L399 428 267 0h-86"/><glyph glyph-name="v" unicode="v" horiz-adv-x="486" d="M298 263L486 0h-82L251 214 102 0H22l188 271L22 534h81l155-215 146 214 82 1"/><glyph glyph-name="w" unicode="w" horiz-adv-x="522" d="M287 0q-45 1-82 29.5T147 125L19 534h83l119-392q25-74 83-74l137 466h81L327-138l-46-99h-62"/><glyph glyph-name="x" unicode="x" horiz-adv-x="451" d="M51 60l308 409H44v65h407v-60L142 65h309V0H51"/><glyph glyph-name="y" unicode="y" horiz-adv-x="288" d="M179-210q-78 91-78 172v267q0 32-24 50.5T22 296v75q80 7 80 67v218q0 186 186 186v-65q-57 0-82-32.5T181 630V427q0-41-24-64.5T93 334q38-6 62.5-30.5T180 245V-15q0-73 25-103t83-30v-62"/><glyph glyph-name="z" unicode="z" horiz-adv-x="159" d="M93 770h66V-72H93"/><glyph glyph-name="{" unicode="{" horiz-adv-x="288" d="M22-148q58 0 83 30t25 103v260q0 34 24.5 58.5T217 334q-40 5-64 28.5T129 427v203q0 82-25 114.5T22 777v65q186 0 186-186V438q0-60 80-67v-75q-31 2-55-16.5T209 229V-38q0-81-39-126.5T22-210"/><glyph glyph-name="|" unicode="|" horiz-adv-x="396" d="M272 538q-33 18-57 34-3 2-15.5 10T178 594q-9 4-16 4-24 0-44-10.5T66 553l-11 27q29 30 55.5 47t56.5 17q15 0 31-8.5t40-25.5q18-14 30-20.5t21-6.5q41 0 95 49l12-29q-27-30-52-47.5T288 538"/><glyph glyph-name="~" unicode="~" horiz-adv-x="174" d="M165 535q9-9 9-16v-80q0-16-16-16h-44q-16 0-16 16v80q0 16 16 16h44m16-736H95l12 536h57"/><glyph horiz-adv-x="443" d="M239-5q-61 1-103 23T69 99q-25 59-25 167 0 109 24 168t66 80.5Q176 536 240 536v87h48v-88q70-5 148-28v-47q-65 14-175 14-49 0-78-16t-44.5-61.5Q123 351 123 263q0-84 16-129t46.5-61Q216 57 266 57q94 0 177 18V27q-43-16-77.5-23T286-5v-81h-47"/><glyph glyph-name="¡" unicode="¡" horiz-adv-x="544" d="M63 59l109 12v263l-109 6v42l109 10v126q0 123 52.5 171.5T384 738q60 0 148-10v-62H388q-48 0-77-11t-44-41.5Q252 583 252 525V392l214-7v-45l-214-6V71h292V0H63"/><glyph glyph-name="¢" unicode="¢" horiz-adv-x="531" d="M469 303l-32-43 94-94-37-37-94 94q-43-32-96-32t-96 32l-94-94-37 37 94 94q-31 44-31 96t31 96l-94 94 37 37 94-94q43 32 96 32t96-32l94 94 37-37-94-94q32-43 32-96M353 238q69 70 69 118 0 49-34.5 83.5T304 474q-48 0-82-34.5T188 356q0-48 34-83t82-35"/><glyph glyph-name="£" unicode="£" horiz-adv-x="567" d="M364 307h166v-47H342l-8-16v-63h196v-47H334V0h-80v134H79v47h175v63l-8 16H79v47h145L20 736h83l192-412 192 412h80"/><glyph glyph-name="¤" unicode="¤" horiz-adv-x="159" d="M93 770h66V429H93m0-173h66V-72H93"/><glyph glyph-name="¥" unicode="¥" horiz-adv-x="498" d="M265-6Q128-1 97 4v55h205q64 0 87 17.5t23 52.5v53q0 23-5.5 34.5t-22.5 16q-17 4.5-54 4.5H203q-79 0-114 23.5T54 343v53q0 44 16 64.5t52 30.5q-59 18-59 99v63q0 68 40.5 99.5T226 784q53 0 126-3t102-8v-54H236q-50 0-73.5-16T139 642v-49q0-33 18.5-44.5T220 537h126q59 0 92-11t46.5-34.5Q498 468 498 427v-52q0-42-15-63.5T433 283q33-8 44.5-32t11.5-61v-64q0-72-43.5-102T316-6m14 305q43 0 61 4t24.5 16q6.5 12 6.5 42v51q0 26-7.5 39t-27 18.5Q368 475 330 475H219q-51 0-70-13.5T130 410v-50q0-31 19-46t70-15"/><glyph glyph-name="¦" unicode="¦" horiz-adv-x="338" d="M84 653q-9 9-9 16v78q0 16 16 16h37q7 0 11-4.5t4-11.5v-78q0-7-4-11.5t-11-4.5H91m188 0q-9 9-9 16v78q0 16 16 16h37q7 0 11-4.5t4-11.5v-78q0-7-4-11.5t-11-4.5h-37"/><glyph glyph-name="§" unicode="§" horiz-adv-x="781" d="M225 0Q112 111 86 195T60 368q0 155 57 259.5T313 732h238q133 0 181.5-107T781 368q0-108-26.5-191.5t-78-130Q625 0 551 0H313m234 43q54 0 96.5 35.5T710 187q24 73 24 181 0 143-41.5 232T551 689H313q-91 0-148.5-74.5T107 361q0-82 23-154.5t69.5-118Q246 43 313 43m5 104q-81 96-81 218 0 218 151 218 35 0 86-5t89-14v-36q-43 6-89 9t-73 3q-58 0-87.5-41.5T284 362q0-87 27-129.5t89-42.5q91 0 169 16v-36q-41-14-82-18.5t-99-4.5"/><glyph glyph-name="¨" unicode="¨" horiz-adv-x="365" d="M32 531q62 51 122 51h133v49q0 37-21 54.5T187 703H64v41q64 13 146 14 75 0 111-29t36-94V360h-54l-13 44q-6-5-32.5-17T197 365.5q-34-9.5-64-9.5-45 0-73 25.5T32 451v33m150-80q55 14 77 21.5t28 10.5v117l-117-6q-38-1-56-18.5T96 482v-17q0-32 19.5-46.5T162 404M34 306h331v-42H34"/><glyph glyph-name="©" unicode="©" horiz-adv-x="564" d="M55 280l213 209 42-41-171-168 175-171-42-44m33 215l213 209 42-41-171-168 175-171-42-44"/><glyph glyph-name="ª" unicode="ª" horiz-adv-x="528" d="M528 509V203h-66v240H80v66"/><glyph glyph-name="«" unicode="«" horiz-adv-x="318" d="M25 323h293v-66H25"/><glyph glyph-name="¬" unicode="¬" horiz-adv-x="781" d="M225 0Q112 111 86 195T60 368q0 155 57 259.5T313 732h238q133 0 181.5-107T781 368q0-108-26.5-191.5t-78-130Q625 0 551 0H313m234 43q54 0 96.5 35.5T710 187q24 73 24 181 0 143-41.5 232T551 689H313q-91 0-148.5-74.5T107 361q0-82 23-154.5t69.5-118Q246 43 313 43m-44 537h181q58 0 92.5-28T577 450q0-47-15-71t-33-31q-18-7-48-13l102-182h-48L435 335l-119 4V153h-47m183 219q42 0 60 15t18 62q0 48-20 68t-58 20H316V372"/><glyph glyph-name="­" unicode="­" horiz-adv-x="320" d="M55 719h265v-47H55"/><glyph glyph-name="®" unicode="®" horiz-adv-x="296" d="M108 497q-74 74-74 132t37.5 95.5Q109 762 165 762q58 0 94.5-37.5T296 629q0-58-36.5-95T165 497m41 38q52 53 52 94t-26 68q-26 27-67 27t-67.5-27Q71 670 71 629t26.5-67.5Q124 535 165 535"/><glyph glyph-name="¯" unicode="¯" horiz-adv-x="528" d="M80 65725h448v-66H80M528 473H337V282h-66v191H80v66h191v191h66V539h191"/><glyph glyph-name="°" unicode="°" horiz-adv-x="415" d="M48 333l196 189q44 41 62.5 76.5T325 676q0 40-24.5 62T214 760H67v53l29 3q78 8 133 8 90 0 128-36.5T395 684q0-56-22-98.5T296 489L143 343h272v-63H48"/><glyph glyph-name="±" unicode="±" horiz-adv-x="394" d="M111 276l-70 11v53h175q52 0 80 16.5t28 59.5v33q0 37-26 54t-65 19l-137 5v51l134 5q42 2 64 17.5t22 48.5v34q0 77-105 77H59v53q73 12 179 11 72 0 109.5-34t37.5-94v-45q0-44-23.5-67.5T308 552q33-7 59.5-34.5T394 443v-36q0-63-41-97t-116-34"/><glyph glyph-name="²" unicode="²" horiz-adv-x="193" d="M126 767h67L68 631H22"/><glyph glyph-name="´" unicode="´" horiz-adv-x="558" d="M274 323q-9-6-29.5-9.5T195 311q-77 0-117.5 43T37 462v134q0 68 47 104t116 36h358v-59h-77V0h-56v679h-95v-949h-56m0 637v312h-71q-55 0-82.5-25.5T93 583V469q0-60 36-81t74-21"/><glyph glyph-name="µ" unicode="µ" horiz-adv-x="170" d="M102 332q-9 8-9 15v47q0 16 16 16h44q17 0 17-16v-47q0-15-17-15h-44"/><glyph glyph-name="¶" unicode="¶" horiz-adv-x="184" d="M184-58v-60q0-34-25-53t-71-19H55v33l22 2q28 3 42 13.5t14 31.5q0 19-14.5 31T67-66l52 79h37l-44-67"/><glyph glyph-name="·" unicode="·" horiz-adv-x="404" d="M404 341v-61H68v61h133v417L76 728v50l131 47h64V341"/><glyph glyph-name="¸" unicode="¸" horiz-adv-x="391" d="M278 757q75-34 94-77.5T391 556q0-80-18.5-123t-56-60Q279 356 215 356q-63 0-100.5 17.5t-56 60.5Q40 477 40 556q0 81 18.5 124.5t56 60Q152 757 215 757m38-349q44 21 56 53t12 96q0 64-12 96t-34 42q-22 10-60 10-39 0-60.5-10t-33-42Q110 621 110 557t11.5-96q11.5-32 33.5-42.5t60-10.5M49 306h333v-42H49"/><glyph glyph-name="¹" unicode="¹" horiz-adv-x="557" d="M52 108l171 169L49 447l43 42 215-212L93 65m209 43l171 169-174 170 43 42 215-212L343 65"/><glyph glyph-name="º" unicode="º" horiz-adv-x="1231" d="M796 770h58L479 0h-59m673 133H839l-11 46 196 361h71L905 191h188v126l17 64h50V191h71v-47l-71-11V1h-67M411 341v-61H75v61h133v417L83 728v50l131 47h64V341"/><glyph glyph-name="»" unicode="»" horiz-adv-x="1210" d="M796 770h58L479 0h-59m423 53l196 189q44 41 62.5 76.5T1120 396q0 40-24.5 62t-86.5 22H862v53l29 3q78 8 133 8 90 0 128-36.5t38-103.5q0-56-22-98.5t-77-96.5L938 63h272V0H843M411 341v-61H75v61h133v417L83 728v50l131 47h64V341"/><glyph glyph-name="¼" unicode="¼" horiz-adv-x="1231" d="M796 770h58L479 0h-59m673 133H839l-11 46 196 361h71L905 191h188v126l17 64h50V191h71v-47l-71-11V1h-67M121 276l-70 11v53h175q52 0 80 16.5t28 59.5v33q0 37-26 54t-65 19l-137 5v51l134 5q42 2 64 17.5t22 48.5v34q0 77-105 77H69v53q73 12 179 11 72 0 109.5-34t37.5-94v-45q0-44-23.5-67.5T318 552q33-7 59.5-34.5T404 443v-36q0-63-41-97t-116-34"/><glyph glyph-name="½" unicode="½" horiz-adv-x="486" d="M360 535q9-9 9-16v-80q0-16-16-16h-44q-16 0-16 16v80q0 16 16 16h44m8-357h-50q-83 0-118-25t-35-90V4q0-75 32-106.5T294-134q49 0 94 9t98 29v-56q-91-53-215-53-102 0-147.5 51.5T78-7v71q0 90 53.5 133.5T300 241v94h61"/><glyph glyph-name="¾" unicode="¾" horiz-adv-x="640" d="M286 736h102L640 0h-82l-74 210H188L116 0H34m430 282L337 666 208 282m-14 645h67l104-136h-46"/><glyph glyph-name="¿" unicode="¿" horiz-adv-x="640" d="M286 736h102L640 0h-82l-74 210H188L116 0H34m430 282L337 666 208 282m214 645h67L364 791h-46"/><glyph glyph-name="À" unicode="À" horiz-adv-x="640" d="M286 736h102L640 0h-82l-74 210H188L116 0H34m430 282L337 666 208 282m104 644h56l110-135h-48l-91 97-100-97h-49"/><glyph glyph-name="Á" unicode="Á" horiz-adv-x="640" d="M286 736h102L640 0h-82l-74 210H188L116 0H34m430 282L337 666 208 282m-42 580q56 52 95 52 23 0 41.5-8.5T348 881q21-14 36.5-21t31.5-7q26 0 43 16.5t18 46.5h40q-1-51-26-80t-70-29q-21 0-39.5 8T336 840q-23 14-39 21.5t-32 7.5q-25 0-41.5-16T206 807h-41"/><glyph glyph-name="Â" unicode="Â" horiz-adv-x="640" d="M286 736h102L640 0h-82l-74 210H188L116 0H34m430 282L337 666 208 282m-22 531q-9 9-9 16v78q0 16 16 16h37q7 0 11.5-4.5T246 907v-78q0-7-4.5-11.5T230 813h-37m229 0q-9 9-9 16v78q0 16 16 16h37q7 0 11-4.5t4-11.5v-78q0-7-4-11.5t-11-4.5h-37"/><glyph glyph-name="Ã" unicode="Ã" horiz-adv-x="640" d="M286 736h102L640 0h-82l-74 210H188L116 0H34m430 282L337 666 208 282m73 482q-55 48-55 106 0 59 28 83.5t84 24.5q56 0 83-24.5t27-83.5q0-58-27-82t-83-24m38 33q32 31 32 73t-16 58.5Q376 945 338 945t-55.5-16.5Q265 912 265 870q0-41 17.5-57t55.5-16"/></font>
</defs>
</svg>
