<svg xmlns="http://www.w3.org/2000/svg" width="80" height="80" viewBox="0 0 80 80">
<title>google-with-circle</title>
<path d="M40 1.6c-21.208 0-38.4 17.192-38.4 38.4s17.192 38.4 38.4 38.4 38.4-17.192 38.4-38.4-17.192-38.4-38.4-38.4zM37.788 56.484c-2.412 1.172-5.008 1.296-6.012 1.296-0.192 0-0.3 0-0.3 0s-0.092 0-0.216 0c-1.568 0-9.372-0.36-9.372-7.468 0-6.984 8.5-7.532 11.104-7.532h0.068c-1.504-2.008-1.192-4.032-1.192-4.032-0.132 0.008-0.324 0.016-0.56 0.016-0.98 0-2.872-0.156-4.496-1.204-1.992-1.28-3-3.46-3-6.476 0-8.524 9.308-8.868 9.4-8.876h9.296v0.204c0 1.040-1.868 1.244-3.14 1.416-0.432 0.064-1.3 0.148-1.544 0.272 2.356 1.26 2.736 3.236 2.736 6.18 0 3.352-1.312 5.124-2.704 6.368-0.864 0.772-1.54 1.376-1.54 2.188 0 0.796 0.928 1.608 2.008 2.556 1.764 1.556 4.184 3.672 4.184 7.244 0 3.692-1.588 6.332-4.72 7.848zM58 40h-6v6h-4v-6h-6v-4h6v-6h4v6h6v4zM32.892 44.6c-0.208 0-0.416 0.008-0.628 0.024-1.776 0.132-3.416 0.796-4.6 1.876-1.176 1.064-1.776 2.408-1.692 3.764 0.18 2.844 3.232 4.508 6.94 4.244 3.648-0.264 6.080-2.368 5.904-5.212-0.168-2.672-2.492-4.696-5.924-4.696zM36.388 29.14c-0.968-3.4-2.528-4.408-4.952-4.408-0.26 0-0.524 0.040-0.776 0.108-1.052 0.3-1.888 1.176-2.352 2.48-0.476 1.32-0.504 2.696-0.096 4.264 0.74 2.804 2.732 4.836 4.74 4.836 0.264 0 0.528-0.032 0.776-0.108 2.196-0.616 3.572-3.968 2.66-7.172z"></path>
</svg>
