<svg xmlns="http://www.w3.org/2000/svg" width="80" height="80" viewBox="0 0 80 80">
<title>vk-with-circle</title>
<path d="M40 1.6c-21.208 0-38.4 17.192-38.4 38.4s17.192 38.4 38.4 38.4 38.4-17.192 38.4-38.4-17.192-38.4-38.4-38.4zM54.768 44.924c0 0 3.396 3.352 4.232 4.908 0.024 0.032 0.036 0.064 0.044 0.080 0.34 0.572 0.42 1.016 0.252 1.348-0.28 0.552-1.24 0.824-1.568 0.848 0 0-5.832 0-6 0-0.416 0-1.288-0.108-2.344-0.836-0.812-0.568-1.612-1.5-2.392-2.408-1.164-1.352-2.172-2.52-3.188-2.52-0.128 0-0.26 0.020-0.38 0.060-0.768 0.248-1.752 1.344-1.752 4.264 0 0.912-0.72 1.436-1.228 1.436 0 0-2.62 0-2.748 0-0.936 0-5.812-0.328-10.132-4.884-5.288-5.58-10.048-16.772-10.088-16.876-0.3-0.724 0.32-1.112 0.996-1.112h6.060c0.808 0 1.072 0.492 1.256 0.928 0.216 0.508 1.008 2.528 2.308 4.8 2.108 3.704 3.4 5.208 4.436 5.208 0.196 0 0.376-0.052 0.556-0.144 1.352-0.752 1.1-5.572 1.040-6.572 0-0.188-0.004-2.156-0.696-3.1-0.496-0.684-1.34-0.944-1.852-1.040 0.132-0.196 0.428-0.496 0.796-0.676 0.928-0.464 2.6-0.532 4.26-0.532h0.924c1.8 0.024 2.264 0.14 2.916 0.304 1.32 0.316 1.348 1.168 1.232 4.084-0.036 0.828-0.072 1.764-0.072 2.868 0 0.24-0.012 0.496-0.012 0.768-0.040 1.484-0.088 3.168 0.96 3.86 0.136 0.084 0.292 0.132 0.456 0.132 0.364 0 1.46 0 4.428-5.092 1.3-2.248 2.308-4.9 2.38-5.096 0.060-0.104 0.236-0.424 0.444-0.548 0.164-0.096 0.384-0.116 0.496-0.116h7.124c0.776 0 1.308 0.116 1.408 0.416 0.176 0.476-0.032 1.928-3.284 6.332-0.548 0.728-1.032 1.364-1.452 1.916-2.948 3.864-2.948 4.060 0.184 6.992z"></path>
</svg>
