<?xml version="1.0" standalone="no"?>
<!DOCTYPE svg PUBLIC "-//W3C//DTD SVG 1.1//EN" "http://www.w3.org/Graphics/SVG/1.1/DTD/svg11.dtd" >
<svg xmlns="http://www.w3.org/2000/svg">
    <defs>
        <font id="Poppins-SemiBold">
            <font-face font-family="Poppins-SemiBold"
                       units-per-em="1000"
                       ascent="1050"
                       descent="-350"
                       bbox="-543 -593 2512 1091"
                    />
            <missing-glyph horiz-adv-x="0" />
            
            <glyph glyph-name="!" unicode="&#x21;" horiz-adv-x="259" d=" M259,735 L241,235 L122,235 L104,735 M258,147 L258,0 L106,0 L106,147"/> 
            <glyph glyph-name="&quot;" unicode="&#x22;" horiz-adv-x="329" d=" M160,799 L150,586 L55,586 L43,799 M329,799 L319,586 L224,586 L212,799"/> 
            <glyph glyph-name="#" unicode="&#x23;" horiz-adv-x="835" d=" M675,439 L645,302 L774,302 L774,174 L618,174 L581,0 L450,0 L487,174 L303,174 L266,0 L135,0 L172,174 L22,174 L22,302 L199,302 L229,439 L83,439 L83,567 L256,567 L293,740 L424,740 L387,567 L571,567 L608,740 L739,740 L702,567 L835,567 L835,439 M544,439 L360,439 L330,302 L514,302"/> 
            <glyph glyph-name="$" unicode="&#x24;" horiz-adv-x="573" d=" M349,407 Q420,385 465,364 Q510,343 541.5,301.5 Q573,260 573,193 Q573,139 545,93.5 Q517,48 461,20.5 Q405,-7 325,-7 L324,-7 L324,-87 L286,-87 L286,-5 Q182,4 116.5,59.5 Q51,115 44,204 L194,204 Q198,168 222,140.5 Q246,113 286,105 L286,301 L266,307 Q194,328 149.5,348.5 Q105,369 73.5,410.5 Q42,452 42,520 Q42,579 73.5,623 Q105,667 160.5,691 Q216,715 286,716 L286,800 L324,800 L324,715 Q428,708 489.5,654.5 Q551,601 559,518 L407,518 Q402,551 380.5,574.5 Q359,598 324,605 L324,415 M193,490 Q241,445 286,428 L286,608 Q242,606 217.5,585 Q193,564 193,526 M370,102 Q422,151 422,190 Q422,227 396.5,249.5 Q371,272 324,288 L324,101"/> 
            <glyph glyph-name="%" unicode="&#x25;" horiz-adv-x="721" d=" M257,717 Q346,632 346,557 Q346,482 301.5,439.5 Q257,397 187,397 Q117,397 72.5,439.5 Q28,482 28,557 Q28,632 72.5,674.5 Q117,717 187,717 M639,708 L246,0 L110,0 L503,708 M123,523 Q157,482 186,482 Q215,482 233,502.5 Q251,523 251,557 Q251,591 233,611.5 Q215,632 186,632 Q157,632 140,611.5 Q123,591 123,557 M633,311 Q721,226 721,151 Q721,76 677,33.5 Q633,-9 563,-9 Q493,-9 448.5,33.5 Q404,76 404,151 Q404,226 448.5,268.5 Q493,311 563,311 M499,116 Q533,75 562,75 Q591,75 609,95.5 Q627,116 627,151 Q627,185 609,206 Q591,227 562,227 Q533,227 516,206.5 Q499,186 499,151"/> 
            <glyph glyph-name="&amp;" unicode="&#x26;" horiz-adv-x="685" d=" M543,0 L435,126 Q427,106 421,95 Q403,49 358,21 Q313,-7 253,-7 Q186,-7 135.5,21 Q85,49 58,97.5 Q31,146 31,208 Q31,269 54.5,315 Q78,361 118.5,386.5 Q159,412 209,414 L197,432 Q177,460 166,487.5 Q155,515 155,549 Q155,592 177.5,629.5 Q200,667 244.5,690 Q289,713 351,713 Q440,713 488.5,673 Q537,633 551,570 Q561,540 561,506 L560,487 L429,487 Q429,512 427,521 Q426,557 407,576.5 Q388,596 354,596 Q323,596 305,578 Q287,560 287,534 Q287,511 296,494 Q305,477 326,452 L685,0 M297,111 Q352,164 352,206 Q352,250 320.5,279 Q289,308 246,308 Q205,308 178.5,283 Q152,258 152,212 Q152,166 181.5,138.5 Q211,111 254,111"/> 
            <glyph glyph-name="'" unicode="&#x27;" horiz-adv-x="164" d=" M164,799 L151,586 L56,586 L43,799"/> 
            <glyph glyph-name="(" unicode="&#x28;" horiz-adv-x="438" d=" M32,593 Q180,897 301,991 L438,991 L438,977 Q168,754 168,402 Q168,50 438,-173 L438,-186 L301,-186 Q180,-92 106,59.5 Q32,211 32,402"/> 
            <glyph glyph-name=")" unicode="&#x29;" horiz-adv-x="370" d=" M370,211 Q222,-93 101,-186 L-36,-186 L-36,-173 Q234,50 234,402 Q234,754 -36,977 L-36,991 L101,991 Q222,897 296,745.5 Q370,594 370,403"/> 
            <glyph glyph-name="*" unicode="&#x2A;" horiz-adv-x="448" d=" M398,687 L448,596 L317,549 L448,503 L395,409 L288,499 L311,360 L207,360 L229,499 L121,408 L66,503 L197,550 L68,596 L119,687 L229,599 L206,738 L311,738 L288,599"/> 
            <glyph glyph-name="+" unicode="&#x2B;" horiz-adv-x="538" d=" M538,291 L351,291 L351,101 L215,101 L215,291 L28,291 L28,420 L215,420 L215,611 L351,611 L351,420 L538,420"/> 
            <glyph glyph-name="," unicode="&#x2C;" horiz-adv-x="177" d=" M177,37 L177,-18 Q177,-80 144.5,-120 Q112,-160 44,-160 L44,-106 Q70,-106 82,-93.5 Q94,-81 94,-49 L94,-39 L30,-39 L30,91 L153,91"/> 
            <glyph glyph-name="-" unicode="&#x2D;" horiz-adv-x="423" d=" M679,415 L679,298 L254,298 L254,415"/> 
            <glyph glyph-name="." unicode="&#x2E;" horiz-adv-x="181" d=" M181,147 L181,0 L29,0 L29,147"/> 
            <glyph glyph-name="/" unicode="&#x2F;" horiz-adv-x="397" d=" M397,947 L126,-181 L-10,-181 L261,947"/> 
            <glyph glyph-name="0" unicode="&#x30;" horiz-adv-x="586" d=" M47,0 L317,0 Q460,0 523,96 Q586,192 586,359 Q586,525 523,621 Q460,717 317,717 Q47,717 47,359 M447,250 Q394,133 317,133 Q239,133 212.5,191.5 Q186,250 186,359 Q186,467 212.5,525.5 Q239,584 317,584 Q394,584 420.5,525.5 Q447,467 447,359"/> 
            <glyph glyph-name="1" unicode="&#x31;" horiz-adv-x="266" d=" M12,574 L12,706 L266,706 L266,0 L118,0 L118,574"/> 
            <glyph glyph-name="2" unicode="&#x32;" horiz-adv-x="534" d=" M376,346 L376,501 Q376,548 353.5,575 Q331,602 283,602 Q184,602 178,467 L41,467 Q47,592 117,656.5 Q187,721 294,721 Q403,721 461.5,664.5 Q520,608 520,514 Q520,440 476.5,365.5 Q433,291 366,228.5 Q299,166 225,121 L534,121 L534,6 L37,6 L37,111"/> 
            <glyph glyph-name="3" unicode="&#x33;" horiz-adv-x="542" d=" M373,733 Q476,683 502.5,639 Q529,595 529,541 Q529,473 492,429.5 Q455,386 394,376 L394,371 Q542,327 542,197 Q542,106 481,49.5 Q420,-7 309,-7 Q191,-7 121,51.5 Q51,110 43,228 L181,228 Q186,174 216.5,142.5 Q247,111 303,111 Q351,111 378,137.5 Q405,164 405,207 Q405,258 366,285 Q327,312 251,312 L222,312 L222,427 L251,427 Q391,425 391,524 Q391,567 366,591.5 Q341,616 298,616 Q253,616 224,587.5 Q195,559 191,508 L53,508 Q59,616 123,674.5 Q187,733 301,733"/> 
            <glyph glyph-name="4" unicode="&#x34;" horiz-adv-x="620" d=" M39,142 L39,259 L377,714 L528,714 L528,264 L620,264 L620,142 L528,142 L528,0 L386,0 L386,142 M397,549 L183,264 L397,264"/> 
            <glyph glyph-name="5" unicode="&#x35;" horiz-adv-x="587" d=" M552,596 L217,596 L217,418 Q240,445 280.5,461.5 Q321,478 370,478 Q443,478 491.5,446.5 Q540,415 563.5,362.5 Q587,310 587,246 Q587,133 523.5,65 Q460,-3 342,-3 Q265,-3 208,24.5 Q151,52 119,101.5 Q87,151 84,217 L221,217 Q229,172 258,145.5 Q287,119 335,119 Q393,119 421.5,154.5 Q450,190 450,249 Q450,305 420,336 Q390,367 335,367 Q295,367 267,349.5 Q239,332 226,303 L89,303 L89,720 L552,720"/> 
            <glyph glyph-name="6" unicode="&#x36;" horiz-adv-x="575" d=" M405,618 L315,618 Q245,618 213,556.5 Q181,495 185,364 Q201,412 247.5,440.5 Q294,469 356,469 Q458,469 516.5,407.5 Q575,346 575,233 Q575,163 547,109 Q519,55 463.5,24 Q408,-7 329,-7 Q175,-7 117,88.5 Q59,184 59,352 Q59,545 121.5,638 Q184,731 324,731 Q431,731 488,670 Q545,609 553,514 L421,514 M197,187 Q262,114 325,114 Q379,114 411,146 Q443,178 443,235 Q443,295 410.5,327 Q378,359 323,359 Q271,359 234,329 Q197,299 197,243"/> 
            <glyph glyph-name="7" unicode="&#x37;" horiz-adv-x="486" d=" M486,607 L228,0 L82,0 L343,591 L16,591 L16,712 L486,712"/> 
            <glyph glyph-name="8" unicode="&#x38;" horiz-adv-x="586" d=" M68,596 Q125,684 181.5,711 Q238,738 318,738 Q398,738 454.5,711 Q511,684 539.5,640 Q568,596 568,545 Q568,487 540,446.5 Q512,406 456,386 Q519,362 552.5,316.5 Q586,271 586,206 Q586,136 551,85.5 Q516,35 455.5,9 Q395,-17 318,-17 Q241,-17 180.5,9 Q120,35 85.5,85.5 Q51,136 51,206 Q51,271 84.5,316.5 Q118,362 181,386 Q125,406 96.5,447 Q68,488 68,545 M207,474 Q267,422 318,422 Q370,422 400,448 Q430,474 430,522 Q430,570 399.5,596.5 Q369,623 318,623 Q268,623 237.5,596.5 Q207,570 207,522 M188,161 Q258,99 318,99 Q378,99 413.5,130 Q449,161 449,214 Q449,268 412.5,296.5 Q376,325 318,325 Q261,325 224.5,296.5 Q188,268 188,214"/> 
            <glyph glyph-name="9" unicode="&#x39;" horiz-adv-x="558" d=" M212,106 L304,106 Q374,106 405,167.5 Q436,229 432,360 Q416,312 369.5,283.5 Q323,255 261,255 Q159,255 100.5,316.5 Q42,378 42,491 Q42,560 70,614.5 Q98,669 153.5,700 Q209,731 288,731 Q442,731 500,637.5 Q558,544 558,378 Q558,189 499.5,91 Q441,-7 304,-7 Q231,-7 178.5,22 Q126,51 97.5,100.5 Q69,150 64,210 L196,210 M420,537 Q355,610 292,610 Q238,610 206,578 Q174,546 174,489 Q174,429 206.5,396.5 Q239,364 294,364 Q345,364 382.5,394.5 Q420,425 420,481"/> 
            <glyph glyph-name=":" unicode="&#x3A;" horiz-adv-x="202" d=" M202,563 L202,416 L50,416 L50,563 M202,147 L202,0 L50,0 L50,147"/> 
            <glyph glyph-name=";" unicode="&#x3B;" horiz-adv-x="244" d=" M243,558 L243,411 L91,411 L91,558 M244,37 L244,-18 Q244,-80 211.5,-120 Q179,-160 111,-160 L111,-106 Q137,-106 149,-93.5 Q161,-81 161,-49 L161,-39 L97,-39 L97,91 L220,91"/> 
            <glyph glyph-name="&lt;" unicode="&#x3C;" horiz-adv-x="423" d=" M246,132 L28,356 L246,581 L423,581 L204,356 L423,132"/> 
            <glyph glyph-name="=" unicode="&#x3D;" horiz-adv-x="573" d=" M573,539 L573,411 L28,411 L28,539 M573,300 L573,173 L28,173 L28,300"/> 
            <glyph glyph-name="&gt;" unicode="&#x3E;" horiz-adv-x="423" d=" M28,581 L204,581 L423,356 L204,132 L28,132 L246,356"/> 
            <glyph glyph-name="?" unicode="&#x3F;" horiz-adv-x="488" d=" M364,748 Q488,640 488,541 Q488,441 424.5,388 Q361,335 254,333 L254,232 L121,232 L121,425 L178,425 Q259,425 304,449.5 Q349,474 349,540 Q349,584 324,608.5 Q299,633 257,633 Q211,633 184,606.5 Q157,580 157,538 L24,538 Q22,598 50,645.5 Q78,693 132.5,720.5 Q187,748 262,748 M265,147 L265,0 L113,0 L113,147"/> 
            <glyph glyph-name="@" unicode="&#x40;" horiz-adv-x="1188" d=" M834,809 Q1065,700 1126.5,596.5 Q1188,493 1188,349 Q1188,250 1148.5,168 Q1109,86 1043,39 Q977,-8 901,-8 Q834,-8 792.5,23 Q751,54 745,120 Q711,58 660.5,25 Q610,-8 538,-8 Q476,-8 428.5,21.5 Q381,51 354.5,104.5 Q328,158 328,228 Q328,250 329,261 Q335,347 377.5,415.5 Q420,484 489.5,522.5 Q559,561 643,561 Q752,561 816.5,502.5 Q881,444 881,344 Q881,323 878,300 L862,192 Q860,174 860,168 Q860,139 872.5,127 Q885,115 911,115 Q946,115 976.5,141.5 Q1007,168 1026,219.5 Q1045,271 1045,344 Q1045,449 1000,528 Q955,607 867.5,650.5 Q780,694 654,694 Q506,694 399.5,633 Q293,572 238,466 Q183,360 183,229 Q183,47 290.5,-52.5 Q398,-152 604,-152 L578,-267 Q408,-265 289,-206 Q170,-147 108,-36.5 Q46,74 46,229 Q46,402 129,533.5 Q212,665 355.5,737 Q499,809 675,809 M744,372 Q676,439 619,439 Q577,439 541.5,416.5 Q506,394 485,351 Q464,308 464,249 Q464,185 498.5,150 Q533,115 586,115 Q627,115 663,137.5 Q699,160 721.5,203.5 Q744,247 744,309"/> 
            <glyph glyph-name="A" unicode="&#x41;" horiz-adv-x="692" d=" M494,142 L211,142 L161,0 L12,0 L272,698 L433,698 L692,0 L543,0 M456,249 L352,547 L248,249"/> 
            <glyph glyph-name="B" unicode="&#x42;" horiz-adv-x="599" d=" M522,351 Q599,256 599,192 Q599,103 539.5,51.5 Q480,0 367,0 L64,0 L64,706 L361,706 Q468,706 525.5,659 Q583,612 583,527 Q583,461 548.5,419 Q514,377 458,364 M205,410 L332,410 Q385,410 412.5,433.5 Q440,457 440,501 Q440,545 413,569 Q386,593 330,593 L205,593 M395,115 Q455,164 455,211 Q455,258 424.5,283.5 Q394,309 338,309 L205,309 L205,115 L339,115"/> 
            <glyph glyph-name="C" unicode="&#x43;" horiz-adv-x="717" d=" M515,713 Q689,577 717,460 L569,460 Q546,517 497.5,550 Q449,583 381,583 Q325,583 280,555 Q235,527 210,475 Q185,423 185,353 Q185,284 210,232 Q235,180 280,152 Q325,124 381,124 Q449,124 497.5,157 Q546,190 569,247 L717,247 Q689,130 602,62 Q515,-6 383,-6 Q282,-6 204.5,39.5 Q127,85 84.5,167 Q42,249 42,353 Q42,458 84.5,540 Q127,622 204,667.5 Q281,713 383,713"/> 
            <glyph glyph-name="D" unicode="&#x44;" horiz-adv-x="685" d=" M685,249 Q597,89 513.5,44.5 Q430,0 315,0 L64,0 L64,706 L315,706 Q430,706 513.5,662.5 Q597,619 641,539.5 Q685,460 685,354 M417,126 Q542,246 542,354 Q542,463 479.5,523 Q417,583 303,583 L205,583 L205,126 L303,126"/> 
            <glyph glyph-name="E" unicode="&#x45;" horiz-adv-x="485" d=" M205,594 L205,411 L455,411 L455,303 L205,303 L205,113 L485,113 L485,0 L64,0 L64,706 L485,706 L485,594"/> 
            <glyph glyph-name="F" unicode="&#x46;" horiz-adv-x="502" d=" M502,706 L502,594 L205,594 L205,405 L443,405 L443,297 L205,297 L205,0 L64,0 L64,706"/> 
            <glyph glyph-name="G" unicode="&#x47;" horiz-adv-x="726" d=" M520,713 Q690,586 714,478 L566,478 Q545,526 499.5,554.5 Q454,583 392,583 Q331,583 284,555 Q237,527 211,475 Q185,423 185,353 Q185,242 244.5,180 Q304,118 407,118 Q483,118 537.5,163 Q592,208 608,288 L369,288 L369,389 L726,389 L726,253 Q711,183 667.5,124 Q624,65 553.5,29.5 Q483,-6 392,-6 Q288,-6 208.5,39.5 Q129,85 85.5,166.5 Q42,248 42,353 Q42,458 85.5,539.5 Q129,621 208,667 Q287,713 391,713"/> 
            <glyph glyph-name="H" unicode="&#x48;" horiz-adv-x="649" d=" M649,706 L649,0 L507,0 L507,307 L205,307 L205,0 L64,0 L64,706 L205,706 L205,420 L507,420 L507,706"/> 
            <glyph glyph-name="I" unicode="&#x49;" horiz-adv-x="205" d=" M205,706 L205,0 L64,0 L64,706"/> 
            <glyph glyph-name="J" unicode="&#x4A;" horiz-adv-x="465" d=" M465,706 L465,208 Q465,106 408.5,49.5 Q352,-7 252,-7 Q144,-7 81,55 Q18,117 18,232 L157,232 Q157,178 179.5,149 Q202,120 246,120 Q286,120 305,143.5 Q324,167 324,208 L324,706"/> 
            <glyph glyph-name="K" unicode="&#x4B;" horiz-adv-x="637" d=" M338,359 L637,0 L466,0 L205,323 L205,0 L64,0 L64,706 L205,706 L205,389 L467,706 L637,706"/> 
            <glyph glyph-name="L" unicode="&#x4C;" horiz-adv-x="442" d=" M205,108 L442,108 L442,0 L64,0 L64,706 L205,706"/> 
            <glyph glyph-name="M" unicode="&#x4D;" horiz-adv-x="825" d=" M825,698 L825,0 L685,0 L685,487 L506,0 L384,0 L205,485 L205,0 L64,0 L64,698 L235,698 L447,173 L655,698"/> 
            <glyph glyph-name="N" unicode="&#x4E;" horiz-adv-x="662" d=" M662,0 L521,0 L205,480 L205,0 L64,0 L64,706 L205,706 L521,222 L521,706 L662,706"/> 
            <glyph glyph-name="O" unicode="&#x4F;" horiz-adv-x="748" d=" M494,716 Q655,624 701.5,541.5 Q748,459 748,355 Q748,251 701.5,168 Q655,85 574.5,39 Q494,-7 395,-7 Q296,-7 215.5,39 Q135,85 88.5,168 Q42,251 42,355 Q42,459 88.5,541.5 Q135,624 215.5,670 Q296,716 395,716 M333,586 Q239,530 212.5,477.5 Q186,425 186,355 Q186,285 212.5,232.5 Q239,180 286,152 Q333,124 395,124 Q457,124 504,152 Q551,180 577.5,232.5 Q604,285 604,355 Q604,425 577.5,477.5 Q551,530 504,558 Q457,586 395,586"/> 
            <glyph glyph-name="P" unicode="&#x50;" horiz-adv-x="573" d=" M205,262 L205,0 L64,0 L64,706 L321,706 Q446,706 509.5,646 Q573,586 573,483 Q573,382 507.5,322 Q442,262 321,262 M430,375 L430,483 Q430,536 401,564 Q372,592 306,592 L205,592 L205,375 L306,375"/> 
            <glyph glyph-name="Q" unicode="&#x51;" horiz-adv-x="764" d=" M593,-129 L483,3 Q443,-7 395,-7 Q296,-7 215.5,39 Q135,85 88.5,168 Q42,251 42,355 Q42,459 88.5,541.5 Q135,624 215.5,670 Q296,716 395,716 Q494,716 574.5,670 Q655,624 701.5,541.5 Q748,459 748,355 Q748,258 708,179.5 Q668,101 597,53 L764,-129 M186,285 Q239,180 286,152 Q333,124 395,124 Q457,124 504,152 Q551,180 577.5,232.5 Q604,285 604,355 Q604,425 577.5,477.5 Q551,530 504,558 Q457,586 395,586 Q333,586 286,558 Q239,530 212.5,477.5 Q186,425 186,355"/> 
            <glyph glyph-name="R" unicode="&#x52;" horiz-adv-x="588" d=" M432,0 L267,275 L205,275 L205,0 L64,0 L64,706 L333,706 Q456,706 520.5,646 Q585,586 585,488 Q585,408 540.5,354 Q496,300 412,282 L588,0 M205,372 L321,372 Q442,372 442,479 Q442,530 412.5,558.5 Q383,587 321,587 L205,587"/> 
            <glyph glyph-name="S" unicode="&#x53;" horiz-adv-x="549" d=" M549,139 Q495,48 442,20.5 Q389,-7 313,-7 Q238,-7 179,18.5 Q120,44 84.5,92 Q49,140 44,204 L194,204 Q199,161 228.5,132.5 Q258,104 307,104 Q351,104 374.5,127.5 Q398,151 398,188 Q398,221 379,242.5 Q360,264 331,277 Q302,290 251,307 Q185,329 143,350.5 Q101,372 71.5,413 Q42,454 42,520 Q42,611 107.5,663.5 Q173,716 281,716 Q393,716 459.5,662 Q526,608 535,518 L383,518 Q377,556 351,580.5 Q325,605 280,605 Q241,605 217,584.5 Q193,564 193,525 Q193,494 211.5,473.5 Q230,453 258.5,440 Q287,427 336,411 Q404,387 446.5,366 Q489,345 519,303 Q549,261 549,193"/> 
            <glyph glyph-name="T" unicode="&#x54;" horiz-adv-x="544" d=" M544,706 L544,594 L349,594 L349,0 L208,0 L208,594 L14,594 L14,706"/> 
            <glyph glyph-name="U" unicode="&#x55;" horiz-adv-x="623" d=" M200,706 L200,292 Q200,209 236.5,167.5 Q273,126 342,126 Q410,126 446.5,167.5 Q483,209 483,292 L483,706 L623,706 L623,292 Q623,194 586.5,126.5 Q550,59 485.5,26 Q421,-7 339,-7 Q212,-7 136,69 Q60,145 60,292 L60,706"/> 
            <glyph glyph-name="V" unicode="&#x56;" horiz-adv-x="693" d=" M163,706 L352,147 L542,706 L693,706 L443,0 L262,0 L12,706"/> 
            <glyph glyph-name="W" unicode="&#x57;" horiz-adv-x="990" d=" M990,706 L817,0 L643,0 L511,512 L378,0 L205,0 L32,706 L185,706 L293,159 L433,706 L588,706 L729,159 L837,706"/> 
            <glyph glyph-name="X" unicode="&#x58;" horiz-adv-x="646" d=" M479,0 L320,241 L179,0 L18,0 L240,361 L12,706 L179,706 L335,470 L474,706 L635,706 L414,351 L646,0"/> 
            <glyph glyph-name="Y" unicode="&#x59;" horiz-adv-x="633" d=" M633,706 L394,247 L394,0 L252,0 L252,247 L12,706 L174,706 L324,397 L474,706"/> 
            <glyph glyph-name="Z" unicode="&#x5A;" horiz-adv-x="529" d=" M200,114 L529,114 L529,0 L44,0 L44,108 L366,593 L49,593 L49,706 L525,706 L525,598"/> 
            <glyph glyph-name="[" unicode="&#x5B;" horiz-adv-x="358" d=" M358,947 L358,833 L224,833 L224,-67 L358,-67 L358,-181 L91,-181 L91,947"/> 
            <glyph glyph-name="\" unicode="&#x5C;" horiz-adv-x="553" d=" M418,-181 L132,947 L268,947 L553,-181"/> 
            <glyph glyph-name="]" unicode="&#x5D;" horiz-adv-x="315" d=" M48,-181 L48,-67 L183,-67 L183,833 L48,833 L48,947 L315,947 L315,-181"/> 
            <glyph glyph-name="^" unicode="&#x5E;" horiz-adv-x="645" d=" M171,167 L31,167 L271,700 L406,700 L645,167 L505,167 L339,537"/> 
            <glyph glyph-name="_" unicode="&#x5F;" horiz-adv-x="632" d=" M632,-37 L632,-174 L45,-174 L45,-37"/> 
            <glyph glyph-name="`" unicode="&#x60;" horiz-adv-x="252" d=" M252,692 L252,596 L22,704 L22,812"/> 
            <glyph glyph-name="a" unicode="&#x61;" horiz-adv-x="612" d=" M351,561 Q451,495 472,439 L472,554 L612,554 L612,0 L472,0 L472,116 Q451,60 401,26.5 Q351,-7 281,-7 Q211,-7 155,27 Q99,61 67.5,125.5 Q36,190 36,277 Q36,364 67.5,428.5 Q99,493 155,527 Q211,561 281,561 M259,438 Q179,352 179,277 Q179,202 219,159.5 Q259,117 325,117 Q389,117 430.5,160.5 Q472,204 472,277 Q472,351 430.5,394.5 Q389,438 325,438"/> 
            <glyph glyph-name="b" unicode="&#x62;" horiz-adv-x="640" d=" M465,561 Q577,493 608.5,428.5 Q640,364 640,277 Q640,190 608.5,125.5 Q577,61 521,27 Q465,-7 395,-7 Q325,-7 275.5,26.5 Q226,60 205,116 L205,0 L64,0 L64,740 L205,740 L205,439 Q226,495 275.5,528 Q325,561 395,561 M287,438 Q204,351 204,277 Q204,204 245.5,160.5 Q287,117 351,117 Q417,117 457,159.5 Q497,202 497,277 Q497,352 457,395 Q417,438 351,438"/> 
            <glyph glyph-name="c" unicode="&#x63;" horiz-adv-x="581" d=" M420,561 Q563,445 581,345 L432,345 Q423,389 391,414.5 Q359,440 310,440 Q254,440 216.5,398.5 Q179,357 179,277 Q179,197 216.5,155.5 Q254,114 310,114 Q359,114 391,139.5 Q423,165 432,209 L581,209 Q563,109 491.5,51 Q420,-7 313,-7 Q232,-7 169,27.5 Q106,62 71,126 Q36,190 36,277 Q36,364 71,428.5 Q106,493 169,527 Q232,561 313,561"/> 
            <glyph glyph-name="d" unicode="&#x64;" horiz-adv-x="612" d=" M351,561 Q450,495 472,439 L472,740 L612,740 L612,0 L472,0 L472,116 Q450,60 400.5,26.5 Q351,-7 281,-7 Q211,-7 155,27 Q99,61 67.5,125.5 Q36,190 36,277 Q36,364 67.5,428.5 Q99,493 155,527 Q211,561 281,561 M259,438 Q179,352 179,277 Q179,202 219,159.5 Q259,117 325,117 Q389,117 430.5,160.5 Q472,204 472,277 Q472,351 430.5,394.5 Q389,438 325,438"/> 
            <glyph glyph-name="e" unicode="&#x65;" horiz-adv-x="585" d=" M585,277 L580,250 L174,250 Q177,176 214,141 Q251,106 306,106 Q355,106 387.5,130 Q420,154 429,195 L578,195 Q567,137 531,91 Q495,45 438.5,19 Q382,-7 313,-7 Q232,-7 169,27.5 Q106,62 71,126 Q36,190 36,277 Q36,364 71,428.5 Q106,493 169,527 Q232,561 313,561 Q395,561 456.5,527 Q518,493 551.5,433.5 Q585,374 585,298 M446,380 Q369,450 313,450 Q256,450 217,415 Q178,380 174,312 L443,312"/> 
            <glyph glyph-name="f" unicode="&#x66;" horiz-adv-x="338" d=" M276,654 Q226,610 226,555 L226,554 L338,554 L338,435 L226,435 L226,0 L85,0 L85,435 L14,435 L14,554 L85,554 L85,567 Q85,666 141.5,719.5 Q198,773 309,773 Q328,773 338,772 L338,650"/> 
            <glyph glyph-name="g" unicode="&#x67;" horiz-adv-x="612" d=" M351,561 Q451,495 472,439 L472,554 L612,554 L612,-2 Q612,-79 581.5,-140.5 Q551,-202 490.5,-237 Q430,-272 344,-272 Q224,-272 150,-215 Q76,-158 60,-60 L199,-60 Q211,-102 245.5,-125.5 Q280,-149 334,-149 Q396,-149 434,-112.5 Q472,-76 472,-2 L472,116 Q451,60 401,26.5 Q351,-7 281,-7 Q211,-7 155,27 Q99,61 67.5,125.5 Q36,190 36,277 Q36,364 67.5,428.5 Q99,493 155,527 Q211,561 281,561 M259,438 Q179,352 179,277 Q179,202 219,159.5 Q259,117 325,117 Q389,117 430.5,160.5 Q472,204 472,277 Q472,351 430.5,394.5 Q389,438 325,438"/> 
            <glyph glyph-name="h" unicode="&#x68;" horiz-adv-x="604" d=" M490,562 Q604,436 604,322 L604,0 L464,0 L464,306 Q464,372 430,408.5 Q396,445 337,445 Q277,445 241,406 Q205,367 205,294 L205,0 L64,0 L64,740 L205,740 L205,443 Q227,499 277.5,530.5 Q328,562 394,562"/> 
            <glyph glyph-name="i" unicode="&#x69;" horiz-adv-x="222" d=" M48,747 Q96,790 135,790 Q174,790 198,768.5 Q222,747 222,713 Q222,680 198,658.5 Q174,637 135,637 Q96,637 72,658.5 Q48,680 48,713 M205,554 L205,0 L64,0 L64,554"/> 
            <glyph glyph-name="j" unicode="&#x6A;" horiz-adv-x="225" d=" M99,637 Q51,680 51,713 Q51,747 75,768.5 Q99,790 138,790 Q177,790 201,768 Q225,746 225,713 Q225,680 201,658.5 Q177,637 138,637 M-30,-142 L10,-142 Q41,-142 54.5,-129 Q68,-116 68,-84 L68,554 L209,554 L209,-84 Q209,-264 28,-264 L-30,-264"/> 
            <glyph glyph-name="k" unicode="&#x6B;" horiz-adv-x="560" d=" M388,0 L205,242 L205,0 L64,0 L64,740 L205,740 L205,324 L387,554 L554,554 L321,278 L560,0"/> 
            <glyph glyph-name="l" unicode="&#x6C;" horiz-adv-x="205" d=" M205,740 L205,0 L64,0 L64,740"/> 
            <glyph glyph-name="m" unicode="&#x6D;" horiz-adv-x="987" d=" M870,562 Q987,437 987,322 L987,0 L847,0 L847,306 Q847,370 814.5,404.5 Q782,439 725,439 Q666,439 631,402 Q596,365 596,294 L596,0 L456,0 L456,306 Q456,370 423.5,404.5 Q391,439 334,439 Q275,439 240,402 Q205,365 205,294 L205,0 L64,0 L64,554 L205,554 L205,449 Q227,503 274.5,532.5 Q322,562 385,562 Q452,562 501.5,530 Q551,498 576,438 Q602,495 653.5,528.5 Q705,562 769,562"/> 
            <glyph glyph-name="n" unicode="&#x6E;" horiz-adv-x="604" d=" M490,562 Q604,436 604,322 L604,0 L464,0 L464,306 Q464,372 430,408.5 Q396,445 337,445 Q277,445 241,406 Q205,367 205,294 L205,0 L64,0 L64,554 L205,554 L205,443 Q227,499 277.5,530.5 Q328,562 394,562"/> 
            <glyph glyph-name="o" unicode="&#x6F;" horiz-adv-x="604" d=" M401,561 Q530,493 567,428.5 Q604,364 604,277 Q604,190 567,126 Q530,62 465.5,27.5 Q401,-7 320,-7 Q239,-7 174.5,27.5 Q110,62 73,126 Q36,190 36,277 Q36,364 73,428.5 Q110,493 174.5,527 Q239,561 320,561 M261,439 Q179,356 179,277 Q179,198 220,156.5 Q261,115 320,115 Q379,115 420,156.5 Q461,198 461,277 Q461,356 420,397.5 Q379,439 320,439"/> 
            <glyph glyph-name="p" unicode="&#x70;" horiz-adv-x="640" d=" M465,561 Q577,493 608.5,428.5 Q640,364 640,277 Q640,190 608.5,125.5 Q577,61 521,27 Q465,-7 395,-7 Q325,-7 275.5,26.5 Q226,60 205,116 L205,-264 L64,-264 L64,554 L205,554 L205,439 Q226,495 275.5,528 Q325,561 395,561 M287,438 Q204,351 204,277 Q204,204 245.5,160.5 Q287,117 351,117 Q417,117 457,159.5 Q497,202 497,277 Q497,352 457,395 Q417,438 351,438"/> 
            <glyph glyph-name="q" unicode="&#x71;" horiz-adv-x="612" d=" M355,560 Q447,505 472,455 L472,554 L612,554 L612,-264 L472,-264 L472,107 Q445,53 399.5,23.5 Q354,-6 291,-6 Q220,-6 162,29 Q104,64 70,128 Q36,192 36,275 Q36,359 70,423.5 Q104,488 162,524 Q220,560 291,560 M262,437 Q179,352 179,275 Q179,198 220.5,157.5 Q262,117 325,117 Q364,117 398,135.5 Q432,154 452,190 Q472,226 472,277 Q472,328 452,364 Q432,400 398.5,418.5 Q365,437 325,437"/> 
            <glyph glyph-name="r" unicode="&#x72;" horiz-adv-x="401" d=" M236,501 Q338,562 401,562 L401,411 L360,411 Q205,411 205,267 L205,0 L64,0 L64,554 L205,554 L205,448"/> 
            <glyph glyph-name="s" unicode="&#x73;" horiz-adv-x="500" d=" M356,561 Q478,459 493,374 L361,374 Q353,414 325,438 Q297,462 252,462 Q216,462 196,445 Q176,428 176,399 Q176,376 192,362 Q208,348 232,340 Q256,332 301,321 Q364,307 403.5,291.5 Q443,276 471.5,242.5 Q500,209 500,152 Q500,81 444.5,37 Q389,-7 295,-7 Q187,-7 122,41.5 Q57,90 43,180 L178,180 Q183,139 214,115.5 Q245,92 295,92 Q331,92 350,109.5 Q369,127 369,155 Q369,179 352.5,194 Q336,209 311.5,217 Q287,225 242,236 Q180,250 141.5,264.5 Q103,279 75.5,311 Q48,343 48,399 Q48,471 103,516 Q158,561 255,561"/> 
            <glyph glyph-name="t" unicode="&#x74;" horiz-adv-x="360" d=" M360,121 L360,0 L286,0 Q193,0 143.5,45 Q94,90 94,195 L94,435 L17,435 L17,554 L94,554 L94,691 L235,691 L235,554 L359,554 L359,435 L235,435 L235,193 Q235,153 251,137 Q267,121 305,121"/> 
            <glyph glyph-name="u" unicode="&#x75;" horiz-adv-x="594" d=" M594,554 L594,0 L453,0 L453,112 Q431,56 380.5,24.5 Q330,-7 264,-7 Q168,-7 111,56 Q54,119 54,232 L54,554 L194,554 L194,248 Q194,182 228,145.5 Q262,109 320,109 Q381,109 417,148 Q453,187 453,260 L453,554"/> 
            <glyph glyph-name="v" unicode="&#x76;" horiz-adv-x="595" d=" M305,141 L445,554 L595,554 L390,0 L218,0 L13,554 L164,554"/> 
            <glyph glyph-name="w" unicode="&#x77;" horiz-adv-x="857" d=" M857,554 L708,0 L552,0 L433,403 L311,0 L155,0 L7,554 L148,554 L238,126 L361,554 L510,554 L634,126 L725,554"/> 
            <glyph glyph-name="x" unicode="&#x78;" horiz-adv-x="559" d=" M401,0 L275,178 L169,0 L14,0 L197,289 L10,554 L168,554 L291,379 L397,554 L552,554 L366,273 L559,0"/> 
            <glyph glyph-name="y" unicode="&#x79;" horiz-adv-x="605" d=" M159,554 L310,178 L450,554 L605,554 L266,-264 L110,-264 L235,16 L2,554"/> 
            <glyph glyph-name="z" unicode="&#x7A;" horiz-adv-x="450" d=" M178,118 L450,118 L450,0 L24,0 L24,112 L279,437 L30,437 L30,554 L440,554 L440,443"/> 
            <glyph glyph-name="{" unicode="&#x7B;" horiz-adv-x="393" d=" M226,360 Q282,286 282,228 Q282,198 272,140 Q268,116 264.5,87.5 Q261,59 261,32 Q261,-59 299.5,-120 Q338,-181 393,-206 L393,-217 L260,-217 Q235,-204 206,-174.5 Q177,-145 154,-92 Q131,-39 131,36 Q131,71 136,103.5 Q141,136 142,142 Q152,202 152,232 Q152,329 50,346 L50,398 Q152,414 152,512 Q152,542 142,602 Q141,608 136,640.5 Q131,673 131,708 Q131,783 154,836 Q177,889 206,918.5 Q235,948 260,961 L393,961 L393,950 Q338,925 299.5,864 Q261,803 261,712 Q261,685 264.5,657 Q268,629 272,605 Q282,547 282,516 Q282,396 169,373 L169,371"/> 
            <glyph glyph-name="|" unicode="&#x7C;" horiz-adv-x="187" d=" M187,-121 L46,-121 L46,808 L187,808"/> 
            <glyph glyph-name="}" unicode="&#x7D;" horiz-adv-x="379" d=" M149,396 L149,504 Q149,531 153,558.5 Q157,586 158,593 Q169,652 169,700 Q169,760 150.5,811.5 Q132,863 102,898.5 Q72,934 38,950 L38,961 L169,961 Q194,948 223,918.5 Q252,889 275,836 Q298,783 298,708 Q298,673 293,640.5 Q288,608 287,602 Q277,542 277,512 Q277,470 299.5,437.5 Q322,405 379,398 L379,346 Q322,340 299.5,307 Q277,274 277,232 Q277,202 287,142 Q288,136 293,103.5 Q298,71 298,36 Q298,-39 275,-92 Q252,-145 223,-174.5 Q194,-204 169,-217 L38,-217 L38,-206 Q72,-190 102,-154.5 Q132,-119 150.5,-67.5 Q169,-16 169,44 Q169,93 158,152 Q157,160 153,187 Q149,214 149,240 Q149,349 261,371 L261,373"/> 
            <glyph glyph-name="~" unicode="&#x7E;" horiz-adv-x="563" d=" M236,414 Q285,394 317,376 Q345,361 361,354 Q377,347 394,347 Q445,347 456,415 L563,415 Q548,317 502,269 Q456,221 386,221 Q356,221 332,230.5 Q308,240 274,259 Q248,274 231.5,281 Q215,288 197,288 Q146,288 134,220 L28,220 Q44,318 90,366 Q136,414 205,414"/> 
            <glyph glyph-name="¡" unicode="&#xA1;" horiz-adv-x="259" d=" M259,-173 L241,327 L122,327 L104,-173 M258,415 L258,562 L106,562 L106,415"/> 
            <glyph glyph-name="¢" unicode="&#xA2;" horiz-adv-x="547" d=" M344,118 Q409,166 417,208 L547,208 Q538,120 477.5,66.5 Q417,13 327,5 L327,-87 L265,-87 L265,6 Q160,15 98,81.5 Q36,148 36,260 Q36,372 97.5,438 Q159,504 265,513 L265,603 L327,603 L327,514 Q417,506 477.5,453 Q538,400 547,312 L417,312 Q408,355 376,378.5 Q344,402 301,402 Q243,402 207,365 Q171,328 171,260 Q171,191 207,154.5 Q243,118 301,118"/> 
            <glyph glyph-name="£" unicode="&#xA3;" horiz-adv-x="572" d=" M292,226 Q257,142 219,107 L571,107 L571,-4 L82,-4 L64,66 Q113,110 136,156 Q159,202 159,266 Q159,280 156,296 L39,296 L39,391 L128,391 Q101,474 101,538 Q101,601 129.5,648.5 Q158,696 210,721.5 Q262,747 329,747 Q438,747 500.5,686 Q563,625 572,527 L441,527 Q436,574 408,603 Q380,632 334,632 Q290,632 263,603.5 Q236,575 236,523 Q236,499 241.5,475.5 Q247,452 260,411 L266,391 L444,391 L444,296 L290,296 Q292,276 292,267"/> 
            <glyph glyph-name="¤" unicode="&#xA4;" horiz-adv-x="497" d=" M480,314 L443,267 L497,213 L443,159 L382,219 Q339,198 282,198 Q224,198 180,221 L118,159 L65,213 L121,268 Q86,314 86,378 Q86,444 123,489 L65,546 L118,600 L183,535 Q225,556 282,556 Q336,556 379,536 L443,600 L497,546 L441,491 Q480,446 480,378 M319,281 Q370,331 370,377 Q370,423 344.5,448.5 Q319,474 282,474 Q245,474 220.5,448.5 Q196,423 196,377 Q196,331 220.5,306 Q245,281 282,281"/> 
            <glyph glyph-name="¥" unicode="&#xA5;" horiz-adv-x="643" d=" M489,410 L603,410 L603,316 L440,316 L408,255 L603,255 L603,160 L404,160 L404,0 L262,0 L262,160 L62,160 L62,255 L258,255 L226,316 L62,316 L62,410 L177,410 L22,706 L184,706 L334,376 L484,706 L643,706"/> 
            <glyph glyph-name="¦" unicode="&#xA6;" horiz-adv-x="238" d=" M97,808 L238,808 L238,410 L97,410 M238,-121 L97,-121 L97,278 L238,278"/> 
            <glyph glyph-name="§" unicode="&#xA7;" horiz-adv-x="547" d=" M515,53 L515,-33 Q515,-108 458,-154 Q401,-200 299,-200 Q199,-200 139,-147.5 Q79,-95 70,-7 L209,-7 Q217,-99 302,-99 Q334,-99 353,-84.5 Q372,-70 372,-40 Q372,-4 338,22 Q304,48 215,83 Q130,114 83.5,157.5 Q37,201 37,266 Q37,318 67,359.5 Q97,401 160,419 Q117,448 93,485.5 Q69,523 69,567 Q69,642 126,687.5 Q183,733 286,733 Q386,733 445.5,680.5 Q505,628 514,540 L374,540 Q372,582 349,607 Q326,632 283,632 Q250,632 230.5,617.5 Q211,603 211,574 Q211,538 245.5,511.5 Q280,485 369,451 Q454,417 500.5,374 Q547,331 547,266 Q547,215 517.5,175.5 Q488,136 424,113 M187,225 Q243,175 293,175 Q342,175 370,201 Q398,227 398,266 Q398,307 370,332.5 Q342,358 292,358 Q243,358 215,331.5 Q187,305 187,266"/> 
            <glyph glyph-name="¨" unicode="&#xA8;" horiz-adv-x="347" d=" M31,713 Q68,750 94,750 Q122,750 140,731.5 Q158,713 158,686 Q158,660 140,641.5 Q122,623 94,623 Q68,623 49.5,641.5 Q31,660 31,686 M220,713 Q256,750 283,750 Q310,750 328.5,731.5 Q347,713 347,686 Q347,660 328.5,641.5 Q310,623 283,623 Q256,623 238,641.5 Q220,660 220,686"/> 
            <glyph glyph-name="©" unicode="&#xA9;" horiz-adv-x="742" d=" M290,713 Q131,622 86.5,540.5 Q42,459 42,356 Q42,252 86.5,170.5 Q131,89 210.5,43 Q290,-3 392,-3 Q495,-3 574.5,43 Q654,89 698,170.5 Q742,252 742,356 Q742,460 698,541 Q654,622 574.5,667.5 Q495,713 392,713 M483,667 Q619,589 655.5,518.5 Q692,448 692,356 Q692,264 655.5,193 Q619,122 551,82.5 Q483,43 392,43 Q301,43 233,82.5 Q165,122 128.5,193 Q92,264 92,356 Q92,448 128.5,518.5 Q165,589 233,628 Q301,667 392,667 M474,583 Q589,492 604,413 L486,413 Q475,448 449.5,468 Q424,488 390,488 Q345,488 315,453.5 Q285,419 285,355 Q285,291 315,256.5 Q345,222 390,222 Q424,222 449.5,242 Q475,262 486,297 L604,297 Q589,218 531.5,172.5 Q474,127 396,127 Q333,127 282.5,154.5 Q232,182 203.5,233.5 Q175,285 175,355 Q175,425 203.5,476.5 Q232,528 282.5,555.5 Q333,583 396,583"/> 
            <glyph glyph-name="ª" unicode="&#xAA;" horiz-adv-x="425" d=" M283,711 L319,635 L319,706 L425,706 L425,355 L319,355 L319,425 Q283,349 192,349 Q119,349 73.5,397.5 Q28,446 28,529 Q28,613 73.5,662 Q119,711 191,711 M188,626 Q137,573 137,529 Q137,485 162,460 Q187,435 227,435 Q267,435 293,460.5 Q319,486 319,530 Q319,574 293,600 Q267,626 227,626"/> 
            <glyph glyph-name="«" unicode="&#xAB;" horiz-adv-x="476" d=" M134,120 L45,295 L134,470 L265,470 L174,295 L265,120 M345,120 L256,295 L345,470 L476,470 L385,295 L476,120"/> 
            <glyph glyph-name="¬" unicode="&#xAC;" horiz-adv-x="703" d=" M703,438 L703,195 L562,195 L562,331 L36,331 L36,438"/> 
            <glyph glyph-name="­" unicode="&#xAD;" horiz-adv-x="423" d=" M679,415 L679,298 L254,298 L254,415"/> 
            <glyph glyph-name="®" unicode="&#xAE;" horiz-adv-x="764" d=" M510,713 Q673,623 718.5,542 Q764,461 764,356 Q764,252 718.5,170.5 Q673,89 591.5,43 Q510,-3 404,-3 Q298,-3 215.5,43 Q133,89 87.5,170.5 Q42,252 42,356 Q42,461 87.5,542 Q133,623 215.5,668 Q298,713 404,713 M498,47 Q639,124 677,194 Q715,264 715,356 Q715,450 677,520 Q639,590 569,628.5 Q499,667 404,667 Q309,667 238.5,629 Q168,591 130,520.5 Q92,450 92,356 Q92,263 130,193.5 Q168,124 238.5,85.5 Q309,47 404,47 M582,407 Q528,340 475,329 L587,148 L490,148 L384,324 L347,324 L347,148 L258,148 L258,582 L426,582 Q505,582 543.5,545.5 Q582,509 582,453 M347,382 L418,382 Q492,382 492,441 Q492,470 475,485.5 Q458,501 418,501 L347,501"/> 
            <glyph glyph-name="¯" unicode="&#xAF;" horiz-adv-x="404" d=" M404,732 L404,637 L22,637 L22,732"/> 
            <glyph glyph-name="°" unicode="&#xB0;" horiz-adv-x="414" d=" M309,705 Q414,610 414,527 Q414,445 362.5,396 Q311,347 223,347 Q135,347 80.5,396.5 Q26,446 26,527 Q26,610 79,657.5 Q132,705 221,705 M184,629 Q135,576 135,526 Q135,477 160.5,450.5 Q186,424 223,424 Q259,424 282,450.5 Q305,477 305,526 Q305,576 281.5,602.5 Q258,629 221,629"/> 
            <glyph glyph-name="±" unicode="&#xB1;" horiz-adv-x="538" d=" M351,363 L351,222 L538,222 L538,94 L28,94 L28,222 L215,222 L215,363 L28,363 L28,491 L215,491 L215,632 L351,632 L351,491 L538,491 L538,363"/> 
            <glyph glyph-name="²" unicode="&#xB2;" horiz-adv-x="341" d=" M147,434 L340,434 L340,352 L45,352 L45,429 L171,516 Q200,536 215,556.5 Q230,577 230,601 Q230,619 219.5,628 Q209,637 193,637 Q151,637 146,581 L40,581 Q44,639 87.5,676 Q131,713 206,713 Q272,713 306.5,683 Q341,653 341,609 Q341,570 313,540 Q285,510 222,477"/> 
            <glyph glyph-name="³" unicode="&#xB3;" horiz-adv-x="336" d=" M253,713 Q330,657 330,611 Q330,548 258,533 L258,530 Q336,511 336,447 Q336,402 297,375 Q258,348 189,348 Q106,348 68,378 Q30,408 24,467 L135,467 Q137,442 148.5,432.5 Q160,423 180,423 Q224,423 224,465 Q224,488 210,499.5 Q196,511 171,511 L128,511 L128,551 L166,551 Q218,551 218,597 Q218,615 206.5,626.5 Q195,638 176,638 Q136,638 130,594 L28,594 Q31,645 69.5,679 Q108,713 187,713"/> 
            <glyph glyph-name="´" unicode="&#xB4;" horiz-adv-x="252" d=" M252,704 L22,596 L22,692 L252,812"/> 
            <glyph glyph-name="µ" unicode="&#xB5;" horiz-adv-x="619" d=" M619,554 L619,0 L478,0 L478,106 Q456,52 409.5,22.5 Q363,-7 300,-7 Q249,-7 219,23 L219,-264 L79,-264 L79,554 L219,554 L219,265 Q219,193 255,154 Q291,115 351,115 Q409,115 443.5,152.5 Q478,190 478,261 L478,554"/> 
            <glyph glyph-name="¶" unicode="&#xB6;" horiz-adv-x="583" d=" M583,0 L469,0 L469,592 L391,592 L391,0 L278,0 L278,278 L259,278 Q179,278 125.5,306.5 Q72,335 46.5,382.5 Q21,430 21,488 Q21,546 46.5,593.5 Q72,641 125.5,669.5 Q179,698 259,698 L583,698"/> 
            <glyph glyph-name="·" unicode="&#xB7;" horiz-adv-x="190" d=" M190,398 L190,251 L38,251 L38,398"/> 
            <glyph glyph-name="¸" unicode="&#xB8;" horiz-adv-x="283" d=" M208,-50 Q283,-102 283,-157 Q283,-211 245,-237.5 Q207,-264 151,-264 L22,-264 L22,-188 L136,-188 Q187,-188 187,-152 Q187,-137 174.5,-128 Q162,-119 136,-119 L70,-119 L70,7 L155,7 L155,-52"/> 
            <glyph glyph-name="¹" unicode="&#xB9;" horiz-adv-x="196" d=" M28,621 L28,704 L196,704 L196,352 L89,352 L89,621"/> 
            <glyph glyph-name="º" unicode="&#xBA;" horiz-adv-x="420" d=" M282,709 Q371,663 395.5,621.5 Q420,580 420,528 Q420,476 395.5,434 Q371,392 326.5,368.5 Q282,345 224,345 Q166,345 121.5,368.5 Q77,392 52.5,434 Q28,476 28,528 Q28,580 52.5,621.5 Q77,663 121.5,686 Q166,709 224,709 M185,626 Q136,575 136,528 Q136,481 161,455 Q186,429 224,429 Q262,429 286.5,455 Q311,481 311,528 Q311,575 286.5,600.5 Q262,626 224,626"/> 
            <glyph glyph-name="»" unicode="&#xBB;" horiz-adv-x="481" d=" M142,295 L50,470 L182,470 L270,295 L182,120 L50,120 M353,295 L261,470 L393,470 L481,295 L393,120 L261,120"/> 
            <glyph glyph-name="¼" unicode="&#xBC;" horiz-adv-x="703" d=" M598,706 L227,0 L89,0 L461,706 M51,621 L51,704 L219,704 L219,352 L112,352 L112,621 M703,65 L660,65 L660,0 L553,0 L553,65 L362,65 L362,123 L518,353 L660,353 L660,126 L703,126 M558,274 L464,129 L558,129"/> 
            <glyph glyph-name="½" unicode="&#xBD;" horiz-adv-x="730" d=" M598,708 L220,0 L82,0 L460,708 M113,621 L52,621 L52,704 L220,704 L220,352 L113,352 M536,81 L729,81 L729,-1 L434,-1 L434,76 L560,163 Q589,183 604,203.5 Q619,224 619,248 Q619,266 608.5,275 Q598,284 582,284 Q540,284 535,228 L429,228 Q433,286 476.5,323 Q520,360 595,360 Q661,360 695.5,330 Q730,300 730,256 Q730,217 702,187 Q674,157 611,124"/> 
            <glyph glyph-name="¾" unicode="&#xBE;" horiz-adv-x="802" d=" M292,713 Q369,657 369,611 Q369,548 297,533 L297,530 Q375,511 375,447 Q375,402 336,375 Q297,348 228,348 Q145,348 107,378 Q69,408 63,467 L174,467 Q176,442 187.5,432.5 Q199,423 219,423 Q263,423 263,465 Q263,488 249,499.5 Q235,511 210,511 L167,511 L167,551 L205,551 Q257,551 257,597 Q257,615 245.5,626.5 Q234,638 215,638 Q175,638 169,594 L67,594 Q70,645 108.5,679 Q147,713 226,713 M698,708 L337,0 L199,0 L560,708 M802,65 L759,65 L759,0 L653,0 L653,65 L462,65 L462,123 L605,353 L759,353 L759,126 L802,126 M658,286 L564,126 L658,126"/> 
            <glyph glyph-name="¿" unicode="&#xBF;" horiz-adv-x="529" d=" M187,-189 Q63,-81 63,18 Q63,118 126.5,171 Q190,224 297,226 L297,327 L430,327 L430,134 L373,134 Q292,134 247,109.5 Q202,85 202,19 Q202,-25 227,-49.5 Q252,-74 294,-74 Q340,-74 367,-47.5 Q394,-21 394,21 L527,21 Q529,-39 501,-86.5 Q473,-134 418.5,-161.5 Q364,-189 289,-189 M286,412 L286,559 L438,559 L438,412"/> 
            <glyph glyph-name="À" unicode="&#xC0;" horiz-adv-x="692" d=" M494,142 L211,142 L161,0 L12,0 L272,698 L433,698 L692,0 L543,0 M456,249 L352,547 L248,249 M427,844 L427,748 L197,856 L197,964"/> 
            <glyph glyph-name="Á" unicode="&#xC1;" horiz-adv-x="692" d=" M494,142 L211,142 L161,0 L12,0 L272,698 L433,698 L692,0 L543,0 M456,249 L352,547 L248,249 M503,856 L273,748 L273,844 L503,964"/> 
            <glyph glyph-name="Â" unicode="&#xC2;" horiz-adv-x="692" d=" M494,142 L211,142 L161,0 L12,0 L272,698 L433,698 L692,0 L543,0 M456,249 L352,547 L248,249 M352,840 L203,755 L203,850 L352,933 L500,850 L500,755"/> 
            <glyph glyph-name="Ã" unicode="&#xC3;" horiz-adv-x="692" d=" M494,142 L211,142 L161,0 L12,0 L272,698 L433,698 L692,0 L543,0 M456,249 L352,547 L248,249 M310,893 Q342,879 364,866 Q382,855 393.5,850 Q405,845 418,845 Q436,845 447.5,857 Q459,869 462,892 L535,892 Q525,826 493.5,793.5 Q462,761 413,761 Q392,761 375.5,768 Q359,775 336,788 Q318,798 307.5,803 Q297,808 284,808 Q247,808 240,761 L168,761 Q189,893 289,893"/> 
            <glyph glyph-name="Ä" unicode="&#xC4;" horiz-adv-x="692" d=" M494,142 L211,142 L161,0 L12,0 L272,698 L433,698 L692,0 L543,0 M456,249 L352,547 L248,249 M194,865 Q231,902 257,902 Q285,902 303,883.5 Q321,865 321,838 Q321,812 303,793.5 Q285,775 257,775 Q231,775 212.5,793.5 Q194,812 194,838 M383,865 Q419,902 446,902 Q473,902 491.5,883.5 Q510,865 510,838 Q510,812 491.5,793.5 Q473,775 446,775 Q419,775 401,793.5 Q383,812 383,838"/> 
            <glyph glyph-name="Å" unicode="&#xC5;" horiz-adv-x="692" d=" M494,142 L211,142 L161,0 L12,0 L272,698 L433,698 L692,0 L543,0 M456,249 L352,547 L248,249 M400,984 Q466,922 466,869 Q466,816 433,785 Q400,754 351,754 Q302,754 269,785.5 Q236,817 236,869 Q236,921 269,952.5 Q302,984 351,984 M327,926 Q296,895 296,869 Q296,843 311.5,827.5 Q327,812 351,812 Q375,812 391,827.5 Q407,843 407,869 Q407,895 391,910.5 Q375,926 351,926"/> 
            <glyph glyph-name="Æ" unicode="&#xC6;" horiz-adv-x="886" d=" M612,594 L612,413 L856,413 L856,305 L612,305 L612,113 L886,113 L886,0 L471,0 L471,136 L230,136 L158,0 L4,0 L381,706 L886,706 L886,594 M471,243 L471,589 L287,243"/> 
            <glyph glyph-name="Ç" unicode="&#xC7;" horiz-adv-x="717" d=" M515,713 Q689,577 717,460 L569,460 Q546,517 497.5,550 Q449,583 381,583 Q325,583 280,555 Q235,527 210,475 Q185,423 185,353 Q185,284 210,232 Q235,180 280,152 Q325,124 381,124 Q449,124 497.5,157 Q546,190 569,247 L717,247 Q689,130 602,62 Q515,-6 383,-6 Q282,-6 204.5,39.5 Q127,85 84.5,167 Q42,249 42,353 Q42,458 84.5,540 Q127,622 204,667.5 Q281,713 383,713 M479,-50 Q554,-102 554,-157 Q554,-211 516,-237.5 Q478,-264 422,-264 L293,-264 L293,-188 L407,-188 Q458,-188 458,-152 Q458,-137 445.5,-128 Q433,-119 407,-119 L341,-119 L341,7 L426,7 L426,-52"/> 
            <glyph glyph-name="È" unicode="&#xC8;" horiz-adv-x="485" d=" M205,594 L205,411 L455,411 L455,303 L205,303 L205,113 L485,113 L485,0 L64,0 L64,706 L485,706 L485,594 M350,844 L350,748 L120,856 L120,964"/> 
            <glyph glyph-name="É" unicode="&#xC9;" horiz-adv-x="485" d=" M205,594 L205,411 L455,411 L455,303 L205,303 L205,113 L485,113 L485,0 L64,0 L64,706 L485,706 L485,594 M426,856 L196,748 L196,844 L426,964"/> 
            <glyph glyph-name="Ê" unicode="&#xCA;" horiz-adv-x="485" d=" M205,594 L205,411 L455,411 L455,303 L205,303 L205,113 L485,113 L485,0 L64,0 L64,706 L485,706 L485,594 M275,840 L126,755 L126,850 L275,933 L423,850 L423,755"/> 
            <glyph glyph-name="Ë" unicode="&#xCB;" horiz-adv-x="485" d=" M205,594 L205,411 L455,411 L455,303 L205,303 L205,113 L485,113 L485,0 L64,0 L64,706 L485,706 L485,594 M117,865 Q154,902 180,902 Q208,902 226,883.5 Q244,865 244,838 Q244,812 226,793.5 Q208,775 180,775 Q154,775 135.5,793.5 Q117,812 117,838 M306,865 Q342,902 369,902 Q396,902 414.5,883.5 Q433,865 433,838 Q433,812 414.5,793.5 Q396,775 369,775 Q342,775 324,793.5 Q306,812 306,838"/> 
            <glyph glyph-name="Ì" unicode="&#xCC;" horiz-adv-x="210" d=" M205,706 L205,0 L64,0 L64,706 M65746,844 L65746,748 L65516,856 L65516,964"/> 
            <glyph glyph-name="Í" unicode="&#xCD;" horiz-adv-x="286" d=" M205,706 L205,0 L64,0 L64,706 M286,856 L56,748 L56,844 L286,964"/> 
            <glyph glyph-name="Î" unicode="&#xCE;" horiz-adv-x="283" d=" M205,706 L205,0 L64,0 L64,706 M65671,840 L65522,755 L65522,850 L65671,933 L65819,850 L65819,755"/> 
            <glyph glyph-name="Ï" unicode="&#xCF;" horiz-adv-x="293" d=" M205,706 L205,0 L64,0 L64,706 M65513,865 Q65550,902 65576,902 Q65604,902 65622,883.5 Q65640,865 65640,838 Q65640,812 65622,793.5 Q65604,775 65576,775 Q65550,775 65531.5,793.5 Q65513,812 65513,838 M65702,865 Q65738,902 65765,902 Q65792,902 65810.5,883.5 Q65829,865 65829,838 Q65829,812 65810.5,793.5 Q65792,775 65765,775 Q65738,775 65720,793.5 Q65702,812 65702,838"/> 
            <glyph glyph-name="Ð" unicode="&#xD0;" horiz-adv-x="701" d=" M446,706 Q613,619 657,539.5 Q701,460 701,354 Q701,249 657,169 Q613,89 529.5,44.5 Q446,0 331,0 L80,0 L80,298 L4,298 L4,411 L80,411 L80,706 L331,706 M433,126 Q558,246 558,354 Q558,463 495.5,523 Q433,583 319,583 L221,583 L221,411 L392,411 L392,298 L221,298 L221,126 L319,126"/> 
            <glyph glyph-name="Ñ" unicode="&#xD1;" horiz-adv-x="662" d=" M662,0 L521,0 L205,480 L205,0 L64,0 L64,706 L205,706 L521,222 L521,706 L662,706 M321,893 Q353,879 375,866 Q393,855 404.5,850 Q416,845 429,845 Q447,845 458.5,857 Q470,869 473,892 L546,892 Q536,826 504.5,793.5 Q473,761 424,761 Q403,761 386.5,768 Q370,775 347,788 Q329,798 318.5,803 Q308,808 295,808 Q258,808 251,761 L179,761 Q200,893 300,893"/> 
            <glyph glyph-name="Ò" unicode="&#xD2;" horiz-adv-x="748" d=" M494,716 Q655,624 701.5,541.5 Q748,459 748,355 Q748,251 701.5,168 Q655,85 574.5,39 Q494,-7 395,-7 Q296,-7 215.5,39 Q135,85 88.5,168 Q42,251 42,355 Q42,459 88.5,541.5 Q135,624 215.5,670 Q296,716 395,716 M333,586 Q239,530 212.5,477.5 Q186,425 186,355 Q186,285 212.5,232.5 Q239,180 286,152 Q333,124 395,124 Q457,124 504,152 Q551,180 577.5,232.5 Q604,285 604,355 Q604,425 577.5,477.5 Q551,530 504,558 Q457,586 395,586 M470,844 L470,748 L240,856 L240,964"/> 
            <glyph glyph-name="Ó" unicode="&#xD3;" horiz-adv-x="748" d=" M494,716 Q655,624 701.5,541.5 Q748,459 748,355 Q748,251 701.5,168 Q655,85 574.5,39 Q494,-7 395,-7 Q296,-7 215.5,39 Q135,85 88.5,168 Q42,251 42,355 Q42,459 88.5,541.5 Q135,624 215.5,670 Q296,716 395,716 M333,586 Q239,530 212.5,477.5 Q186,425 186,355 Q186,285 212.5,232.5 Q239,180 286,152 Q333,124 395,124 Q457,124 504,152 Q551,180 577.5,232.5 Q604,285 604,355 Q604,425 577.5,477.5 Q551,530 504,558 Q457,586 395,586 M546,856 L316,748 L316,844 L546,964"/> 
            <glyph glyph-name="Ô" unicode="&#xD4;" horiz-adv-x="748" d=" M494,716 Q655,624 701.5,541.5 Q748,459 748,355 Q748,251 701.5,168 Q655,85 574.5,39 Q494,-7 395,-7 Q296,-7 215.5,39 Q135,85 88.5,168 Q42,251 42,355 Q42,459 88.5,541.5 Q135,624 215.5,670 Q296,716 395,716 M333,586 Q239,530 212.5,477.5 Q186,425 186,355 Q186,285 212.5,232.5 Q239,180 286,152 Q333,124 395,124 Q457,124 504,152 Q551,180 577.5,232.5 Q604,285 604,355 Q604,425 577.5,477.5 Q551,530 504,558 Q457,586 395,586 M396,840 L247,755 L247,850 L396,933 L544,850 L544,755"/> 
            <glyph glyph-name="Õ" unicode="&#xD5;" horiz-adv-x="748" d=" M494,716 Q655,624 701.5,541.5 Q748,459 748,355 Q748,251 701.5,168 Q655,85 574.5,39 Q494,-7 395,-7 Q296,-7 215.5,39 Q135,85 88.5,168 Q42,251 42,355 Q42,459 88.5,541.5 Q135,624 215.5,670 Q296,716 395,716 M333,586 Q239,530 212.5,477.5 Q186,425 186,355 Q186,285 212.5,232.5 Q239,180 286,152 Q333,124 395,124 Q457,124 504,152 Q551,180 577.5,232.5 Q604,285 604,355 Q604,425 577.5,477.5 Q551,530 504,558 Q457,586 395,586 M353,893 Q385,879 407,866 Q425,855 436.5,850 Q448,845 461,845 Q479,845 490.5,857 Q502,869 505,892 L578,892 Q568,826 536.5,793.5 Q505,761 456,761 Q435,761 418.5,768 Q402,775 379,788 Q361,798 350.5,803 Q340,808 327,808 Q290,808 283,761 L211,761 Q232,893 332,893"/> 
            <glyph glyph-name="Ö" unicode="&#xD6;" horiz-adv-x="748" d=" M494,716 Q655,624 701.5,541.5 Q748,459 748,355 Q748,251 701.5,168 Q655,85 574.5,39 Q494,-7 395,-7 Q296,-7 215.5,39 Q135,85 88.5,168 Q42,251 42,355 Q42,459 88.5,541.5 Q135,624 215.5,670 Q296,716 395,716 M333,586 Q239,530 212.5,477.5 Q186,425 186,355 Q186,285 212.5,232.5 Q239,180 286,152 Q333,124 395,124 Q457,124 504,152 Q551,180 577.5,232.5 Q604,285 604,355 Q604,425 577.5,477.5 Q551,530 504,558 Q457,586 395,586 M237,865 Q274,902 300,902 Q328,902 346,883.5 Q364,865 364,838 Q364,812 346,793.5 Q328,775 300,775 Q274,775 255.5,793.5 Q237,812 237,838 M426,865 Q462,902 489,902 Q516,902 534.5,883.5 Q553,865 553,838 Q553,812 534.5,793.5 Q516,775 489,775 Q462,775 444,793.5 Q426,812 426,838"/> 
            <glyph glyph-name="×" unicode="&#xD7;" horiz-adv-x="508" d=" M414,121 L265,269 L119,122 L28,212 L175,360 L30,504 L124,597 L268,453 L410,596 L501,506 L358,363 L508,213"/> 
            <glyph glyph-name="Ø" unicode="&#xD8;" horiz-adv-x="754" d=" M658,602 Q701,554 724,491 Q747,428 747,355 Q747,251 700.5,168 Q654,85 573.5,39 Q493,-7 394,-7 Q332,-7 276,12 Q220,31 174,66 L115,1 L35,1 L131,107 Q88,155 64.5,218.5 Q41,282 41,355 Q41,459 87.5,541.5 Q134,624 214.5,670 Q295,716 394,716 Q457,716 513,697 Q569,678 615,642 L675,709 L754,709 M185,269 L224,210 L525,543 Q471,586 394,586 Q332,586 285,558 Q238,530 211.5,477.5 Q185,425 185,355 M603,440 L564,499 L264,166 Q318,124 394,124 Q456,124 503,152 Q550,180 576.5,232.5 Q603,285 603,355"/> 
            <glyph glyph-name="Ù" unicode="&#xD9;" horiz-adv-x="623" d=" M200,706 L200,292 Q200,209 236.5,167.5 Q273,126 342,126 Q410,126 446.5,167.5 Q483,209 483,292 L483,706 L623,706 L623,292 Q623,194 586.5,126.5 Q550,59 485.5,26 Q421,-7 339,-7 Q212,-7 136,69 Q60,145 60,292 L60,706 M416,844 L416,748 L186,856 L186,964"/> 
            <glyph glyph-name="Ú" unicode="&#xDA;" horiz-adv-x="623" d=" M200,706 L200,292 Q200,209 236.5,167.5 Q273,126 342,126 Q410,126 446.5,167.5 Q483,209 483,292 L483,706 L623,706 L623,292 Q623,194 586.5,126.5 Q550,59 485.5,26 Q421,-7 339,-7 Q212,-7 136,69 Q60,145 60,292 L60,706 M492,856 L262,748 L262,844 L492,964"/> 
            <glyph glyph-name="Û" unicode="&#xDB;" horiz-adv-x="623" d=" M200,706 L200,292 Q200,209 236.5,167.5 Q273,126 342,126 Q410,126 446.5,167.5 Q483,209 483,292 L483,706 L623,706 L623,292 Q623,194 586.5,126.5 Q550,59 485.5,26 Q421,-7 339,-7 Q212,-7 136,69 Q60,145 60,292 L60,706 M342,840 L193,755 L193,850 L342,933 L490,850 L490,755"/> 
            <glyph glyph-name="Ü" unicode="&#xDC;" horiz-adv-x="623" d=" M200,706 L200,292 Q200,209 236.5,167.5 Q273,126 342,126 Q410,126 446.5,167.5 Q483,209 483,292 L483,706 L623,706 L623,292 Q623,194 586.5,126.5 Q550,59 485.5,26 Q421,-7 339,-7 Q212,-7 136,69 Q60,145 60,292 L60,706 M184,865 Q221,902 247,902 Q275,902 293,883.5 Q311,865 311,838 Q311,812 293,793.5 Q275,775 247,775 Q221,775 202.5,793.5 Q184,812 184,838 M373,865 Q409,902 436,902 Q463,902 481.5,883.5 Q500,865 500,838 Q500,812 481.5,793.5 Q463,775 436,775 Q409,775 391,793.5 Q373,812 373,838"/> 
            <glyph glyph-name="Ý" unicode="&#xDD;" horiz-adv-x="633" d=" M633,706 L394,247 L394,0 L252,0 L252,247 L12,706 L174,706 L324,397 L474,706 M474,856 L244,748 L244,844 L474,964"/> 
            <glyph glyph-name="Þ" unicode="&#xDE;" horiz-adv-x="573" d=" M205,139 L205,0 L64,0 L64,706 L204,706 L204,571 L321,571 Q445,571 509,512.5 Q573,454 573,354 Q573,256 507.5,197.5 Q442,139 321,139 M430,246 L430,354 Q430,407 401,434.5 Q372,462 306,462 L205,462 L205,246 L306,246"/> 
            <glyph glyph-name="ß" unicode="&#xDF;" horiz-adv-x="677" d=" M609,345 Q677,247 677,176 Q677,124 652,82.5 Q627,41 581.5,16.5 Q536,-8 476,-8 Q374,-8 320,46 Q266,100 265,196 L381,196 Q383,158 404,136 Q425,114 463,114 Q501,114 520.5,135.5 Q540,157 540,187 Q540,219 523.5,242 Q507,265 463,292 L311,381 L311,438 L336,452 Q362,467 374,486 Q386,505 386,531 Q386,571 362.5,596.5 Q339,622 299,622 Q256,622 230,595 Q204,568 204,521 L205,0 L64,0 L64,492 Q64,621 128.5,685.5 Q193,750 316,750 Q382,750 430.5,727.5 Q479,705 504.5,667 Q530,629 530,582 Q530,537 508,504 Q486,471 436,447 L530,391"/> 
            <glyph glyph-name="à" unicode="&#xE0;" horiz-adv-x="612" d=" M351,561 Q451,495 472,439 L472,554 L612,554 L612,0 L472,0 L472,116 Q451,60 401,26.5 Q351,-7 281,-7 Q211,-7 155,27 Q99,61 67.5,125.5 Q36,190 36,277 Q36,364 67.5,428.5 Q99,493 155,527 Q211,561 281,561 M259,438 Q179,352 179,277 Q179,202 219,159.5 Q259,117 325,117 Q389,117 430.5,160.5 Q472,204 472,277 Q472,351 430.5,394.5 Q389,438 325,438 M400,692 L400,596 L170,704 L170,812"/> 
            <glyph glyph-name="á" unicode="&#xE1;" horiz-adv-x="612" d=" M351,561 Q451,495 472,439 L472,554 L612,554 L612,0 L472,0 L472,116 Q451,60 401,26.5 Q351,-7 281,-7 Q211,-7 155,27 Q99,61 67.5,125.5 Q36,190 36,277 Q36,364 67.5,428.5 Q99,493 155,527 Q211,561 281,561 M259,438 Q179,352 179,277 Q179,202 219,159.5 Q259,117 325,117 Q389,117 430.5,160.5 Q472,204 472,277 Q472,351 430.5,394.5 Q389,438 325,438 M476,704 L246,596 L246,692 L476,812"/> 
            <glyph glyph-name="â" unicode="&#xE2;" horiz-adv-x="612" d=" M351,561 Q451,495 472,439 L472,554 L612,554 L612,0 L472,0 L472,116 Q451,60 401,26.5 Q351,-7 281,-7 Q211,-7 155,27 Q99,61 67.5,125.5 Q36,190 36,277 Q36,364 67.5,428.5 Q99,493 155,527 Q211,561 281,561 M259,438 Q179,352 179,277 Q179,202 219,159.5 Q259,117 325,117 Q389,117 430.5,160.5 Q472,204 472,277 Q472,351 430.5,394.5 Q389,438 325,438 M325,688 L176,603 L176,698 L325,781 L473,698 L473,603"/> 
            <glyph glyph-name="ã" unicode="&#xE3;" horiz-adv-x="612" d=" M351,561 Q451,495 472,439 L472,554 L612,554 L612,0 L472,0 L472,116 Q451,60 401,26.5 Q351,-7 281,-7 Q211,-7 155,27 Q99,61 67.5,125.5 Q36,190 36,277 Q36,364 67.5,428.5 Q99,493 155,527 Q211,561 281,561 M259,438 Q179,352 179,277 Q179,202 219,159.5 Q259,117 325,117 Q389,117 430.5,160.5 Q472,204 472,277 Q472,351 430.5,394.5 Q389,438 325,438 M283,741 Q315,727 337,714 Q355,703 366.5,698 Q378,693 391,693 Q409,693 420.5,705 Q432,717 435,740 L508,740 Q498,674 466.5,641.5 Q435,609 386,609 Q365,609 348.5,616 Q332,623 309,636 Q291,646 280.5,651 Q270,656 257,656 Q220,656 213,609 L141,609 Q162,741 262,741"/> 
            <glyph glyph-name="ä" unicode="&#xE4;" horiz-adv-x="612" d=" M351,561 Q451,495 472,439 L472,554 L612,554 L612,0 L472,0 L472,116 Q451,60 401,26.5 Q351,-7 281,-7 Q211,-7 155,27 Q99,61 67.5,125.5 Q36,190 36,277 Q36,364 67.5,428.5 Q99,493 155,527 Q211,561 281,561 M259,438 Q179,352 179,277 Q179,202 219,159.5 Q259,117 325,117 Q389,117 430.5,160.5 Q472,204 472,277 Q472,351 430.5,394.5 Q389,438 325,438 M167,713 Q204,750 230,750 Q258,750 276,731.5 Q294,713 294,686 Q294,660 276,641.5 Q258,623 230,623 Q204,623 185.5,641.5 Q167,660 167,686 M356,713 Q392,750 419,750 Q446,750 464.5,731.5 Q483,713 483,686 Q483,660 464.5,641.5 Q446,623 419,623 Q392,623 374,641.5 Q356,660 356,686"/> 
            <glyph glyph-name="å" unicode="&#xE5;" horiz-adv-x="612" d=" M351,561 Q451,495 472,439 L472,554 L612,554 L612,0 L472,0 L472,116 Q451,60 401,26.5 Q351,-7 281,-7 Q211,-7 155,27 Q99,61 67.5,125.5 Q36,190 36,277 Q36,364 67.5,428.5 Q99,493 155,527 Q211,561 281,561 M259,438 Q179,352 179,277 Q179,202 219,159.5 Q259,117 325,117 Q389,117 430.5,160.5 Q472,204 472,277 Q472,351 430.5,394.5 Q389,438 325,438 M373,832 Q439,770 439,717 Q439,664 406,633 Q373,602 324,602 Q275,602 242,633.5 Q209,665 209,717 Q209,769 242,800.5 Q275,832 324,832 M300,774 Q269,743 269,717 Q269,691 284.5,675.5 Q300,660 324,660 Q348,660 364,675.5 Q380,691 380,717 Q380,743 364,758.5 Q348,774 324,774"/> 
            <glyph glyph-name="æ" unicode="&#xE6;" horiz-adv-x="1050" d=" M1050,271 L1046,250 L617,250 Q622,176 661.5,140.5 Q701,105 761,105 Q814,105 849,129 Q884,153 894,195 L1043,195 Q1027,106 964,49.5 Q901,-7 808,-7 Q737,-7 685,25 Q633,57 612,116 L612,0 L472,0 L472,116 Q451,60 401,26.5 Q351,-7 281,-7 Q211,-7 155,27 Q99,61 67.5,125.5 Q36,190 36,277 Q36,364 67.5,428.5 Q99,493 155,527 Q211,561 281,561 Q351,561 401,528 Q451,495 472,439 L472,554 L612,554 L612,438 Q633,497 685,529 Q737,561 808,561 Q882,561 936.5,527 Q991,493 1020.5,433.5 Q1050,374 1050,298 M911,380 Q827,450 765,450 Q706,450 664.5,416 Q623,382 617,312 L908,312 M389,117 Q472,204 472,277 Q472,351 430.5,394.5 Q389,438 325,438 Q259,438 219,395 Q179,352 179,277 Q179,202 219,159.5 Q259,117 325,117"/> 
            <glyph glyph-name="ç" unicode="&#xE7;" horiz-adv-x="581" d=" M420,561 Q563,445 581,345 L432,345 Q423,389 391,414.5 Q359,440 310,440 Q254,440 216.5,398.5 Q179,357 179,277 Q179,197 216.5,155.5 Q254,114 310,114 Q359,114 391,139.5 Q423,165 432,209 L581,209 Q563,109 491.5,51 Q420,-7 313,-7 Q232,-7 169,27.5 Q106,62 71,126 Q36,190 36,277 Q36,364 71,428.5 Q106,493 169,527 Q232,561 313,561 M384,-50 Q459,-102 459,-157 Q459,-211 421,-237.5 Q383,-264 327,-264 L198,-264 L198,-188 L312,-188 Q363,-188 363,-152 Q363,-137 350.5,-128 Q338,-119 312,-119 L246,-119 L246,7 L331,7 L331,-52"/> 
            <glyph glyph-name="è" unicode="&#xE8;" horiz-adv-x="585" d=" M585,277 L580,250 L174,250 Q177,176 214,141 Q251,106 306,106 Q355,106 387.5,130 Q420,154 429,195 L578,195 Q567,137 531,91 Q495,45 438.5,19 Q382,-7 313,-7 Q232,-7 169,27.5 Q106,62 71,126 Q36,190 36,277 Q36,364 71,428.5 Q106,493 169,527 Q232,561 313,561 Q395,561 456.5,527 Q518,493 551.5,433.5 Q585,374 585,298 M446,380 Q369,450 313,450 Q256,450 217,415 Q178,380 174,312 L443,312 M386,692 L386,596 L156,704 L156,812"/> 
            <glyph glyph-name="é" unicode="&#xE9;" horiz-adv-x="585" d=" M585,277 L580,250 L174,250 Q177,176 214,141 Q251,106 306,106 Q355,106 387.5,130 Q420,154 429,195 L578,195 Q567,137 531,91 Q495,45 438.5,19 Q382,-7 313,-7 Q232,-7 169,27.5 Q106,62 71,126 Q36,190 36,277 Q36,364 71,428.5 Q106,493 169,527 Q232,561 313,561 Q395,561 456.5,527 Q518,493 551.5,433.5 Q585,374 585,298 M446,380 Q369,450 313,450 Q256,450 217,415 Q178,380 174,312 L443,312 M462,704 L232,596 L232,692 L462,812"/> 
            <glyph glyph-name="ê" unicode="&#xEA;" horiz-adv-x="585" d=" M585,277 L580,250 L174,250 Q177,176 214,141 Q251,106 306,106 Q355,106 387.5,130 Q420,154 429,195 L578,195 Q567,137 531,91 Q495,45 438.5,19 Q382,-7 313,-7 Q232,-7 169,27.5 Q106,62 71,126 Q36,190 36,277 Q36,364 71,428.5 Q106,493 169,527 Q232,561 313,561 Q395,561 456.5,527 Q518,493 551.5,433.5 Q585,374 585,298 M446,380 Q369,450 313,450 Q256,450 217,415 Q178,380 174,312 L443,312 M311,688 L162,603 L162,698 L311,781 L459,698 L459,603"/> 
            <glyph glyph-name="ë" unicode="&#xEB;" horiz-adv-x="585" d=" M585,277 L580,250 L174,250 Q177,176 214,141 Q251,106 306,106 Q355,106 387.5,130 Q420,154 429,195 L578,195 Q567,137 531,91 Q495,45 438.5,19 Q382,-7 313,-7 Q232,-7 169,27.5 Q106,62 71,126 Q36,190 36,277 Q36,364 71,428.5 Q106,493 169,527 Q232,561 313,561 Q395,561 456.5,527 Q518,493 551.5,433.5 Q585,374 585,298 M446,380 Q369,450 313,450 Q256,450 217,415 Q178,380 174,312 L443,312 M153,713 Q190,750 216,750 Q244,750 262,731.5 Q280,713 280,686 Q280,660 262,641.5 Q244,623 216,623 Q190,623 171.5,641.5 Q153,660 153,686 M342,713 Q378,750 405,750 Q432,750 450.5,731.5 Q469,713 469,686 Q469,660 450.5,641.5 Q432,623 405,623 Q378,623 360,641.5 Q342,660 342,686"/> 
            <glyph glyph-name="ì" unicode="&#xEC;" horiz-adv-x="225" d=" M220,554 L220,0 L79,0 L79,554 M481,692 L481,596 L251,704 L251,812"/> 
            <glyph glyph-name="í" unicode="&#xED;" horiz-adv-x="301" d=" M220,554 L220,0 L79,0 L79,554 M301,704 L71,596 L71,692 L301,812"/> 
            <glyph glyph-name="î" unicode="&#xEE;" horiz-adv-x="298" d=" M220,554 L220,0 L79,0 L79,554 M406,688 L257,603 L257,698 L406,781 L554,698 L554,603"/> 
            <glyph glyph-name="ï" unicode="&#xEF;" horiz-adv-x="308" d=" M220,554 L220,0 L79,0 L79,554 M248,713 Q285,750 311,750 Q339,750 357,731.5 Q375,713 375,686 Q375,660 357,641.5 Q339,623 311,623 Q285,623 266.5,641.5 Q248,660 248,686 M437,713 Q473,750 500,750 Q527,750 545.5,731.5 Q564,713 564,686 Q564,660 545.5,641.5 Q527,623 500,623 Q473,623 455,641.5 Q437,660 437,686"/> 
            <glyph glyph-name="ð" unicode="&#xF0;" horiz-adv-x="608" d=" M539,589 Q608,410 608,313 Q608,211 571,139 Q534,67 470.5,30.5 Q407,-6 326,-6 Q244,-6 178,30 Q112,66 74,132 Q36,198 36,285 Q36,368 71,431 Q106,494 168.5,528 Q231,562 310,562 Q356,562 395,540.5 Q434,519 456,476 Q431,565 378,636 L259,598 L259,648 L346,675 Q314,710 277,740 L402,740 Q415,729 439,705 L540,737 L540,687 L474,666 M386,116 Q464,199 464,277 Q464,330 444.5,367 Q425,404 393,422 Q361,440 324,440 Q262,440 221,400 Q180,360 180,284 Q180,203 222,159.5 Q264,116 326,116"/> 
            <glyph glyph-name="ñ" unicode="&#xF1;" horiz-adv-x="604" d=" M490,562 Q604,436 604,322 L604,0 L464,0 L464,306 Q464,372 430,408.5 Q396,445 337,445 Q277,445 241,406 Q205,367 205,294 L205,0 L64,0 L64,554 L205,554 L205,443 Q227,499 277.5,530.5 Q328,562 394,562 M292,741 Q324,727 346,714 Q364,703 375.5,698 Q387,693 400,693 Q418,693 429.5,705 Q441,717 444,740 L517,740 Q507,674 475.5,641.5 Q444,609 395,609 Q374,609 357.5,616 Q341,623 318,636 Q300,646 289.5,651 Q279,656 266,656 Q229,656 222,609 L150,609 Q171,741 271,741"/> 
            <glyph glyph-name="ò" unicode="&#xF2;" horiz-adv-x="604" d=" M401,561 Q530,493 567,428.5 Q604,364 604,277 Q604,190 567,126 Q530,62 465.5,27.5 Q401,-7 320,-7 Q239,-7 174.5,27.5 Q110,62 73,126 Q36,190 36,277 Q36,364 73,428.5 Q110,493 174.5,527 Q239,561 320,561 M261,439 Q179,356 179,277 Q179,198 220,156.5 Q261,115 320,115 Q379,115 420,156.5 Q461,198 461,277 Q461,356 420,397.5 Q379,439 320,439 M395,692 L395,596 L165,704 L165,812"/> 
            <glyph glyph-name="ó" unicode="&#xF3;" horiz-adv-x="604" d=" M401,561 Q530,493 567,428.5 Q604,364 604,277 Q604,190 567,126 Q530,62 465.5,27.5 Q401,-7 320,-7 Q239,-7 174.5,27.5 Q110,62 73,126 Q36,190 36,277 Q36,364 73,428.5 Q110,493 174.5,527 Q239,561 320,561 M261,439 Q179,356 179,277 Q179,198 220,156.5 Q261,115 320,115 Q379,115 420,156.5 Q461,198 461,277 Q461,356 420,397.5 Q379,439 320,439 M471,704 L241,596 L241,692 L471,812"/> 
            <glyph glyph-name="ô" unicode="&#xF4;" horiz-adv-x="604" d=" M401,561 Q530,493 567,428.5 Q604,364 604,277 Q604,190 567,126 Q530,62 465.5,27.5 Q401,-7 320,-7 Q239,-7 174.5,27.5 Q110,62 73,126 Q36,190 36,277 Q36,364 73,428.5 Q110,493 174.5,527 Q239,561 320,561 M261,439 Q179,356 179,277 Q179,198 220,156.5 Q261,115 320,115 Q379,115 420,156.5 Q461,198 461,277 Q461,356 420,397.5 Q379,439 320,439 M321,688 L172,603 L172,698 L321,781 L469,698 L469,603"/> 
            <glyph glyph-name="õ" unicode="&#xF5;" horiz-adv-x="604" d=" M401,561 Q530,493 567,428.5 Q604,364 604,277 Q604,190 567,126 Q530,62 465.5,27.5 Q401,-7 320,-7 Q239,-7 174.5,27.5 Q110,62 73,126 Q36,190 36,277 Q36,364 73,428.5 Q110,493 174.5,527 Q239,561 320,561 M261,439 Q179,356 179,277 Q179,198 220,156.5 Q261,115 320,115 Q379,115 420,156.5 Q461,198 461,277 Q461,356 420,397.5 Q379,439 320,439 M279,741 Q311,727 333,714 Q351,703 362.5,698 Q374,693 387,693 Q405,693 416.5,705 Q428,717 431,740 L504,740 Q494,674 462.5,641.5 Q431,609 382,609 Q361,609 344.5,616 Q328,623 305,636 Q287,646 276.5,651 Q266,656 253,656 Q216,656 209,609 L137,609 Q158,741 258,741"/> 
            <glyph glyph-name="ö" unicode="&#xF6;" horiz-adv-x="604" d=" M401,561 Q530,493 567,428.5 Q604,364 604,277 Q604,190 567,126 Q530,62 465.5,27.5 Q401,-7 320,-7 Q239,-7 174.5,27.5 Q110,62 73,126 Q36,190 36,277 Q36,364 73,428.5 Q110,493 174.5,527 Q239,561 320,561 M261,439 Q179,356 179,277 Q179,198 220,156.5 Q261,115 320,115 Q379,115 420,156.5 Q461,198 461,277 Q461,356 420,397.5 Q379,439 320,439 M163,713 Q200,750 226,750 Q254,750 272,731.5 Q290,713 290,686 Q290,660 272,641.5 Q254,623 226,623 Q200,623 181.5,641.5 Q163,660 163,686 M352,713 Q388,750 415,750 Q442,750 460.5,731.5 Q479,713 479,686 Q479,660 460.5,641.5 Q442,623 415,623 Q388,623 370,641.5 Q352,660 352,686"/> 
            <glyph glyph-name="÷" unicode="&#xF7;" horiz-adv-x="538" d=" M358,656 L358,509 L206,509 L206,656 M538,420 L538,292 L28,292 L28,420 M358,205 L358,58 L206,58 L206,205"/> 
            <glyph glyph-name="ø" unicode="&#xF8;" horiz-adv-x="605" d=" M530,473 Q563,437 581,387 Q599,337 599,277 Q599,190 562,126 Q525,62 460.5,27.5 Q396,-7 315,-7 Q211,-7 140,46 L98,0 L28,0 L101,80 Q67,117 49,167 Q31,217 31,277 Q31,364 68,428.5 Q105,493 169.5,527 Q234,561 315,561 Q417,561 492,508 L534,554 L605,554 M174,223 L195,183 L402,410 Q367,439 315,439 Q256,439 215,397.5 Q174,356 174,277 M456,329 L436,369 L229,143 Q266,115 315,115 Q374,115 415,156.5 Q456,198 456,277"/> 
            <glyph glyph-name="ù" unicode="&#xF9;" horiz-adv-x="594" d=" M594,554 L594,0 L453,0 L453,112 Q431,56 380.5,24.5 Q330,-7 264,-7 Q168,-7 111,56 Q54,119 54,232 L54,554 L194,554 L194,248 Q194,182 228,145.5 Q262,109 320,109 Q381,109 417,148 Q453,187 453,260 L453,554 M399,692 L399,596 L169,704 L169,812"/> 
            <glyph glyph-name="ú" unicode="&#xFA;" horiz-adv-x="594" d=" M594,554 L594,0 L453,0 L453,112 Q431,56 380.5,24.5 Q330,-7 264,-7 Q168,-7 111,56 Q54,119 54,232 L54,554 L194,554 L194,248 Q194,182 228,145.5 Q262,109 320,109 Q381,109 417,148 Q453,187 453,260 L453,554 M475,704 L245,596 L245,692 L475,812"/> 
            <glyph glyph-name="û" unicode="&#xFB;" horiz-adv-x="594" d=" M594,554 L594,0 L453,0 L453,112 Q431,56 380.5,24.5 Q330,-7 264,-7 Q168,-7 111,56 Q54,119 54,232 L54,554 L194,554 L194,248 Q194,182 228,145.5 Q262,109 320,109 Q381,109 417,148 Q453,187 453,260 L453,554 M324,688 L175,603 L175,698 L324,781 L472,698 L472,603"/> 
            <glyph glyph-name="ü" unicode="&#xFC;" horiz-adv-x="594" d=" M594,554 L594,0 L453,0 L453,112 Q431,56 380.5,24.5 Q330,-7 264,-7 Q168,-7 111,56 Q54,119 54,232 L54,554 L194,554 L194,248 Q194,182 228,145.5 Q262,109 320,109 Q381,109 417,148 Q453,187 453,260 L453,554 M166,713 Q203,750 229,750 Q257,750 275,731.5 Q293,713 293,686 Q293,660 275,641.5 Q257,623 229,623 Q203,623 184.5,641.5 Q166,660 166,686 M355,713 Q391,750 418,750 Q445,750 463.5,731.5 Q482,713 482,686 Q482,660 463.5,641.5 Q445,623 418,623 Q391,623 373,641.5 Q355,660 355,686"/> 
            <glyph glyph-name="ý" unicode="&#xFD;" horiz-adv-x="605" d=" M159,554 L310,178 L450,554 L605,554 L266,-264 L110,-264 L235,16 L2,554 M455,704 L225,596 L225,692 L455,812"/> 
            <glyph glyph-name="þ" unicode="&#xFE;" horiz-adv-x="640" d=" M457,560 Q573,488 606.5,423.5 Q640,359 640,275 Q640,191 606.5,127.5 Q573,64 515,29 Q457,-6 386,-6 Q322,-6 276.5,23.5 Q231,53 205,107 L205,-264 L64,-264 L64,740 L205,740 L205,455 Q230,505 276,532.5 Q322,560 386,560 M312,437 Q245,400 225,364 Q205,328 205,277 Q205,226 225,190 Q245,154 279,135.5 Q313,117 352,117 Q415,117 456,157.5 Q497,198 497,275 Q497,352 455.5,394.5 Q414,437 352,437"/> 
            <glyph glyph-name="ÿ" unicode="&#xFF;" horiz-adv-x="605" d=" M159,554 L310,178 L450,554 L605,554 L266,-264 L110,-264 L235,16 L2,554 M146,713 Q183,750 209,750 Q237,750 255,731.5 Q273,713 273,686 Q273,660 255,641.5 Q237,623 209,623 Q183,623 164.5,641.5 Q146,660 146,686 M335,713 Q371,750 398,750 Q425,750 443.5,731.5 Q462,713 462,686 Q462,660 443.5,641.5 Q425,623 398,623 Q371,623 353,641.5 Q335,660 335,686"/> 
            <glyph glyph-name="Ā" unicode="&#x100;" horiz-adv-x="692" d=" M494,142 L211,142 L161,0 L12,0 L272,698 L433,698 L692,0 L543,0 M456,249 L352,547 L248,249 M543,884 L543,789 L161,789 L161,884"/> 
            <glyph glyph-name="ā" unicode="&#x101;" horiz-adv-x="612" d=" M351,561 Q451,495 472,439 L472,554 L612,554 L612,0 L472,0 L472,116 Q451,60 401,26.5 Q351,-7 281,-7 Q211,-7 155,27 Q99,61 67.5,125.5 Q36,190 36,277 Q36,364 67.5,428.5 Q99,493 155,527 Q211,561 281,561 M259,438 Q179,352 179,277 Q179,202 219,159.5 Q259,117 325,117 Q389,117 430.5,160.5 Q472,204 472,277 Q472,351 430.5,394.5 Q389,438 325,438 M516,732 L516,637 L134,637 L134,732"/> 
            <glyph glyph-name="Ă" unicode="&#x102;" horiz-adv-x="692" d=" M494,142 L211,142 L161,0 L12,0 L272,698 L433,698 L692,0 L543,0 M456,249 L352,547 L248,249 M279,758 Q192,846 192,922 L192,934 L262,934 Q262,860 352,860 Q442,860 442,934 L512,934 L512,922 Q512,846 468.5,802 Q425,758 352,758"/> 
            <glyph glyph-name="ă" unicode="&#x103;" horiz-adv-x="612" d=" M351,561 Q451,495 472,439 L472,554 L612,554 L612,0 L472,0 L472,116 Q451,60 401,26.5 Q351,-7 281,-7 Q211,-7 155,27 Q99,61 67.5,125.5 Q36,190 36,277 Q36,364 67.5,428.5 Q99,493 155,527 Q211,561 281,561 M259,438 Q179,352 179,277 Q179,202 219,159.5 Q259,117 325,117 Q389,117 430.5,160.5 Q472,204 472,277 Q472,351 430.5,394.5 Q389,438 325,438 M251,606 Q164,694 164,770 L164,782 L234,782 Q234,708 324,708 Q414,708 414,782 L484,782 L484,770 Q484,694 440.5,650 Q397,606 324,606"/> 
            <glyph glyph-name="Ą" unicode="&#x104;" horiz-adv-x="732" d=" M732,-132 L732,-207 L604,-207 Q546,-207 507,-179 Q468,-151 468,-96 Q468,-24 542,3 L494,142 L211,142 L161,0 L12,0 L272,698 L433,698 L689,9 L689,-53 L617,-53 Q592,-53 578,-63 Q564,-73 564,-92 Q564,-111 578,-121.5 Q592,-132 617,-132 M456,249 L352,548 L248,249"/> 
            <glyph glyph-name="ą" unicode="&#x105;" horiz-adv-x="655" d=" M351,561 Q451,495 472,439 L472,554 L612,554 L612,0 L472,0 L472,116 Q451,60 401,26.5 Q351,-7 281,-7 Q211,-7 155,27 Q99,61 67.5,125.5 Q36,190 36,277 Q36,364 67.5,428.5 Q99,493 155,527 Q211,561 281,561 M259,438 Q179,352 179,277 Q179,202 219,159.5 Q259,117 325,117 Q389,117 430.5,160.5 Q472,204 472,277 Q472,351 430.5,394.5 Q389,438 325,438 M612,16 L612,-52 L541,-52 Q516,-52 501.5,-62.5 Q487,-73 487,-91 Q487,-110 501.5,-120.5 Q516,-131 541,-131 L655,-131 L655,-207 L527,-207 Q469,-207 430,-179 Q391,-151 391,-96 Q391,-41 428,-12.5 Q465,16 515,16"/> 
            <glyph glyph-name="Ć" unicode="&#x106;" horiz-adv-x="717" d=" M515,713 Q689,577 717,460 L569,460 Q546,517 497.5,550 Q449,583 381,583 Q325,583 280,555 Q235,527 210,475 Q185,423 185,353 Q185,284 210,232 Q235,180 280,152 Q325,124 381,124 Q449,124 497.5,157 Q546,190 569,247 L717,247 Q689,130 602,62 Q515,-6 383,-6 Q282,-6 204.5,39.5 Q127,85 84.5,167 Q42,249 42,353 Q42,458 84.5,540 Q127,622 204,667.5 Q281,713 383,713 M531,856 L301,748 L301,844 L531,964"/> 
            <glyph glyph-name="ć" unicode="&#x107;" horiz-adv-x="581" d=" M420,561 Q563,445 581,345 L432,345 Q423,389 391,414.5 Q359,440 310,440 Q254,440 216.5,398.5 Q179,357 179,277 Q179,197 216.5,155.5 Q254,114 310,114 Q359,114 391,139.5 Q423,165 432,209 L581,209 Q563,109 491.5,51 Q420,-7 313,-7 Q232,-7 169,27.5 Q106,62 71,126 Q36,190 36,277 Q36,364 71,428.5 Q106,493 169,527 Q232,561 313,561 M459,704 L229,596 L229,692 L459,812"/> 
            <glyph glyph-name="Ċ" unicode="&#x10A;" horiz-adv-x="717" d=" M515,713 Q689,577 717,460 L569,460 Q546,517 497.5,550 Q449,583 381,583 Q325,583 280,555 Q235,527 210,475 Q185,423 185,353 Q185,284 210,232 Q235,180 280,152 Q325,124 381,124 Q449,124 497.5,157 Q546,190 569,247 L717,247 Q689,130 602,62 Q515,-6 383,-6 Q282,-6 204.5,39.5 Q127,85 84.5,167 Q42,249 42,353 Q42,458 84.5,540 Q127,622 204,667.5 Q281,713 383,713 M316,865 Q353,902 379,902 Q406,902 424.5,883.5 Q443,865 443,838 Q443,812 424.5,793.5 Q406,775 379,775 Q353,775 334.5,793.5 Q316,812 316,838"/> 
            <glyph glyph-name="ċ" unicode="&#x10B;" horiz-adv-x="581" d=" M420,561 Q563,445 581,345 L432,345 Q423,389 391,414.5 Q359,440 310,440 Q254,440 216.5,398.5 Q179,357 179,277 Q179,197 216.5,155.5 Q254,114 310,114 Q359,114 391,139.5 Q423,165 432,209 L581,209 Q563,109 491.5,51 Q420,-7 313,-7 Q232,-7 169,27.5 Q106,62 71,126 Q36,190 36,277 Q36,364 71,428.5 Q106,493 169,527 Q232,561 313,561 M245,713 Q282,750 308,750 Q335,750 353.5,731.5 Q372,713 372,686 Q372,660 353.5,641.5 Q335,623 308,623 Q282,623 263.5,641.5 Q245,660 245,686"/> 
            <glyph glyph-name="Č" unicode="&#x10C;" horiz-adv-x="717" d=" M515,713 Q689,577 717,460 L569,460 Q546,517 497.5,550 Q449,583 381,583 Q325,583 280,555 Q235,527 210,475 Q185,423 185,353 Q185,284 210,232 Q235,180 280,152 Q325,124 381,124 Q449,124 497.5,157 Q546,190 569,247 L717,247 Q689,130 602,62 Q515,-6 383,-6 Q282,-6 204.5,39.5 Q127,85 84.5,167 Q42,249 42,353 Q42,458 84.5,540 Q127,622 204,667.5 Q281,713 383,713 M528,837 L380,754 L231,837 L231,932 L380,847 L528,932"/> 
            <glyph glyph-name="č" unicode="&#x10D;" horiz-adv-x="581" d=" M420,561 Q563,445 581,345 L432,345 Q423,389 391,414.5 Q359,440 310,440 Q254,440 216.5,398.5 Q179,357 179,277 Q179,197 216.5,155.5 Q254,114 310,114 Q359,114 391,139.5 Q423,165 432,209 L581,209 Q563,109 491.5,51 Q420,-7 313,-7 Q232,-7 169,27.5 Q106,62 71,126 Q36,190 36,277 Q36,364 71,428.5 Q106,493 169,527 Q232,561 313,561 M457,685 L309,602 L160,685 L160,780 L309,695 L457,780"/> 
            <glyph glyph-name="Ď" unicode="&#x10E;" horiz-adv-x="685" d=" M685,249 Q597,89 513.5,44.5 Q430,0 315,0 L64,0 L64,706 L315,706 Q430,706 513.5,662.5 Q597,619 641,539.5 Q685,460 685,354 M417,126 Q542,246 542,354 Q542,463 479.5,523 Q417,583 303,583 L205,583 L205,126 L303,126 M523,837 L375,754 L226,837 L226,932 L375,847 L523,932"/> 
            <glyph glyph-name="ď" unicode="&#x10F;" horiz-adv-x="804" d=" M351,561 Q450,495 472,439 L472,740 L612,740 L612,0 L472,0 L472,116 Q450,60 400.5,26.5 Q351,-7 281,-7 Q211,-7 155,27 Q99,61 67.5,125.5 Q36,190 36,277 Q36,364 67.5,428.5 Q99,493 155,527 Q211,561 281,561 M804,685 L804,632 Q804,568 772,531.5 Q740,495 678,495 L678,550 Q704,550 716.5,565 Q729,580 729,612 L729,631 L671,631 L671,740 L787,740 M259,438 Q179,352 179,277 Q179,202 219,159.5 Q259,117 325,117 Q389,117 430.5,160.5 Q472,204 472,277 Q472,351 430.5,394.5 Q389,438 325,438"/> 
            <glyph glyph-name="Đ" unicode="&#x110;" horiz-adv-x="701" d=" M446,706 Q613,619 657,539.5 Q701,460 701,354 Q701,249 657,169 Q613,89 529.5,44.5 Q446,0 331,0 L80,0 L80,298 L4,298 L4,411 L80,411 L80,706 L331,706 M433,126 Q558,246 558,354 Q558,463 495.5,523 Q433,583 319,583 L221,583 L221,411 L392,411 L392,298 L221,298 L221,126 L319,126"/> 
            <glyph glyph-name="đ" unicode="&#x111;" horiz-adv-x="678" d=" M678,615 L612,615 L612,0 L472,0 L472,116 Q450,60 400.5,26.5 Q351,-7 281,-7 Q211,-7 155,27 Q99,61 67.5,125.5 Q36,190 36,277 Q36,364 67.5,428.5 Q99,493 155,527 Q211,561 281,561 Q351,561 400.5,528 Q450,495 472,439 L472,615 L354,615 L354,680 L472,680 L472,740 L612,740 L612,680 L678,680 M389,117 Q472,204 472,277 Q472,351 430.5,394.5 Q389,438 325,438 Q259,438 219,395 Q179,352 179,277 Q179,202 219,159.5 Q259,117 325,117"/> 
            <glyph glyph-name="Ē" unicode="&#x112;" horiz-adv-x="485" d=" M205,594 L205,411 L455,411 L455,303 L205,303 L205,113 L485,113 L485,0 L64,0 L64,706 L485,706 L485,594 M466,884 L466,789 L84,789 L84,884"/> 
            <glyph glyph-name="ē" unicode="&#x113;" horiz-adv-x="585" d=" M585,277 L580,250 L174,250 Q177,176 214,141 Q251,106 306,106 Q355,106 387.5,130 Q420,154 429,195 L578,195 Q567,137 531,91 Q495,45 438.5,19 Q382,-7 313,-7 Q232,-7 169,27.5 Q106,62 71,126 Q36,190 36,277 Q36,364 71,428.5 Q106,493 169,527 Q232,561 313,561 Q395,561 456.5,527 Q518,493 551.5,433.5 Q585,374 585,298 M446,380 Q369,450 313,450 Q256,450 217,415 Q178,380 174,312 L443,312 M502,732 L502,637 L120,637 L120,732"/> 
            <glyph glyph-name="Ĕ" unicode="&#x114;" horiz-adv-x="485" d=" M205,594 L205,411 L455,411 L455,303 L205,303 L205,113 L485,113 L485,0 L64,0 L64,706 L485,706 L485,594 M201,758 Q114,846 114,922 L114,934 L184,934 Q184,860 274,860 Q364,860 364,934 L434,934 L434,922 Q434,846 390.5,802 Q347,758 274,758"/> 
            <glyph glyph-name="ĕ" unicode="&#x115;" horiz-adv-x="585" d=" M585,277 L580,250 L174,250 Q177,176 214,141 Q251,106 306,106 Q355,106 387.5,130 Q420,154 429,195 L578,195 Q567,137 531,91 Q495,45 438.5,19 Q382,-7 313,-7 Q232,-7 169,27.5 Q106,62 71,126 Q36,190 36,277 Q36,364 71,428.5 Q106,493 169,527 Q232,561 313,561 Q395,561 456.5,527 Q518,493 551.5,433.5 Q585,374 585,298 M446,380 Q369,450 313,450 Q256,450 217,415 Q178,380 174,312 L443,312 M237,606 Q150,694 150,770 L150,782 L220,782 Q220,708 310,708 Q400,708 400,782 L470,782 L470,770 Q470,694 426.5,650 Q383,606 310,606"/> 
            <glyph glyph-name="Ė" unicode="&#x116;" horiz-adv-x="485" d=" M205,594 L205,411 L455,411 L455,303 L205,303 L205,113 L485,113 L485,0 L64,0 L64,706 L485,706 L485,594 M211,865 Q248,902 274,902 Q301,902 319.5,883.5 Q338,865 338,838 Q338,812 319.5,793.5 Q301,775 274,775 Q248,775 229.5,793.5 Q211,812 211,838"/> 
            <glyph glyph-name="ė" unicode="&#x117;" horiz-adv-x="585" d=" M585,277 L580,250 L174,250 Q177,176 214,141 Q251,106 306,106 Q355,106 387.5,130 Q420,154 429,195 L578,195 Q567,137 531,91 Q495,45 438.5,19 Q382,-7 313,-7 Q232,-7 169,27.5 Q106,62 71,126 Q36,190 36,277 Q36,364 71,428.5 Q106,493 169,527 Q232,561 313,561 Q395,561 456.5,527 Q518,493 551.5,433.5 Q585,374 585,298 M446,380 Q369,450 313,450 Q256,450 217,415 Q178,380 174,312 L443,312 M247,713 Q284,750 310,750 Q337,750 355.5,731.5 Q374,713 374,686 Q374,660 355.5,641.5 Q337,623 310,623 Q284,623 265.5,641.5 Q247,660 247,686"/> 
            <glyph glyph-name="Ę" unicode="&#x118;" horiz-adv-x="501" d=" M205,594 L205,411 L455,411 L455,303 L205,303 L205,113 L485,113 L485,0 L64,0 L64,706 L485,706 L485,594 M458,61 L458,-7 L387,-7 Q362,-7 347.5,-17.5 Q333,-28 333,-46 Q333,-65 347.5,-75.5 Q362,-86 387,-86 L501,-86 L501,-162 L373,-162 Q315,-162 276,-134 Q237,-106 237,-51 Q237,4 274,32.5 Q311,61 361,61"/> 
            <glyph glyph-name="ę" unicode="&#x119;" horiz-adv-x="585" d=" M585,277 L580,250 L174,250 Q178,177 215.5,141.5 Q253,106 307,106 Q355,106 387.5,130.5 Q420,155 429,195 L578,195 Q564,120 510,67.5 Q456,15 375,0 Q363,-2 358,-7.5 Q353,-13 353,-23 Q353,-40 368.5,-50 Q384,-60 413,-60 L515,-60 L515,-136 L393,-136 Q335,-136 296,-108 Q257,-80 257,-25 L257,0 Q157,15 96.5,88.5 Q36,162 36,277 Q36,364 71,428.5 Q106,493 169,527 Q232,561 313,561 Q395,561 456.5,527 Q518,493 551.5,433.5 Q585,374 585,298 M446,380 Q369,450 313,450 Q256,450 217,415 Q178,380 174,312 L443,312"/> 
            <glyph glyph-name="Ě" unicode="&#x11A;" horiz-adv-x="485" d=" M205,594 L205,411 L455,411 L455,303 L205,303 L205,113 L485,113 L485,0 L64,0 L64,706 L485,706 L485,594 M423,837 L275,754 L126,837 L126,932 L275,847 L423,932"/> 
            <glyph glyph-name="ě" unicode="&#x11B;" horiz-adv-x="585" d=" M585,277 L580,250 L174,250 Q177,176 214,141 Q251,106 306,106 Q355,106 387.5,130 Q420,154 429,195 L578,195 Q567,137 531,91 Q495,45 438.5,19 Q382,-7 313,-7 Q232,-7 169,27.5 Q106,62 71,126 Q36,190 36,277 Q36,364 71,428.5 Q106,493 169,527 Q232,561 313,561 Q395,561 456.5,527 Q518,493 551.5,433.5 Q585,374 585,298 M446,380 Q369,450 313,450 Q256,450 217,415 Q178,380 174,312 L443,312 M459,685 L311,602 L162,685 L162,780 L311,695 L459,780"/> 
            <glyph glyph-name="Ğ" unicode="&#x11E;" horiz-adv-x="726" d=" M520,713 Q690,586 714,478 L566,478 Q545,526 499.5,554.5 Q454,583 392,583 Q331,583 284,555 Q237,527 211,475 Q185,423 185,353 Q185,242 244.5,180 Q304,118 407,118 Q483,118 537.5,163 Q592,208 608,288 L369,288 L369,389 L726,389 L726,253 Q711,183 667.5,124 Q624,65 553.5,29.5 Q483,-6 392,-6 Q288,-6 208.5,39.5 Q129,85 85.5,166.5 Q42,248 42,353 Q42,458 85.5,539.5 Q129,621 208,667 Q287,713 391,713 M311,758 Q224,846 224,922 L224,934 L294,934 Q294,860 384,860 Q474,860 474,934 L544,934 L544,922 Q544,846 500.5,802 Q457,758 384,758"/> 
            <glyph glyph-name="ğ" unicode="&#x11F;" horiz-adv-x="612" d=" M351,561 Q451,495 472,439 L472,554 L612,554 L612,-2 Q612,-79 581.5,-140.5 Q551,-202 490.5,-237 Q430,-272 344,-272 Q224,-272 150,-215 Q76,-158 60,-60 L199,-60 Q211,-102 245.5,-125.5 Q280,-149 334,-149 Q396,-149 434,-112.5 Q472,-76 472,-2 L472,116 Q451,60 401,26.5 Q351,-7 281,-7 Q211,-7 155,27 Q99,61 67.5,125.5 Q36,190 36,277 Q36,364 67.5,428.5 Q99,493 155,527 Q211,561 281,561 M259,438 Q179,352 179,277 Q179,202 219,159.5 Q259,117 325,117 Q389,117 430.5,160.5 Q472,204 472,277 Q472,351 430.5,394.5 Q389,438 325,438 M251,606 Q164,694 164,770 L164,782 L234,782 Q234,708 324,708 Q414,708 414,782 L484,782 L484,770 Q484,694 440.5,650 Q397,606 324,606"/> 
            <glyph glyph-name="Ġ" unicode="&#x120;" horiz-adv-x="726" d=" M520,713 Q690,586 714,478 L566,478 Q545,526 499.5,554.5 Q454,583 392,583 Q331,583 284,555 Q237,527 211,475 Q185,423 185,353 Q185,242 244.5,180 Q304,118 407,118 Q483,118 537.5,163 Q592,208 608,288 L369,288 L369,389 L726,389 L726,253 Q711,183 667.5,124 Q624,65 553.5,29.5 Q483,-6 392,-6 Q288,-6 208.5,39.5 Q129,85 85.5,166.5 Q42,248 42,353 Q42,458 85.5,539.5 Q129,621 208,667 Q287,713 391,713 M321,865 Q358,902 384,902 Q411,902 429.5,883.5 Q448,865 448,838 Q448,812 429.5,793.5 Q411,775 384,775 Q358,775 339.5,793.5 Q321,812 321,838"/> 
            <glyph glyph-name="ġ" unicode="&#x121;" horiz-adv-x="612" d=" M351,561 Q451,495 472,439 L472,554 L612,554 L612,-2 Q612,-79 581.5,-140.5 Q551,-202 490.5,-237 Q430,-272 344,-272 Q224,-272 150,-215 Q76,-158 60,-60 L199,-60 Q211,-102 245.5,-125.5 Q280,-149 334,-149 Q396,-149 434,-112.5 Q472,-76 472,-2 L472,116 Q451,60 401,26.5 Q351,-7 281,-7 Q211,-7 155,27 Q99,61 67.5,125.5 Q36,190 36,277 Q36,364 67.5,428.5 Q99,493 155,527 Q211,561 281,561 M259,438 Q179,352 179,277 Q179,202 219,159.5 Q259,117 325,117 Q389,117 430.5,160.5 Q472,204 472,277 Q472,351 430.5,394.5 Q389,438 325,438 M261,713 Q298,750 324,750 Q351,750 369.5,731.5 Q388,713 388,686 Q388,660 369.5,641.5 Q351,623 324,623 Q298,623 279.5,641.5 Q261,660 261,686"/> 
            <glyph glyph-name="Ģ" unicode="&#x122;" horiz-adv-x="726" d=" M520,713 Q690,586 714,478 L566,478 Q545,526 499.5,554.5 Q454,583 392,583 Q331,583 284,555 Q237,527 211,475 Q185,423 185,353 Q185,242 244.5,180 Q304,118 407,118 Q483,118 537.5,163 Q592,208 608,288 L369,288 L369,389 L726,389 L726,253 Q711,183 667.5,124 Q624,65 553.5,29.5 Q483,-6 392,-6 Q288,-6 208.5,39.5 Q129,85 85.5,166.5 Q42,248 42,353 Q42,458 85.5,539.5 Q129,621 208,667 Q287,713 391,713 M460,-90 L460,-138 Q460,-204 428,-241 Q396,-278 335,-278 L335,-224 Q385,-224 385,-157 L385,-148 L330,-148 L330,-45 L444,-45"/> 
            <glyph glyph-name="ģ" unicode="&#x123;" horiz-adv-x="612" d=" M270,652 L270,705 Q270,769 302,805.5 Q334,842 395,842 L395,787 Q344,787 344,724 L344,706 L403,706 L403,597 L287,597 M351,561 Q451,495 472,439 L472,554 L612,554 L612,-2 Q612,-79 581.5,-140.5 Q551,-202 490.5,-237 Q430,-272 344,-272 Q224,-272 150,-215 Q76,-158 60,-60 L199,-60 Q211,-102 245.5,-125.5 Q280,-149 334,-149 Q396,-149 434,-112.5 Q472,-76 472,-2 L472,116 Q451,60 401,26.5 Q351,-7 281,-7 Q211,-7 155,27 Q99,61 67.5,125.5 Q36,190 36,277 Q36,364 67.5,428.5 Q99,493 155,527 Q211,561 281,561 M259,438 Q179,352 179,277 Q179,202 219,159.5 Q259,117 325,117 Q389,117 430.5,160.5 Q472,204 472,277 Q472,351 430.5,394.5 Q389,438 325,438"/> 
            <glyph glyph-name="Ĩ" unicode="&#x128;" horiz-adv-x="318" d=" M205,706 L205,0 L64,0 L64,706 M65629,893 Q65661,879 65683,866 Q65701,855 65712.5,850 Q65724,845 65737,845 Q65755,845 65766.5,857 Q65778,869 65781,892 L65854,892 Q65844,826 65812.5,793.5 Q65781,761 65732,761 Q65711,761 65694.5,768 Q65678,775 65655,788 Q65637,798 65626.5,803 Q65616,808 65603,808 Q65566,808 65559,761 L65487,761 Q65508,893 65608,893"/> 
            <glyph glyph-name="ĩ" unicode="&#x129;" horiz-adv-x="333" d=" M220,554 L220,0 L79,0 L79,554 M364,741 Q396,727 418,714 Q436,703 447.5,698 Q459,693 472,693 Q490,693 501.5,705 Q513,717 516,740 L589,740 Q579,674 547.5,641.5 Q516,609 467,609 Q446,609 429.5,616 Q413,623 390,636 Q372,646 361.5,651 Q351,656 338,656 Q301,656 294,609 L222,609 Q243,741 343,741"/> 
            <glyph glyph-name="Ī" unicode="&#x12A;" horiz-adv-x="326" d=" M205,706 L205,0 L64,0 L64,706 M65862,884 L65862,789 L65480,789 L65480,884"/> 
            <glyph glyph-name="ī" unicode="&#x12B;" horiz-adv-x="341" d=" M220,554 L220,0 L79,0 L79,554 M597,732 L597,637 L215,637 L215,732"/> 
            <glyph glyph-name="Ĭ" unicode="&#x12C;" horiz-adv-x="295" d=" M205,706 L205,0 L64,0 L64,706 M65598,758 Q65511,846 65511,922 L65511,934 L65581,934 Q65581,860 65671,860 Q65761,860 65761,934 L65831,934 L65831,922 Q65831,846 65787.5,802 Q65744,758 65671,758"/> 
            <glyph glyph-name="ĭ" unicode="&#x12D;" horiz-adv-x="310" d=" M220,554 L220,0 L79,0 L79,554 M333,606 Q246,694 246,770 L246,782 L316,782 Q316,708 406,708 Q496,708 496,782 L566,782 L566,770 Q566,694 522.5,650 Q479,606 406,606"/> 
            <glyph glyph-name="Į" unicode="&#x12E;" horiz-adv-x="248" d=" M205,706 L205,0 L64,0 L64,706 M461,16 L461,-52 L390,-52 Q365,-52 350.5,-62.5 Q336,-73 336,-91 Q336,-110 350.5,-120.5 Q365,-131 390,-131 L504,-131 L504,-207 L376,-207 Q318,-207 279,-179 Q240,-151 240,-96 Q240,-41 277,-12.5 Q314,16 364,16"/> 
            <glyph glyph-name="į" unicode="&#x12F;" horiz-adv-x="248" d=" M48,747 Q96,790 135,790 Q174,790 198,768.5 Q222,747 222,713 Q222,680 198,658.5 Q174,637 135,637 Q96,637 72,658.5 Q48,680 48,713 M205,554 L205,0 L64,0 L64,554 M461,16 L461,-52 L390,-52 Q365,-52 350.5,-62.5 Q336,-73 336,-91 Q336,-110 350.5,-120.5 Q365,-131 390,-131 L504,-131 L504,-207 L376,-207 Q318,-207 279,-179 Q240,-151 240,-96 Q240,-41 277,-12.5 Q314,16 364,16"/> 
            <glyph glyph-name="İ" unicode="&#x130;" horiz-adv-x="205" d=" M205,706 L205,0 L64,0 L64,706 M71,865 Q108,902 134,902 Q161,902 179.5,883.5 Q198,865 198,838 Q198,812 179.5,793.5 Q161,775 134,775 Q108,775 89.5,793.5 Q71,812 71,838"/> 
            <glyph glyph-name="ı" unicode="&#x131;" horiz-adv-x="220" d=" M220,554 L220,0 L79,0 L79,554"/> 
            <glyph glyph-name="Ķ" unicode="&#x136;" horiz-adv-x="637" d=" M338,359 L637,0 L466,0 L205,323 L205,0 L64,0 L64,706 L205,706 L205,389 L467,706 L637,706 M392,-45 Q408,-90 408,-138 Q408,-204 376,-241 Q344,-278 284,-278 L284,-224 Q334,-224 334,-157 L334,-148 L278,-148 L278,-45"/> 
            <glyph glyph-name="ķ" unicode="&#x137;" horiz-adv-x="560" d=" M560,0 L388,0 L205,242 L205,0 L64,0 L64,740 L205,740 L205,324 L387,554 L554,554 L321,278 M342,-45 Q358,-90 358,-138 Q358,-204 326,-241 Q294,-278 233,-278 L233,-224 Q284,-224 284,-157 L284,-148 L228,-148 L228,-45"/> 
            <glyph glyph-name="Ĺ" unicode="&#x139;" horiz-adv-x="442" d=" M205,108 L442,108 L442,0 L64,0 L64,706 L205,706 M347,856 L117,748 L117,844 L347,964"/> 
            <glyph glyph-name="ĺ" unicode="&#x13A;" horiz-adv-x="294" d=" M205,740 L205,0 L64,0 L64,740 M294,874 L64,766 L64,862 L294,982"/> 
            <glyph glyph-name="Ļ" unicode="&#x13B;" horiz-adv-x="442" d=" M205,108 L442,108 L442,0 L64,0 L64,706 L205,706 M339,-90 L339,-138 Q339,-204 307,-241 Q275,-278 214,-278 L214,-224 Q264,-224 264,-157 L264,-148 L209,-148 L209,-45 L323,-45"/> 
            <glyph glyph-name="ļ" unicode="&#x13C;" horiz-adv-x="209" d=" M205,740 L205,0 L64,0 L64,740 M209,-90 L209,-138 Q209,-204 177,-241 Q145,-278 84,-278 L84,-224 Q135,-224 135,-157 L135,-148 L79,-148 L79,-45 L193,-45"/> 
            <glyph glyph-name="Ľ" unicode="&#x13D;" horiz-adv-x="447" d=" M205,108 L442,108 L442,0 L64,0 L64,706 L205,706 M447,651 L447,598 Q447,534 415,497.5 Q383,461 322,461 L322,516 Q373,516 373,579 L373,598 L314,598 L314,706 L430,706"/> 
            <glyph glyph-name="ľ" unicode="&#x13E;" horiz-adv-x="392" d=" M205,740 L205,0 L64,0 L64,740 M392,688 L392,632 Q392,568 360.5,531.5 Q329,495 267,495 L267,550 Q293,550 305.5,565 Q318,580 318,612 L318,631 L260,631 L260,740 L376,740"/> 
            <glyph glyph-name="Ŀ" unicode="&#x13F;" horiz-adv-x="442" d=" M205,108 L442,108 L442,0 L64,0 L64,706 L205,706 M315,65916 Q352,65953 378,65953 Q405,65953 423.5,65934.5 Q442,65916 442,65889 Q442,65863 423.5,65844.5 Q405,65826 378,65826 Q352,65826 333.5,65844.5 Q315,65863 315,65889"/> 
            <glyph glyph-name="ŀ" unicode="&#x140;" horiz-adv-x="354" d=" M205,740 L205,0 L64,0 L64,740 M227,65933 Q264,65970 290,65970 Q317,65970 335.5,65951.5 Q354,65933 354,65906 Q354,65880 335.5,65861.5 Q317,65843 290,65843 Q264,65843 245.5,65861.5 Q227,65880 227,65906"/> 
            <glyph glyph-name="Ł" unicode="&#x141;" horiz-adv-x="459" d=" M459,108 L459,0 L81,0 L81,281 L10,257 L10,396 L81,420 L81,706 L222,706 L222,468 L332,506 L332,368 L222,330 L222,108"/> 
            <glyph glyph-name="ł" unicode="&#x142;" horiz-adv-x="297" d=" M297,403 L224,377 L224,0 L83,0 L83,327 L10,301 L10,439 L83,465 L83,740 L224,740 L224,514 L297,540"/> 
            <glyph glyph-name="Ń" unicode="&#x143;" horiz-adv-x="662" d=" M662,0 L521,0 L205,480 L205,0 L64,0 L64,706 L205,706 L521,222 L521,706 L662,706 M514,856 L284,748 L284,844 L514,964"/> 
            <glyph glyph-name="ń" unicode="&#x144;" horiz-adv-x="604" d=" M490,562 Q604,436 604,322 L604,0 L464,0 L464,306 Q464,372 430,408.5 Q396,445 337,445 Q277,445 241,406 Q205,367 205,294 L205,0 L64,0 L64,554 L205,554 L205,443 Q227,499 277.5,530.5 Q328,562 394,562 M485,704 L255,596 L255,692 L485,812"/> 
            <glyph glyph-name="Ņ" unicode="&#x145;" horiz-adv-x="662" d=" M662,0 L521,0 L205,480 L205,0 L64,0 L64,706 L205,706 L521,222 L521,706 L662,706 M450,-93 L450,-138 Q450,-204 418,-241 Q386,-278 325,-278 L325,-224 Q375,-224 375,-157 L375,-148 L319,-148 L319,-45 L433,-45"/> 
            <glyph glyph-name="ņ" unicode="&#x146;" horiz-adv-x="604" d=" M490,562 Q604,436 604,322 L604,0 L464,0 L464,306 Q464,372 430,408.5 Q396,445 337,445 Q277,445 241,406 Q205,367 205,294 L205,0 L64,0 L64,554 L205,554 L205,443 Q227,499 277.5,530.5 Q328,562 394,562 M405,-45 Q420,-87 420,-138 Q420,-204 388,-241 Q356,-278 296,-278 L296,-224 Q346,-224 346,-157 L346,-148 L291,-148 L291,-45"/> 
            <glyph glyph-name="Ň" unicode="&#x147;" horiz-adv-x="662" d=" M662,0 L521,0 L205,480 L205,0 L64,0 L64,706 L205,706 L521,222 L521,706 L662,706 M511,837 L363,754 L214,837 L214,932 L363,847 L511,932"/> 
            <glyph glyph-name="ň" unicode="&#x148;" horiz-adv-x="604" d=" M490,562 Q604,436 604,322 L604,0 L464,0 L464,306 Q464,372 430,408.5 Q396,445 337,445 Q277,445 241,406 Q205,367 205,294 L205,0 L64,0 L64,554 L205,554 L205,443 Q227,499 277.5,530.5 Q328,562 394,562 M482,685 L334,602 L185,685 L185,780 L334,695 L482,780"/> 
            <glyph glyph-name="Ō" unicode="&#x14C;" horiz-adv-x="748" d=" M494,716 Q655,624 701.5,541.5 Q748,459 748,355 Q748,251 701.5,168 Q655,85 574.5,39 Q494,-7 395,-7 Q296,-7 215.5,39 Q135,85 88.5,168 Q42,251 42,355 Q42,459 88.5,541.5 Q135,624 215.5,670 Q296,716 395,716 M333,586 Q239,530 212.5,477.5 Q186,425 186,355 Q186,285 212.5,232.5 Q239,180 286,152 Q333,124 395,124 Q457,124 504,152 Q551,180 577.5,232.5 Q604,285 604,355 Q604,425 577.5,477.5 Q551,530 504,558 Q457,586 395,586 M586,884 L586,789 L204,789 L204,884"/> 
            <glyph glyph-name="ō" unicode="&#x14D;" horiz-adv-x="604" d=" M401,561 Q530,493 567,428.5 Q604,364 604,277 Q604,190 567,126 Q530,62 465.5,27.5 Q401,-7 320,-7 Q239,-7 174.5,27.5 Q110,62 73,126 Q36,190 36,277 Q36,364 73,428.5 Q110,493 174.5,527 Q239,561 320,561 M261,439 Q179,356 179,277 Q179,198 220,156.5 Q261,115 320,115 Q379,115 420,156.5 Q461,198 461,277 Q461,356 420,397.5 Q379,439 320,439 M511,732 L511,637 L129,637 L129,732"/> 
            <glyph glyph-name="Ŏ" unicode="&#x14E;" horiz-adv-x="748" d=" M494,716 Q655,624 701.5,541.5 Q748,459 748,355 Q748,251 701.5,168 Q655,85 574.5,39 Q494,-7 395,-7 Q296,-7 215.5,39 Q135,85 88.5,168 Q42,251 42,355 Q42,459 88.5,541.5 Q135,624 215.5,670 Q296,716 395,716 M333,586 Q239,530 212.5,477.5 Q186,425 186,355 Q186,285 212.5,232.5 Q239,180 286,152 Q333,124 395,124 Q457,124 504,152 Q551,180 577.5,232.5 Q604,285 604,355 Q604,425 577.5,477.5 Q551,530 504,558 Q457,586 395,586 M322,758 Q235,846 235,922 L235,934 L305,934 Q305,860 395,860 Q485,860 485,934 L555,934 L555,922 Q555,846 511.5,802 Q468,758 395,758"/> 
            <glyph glyph-name="ŏ" unicode="&#x14F;" horiz-adv-x="604" d=" M401,561 Q530,493 567,428.5 Q604,364 604,277 Q604,190 567,126 Q530,62 465.5,27.5 Q401,-7 320,-7 Q239,-7 174.5,27.5 Q110,62 73,126 Q36,190 36,277 Q36,364 73,428.5 Q110,493 174.5,527 Q239,561 320,561 M261,439 Q179,356 179,277 Q179,198 220,156.5 Q261,115 320,115 Q379,115 420,156.5 Q461,198 461,277 Q461,356 420,397.5 Q379,439 320,439 M247,606 Q160,694 160,770 L160,782 L230,782 Q230,708 320,708 Q410,708 410,782 L480,782 L480,770 Q480,694 436.5,650 Q393,606 320,606"/> 
            <glyph glyph-name="Ő" unicode="&#x150;" horiz-adv-x="748" d=" M494,716 Q655,624 701.5,541.5 Q748,459 748,355 Q748,251 701.5,168 Q655,85 574.5,39 Q494,-7 395,-7 Q296,-7 215.5,39 Q135,85 88.5,168 Q42,251 42,355 Q42,459 88.5,541.5 Q135,624 215.5,670 Q296,716 395,716 M333,586 Q239,530 212.5,477.5 Q186,425 186,355 Q186,285 212.5,232.5 Q239,180 286,152 Q333,124 395,124 Q457,124 504,152 Q551,180 577.5,232.5 Q604,285 604,355 Q604,425 577.5,477.5 Q551,530 504,558 Q457,586 395,586 M343,753 L255,753 L327,941 L437,941 M520,753 L432,753 L521,941 L631,941"/> 
            <glyph glyph-name="ő" unicode="&#x151;" horiz-adv-x="604" d=" M401,561 Q530,493 567,428.5 Q604,364 604,277 Q604,190 567,126 Q530,62 465.5,27.5 Q401,-7 320,-7 Q239,-7 174.5,27.5 Q110,62 73,126 Q36,190 36,277 Q36,364 73,428.5 Q110,493 174.5,527 Q239,561 320,561 M261,439 Q179,356 179,277 Q179,198 220,156.5 Q261,115 320,115 Q379,115 420,156.5 Q461,198 461,277 Q461,356 420,397.5 Q379,439 320,439 M274,601 L186,601 L258,789 L368,789 M451,601 L363,601 L452,789 L562,789"/> 
            <glyph glyph-name="Œ" unicode="&#x152;" horiz-adv-x="1031" d=" M752,411 L1001,411 L1001,303 L752,303 L752,113 L1031,113 L1031,0 L611,0 L611,118 Q581,59 520,25 Q459,-9 385,-10 Q286,-10 208,36 Q130,82 86,165 Q42,248 42,353 Q42,458 86,540.5 Q130,623 208.5,669.5 Q287,716 385,716 Q459,716 520,681.5 Q581,647 611,587 L611,706 L1031,706 L1031,594 L752,594 M457,120 Q552,177 578,229.5 Q604,282 604,353 Q604,423 577.5,476 Q551,529 504,557.5 Q457,586 395,586 Q333,586 286,557.5 Q239,529 212.5,476 Q186,423 186,353 Q186,282 212,229.5 Q238,177 285.5,148.5 Q333,120 395,120"/> 
            <glyph glyph-name="œ" unicode="&#x153;" horiz-adv-x="1016" d=" M1016,277 L1011,250 L604,250 Q608,176 645,141 Q682,106 737,106 Q785,106 818,130.5 Q851,155 859,195 L1008,195 Q997,137 961.5,91 Q926,45 869.5,19 Q813,-7 744,-7 Q674,-7 619.5,21.5 Q565,50 534,103 Q502,51 446,22 Q390,-7 320,-7 Q239,-7 174.5,27.5 Q110,62 73,126 Q36,190 36,277 Q36,364 73,428.5 Q110,493 174.5,527 Q239,561 320,561 Q390,561 446,532 Q502,503 534,451 Q565,504 619.5,532.5 Q674,561 744,561 Q826,561 887.5,527 Q949,493 982.5,433.5 Q1016,374 1016,298 M876,380 Q800,450 744,450 Q686,450 647,415 Q608,380 604,312 L873,312 M379,115 Q461,198 461,277 Q461,356 420,397.5 Q379,439 320,439 Q261,439 220,397.5 Q179,356 179,277 Q179,198 220,156.5 Q261,115 320,115"/> 
            <glyph glyph-name="Ŕ" unicode="&#x154;" horiz-adv-x="588" d=" M432,0 L267,275 L205,275 L205,0 L64,0 L64,706 L333,706 Q456,706 520.5,646 Q585,586 585,488 Q585,408 540.5,354 Q496,300 412,282 L588,0 M205,372 L321,372 Q442,372 442,479 Q442,530 412.5,558.5 Q383,587 321,587 L205,587 M477,856 L247,748 L247,844 L477,964"/> 
            <glyph glyph-name="ŕ" unicode="&#x155;" horiz-adv-x="401" d=" M236,501 Q338,562 401,562 L401,411 L360,411 Q205,411 205,267 L205,0 L64,0 L64,554 L205,554 L205,448 M384,704 L154,596 L154,692 L384,812"/> 
            <glyph glyph-name="Ŗ" unicode="&#x156;" horiz-adv-x="588" d=" M588,0 L432,0 L267,275 L205,275 L205,0 L64,0 L64,706 L333,706 Q456,706 520.5,646 Q585,586 585,488 Q585,408 540.5,354 Q496,300 412,282 M205,372 L321,372 Q442,372 442,479 Q442,530 412.5,558.5 Q383,587 321,587 L205,587 M371,-45 Q387,-90 387,-138 Q387,-204 355,-241 Q323,-278 262,-278 L262,-224 Q312,-224 312,-157 L312,-148 L257,-148 L257,-45"/> 
            <glyph glyph-name="ŗ" unicode="&#x157;" horiz-adv-x="401" d=" M236,501 Q338,562 401,562 L401,411 L360,411 Q205,411 205,267 L205,0 L64,0 L64,554 L205,554 L205,448 M189,-45 Q205,-90 205,-138 Q205,-204 173,-241 Q141,-278 80,-278 L80,-224 Q130,-224 130,-157 L130,-148 L75,-148 L75,-45"/> 
            <glyph glyph-name="Ř" unicode="&#x158;" horiz-adv-x="588" d=" M432,0 L267,275 L205,275 L205,0 L64,0 L64,706 L333,706 Q456,706 520.5,646 Q585,586 585,488 Q585,408 540.5,354 Q496,300 412,282 L588,0 M205,372 L321,372 Q442,372 442,479 Q442,530 412.5,558.5 Q383,587 321,587 L205,587 M475,837 L327,754 L178,837 L178,932 L327,847 L475,932"/> 
            <glyph glyph-name="ř" unicode="&#x159;" horiz-adv-x="401" d=" M236,501 Q338,562 401,562 L401,411 L360,411 Q205,411 205,267 L205,0 L64,0 L64,554 L205,554 L205,448 M381,685 L233,602 L84,685 L84,780 L233,695 L381,780"/> 
            <glyph glyph-name="Ś" unicode="&#x15A;" horiz-adv-x="549" d=" M549,139 Q495,48 442,20.5 Q389,-7 313,-7 Q238,-7 179,18.5 Q120,44 84.5,92 Q49,140 44,204 L194,204 Q199,161 228.5,132.5 Q258,104 307,104 Q351,104 374.5,127.5 Q398,151 398,188 Q398,221 379,242.5 Q360,264 331,277 Q302,290 251,307 Q185,329 143,350.5 Q101,372 71.5,413 Q42,454 42,520 Q42,611 107.5,663.5 Q173,716 281,716 Q393,716 459.5,662 Q526,608 535,518 L383,518 Q377,556 351,580.5 Q325,605 280,605 Q241,605 217,584.5 Q193,564 193,525 Q193,494 211.5,473.5 Q230,453 258.5,440 Q287,427 336,411 Q404,387 446.5,366 Q489,345 519,303 Q549,261 549,193 M446,856 L216,748 L216,844 L446,964"/> 
            <glyph glyph-name="ś" unicode="&#x15B;" horiz-adv-x="500" d=" M356,561 Q478,459 493,374 L361,374 Q353,414 325,438 Q297,462 252,462 Q216,462 196,445 Q176,428 176,399 Q176,376 192,362 Q208,348 232,340 Q256,332 301,321 Q364,307 403.5,291.5 Q443,276 471.5,242.5 Q500,209 500,152 Q500,81 444.5,37 Q389,-7 295,-7 Q187,-7 122,41.5 Q57,90 43,180 L178,180 Q183,139 214,115.5 Q245,92 295,92 Q331,92 350,109.5 Q369,127 369,155 Q369,179 352.5,194 Q336,209 311.5,217 Q287,225 242,236 Q180,250 141.5,264.5 Q103,279 75.5,311 Q48,343 48,399 Q48,471 103,516 Q158,561 255,561 M422,704 L192,596 L192,692 L422,812"/> 
            <glyph glyph-name="Ş" unicode="&#x15E;" horiz-adv-x="549" d=" M549,139 Q495,48 442,20.5 Q389,-7 313,-7 Q238,-7 179,18.5 Q120,44 84.5,92 Q49,140 44,204 L194,204 Q199,161 228.5,132.5 Q258,104 307,104 Q351,104 374.5,127.5 Q398,151 398,188 Q398,221 379,242.5 Q360,264 331,277 Q302,290 251,307 Q185,329 143,350.5 Q101,372 71.5,413 Q42,454 42,520 Q42,611 107.5,663.5 Q173,716 281,716 Q393,716 459.5,662 Q526,608 535,518 L383,518 Q377,556 351,580.5 Q325,605 280,605 Q241,605 217,584.5 Q193,564 193,525 Q193,494 211.5,473.5 Q230,453 258.5,440 Q287,427 336,411 Q404,387 446.5,366 Q489,345 519,303 Q549,261 549,193 M400,-50 Q475,-102 475,-157 Q475,-211 437,-237.5 Q399,-264 343,-264 L214,-264 L214,-188 L328,-188 Q379,-188 379,-152 Q379,-137 366.5,-128 Q354,-119 328,-119 L262,-119 L262,7 L347,7 L347,-52"/> 
            <glyph glyph-name="ş" unicode="&#x15F;" horiz-adv-x="500" d=" M356,561 Q478,459 493,374 L361,374 Q353,414 325,438 Q297,462 252,462 Q216,462 196,445 Q176,428 176,399 Q176,376 192,362 Q208,348 232,340 Q256,332 301,321 Q364,307 403.5,291.5 Q443,276 471.5,242.5 Q500,209 500,152 Q500,81 444.5,37 Q389,-7 295,-7 Q187,-7 122,41.5 Q57,90 43,180 L178,180 Q183,139 214,115.5 Q245,92 295,92 Q331,92 350,109.5 Q369,127 369,155 Q369,179 352.5,194 Q336,209 311.5,217 Q287,225 242,236 Q180,250 141.5,264.5 Q103,279 75.5,311 Q48,343 48,399 Q48,471 103,516 Q158,561 255,561 M371,-50 Q446,-102 446,-157 Q446,-211 408,-237.5 Q370,-264 314,-264 L185,-264 L185,-188 L299,-188 Q350,-188 350,-152 Q350,-137 337.5,-128 Q325,-119 299,-119 L233,-119 L233,7 L318,7 L318,-52"/> 
            <glyph glyph-name="Š" unicode="&#x160;" horiz-adv-x="549" d=" M549,139 Q495,48 442,20.5 Q389,-7 313,-7 Q238,-7 179,18.5 Q120,44 84.5,92 Q49,140 44,204 L194,204 Q199,161 228.5,132.5 Q258,104 307,104 Q351,104 374.5,127.5 Q398,151 398,188 Q398,221 379,242.5 Q360,264 331,277 Q302,290 251,307 Q185,329 143,350.5 Q101,372 71.5,413 Q42,454 42,520 Q42,611 107.5,663.5 Q173,716 281,716 Q393,716 459.5,662 Q526,608 535,518 L383,518 Q377,556 351,580.5 Q325,605 280,605 Q241,605 217,584.5 Q193,564 193,525 Q193,494 211.5,473.5 Q230,453 258.5,440 Q287,427 336,411 Q404,387 446.5,366 Q489,345 519,303 Q549,261 549,193 M444,837 L296,754 L147,837 L147,932 L296,847 L444,932"/> 
            <glyph glyph-name="š" unicode="&#x161;" horiz-adv-x="500" d=" M356,561 Q478,459 493,374 L361,374 Q353,414 325,438 Q297,462 252,462 Q216,462 196,445 Q176,428 176,399 Q176,376 192,362 Q208,348 232,340 Q256,332 301,321 Q364,307 403.5,291.5 Q443,276 471.5,242.5 Q500,209 500,152 Q500,81 444.5,37 Q389,-7 295,-7 Q187,-7 122,41.5 Q57,90 43,180 L178,180 Q183,139 214,115.5 Q245,92 295,92 Q331,92 350,109.5 Q369,127 369,155 Q369,179 352.5,194 Q336,209 311.5,217 Q287,225 242,236 Q180,250 141.5,264.5 Q103,279 75.5,311 Q48,343 48,399 Q48,471 103,516 Q158,561 255,561 M420,685 L272,602 L123,685 L123,780 L272,695 L420,780"/> 
            <glyph glyph-name="Ţ" unicode="&#x162;" horiz-adv-x="544" d=" M349,594 L349,5 Q391,-9 410.5,-32 Q430,-55 430,-90 Q430,-144 392,-170.5 Q354,-197 297,-197 L171,-197 L171,-122 L285,-122 Q334,-122 334,-86 Q334,-52 285,-52 L208,-52 L208,594 L14,594 L14,706 L544,706 L544,594"/> 
            <glyph glyph-name="ţ" unicode="&#x163;" horiz-adv-x="405" d=" M329,-50 Q405,-102 405,-157 Q405,-211 367,-237.5 Q329,-264 272,-264 L143,-264 L143,-188 L257,-188 Q309,-188 309,-152 Q309,-137 296.5,-128 Q284,-119 257,-119 L192,-119 L192,15 Q94,54 94,195 L94,435 L17,435 L17,554 L94,554 L94,691 L235,691 L235,554 L359,554 L359,435 L235,435 L235,193 Q235,153 251,137 Q267,121 305,121 L360,121 L360,0 L286,0 L276,0 L276,-52"/> 
            <glyph glyph-name="Ť" unicode="&#x164;" horiz-adv-x="544" d=" M544,706 L544,594 L349,594 L349,0 L208,0 L208,594 L14,594 L14,706 M428,837 L280,754 L131,837 L131,932 L280,847 L428,932"/> 
            <glyph glyph-name="ť" unicode="&#x165;" horiz-adv-x="417" d=" M417,775 L417,728 Q417,669 385,636 Q353,603 291,603 L291,658 Q342,658 342,699 L342,721 L284,721 L284,830 L400,830 M235,153 Q267,121 305,121 L360,121 L360,0 L286,0 Q193,0 143.5,45 Q94,90 94,195 L94,435 L17,435 L17,554 L94,554 L94,691 L235,691 L235,554 L359,554 L359,435 L235,435 L235,193"/> 
            </font>
</defs>
</svg>
