<svg xmlns="http://www.w3.org/2000/svg" width="1944" height="2592"><path fill="currentColor" d="M1053.85 35.006c.93.464 1.85.928 2.78 1.392s1.86.928 2.78 1.392c-5.39 2.128-8.95 4.22-16.7 4.176-.46-1.856-.93-3.712-1.39-5.567zm336.82 264.45c-12.52-1.274-17.94-5.5-29.23 0q-6.94 22.267-13.91 44.544c-.75-9.911-2.21-5.313-5.57-9.743v-15.31c-16.67 7.916-97.22 23.939-119.7 15.31-28.54-10.957-51.8-26.55-80.73-40.363-12.69-6.062-27.28 1.326-38.97-2.784q-6.255-6.959-12.52-13.919c-9.6 1.926-12.46 7.9-19.49 12.527q-2.085-1.392-4.18-2.784c-.46-3.413-.9-3.538-2.78-8.351q-2.085 1.392-4.18 2.784c-2.89 6.943-12.08 12.22-19.48 9.743-3.36-2.324-3.56-3.371-5.57-6.959l-4.17 5.567c-34.821-18.725-114.127 7.771-135.013 23.661-21.461-14.348-50.184-4.022-68.2 12.527.268-6.442 1.7-6.275-4.176-9.743-16.7-7.324-24.045 6.791-37.579 12.527-7.843-12.407-73-24.468-79.335-25.053-.221-5.02.251-7.786-5.568-11.135l-4.175-1.392-1.392 1.392-2.784 26.445-2.783-1.392c-.423-8.328-2.029-10.742-5.568-15.31l-5.567 1.392c-3.139 9.41-14.144 13.781-20.878 19.485v-2.783c-3.223-6.753-.3-8.374-9.743-9.743-22.217 8.104-43.429 22.971-61.241 36.183-11.813.452-16.272-1.115-22.269-5.568 3.287 7.262 5.749 10.013 15.31 11.135l-1.392 4.176c-11.075 2.935-20.4 9.284-29.229 18.093h-6.959c-2.75-6.742-3.24-9.153-11.135-11.134-2.794 5.59-1.539 1.637-5.567 4.175l-5.567-5.567 9.743 2.784c-2-6.1-3.107-6.085-6.96-9.743l4.176-4.176-4.176-4.175c-1.516 8.182-1.587 8.185-11.134 8.351v-1.392c7.476-1.023 6.732.115 8.351-6.959L517.988 344c-23.96-.143-32.368 17.487-43.147 19.486l-1.392-4.176c3.8-8.774 7.853-15.654 18.094-18.094l-8.351 9.743c5.652-1.171 50.762-22.217 55.674-26.445l-2.784-1.392-30.621 6.96 2.784-4.176 19.486-13.918v6.959h9.743c-.363-13.385 2.218-15.248 6.959-22.27l-6.959-5.567c11.038-2 7.115-6.152 11.134-13.919 7.226-1.106 7.974-2.622 11.135 2.784-4.285.922-3.313-1.063-4.175 6.959l9.743 11.135 2.783-1.392c.515-13.212-.953-22.775-6.959-29.228h6.959c1.66 9.063 4.356 10.341 11.135 13.918l6.959-2.784 5.568-16.7c-5.1-12.956-10.111-16 0-23.661.523 18.544 1.835 31.26-4.176 43.147l16.7 6.959c11.657-13.467 4.874-17.086 6.959-34.8h1.392c1.4 7.529 5.755 25.566 11.135 36.188v-2.784c10.046-18.43 2.967-35.351 0-47.322h1.392c4.3 4.4 1.554 3.37 6.959 1.392l-4.176-22.27h1.392v2.784c4.4 3.518 4.973 6.162 11.135 8.351-1.278-20.562 9.135-44.459 20.878-57.066l-4.176 19.486 9.743 11.135 4.176-2.784 4.175-16.7 4.176 1.392 2.783 2.784 2.784 16.7c-8.105 2.136-9.721 5.179-9.743 15.31h1.392c7.108-6.1 13.479-8.709 22.269-13.918-7.114-3.678-10.66-10.62-15.31-16.7l6.959-13.918c-5.851 2.515-5.911 1.753-16.7 1.392v-1.392l2.784-5.567 6.959 4.175 4.176-1.392c-1.312-7.06-1.927-5.874-5.568-9.743l13.919 1.392c-.963-6.546-2.345-6.168 2.783-9.743.853 7.039 13.833 17.542 19.486 29.229l2.784-1.392c-2.267-5.78-3.422-15-4.176-19.486 15.012.434 13.746-12.868 27.837-19.485l27.837-9.743 4.176-16.7h1.391c.249 9.354 3.673 29.109 9.743 33.4v-1.392c-4.716-5.159 1.006-32.251 2.784-38.972l2.784 1.392c1.985 7.441 4.3 9.183 8.351 13.919-5.082 1.474-4.093 1.132-6.959 4.175l4.175 12.527h1.392c3.111-22.587 5.041-13.325 1.392-37.58h1.392c11.89 8.4 15.335 6.653 29.228 2.784 1.85 5.343 1.836 18.472 6.96 22.269h5.567v-1.392q-3.48-4.174-6.959-8.351l8.351 2.784v-4.176c-5.733-15.658 3.25-36.178 0-52.89l4.175-1.392 4.176 4.176c-3.52 6.694-4.062 21.207 0 27.837h1.392c6.029-10.128 11.15-18.6 18.094-27.837-11.883 5.611-8.091 7.8-18.094 11.135 5.407-8.676 6.883-10.417 6.959-19.486 14.261 3.051 31.522 6.8 41.755-5.567.805 5.581-.064 4.163 2.784 6.959 4.39 1.2 4.421.411 8.351-1.392l4.175-11.135c7.3 6.568 13.834 14.861 25.054 9.743q3.478-6.959 6.959-13.918l4.175 36.188h1.392l1.392-1.392 6.959-36.188h1.392c-.709 15.539-2.178 25.245 4.176 34.8h8.351l4.175-8.351c-1.785 7.126-3.94 11.813-2.784 18.094h5.568l1.392-1.392 1.392-9.743c-.227 8.393.486 12.613 4.175 16.7V78.153c10.062 6.189 9.172-13.667 12.522-22.27.43 9.9 2.45 8.923 6.96 13.918q-2.775 5.567-5.56 11.135 4.17-2.783 8.35-5.567c-.72-20.973 5.99-25.516 16.7-37.58.43 5.9-.09 5.517 2.78 8.351 6.87 3.106 6.94 1.238 12.53 5.567 8.19-3.505 12.02-6.819 13.92-16.7h6.96V36.4l-6.96 11.135c.93.928 1.85 1.856 2.78 2.784l2.79-2.784c9.67-7.625 6.83-14.068 25.05-11.135l6.96 16.7-2.79 1.392-4.17-11.135c-1.86 1.392-3.71 2.784-5.57 4.176v4.176c9.84 7.449 10.07 5.317 23.66 2.784q.705 3.479 1.39 6.959 2.79-2.783 5.57-5.567 2.79 4.871 5.57 9.743c.83-10.1 7.91-17.307 13.92-22.269v16.7q2.775 1.392 5.57 2.784l4.17-2.784v-1.392q-2.775-8.35-5.57-16.7h1.4v2.784l11.13 12.527c14.25-7.429 39.68 1.487 43.15 18.094q-11.145-5.567-22.27-11.135l-2.79 1.392c.47 2.319.93 4.64 1.4 6.959 6.28 1.395 7.23-.1 13.91-1.392q-2.775 4.175-5.56 8.351h1.39c5.14-5.75 7.07-2.154 15.31 0 5.8-9.119 10.6-17.514 19.48-23.661q-10.425 25.051-20.87 50.107c.92.928 1.85 1.856 2.78 2.784.93-.464 1.86-.928 2.78-1.392 1.98-11.567 6.57-29.148 13.92-27.837-.16 12.136-1.66 11.535-4.17 20.877h1.39v-2.786q11.13-10.438 22.27-20.878l4.17 1.392-4.17 9.743 11.13-6.959c-3.18 7.059-3.1 15.3 1.4 29.228h4.17q2.085-5.567 4.18-11.134h4.17q5.565 8.35 11.14 16.7 4.86-2.088 9.74-4.176c.22-8.355-1.75-5.735 4.18-9.743.46 1.392.92 2.784 1.39 4.176-2.21 4.36-3.85 5.443-2.79 9.743l2.79 4.175c10.93-1.473 7.44-6.429 13.92-1.392 11.02 4.1 12.06 16.235 15.31 27.837.92-.464 1.85-.928 2.78-1.392l4.17-5.567q.705 6.958 1.4 13.919h9.74l6.96-8.352 4.17 11.135h-9.74c1.48 5.081 1.13 4.093 4.18 6.959q4.17-2.783 8.35-5.567c1.32 5.756-.88 1.117 4.17 4.176.92-4.259-1.37-2.151 4.18-4.176.6 7 .33 32.391 5.57 41.755q4.17-.7 8.35-1.392c-.65 6.388-.63 21.225 4.17 26.445h1.39q2.79-11.829 5.57-23.661c.26 12.855-2.58 19.862-6.96 27.837q7.665-10.439 15.31-20.878l6.96 6.96c-9.74 2.146-11.31 12.14-13.92 16.7 4.64 4.706 2.27.959 1.4 12.526l4.17-4.175c1.39.464 2.79.928 4.18 1.392q.69 7.655 1.39 15.31c7.87-1.7 9.16-3.825 12.53-9.743.92.464 1.85.928 2.78 1.392.32 16.819-3.56 28.418-6.96 36.188 4.56 1.77 1.67 1.275 6.96 1.392-3.47 5.844-1.9 11.825-5.57 20.877v-2.783c-9.24-12.24-7.6-38.049-12.52-45.931q-.705 20.88-1.4 41.759zM1137.36 40.573c.46.928.93 1.856 1.39 2.784-.46-.928-.93-1.857-1.39-2.784zm-135.01 4.176c.17 4.362-.22 4.07-2.785 8.351l-2.783-2.784 5.568-5.567zm-65.417 1.392h11.134v1.392h-2.783l-11.135 4.176-1.392-2.784zm221.307 1.392h2.78q-2.085 1.392-4.18 2.784c.47-.929.93-1.857 1.4-2.784zm-82.12 2.784c4.55 1.8 1.55 2.608 5.56 0h-5.56zM991.214 53.1h4.176l-5.567 5.567c-3.55 6.5-9.155 7.449-18.094 8.351l4.175-6.959zm36.186 0l-4.17 5.567q.69 9.046 1.39 18.094h8.35q2.085-1.392 4.18-2.784V68.41c-4.32-1.6-4.14-1.958-8.36-1.392 3.27-5.672 5.69-6.362 4.18-13.918h-5.57zm12.53 0v6.959h4.17c.47-.928.93-1.856 1.4-2.784l-2.79-4.176h-2.78zm129.44 5.567l-6.96 2.784v4.176h1.39c4.03-2.34 7.11-2.8 5.57-6.96zm-314.556 4.176h4.175l-1.389 4.175-2.783 1.392v-5.567zm172.586 4.175zm115.53 0c-2.51 7.55-2.85 11.847 0 15.31h1.39v-2.783c2.15-4.605 1.84-9.445-1.39-12.527zm-322.912 8.351h4.175l-1.393 5.568-1.391 1.392c-2.484-3.629-2.221-2.242-1.391-6.96zm356.312 1.392q-5.565 5.567-11.14 11.135v2.784l2.79 2.784c8.41-.94 12.59-6.993 9.74-13.919-.46-.928-.93-1.856-1.39-2.784zm-20.88 1.392c-.46.464-.93.928-1.39 1.392.46.928.93 1.856 1.39 2.784l2.79-2.784zm-129.44 1.392c.46 2.784.93 5.568 1.39 8.351 1.86-.928 3.71-1.856 5.57-2.784-.46-1.856-.93-3.712-1.39-5.567h-5.57zm-19.49 2.784q.705 8.35 1.4 16.7h2.78q-2.085-8.349-4.18-16.7zm187.9 0c-.46.928-.92 1.856-1.39 2.784 1.39-.928 2.79-1.856 4.18-2.784h-2.79zm-2.78 4.176l-6.96 19.486c.93-.464 1.86-.928 2.78-1.392 1.7-6.74 6.53-16.565 4.18-18.099zm44.54 2.784v9.743l4.17 5.567c-2.23-6.154-1.13-9.044-1.39-15.31h-2.78zM833.936 90.68c4.029 6.757 1.822 9.248 6.959 8.351q-.7 2.783-1.391 5.567c-7.575-3.236-11.232-6.792-20.878-5.567zm146.144 0c-1.28 6.726.35 7.475 5.567 11.134L980.08 90.68zm-115.523 1.391v16.7h1.392zm-12.527 4.176c-2.613 9.6-3.688 19.493 2.784 26.445q.7-11.829 1.392-23.661zm193.47 4.175l-1.4 12.527h1.4q1.38-2.088 2.78-4.175-1.395-4.174-2.78-8.352zm212.95 8.352c-.79 6.184-.9 4.828 4.17 8.351h1.4c-1.42-6.17-.92-5.59-5.57-8.351zm-481.579 1.391zm530.289 0c2.96 3.261.62-.156 1.39 4.176-.92.464-1.85.928-2.78 1.392.46-1.856.93-3.712 1.39-5.568zm-446.779 1.392l-1.392 5.568h4.176c-1.265-5.082.052-2.846-2.784-5.568zm-33.4 2.784l5.567 5.567zm-8.351 2.784l-4.176 11.134h1.392l1.392-2.783c3.425-3.774 3.306-3.545 2.784-8.351h-1.392zm464.874 2.783c-1.57 9.931 4.22 8.54 1.39 16.7V138c3.26-.409 11.12-2.4 6.96-4.175q-.69-5.568-1.39-11.135zm-33.4 4.176q1.38 3.478 2.78 6.959c.93-.464 1.86-.928 2.78-1.392v-5.567h-5.56zm16.7 1.392c-.46 2.783-.93 5.567-1.39 8.351l5.56-1.392v-6.959h-4.17zm-407.811 2.783l-1.392 2.784 8.352 9.743h2.783l1.392-4.176v-1.391l-4.175-5.568zm-44.539 1.392zm-66.808 5.568zm556.738 1.391q.69 6.264 1.39 12.527-.694-6.263-1.394-12.527zm33.4 4.176c1.39.928 2.79 1.856 4.18 2.784-1.394-.928-2.794-1.856-4.184-2.784zm-570.656 2.784l-2.784 5.567 4.176 5.567 4.175-2.783 1.392-2.784-1.392-4.176zm-9.743 6.959l-1.392 2.784 2.784-2.784h-1.392zM746.25 154.7l-4.175 5.568 4.175 4.175h1.392l2.784-5.567V154.7h-4.176zm9.743 0l-1.392 2.784 2.784-2.784h-1.392zm499.667 0l2.79 1.392zm0 2.784v2.784c1.36-2.425 1.27-.303 0-2.78zm-519.153 1.396c-5.208 4.862-5.1 3.925-4.175 12.526l2.783-1.391 4.176-8.351zm528.9 2.784zm-587.36 2.783zm665.3 0c-3.13 11.37 2.4 23.818 5.57 33.4.93-1.391 1.85-2.783 2.78-4.175-5.08-12.039 3.1-17.971-1.39-29.229h-6.96zm-77.94 1.392c-.47.928-.93 1.856-1.39 2.784.92-.928 1.85-1.856 2.78-2.784h-1.39zm97.43 11.135a145.514 145.514 0 0 1 9.74 11.135c-.46.927-.93 1.855-1.39 2.783-1.86-1.855-3.71-3.712-5.57-5.567-2.337-2.925-2.157-2.75-2.777-8.351zm5.56 4.175c.47.928.93 1.856 1.4 2.784-.467-.928-.927-1.856-1.397-2.784zm-627.717 2.784l-4.176 4.176 1.392 4.175c7.274.141 7.949 1.032 11.135-1.392l-5.568-6.959h-2.783zm-48.715 6.959l4.176 11.135h1.392c-.3-6.282-.985-7.5-2.784-11.135h-2.784zm-5.565 12.527zm-37.58 1.392c-2.475 6.776-3.989 17.116 0 22.269l4.18-8.351c-1.895-6.173.3-9.1-2.784-13.918h-1.392zm516.37 1.389q-.69 2.782-1.39 5.567l2.79-5.567h-1.4zm-509.41 9.742c-.286 13.132-5.055 29.348 6.96 41.756-3.04-13.731.926-33.698-6.96-41.753zm750.2 11.135c1.74 3.46 1.78 4.175-2.78 8.351h-1.39zm-44.54 4.176c-.46.927-.92 1.856-1.39 2.783v1.392h4.18c-.47-1.391-.93-2.784-1.39-4.175h-1.4zm-2.78 15.31v18.097h5.57q-.7-7.655-1.39-15.31-2.1-1.392-4.18-2.784zm27.84 0c.93 1.856 1.85 3.712 2.78 5.567-.93-1.852-1.85-3.708-2.78-5.564zm32.01 0c9.64 15.258 13.86 45.533 0 58.457-.93-.464-1.86-.928-2.78-1.391 2.67-23.629 3.55-32.115 2.78-57.063zm-773.864 2.787c-.763 5.954-2.247 4.393 4.175 6.959-1.474-5.081-1.132-4.093-4.175-6.959zm761.334 9.743l-6.96 9.742c.47 1.856.93 3.712 1.4 5.568l5.56-1.392v-13.918zm-57.06 12.526q2.775 7.654 5.57 15.31-2.79-7.654-5.57-15.31zm-716.8 1.392l4.176 25.053 2.783 1.392-6.96-26.445zm-70.984 4.175l1.392 2.784zm23.661 4.176l-9.743 2.784c-1.556 9.92-4.642 10.178-1.391 18.094l2.783 1.392 4.176-2.784v-1.392l-2.784-13.918c.98-.364 11.671-3.25 6.962-4.176zm4.176 5.567v9.743c5.72 2.743 7.138 3.64 13.918 2.784l-2.783-8.351-6.96-4.176h-4.175zm20.878 0c-.294 5.536-.852 3.8 1.391 8.351h1.392l5.568-4.175-1.392-4.176h-6.96zm825.36 5.568h5.57v1.392c-.46 1.391-.93 2.783-1.39 4.175-1.86-.928-3.71-1.856-5.57-2.784.459-.927.929-1.855 1.389-2.78zm-66.81 13.918c2.59.953-1.27 6.841-2.78 9.743-.46-2.319-.93-4.64-1.39-6.959zm-741.848 4.176zm711.228 9.743c.47.927.93 1.855 1.4 2.783-.471-.928-.931-1.856-1.401-2.783zm186.51 16.7v16.7l-6.96 4.175h-1.39c2.13-6.813 2.75-11.47 4.17-18.094q2.099-1.386 4.179-2.779zm27.84 1.392c.92.463 1.85.928 2.78 1.391q-2.775 9.743-5.57 19.486l-5.56-1.392v-1.391q4.169-9.044 8.349-18.092zm-1027.184 2.785l-2.784 4.176c11 1.728 11.8 7.689 19.486 12.526l2.784-1.391-1.392-8.352zm819.793 4.176c-.01 3.277.33 3.631-2.78 6.959.93-2.32 1.85-4.64 2.78-6.959zm222.7 4.175c1.44 4.445.38 3.808-2.79 6.96zm-228.26 4.176c-.31 2.042.57 1.4-1.4 4.175.47-1.391.93-2.783 1.4-4.175zm-871.3 6.959h2.783c-2.494 5.29-1.98 4.289-8.351 5.567l1.392-2.783zm37.579 0c7.452 6.854 10.549 16.825 19.486 22.27l2.784-2.784c-5.512-2.07-5.491-2.487-8.351-6.959l2.783-2.784 13.919 12.527v1.391c-11.576 1.042-6.835 2.885-12.527 8.351-.988-1.835-25.969-23.462-25.053-25.053l-1.392-2.783c6.05-1.796 5.336 1.274 8.353-4.173zm1032.749 0q4.17 2.088 8.35 4.176c-.71 11.493.42 13.28 5.57 20.877-8.18-3.386-7.55-7.891-12.53-13.918-4.49 1.777-4.99 2.25-9.74 1.392v-1.392q4.172-5.566 8.352-11.132zm16.7 4.176c4.38 8.454-1.08 9.1-4.17 11.134zm15.31 0c-.32 5.489 2.82 4.067-4.17 6.959zM438.653 388.534c14.409.512 23.68 3.1 36.188 8.351 5.2-5.113 2.632-6.085 8.351 0 9.3 1.724 27.147-.353 32.012 2.784-15.873 6.865-9.754 12.025-20.877 27.836l-32.013 25.054-22.269-2.784c-11.312 3.138-10.86 12.915-23.662 13.918l1.392 2.784c22.7-.187 23.3-12.854 38.972-9.743l4.175 5.568c-27.677 30.462-65.456 129.187-77.943 167.021-6.7 20.294-3.317 53.181-15.31 69.592l12.526-8.351c-2.057 12.845-12.538 29.476-18.093 40.363l5.567 2.784 4.175-4.176v1.392c-3.542 11.041-10.712 25.92-8.351 38.972l2.784-4.176-5.567 90.47 2.783 66.808-11.134 55.674c-2.5 17.807 3.3 32.885 0 52.895-11.212 67.92-17.6 139.56-37.58 197.64l-12.527 111.34q-4.871-4.86-9.743-9.74c-30.6-13.56-.037-104.09 0-135.01-3.385-1.43-4.739-1.63-6.959-4.17 6.8-6.07 1.616-19.77-2.784-26.45l-9.742-4.17v-1.4c9.032.91 9.346 2.32 15.31 0 .189-8.94-.643-10.95-4.176-15.31l9.743 2.79v-2.79q.7-11.13 1.392-22.27c-4.613 2.81-4.427 3.41-5.567 9.75h-1.392c-.051-19.46 1.44-32.41-5.568-50.11-2.893-7.31-8.8-8.61-9.742-16.7 4.927-3.5 5.884-6.53 8.351-12.53q-4.872.7-9.743 1.39l-5.568 13.92c-.927-.46-1.855-.92-2.783-1.39-1.994-19.18 7.119-38.83-1.392-48.71 8.982-6.98 9.4-19.951 12.526-29.232l-13.915 8.351q2.784-3.478 5.567-6.959v-8.351c.139-6.916-4.871-11.995-8.351-19.486 14.414-8.124 4.307-18.971-4.175-26.445 7.127-23.731-3.663-36.978 4.175-51.5l-4.175 1.392c2.644-3 5.757-3.759 8.351-6.959 0 0-7.683-33.635-5.568-37.58 2.189 5.583 2.279 6.357 8.352 8.351v-4.176c-8.37-11.759-7.026-18.614-5.568-37.579l6.959 1.391c-3.129-16.2-6.478-33.957 2.784-48.714 5.081-1.474 4.093-1.133 6.959-4.176-3.066-5.4-3.649-2.578-1.392-9.743-5.454-.3-4.165 1.011-8.351-2.783 1.83-10.414 2.046-13.132 4.176-22.27 12.109-2.1 19.419-11.325 22.269-22.269l-4.175 1.392c-4.466.947-5.346 4-11.135 6.959l2.784-2.784c.115-7.529 4.7-13.523 6.959-22.269l-11.135 1.392 1.392-5.568 9.743-13.918c7.643 3.617 14.737 1.42 20.878-6.959-10.261 1.047-13.78.727-19.486-5.568 8.518-.885 14.3-2.1 16.7-9.743-4.414-7.337 8.688-13.9 11.135-22.269 2.461-8.416-3.595-9.251-1.392-15.31 8.955-.961 16.58-7.327 13.918-15.311 2.494-7.4 1.952-11.444 1.392-20.877 3.688-.7 19.486-20.878 19.486-20.878 1.8-2.955 1.711-2.014 2.784-6.959-2.961-.96-3.306-.33-1.392-2.784 3.491-.515 2.9-.308 6.959-2.784l-2.784-2.783c-2.632-3.942-5.391-3.682-8.351-6.96 14.781-4.34 24.107-13.829 30.621-26.445l-5.568-4.175c9.318-.173 11.677-1.905 16.7-5.567l-2.784-13.919-2.784-1.392 13.923 2.786c10.17-3.588 21.34-16.765 27.836-23.661v-4.176l-18.096-11.135c11.027-2.638 10.168-11.157 18.094-16.7q-3.478 7.655-6.959 15.311l2.784 1.391c17.12 3.548 26.456-6 41.755-2.783q-3.478-4.176-6.959-8.351c-11.444 2.522-14.273 1.247-23.661 4.175 1.544-3.945 1.2-2.024 1.391-5.567l2.784-2.784h13.919v-5.567l-12.527-6.959c-6.23 1.436-6.081 2.3-9.743 5.567v-6.961l9.743-4.176c11.615 1.16 19.485 3.991 25.053 11.135l-12.526-2.779 4.175 5.568 23.661 6.959-4.175-11.135 1.392-1.392 4.175 1.392 9.743 12.527v-2.789l5.568-2.784c-9.5-3.649-8.163-9.524-20.878-11.134-1.922 4.63-1.759 2.728-1.392 8.351l-2.784-1.392c-9.243-16.746-20.147-7.134-40.363-16.7l15.31-2.784v-1.392zm79.335 1.392zm-65.417 2.783l-2.783 1.392q1.39 2.784 2.783 5.568l8.351 1.391-2.783-6.959zm-26.445 22.27l1.392 2.784zm1192.814 50.106q4.17 4.176 8.35 8.351c-.47 2.32-.93 4.64-1.4 6.96-.92-.928-1.85-1.856-2.78-2.784-3.33-3.055-3.67-6.484-4.17-12.527zM394.114 483.179l1.392 6.959 18.094-4.175-1.392-5.567zm-23.661 2.784l2.783 2.784-4.175 1.391zm1258.227 1.392c6.73 2.644 17.92 9.208 25.05 13.918-.93.928-1.85 1.856-2.78 2.784-2.79 5.334-2.13 4.859-9.75 5.567v5.568c1.4.463 2.79.928 4.18 1.391l13.92 1.392q1.4-6.263 2.78-12.526c-.11 12.443 1.97 9.583 6.96 18.094-8.76-.906-14.84 1.744-20.88 1.391.47.928.93 1.856 1.4 2.784 29.51 2.6 36.55 25.686 47.32 47.323-6.11-3.031-39.09-31.277-43.15-37.58q5.565 2.784 11.14 5.567c-16.02-20.517-31.25-24.569-36.19-55.673zm-1262.4 2.783zm19.486 4.176v8.351l4.175-2.784c.387-3.292-.309-1.735 1.392-5.567h-5.567zm1256.834 5.567c.92.928 1.85 1.856 2.78 2.784-.93-.928-1.86-1.856-2.78-2.784zm4.17 1.392zm25.06 8.351c2.67 3.661 2.16 4.8 2.78 11.135-.93-.464-1.86-.928-2.78-1.392v-9.743zm2.78 11.135l6.96 1.392 13.92 30.62q-4.185-3.478-8.35-6.959c-2.83-7.561-12.84-21.553-12.53-25.053zm-18.09 30.62c21.86 11.728 33.79 27.982 52.89 41.756l-2.79 15.31c18.52.53 30.41 20.151 32.01 36.188-3 5.076-6.02 6.316-5.56 11.135-2.68-2.111-2.47-2.493-4.18-5.568 4.65-3.04 4.17-1.507 5.57-8.351-8.3-3.667-9.15-9.956-15.31-15.31v4.176c3 11.137 4.26 27.113 13.92 32.012q1.38-2.784 2.78-5.567 2.085 2.087 4.18 4.175-2.79 3.48-5.57 6.959c6.85 9.072 14.11 18.036 20.88 27.837l4.17-4.175-18.09-25.056c8.76 4.4 15.4 14.519 20.88 22.27q-2.1 4.175-4.18 8.351h-1.39c-14.65-6.194-24.13-26.632-37.58-36.188q13.92 18.787 27.83 37.58c6.79 15.243 37.38 130.773 34.8 136.4l-6.96-8.351h-4.17v4.176q4.86 8.351 9.74 16.7c-9.89 5.737.71 22.046 2.78 29.229-.92.464-1.85.928-2.78 1.392-3.97-1.81-.84-2.1-5.57-1.392v1.392c10.02 15.574 7.56 34.378 8.35 54.281h-1.39c-1.47-5.081-1.13-4.093-4.17-6.959l-2.79 1.392c.36 27.839 8.83 48.654 2.79 65.417v-2.78q-4.185-6.262-8.36-12.527-4.17 2.784-8.35 5.568c3.09 8.768 9.84 12.863 13.92 16.7-2.78 53.517-41.29 120.057-26.44 157.277-1.86-.46-3.72-.93-5.57-1.39l4.17 64.02q6.96 12.525 13.92 25.06h-4.17c-1.39-.93-2.79-1.86-4.18-2.79q-4.17-9.045-8.35-18.09c-.46.93-.93 1.86-1.39 2.78-.93 1.39-1.86 2.79-2.78 4.18 2.79 12.96 10.37 29.4 6.95 43.15-1.39-.47-2.78-.93-4.17-1.4-4.62-8.25-8.65-17.06-20.88-13.91-.72 15.73-1.71 18.62 1.39 27.83-3.49-.9-8.43-2.71-12.52 1.39-6.78 13.52 7.99 24.22 2.78 47.33q-5.565 33.39-11.13 66.81c-3.26 5.89-8.51 5.28-11.14 13.91l-9.74 2.79c-4.2-158.98-22.73-275.71 4.17-421.731 2.09-11.312-4.49-19.171-5.56-23.661q2.775-13.221 5.56-26.445-4.17-31.314-8.35-62.633c1.39 1.392 2.79 2.784 4.18 4.175-4.06-9.1-6.18-2.352-8.35-12.526 5.72-3.838 1.4-3.226 2.78-9.743 1.86 1.392 3.71 2.784 5.57 4.175-8.3-26.537 7.36-32.465 1.39-55.673-1.73-6.747-8.89-36.144-8.35-38.972 4.68-24.431 12.23-18.03 1.39-47.323 5.53 1.968 6.56 3.017 11.14 0h2.78c-9.12-15.908-3.77-42.551-8.35-61.241.46.928.93 1.856 1.39 2.784 7.48 4.085 4.88 7.258 9.74 12.527h1.39v-1.392c-3.36-9.253-9.18-12.756-12.52-19.486-4.38-8.817-.05-23.145-2.79-30.62-3.93-10.768-13.93-37.429-18.09-52.891q4.875 2.088 9.74 4.176c-2.57-10.169-10.43-15.928-15.31-25.053.47-1.854.93-3.71 1.4-5.566zm38.97 1.392l11.13 2.784q2.79 5.567 5.57 11.135-8.355-6.958-16.7-13.919zm0 11.135c12.09 8.277 24.72 25.01 32.01 37.58-14.13-4.643-26.34-24.444-32.01-37.58zm16.7 2.784c.46.928.93 1.856 1.39 2.783-.46-.927-.93-1.855-1.39-2.783zm-45.93 1.392c3.18 2.122 1.69 2.541 5.57 1.391q-2.79-.694-5.57-1.391zm48.71 2.783zm-43.14 22.27l4.17 4.175zm40.36 6.959h4.17q-.69 2.784-1.39 5.567h-1.39c-.46-1.855-.93-3.711-1.39-5.567zm-47.32 1.392c.92.928 1.85 1.856 2.78 2.784-.93-.928-1.86-1.856-2.78-2.784zm77.94 5.567c6.9 1.725 7.73 3.574 11.13 8.351zm-1423.856 1.392zm1375.136 1.392l2.79 2.784zm34.8 1.392zm-30.62 2.783c.93.464 1.86.928 2.78 1.392-.92-.464-1.85-.928-2.78-1.392zm34.8 0c.92.928 1.85 1.856 2.78 2.784-.93-.928-1.86-1.856-2.78-2.784zm16.7 86.3c11.77 3.633 21.2 19.031 23.66 32.012-12.69-4.318-21.3-17.489-23.66-32.017zM277.2 728.143l-5.567 13.919h1.392v-2.784l8.351-8.351-2.784-2.784H277.2zm1496.231 5.568l6.96 2.784v1.391c-5.421-1.398-4.181-.54-6.961-4.175zm-8.35 5.567zm0 2.784l4.17 2.784zm-57.07 18.094c13.7 18.356 33.97 34.282 52.89 47.323-6.141-16.593-38.471-37.974-52.891-47.323zm-1341.734 1.392l1.392 4.175h-1.392v-4.175zm1397.413 18.094c-.47.927-.93 1.856-1.39 2.783.92-.927 1.85-1.856 2.78-2.783h-1.39zm-45.93 6.959q13.215 11.133 26.44 22.269c-5.19-7.46-16.71-19.843-23.66-20.877-.93-.464-1.86-.928-2.78-1.393zm44.54 0c3 7.7 2.51 15.678 4.17 23.661 6.93-1.457 4.66.484 6.96-5.567zm12.52 32.012c-.46 1.392-.93 2.784-1.39 4.176.93-.928 1.86-1.856 2.78-2.784-.46-.464-.92-.928-1.39-1.392zm-1511.539 4.176l-2.784 1.392 1.392 2.783c1.911-2.986 2.536-.75 1.392-4.175zm599.884 104.388l23.661 8.351 9.743-11.135h1.392c1.958 28.8-19.894 30.226-23.661 51.5h-1.392l-1.392-8.351c-12.662.519-10.479 1.36-18.094-5.567v6.959h-5.567l-5.568-11.134-9.743 6.959-5.567-8.351c1.381 8.133-.234 3.107-1.392 12.526l6.959-1.392c1.018 22.163 39.681 28.423 29.229 57.07 4.227-2.71 1.453-.46 2.784-4.18 1.391.46 2.784.93 4.175 1.39-3.08 8.58 4.13 18.73 11.135 15.31q-4.175 8.355-8.351 16.7c6.089 8.37 11.573 16.02 9.743 19.49-6.413 16.91-20.669-3.76-23.662-11.13-1.679 11.07-18.78 21.94-20.877 20.87-13.559-2.43-31.793-26.09-40.364-38.97q-.694-8.355-1.391-16.7l9.742 11.13c-3.389-6.94-3.892-17.16-5.567-23.66q4.176 5.565 8.351 11.14c1.392-1.39 2.784-2.79 4.176-4.18-9.4-13.36-15.414-42.58-36.188-48.712l-6.959 4.175-1.392-12.526c-.834.335-32.4 1.743-36.188-1.392-5.11-3.755-4.324-7.13-11.135-9.743l-2.784 4.176c-23.954-17.512-68.527-26.024-93.253-37.58l-1.392 2.78c4.38 2.518 9.929 4.46 13.919 11.135H634.9c-25.449-13.644-66.729-20.921-101.605-19.486l12.527 13.919c-29.508-2.09-42.293-8.47-69.592 1.392h2.783l15.311 15.31c-31.423-7.9-46.226 6.669-66.809 2.784-.706 7.31.382 2.655-2.784 8.351h1.392c7.886-1.95 21.373-.8 33.405 2.783l-1.392 2.784c-8.4.72-20.4 2.742-19.486 9.743l-2.784 4.175c-16.074-.319-14.142-.559-27.837 4.176l-1.392-2.784 12.527-8.351c-8.862-2.316-1.452-3.5-6.959-8.351l6.959-2.783v-1.392c-3.621-4.888-2.844-6.185-9.743-8.351 5.8-11.195 12.921-14.966 19.486-26.445-1.972-10.849-7.965-22.678-6.959-32.013 10.244-3.576 13.009-12.81 20.877-18.094l2.784 4.176 33.4-18.094 6.96 1.392c6.118-7.626 10.59-13.521 19.485-18.094 17.131-8.807 163.87-8.745 182.332-1.392 3.667-3.425 3.516-.646 2.783-4.176l2.784-1.391-11.135-5.568c26.23.049 38.945 15.239 61.241 20.878l-2.783-5.568-11.128-5.565 2.784-4.175h5.568c8.448 7.291 14.82 11.039 26.445 13.918l-2.784 8.351h4.176v-5.567c14.565 4.057 19.045 17.981 29.229 26.445l-16.7-40.364 5.568 4.176c7.818 15.489 23.068 25.738 32.012 45.931h1.392q-4.871-16-9.743-32.013l8.351-4.175 2.784 4.175v26.445c2.911-3.051 2.982-10.637 4.175-15.31h1.392c10.667 9.174 10.705 26.907 20.878 36.188l15.31-20.878 4.176 4.176 12.526 43.147-6.963-5.57c-2.528-9.057-6.025-4.026-8.351-11.134-3.333 3.767-5.967 13.55-5.567 20.877 7.131-1.364 2.423-2.9 6.959 2.784v-8.351zm-180.94-94.645zm-179.547 6.959zm154.494 4.175c4.241 4.361 8.677 6.159 16.7 6.96l-2.783-4.176zm-289.5 6.96l1.392 2.783zm920.008 11.134q4.17 4.176 8.35 8.351l-6.96 8.352 27.84-13.919c.92.928 1.85 1.856 2.78 2.784-4.77 4.04-3.78 3.082-1.39 8.351l72.37 1.392-13.92 2.783v1.392c54.95 4.475 89.01 5.909 141.97 16.7-1.06 5.024-1.93 1.833 2.79 6.96l-11.14-2.784q11.835 4.175 23.66 8.351-1.38-2.088-2.78-4.176 14.61 8.351 29.23 16.7c-5.53.172-2.88-1.247-6.96 1.392 6.12 7.7 13.33 29.546 23.66 37.58-4.42-10.507-5.76-11.241-4.18-23.661h1.4c1.49 9.434 11.84 22.15 18.09 22.269-5.21 9.952-4.29 7.67 2.78 16.7 5.28 2.736 6.28 5.384 8.36 11.135-6.17-2.25-13.48-2.31-22.27-4.175 10.1 15.533 23.55 22.8 37.58 30.617 3.21 22.58 8.51 41.62 5.56 65.42h-1.39c-.18-7.25-4.49-46.32-6.96-51.5-2.85-5.97-46.14-39.354-54.28-41.754v1.392c21.37 7.544 54.55 66.512 54.28 93.252h-1.39c-5.11-15.15-26.1-17.36-36.19-27.84 16.81 3.45 22.49 8.96 33.41 16.71q-2.1-5.565-4.18-11.14c-.93 1.39-1.86 2.79-2.78 4.18-13.78-39.64-37.31-24.36-66.81-43.15 16.12-.53 30.42-3.46 43.15 2.78-9.02-15.9-45.24-15.33-58.46-27.833 2.7-3.685 3.13-3.4 4.17-9.743l-4.17-4.175c-7.18.939-46.64-2.9-48.72-4.176q5.565-2.783 11.14-5.567-.705-2.784-1.39-5.567c-12.02 1.965-21.34 4.433-33.41 11.134l-4.17-2.783q4.86-4.872 9.74-9.743c-7.77 1.149-68.66 5.538-73.77 2.783v-1.391q11.835-4.176 23.66-8.351c-18.78 1.054-48.63 8.858-61.24 18.093-9.42-6.148-116.98-4.266-123.87 0q-.7 3.48-1.39 6.96c-8.49-4.917-16.8-1.726-26.45-8.351v-1.392l11.14-1.392v-1.392c-4.28-6.41-2.88-10.686-12.53-12.526q-6.27 2.783-12.53 5.567-4.17-3.48-8.35-6.959c3.62-.592.76 1.358 4.18-1.392-4.45-2.524-4.62-3.926-6.96-8.351h8.35q-1.395-2.088-2.78-4.176-5.58 1.392-11.14 2.784v1.392q2.79 4.87 5.57 9.743-2.79 5.567-5.57 11.134l-11.13-6.959v2.784l-2.79 2.784c3.62.592.76-1.358 4.18 1.391-10.48 1.82-8.16 5.8-15.31 9.743-1.39-.464-2.79-.928-4.18-1.392-.46-.927-.93-1.855-1.39-2.783 4.47-16.395 3.14-22.587 6.96-43.147.93.464 1.86.928 2.78 1.392l2.79 5.567v-2.784c4.81-2.445 9.52-20.171 15.31-26.445q4.17 3.48 8.35 6.959V906.3c.93.464 1.85.928 2.78 1.392q4.185 7.654 8.35 15.31c15.96-6.526 40.43-46.334 57.07-59.849q-6.27 13.221-12.53 26.445c4.42-.798 60.34-25.198 64.03-27.838zm474.62 13.919c.92.928 1.85 1.856 2.78 2.784-.93-.928-1.86-1.856-2.78-2.784zm-918.621 4.175c4.275 5.38 2.885 9.871-1.392 13.919zm523.331 0zm396.68 0l4.17 4.176zm-938.1 2.784l1.392 23.661h5.567v-6.959c-1.857-7.08-2.396-12.5-6.964-16.702zm940.885 2.784q4.17 8.351 8.35 16.7-4.175-8.348-8.355-16.7zM438.653 899.34l-12.527 8.351 1.392 2.784h1.392c4.004-1.731 14.227-9.575 9.743-11.135zm1080.067 0l6.96 1.392v1.392zm-22.27 5.568c3.58 5.528 12.48 10.811 19.49 8.351h-4.18q-7.65-4.176-15.31-8.351zm32.02 0zm-665.3 2.783l4.175 4.176zm416.165 2.784q-11.145 5.567-22.27 11.135V923l25.05-12.526h-2.78zm467.65 11.135c4.22 11.5 14.39 25.41 25.06 30.62-2.645-10.92-16.925-24.555-25.065-30.62zM1133.18 923c.47.928.93 1.856 1.39 2.784-.46-.927-.92-1.855-1.39-2.784zm-1.39 2.784q.69 14.613 1.39 29.229c-2.72-1.161-6.51 1.364-4.17-2.784-1.62 1.662-6.16 13.379-1.4 8.351-3.56 3.077-.8 1.669-5.56 1.392-.47-1.392-.93-2.784-1.39-4.175l11.13-32.012zm5.57 1.392c.46.928.93 1.856 1.39 2.784h-2.78c.46-.927.92-1.855 1.39-2.783zm-258.885 8.351l2.784 2.784zm691.745 4.173c.46.927.93 1.855 1.39 2.783-.46-.924-.93-1.852-1.39-2.783zm-711.231 8.351c-.135 5.77-.709 9.189 4.176 13.918-1.352-5.112.227-9.069-4.176-13.914zm-437.038 5.567l-1.392 4.176c1.908-2.982 2.541-.747 1.392-4.172zm398.067 4.182c1.838 5.327 0 2.894 4.175 5.567q-2.086-2.786-4.175-5.567zm758.552 1.391zm-1153.836 1.39c1.475 5.082 1.133 4.093 4.176 6.959zm741.856 0c.46 1.392.92 2.784 1.39 4.176h-1.39c-.47-.464-.93-.928-1.4-1.392.47-.928.93-1.856 1.4-2.784zm-733.5 5.568l-1.391 2.783h4.175zm341 0l-1.392 2.783 2.784-2.783h-1.392zm431.473 1.391v2.784c2.72 3.163.14 0 0 4.176 3.38-1.434 4.74-1.632 6.96-4.176zm-446.783 1.392zm424.513 2.784c.93.928 1.85 1.856 2.78 2.784-.933-.928-1.853-1.856-2.783-2.784zm-55.68 1.392h2.79l-2.79 2.783v-2.783zm200.43 0h5.57v1.392zm200.43 0l4.17 1.392zm-690.358 2.783h5.567v2.784c-5.082-1.269-2.849.053-5.57-2.784zm391.108 0l4.17 4.176c-.92.928-1.85 1.856-2.78 2.784h-2.78c-.47-.928-.93-1.856-1.39-2.784q1.377-2.088 2.777-4.176zm377.19 0l6.96 27.839h-1.39v-2.79q-4.185-10.431-8.35-20.873 1.377-2.088 2.777-4.176zM822.8 977.283l-6.959 2.784v1.392h15.31v-2.784zm958.979 0c4.21 2.689 2.25.285 4.18 5.568q-2.099-2.784-4.179-5.568zM260.5 978.675l1.392 4.176H260.5v-4.176zm1284.673 1.392c-.47.928-.93 1.856-1.39 2.784 4.63 1.391 9.28 2.784 13.91 4.175l-12.523-6.959zm-697.315 2.784h2.783l-2.783 2.783v-2.783zm8.351 4.175l2.783 2.784zm-5.568 22.274c.928.46 1.856.92 2.784 1.39-.931-.47-1.859-.93-2.787-1.39zm8.351 4.17c-.464.93-.928 1.86-1.392 2.78.928-.92 1.856-1.85 2.784-2.78h-1.392zm-587.357 1.39c-5.63 13.37-4.885 32.36-8.351 45.93h4.175c1.129-10.79 6.118-11.36 8.351-16.7 3.706-8.85-1.158-15.09 0-26.44zm531.684 0q.7 1.395 1.391 2.79l-1.394-2.79zm4.175 5.57zm37.58 0q3.478 5.565 6.959 11.14c-1.29-7.29-1.942-7.85-6.962-11.14zm751.6 1.39q3.48.7 6.96 1.39c.2 7.4 2.65 11.31 8.35 16.71-11.93-1.85-12.32-5.94-11.14-12.53q-2.085-1.4-4.17-2.78c1.39.46 2.78.92 4.17 1.39-1.394-1.39-2.784-2.79-4.174-4.18zm-938.106 1.39c82.494-1.59 120.955 10.86 154.5 59.85 6.323 9.24 15.6 16.22 16.7 30.62l-2.784 2.79c-15.747 3.34-38.948 8.76-51.5 11.13q2.782.7 5.567 1.39c-8.362 11.07-27.915 26.1-37.58 37.58-1.391-.46-2.783-.92-4.175-1.39-5.8-7.77-11.481-12.03-13.919-23.66h1.392c2.524 4.45 3.926 4.62 8.351 6.96.283-10.32 6.48-13.09 12.527-20.88-.464-.93-.928-1.85-1.392-2.78-3.7-7.82-10.944-11.12-18.094-15.31l-2.784 4.17c3.622.6.76-1.35 4.176 1.4-58.818 2.62-107.506 33.44-136.4-32.02-13.728.81-20.471 3.91-34.8 12.53l1.392 6.96q18.789 8.355 37.58 16.7v1.39c-21.742-.75-46.138-17.48-70.984-9.74-9.869 3.08-15.764 12.53-27.837 15.31q-1.392-2.085-2.784-4.18c7.306-21.72 15.928-35.32 25.054-52.89v-1.39q-5.568.7-11.135 1.39c.928-1.85 1.856-3.71 2.784-5.56 24.641-9.01 47.8-23.56 76.551-30.62zm922.8 1.4q2.085 1.38 4.17 2.78-2.093-1.395-4.178-2.78zM860.381 1026q-3.478 2.775-6.959 5.57l5.567 4.17c1.856-.46 3.712-.93 5.568-1.39q-2.088-4.17-4.176-8.35zm751.6 13.92c.46.92.92 1.85 1.39 2.78-.471-.93-.931-1.86-1.391-2.78zm147.53 11.13c-.46 1.86-.93 3.71-1.39 5.57q2.085 2.775 4.18 5.57-1.401-5.58-2.791-11.14zm-516.37 5.57c114.03-.3 235.2 25.14 270.02 114.13q-6.27 2.085-12.53 4.17c1.46 11.96 7.14 14.65 11.13 23.67q-7.65 2.775-15.31 5.56c-7.21-7.69-26.76-30.78-38.97-36.18-26.13-11.58-59.2 6.61-73.77-6.96 15.95-.9 32.77-5.36 44.54-13.92q.7-4.185 1.39-8.35c-6.05-6.83-20.34-17.8-26.44-19.49-32.56 96.28-128.1-3.44-185.12 37.58-31.49-5.77-39.16-21.93-69.59-13.92-.46-.93-.93-1.85-1.39-2.78 14.919-46.43 58.249-59.37 96.039-83.51zm-514.984 8.35c-5.8 19.48-10.858 42.07-27.837 50.11v1.39c19.136-2.74 58.284-19.43 38.972-43.15-3.313-4.55-4.792-6.48-11.136-8.35zm423.124 1.39q1.38 5.565 2.78 11.14 6.27 4.17 12.53 8.35l-2.79 4.17c-11.41 7.5-25.62 11.18-38.97 16.7l-4.17-4.17c-3.09 8.47-10.47 8.9-18.1 13.92l-4.17-2.79c-2.11-6.07-1.9-6.41-8.35-8.35 1.8-7.48 6.13-9.11 6.95-12.52 5.01 1.93 6.43 4.03 11.14 2.78-.93-.46-1.86-.93-2.78-1.39q-3.48-5.565-6.96-11.14 4.86 2.1 9.74 4.18-1.395-3.48-2.78-6.96c.46-.46.92-.93 1.39-1.39h4.17c3.13 5.07 6.57 8.68 9.75 9.74.46-3.25.92-6.49 1.39-9.74.46 2.78.93 5.57 1.39 8.35 1.79-4.18.87-3.13 4.17-5.57.53 2.5 3.46 3.91 6.96 6.96.61-7.32 4.03-15.65 8.36-19.49q4.169-1.38 8.349-2.78zm-57.07 5.57c1.39.93 2.78 1.85 4.18 2.78l-2.79 2.79c-.461-1.86-.931-3.72-1.391-5.57zm37.58 2.78c1.86.93 3.71 1.86 5.57 2.79-.93.92-1.86 1.85-2.79 2.78-.921-1.86-1.851-3.71-2.781-5.57zm-868.509 2.79q4.175.69 8.351 1.39h-2.784l-4.175 6.96h-1.392v-8.35zm833.709 0c.93.92 1.86 1.85 2.79 2.78-.931-.93-1.861-1.86-2.791-2.78zm30.62 1.39h2.79c-.93.93-1.86 1.85-2.79 2.78v-2.78zm23.67 0c.92.46 1.85.93 2.78 1.39-.931-.46-1.861-.93-2.781-1.39zm456.52 1.39zm-1334.776 9.74h6.959v6.96c-7.997-4.81-7.847-2.7-6.96-6.96zm-9.743 1.39zm1000.739 2.79q-11.145 4.17-22.27 8.35-4.185 9.045-8.36 18.09c10.93 11.59 23.83 16.98 38.98 20.88-6.191-13.1-4.461-45.4-8.351-47.32zm50.1 0c-7.17 4.81-19.51.97-22.27 13.92h4.18c8.45-6.07 14.78-4.34 20.88-11.14-.931-.93-1.861-1.85-2.791-2.78zm-182.33 1.39c.46.93.93 1.86 1.39 2.78.47-.92.93-1.85 1.39-2.78h-2.78zm-867.117 9.74c2.319 1.39 4.639 2.79 6.959 4.18v1.39c-6.579-1.64-4.428-.19-6.96-5.57zm8.351 4.18zm822.576 9.74q3.48.7 6.96 1.39 4.185 9.045 8.35 18.1c-5.53.17-2.88-1.25-6.96 1.39.93.46 1.86.93 2.79 1.39 9.78-.51 12.63 7.01 18.09 16.7-.93 1.39-1.85 2.79-2.78 4.18l-2.79-2.79c-15.731-6.2-25.581-24.13-23.661-40.36zm-599.882 4.18c.464.92.928 1.85 1.392 2.78-.465-.93-.929-1.86-1.393-2.78zm974.292 1.39c8.71 12.68 20.55 36.42 34.79 40.36-3.431-5.67-19.151-34.95-34.791-40.36zm-126.66 6.96c-1.86 1.85-3.71 3.71-5.57 5.57.47.92.93 1.85 1.4 2.78q6.255-.69 12.52-1.39c.47-1.86.93-3.71 1.39-5.57h-2.78c-2.321-.46-4.641-.93-6.961-1.39zm-1105.123 15.31c-.307 2.04.575 1.4-1.392 4.17-.464-.92-.928-1.85-1.392-2.78.928-.46 1.856-.93 2.784-1.39zm-13.919 8.35c.928.93 1.856 1.86 2.784 2.78h-4.176c.464-.92.928-1.85 1.392-2.78zm44.539 2.78zm1467 16.7c-3.82 4.86-5.96 13.18-6.96 20.88h1.39c5.41-2.76 7.54-3.36 9.75-9.74 1.3-5.42.73-6.76-1.4-11.14h-2.78zm-1501.8 27.84c18.082.15 29.58 14.43 33.4 27.84-4.3 2.59.964.84-2.783 4.17-4.983.88-10.8 7.11-13.919 13.92 2.088.8 6.342.6 4.176 5.57-4.794-3.3-7.736-2.87-12.527-4.18q1.392 2.79 2.784 5.57c-2.32-.46-4.64-.93-6.959-1.39.927 1.86 1.855 3.71 2.783 5.57-7.784.64-15.3 6.75-16.7 18.09l-1.392-4.17c-10.92-10.03-5.565-34.54-9.743-51.5q5.568-8.355 11.135-16.7zm1501.8 13.92zm-1461.433 69.59c4.5 4.86 5.589 23.93 0 30.62h-1.391q-3.48-9.735-6.96-19.48 4.176-5.565 8.351-11.14zm1422.465 59.85c1.39 1.39 2.78 2.79 4.17 4.18-1.39-1.39-2.78-2.79-4.17-4.18zm-1469.787 34.8v6.96c-.928-1.86-1.856-3.71-2.784-5.57.928-.46 1.856-.93 2.784-1.39zm2.783 16.7q1.392 2.085 2.784 4.18c-2.842-2.51-.983-.03-2.784-4.18zm608.236 135.01c24.868-.11 89.666 53.04 93.253 65.42-3.477 2.69-1.455.81 1.392 4.17-4.68 5.54-4.219 8.19-8.351 9.74-1.206-4.81-.617-14.96-2.784-19.48-5.5 2.3-4.232 2.44-9.743 0-.269-8.03.939-9.79-4.175-8.35-7.816 1.44-43.627 4.54-54.282 9.74l1.392 8.35c10.6 3.81 8.364 9.69 18.094 13.92v6.96c-9.712 12.26-19.828 10.33-27.837 18.09-24.485-14.9-50.108-21.2-59.849-50.1h1.392q11.133 2.775 22.269 5.56c-3.932-12.42 8.081-51.82 19.486-58.45q4.87-2.79 9.743-5.57zm224.088 9.74c19.88 2.44 21.14 15.34 30.62 27.84 3.97-1.81.84-2.1 5.57-1.39-3.67 13.4 4.87 32.96 4.17 33.4-5.09 6.46-11.69 12.08-18.09 9.74.93 1.4 1.85 2.79 2.78 4.18 4.34 1.86 4.53 1.92 6.96 5.57 18.73.5 17.6-3.93 30.62-8.35q1.395 2.085 2.78 4.17c-.46 1.39-.92 2.78-1.39 4.18-13.71 10.22-29.91 21.35-48.71 22.27-1.39-1.86-2.79-3.72-4.18-5.57 3.88-7.76 10.95-16.72 6.96-23.66-.46-.93-.93-1.86-1.39-2.79-4.34 5.61-37.28-.12-45.93 2.79-3.95-10.61-9.79-8.89-15.31-18.1 1.39-1.85 2.78-3.71 4.17-5.56q-2.085-2.1-4.17-4.18h-1.39q-3.48 5.565-6.96 11.14l-2.79-2.79c2.26-7.03 1.05-11.38 0-20.88 18.01-11.75 35.75-20.9 55.68-32.01zm-224.088 50.11c2.139 5.85-.257 3.41 5.567 5.57-2.139-5.85.257-3.41-5.567-5.57zm160.062 1.39h4.176v5.57q-2.79-1.395-5.568-2.79c.464-.92.928-1.85 1.392-2.78zm-186.507 1.39v4.18l6.959-2.79q-3.48-.69-6.959-1.39zm22.269 1.39zm-576.223 2.79c3.139 2.98 3.3 5.35 1.392 9.74l-1.392-9.74zm581.791 0c-.464.92-.928 1.85-1.392 2.78v1.39h4.175l-1.392-4.17H839.5zm165.626 0c1.39 1.39 2.79 2.78 4.18 4.17-1.39-1.39-2.79-2.78-4.18-4.17zm-160.059 1.39c.478 5.95 1.288 6.02-1.392 12.53l13.918-2.79-6.959-6.96v-2.78h-5.567zm64.025 12.53c4.848 2.54 3.741 1.17 5.567 6.95h-1.392v-2.78zm-645.815 2.78c7.368 3.82 7.71 11.55 9.743 16.7h-4.176q-2.784-8.355-5.567-16.7zm598.492 2.78c-1.1 5.6-.081 2.31-4.176 6.96l1.392 2.79h2.784l1.392-2.79v-6.96h-1.392zm37.58 2.79c4.275 3.48 4.9 1.31 1.392 5.56-.387-3.29.309-1.73-1.392-5.56zm132.227 0l13.92 4.17c-5.65 5.16-5.75 1.78-4.18 8.35-7.32-2.55-7.28-5.96-9.74-12.52zm-754.38 13.91c4.371 2.87 2.88.67 4.176 6.96h-6.96v-1.39q1.391-2.775 2.784-5.57zm794.741 4.18c2.58 2.79 2.64 2.53 4.18 6.96-2.32-.46-4.64-.93-6.96-1.39.929-1.86 1.849-3.71 2.779-5.57zm-757.161 18.09c9.655 4.66 15.074 1.41 26.445 4.18q-1.392 2.085-2.784 4.18c-.928.92-1.856 1.85-2.783 2.78-7.231-3.08-17.114-3.95-20.879-11.14zm23.661 18.1q4.176 2.775 8.351 5.57v1.39H345.4zm4.176 9.74c.928.47 1.856.93 2.783 1.39l-4.175 2.79-1.392-2.79c.927-.46 1.855-.92 2.783-1.39zm-1.393 22.27q4.175 11.13 8.351 22.27-3.48-2.79-6.959-5.57l-1.392-16.7zm1255.446 5.57q3.48 7.65 6.96 15.31h-1.4c-1.85-.93-3.71-1.86-5.56-2.79-.47-2.31-.93-4.64-1.4-6.95.47-1.86.93-3.72 1.4-5.57zm-5.57 22.27c.46.93.93 1.85 1.39 2.78-.46-.93-.93-1.85-1.39-2.78zm37.58 9.74zm-1279.1 5.57h9.743l-5.568 4.17q-4.175-.69-8.351-1.39c1.387-.93 2.779-1.85 4.171-2.78zm-2.784 8.35c5.489 7.26 3.555 21.63 4.176 32.01h-1.392zm1238.739 1.39c.47.93.93 1.86 1.39 2.78-.465-.92-.925-1.85-1.395-2.78zm-1.39 4.18c.46 1.39.93 2.78 1.39 4.17h-1.39v-4.17zm-1.39 8.35c.46.93.93 1.85 1.39 2.78-.465-.93-.935-1.85-1.395-2.78zm-4.18 18.09c.47.93.93 1.86 1.39 2.78-.465-.92-.925-1.85-1.395-2.78zm-1222.041 11.14c3.187 5.2 1.786 8.47 0 15.31-.928.46-1.856.92-2.784 1.39-.463-1.39-.927-2.79-1.391-4.18q2.087-6.255 4.175-12.52zm1210.906 16.7zm2.78 1.39l2.78 2.78c-2.31.93-4.64 1.86-6.95 2.79 1.39-1.86 2.78-3.71 4.17-5.57zm-1215.078 13.92l2.784 4.17c-2.842-2.5-.983-.02-2.784-4.17zm5.568 26.44c2.936 4.26 3.086 4.08 0 8.35v-8.35zm469.051 12.53c47.544 1.55 76.43 10.4 114.131 20.88h2.783c2.532 1.16.439 1.5 2.784 0 30.181-17.75 101.5-20.68 136.4-1.39 22.78 12.59 50.95 39.84 79.33 41.75 5.3-10.77 16.14-.21 27.84 2.78 1.39-2.31 2.79-4.63 4.18-6.95 12.64 10.73 18.4 7.88 32.01 9.74q-2.085 11.82-4.18 23.66-16.005-.69-32.01-1.39c-10.25 3.08-19.39 10.17-32.01 12.52-12.54 2.34-20.89-3.07-36.19-1.39-.38-6.38 2.34-3.03-2.78-6.96-2.26-1.02-46.2-9.41-55.68-6.96-5.66 1.47-16.31 13.78-25.05 11.14-42.6-12.9-95.574-7.14-139.184-4.18-9.707-22.94-48.854-1.68-65.416-9.74-8.88-4.32-17.377-11.98-30.621-13.92q-7.655 4.875-15.31 9.74l-4.175-4.17c-6.25-3.12-40.272 9.5-45.931 16.7q-23.659-6.255-47.323-12.53-11.133 2.1-22.269 4.18l-2.784-6.96q2.784-7.65 5.567-15.31c15.2 1.1 42.187-12.61 47.323-26.44l5.567 4.17c30.41-19.88 72.474-21.15 102.998-38.97zm-463.484 5.57c1.294 3.28-.41 6.02-2.784 8.35-.464-1.86-.928-3.71-1.391-5.57 1.391-.93 2.783-1.85 4.175-2.78zm5.567 15.31c.561 20.3 13.491 23.05 8.351 43.14h-8.351v-4.17c6.555-2 5.683-1.04 6.96-8.35-8.181-8.36-12.012-15.41-13.919-30.62h6.959zm503.847 2.78c.928.93 1.856 1.86 2.784 2.78-.928-.92-1.856-1.85-2.784-2.78zm-15.31 4.18q-3.478 2.775-6.959 5.56l2.784 2.79c4.031 5.23 7.412 3.91 13.918 1.39v-1.39q-4.871-4.185-9.743-8.35zm-1.392 2.78zm297.851 26.45c4.21 1.75 1.67-.03 4.18 2.78h-1.39c-.93-.93-1.86-1.86-2.79-2.78zm-780.82 11.13q3.479 1.395 6.959 2.78 5.567 18.105 11.135 36.19h1.392c-1.134-9.38-2.776-7.11 1.392-13.92.927.47 1.855.93 2.783 1.4v1.39a34.625 34.625 0 0 0-1.392 19.48q8.351 6.27 16.7 12.53c-.8 5.28 12.789 38.29 2.783 47.32v2.79q-2.086-4.875-4.175-9.75c3.945 1.55 2.024 1.21 5.567 1.39v-1.39q-6.958-7.65-13.918-15.31c2.787-4.02 3.134-2.86 4.175-9.74-7.828.62-5.3 2.36-9.743 0q4.872-4.17 9.743-8.35c-5.629-9.43-12.113-5.98-18.094-11.14-7.5-10.5-17.92-42.29-15.307-55.67zm15.31 1.39h4.176q-1.392 6.27-2.784 12.53c-1.856-1.39-3.712-2.79-5.567-4.18-.464-.92-.928-1.85-1.392-2.78q1.392-2.085 2.784-4.18c.927-.46 1.853-.92 2.783-1.39zm12.527 38.97zm32.012 98.82c3.247.47 6.5.93 9.743 1.4v4.17h-8.351c-1.352-5.59-7.325-5.13-11.135-11.13l5.568-6.96h-8.351c1.391-.47 2.783-.93 4.175-1.39.464-1.4.928-2.79 1.392-4.18q-2.088-7.65-4.176-15.31c.464-.46.928-.93 1.392-1.39l8.351 6.96 1.392 4.17c-3.68 9.51.008 12.39 0 23.66zm482.97-19.48c11.045 4.6 9.842 8.08 18.094 15.31 17.935-13.09 66.187-.33 69.587 16.7h4.18c-2.5 8.21-4.7 5.25-4.18 9.74 15.44-5.7 12.87-1.28 30.63 0v1.4c-9.05 1.77-9.38 4.38-16.71 1.39 2.06 6.41 2.6 4.91 6.96 8.35 7.1-2.92 15.25-7.18 16.7 2.78 4.47-3.15.12-3.63 9.75-4.17v1.39h-2.79c-5.57 6.38-.82 1.76-12.52 8.35v8.35c3.88-1.9 5.05-3.13 9.74-1.39h-2.78c-17.37 12.28-33.66 16.47-45.935 27.84 6.295 3.23 3.685 3.61 5.565 8.35-8.983 7.38-6.1 4.48-16.7 1.39-.464.93-.928 1.85-1.392 2.78 1.969 8.27-1.4 5.82-1.392 16.7-30.474-9.37-40.521 12.74-72.376 6.96-2.548-5.68-1.78-6.27-8.351-8.35-11.716 25.32-55.516-68.55-54.282-86.29q2.088-4.17 4.176-8.35c27.238 3.73 23.869-10.87 41.755-22.27 7.263-4.63 15.141-.91 22.271-6.96zm-487.145 22.27zm1036.926 0h5.56c.47 1.39.93 2.78 1.4 4.17-1.4.47-2.79.93-4.18 1.4q-1.395-2.79-2.78-5.57zm-1035.535 5.57c11.181 5.18 21.262 42.52 23.662 55.67h-1.392v-2.78c-9.786-12.65-19.509-34.62-22.27-52.89zm428.688 4.17a56.91 56.91 0 0 1-9.743 13.92c7.861-2.66 14.668-2.47 11.135-13.92h-1.392zm-23.661 20.88q6.263 6.255 12.526 12.53c-9.716-2.06-10.733-5.8-12.526-12.53zm622.158 4.17c.46.93.92 1.86 1.39 2.79-.47-.93-.93-1.86-1.39-2.79zm-1007.7 2.79c.464.93.928 1.85 1.392 2.78-.462-.93-.927-1.85-1.391-2.78zm1006.3 0c.47.93.93 1.85 1.4 2.78-.47-.93-.93-1.85-1.4-2.78zm-1004.907 2.78c6.3 4.57 10.361 12.2 11.135 22.27h-1.392v-2.78q-4.87-9.75-9.743-19.49zm1003.517 0q-2.085 5.565-4.17 11.14 2.09-5.565 4.17-11.14zm-13.92 12.53c5.9.43 5.52-.09 8.35 2.78-2.78-.93-5.56-1.85-8.35-2.78zm-572.044 2.78zm-403.634 9.74l9.742 9.75q-2.087 2.775-4.175 5.57h-1.392l-4.175-15.32zm450.957 2.79c4.231 12.9 8.964 17.51 19.485 23.66h1.392c-2.473-13.56-11.808-17.56-20.877-23.66zm-456.525 2.78c11.967 11.31 21.038 21.86 34.8 32.01 1.588-5.59 1.913-5.32 5.568-8.35q4.87 2.79 9.743 5.57-3.48 5.565-6.96 11.14 1.392 3.48 2.784 6.95 6.959.705 13.918 1.4v16.7q6.958-1.395 13.919-2.78c.464.46.928.92 1.392 1.39-2.337 4.15-2.33 3.35-2.784 6.96.928.46 1.856.92 2.784 1.39 7.428-3.65 10.436-1.61 13.918-2.79l-2.784 9.75c6.591 12.09 17.989 11.77 23.662 19.48 5.076 6.91 1.838 12.09 6.959 18.1-.859-7.1.74-9.64 2.784-16.71 11.284 4.43 8.76 7.79 18.094 20.88 8.568-.2 9.9-.51 12.526 5.57-1.855-.46-3.712-.93-5.567-1.39 5.467 7.07 15.193 14.15 18.094 23.66 2.233 7.32-1.314 13.26 1.392 19.49q3.478.69 6.959 1.39l2.784-9.75h1.391c4.649 4.67 8.5 8.47 11.135 15.31h5.567c.913-5.29 1.462-6.73 4.176-9.74 3.985 1.69 9.645.13 16.7-1.39-1.392 1.86-2.784 3.71-4.175 5.57q-4.872.69-9.743 1.39c.464.93.928 1.85 1.392 2.78h5.567v4.18q-2.784 2.775-5.567 5.57h8.351c-1.212 6.26-1.285 4.79-4.176 8.35q2.784.69 5.567 1.39c-2.319.46-4.639.93-6.959 1.39.464.93.928 1.86 1.392 2.78H686.4v-1.39q-2.088-8.34-4.176-16.7c6.2-1.04 5.852-1.74 9.743-4.18.72 8.63 1.319 6.97 5.568 11.14q-2.784 9.735-5.568 19.48c4.822-5.03 4.265-8.88 12.527-11.13 1.392.46 2.784.93 4.175 1.39l1.392 2.79q-3.478 4.17-6.959 8.35.7 4.17 1.392 8.35c8.83 2.81 9.9 4.33 15.31 9.74 3.658-6.27 5.782.94 15.31-2.78v-18.1c10.588 3.45 10.61-2.29 22.27-4.17-1.9 8.2-5.535 9.88-9.743 15.31v1.39c12.8.19 20.753 11.71 19.486 18.09q7.654-4.86 15.31-9.74c-6.63-1.06-8.534-5.13-8.351-11.13-.928 1.85-1.856 3.71-2.784 5.56-.928-1.85-1.856-3.71-2.783-5.56 7.51-2.25 6.676-2.79 8.351-9.75q-2.784.7-5.568 1.39l1.392-5.56c12.321-.35 27.224-.72 30.621 2.78-8.17-.45-6.036 1.57-5.568 8.35q-4.871-2.775-9.743-5.57l-9.743 6.96v1.4c5.543 3.98 26.445 19.48 26.445 19.48v-8.35c-3.621-.59-.76 1.36-4.175-1.39 2.522-2.45 2.934-5.96 4.175-9.74h2.784q2.088 4.86 4.176 9.74c7.936.02 10.139-.55 13.918-4.18-5.44 1.55-7.041 2.56-12.526 1.4v-1.4c.463-1.85.927-3.71 1.391-5.56 13.056-2.09 14.072-5.02 22.27-11.14.378 11.3 2.511 15.11 9.743 22.27l-6.959 6.96H857.6v6.96c5.647-6.34 6.217-11.05 13.919-8.35 3.78 5.44 9.915 5.37 13.918 6.96q-2.086-4.185-4.175-8.35c6.282.3 7.5.98 11.135 2.78l-1.397 6.96h4.175c1.073-8.34 3.2-10.07 8.351-13.92h1.392c.672 9.27 3.036 14.74 9.743 18.09 7.369.96 6.453.98 9.743-5.56q-1.392-4.185-2.784-8.35c11.07 7.87 16.118 5.05 26.445 9.74q1.392 4.875 2.784 9.74h1.392l6.959-6.96c-2.99-3.9-3.939-3.67-5.567-9.74l22.269-6.96c.464.93.928 1.86 1.392 2.78q-6.263 6.27-12.527 12.53c-2.252 6.59-2.528 13.3 2.784 16.7-1.8-3.86-2.8-3.97-1.392-8.35 3.48-7.1 8.8-8.58 15.31-12.52q9.046 4.17 18.094 8.35l-1.391-2.79c-.928-.93-1.856-1.85-2.784-2.78q2.088-2.085 4.175-4.18c1.395.47 2.785.93 4.175 1.4 6.82 6.96 6.35 13.85 11.14 23.66.74-4.04-1.11-6.82 2.78-4.18-1.95-5.87-3.76-7.41 0-12.53h1.39v6.96c.93-.46 1.86-.92 2.78-1.39 2.1-6.64 2.7-5.69 8.36-8.35q3.48 2.085 6.96 4.18c-2.26-8.15-1.67-10.56 0-19.49h2.78c.72 9.57 13.94 13.54 20.88 20.88-1.47 5.98-1.8 4.21-4.18 8.35q6.27-.69 12.53-1.39c2.44-6.51 2.86-7.76 8.35-11.14 9.47 9.41 26.44 7.23 19.48-5.56 1.4-.47 2.79-.93 4.18-1.4-5.24-2.45-5.19-2.24-6.96-8.35h2.78c1.4-.46 2.79-.93 4.18-1.39.93 2.78 1.86 5.57 2.78 8.35.47-2.78.93-5.57 1.4-8.35q4.86 3.48 9.74 6.96 2.085-7.65 4.17-15.31c8.6 2.39 7.21-1.25 19.49-2.78-2.2 9.92-7.08 8.48-12.53 6.96q.705 4.86 1.39 9.74c5.72-3.26 6.1-3.57 13.92-2.79-.69-4.39 2.92-10.05-2.78-15.31q-4.17-2.775-8.35-5.56c18.59.48 37.34-4.12 47.32-2.79l-6.96-6.96q4.185-1.38 8.35-2.78c3.31 2.53.15.8 6.96 0 1.21 3.25 4.28 9.91 6.96 6.96 2.78.46 5.57.93 8.35 1.39 1.39-2.32 2.79-4.64 4.18-6.96q-3.48-4.875-6.96-9.74c6.43-5.89 11.06-5.75 6.96-15.31 8.73 2.1 14.08 7.13 19.48 12.53q6.96-.705 13.92-1.4c-.54-14.24 2.37-23.06 9.75-29.23 5.13 2.57 1.01 3.65 5.56 1.4 2.72-3.42.79-.57 1.39-4.18h6.96c.47 2.32.93 4.64 1.4 6.96 6.89-6.42 8.14-15.88 11.13-26.44.93.92 1.86 1.85 2.78 2.78 6.37 2.79 7.05 4.7 9.75 11.13.92-.46 1.85-.92 2.78-1.39 3.74-7.36 10.27-11.85 20.88-12.52 1.98 3.65 6.03 4.44 8.35 12.52 5.75-2.91 8.67-6.1 9.74-9.74l6.96 4.17q-4.875 5.58-9.74 11.14l-80.73 80.73c-36.79 29.61-93.5 57.28-139.18 75.16l-76.55 11.13C850.532 2503.4 663.2 2420.89 584.8 2327.37l-80.727-100.21c-6.89-9.66-7.483-24.66-16.7-32.01q2.784 7.65 5.568 15.31c-.928-.47-1.856-.93-2.784-1.4q-13.923-27.135-27.843-54.28zm530.292 6.96zm-478.794 29.23c3.248.46 6.5.93 9.743 1.39q3.48 2.79 6.959 5.57l1.392 6.96q-1.39 3.48-2.783 6.96c-.928-.47-1.856-.93-2.784-1.39-3.56-11.96-11.726-8.53-16.7-12.53l4.173-6.96zm882.428 20.88c1.86.93 3.71 1.85 5.57 2.78-.47.93-.93 1.86-1.39 2.79h-1.4q-1.38-2.79-2.78-5.57zm-843.456 13.92zm828.146 11.13c2.21 14.07-29.48 46.09-41.75 52.89 5.38-10.66 15.93-25.99 26.44-32.01q-2.085-6.27-4.18-12.53 4.875 2.79 9.75 5.57 4.86-6.96 9.74-13.92zm-47.32 9.74q2.775 2.1 5.57 4.18c-.93.93-1.86 1.86-2.79 2.78h-2.78v-6.96zm-4.18 38.98zm-695.919 9.74c3.247.46 6.5.93 9.743 1.39 1.777 4.49 2.25 4.99 1.392 9.74.8 4.86.491 4.09-1.392 8.35q-2.088-1.38-4.176-2.78-4.175-4.875-8.351-9.74zm647.209 4.17c-1.39 1.4-2.79 2.79-4.18 4.18 1.86.93 3.71 1.86 5.57 2.78-.46-2.32-.93-4.64-1.39-6.96zm-601.278 11.14h5.567q-2.088 2.775-4.176 5.57c-1.391-.47-2.783-.93-4.175-1.4zm51.5 26.44c1.392.47 2.784.93 4.175 1.4q-2.783 1.38-5.567 2.78v-1.39zm-12.527 5.57c2.32.46 4.64.93 6.959 1.39q-2.087 4.185-4.175 8.35h-1.392q-.698-4.86-1.394-9.74zm471.837 1.39c5.06 1.58 3.81 1.58 6.96 4.18q-.7 2.775-1.39 5.57h-1.4l-4.17-2.79c-.47-.93-.93-1.85-1.39-2.78.458-1.39.918-2.79 1.388-4.18zm-359.1 2.79h5.568l-2.784 4.17c-3.491.52-2.9.31-6.959 2.79l4.175-6.96zm-30.62 11.13c.464.93.928 1.86 1.392 2.78-.464-.92-.924-1.85-1.392-2.78zm-22.27 1.39l2.784 2.79zm98.821 4.18c1.466 3.2-.9 5.88-4.175 8.35q2.087-4.17 4.175-8.35zm281.157 2.78v5.57q-5.58-1.395-11.14-2.78c.46.92.93 1.85 1.39 2.78q5.565 1.4 11.14 2.78c1.58-5.06 1.57-3.81 4.17-6.96-1.85-.46-3.71-.92-5.56-1.39zM891 2367.73q1.392 5.58 2.783 11.14c-6.206-4.23-4.344-5.18-13.918-4.18 4.514-3.97 6.868-3.95 11.135-2.78v-4.18zm190.678 2.79c.93.93 1.86 1.85 2.79 2.78-.928-.93-1.858-1.85-2.788-2.78zm-256.1 1.39c1.392.46 2.784.93 4.176 1.39-1.385-.46-2.777-.93-4.169-1.39zm47.323 1.39q3.478.7 6.959 1.39v1.4q-3.48.69-6.959 1.39v-4.18zm182.332 2.79h4.17q2.79 4.86 5.57 9.74h1.39c1.5-6.41 1.47-5.2 5.57-8.35.93.46 1.86.92 2.78 1.39v5.57q-3.465 2.085-6.95 4.17c-1.4-.46-2.79-.93-4.18-1.39q-4.163-5.565-8.343-11.13zm-115.524 1.39zm0 2.78h2.791c-1.877 5.34 1.611 6.09-5.567 9.74.927-.92 1.855-1.85 2.783-2.78v-6.96zm101.6 0c.46.93.93 1.86 1.39 2.78-.449-.92-.919-1.85-1.379-2.78zm36.19 2.78q7.65 8.355 15.31 16.71c-8.409-3.65-12.609-7.23-15.299-16.71zm-76.55 1.4c4.22 1.22.36 1.99-1.395 4.17.476-1.39.936-2.78 1.406-4.17zm-136.4 2.78c-.464.93-.928 1.86-1.392 2.78.928-.92 1.856-1.85 2.784-2.78h-1.392zm-30.621 1.39c-.464.47-.928.93-1.392 1.39l2.784 2.79c.928-1.39 1.856-2.79 2.784-4.18h-4.176zm162.846 0zm158.668 0q-7.65 2.085-15.31 4.18v1.39h15.31q1.4-2.085 2.79-4.18c-.922-.46-1.852-.92-2.782-1.39zM799.14 2390q-1.392 2.1-2.784 4.18c4.369-2.47 2.055-1.41 2.784-4.18zm172.589 8.35c.463 1.4.928 2.79 1.391 4.18h1.392c-1.753-4.21.026-1.66-2.783-4.18zm58.461 5.57q-4.185 2.79-8.36 5.57v4.17q7.665-2.775 15.32-5.56c-.93-1.39-1.86-2.79-2.79-4.18h-4.17zm16.7 2.79q2.085 4.86 4.17 9.74h1.4c.46-1.86.92-3.71 1.39-5.57l-2.79-4.17h-4.17zm-64.027 4.17zm-1.392 4.18zm-5.567 4.17q2.784.7 5.567 1.39-2.782-.69-5.571-1.39z"/></svg>
