<svg xmlns="http://www.w3.org/2000/svg" width="1944" height="2592"><path fill="currentColor" d="M971.854 45.028l2.871 1.2 2.872 1.2c-5.239 2.49-8.646 4.818-16.38 5.3l-1.767-5.46zm353.986 240.99c-12.57-.422-18.27-4.274-29.16 1.983l-10.86 45.38c-1.42-9.837-2.56-5.15-6.22-9.342q-.51-7.638-1.04-15.275c-16.09 9.029-95.37 30.479-118.38 23.395-29.22-9-53.48-22.974-83.28-34.794-13.08-5.186-27.13 3.175-39.07-.133l-13.44-13.032c-9.44 2.571-11.89 8.726-18.59 13.819-1.45-.831-2.91-1.662-4.36-2.494-.69-3.373-1.14-3.468-3.341-8.143l-3.977 3.061c-2.419 7.124-11.224 13.011-18.78 11.042-3.511-2.09-3.776-3.121-6.027-6.565l-3.788 5.838c-36.008-16.32-113.333 15.5-133.093 32.766-22.385-12.859-50.341-.609-67.193 17.124-.169-6.445 1.272-6.375-4.827-9.437-17.155-6.174-23.529 8.407-36.643 15.048-8.667-11.847-74.494-19.46-80.852-19.614-.561-4.993-.277-7.785-6.31-10.731l-4.26-1.105-1.3 1.483q-.49 13.284-.983 26.573l-2.871-1.2c-.987-8.281-2.753-10.579-6.594-14.9l-5.46 1.766c-2.493 9.6-13.176 14.709-19.507 20.857l-.189-2.777c-3.674-6.518-.867-8.334-10.382-9.059-21.615 9.6-41.772 25.869-58.644 40.259-11.756 1.252-16.311-.008-22.6-4.044 3.772 7.022 6.415 9.6 16.03 10.071q-.552 2.128-1.1 4.26c-10.851 3.68-19.721 10.646-27.934 20.035l-6.943.472c-3.2-6.541-3.854-8.913-11.865-10.353-2.409 5.766-1.424 1.738-5.271 4.543l-5.932-5.177 9.909 2.117c-2.406-5.95-3.513-5.86-7.6-9.249l3.887-4.45-4.449-3.883c-.958 8.266-1.028 8.275-10.542 9.088q-.048-.694-.1-1.389c7.389-1.527 6.725-.342 7.86-7.51l-1.578-2.683c-23.914 1.484-31.106 19.644-41.725 22.369l-1.672-4.072c3.2-9.012 6.773-16.151 16.825-19.28l-7.671 10.287c5.56-1.551 49.138-25.609 53.751-30.161l-2.872-1.2-30.078 9.021 2.494-4.355 18.5-15.208.472 6.943 9.721-.661c-1.27-13.329 1.178-15.363 5.432-22.69l-7.321-5.083c10.877-2.746 6.682-6.62 10.165-14.641 7.134-1.595 7.777-3.158 11.3 2.021-4.213 1.211-3.378-.835-3.694 7.227l10.476 10.448 2.683-1.578c-.383-13.217-2.5-22.657-8.926-28.689l6.943-.472c2.271 8.93 5.047 10.022 12.053 13.131l6.755-3.249q2.209-8.52 4.421-17.042c-5.962-12.581-11.173-15.275-1.6-23.606 1.781 18.465 3.952 31.063-1.239 43.331l17.136 5.81c10.716-14.227 3.7-17.378 4.582-35.188l1.389-.1c1.9 7.417 7.475 25.116 13.564 35.349l-.189-2.777c8.773-19.07.562-35.472-3.21-47.214l1.388-.094c4.584 4.1 1.78 3.257 7.038.916l-5.682-21.929 1.389-.1.189 2.777c4.632 3.211 5.379 5.811 11.675 7.577-2.67-20.428 6.1-44.976 16.958-58.351q-1.42 9.861-2.843 19.725l10.47 10.449 3.977-3.061 3.033-16.947 4.261 1.106 2.966 2.588 3.91 16.475c-7.941 2.681-9.347 5.826-8.682 15.936l1.389-.095c6.678-6.565 12.858-9.6 21.274-15.4-7.347-3.186-11.357-9.872-16.408-15.625l6-14.358c-5.667 2.906-5.779 2.15-16.569 2.521q-.048-.693-.1-1.388l2.4-5.744 7.226 3.694 4.072-1.672c-1.788-6.955-2.321-5.73-6.216-9.343l13.981.445c-1.4-6.466-2.757-6 2.116-9.91 1.328 6.965 14.991 16.563 21.424 27.84l2.683-1.578c-2.654-5.613-4.431-14.73-5.488-19.157 15.006-.586 12.84-13.771 26.451-21.33l27.115-11.597 3.033-16.947 1.389-.094c.883 9.316 5.639 28.794 11.986 32.666l-.094-1.388c-5.056-4.828-1.184-32.245.133-39.071l2.872 1.2c2.486 7.289 4.909 8.87 9.276 13.32-4.969 1.815-4.007 1.407-6.66 4.638L725 169.233l1.389-.094c1.571-22.746 4.125-13.636-1.161-37.588l1.388-.094c12.433 7.571 15.752 5.6 29.351.794 2.208 5.2 3.084 18.305 8.454 21.746l5.554-.378-.094-1.388-7.51-7.86 8.521 2.211-.284-4.166c-6.782-15.234.789-36.316-3.588-52.768l4.072-1.672 4.449 3.882c-3.057 6.918-2.614 21.434 1.888 27.773l1.389-.094c5.329-10.514 9.863-19.316 16.164-29-11.474 6.4-7.543 8.329-17.3 12.337 4.806-9.023 6.161-10.86 5.621-19.913 14.435 2.076 31.911 4.647 41.282-8.387 1.182 5.514.218 4.158 3.249 6.754 4.462.9 4.439.111 8.237-1.955l3.411-11.392c7.727 6.058 14.81 13.888 25.656 8.021l6-14.359 6.621 35.821 1.389-.094 1.294-1.483 4.488-36.577 1.389-.094c.347 15.551-.46 25.334 6.526 34.433l8.332-.567 3.6-8.615c-1.3 7.23-3.129 12.054-1.549 18.241l5.554-.377 1.294-1.483.728-9.815c.344 8.389 1.341 12.551 5.3 16.38l-1.039-15.275c10.461 5.492 8.222-14.257 10.987-23.068 1.094 9.85 3.048 8.737 7.888 13.414l-4.8 11.487 7.954-6.121c-2.141-20.876 4.252-25.864 14.114-38.626.833 5.855.288 5.511 3.344 8.143 7.059 2.633 7.007.765 12.875 4.7 7.937-4.053 11.534-7.619 12.753-17.608l6.944-.472.094 1.389-6.188 11.581 2.97 2.591 2.589-2.966c9.131-8.263 5.868-14.5 24.24-12.809q4.035 8.1 8.08 16.192c-.9.526-1.79 1.052-2.69 1.578l-4.92-10.826q-2.625 2.272-5.27 4.544c.03.463.06.926.1 1.389l.18 2.777c10.32 6.765 10.41 4.622 23.8 1.172l1.86 6.849c1.73-1.977 3.45-3.955 5.18-5.932l6.21 9.343c.15-10.134 6.72-17.8 12.38-23.163q.57 8.331 1.13 16.664 2.88 1.2 5.74 2.4 2-1.53 3.98-3.061l-.09-1.389-6.69-16.286 1.39-.094c.06.926.12 1.852.19 2.777q5.97 5.87 11.96 11.742c13.71-8.379 39.68-1.209 44.27 15.125q-11.49-4.8-22.97-9.6c-.9.526-1.79 1.052-2.69 1.578q.945 3.424 1.87 6.849c6.36.965 7.21-.593 13.79-2.333q-2.49 4.355-4.99 8.71l1.39-.094c4.74-6.085 6.91-2.629 15.27-1.039 5.17-9.491 9.4-18.194 17.84-24.929q-8.715 25.7-17.43 51.408l2.97 2.588c.89-.526 1.78-1.052 2.68-1.577 1.19-11.675 4.57-29.527 12-28.717.66 12.119-.88 11.621-2.75 21.113l1.38-.094-.18-2.777 20.8-22.34 4.26 1.105-3.51 10q5.325-3.849 10.64-7.7c-2.7 7.259-2.05 15.473 3.37 29.067l1.39-.095 2.78-.188q1.7-5.7 3.41-11.393l4.16-.283q6.12 7.953 12.25 15.908 4.71-2.413 9.43-4.827c-.34-8.35-2.13-5.6 3.51-10 .56 1.357 1.11 2.715 1.67 4.072-1.91 4.5-3.47 5.691-2.12 9.909l3.06 3.977c10.81-2.211 6.99-6.919 13.8-2.333 11.28 3.34 13.13 15.379 17.16 26.734.89-.525 1.79-1.051 2.68-1.577q1.9-2.919 3.79-5.838 1.17 6.9 2.33 13.792l9.72-.661q3.195-4.4 6.38-8.8l4.92 10.826-9.72.661c1.82 4.969 1.41 4.007 4.64 6.66l7.95-6.121c1.71 5.653-.79 1.173 4.45 3.882.63-4.31-1.51-2.052 3.89-4.449 1.07 6.947 2.52 32.294 8.38 41.281 2.75-.651 5.49-1.3 8.24-1.955-.21 6.417.82 21.218 5.96 26.1l1.39-.094q1.98-11.991 3.95-23.985c1.13 12.808-1.23 19.992-5.06 28.245l13.86-21.868q3.705 3.236 7.42 6.471c-9.58 2.8-10.47 12.879-12.76 17.608 4.95 4.38 2.33.8 2.24 12.4 1.3-1.483 2.59-2.966 3.89-4.449l4.26 1.1q1.2 7.59 2.42 15.181c7.74-2.228 8.89-4.438 11.84-10.571.96.4 1.91.8 2.87 1.2 1.47 16.758-1.62 28.594-4.49 36.577 4.68 1.456 1.75 1.16 7.04.916-3.07 6.067-1.09 11.927-4.14 21.208-.06-.926-.12-1.852-.19-2.778-10.05-11.584-10.16-37.445-15.61-44.975l1.441 41.758zm-270.29-241.1c.53.894 1.05 1.789 1.58 2.683-.53-.895-1.05-1.79-1.58-2.684zM921.135 58.242c.47 4.34.06 4.075-2.211 8.521l-2.966-2.588zm-65.171 5.827l11.109-.755.094 1.389-2.777.189-10.826 4.921-1.577-2.683zm220.886-13.625l2.78-.189c-1.33 1.02-2.65 2.04-3.98 3.061zm-81.74 8.348c4.665 1.483 1.722 2.5 5.55-.378zm-84.517 8.538l4.165-.283-5.176 5.932c-3.1 6.727-8.629 8.053-17.486 9.559l3.694-7.227zm36.1-2.455l-3.788 5.838 2.616 17.958 8.332-.567 3.977-3.06q-.048-.694-.094-1.389l-.284-4.166c-4.418-1.3-4.26-1.673-8.426-.822 2.877-5.881 5.246-6.734 3.222-14.17zm12.5-.85l.472 6.943 1.388-.094 2.778-.189 1.2-2.872-3.061-3.977zM1088.72 60.8q-3.39 1.624-6.76 3.249c.1 1.389.19 2.777.28 4.166l1.39-.094c3.86-2.609 6.9-3.277 5.09-7.321zM775.167 86.3l4.166-.283-1.105 4.26-2.683 1.577zm172.474-7.543l.567 8.332zm115.259-7.833c-1.99 7.7-2.04 12.013 1.04 15.275l1.39-.094c-.07-.926-.13-1.852-.19-2.777 1.84-4.742 1.19-9.55-2.24-12.404zm-321.6 30.238l4.166-.283-1.011 5.649-1.294 1.483c-2.724-3.449-2.367-2.086-1.861-6.849zm355.59-22.784q-5.175 5.932-10.36 11.865c.07.926.13 1.852.19 2.777l2.97 2.588c8.33-1.508 12.09-7.832 8.77-14.547-.52-.895-1.05-1.789-1.57-2.683zm-20.74 2.805l-1.29 1.483c.52.894 1.05 1.789 1.57 2.683.87-.989 1.73-1.978 2.59-2.966-.95-.4-1.91-.8-2.87-1.2zM947.1 91.353l1.955 8.237 5.365-3.155-1.766-5.46zm-19.252 4.1l2.521 16.569 2.777-.188zM1115.32 82.7l-1.2 2.872c1.32-1.02 2.65-2.04 3.97-3.061zm-2.5 4.355q-2.8 9.956-5.62 19.914c.9-.526 1.79-1.052 2.68-1.578 1.24-6.835 5.39-16.965 2.94-18.332zm44.63-.244l.66 9.72c1.51 1.757 3.03 3.514 4.54 5.272-2.64-5.988-1.75-8.946-2.43-15.181zm-401.224 28.682c4.478 6.468 2.445 9.1 7.51 7.86l-1.011 5.649c-7.776-2.715-11.666-6.015-21.207-4.139zm145.807-9.915c-.821 6.8.857 7.434 6.31 10.732zM786.871 114.8l1.133 16.664 1.388-.095-2.521-16.569zm-12.215 5.016c-1.956 9.752-2.357 19.7 4.571 26.195l-.216-23.7zm193.3-8.959l-.539 12.592 1.389-.095L971.3 119q-1.668-4.068-3.34-8.139zm213.03-6.116c-.37 6.224-.57 4.879 4.73 8.049l1.39-.095c-1.826-6.055-1.296-5.51-6.116-7.95zm-480.376 34.06l.378 5.555zm529.066-35.976c3.17 3.053.61-.2 1.68 4.071-.9.526-1.79 1.052-2.69 1.578q.514-2.82 1.014-5.645zm-445.653 31.7l-1.011 5.649 4.166-.283c-1.607-4.981-.137-2.84-3.151-5.363zm-33.139 5.044l5.932 5.177zm-8.143 3.344q-1.7 5.7-3.41 11.392l1.388-.094 1.2-2.872c3.161-4 3.058-3.761 2.211-8.521zm464-28.762c-.9 10.015 4.79 8.234 2.52 16.57l.09 1.388c3.23-.629 10.94-3.147 6.66-4.638q-1.065-5.507-2.14-11.014zm-33.05 6.433q1.635 3.376 3.25 6.754c.9-.526 1.79-1.052 2.69-1.577-.13-1.852-.26-3.7-.38-5.555zm16.76.255c-.27 2.809-.55 5.618-.82 8.426l5.46-1.766c-.16-2.314-.31-4.629-.47-6.943zm-406.68 30.447l-1.2 2.872 8.993 9.154 2.777-.189 1.106-4.26q-.048-.695-.1-1.389l-4.543-5.271zm-44.342 4.414l.189 2.777zm-66.277 10.087l4.166-.284zM1228.7 129.4q1.125 6.2 2.24 12.4-1.125-6.2-2.24-12.4zm33.61 1.9q2.175 1.248 4.36 2.494-2.19-1.245-4.36-2.494zm-569.15 41.494l-2.4 5.743 4.544 5.271 3.977-3.06 1.2-2.872q-.837-2.035-1.672-4.071l-5.649-1.011zm-9.248 7.6l-1.2 2.871 2.588-2.965zm-10.826 4.921l-3.788 5.838 4.449 3.882 1.388-.094 2.4-5.743-.283-4.166zm9.72-.661l-1.2 2.872 2.589-2.966zm498.524-33.9c.95.4 1.91.8 2.87 1.2-.96-.395-1.92-.795-2.87-1.195zm.19 2.777l.18 2.777c1.2-2.508 1.25-.387-.18-2.772zm-517.871 36.61c-4.866 5.2-4.828 4.262-3.317 12.781l2.683-1.578 3.6-8.615zm527.871-33.1zM605.7 199.666l4.166-.283zm663.766-45.135c-2.35 11.555 4.01 23.6 7.82 32.949.83-1.451 1.67-2.9 2.5-4.355-5.89-11.666 1.87-18.139-3.38-29.067zm-77.67 6.676l-1.2 2.872c.87-.989 1.73-1.978 2.59-2.966zm97.96 4.5a144.764 144.764 0 0 1 10.48 10.448l-1.2 2.872q-2.97-2.588-5.93-5.177c-2.536-2.761-2.336-2.598-3.346-8.144zm5.84 3.789c.53.894 1.05 1.788 1.58 2.682-.526-.895-1.046-1.789-1.576-2.678zm-626.082 45.362l-3.882 4.449 1.671 4.072c7.267-.353 8 .49 11.015-2.144l-6.027-6.566zm-48.13 10.248l4.921 10.826 1.389-.094c-.725-6.247-1.492-7.419-3.533-10.921zm-4.705 12.876l2.778-.189zm-37.4 3.938c-2.01 6.929-2.82 17.348 1.51 22.218l3.6-8.615c-2.309-6.03-.316-9.1-3.722-13.7zm515.279-33.644q-.51 2.824-1.01 5.649l2.4-5.743zm-507.579 44.281c.6 13.121-3.052 29.622 9.776 41.187-3.966-13.496-1.362-33.69-9.776-41.187zm749.231-39.787c1.97 3.334 2.06 4.044-2.21 8.521l-1.39.094zm-44.15 7.188l-1.2 2.871.09 1.389 4.17-.283-1.68-4.072zm-1.74 15.463l1.23 18.053 5.55-.378-2.43-15.181zm27.77-1.888q1.575 2.682 3.16 5.366-1.59-2.683-3.16-5.366zm31.94-2.172c10.66 14.568 16.92 44.488 3.96 58.323-.95-.4-1.91-.8-2.87-1.2 1.06-23.763 1.37-32.284-1.09-57.123zm-771.894 55.278c-.357 5.993-1.943 4.536 4.638 6.66-1.815-4.969-1.407-4.007-4.638-6.66zm760.244-41.93q-3.135 5.1-6.28 10.192l1.77 5.46 5.46-1.766q-.48-6.942-.95-13.886zm-56.08 16.369q3.285 7.448 6.59 14.9-3.3-7.45-6.59-14.9zM567.244 311.1l5.865 24.712 2.872 1.2zm-70.537 8.982l1.577 2.683zm23.89 2.56l-9.532 3.439c-.879 10-3.941 10.47-.161 18.146l2.872 1.2 3.977-3.06q-.048-.695-.1-1.389l-3.721-13.7c.959-.431 11.429-4.036 6.668-4.64zm4.543 5.272q.332 4.858.661 9.72c5.893 2.348 7.369 3.147 14.076 1.833q-1.673-4.071-3.344-8.143l-7.227-3.694zm20.83-1.417c.083 5.543-.592 3.845 1.955 8.238l1.389-.095 5.271-4.543-1.672-4.072zm823.84-50.44l5.55-.378c.03.463.07.926.1 1.389l-1.11 4.26c-1.91-.8-3.83-1.6-5.74-2.4zm-65.71 18.419c2.64.775-.8 6.912-2.12 9.909l-1.86-6.849c1.33-1.024 2.65-2.044 3.98-3.064zm-739.861 54.5l.189 2.777zm710.251-38.531c.53.894 1.05 1.788 1.58 2.682-.53-.903-1.05-1.797-1.58-2.691zm187.21 4.01l1.14 16.664q-3.33 2.317-6.66 4.638l-1.39.094c1.66-6.943 1.96-11.631 2.94-18.336 1.32-1.029 2.65-2.049 3.97-3.069zm27.87-.5c.96.4 1.91.8 2.87 1.2l-4.23 19.819-5.65-1.011-.09-1.389q3.54-9.318 7.1-18.628zM464.946 386.41q-1.248 2.176-2.494 4.355c11.088.978 12.3 6.87 20.291 11.176l2.682-1.578-1.955-8.237zm818.194-51.451c.2 3.271.57 3.6-2.31 7.132zm222.46-10.943c1.74 4.337.64 3.774-2.3 7.133q1.14-3.567 2.3-7.133zm-227.45 19.652c-.17 2.058.67 1.355-1.11 4.261zm-868.816 66.054l2.777-.188c-2.129 5.447-1.685 4.413-7.954 6.121l1.2-2.872zm37.493-2.549c7.9 6.333 11.665 16.07 20.952 20.9l2.588-2.966c-5.639-1.691-5.647-2.109-8.8-6.377l2.589-2.966 14.736 11.554.094 1.388c-11.478 1.825-6.623 3.342-11.931 9.182-1.11-1.764-27.5-21.646-26.695-23.3l-1.578-2.683c5.909-2.205 5.405.91 8.045-4.732zm1030.363-70.064q4.32 1.8 8.62 3.6c.07 11.516 1.32 13.221 6.97 20.452-8.38-2.824-8.06-7.361-13.44-13.037-4.36 2.078-4.83 2.584-9.63 2.05l-.09-1.389q3.78-5.837 7.57-11.676zm16.95 3.032c4.94 8.139-.46 9.151-3.41 11.393q1.71-5.695 3.41-11.393zm15.28-1.038c.05 5.5 3.09 3.866-3.7 7.226 1.23-2.409 2.47-4.818 3.7-7.229zM382.061 439.478c14.411-.467 23.836 1.49 36.671 5.877 4.843-5.455 2.213-6.25 8.332-.567 9.4 1.089 27.06-2.193 32.127.606-15.37 7.926-8.916 12.659-18.941 29.189l-30.239 27.167-22.411-1.266c-11.072 3.9-9.958 13.622-22.662 15.491l1.577 2.683c22.633-1.726 22.376-14.405 38.221-12.364l4.544 5.271c-25.547 32.27-56.542 133.331-66.433 171.924-5.305 20.7.3 53.284-10.554 70.471l11.932-9.182c-1.181 12.955-10.51 30.259-15.314 41.5l5.743 2.4 3.883-4.45.094 1.389c-2.785 11.255-8.929 26.587-5.688 39.448l2.494-4.354q.293 45.315.584 90.639l7.309 66.465q-3.664 28.147-7.332 56.3c-1.284 17.94 5.525 32.59 3.588 52.77-6.577 68.53-8.093 140.44-24.084 199.74l-4.944 111.94-10.381-9.06c-31.446-11.45-7.1-103.85-9.16-134.7-3.475-1.2-4.839-1.31-7.226-3.69 6.369-6.52.271-19.83-4.571-26.2q-5-1.755-10-3.5c-.032-.47-.063-.93-.1-1.39 9.074.29 9.482 1.67 15.275-1.04-.417-8.93-1.384-10.89-5.2-14.99q4.954 1.05 9.909 2.11l-.189-2.77q-.06-11.16-.122-22.31c-4.411 3.11-4.186 3.7-4.893 10.09-.463.03-.926.07-1.389.1-1.371-19.41-.762-32.43-8.954-49.62-3.383-7.09-9.368-7.99-10.854-16 4.679-3.83 5.429-6.91 7.482-13.06q-4.812 1.02-9.626 2.05-2.3 7.125-4.61 14.26l-2.872-1.2c-3.29-19 4.47-39.22-4.693-48.51 8.488-7.57 8.026-20.54 10.515-30.01q-6.66 4.635-13.32 9.28l5.082-7.32-.566-8.33c-.331-6.91-5.675-11.64-9.654-18.88 13.829-9.08 3.009-19.22-5.96-26.1 5.5-24.16-6.163-36.645.672-51.663l-4.071 1.672c2.434-3.168 5.488-4.141 7.859-7.51 0 0-9.947-33.036-8.1-37.115 2.562 5.422 2.7 6.187 8.9 7.765l-.284-4.166c-9.148-11.165-8.271-18.1-8.1-37.116l7.038.917c-4.222-15.955-8.767-33.439-.528-48.791 4.97-1.816 4.007-1.408 6.66-4.638-3.426-5.184-3.816-2.325-2.05-9.626-5.462.071-4.087 1.291-8.52-2.211 1.119-10.514 1.15-13.241 2.655-22.5 11.939-2.915 18.606-12.617 20.707-23.729l-4.071 1.672c-4.391 1.247-5.063 4.352-10.637 7.7l2.588-2.966c-.4-7.52 3.776-13.811 5.433-22.69l-11.015 2.144 1.011-5.649 8.776-14.547c7.871 3.089 14.8.417 20.357-8.36-10.166 1.741-13.7 1.66-19.818-4.233 8.438-1.461 14.119-3.061 16-10.853-4.9-7.021 7.725-14.462 9.6-22.974 1.884-8.563-4.214-8.986-2.428-15.18 8.869-1.566 16.046-8.435 12.848-16.22 1.987-7.549 1.171-11.55-.028-20.924 3.632-.948 18.025-22.151 18.025-22.151 1.6-3.07 1.571-2.125 2.305-7.132-3.019-.756-3.321-.1-1.578-2.683 3.449-.75 2.869-.5 6.755-3.249l-2.966-2.589c-2.894-3.754-5.629-3.307-8.8-6.376 14.452-5.334 23.113-15.433 28.756-28.462l-5.838-3.788c9.284-.805 11.521-2.693 16.286-6.688q-1.862-6.848-3.722-13.7l-2.872-1.2 14.076 1.833c9.9-4.27 20.154-18.174 26.167-25.495l-.283-4.166-18.808-9.882c10.822-3.38 9.388-11.821 16.919-17.891q-2.952 7.874-5.9 15.747l2.872 1.2c17.321 2.378 25.987-7.784 41.47-5.61l-7.51-7.86c-11.246 3.293-14.156 2.213-23.324 5.771 1.274-4.041 1.064-2.1 1.011-5.649l2.589-2.966 13.886-.944-.378-5.555-12.984-6.099c-6.119 1.855-5.911 2.705-9.343 6.216l-.472-6.944 9.437-4.826c11.667.369 19.711 2.659 25.751 9.409l-12.687-1.928 4.544 5.272 24.079 5.338-4.922-10.826 1.3-1.483 4.26 1.105 10.57 11.837-.189-2.777 5.366-3.155c-9.731-3-8.79-8.949-21.585-9.693-1.6 4.75-1.57 2.841-.822 8.426l-2.872-1.2c-10.358-16.08-20.584-5.75-41.4-13.925l15.086-3.816-.094-1.388zm79.247-3.994l4.165-.283zm-65.077 7.216l-2.683 1.577 3.155 5.366 8.426.822-3.249-6.754zm-24.874 24.012l1.578 2.683zm1193.463-30.933q4.44 3.884 8.9 7.766-.465 3.517-.92 7.037l-2.97-2.588c-3.52-2.822-4.1-6.22-5.01-12.215zM344.046 536.927l1.86 6.849 17.769-5.394-1.766-5.46zm-23.418 4.383l2.966 2.588-4.072 1.672 1.106-4.26zm1255.422-83.973c6.9 2.181 18.5 7.97 25.94 12.186-.86.989-1.73 1.978-2.59 2.966-2.42 5.512-1.8 4.993-9.34 6.216.12 1.851.25 3.7.38 5.555l4.26 1.105 13.98.444 1.92-12.686c.73 12.422 2.62 9.427 8.17 17.58-8.8-.309-14.68 2.746-20.73 2.805.52.894 1.05 1.788 1.58 2.683 29.62.587 38.21 23.146 50.42 44-6.29-2.61-41.12-28.553-45.6-34.566l11.49 4.8c-17.37-19.381-32.84-22.392-39.88-53.088zm-1259.3 88.422l2.777-.189zm19.724 2.844l.567 8.331 3.977-3.06c.162-3.311-.427-1.711 1.011-5.649zM1590.78 468.89l2.97 2.588zm4.27 1.105l.18 2.778zm25.56 6.633c2.91 3.471 2.48 4.639 3.53 10.92-.96-.4-1.91-.8-2.87-1.2zm3.53 10.92l7.04.916 15.96 29.606q-4.4-3.187-8.8-6.377c-3.34-7.351-14.27-20.633-14.2-24.145zm-15.97 31.777c22.6 10.218 35.61 25.625 55.6 38.071l-1.74 15.464c18.51-.728 31.7 18.041 34.39 33.933-2.65 5.268-5.58 6.71-4.8 11.487-2.82-1.925-2.62-2.32-4.54-5.272 4.43-3.349 4.05-1.786 4.99-8.709-8.53-3.1-9.8-9.313-16.32-14.237.1 1.389.19 2.778.29 4.166 3.74 10.908 6.08 26.763 16.05 31l2.4-5.744q2.235 1.941 4.45 3.883-2.535 3.66-5.08 7.321c7.45 8.586 15.3 17.037 22.72 26.356 1.29-1.483 2.59-2.966 3.88-4.449q-9.87-11.883-19.75-23.768c9.04 3.8 16.35 13.44 22.34 20.8l-3.6 8.615-1.39.094c-15.03-5.185-25.87-24.934-39.95-33.555q15.165 17.8 30.33 35.605c7.8 14.747 46.16 127.936 43.97 133.726q-3.765-3.93-7.51-7.86l-4.17.283c.09 1.389.19 2.778.28 4.166l10.86 16c-9.48 6.394 2.21 21.947 4.76 28.972-.9.526-1.79 1.052-2.69 1.578-4.08-1.536-.98-2.037-5.65-1.011.04.463.07.926.1 1.389 11.06 14.858 9.87 33.786 12.01 53.59l-1.38.094c-1.82-4.969-1.41-4.007-4.64-6.66-.9.526-1.79 1.052-2.69 1.578 2.26 27.75 12.12 47.942 7.22 65.077-.06-.926-.13-1.852-.19-2.777l-9.18-11.932q-3.975 3.061-7.96 6.121c3.68 8.539 10.69 12.167 15.02 15.72.86 53.58-33.04 122.58-15.71 158.71-1.88-.34-3.77-.67-5.65-1.01q4.26 31.785 8.51 63.59 7.8 12.03 15.59 24.05c-1.39.1-2.78.19-4.17.29-1.45-.83-2.9-1.67-4.35-2.5q-4.785-8.73-9.56-17.48c-.4.95-.8 1.91-1.2 2.87-.83 1.45-1.67 2.9-2.5 4.35 3.67 12.75 12.35 28.64 9.87 42.58l-4.26-1.11c-5.17-7.91-9.78-16.44-21.77-12.47.35 15.75-.44 18.7 3.28 27.68-3.55-.66-8.61-2.13-12.41 2.24-5.84 13.94 9.63 23.61 5.99 47.03q-3.285 33.69-6.58 67.41c-2.85 6.1-8.12 5.84-10.16 14.64q-4.77 1.71-9.53 3.44c-14.97-158.33-41.38-273.53-24.45-421.044 1.31-11.427-5.78-18.822-7.16-23.229q1.89-13.38 3.76-26.762-6.285-30.959-12.58-61.922 2.235 1.941 4.45 3.883c-4.66-8.805-6.32-1.928-9.18-11.932 5.45-4.217 1.18-3.313 2.12-9.909 1.94 1.263 3.89 2.526 5.83 3.788-10.08-25.913 5.14-32.889-2.38-55.64-2.19-6.613-11.33-35.456-10.98-38.315 3.02-24.693 10.98-18.818-1.82-47.308 5.65 1.588 6.75 2.565 11.11-.755l2.77-.189c-10.17-15.253-6.65-42.2-12.48-60.533.52.894 1.05 1.788 1.58 2.682 7.73 3.569 5.36 6.911 10.57 11.837l1.38-.094-.09-1.389c-3.98-9-10.03-12.1-13.82-18.591-4.96-8.5-1.62-23.088-4.85-30.361-4.66-10.476-16.45-36.4-21.64-51.541q4.995 1.752 10 3.5c-3.26-9.971-11.49-15.183-16.98-23.957zm38.97-1.255l11.3 2.022q3.15 5.365 6.31 10.731zm.76 11.109c12.62 7.438 26.36 23.275 34.48 35.322-14.41-3.674-27.93-22.601-34.48-35.322zm16.85 1.644zm-45.73 4.5c3.32 1.9 1.86 2.421 5.65 1.011q-2.835-.5-5.65-1.006zm48.79-.528l2.78-.188zm-41.54 25.146q2.235 1.941 4.45 3.882-2.22-1.936-4.45-3.877zm40.75 4.2l4.16-.284c-.34 1.883-.67 3.766-1.01 5.649l-1.39.1-1.76-5.455zm-47.12 4.6c.98.862 1.97 1.725 2.96 2.588-.99-.854-1.98-1.717-2.96-2.579zm78.14.266c7 1.253 7.95 3.041 11.67 7.577zM277.558 667l.188 2.778-.188-2.778zm1372.062-91.9l2.97 2.588zm34.81-.972l4.17-.284zm-30.36 4.854l2.88 1.2zm34.72-2.36l2.97 2.588zm22.52 84.962c11.99 2.826 22.44 17.549 25.78 30.333-12.95-3.443-22.44-15.999-25.78-30.334zM244.019 789.259q-2.3 7.131-4.61 14.264l1.388-.1-.188-2.777 7.765-8.9-2.966-2.589zm1493.161-95.954q3.57 1.152 7.13 2.305c.03.463.07.926.1 1.389-5.5-1.028-4.21-.256-7.23-3.694zm-7.95 6.121l2.77-.189zm.19 2.777l4.35 2.494zm-55.71 21.924c14.91 17.384 36.21 31.9 55.98 43.625-7.26-16.137-40.96-35.276-55.98-43.625zM335.158 816.543l1.672 4.071-1.389.095-.283-4.166zm1395.422-76.752l-1.2 2.872 2.58-2.967zm-45.36 10.059l27.9 20.424c-5.68-7.091-18.02-18.664-25.03-19.224-.95-.4-1.91-.8-2.87-1.2zm44.44-3.022c3.52 7.474 3.57 15.472 5.77 23.324 6.82-1.924 4.68.167 6.57-6.027q-6.18-8.647-12.34-17.297zm14.67 31.089l-1.11 4.261c.87-.989 1.73-1.978 2.59-2.967-.49-.431-.99-.862-1.48-1.294zM236.554 884.63l-2.683 1.578 1.577 2.683c1.702-3.109 2.479-.921 1.106-4.261zm605.584 63.45l24.173 6.727 8.965-11.77 1.389-.1c3.907 28.6-17.8 31.506-20.113 52.985l-1.389.094-1.955-8.237c-12.6 1.377-10.363 2.067-18.43-4.327l.472 6.943-5.554.378q-3.156-5.365-6.31-10.731l-9.249 7.6q-3.06-3.978-6.121-7.954c1.93 8.021-.022 3.116-.539 12.592l6.849-1.861c2.519 22.042 41.518 25.662 33.033 54.952 4.034-2.99 1.419-.56 2.494-4.36l4.26 1.11c-2.491 8.76 5.391 18.4 12.148 14.52q-3.6 8.61-7.2 17.23c6.643 7.93 12.633 15.2 11.043 18.78-5.251 17.31-20.876-2.35-24.362-9.5-.925 11.16-17.249 23.16-19.413 22.24-13.693-1.51-33.49-23.87-42.915-36.14l-2.522-16.57q5.238 5.22 10.476 10.45c-3.852-6.7-5.048-16.86-7.16-23.23q4.544 5.265 9.088 10.54c1.294-1.48 2.588-2.97 3.882-4.45-10.284-12.69-18.266-41.44-39.409-46.146l-6.66 4.636-2.239-12.4c-.809.391-32.2 3.937-36.2 1.066-5.352-3.4-4.8-6.82-11.77-8.965l-2.494 4.355c-25.087-15.846-70.134-21.314-95.588-31.167l-1.2 2.872c4.541 2.214 10.21 3.776 14.642 10.165l-1.388.094c-26.315-11.886-67.994-16.345-102.693-12.548L525.623 971c-29.581-.083-42.77-5.581-69.337 6.11l2.777-.189 16.314 14.236c-31.887-5.755-45.667 9.785-66.466 7.31-.209 7.345.561 2.625-2.21 8.525.462-.04.925-.07 1.388-.1 7.735-2.48 21.269-2.24 33.516.51-.4.96-.8 1.92-1.2 2.87-8.333 1.29-20.166 4.12-18.78 11.05l-2.494 4.35c-16.058.77-14.147.4-27.489 6.06-.526-.9-1.052-1.79-1.577-2.69L402 1019.86c-9-1.71-1.687-3.39-7.51-7.86q3.377-1.62 6.754-3.25l-.094-1.39c-3.944-4.63-3.257-5.97-10.287-7.667 5.026-11.563 11.876-15.808 17.647-27.706-2.7-10.69-9.485-22.086-9.115-31.467 9.978-4.263 12.11-13.664 19.6-19.469l3.06 3.978 32.1-20.319 7.038.916c5.587-8.023 9.648-14.207 18.213-19.374C495.9 876.3 642.3 866.41 661.221 872.494c3.427-3.666 3.464-.883 2.494-4.355l2.683-1.577-11.487-4.8c26.172-1.73 39.888 12.562 62.516 16.675l-3.155-5.366-11.487-4.8 2.494-4.354 5.555-.378c8.923 6.7 15.535 10.008 27.328 12.092q-1.1 4.26-2.21 8.521l4.166-.283-.378-5.555c14.806 3.06 20.221 16.648 30.955 24.4q-9.7-19.566-19.4-39.137l5.838 3.788c8.851 14.923 24.762 24.114 35.055 43.653l1.388-.094q-5.944-15.638-11.892-31.278l8.049-4.732 3.06 3.977q.9 13.189 1.794 26.384c2.7-3.242 2.254-10.816 3.128-15.558l1.388-.1c11.265 8.43 12.506 26.118 23.285 34.688l13.858-21.868 4.45 3.883 15.425 42.2-7.321-5.082c-3.137-8.865-6.285-3.609-9.088-10.542-3.07 3.985-5.033 13.923-4.138 21.207 7.023-1.845 2.222-3.055 7.132 2.305l-.568-8.328zm-186.944-82.152l2.777-.189zm-178.662 19.125l2.778-.189zm154.422-6.316c4.527 4.063 9.075 5.556 17.136 5.81l-3.061-3.977zM342.59 905.321l1.577 2.679zm918.64-51.307q4.455 3.882 8.9 7.765-3.18 4.4-6.37 8.8 13.41-7.885 26.82-15.775l2.97 2.589c-4.49 4.355-3.57 3.331-.82 8.426l72.3-3.521q-6.84 1.86-13.7 3.721c.04.463.07.926.1 1.389 55.12.736 89.2-.144 142.77 7.032-.72 5.085-1.8 1.96 3.25 6.754q-5.64-1.011-11.3-2.022l24.18 6.727-3.06-3.977q15.135 7.339 30.29 14.681c-5.5.546-2.96-1.049-6.85 1.86 6.63 7.263 15.3 28.574 26.16 35.888-5.12-10.183-6.51-10.824-5.77-23.323l1.39-.1c2.12 9.312 13.32 21.295 19.56 20.991-4.53 10.282-3.76 7.943 3.91 16.475 5.45 2.371 6.62 4.946 9.09 10.542-6.31-1.827-13.61-1.39-22.5-2.655 11.13 14.812 25.04 21.15 39.57 28 4.73 22.309 11.32 40.949 9.99 64.889l-1.39.09c-.68-7.22-7.62-45.9-10.44-50.9-3.24-5.761-48.7-36.135-56.99-37.977.03.463.07.926.1 1.389 21.83 6.076 58.94 62.662 60.48 89.352-.46.04-.92.07-1.39.1-6.12-14.77-27.21-15.56-37.99-25.32 17 2.29 23.04 7.41 34.46 14.4l-4.92-10.83c-.83 1.45-1.66 2.91-2.5 4.36-16.43-38.612-38.87-21.78-69.58-38.518 16.05-1.621 30.12-5.514 43.24-.15-10.07-15.251-46.17-12.23-60.21-23.807 2.45-3.86 2.89-3.607 3.5-10q-2.22-1.941-4.45-3.882c-7.1 1.424-46.72.266-48.88-.861q5.37-3.155 10.73-6.31l-1.77-5.46c-11.85 2.776-20.99 5.871-32.57 13.375l-4.35-2.494 9.06-10.381c-7.67 1.673-68.13 10.183-73.41 7.782-.03-.463-.07-.926-.1-1.389l23.04-9.937c-18.66 2.326-47.92 12.138-59.87 22.207-9.82-5.5-117.01 3.68-123.59 8.4-.3 2.345-.61 4.692-.91 7.037-8.8-4.329-16.88-.582-26.95-6.537-.04-.463-.07-.926-.1-1.389l11.02-2.144c-.04-.463-.07-.926-.1-1.389-4.7-6.105-3.59-10.466-13.35-11.648l-12.12 6.4q-4.395-3.189-8.8-6.377c3.57-.836.85 1.3 4.07-1.672-4.61-2.216-4.87-3.6-7.51-7.859l11.11-.756-2.78.189-3.06-3.977-10.92 3.533c.03.463.07.925.1 1.388l6.21 9.343-4.8 11.487-11.58-6.188c.06.926.13 1.852.19 2.777-.86.989-1.73 1.978-2.59 2.967 3.66.344.67-1.407 4.26 1.105-10.33 2.526-7.75 6.34-14.61 10.759l-4.26-1.105c-.53-.895-1.05-1.789-1.58-2.683 3.35-16.661 1.6-22.748 4.02-43.52.95.4 1.91.8 2.87 1.2l3.15 5.365c-.06-.925-.12-1.851-.19-2.777 4.64-2.766 8.14-20.771 13.49-27.423q4.395 3.189 8.8 6.377l-.57-8.332c.96.4 1.92.8 2.87 1.2q4.695 7.353 9.37 14.708c15.48-7.594 37.2-48.97 52.88-63.582l-10.71 27.233c4.36-1.08 58.49-29.225 61.99-32.105zM1735.7 835.7l2.97 2.589zm-916.214 66.489c4.631 5.077 3.548 9.652-.444 13.98l.444-13.98zm522.124-35.5l6.95-.472zm395.76-26.911q2.235 1.941 4.45 3.882-2.22-1.946-4.45-3.887zm-935.747 66.42l2.994 23.513 5.554-.378-.472-6.943c-2.328-6.944-3.234-12.314-8.076-16.197zm938.907-61.055q4.725 8.048 9.46 16.1-4.725-8.055-9.46-16.105zM416.715 949.107l-11.931 9.182 1.578 2.683 1.388-.094c3.878-1.999 13.55-10.519 8.965-11.771zM1494.3 875.833l7.03.916c.04.463.07.926.1 1.389q-3.57-1.153-7.13-2.305zm-21.84 7.065c3.94 5.273 13.18 9.94 20 7.01l-4.16.283zm31.93-2.172l2.78-.189zm-663.574 47.913l4.449 3.883zm415.394-25.456q-10.74 6.309-21.47 12.62c.04.463.07.926.1 1.389q12.075-7.1 24.14-14.2zm467.33-20.618c4.99 11.183 16.08 24.375 27.08 28.85-3.38-10.715-18.54-23.35-27.08-28.85zM1111.25 925.6c.53.894 1.05 1.788 1.58 2.682-.53-.898-1.05-1.792-1.58-2.682zm-1.2 2.871q1.68 14.532 3.37 29.067c-2.8-.973-6.4 1.8-4.35-2.494-1.5 1.767-5.24 13.766-.83 8.426-3.34 3.311-.69 1.719-5.46 1.767-.55-1.357-1.11-2.715-1.67-4.072l8.94-32.698zm5.65 1.011c.52.894 1.05 1.789 1.58 2.683l-2.78.189zm-257.721 25.9l2.966 2.589zm690.431-42.764c.53.894 1.06 1.789 1.58 2.683-.52-.901-1.05-1.801-1.58-2.692zm-709.022 56.575c.257 5.766-.084 9.216 5.11 13.6-1.698-5.009-.388-9.067-5.11-13.6zM403.734 1004.4q-.552 2.13-1.1 4.26c1.696-3.11 2.474-.92 1.1-4.26zm397.433-22.843c2.2 5.19.195 2.889 4.544 5.272zm756.9-50.073c.06.925.12 1.851.19 2.777-.067-.926-.127-1.852-.187-2.777zM406.984 1011.15c1.815 4.97 1.407 4.01 4.638 6.66zm740.146-50.328c.55 1.357 1.11 2.715 1.67 4.072l-1.39.094c-.49-.431-.99-.863-1.48-1.294zm-731.437 55.318c-.4.96-.8 1.91-1.2 2.87 1.389-.09 2.778-.19 4.166-.28-.988-.86-1.977-1.73-2.966-2.59zm340.216-23.135l-1.2 2.872 2.589-2.966zm430.571-27.883c.06.925.13 1.851.19 2.777 2.93 2.971.14-.007.28 4.166 3.28-1.66 4.62-1.95 6.66-4.638q-3.555-1.153-7.13-2.305zm-445.657 31.7l2.777-.189zM1164.55 970.8c.98.863 1.97 1.726 2.96 2.589-.99-.865-1.98-1.728-2.96-2.589zm-55.46 5.166l2.78-.189c-.86.989-1.72 1.978-2.59 2.966-.06-.927-.12-1.853-.19-2.779zm199.97-13.6l5.55-.378c.03.463.07.926.1 1.389q-2.835-.504-5.65-1.01zm199.96-13.6l4.26 1.106zm-688.573 49.616L826 998l.189 2.776c-5.154-.916-2.834.254-5.742-2.394zm390.2-26.534q2.235 1.941 4.45 3.883c-.86.989-1.72 1.977-2.59 2.966l-2.77.189c-.53-.894-1.05-1.789-1.58-2.683zm376.32-25.589q4.425 13.648 8.84 27.3l-1.39.1c-.07-.926-.13-1.852-.19-2.778q-4.875-10.129-9.75-20.263zm-781.7 54.551c-2.252 1.08-4.5 2.17-6.755 3.25.032.46.063.92.1 1.39q7.637-.525 15.275-1.04l-.189-2.78c-2.814-.27-5.623-.55-8.431-.82zm956.773-65.06c4.38 2.4 2.26.13 4.54 5.271-1.51-1.757-3.03-3.515-4.54-5.271zm-1517.688 104.6c.557 1.35 1.115 2.71 1.672 4.07l-1.388.09-.284-4.16zm1281.808-85.771l-1.2 2.872q7.08 1.611 14.17 3.222-6.495-3.046-12.97-6.094zm-695.52 50.081l2.777-.18c-.863.98-1.726 1.97-2.588 2.96-.063-.92-.129-1.85-.189-2.78zm8.615 3.6zm-4.044 22.6l2.872 1.2zm8.615 3.6c-.4.96-.8 1.91-1.2 2.87l2.588-2.97c-.462.04-.925.07-1.388.1zm-585.91 41.24c-4.71 13.71-2.678 32.61-5.215 46.39 1.388-.1 2.777-.19 4.166-.29.393-10.84 5.333-11.75 7.2-17.23 3.1-9.08-2.18-14.97-1.794-26.38zm530.459-36.08c.526.9 1.052 1.79 1.578 2.69-.526-.9-1.053-1.79-1.578-2.69zm4.544 5.28zm37.493-2.55q3.849 5.31 7.7 10.63c-1.78-7.18-2.469-7.69-7.7-10.63zm749.958-49.6l7.04.916c.71 7.369 3.41 11.1 9.46 16.1-12.02-1.04-12.69-5.09-11.96-11.744l-4.35-2.494 4.26 1.1c-1.48-1.295-2.97-2.589-4.45-3.883zm-935.846 65.03c82.2-7.19 121.412 2.63 158.2 49.23 6.935 8.78 16.663 15.11 18.741 29.41l-2.589 2.97c-15.484 4.41-38.263 11.39-50.624 14.6q2.825.51 5.649 1.01c-7.592 11.62-26.08 27.94-34.943 40.05l-4.261-1.11c-6.318-7.36-12.27-11.22-15.492-22.66.463-.03.926-.06 1.389-.1 2.819 4.27 4.23 4.34 8.8 6.38-.419-10.32 5.576-13.5 11.081-21.68-.525-.89-1.051-1.79-1.577-2.68-4.224-7.55-11.673-10.35-19.091-14.05q-1.246 2.175-2.494 4.36c3.653.34.666-1.41 4.26 1.1-58.5 6.61-104.989 40.66-138.258-22.68-13.641 1.74-20.159 5.28-33.866 14.85q.93 3.435 1.861 6.85 19.311 7.065 38.626 14.12c.032.46.063.92.1 1.39-21.743.72-47.218-14.32-71.482-4.91-9.637 3.74-14.877 13.58-26.734 17.16-1.02-1.32-2.04-2.65-3.06-3.97 5.814-22.17 13.494-36.32 21.407-54.47-.032-.46-.063-.93-.1-1.39q-5.507 1.08-11.014 2.15c.8-1.92 1.6-3.83 2.4-5.75 23.974-10.66 46.091-26.75 74.3-35.74q34.381-7.23 68.771-14.44zm920.756-61.219q2.19 1.247 4.36 2.494-2.175-1.248-4.36-2.494zm-719.215 50.3l-6.566 6.03q2.919 1.89 5.838 3.79l5.46-1.77q-2.365-4.021-4.732-8.051zm750.8-37.1c.53.89 1.05 1.79 1.58 2.68-.525-.891-1.045-1.791-1.575-2.681zm147.95 1.1q-.495 2.82-1.01 5.65c1.52 1.75 3.03 3.51 4.55 5.27zm-514.8 40.58c113.75-8.02 236.36 9.13 277.14 95.55q-6.12 2.52-12.22 5.02c2.27 11.83 8.12 14.12 12.72 22.85q-7.455 3.3-14.9 6.59c-7.72-7.18-28.8-28.89-41.34-33.46-26.86-9.77-58.61 10.61-74.07-1.93 15.84-1.98 32.33-7.57 43.49-16.91.28-2.81.55-5.62.83-8.43-6.51-6.4-21.51-16.38-27.71-17.65-25.95 98.27-128.04 5.26-182.14 50.06-31.81-3.62-40.56-19.23-70.38-9.17-.52-.89-1.05-1.79-1.57-2.68 11.735-47.341 54.085-63.191 90.155-89.841zm-513.232 43.27c-4.467 19.84-7.979 42.71-24.373 51.88l.094 1.39c18.906-4.03 56.832-23.34 35.955-45.69-3.607-4.311-5.214-6.141-11.671-7.581zm422.242-27.31q1.77 5.46 3.53 10.92 6.54 3.735 13.07 7.48-1.26 2.175-2.5 4.35c-10.88 8.26-24.8 12.9-37.75 19.31-1.48-1.29-2.96-2.59-4.45-3.88-2.51 8.66-9.83 9.59-17.1 15.11q-2.19-1.245-4.36-2.49c-2.51-5.92-2.32-6.27-8.9-7.77 1.29-7.58 5.5-9.5 6.1-12.97 5.12 1.59 6.68 3.59 11.29 2.03-.95-.4-1.91-.8-2.87-1.2q-3.84-5.325-7.7-10.64 5.01 1.755 10.01 3.5-1.635-3.375-3.25-6.75c.43-.49.86-.99 1.29-1.48 1.39-.1 2.78-.19 4.17-.29 3.46 4.85 7.13 8.22 10.38 9.06q.36-4.9.73-9.81.975 4.11 1.95 8.24c1.5-4.3.66-3.18 3.79-5.84.69 2.45 3.71 3.66 7.42 6.47.11-7.35 2.95-15.89 7.01-20.01 2.715-1.111 5.425-2.231 8.145-3.341zm-56.56 9.42c1.45.83 2.91 1.67 4.36 2.5-.87.99-1.73 1.98-2.59 2.96zm37.68.23c1.92.8 3.83 1.6 5.75 2.4-.87.99-1.73 1.98-2.59 2.97q-1.57-2.686-3.155-5.371zm-866.316 61.7c2.808.27 5.618.55 8.426.82-.926.07-1.852.13-2.777.19l-3.694 7.23-1.389.09q-.277-4.156-.561-8.331zm831.8-56.56a685.189 685.189 0 0 1 .001-.001zm30.64-.69c.93-.06 1.85-.13 2.78-.19-.86.99-1.73 1.98-2.59 2.97-.059-.931-.129-1.851-.189-2.781zm23.61-1.6c.96.4 1.91.79 2.87 1.19-.959-.401-1.909-.791-2.869-1.191zm455.56-29.59c.93-.06 1.86-.12 2.78-.19-.919.069-1.849.129-2.779.189zM264.4 1150.59q3.471-.24 6.943-.47.237 3.465.472 6.94c-8.299-4.26-8.007-2.16-7.415-6.47zm-9.626 2.05c1.389-.1 2.778-.19 4.166-.29-1.384.1-2.773.19-4.162.29zm998.622-65.12l-21.66 9.84q-3.54 9.315-7.1 18.62c11.68 10.82 24.92 15.33 40.3 18.19-7.066-12.65-7.526-45-11.536-46.65zm49.99-3.4c-6.83 5.29-19.41 2.3-21.28 15.4 1.39-.1 2.78-.19 4.17-.28 8.02-6.63 14.45-5.33 20.07-12.53-.986-.86-1.966-1.73-2.956-2.59zm-181.82 13.76c.53.89 1.05 1.79 1.58 2.68.4-.95.8-1.91 1.2-2.87-.926.06-1.846.13-2.776.19zm-864.459 68.55l7.226 3.69c.032.47.063.93.1 1.39-6.675-1.19-4.433.12-7.322-5.08zm8.615 3.6c1.389-.1 2.777-.19 4.166-.29-1.388.1-2.773.19-4.162.29zm821.344-46.09c2.35.31 4.69.61 7.04.92q4.77 8.745 9.56 17.48c-5.51.55-2.96-1.04-6.85 1.87.96.4 1.91.8 2.87 1.2 9.73-1.18 13.08 6.13 19.19 15.43q-1.26 2.175-2.5 4.36c-.99-.87-1.98-1.73-2.96-2.59-16.116-5.12-27.166-22.34-26.346-38.67zm-598.218 44.87c.526.89 1.052 1.78 1.578 2.68-.526-.9-1.048-1.79-1.574-2.68zm972.138-64.71c9.56 12.06 22.98 34.93 37.46 37.91-3.816-5.43-21.486-33.58-37.456-37.91zm-125.89 15.53c-1.73 1.98-3.45 3.96-5.18 5.93.53.9 1.05 1.79 1.58 2.69q6.2-1.125 12.4-2.24c.34-1.88.68-3.77 1.01-5.65-.92.06-1.85.13-2.77.19-2.346-.31-4.696-.61-7.036-.92zM233.56 1209.88c-.168 2.06.669 1.36-1.106 4.26-.525-.89-1.051-1.79-1.577-2.68.894-.53 1.788-1.05 2.683-1.58zm-13.32 9.28c.989.86 1.977 1.72 2.966 2.59-1.388.09-2.777.19-4.166.28.4-.96.8-1.91 1.2-2.87zm44.625-.25c1.389-.09 2.778-.19 4.166-.28-1.388.09-2.777.19-4.166.28zm1464.755-82.86c-3.48 5.1-5.05 13.56-5.53 21.3l1.39-.09c5.21-3.13 7.3-3.87 9.06-10.38.93-5.49.28-6.79-2.14-11.02-.93.07-1.85.13-2.78.19zM233.171 1265.71c18.051-1.07 30.491 12.39 35.216 25.51-4.11 2.88 1.018.77-2.494 4.35-4.913 1.21-10.291 7.82-12.942 14.83 2.137.65 6.367.16 4.543 5.27-5.007-2.97-7.912-2.33-12.781-3.31q1.578 2.685 3.155 5.36c-2.346-.3-4.692-.61-7.038-.91 1.052 1.79 2.1 3.57 3.155 5.36-7.722 1.18-14.8 7.77-15.436 19.19-.557-1.36-1.114-2.72-1.671-4.07-11.575-9.26-7.9-34.09-13.215-50.72q4.987-8.715 9.976-17.42 4.761-1.725 9.532-3.44zm1499.279-88zM279.107 1346.29c4.816 4.54 7.2 23.5 2.077 30.55l-1.388.09-8.265-18.96q3.788-5.85 7.576-11.68zm1423.243-36.79c1.49 1.29 2.97 2.59 4.45 3.88-1.48-1.29-2.96-2.59-4.45-3.88zM238.314 1443.93l.472 6.94q-1.576-2.685-3.155-5.36c.895-.53 1.789-1.06 2.683-1.58zm3.911 16.47c1.02 1.33 2.04 2.65 3.06 3.98-3.006-2.31-.985.05-3.06-3.98zm615.993 93.44c24.8-1.8 93.058 46.83 97.477 58.94-3.286 2.92-1.4.91 1.671 4.07-4.293 5.84-3.653 8.45-7.67 10.28-1.53-4.72-1.631-14.89-4.1-19.25-5.327 2.67-4.056 2.73-9.72.66-.813-7.99.272-9.83-4.733-8.05-7.7 1.98-43.218 7.5-53.495 13.41l1.955 8.24c10.831 3.08 9 9.1 19 12.65l.472 6.95c-8.857 12.89-19.081 11.65-26.545 19.94-25.439-13.21-51.431-17.76-63.11-45.93.462-.03.925-.07 1.388-.1l22.6 4.05c-4.765-12.13 4.547-52.25 15.475-59.65zm224.232-5.49c20 1.09 22.14 13.87 32.44 25.7 3.84-2.08.69-2.15 5.46-1.77-2.75 13.63 7.1 32.56 6.43 33.05-4.64 6.78-10.84 12.84-17.39 10.95 1.02 1.32 2.04 2.65 3.06 3.97 4.45 1.56 4.65 1.61 7.32 5.08 18.72-.77 17.29-5.11 29.98-10.4 1.02 1.32 2.04 2.65 3.06 3.97-.36 1.42-.73 2.84-1.1 4.26-12.99 11.13-28.4 23.34-47.09 25.53-1.52-1.76-3.03-3.52-4.55-5.28 3.34-7.99 9.79-17.42 5.34-24.07-.52-.9-1.05-1.79-1.58-2.69-3.95 5.89-37.2 2.41-45.63 5.9-4.67-10.32-10.37-8.21-16.5-17.02q1.89-2.91 3.78-5.84l-4.45-3.88c-.46.03-.92.07-1.38.1q-3.105 5.79-6.19 11.58c-.99-.86-1.98-1.73-2.97-2.59 1.77-7.17.27-11.43-1.41-20.83 17.16-12.94 34.24-23.28 53.37-35.72zm-220.172 65.2c2.532 5.69-.025 3.41 5.932 5.17-2.531-5.69.025-3.41-5.932-5.17zm159.792-9.47c1.38-.1 2.77-.19 4.16-.29.13 1.86.25 3.71.38 5.56-1.91-.8-3.83-1.6-5.74-2.4.4-.96.8-1.92 1.2-2.87zm-185.987 14.04l.283 4.17q3.378-1.635 6.755-3.25-3.521-.465-7.038-.92zm22.317-.12l.188 2.77c-.067-.92-.129-1.85-.188-2.77zm-574.707 41.87c3.334 2.76 3.656 5.12 2.05 9.62-.687-3.21-1.371-6.41-2.054-9.62zm580.45-39.47c-.4.95-.8 1.91-1.2 2.87.032.46.063.92.1 1.39 1.388-.1 2.777-.19 4.166-.29-.558-1.35-1.115-2.71-1.672-4.07-.472.03-.937.07-1.398.1zm165.251-11.24c1.48 1.29 2.96 2.59 4.45 3.88-1.494-1.29-2.974-2.59-4.454-3.88zm-159.6 12.25c.881 5.9 1.693 5.92-.539 12.59l13.7-3.72q-3.708-3.24-7.416-6.47l-.189-2.78c-1.859.13-3.711.25-5.562.38zm64.727 8.15c5.01 2.21 3.812.92 6.027 6.57l-1.389.09-.189-2.78q-2.231-1.935-4.455-3.88zm-644.138 46.59c7.611 3.32 8.476 11.01 10.853 16.01-1.388.09-2.777.18-4.166.28zm597.3-37.82c-.717 5.66.076 2.31-3.694 7.22.526.9 1.052 1.79 1.578 2.69.463-.04.926-.07 1.388-.1l1.389-.09c.4-.96.8-1.92 1.2-2.87l-.472-6.95c-.467.03-.93.07-1.393.1zm37.682.22c4.5 3.19 4.979.98 1.766 5.46-.613-3.25.187-1.75-1.77-5.46zm131.919-8.97q7.08 1.62 14.17 3.23c-5.28 5.52-5.62 2.16-3.6 8.61-7.484-2.05-7.674-5.46-10.574-11.84zm-751.695 65.07c4.555 2.56 2.919.47 4.638 6.66-2.314.16-4.629.31-6.943.47l-.094-1.39c.795-1.91 1.595-3.83 2.395-5.74zm793.2-49.75c2.76 2.6 2.8 2.34 4.64 6.66-2.35-.31-4.69-.61-7.04-.92.791-1.91 1.591-3.83 2.391-5.74zm-754.191 69.42c9.949 3.98 15.135.38 26.667 2.37l-2.494 4.35-2.588 2.97c-7.43-2.58-17.35-2.78-21.594-9.69zm24.834 16.44q4.355 2.505 8.71 4.99l.094 1.39c-.462.03-.925.06-1.388.1zm4.827 9.44l2.872 1.2-3.977 3.06c-.526-.89-1.052-1.79-1.577-2.68.885-.53 1.779-1.05 2.673-1.58zm.123 22.31l9.842 21.66q-3.66-2.55-7.321-5.09-1.269-8.28-2.53-16.57zM1627.3 1682.9q3.99 7.395 7.98 14.8l-1.39.09c-1.91-.8-3.83-1.6-5.74-2.4l-1.86-6.84c.34-1.89.67-3.77 1.01-5.65zm-4.04 22.59c.52.9 1.05 1.79 1.57 2.69-.52-.9-1.05-1.79-1.57-2.69zm38.15 7.17zM385.632 1805q4.858-.33 9.72-.67c-1.757 1.52-3.514 3.03-5.271 4.55q-4.214-.42-8.426-.82zm-2.211 8.52c5.969 6.87 5.014 21.34 6.338 31.65-.463.03-.926.06-1.389.1q-2.47-15.885-4.949-31.75zm1235.979-82.65c.53.89 1.05 1.78 1.58 2.68-.53-.9-1.05-1.79-1.58-2.68zm-1.1 4.26c.55 1.35 1.11 2.71 1.67 4.07l-1.39.09c-.1-1.39-.19-2.78-.28-4.16zm-.83 8.42c.53.9 1.06 1.79 1.58 2.69-.52-.9-1.05-1.79-1.58-2.69zm-2.93 18.34c.52.89 1.05 1.79 1.57 2.68-.52-.89-1.05-1.79-1.57-2.68zM396.069 1855.9c3.532 4.98 2.357 8.34 1.038 15.28-.894.52-1.788 1.05-2.683 1.58l-1.671-4.08 3.316-12.78zm1209.241-65.48c.93-.07 1.86-.13 2.78-.19-.92.06-1.85.12-2.78.19zm2.88 1.2c.99.86 1.97 1.72 2.96 2.58q-3.375 1.635-6.75 3.25c1.26-1.94 2.52-3.89 3.79-5.83zm-1211.338 96.32c1.02 1.32 2.04 2.65 3.06 3.97-3.005-2.3-.982.05-3.06-3.97zm7.348 26c3.219 4.05 3.357 3.86.567 8.33q-.284-4.155-.567-8.33zm468.82-19.32c47.54-1.68 76.96 5.18 115.285 13.09.926-.07 1.852-.13 2.777-.19 2.6.98.539 1.46 2.778-.19 28.91-19.76 99.87-27.52 135.99-10.64 23.58 11.01 53.54 36.29 81.99 36.27 4.55-11.1 16.08-1.31 27.96.89l3.69-7.23c13.34 9.85 18.89 6.62 32.6 7.55q-1.275 11.955-2.56 23.89-16.02.39-32.03.79c-10.02 3.76-18.66 11.47-31.09 14.67-12.35 3.17-21.05-1.66-36.2 1.06-.81-6.34 2.12-3.19-3.25-6.75-2.33-.87-46.73-6.27-56.02-3.17-5.55 1.85-15.34 14.86-24.24 12.81-43.37-9.97-95.836-.64-139.144 5.28-11.241-22.23-48.857 1.63-65.927-5.29-9.152-3.7-18.149-10.76-31.494-11.8q-7.306 5.37-14.614 10.75-2.224-1.935-4.449-3.88c-6.447-2.69-39.534 12.22-44.692 19.78q-24.03-4.635-48.064-9.29-10.965 2.85-21.934 5.68l-3.25-6.75 4.516-15.66c15.239.07 41.234-15.44 45.42-29.59 1.945 1.26 3.892 2.53 5.837 3.79 28.995-21.9 70.871-26.02 100.115-45.87zm-462.038 37c1.514 3.18 0 6.03-2.21 8.52l-1.767-5.46zm6.594 14.89c1.936 20.22 15.024 22.09 11.259 42.49q-4.166.27-8.332.56l-.283-4.16c6.4-2.44 5.6-1.43 6.376-8.81-8.729-7.78-13.029-14.55-15.964-29.6zm502.875-31.4c.988.86 1.977 1.73 2.966 2.59-.989-.86-1.978-1.73-2.966-2.59zm-14.992 5.2l-6.565 6.03c.988.86 1.977 1.73 2.966 2.59 4.376 4.94 7.66 3.4 13.98.44l-.094-1.39q-5.146-3.825-10.287-7.67zm-1.2 2.88c.926-.07 1.852-.13 2.778-.19-.926.06-1.852.12-2.778.19zm298.961 6.17c4.32 1.47 1.66-.14 4.36 2.5l-1.39.09c-.99-.86-1.98-1.72-2.97-2.59zm-778.268 64.08l7.132 2.31 13.564 35.35c.463-.03.926-.06 1.389-.1-1.767-9.28-3.252-6.91.444-13.98l2.872 1.2.094 1.39a34.654 34.654 0 0 0-.066 19.54q8.756 5.685 17.513 11.36c-.438 5.32 15.357 37.34 5.988 47.03l.189 2.77q-2.414-4.71-4.827-9.43c4.041 1.27 2.1 1.06 5.649 1.01l-.094-1.39q-7.462-7.17-14.926-14.33c2.509-4.2 2.933-3.07 3.5-10.01-7.767 1.16-5.128 2.72-9.72.67l9.154-9c-6.256-9.02-12.491-5.14-18.808-9.88-8.193-9.97-20.746-40.98-19.047-54.51zm15.37.35c1.388-.09 2.777-.18 4.166-.28l-1.928 12.69c-1.946-1.26-3.892-2.53-5.838-3.79-.526-.89-1.052-1.79-1.577-2.68.831-1.45 1.662-2.91 2.494-4.36.894-.52 1.788-1.05 2.683-1.58zm15.141 38.04c.926-.07 1.852-.13 2.777-.19-.925.06-1.851.12-2.777.19zm38.643 96.42q4.907.36 9.815.73l.283 4.16-8.332.57c-1.728-5.49-7.656-4.62-11.864-10.36l5.082-7.32-8.331.57c1.357-.56 2.714-1.11 4.071-1.67l1.105-4.26q-2.6-7.5-5.2-14.99c.431-.5.863-.99 1.294-1.49q4.4 3.2 8.8 6.38c.557 1.36 1.115 2.71 1.672 4.07-3.027 9.73.849 12.36 1.605 23.61zm480.535-52.21c11.332 3.84 10.368 7.4 19.091 14.05 17.008-14.28 66.018-4.82 70.568 11.94 1.39-.09 2.77-.19 4.16-.28-1.93 8.36-4.33 5.55-3.5 10 15.01-6.73 12.75-2.15 30.55-2.08l.09 1.39c-8.9 2.39-9.05 5.02-16.57 2.52 2.49 6.26 2.93 4.73 7.51 7.86 6.89-3.39 14.73-8.19 16.86 1.65 4.23-3.45-.13-3.64 9.43-4.83.03.46.07.93.1 1.39-.93.06-1.85.13-2.78.19-5.13 6.75-.7 1.81-11.93 9.18q.285 4.17.56 8.33c3.75-2.16 4.83-3.47 9.63-2.05-.92.07-1.85.13-2.78.19-16.49 13.43-32.46 18.72-43.93 30.89 6.5 2.8 3.92 3.36 6.12 7.95-8.47 7.98-5.78 4.89-16.57 2.53-.4.95-.8 1.91-1.2 2.87 2.52 8.11-1.01 5.9-.26 16.76-31.04-7.29-39.56 15.45-71.733 11.85-2.928-5.5-2.2-6.14-8.9-7.77-9.971 26.06-60.038-64.63-60.011-82.41q1.8-4.3 3.6-8.61c27.43 1.88 23.078-12.46 40.149-25.05 6.931-5.12 15.043-1.94 21.746-8.46zm-484.512 55.27c1.389-.1 2.778-.19 4.166-.28-1.388.09-2.777.18-4.166.28zm1034.531-70.35c1.85-.12 3.71-.25 5.56-.38.55 1.36 1.11 2.72 1.67 4.07-1.36.56-2.72 1.12-4.07 1.68-1.05-1.79-2.11-3.58-3.16-5.37zM491.9 2136.77c11.507 4.41 24.1 40.98 27.384 53.94l-1.388.09-.189-2.77c-10.627-11.96-21.817-33.21-25.807-51.26zm427.983-24.92a56.848 56.848 0 0 1-8.776 14.55c7.663-3.19 14.467-3.46 10.165-14.64zm-22.19 22.44l13.348 11.64c-9.841-1.39-11.108-5.05-13.353-11.64zm621-38.05c.53.9 1.05 1.79 1.58 2.69-.533-.9-1.053-1.79-1.583-2.69zm-1005.185 71.15c.526.89 1.052 1.78 1.578 2.68-.526-.9-1.052-1.79-1.578-2.68zm1003.982-68.27c.53.89 1.05 1.78 1.58 2.68-.53-.9-1.05-1.79-1.58-2.68zm-1002.4 70.95c6.591 4.13 11.164 11.47 12.619 21.46-.462.03-.925.06-1.388.1l-.189-2.78-11.046-18.78zm1001.2-68.08q-1.695 5.685-3.41 11.39 1.71-5.7 3.41-11.39zm-13.03 13.44c5.91.03 5.49-.46 8.52 2.21-2.84-.74-5.68-1.47-8.52-2.21zm-570.545 41.59l.189 2.77-.189-2.77zm-402.043 37.1l10.381 9.06q-1.894 2.91-3.788 5.84l-1.389.09q-2.602-7.5-5.204-14.99zm450.106-27.82c5.1 12.58 10.132 16.87 21.042 22.29.47-.03.93-.07 1.39-.1-3.384-13.36-12.969-16.72-22.432-22.19zM525.5 2200.05c12.706 10.47 22.473 20.39 36.887 29.58 1.205-5.69 1.547-5.44 4.988-8.71l10.1 4.89-6.188 11.58q1.625 3.39 3.249 6.76 6.99.225 13.981.44l1.133 16.67 13.7-3.72 1.483 1.29c-2.05 4.3-2.1 3.5-2.305 7.13l2.871 1.2c7.164-4.14 10.3-2.31 13.7-3.72q-1.059 4.95-2.116 9.91c7.4 11.62 18.745 10.52 24.928 17.84 5.533 6.54 2.654 11.93 8.171 17.58-1.338-7.02.085-9.67 1.644-16.86 11.559 3.66 9.268 7.17 19.469 19.6 8.534-.78 9.838-1.18 12.875 4.71-1.883-.34-3.766-.67-5.649-1.01 5.935 6.69 16.119 13.09 19.658 22.38 2.725 7.15-.411 13.32 2.71 19.34q3.519.465 7.038.92 1.058-4.95 2.116-9.91l1.389-.09c4.954 4.34 9.049 7.87 12.148 14.52 1.851-.13 3.7-.26 5.554-.38.551-5.35 1-6.82 3.5-10 4.09 1.41 9.631-.53 16.569-2.53q-1.893 2.925-3.788 5.84c-3.208.68-6.418 1.37-9.626 2.05.526.9 1.052 1.79 1.578 2.68 1.851-.12 3.7-.25 5.554-.37.095 1.38.189 2.77.283 4.16q-2.587 2.97-5.176 5.93 4.166-.27 8.331-.56c-.784 6.33-.956 4.87-3.6 8.61q2.825.51 5.649 1.01l-6.849 1.86c.526.9 1.052 1.79 1.578 2.69l19.441-1.32c-.032-.47-.063-.93-.1-1.39l-5.3-16.38c6.115-1.46 5.72-2.14 9.437-4.83 1.3 8.55 1.788 6.86 6.31 10.73q-2.115 9.915-4.232 19.82c4.469-5.35 3.652-9.16 11.742-11.96l4.26 1.11c.526.89 1.052 1.78 1.578 2.68q-3.187 4.395-6.377 8.8c.652 2.75 1.3 5.49 1.956 8.24 9 2.21 10.17 3.65 15.935 8.68 3.224-6.5 5.833.55 15.087-3.81l-1.228-18.06c10.8 2.72 10.43-3 21.935-5.67-1.34 8.31-4.852 10.23-8.682 15.93l.095 1.39c12.783-.68 21.5 10.27 20.668 16.73q7.307-5.37 14.614-10.76c-6.687-.61-8.862-4.54-9.087-10.54-.8 1.91-1.6 3.83-2.4 5.74q-1.577-2.67-3.155-5.36c7.341-2.75 6.472-3.24 7.671-10.29l-5.46 1.77q.505-2.835 1.011-5.65c12.27-1.18 27.112-2.57 30.739.7-8.182.11-5.915 1.98-4.988 8.71q-5.049-2.445-10.1-4.9-4.625 3.81-9.249 7.61l.095 1.39c5.8 3.59 27.706 17.64 27.706 17.64l.189 2.78c-.252-3.7-.5-7.41-.756-11.11-3.653-.34-.666 1.41-4.26-1.1 2.349-2.62 2.524-6.14 3.5-10.01.926-.06 1.852-.12 2.777-.19q2.413 4.725 4.827 9.44c7.92-.52 10.079-1.24 13.6-5.11-5.322 1.91-6.851 3.03-12.4 2.24-.032-.46-.063-.93-.1-1.39l1.011-5.65c12.884-2.96 13.7-5.96 21.463-12.62 1.144 11.25 3.53 14.9 11.231 21.56q-3.234 3.705-6.471 7.41 9.026-.6 18.053-1.22l.472 6.94c5.2-6.71 5.452-11.44 13.32-9.28 4.14 5.18 10.256 4.69 14.358 6q-2.365-4.02-4.733-8.05c6.288-.12 7.553.48 11.3 2.03l-.916 7.03c1.388-.09 2.777-.19 4.166-.28.5-8.39 2.508-10.26 7.387-14.45.463-.03.926-.07 1.389-.1 1.3 9.21 4.029 14.5 10.948 17.39 7.414.46 6.5.54 9.344-6.21q-1.68-4.08-3.345-8.14c11.575 7.1 16.425 3.95 27.045 7.92q1.725 4.77 3.44 9.53l1.39-.09q3.225-3.705 6.47-7.42c-3.25-3.69-4.18-3.39-6.22-9.34q10.875-4.23 21.75-8.45c.52.89 1.05 1.79 1.58 2.68q-5.835 6.675-11.65 13.35c-1.8 6.72-1.62 13.44 3.91 16.47-2.06-3.73-3.07-3.77-1.96-8.23 2.99-7.33 8.2-9.16 14.43-13.54q9.3 3.555 18.62 7.1c-.53-.89-1.05-1.79-1.58-2.68-.99-.86-1.98-1.73-2.97-2.59 1.3-1.48 2.59-2.96 3.89-4.45l4.26 1.11c7.27 6.48 7.27 13.39 12.71 22.85.47-4.08-1.56-6.73 2.49-4.36-2.34-5.72-4.24-7.13-.84-12.49.46-.03.92-.07 1.38-.1l.48 6.95c.89-.53 1.78-1.06 2.68-1.58 1.64-6.77 2.3-5.86 7.76-8.9l7.23 3.69c-2.8-7.97-2.38-10.42-1.32-19.44.92-.06 1.85-.12 2.78-.19 1.37 9.5 14.82 12.56 22.24 19.42-1.06 6.06-1.51 4.32-3.6 8.61q6.21-1.11 12.41-2.24c1.99-6.66 2.32-7.93 7.57-11.67 10.09 8.74 26.87 5.41 19.07-6.88 1.35-.56 2.71-1.11 4.07-1.67-5.39-2.09-5.33-1.88-7.51-7.86.92-.06 1.85-.13 2.77-.19 1.36-.56 2.72-1.11 4.08-1.67 1.11 2.71 2.22 5.43 3.34 8.14.27-2.81.55-5.62.82-8.42q5.1 3.135 10.19 6.28 1.575-7.785 3.13-15.56c8.74 1.8 7.1-1.74 19.25-4.1-1.52 10.05-6.48 8.94-12.02 7.79q1.02 4.815 2.05 9.63c5.48-3.64 5.84-3.97 13.69-3.72-.98-4.34 2.23-10.23-3.81-15.09q-4.35-2.49-8.71-4.99c18.58-.77 36.98-6.64 47.02-5.98l-7.41-6.48c2.71-1.11 5.43-2.22 8.14-3.34 3.47 2.3.2.79 6.95-.47 1.42 3.16 4.94 9.59 7.41 6.47 2.81.27 5.62.55 8.43.82q1.845-3.615 3.69-7.22-3.795-4.635-7.6-9.25c6.01-6.32 10.64-6.49 5.9-15.75 8.86 1.5 14.54 6.16 20.29 11.18l13.79-2.34c-1.51-14.17.8-23.17 7.74-29.82 5.3 2.21 1.26 3.57 5.65 1.01 2.48-3.6.75-.61 1.11-4.26 2.31-.16 4.62-.31 6.94-.47l1.86 6.85c6.45-6.88 7.05-16.4 9.31-27.14.99.86 1.98 1.72 2.97 2.59 6.54 2.35 7.35 4.21 10.48 10.45.89-.53 1.78-1.06 2.68-1.58 3.23-7.6 9.44-12.52 19.98-13.92 2.23 3.51 6.31 4.03 9.18 11.93 5.54-3.29 8.24-6.67 9.06-10.38 2.41 1.23 4.82 2.47 7.23 3.7q-4.485 5.88-8.97 11.77l-75.06 86.01c-34.7 32.05-89.41 63.5-133.77 84.43q-37.8 8.16-75.62 16.31c-177.021 44.78-369.522-24.83-454.086-112.82q-43.667-47.25-87.34-94.5c-7.53-9.17-9.139-24.09-18.835-30.81q3.3 7.455 6.593 14.9l-2.872-1.2q-15.714-26.13-31.438-52.27zm529.545-29.03c.06.92.12 1.85.19 2.78-.075-.93-.135-1.86-.195-2.78zm-475.711 61.64q4.908.375 9.815.73 3.66 2.535 7.321 5.08.93 3.435 1.861 6.85-1.152 3.57-2.305 7.13l-2.872-1.2c-4.363-11.68-12.277-7.71-17.513-11.36zm881.811-39.03q2.88 1.2 5.74 2.4c-.4.95-.8 1.91-1.2 2.87l-1.38.09q-1.595-2.69-3.165-5.36zm-840.568 71.1c.526.9 1.052 1.79 1.577 2.69-.53-.9-1.054-1.79-1.582-2.69zm827-45.07c3.15 13.89-26.29 47.98-38.08 55.6 4.66-11 14.14-27.02 24.22-33.73q-2.505-6.105-5.02-12.22 5.055 2.445 10.1 4.9 4.373-7.275 8.773-14.55zm-46.56 12.93c1.95 1.26 3.9 2.53 5.84 3.79-.86.99-1.72 1.98-2.59 2.97l-2.77.18c-.167-2.31-.327-4.63-.487-6.94zm-1.52 39.17a259.422 259.422 0 0 1-.007 0zm-693.656 56.93q4.907.36 9.815.73c2.078 4.35 2.584 4.82 2.05 9.62 1.127 4.79.767 4.05-.823 8.43l-4.354-2.49q-4.5-4.59-8.993-9.16c.764-2.38 1.53-4.75 2.298-7.13zm646-39.74c-1.29 1.48-2.59 2.96-3.88 4.45 1.91.8 3.83 1.6 5.74 2.4q-.941-3.435-1.871-6.85zm-599.141 51.9c1.851-.13 3.7-.25 5.554-.38-1.262 1.95-2.525 3.89-3.788 5.84l-4.26-1.11zm53.173 22.89c1.42.37 2.841.74 4.261 1.1q-2.683 1.59-5.366 3.16l-.094-1.39c.397-.96.798-1.91 1.197-2.87zm-12.12 6.4c2.346.31 4.692.61 7.038.92q-1.8 4.3-3.6 8.61c-.463.04-.926.07-1.389.1l-2.051-9.63zm470.839-30.62c5.16 1.23 3.91 1.32 7.23 3.69-.34 1.89-.67 3.77-1.01 5.65-.46.04-.93.07-1.39.1q-2.175-1.245-4.35-2.5c-.53-.89-1.06-1.78-1.58-2.68.368-1.42.728-2.84 1.098-4.26zm-358.076 27.14c1.851-.13 3.7-.25 5.555-.38-.832 1.45-1.663 2.91-2.494 4.36-3.449.75-2.869.5-6.755 3.25l3.692-7.23zm-29.794 13.19c.525.89 1.051 1.79 1.577 2.68-.528-.89-1.054-1.79-1.579-2.68zm-22.124 2.9l2.966 2.58zm98.876-2.54c1.679 3.09-.5 5.93-3.6 8.61q1.797-4.305 3.598-8.61zm280.7-16.3c.12 1.85.25 3.7.37 5.56q-5.64-1.02-11.29-2.03c.52.9 1.05 1.79 1.57 2.69q5.655 1.005 11.3 2.02c1.23-5.16 1.32-3.91 3.69-7.23q-2.824-.495-5.644-1.01zm-266.528 19.52q1.765 5.46 3.533 10.92c-6.479-3.8-4.685-4.87-14.17-3.22 4.233-4.28 6.584-4.41 10.92-3.53q-.145-2.085-.287-4.17zm190.428-10.16c.99.86 1.98 1.73 2.97 2.59-.994-.86-1.984-1.73-2.974-2.59zm-255.411 18.76l4.261 1.11zm47.308-1.82c2.346.31 4.692.61 7.038.92l.094 1.39-6.848 1.86q-.147-2.085-.288-4.17zm182.1-9.59c1.39-.1 2.77-.19 4.16-.28q3.105 4.665 6.22 9.34c.46-.03.92-.06 1.39-.1 1.06-6.49 1.11-5.28 4.99-8.71.95.4 1.91.8 2.87 1.2.12 1.86.25 3.71.37 5.56-2.21 1.54-4.44 3.09-6.65 4.64l-4.27-1.11-9.081-10.54zm-115.16 9.23c.92-.07 1.85-.13 2.77-.19-.921.06-1.851.12-2.771.19zm.18 2.77c.93-.06 1.86-.12 2.78-.19-1.51 5.46 2.02 5.97-4.89 10.1.86-.99 1.72-1.98 2.59-2.96l-.481-6.95zm101.37-6.89a374.522 374.522 0 0 1-.001 0zm36.3.32l16.41 15.63c-8.651-3.07-13.081-6.36-16.411-15.63zm-76.28 6.58c4.3.94.5 1.97-1.11 4.26zm-135.9 12.03l-1.2 2.88 2.588-2.97zm-30.456 3.47c-.431.49-.863.99-1.294 1.48.989.87 1.978 1.73 2.966 2.59l2.494-4.35c-1.391.09-2.778.19-4.167.28zm162.466-11.05c.93-.06 1.86-.12 2.78-.19-.921.07-1.851.13-2.781.19zm158.31-10.76q-7.5 2.595-14.99 5.2l.09 1.39q7.635-.51 15.28-1.04l2.49-4.35c-.961-.4-1.911-.8-2.871-1.2zm-355.4 25.56l-2.494 4.35c4.193-2.76 1.956-1.54 2.493-4.35zm172.757-3.38c.56 1.36 1.11 2.72 1.67 4.07l1.39-.09c-2.028-4.08-.088-1.66-3.058-3.98zm58.7 1.59l-7.95 6.12c.09 1.39.19 2.78.28 4.17q7.44-3.3 14.9-6.59-1.53-1.995-3.06-3.98c-1.388.09-2.778.19-4.168.28zm16.85 1.65q2.415 4.71 4.83 9.43l1.39-.09c.34-1.88.67-3.77 1.01-5.65-1.02-1.33-2.04-2.65-3.06-3.98-1.388.1-2.778.19-4.168.29zm-63.59 8.51c.06.92.12 1.85.19 2.77-.068-.92-.128-1.85-.188-2.77zm-1.11 4.26c.07.92.13 1.85.19 2.77-.058-.92-.118-1.85-.188-2.77zm-5.27 4.54c1.89.34 3.77.67 5.65 1.01-1.878-.34-3.758-.67-5.648-1.01z"/></svg>