<svg width="30" height="31" xmlns="http://www.w3.org/2000/svg"><path d="M19.451 0H6.017L.064 27.323h7.884l1.93-9.054h5.633c5.387 0 9.893-3.322 11.1-8.97C27.976 2.905 23.391 0 19.451 0zm-5.877 13.037h-2.57l1.69-7.474h3.86c1.325 0 2.328.789 2.657 1.947-.169-.03-.326-.08-.51-.08H14.84l-1.266 5.607zm5.635-3.738c-.47 2.029-2.397 3.647-4.36 3.723l.924-4.098h3.5c-.02.125-.03.245-.064.375zm9.548 1.867c.452-2.117.243-3.844-.37-5.218 1.278 1.524 1.94 3.735 1.304 6.712-1.208 5.647-5.714 8.969-11.1 8.969h-5.632l-1.93 9.053H3.143l.327-1.494h6.624l1.93-9.053h5.632c5.387 0 9.893-3.321 11.1-8.969z" fill="#FFF" fill-rule="nonzero"/></svg>