<svg width="80" height="22" xmlns="http://www.w3.org/2000/svg"><path d="M12.846 9.144c-1.798 0-2.721 1.317-2.721 3.14 0 1.897.829 3.143 2.841 3.143.863 0 1.583-.24 2.122-.555v-.907c-.66.392-1.26.622-1.906.622-1.233 0-1.822-.633-1.822-2.075h3.907v-.44c.002-1.958-.921-2.928-2.42-2.928zm-1.462 2.563c.131-1.197.696-1.761 1.427-1.761.648 0 1.26.5 1.319 1.761h-2.746zm7.842-2.563c-.648 0-1.26.251-1.621.443V6.17l-1.247.299v8.37c.72.382 1.703.587 2.34.587 1.739 0 2.817-1.093 2.817-3.336 0-1.916-.803-2.946-2.29-2.946zm-.528 5.442c-.301 0-.719-.023-1.103-.19v-3.922c.48-.264.829-.396 1.306-.396.803 0 1.357.493 1.357 2.013 0 1.944-.672 2.495-1.56 2.495zm25.348-3.644v4.34H42.8v-4.066c0-.947-.466-1.115-1.082-1.115-.478 0-1.09.216-1.462.432v4.747h-1.245v-5.251c.54-.323 1.679-.887 3.058-.887 1.437.002 1.977.565 1.977 1.8zM29.598 6.781h1.487v8.5H29.79V9.118h-.107l-2.446 6.165h-.767l-2.446-6.02h-.107v6.02h-1.079V6.78h1.45l2.686 6.7h.061l2.563-6.7zm5.54 2.363c-1.583 0-2.735 1.043-2.735 3.14 0 2.05 1.093 3.143 2.735 3.143 1.643 0 2.734-1.093 2.734-3.142 0-2.1-1.152-3.141-2.734-3.141zm0 5.442c-.852 0-1.476-.656-1.476-2.301 0-1.62.685-2.303 1.476-2.303.816 0 1.475.684 1.475 2.303 0 1.645-.624 2.3-1.475 2.3zm38.542 2.328l2.114 2.416c-.42.324-.879.633-1.383.918-1.528.872-3.299 1.37-5.179 1.37-5.787 0-10.509-4.72-10.509-10.508 0-5.788 4.722-10.508 10.509-10.508 1.648 0 3.213.384 4.606 1.065.22.104.436.22.652.344l-.967.866-1.45-1.503-2.452 2.19-1.453-1.591-4.574 4.118 2.93 3.23-1.153 1.012 2.888 3.233-1.147 1.01 4.125 4.59 2.443-2.252zm5.018-6.522l1.123 1.25-1.248 1.124-1.125-1.25 1.25-1.124zm-23.73-1.046h1.285l-2.168 5.996c-.6 1.656-1.331 2.519-2.709 2.519v-.981c.816 0 1.318-.646 1.606-1.534l-2.3-5.999H52l1.534 4.415h.072l1.362-4.416zm-7.085-.202c-1.8 0-2.721 1.317-2.721 3.14 0 1.897.827 3.143 2.84 3.143.862 0 1.579-.24 2.12-.555v-.907c-.658.392-1.258.622-1.904.622-1.234 0-1.824-.633-1.824-2.075h3.908v-.44c.004-1.958-.921-2.928-2.419-2.928zm-1.465 2.563c.134-1.197.699-1.761 1.43-1.761.645 0 1.26.5 1.318 1.761h-2.748zm30.55 3.088l1.688 1.875-1.875 1.688-1.69-1.875 1.877-1.688zM71.99 3.28l1.688 1.875-1.875 1.688-1.688-1.875L71.99 3.28zm-3.963.648l2.25 2.5-2.5 2.249-2.249-2.5 2.5-2.249zm5.504 6.683l-1.688-1.873 1.872-1.688 1.691 1.873-1.875 1.688zm2.319-2.805l1.246-1.124 1.123 1.25-1.245 1.124-1.124-1.25zM8.373 6.781h1.403l-1.944 8.5H6.536l-1.63-5.983H4.82l-1.583 5.984H1.942L0 6.78h1.344l1.342 6.342h.085L4.33 6.781h1.067l1.667 6.342h.085l1.224-6.342zm66.761 7.789l-1.69-1.872 1.874-1.69 1.692 1.872-1.876 1.69zm-.881-10.477l1.25-1.125 1.123 1.25-1.248 1.124-1.125-1.25zm-4.685 8.851l-2.25-2.5 2.5-2.252 2.25 2.5-2.5 2.252zm1.778 4.32l-2.248-2.5 2.497-2.249 2.25 2.5-2.5 2.249z" fill="#FFF" fill-rule="nonzero"/></svg>