<?xml version="1.0" standalone="no"?><!DOCTYPE svg PUBLIC "-//W3C//DTD SVG 1.1//EN" "http://www.w3.org/Graphics/SVG/1.1/DTD/svg11.dtd" ><svg xmlns="http://www.w3.org/2000/svg"><metadata></metadata><defs><font id="Google:Roboto Slab:2013" horiz-adv-x="2642"><font-face font-family="Roboto Slab" font-weight="300" font-stretch="normal" units-per-em="2048" panose-1="0 0 0 0 0 0 0 0 0 0" ascent="2146" descent="-555" x-height="0" bbox="-825 -558 2603 2146" underline-thickness="100" underline-position="-150" unicode-range="U+0000-fffd" /><missing-glyph horiz-adv-x="498"  /><glyph glyph-name=".null" unicode="" d="" /><glyph glyph-name="nonmarkingreturn" unicode="" d="" /><glyph glyph-name="space" unicode=" " d="" /><glyph glyph-name="quotedbl" unicode="&quot;" d="M270 1344 l-33 -261 l-71 0 l2 255 l0 222 l102 0 l0 -216 ZM510 1344 l-33 -261 l-72 0 l3 258 l0 219 l102 0 l0 -216 Z" /><glyph glyph-name="numbersign" unicode="#" d="M731 410 l-314 0 l-77 -410 l-99 0 l77 410 l-255 0 l0 93 l272 0 l83 441 l-279 0 l0 96 l297 0 l79 416 l99 0 l-79 -416 l315 0 l79 416 l99 0 l-79 -416 l230 0 l0 -96 l-248 0 l-83 -441 l256 0 l0 -93 l-274 0 l-77 -410 l-99 0 l77 410 ZM434 503 l315 0 l83 441 l-315 0 l-83 -441 Z" /><glyph glyph-name="dollar" unicode="$" d="M862 359 q0 111 -72 181 q-72 70 -254 134 q-208 66 -308 159 q-100 93 -100 262 q0 162 100 264 q100 102 272 116 l0 202 l102 0 l0 -202 q175 -16 271.5 -131 q96.5 -115 94.5 -311 l-3 -5 l-112 0 q0 152 -80.5 247 q-80.5 95 -223.5 95 q-148 0 -224.5 -77.5 q-76.5 -77.5 -76.5 -195.5 q0 -114 68 -183.5 q68 -69.5 261 -133.5 q206 -69 305.5 -160.5 q99.5 -91.5 99.5 -258.5 q0 -166 -103.5 -265.5 q-103.5 -99.5 -279.5 -113.5 l0 -190 l-102 0 l0 189 q-181 12 -300 116 q-119 104 -115 315 l3 6 l111 0 q0 -177 101.5 -255 q101.5 -78 244.5 -78 q147 0 233.5 77.5 q86.5 77.5 86.5 196.5 Z" /><glyph glyph-name="percent" unicode="%" d="M77 1176 q0 127 78.5 214 q78.5 87 206.5 87 q128 0 206.5 -87 q78.5 -87 78.5 -214 l0 -77 q0 -126 -78.5 -212.5 q-78.5 -86.5 -204.5 -86.5 q-129 0 -208 86.5 q-79 86.5 -79 212.5 l0 77 ZM174 1099 q0 -88 49 -150 q49 -62 141 -62 q89 0 137.5 62 q48.5 62 48.5 150 l0 77 q0 88 -49 151 q-49 63 -139 63 q-90 0 -139 -63 q-49 -63 -49 -151 l0 -77 ZM810 357 q0 126 78.5 213 q78.5 87 205.5 87 q128 0 207 -87 q79 -87 79 -213 l0 -78 q0 -127 -79 -213.5 q-79 -86.5 -205 -86.5 q-129 0 -207.5 86.5 q-78.5 86.5 -78.5 213.5 l0 78 ZM906 279 q0 -88 49 -150.5 q49 -62.5 141 -62.5 q89 0 138 62 q49 62 49 151 l0 78 q0 91 -49 152 q-49 61 -140 61 q-90 0 -139 -61.5 q-49 -61.5 -49 -151.5 l0 -78 ZM440 121 l-74 48 l711 1138 l74 -48 l-711 -1138 Z" /><glyph glyph-name="ampersand" unicode="&amp;" d="M370 794 q-81 101 -119.5 183.5 q-38.5 82.5 -38.5 169.5 q0 158 88.5 244 q88.5 86 243.5 86 q144 0 228.5 -81 q84.5 -81 84.5 -204 q0 -91 -45 -155.5 q-45 -64.5 -130 -129.5 l-158 -122 l411 -480 q49 71 76 159 q27 88 27 187 l111 0 q0 -128 -37 -235 q-37 -107 -105 -194 l185 -217 l-2 -5 l-138 0 l-122 141 q-85 -78 -186 -120 q-101 -42 -218 -42 q-209 0 -330.5 107 q-121.5 107 -121.5 285 q0 120 72.5 216.5 q72.5 96.5 209.5 196.5 l14 10 ZM526 80 q92 0 179.5 36 q87.5 36 157.5 103 l-414 482 q-5 5 -8.5 8.5 q-3.5 3.5 -5.5 7.5 l-47 -36 q-115 -94 -155 -170 q-40 -76 -40 -140 q0 -124 85.5 -207.5 q85.5 -83.5 247.5 -83.5 ZM332 1149 q0 -66 31.5 -138 q31.5 -72 95.5 -150 l177 132 q59 45 83.5 94 q24.5 49 24.5 105 q0 79 -53 131 q-53 52 -147 52 q-102 0 -157 -65 q-55 -65 -55 -161 Z" /><glyph glyph-name="quotesingle" unicode="&#39;" d="M276 1365 l-39 -275 l-71 0 l8 266 l0 204 l102 0 l0 -195 Z" /><glyph glyph-name="parenleft" unicode="(" d="M114 588 q0 363 138.5 651 q138.5 288 309.5 385 l6 0 l26 -73 q-145 -103 -253 -366 q-108 -263 -108 -594 l0 -20 q0 -331 108 -594 q108 -263 253 -370 l-26 -70 l-6 0 q-173 100 -310.5 382 q-137.5 282 -137.5 654 l0 15 Z" /><glyph glyph-name="parenright" unicode=")" d="M491 573 q0 -372 -138.5 -654 q-138.5 -282 -310.5 -382 l-6 1 l-25 69 q144 102 252.5 367 q108.5 265 108.5 597 l0 20 q0 329 -110.5 595.5 q-110.5 266.5 -250.5 368.5 l25 69 l6 1 q170 -98 309.5 -386 q139.5 -288 139.5 -651 l0 -15 Z" /><glyph glyph-name="asterisk" unicode="*" d="M398 1000 l-332 108 l32 101 l332 -123 l-4 370 l104 0 l-8 -373 l324 127 l33 -101 l-333 -115 l223 -294 l-86 -63 l-213 305 l-204 -303 l-85 61 l217 300 Z" /><glyph glyph-name="plus" unicode="+" d="M627 740 l444 0 l0 -112 l-444 0 l0 -482 l-120 0 l0 482 l-434 0 l0 112 l434 0 l0 466 l120 0 l0 -466 Z" /><glyph glyph-name="comma" unicode="," d="M271 48 q0 -92 -37.5 -180 q-37.5 -88 -102.5 -149 l-71 52 q47 66 69.5 131 q22.5 65 22.5 144 l0 142 l119 0 l0 -140 Z" /><glyph glyph-name="hyphen" unicode="-" d="M632 570 l-478 0 l0 101 l478 0 l0 -101 Z" /><glyph glyph-name="period" unicode="." d="M282 0 l-137 0 l0 164 l137 0 l0 -164 Z" /><glyph glyph-name="slash" unicode="/" d="M108 -125 l-108 0 l608 1581 l108 0 l-608 -1581 Z" /><glyph glyph-name="zero" unicode="0" d="M1026 565 q0 -282 -119.5 -434 q-119.5 -152 -332.5 -152 q-212 0 -332.5 152.5 q-120.5 152.5 -120.5 433.5 l0 325 q0 281 119.5 434 q119.5 153 331.5 153 q213 0 333.5 -153 q120.5 -153 120.5 -434 l0 -325 ZM906 910 q0 224 -85.5 344.5 q-85.5 120.5 -248.5 120.5 q-162 0 -247 -121 q-85 -121 -85 -344 l0 -363 q0 -222 86.5 -344.5 q86.5 -122.5 247.5 -122.5 q162 0 247 122 q85 122 85 345 l0 363 Z" /><glyph glyph-name="one" unicode="1" d="M114 88 l261 13 l0 1228 l-287 -41 l0 84 l407 88 l0 -1359 l261 -13 l0 -88 l-642 0 l0 88 Z" /><glyph glyph-name="two" unicode="2" d="M101 0 l0 92 l477 541 q133 150 187.5 250 q54.5 100 54.5 192 q0 135 -77 217.5 q-77 82.5 -216 82.5 q-166 0 -252 -92 q-86 -92 -86 -246 l-111 0 l-2 6 q-5 182 117.5 308 q122.5 126 333.5 126 q188 0 300.5 -108 q112.5 -108 112.5 -290 q0 -120 -75.5 -243.5 q-75.5 -123.5 -209.5 -275.5 l-402 -454 l2 -5 l635 0 l10 205 l106 0 l0 -306 l-905 0 Z" /><glyph glyph-name="three" unicode="3" d="M374 793 l138 0 q159 0 241 79.5 q82 79.5 82 204.5 q0 136 -77 217 q-77 81 -228 81 q-141 0 -230.5 -82.5 q-89.5 -82.5 -89.5 -217.5 l-112 0 l-2 6 q-5 170 119.5 283 q124.5 113 314.5 113 q194 0 309.5 -107 q115.5 -107 115.5 -297 q0 -103 -64 -193.5 q-64 -90.5 -180 -134.5 q136 -39 203.5 -131.5 q67.5 -92.5 67.5 -218.5 q0 -194 -125.5 -305 q-125.5 -111 -322.5 -111 q-191 0 -327.5 108.5 q-136.5 108.5 -131.5 301.5 l2 6 l111 0 q0 -139 96.5 -227 q96.5 -88 249.5 -88 q155 0 242 80.5 q87 80.5 87 230.5 q0 153 -91 226.5 q-91 73.5 -260 73.5 l-138 0 l0 102 Z" /><glyph glyph-name="four" unicode="4" d="M864 469 l228 0 l0 -101 l-228 0 l0 -267 l163 -13 l0 -88 l-445 0 l0 88 l163 13 l0 267 l-682 0 l0 68 l670 1020 l131 0 l0 -987 ZM205 469 l540 0 l0 830 l-6 2 l-51 -109 l-483 -723 Z" /><glyph glyph-name="five" unicode="5" d="M827 1219 l-12 126 l-520 0 l-54 -519 q55 50 121 77 q66 27 179 30 q186 3 300 -125 q114 -128 114 -344 q0 -221 -111 -353 q-111 -132 -333 -132 q-180 0 -299.5 100.5 q-119.5 100.5 -114.5 297.5 l2 6 l107 0 q0 -147 83 -225 q83 -78 222 -78 q163 0 243.5 98 q80.5 98 80.5 284 q0 163 -80.5 261.5 q-80.5 98.5 -225.5 98.5 q-140 0 -213.5 -44.5 q-73.5 -44.5 -106.5 -134.5 l-97 16 l80 797 l732 0 l0 -237 l-97 0 Z" /><glyph glyph-name="six" unicode="6" d="M615 1477 q75 0 148 -17 q73 -17 130 -49 l-29 -96 q-57 31 -114 45.5 q-57 14.5 -135 14.5 q-169 0 -272 -133 q-103 -133 -103 -404 l0 -49 q60 78 153 125 q93 47 206 47 q196 0 310 -135 q114 -135 114 -352 q0 -215 -122.5 -355 q-122.5 -140 -318.5 -140 q-203 0 -332 152.5 q-129 152.5 -129 430.5 l0 265 q0 318 138.5 484 q138.5 166 355.5 166 ZM575 863 q-121 0 -211.5 -63 q-90.5 -63 -123.5 -162 l0 -85 q0 -227 95 -350 q95 -123 247 -123 q146 0 233.5 114.5 q87.5 114.5 87.5 279.5 q0 175 -85 282 q-85 107 -243 107 Z" /><glyph glyph-name="seven" unicode="7" d="M1031 1354 q-236 -279 -361.5 -568 q-125.5 -289 -167.5 -664 l-10 -122 l-120 0 l10 122 q43 371 174.5 670.5 q131.5 299.5 350.5 561.5 l-717 0 l-8 -205 l-106 0 l0 307 l955 0 l0 -102 Z" /><glyph glyph-name="eight" unicode="8" d="M987 1081 q0 -118 -68.5 -206.5 q-68.5 -88.5 -183.5 -128.5 q132 -41 212.5 -137 q80.5 -96 80.5 -223 q0 -196 -131 -301.5 q-131 -105.5 -336 -105.5 q-210 0 -339.5 105 q-129.5 105 -129.5 302 q0 129 79 224.5 q79 95.5 212 136.5 q-115 40 -182.5 128 q-67.5 88 -67.5 206 q0 188 118.5 292 q118.5 104 307.5 104 q187 0 307.5 -104.5 q120.5 -104.5 120.5 -291.5 ZM909 385 q0 138 -100.5 224.5 q-100.5 86.5 -249.5 86.5 q-152 0 -250 -86.5 q-98 -86.5 -98 -224.5 q0 -143 97 -224 q97 -81 253 -81 q151 0 249.5 81.5 q98.5 81.5 98.5 223.5 ZM868 1082 q0 126 -89 209.5 q-89 83.5 -220 83.5 q-135 0 -221 -80 q-86 -80 -86 -213 q0 -129 86 -206.5 q86 -77.5 223 -77.5 q133 0 220 77.5 q87 77.5 87 206.5 Z" /><glyph glyph-name="nine" unicode="9" d="M505 80 q170 0 266 130 q96 130 96 401 l0 42 q-54 -91 -143 -140.5 q-89 -49.5 -198 -49.5 q-199 0 -320.5 137.5 q-121.5 137.5 -121.5 357.5 q0 221 127 370 q127 149 316 149 q213 0 338.5 -139 q125.5 -139 125.5 -420 l0 -305 q0 -319 -131.5 -476.5 q-131.5 -157.5 -354.5 -157.5 q-77 0 -156 15 q-79 15 -150 46 l22 100 q68 -32 134.5 -46 q66.5 -14 149.5 -14 ZM526 564 q130 0 217 66.5 q87 66.5 124 164.5 l0 132 q0 226 -89.5 337 q-89.5 111 -245.5 111 q-141 0 -232.5 -122 q-91.5 -122 -91.5 -295 q0 -169 85.5 -281.5 q85.5 -112.5 232.5 -112.5 Z" /><glyph glyph-name="less" unicode="&lt;" d="M289 578 l-108 -28 l0 -6 l108 -28 l614 -268 l0 -126 l-827 379 l0 97 l827 378 l0 -126 l-614 -272 Z" /><glyph glyph-name="equal" unicode="=" d="M981 833 l-834 0 l0 106 l834 0 l0 -106 ZM981 422 l-834 0 l0 106 l834 0 l0 -106 Z" /><glyph glyph-name="greater" unicode="&gt;" d="M125 844 l0 123 l844 -378 l0 -97 l-844 -379 l0 124 l631 274 l108 27 l0 6 l-108 29 l-631 271 Z" /><glyph glyph-name="question" unicode="?" d="M361 404 q1 131 22 182.5 q21 51.5 114 136.5 q107 110 157 186.5 q50 76.5 50 192.5 q0 128 -68 198 q-68 70 -194 70 q-118 0 -190 -68.5 q-72 -68.5 -73 -185.5 l-111 0 l-2 6 q-3 165 103.5 260 q106.5 95 272.5 95 q179 0 280.5 -101 q101.5 -101 101.5 -273 q0 -135 -66.5 -239.5 q-66.5 -104.5 -188.5 -218.5 q-62 -53 -75.5 -99 q-13.5 -46 -13.5 -142 l-119 0 ZM496 0 l-138 0 l0 154 l138 0 l0 -154 Z" /><glyph glyph-name="at" unicode="@" d="M1715 513 q-10 -216 -117 -375 q-107 -159 -313 -159 q-78 0 -131 51 q-53 51 -69 141 q-53 -96 -130.5 -144 q-77.5 -48 -180.5 -48 q-131 0 -199 119.5 q-68 119.5 -49 317.5 q23 254 141 407.5 q118 153.5 286 153.5 q93 0 150.5 -27 q57.5 -27 126.5 -81 l-2 -2 l3 0 l-50 -574 q-10 -132 30 -180 q40 -48 95 -48 q142 0 224.5 124.5 q82.5 124.5 92.5 323.5 q19 389 -149 604.5 q-168 215.5 -530 215.5 q-324 0 -533.5 -235.5 q-209.5 -235.5 -226.5 -619.5 q-19 -379 163.5 -612.5 q182.5 -233.5 519.5 -233.5 q88 0 178 22 q90 22 152 57 l31 -75 q-64 -41 -167 -65 q-103 -24 -198 -24 q-380 0 -588 249.5 q-208 249.5 -189 681.5 q18 424 252.5 683 q234.5 259 609.5 259 q391 0 587.5 -241.5 q196.5 -241.5 179.5 -665.5 ZM636 416 q-16 -155 26 -247 q42 -92 138 -92 q86 0 156 43 q70 43 123 157 q0 5 0 8.5 q0 3.5 1 7.5 l47 543 q-32 23 -71.5 36.5 q-39.5 13.5 -86.5 13.5 q-134 0 -222 -119 q-88 -119 -111 -351 Z" /><glyph glyph-name="A" unicode="a" d="M55 88 l107 8 l517 1360 l113 0 l512 -1360 l109 -8 l0 -88 l-359 0 l0 88 l127 10 l-120 326 l-654 0 l-121 -326 l127 -10 l0 -88 l-358 0 l0 88 ZM447 531 l575 0 l-283 770 l-6 0 l-286 -770 Z" /><glyph glyph-name="B" unicode="b" d="M659 1456 q227 0 353.5 -95.5 q126.5 -95.5 126.5 -287.5 q0 -112 -63.5 -195 q-63.5 -83 -172.5 -115 q133 -24 216 -125 q83 -101 83 -233 q0 -195 -126.5 -300 q-126.5 -105 -338.5 -105 l-666 0 l0 88 l163 13 l0 1253 l-163 13 l0 89 l163 0 l425 0 ZM353 702 l0 -601 l384 0 q161 0 253 79.5 q92 79.5 92 222.5 q0 131 -83.5 215 q-83.5 84 -242.5 84 l-403 0 ZM353 803 l335 0 q158 0 244.5 69.5 q86.5 69.5 86.5 204.5 q0 138 -92 207.5 q-92 69.5 -268 69.5 l-306 0 l0 -551 Z" /><glyph glyph-name="C" unicode="c" d="M1230 1000 l-93 0 l-17 221 q-58 69 -151 111.5 q-93 42.5 -215 42.5 q-244 0 -388 -177.5 q-144 -177.5 -144 -458.5 l0 -21 q0 -281 142.5 -459.5 q142.5 -178.5 374.5 -178.5 q123 0 223.5 43 q100.5 43 157.5 111 l17 221 l93 0 l0 -256 q-68 -94 -198.5 -157 q-130.5 -63 -292.5 -63 q-280 0 -458 207.5 q-178 207.5 -178 531.5 l0 19 q0 325 177.5 532.5 q177.5 207.5 464.5 207.5 q162 0 289.5 -63.5 q127.5 -63.5 195.5 -157.5 l0 -256 Z" /><glyph glyph-name="D" unicode="d" d="M657 1456 q267 0 441 -178 q174 -178 174 -457 l0 -187 q0 -280 -174 -457 q-174 -177 -441 -177 l-586 0 l0 88 l163 13 l0 1253 l-163 13 l0 89 l163 0 l423 0 ZM353 1354 l0 -1253 l304 0 q216 0 355.5 151 q139.5 151 139.5 382 l0 190 q0 228 -140 379 q-140 151 -355 151 l-304 0 Z" /><glyph glyph-name="E" unicode="e" d="M950 705 l-597 0 l0 -604 l688 0 l9 218 l106 0 l0 -319 l-1085 0 l0 88 l163 13 l0 1253 l-163 13 l0 89 l163 0 l917 0 l0 -320 l-106 0 l-9 218 l-683 0 l0 -547 l597 0 l0 -102 Z" /><glyph glyph-name="F" unicode="f" d="M71 88 l163 13 l0 1253 l-163 13 l0 89 l1092 0 l0 -320 l-106 0 l-9 218 l-695 0 l0 -569 l608 0 l0 -103 l-608 0 l0 -581 l163 -13 l0 -88 l-445 0 l0 88 Z" /><glyph glyph-name="G" unicode="g" d="M1239 160 q-52 -64 -181 -122.5 q-129 -58.5 -323 -58.5 q-284 0 -462 205 q-178 205 -178 534 l0 31 q0 324 178 526 q178 202 467 202 q164 0 290 -54.5 q126 -54.5 205 -149.5 l0 -253 l-93 0 l-21 213 q-59 65 -153 103.5 q-94 38.5 -219 38.5 q-248 0 -391 -174 q-143 -174 -143 -450 l0 -33 q0 -284 140.5 -461 q140.5 -177 379.5 -177 q142 0 243 37 q101 37 142 79 l0 353 l-280 5 l0 97 l399 0 l0 -491 Z" /><glyph glyph-name="H" unicode="h" d="M71 1367 l0 89 l445 0 l0 -89 l-163 -13 l0 -582 l828 0 l0 582 l-163 13 l0 89 l163 0 l119 0 l163 0 l0 -89 l-163 -13 l0 -1253 l163 -13 l0 -88 l-445 0 l0 88 l163 13 l0 569 l-828 0 l0 -569 l163 -13 l0 -88 l-445 0 l0 88 l163 13 l0 1253 l-163 13 Z" /><glyph glyph-name="I" unicode="i" d="M91 1367 l0 89 l446 0 l0 -89 l-163 -13 l0 -1253 l163 -13 l0 -88 l-446 0 l0 88 l163 13 l0 1253 l-163 13 Z" /><glyph glyph-name="J" unicode="j" d="M1080 1456 l0 -89 l-163 -13 l0 -941 q0 -199 -118.5 -316.5 q-118.5 -117.5 -306.5 -117.5 q-205 0 -324 106 q-119 106 -114 310 l2 6 l112 0 q0 -158 84 -239.5 q84 -81.5 240 -81.5 q133 0 219 90.5 q86 90.5 86 242.5 l0 941 l-163 13 l0 89 l283 0 l163 0 Z" /><glyph glyph-name="K" unicode="k" d="M71 88 l163 13 l0 1253 l-163 13 l0 89 l445 0 l0 -89 l-163 -13 l0 -568 l199 0 l490 573 l-140 8 l0 89 l407 0 l0 -89 l-128 -12 l-521 -615 l562 -640 l131 -12 l0 -88 l-415 0 l0 88 l138 8 l-523 589 l-200 0 l0 -584 l163 -13 l0 -88 l-445 0 l0 88 Z" /><glyph glyph-name="L" unicode="l" d="M71 0 l0 88 l163 13 l0 1253 l-163 13 l0 89 l163 0 l120 0 l163 0 l0 -89 l-163 -13 l0 -1253 l605 0 l9 205 l106 0 l0 -306 l-1003 0 Z" /><glyph glyph-name="M" unicode="m" d="M1518 1280 l-6 2 l-541 -1282 l-83 0 l-540 1276 l-6 -1 l11 -632 l0 -542 l163 -13 l0 -88 l-445 0 l0 88 l163 13 l0 1253 l-163 13 l0 89 l163 0 l157 0 l535 -1282 l6 0 l537 1282 l321 0 l0 -89 l-163 -13 l0 -1253 l163 -13 l0 -88 l-445 0 l0 88 l163 13 l0 542 l10 637 Z" /><glyph glyph-name="N" unicode="n" d="M1469 1456 l0 -89 l-163 -13 l0 -1354 l-119 0 l-827 1252 l-6 -1 l0 -1150 l163 -13 l0 -88 l-446 0 l0 88 l163 13 l0 1253 l-163 13 l0 89 l163 0 l120 0 l827 -1250 l6 1 l0 1147 l-163 13 l0 89 l282 0 l163 0 Z" /><glyph glyph-name="O" unicode="o" d="M1357 718 q0 -328 -175 -533.5 q-175 -205.5 -455 -205.5 q-276 0 -448.5 206 q-172.5 206 -172.5 533 l0 19 q0 327 172 533.5 q172 206.5 448 206.5 q280 0 455.5 -206.5 q175.5 -206.5 175.5 -533.5 l0 -19 ZM1237 739 q0 283 -138 458 q-138 175 -373 175 q-231 0 -365.5 -175 q-134.5 -175 -134.5 -458 l0 -21 q0 -285 135 -460 q135 -175 366 -175 q237 0 373.5 174.5 q136.5 174.5 136.5 460.5 l0 21 Z" /><glyph glyph-name="P" unicode="p" d="M685 1456 q229 0 354.5 -116.5 q125.5 -116.5 125.5 -308.5 q0 -194 -125.5 -310 q-125.5 -116 -354.5 -116 l-332 0 l0 -504 l163 -13 l0 -88 l-445 0 l0 88 l163 13 l0 1253 l-163 13 l0 89 l163 0 l451 0 ZM353 707 l332 0 q180 0 270.5 91.5 q90.5 91.5 90.5 230.5 q0 140 -90 232.5 q-90 92.5 -271 92.5 l-332 0 l0 -647 Z" /><glyph glyph-name="Q" unicode="q" d="M1357 718 q0 -213 -77.5 -379.5 q-77.5 -166.5 -215.5 -259.5 l301 -215 l-83 -76 l-328 233 q-53 -21 -110 -31.5 q-57 -10.5 -117 -10.5 q-276 0 -448.5 206 q-172.5 206 -172.5 533 l0 19 q0 327 172 533.5 q172 206.5 448 206.5 q280 0 455.5 -206.5 q175.5 -206.5 175.5 -533.5 l0 -19 ZM1237 739 q0 283 -138 458 q-138 175 -373 175 q-231 0 -365.5 -175 q-134.5 -175 -134.5 -458 l0 -21 q0 -285 135 -460 q135 -175 366 -175 q237 0 373.5 174.5 q136.5 174.5 136.5 460.5 l0 21 Z" /><glyph glyph-name="R" unicode="r" d="M676 1455 q234 0 359.5 -102 q125.5 -102 125.5 -295 q0 -114 -67 -205 q-67 -91 -189 -132 q135 -34 194.5 -121.5 q59.5 -87.5 59.5 -220.5 l0 -133 q0 -77 24 -114 q24 -37 73 -40 l49 -3 l0 -89 l-76 0 q-106 0 -148 72 q-42 72 -42 176 l0 129 q0 132 -84.5 209.5 q-84.5 77.5 -235.5 80.5 l-366 0 l0 -566 l163 -14 l0 -87 l-445 0 l0 87 l163 14 l0 1252 l-163 14 l0 88 l605 0 ZM353 769 l309 0 q197 0 288 79 q91 79 91 211 q0 140 -91 217 q-91 77 -274 77 l-323 0 l0 -584 Z" /><glyph glyph-name="S" unicode="s" d="M1099 1024 l-98 0 l-17 206 q-54 68 -147 106.5 q-93 38.5 -218 38.5 q-180 0 -280.5 -78 q-100.5 -78 -100.5 -194 q0 -110 90.5 -183.5 q90.5 -73.5 313.5 -129.5 q235 -60 357.5 -162 q122.5 -102 122.5 -269 q0 -174 -142 -277 q-142 -103 -363 -103 q-156 0 -289.5 55 q-133.5 55 -218.5 157 l0 255 l98 0 l17 -213 q66 -75 169 -114 q103 -39 224 -39 q172 0 278.5 76 q106.5 76 106.5 201 q0 119 -89 194.5 q-89 75.5 -310 133.5 q-239 60 -362 156 q-123 96 -123 259 q0 167 140 272 q140 105 361 105 q159 0 283.5 -55 q124.5 -55 196.5 -149 l0 -249 Z" /><glyph glyph-name="T" unicode="t" d="M1218 1456 l0 -307 l-106 0 l-9 205 l-404 0 l0 -1253 l163 -13 l0 -88 l-446 0 l0 88 l163 13 l0 1253 l-404 0 l-8 -205 l-107 0 l0 307 l1158 0 Z" /><glyph glyph-name="U" unicode="u" d="M505 1456 l0 -89 l-163 -13 l0 -885 q0 -186 110 -287.5 q110 -101.5 287 -101.5 q180 0 293 101 q113 101 113 288 l0 885 l-163 13 l0 89 l445 0 l0 -89 l-163 -13 l0 -885 q0 -238 -145.5 -364 q-145.5 -126 -379.5 -126 q-230 0 -373 126.5 q-143 126.5 -143 363.5 l0 885 l-163 13 l0 89 l163 0 l119 0 l163 0 Z" /><glyph glyph-name="V" unicode="v" d="M430 1367 l-136 -11 l402 -1110 l29 -97 l6 0 l29 97 l401 1110 l-136 11 l0 89 l378 0 l0 -89 l-113 -9 l-506 -1358 l-113 0 l-507 1358 l-112 9 l0 89 l378 0 l0 -89 Z" /><glyph glyph-name="W" unicode="w" d="M423 1367 l-148 -11 l230 -944 l44 -222 l6 0 l54 222 l320 1044 l113 0 l319 -1044 l53 -225 l6 1 l47 224 l227 944 l-148 11 l0 89 l380 0 l0 -89 l-109 -8 l-339 -1359 l-113 0 l-339 1117 l-38 153 l-6 0 l-36 -153 l-342 -1117 l-113 0 l-339 1359 l-109 8 l0 89 l380 0 l0 -89 Z" /><glyph glyph-name="X" unicode="x" d="M54 88 l122 10 l453 640 l-438 619 l-122 10 l0 89 l400 0 l0 -89 l-139 -6 l368 -532 l369 532 l-137 6 l0 89 l399 0 l0 -89 l-122 -10 l-437 -619 l453 -640 l123 -10 l0 -88 l-399 0 l0 88 l137 6 l-384 553 l-385 -553 l138 -6 l0 -88 l-399 0 l0 88 Z" /><glyph glyph-name="Y" unicode="y" d="M455 1367 l-140 -10 l394 -710 l396 710 l-140 10 l0 89 l401 0 l0 -89 l-124 -10 l-474 -825 l0 -431 l163 -13 l0 -88 l-446 0 l0 88 l163 13 l0 438 l-470 818 l-123 10 l0 89 l400 0 l0 -89 Z" /><glyph glyph-name="Z" unicode="z" d="M92 0 l0 92 l857 1262 l-716 0 l-8 -205 l-107 0 l0 307 l977 0 l0 -87 l-861 -1268 l778 0 l9 205 l107 0 l0 -306 l-1036 0 Z" /><glyph glyph-name="bracketleft" unicode="[" d="M486 1562 l-210 0 l0 -1772 l210 0 l0 -102 l-329 0 l0 1976 l329 0 l0 -102 Z" /><glyph glyph-name="backslash" unicode="\" d="M36 1456 l116 0 l608 -1581 l-116 0 l-608 1581 Z" /><glyph glyph-name="bracketright" unicode="]" d="M23 1664 l330 0 l0 -1976 l-330 0 l0 102 l210 0 l0 1772 l-210 0 l0 102 Z" /><glyph glyph-name="asciicircum" unicode="^" d="M186 729 l-115 0 l299 727 l89 0 l299 -727 l-116 0 l-197 484 l-29 105 l-6 0 l-30 -105 l-194 -484 Z" /><glyph glyph-name="underscore" unicode="_" d="M1000 -101 l-881 0 l0 101 l881 0 l0 -101 Z" /><glyph glyph-name="grave" unicode="`" d="M442 1210 l-117 0 l-241 261 l2 5 l154 0 l202 -266 Z" /><glyph glyph-name="a" unicode="a" d="M844 0 q-12 55 -17 95 q-5 40 -5 81 q-60 -85 -160 -141 q-100 -56 -225 -56 q-159 0 -246 82 q-87 82 -87 222 q0 150 129 238 q129 88 350 88 l239 0 l0 143 q0 116 -74.5 182 q-74.5 66 -208.5 66 q-90 0 -164.5 -24.5 q-74.5 -24.5 -124.5 -66.5 l-10 -145 l-99 0 l1 208 q75 58 179.5 94 q104.5 36 222.5 36 q179 0 288 -91 q109 -91 109 -261 l0 -532 q0 -33 1.5 -63.5 q1.5 -30.5 6.5 -59.5 l108 -7 l0 -88 l-213 0 ZM450 85 q130 0 229 60 q99 60 143 155 l0 217 l-241 0 q-163 0 -260.5 -67.5 q-97.5 -67.5 -97.5 -170.5 q0 -87 60.5 -140.5 q60.5 -53.5 166.5 -53.5 Z" /><glyph glyph-name="b" unicode="b" d="M1027 511 q0 -243 -110 -387.5 q-110 -144.5 -303 -144.5 q-119 0 -205 47.5 q-86 47.5 -139 136.5 l-13 -163 l-102 0 l0 1458 l-163 13 l0 89 l282 0 l0 -648 q54 91 138 140.5 q84 49.5 200 49.5 q195 0 305 -155.5 q110 -155.5 110 -414.5 l0 -21 ZM906 532 q0 207 -80 336.5 q-80 129.5 -236 129.5 q-126 0 -202.5 -62 q-76.5 -62 -113.5 -159 l0 -489 q40 -94 119.5 -149.5 q79.5 -55.5 198.5 -55.5 q156 0 235 116 q79 116 79 312 l0 21 Z" /><glyph glyph-name="c" unicode="c" d="M559 80 q119 0 210 68 q91 68 91 189 l106 0 l2 -6 q5 -150 -119.5 -251 q-124.5 -101 -289.5 -101 q-220 0 -341 151.5 q-121 151.5 -121 389.5 l0 42 q0 236 121 388 q121 152 340 152 q125 0 229 -47 q104 -47 169 -128 l5 -236 l-102 0 l-19 192 q-48 54 -119.5 85.5 q-71.5 31.5 -162.5 31.5 q-174 0 -257.5 -124.5 q-83.5 -124.5 -83.5 -313.5 l0 -42 q0 -192 83 -316 q83 -124 259 -124 Z" /><glyph glyph-name="d" unicode="d" d="M849 156 q-54 -85 -139 -131 q-85 -46 -200 -46 q-194 0 -303.5 145 q-109.5 145 -109.5 387 l0 21 q0 259 109.5 414.5 q109.5 155.5 305.5 155.5 q113 0 196 -47.5 q83 -47.5 138 -135.5 l0 539 l-163 13 l0 89 l163 0 l120 0 l0 -1459 l163 -13 l0 -88 l-270 0 l-10 156 ZM218 511 q0 -196 78.5 -312 q78.5 -116 236.5 -116 q115 0 192.5 52 q77.5 52 120.5 143 l0 512 q-40 92 -115.5 150 q-75.5 58 -195.5 58 q-158 0 -237.5 -129.5 q-79.5 -129.5 -79.5 -336.5 l0 -21 Z" /><glyph glyph-name="e" unicode="e" d="M574 -21 q-204 0 -338 149.5 q-134 149.5 -134 380.5 l0 55 q0 232 133.5 385 q133.5 153 322.5 153 q199 0 313 -126 q114 -126 114 -336 l0 -102 l-764 0 l0 -29 q0 -182 97.5 -305.5 q97.5 -123.5 255.5 -123.5 q111 0 190 31 q79 31 135 89 l51 -82 q-61 -64 -154 -101.5 q-93 -37.5 -222 -37.5 ZM558 1000 q-132 0 -222.5 -101.5 q-90.5 -101.5 -105.5 -254.5 l2 -5 l634 0 l0 30 q0 141 -83 236 q-83 95 -225 95 Z" /><glyph glyph-name="f" unicode="f" d="M80 984 l0 98 l179 0 l0 158 q0 163 82 252 q82 89 229 89 q32 0 66 -5 q34 -5 69 -14 l-15 -99 q-24 6 -49 9.5 q-25 3.5 -59 3.5 q-98 0 -150.5 -62 q-52.5 -62 -52.5 -174 l0 -158 l258 0 l0 -98 l-258 0 l0 -883 l163 -13 l0 -88 l-446 0 l0 88 l163 13 l0 883 l-179 0 Z" /><glyph glyph-name="g" unicode="g" d="M102 532 q0 259 110.5 414.5 q110.5 155.5 306.5 155.5 q115 0 199.5 -50.5 q84.5 -50.5 139.5 -142.5 l14 173 l101 0 l0 -1068 q0 -209 -113 -330 q-113 -121 -315 -121 q-78 0 -166.5 19 q-88.5 19 -154.5 52 l32 101 q65 -31 136.5 -48 q71.5 -17 150.5 -17 q154 0 232 91 q78 91 78 253 l0 137 q-55 -83 -139 -127.5 q-84 -44.5 -197 -44.5 q-195 0 -305 145 q-110 145 -110 387 l0 21 ZM222 511 q0 -195 79.5 -311.5 q79.5 -116.5 237.5 -116.5 q117 0 194.5 53 q77.5 53 119.5 146 l0 502 q-40 95 -115 154.5 q-75 59.5 -197 59.5 q-158 0 -238.5 -130 q-80.5 -130 -80.5 -336 l0 -21 Z" /><glyph glyph-name="h" unicode="h" d="M62 1471 l0 89 l282 0 l0 -663 q54 97 144 151 q90 54 210 54 q171 0 262.5 -106 q91.5 -106 91.5 -329 l0 -566 l163 -13 l0 -88 l-446 0 l0 88 l163 13 l0 568 q0 176 -69.5 252.5 q-69.5 76.5 -191.5 76.5 q-123 0 -205.5 -64.5 q-82.5 -64.5 -121.5 -171.5 l0 -661 l163 -13 l0 -88 l-445 0 l0 88 l163 13 l0 1357 l-163 13 Z" /><glyph glyph-name="i" unicode="i" d="M89 88 l163 13 l0 879 l-163 13 l0 89 l282 0 l0 -981 l163 -13 l0 -88 l-445 0 l0 88 ZM371 1392 l-119 0 l0 168 l119 0 l0 -168 Z" /><glyph glyph-name="j" unicode="j" d="M402 -89 q0 -167 -80 -257.5 q-80 -90.5 -223 -90.5 q-31 0 -57.5 5 q-26.5 5 -54.5 14 l13 101 q15 -5 42.5 -10 q27.5 -5 49.5 -5 q90 0 140 61.5 q50 61.5 50 181.5 l0 1069 l-163 13 l0 89 l283 0 l0 -1171 ZM396 1396 l-120 0 l0 164 l120 0 l0 -164 Z" /><glyph glyph-name="k" unicode="k" d="M62 1471 l0 89 l282 0 l0 -930 l127 0 l329 351 l-2 5 l-99 7 l0 89 l381 0 l0 -89 l-126 -12 l-370 -393 l421 -489 l120 -11 l0 -88 l-380 0 l0 88 l114 7 l-376 432 l-139 0 l0 -426 l163 -13 l0 -88 l-445 0 l0 88 l163 13 l0 1357 l-163 13 Z" /><glyph glyph-name="l" unicode="l" d="M73 1471 l0 89 l282 0 l0 -1459 l163 -13 l0 -88 l-445 0 l0 88 l163 13 l0 1357 l-163 13 Z" /><glyph glyph-name="m" unicode="m" d="M71 993 l0 89 l269 0 l11 -179 q52 95 139 147 q87 52 207 52 q124 0 207 -60.5 q83 -60.5 119 -184.5 q49 114 139.5 179.5 q90.5 65.5 220.5 65.5 q173 0 267.5 -115 q94.5 -115 94.5 -356 l0 -529 l163 -14 l0 -88 l-447 0 l0 88 l163 14 l0 531 q0 200 -70.5 282.5 q-70.5 82.5 -196.5 82.5 q-140 0 -215.5 -89 q-75.5 -89 -93.5 -227 q0 -8 0.5 -15 q0.5 -7 0.5 -18 l0 -548 l163 -13 l0 -88 l-446 0 l0 88 l163 13 l0 532 q0 196 -71.5 280.5 q-71.5 84.5 -196.5 84.5 q-128 0 -202.5 -64.5 q-74.5 -64.5 -104.5 -173.5 l0 -659 l163 -13 l0 -88 l-446 0 l0 88 l163 13 l0 879 l-163 13 Z" /><glyph glyph-name="n" unicode="n" d="M75 88 l163 13 l0 879 l-163 13 l0 89 l269 0 l11 -189 q52 100 140.5 154.5 q88.5 54.5 209.5 54.5 q176 0 268 -107.5 q92 -107.5 92 -335.5 l0 -558 l163 -13 l0 -88 l-446 0 l0 88 l163 13 l0 557 q0 186 -69.5 263 q-69.5 77 -197.5 77 q-126 0 -205.5 -66.5 q-79.5 -66.5 -114.5 -176.5 l0 -654 l163 -13 l0 -88 l-446 0 l0 88 Z" /><glyph glyph-name="o" unicode="o" d="M97 557 q0 239 131 392 q131 153 347 153 q217 0 348 -153 q131 -153 131 -392 l0 -33 q0 -240 -130.5 -392.5 q-130.5 -152.5 -346.5 -152.5 q-218 0 -349 152.5 q-131 152.5 -131 392.5 l0 33 ZM217 524 q0 -188 95 -316 q95 -128 265 -128 q167 0 262 128 q95 128 95 316 l0 33 q0 185 -95.5 314 q-95.5 129 -263.5 129 q-168 0 -263 -129 q-95 -129 -95 -314 l0 -33 Z" /><glyph glyph-name="p" unicode="p" d="M65 993 l0 89 l263 0 l15 -168 q55 90 140.5 139 q85.5 49 200.5 49 q195 0 305 -155.5 q110 -155.5 110 -414.5 l0 -21 q0 -243 -110 -387.5 q-110 -144.5 -303 -144.5 q-114 0 -199.5 43.5 q-85.5 43.5 -139.5 123.5 l0 -460 l163 -13 l0 -89 l-445 0 l0 89 l163 13 l0 1294 l-163 13 ZM979 532 q0 206 -82 336 q-82 130 -240 130 q-121 0 -196.5 -57.5 q-75.5 -57.5 -113.5 -149.5 l0 -520 q41 -89 118.5 -140 q77.5 -51 193.5 -51 q157 0 238.5 118 q81.5 118 81.5 313 l0 21 Z" /><glyph glyph-name="q" unicode="q" d="M97 532 q0 259 109.5 414.5 q109.5 155.5 305.5 155.5 q112 0 194.5 -46.5 q82.5 -46.5 137.5 -133.5 l12 160 l105 0 l0 -1396 l163 -13 l0 -89 l-446 0 l0 89 l163 13 l0 456 q-55 -79 -138 -121 q-83 -42 -193 -42 q-194 0 -303.5 145 q-109.5 145 -109.5 387 l0 21 ZM218 511 q0 -196 78.5 -313.5 q78.5 -117.5 236.5 -117.5 q112 0 188.5 50.5 q76.5 50.5 119.5 138.5 l0 528 q-42 89 -116.5 146 q-74.5 57 -189.5 57 q-158 0 -237.5 -130.5 q-79.5 -130.5 -79.5 -337.5 l0 -21 Z" /><glyph glyph-name="r" unicode="r" d="M356 1082 l15 -180 l0 -13 q46 100 125.5 156.5 q79.5 56.5 188.5 56.5 q23 0 44.5 -3.5 q21.5 -3.5 35.5 -7.5 l-16 -112 l-89 6 q-113 0 -185.5 -63.5 q-72.5 -63.5 -103.5 -174.5 l0 -646 l163 -13 l0 -88 l-445 0 l0 88 l163 13 l0 879 l-163 13 l0 89 l163 0 l104 0 Z" /><glyph glyph-name="s" unicode="s" d="M882 748 l-98 0 l-14 153 q-45 47 -113.5 73 q-68.5 26 -157.5 26 q-131 0 -196.5 -56.5 q-65.5 -56.5 -65.5 -132.5 q0 -75 56.5 -124 q56.5 -49 225.5 -86 q193 -43 289 -117.5 q96 -74.5 96 -202.5 q0 -135 -109.5 -218.5 q-109.5 -83.5 -289.5 -83.5 q-120 0 -218.5 33.5 q-98.5 33.5 -170.5 94.5 l0 218 l97 0 l17 -154 q48 -48 121.5 -69.5 q73.5 -21.5 153.5 -21.5 q130 0 205 57 q75 57 75 138 q0 76 -62.5 133 q-62.5 57 -225.5 93 q-193 42 -286.5 111.5 q-93.5 69.5 -93.5 194.5 q0 124 105 209.5 q105 85.5 277 85.5 q119 0 217.5 -36.5 q98.5 -36.5 160.5 -98.5 l5 -219 Z" /><glyph glyph-name="t" unicode="t" d="M372 1359 l0 -277 l238 0 l0 -98 l-238 0 l0 -705 q0 -106 38.5 -150.5 q38.5 -44.5 102.5 -44.5 q29 0 56.5 2.5 q27.5 2.5 63.5 8.5 l18 -89 q-30 -13 -73 -20 q-43 -7 -86 -7 q-114 0 -177.5 72 q-63.5 72 -63.5 228 l0 705 l-186 0 l0 98 l186 0 l0 277 l121 0 Z" /><glyph glyph-name="u" unicode="u" d="M892 178 q-51 -95 -139.5 -147 q-88.5 -52 -208.5 -52 q-171 0 -267.5 116 q-96.5 116 -96.5 360 l0 525 l-134 13 l0 89 l134 0 l119 0 l0 -629 q0 -198 67.5 -284 q67.5 -86 191.5 -86 q136 0 216.5 60 q80.5 60 113.5 166 l0 671 l-154 13 l0 89 l154 0 l120 0 l0 -981 l145 -13 l0 -88 l-250 0 l-11 178 Z" /><glyph glyph-name="v" unicode="v" d="M411 993 l-135 -10 l270 -712 l35 -127 l6 0 l38 127 l266 712 l-135 10 l0 89 l364 0 l0 -89 l-106 -9 l-382 -984 l-96 0 l-383 984 l-106 9 l0 89 l364 0 l0 -89 Z" /><glyph glyph-name="w" unicode="w" d="M419 993 l-136 -11 l175 -631 l41 -193 l6 0 l51 193 l231 731 l102 0 l231 -731 l52 -198 l6 0 l45 198 l170 631 l-136 11 l0 89 l364 0 l0 -89 l-105 -8 l-287 -985 l-102 0 l-241 740 l-47 187 l-6 0 l-47 -187 l-237 -740 l-102 0 l-286 985 l-105 8 l0 89 l363 0 l0 -89 Z" /><glyph glyph-name="x" unicode="x" d="M73 88 l121 11 l342 452 l-326 431 l-122 11 l0 89 l367 0 l0 -89 l-112 -6 l258 -347 l259 348 l-111 5 l0 89 l367 0 l0 -89 l-121 -11 l-326 -431 l341 -452 l122 -11 l0 -88 l-366 0 l0 88 l111 5 l-275 368 l-274 -368 l111 -5 l0 -88 l-366 0 l0 88 Z" /><glyph glyph-name="y" unicode="y" d="M1135 993 l-110 -9 l-437 -1157 q-42 -110 -109 -187 q-67 -77 -196 -77 q-21 0 -51 4.5 q-30 4.5 -44 9.5 l14 100 q12 -2 38.5 -4.5 q26.5 -2.5 37.5 -2.5 q79 0 125 55 q46 55 81 143 l56 145 l-384 971 l-110 9 l0 89 l372 0 l0 -89 l-129 -10 l264 -690 l38 -130 l6 0 l296 820 l-132 10 l0 89 l374 0 l0 -89 Z" /><glyph glyph-name="z" unicode="z" d="M263 101 l588 0 l9 205 l107 0 l0 -306 l-851 0 l0 88 l652 891 l-534 0 l-8 -204 l-107 0 l0 307 l800 0 l0 -89 l-656 -892 Z" /><glyph glyph-name="braceleft" unicode="{" d="M631 -404 q-183 55 -260 173.5 q-77 118.5 -77 288.5 l0 226 q0 122 -56.5 190.5 q-56.5 68.5 -174.5 68.5 l0 104 q118 0 174.5 67.5 q56.5 67.5 56.5 189.5 l0 228 q0 171 77 290.5 q77 119.5 260 174.5 l27 -79 q-128 -41 -186.5 -141.5 q-58.5 -100.5 -58.5 -244.5 l0 -228 q0 -110 -45.5 -191 q-45.5 -81 -137.5 -118 q92 -39 137.5 -120.5 q45.5 -81.5 45.5 -190.5 l0 -226 q0 -143 59.5 -241.5 q59.5 -98.5 187.5 -140.5 l-29 -80 Z" /><glyph glyph-name="bar" unicode="|" d="M251 -270 l-101 0 l0 1726 l101 0 l0 -1726 Z" /><glyph glyph-name="braceright" unicode="}" d="M27 -324 q127 42 186.5 141 q59.5 99 59.5 241 l0 226 q0 112 47.5 193 q47.5 81 146.5 117 q-99 35 -146.5 116 q-47.5 81 -47.5 194 l0 228 q0 144 -58.5 244.5 q-58.5 100.5 -185.5 141.5 l26 79 q182 -55 260 -174.5 q78 -119.5 78 -290.5 l0 -228 q0 -122 56 -189.5 q56 -67.5 175 -67.5 l0 -104 q-119 0 -175 -68.5 q-56 -68.5 -56 -190.5 l0 -226 q0 -170 -77.5 -288.5 q-77.5 -118.5 -260.5 -173.5 l-28 80 Z" /><glyph glyph-name="asciitilde" unicode="~" d="M1234 740 q0 -129 -81 -223 q-81 -94 -201 -94 q-88 0 -160.5 35.5 q-72.5 35.5 -160.5 114.5 q-64 53 -119 80 q-55 27 -111 27 q-79 0 -131.5 -60.5 q-52.5 -60.5 -52.5 -160.5 l-96 15 q0 131 79 222 q79 91 201 91 q87 0 161 -37.5 q74 -37.5 162 -112.5 q64 -57 117 -82.5 q53 -25.5 111 -25.5 q76 0 130.5 64.5 q54.5 64.5 54.5 161.5 l97 -15 Z" /><glyph glyph-name="exclamdown" unicode="¡" d="M272 -374 l-119 0 l0 978 l119 0 l0 -978 ZM284 898 l-142 0 l0 184 l142 0 l0 -184 Z" /><glyph glyph-name="cent" unicode="¢" d="M586 80 q119 0 210 68 q91 68 91 189 l107 0 l2 -6 q4 -135 -99.5 -232.5 q-103.5 -97.5 -250.5 -115.5 l0 -228 l-120 0 l0 228 q-193 21 -297.5 169 q-104.5 148 -104.5 368 l0 42 q0 219 104.5 366.5 q104.5 147.5 297.5 169.5 l0 220 l120 0 l0 -219 q106 -12 193 -57 q87 -45 144 -115 l5 -236 l-102 0 l-19 192 q-48 54 -119.5 85.5 q-71.5 31.5 -162.5 31.5 q-174 0 -257.5 -124.5 q-83.5 -124.5 -83.5 -313.5 l0 -42 q0 -192 83 -316 q83 -124 259 -124 Z" /><glyph glyph-name="sterling" unicode="£" d="M132 0 l0 101 l10 0 q70 15 104.5 129.5 q34.5 114.5 34.5 235.5 l-7 176 l-206 0 l0 102 l203 0 l-11 296 q0 204 106 320.5 q106 116.5 284 116.5 q186 0 280 -103.5 q94 -103.5 91 -277.5 l-3 -6 l-111 0 q0 148 -69 216.5 q-69 68.5 -188 68.5 q-125 0 -198 -88 q-73 -88 -73 -247 l11 -296 l451 0 l0 -102 l-448 0 l7 -176 q0 -107 -25.5 -204 q-25.5 -97 -71.5 -161 l654 0 l10 205 l106 0 l0 -306 l-941 0 Z" /><glyph glyph-name="currency" unicode="¤" d="M1116 133 q-81 -74 -181.5 -113.5 q-100.5 -39.5 -210.5 -39.5 q-111 0 -211 39.5 q-100 39.5 -179 112.5 l-155 -158 l-85 86 l159 161 q-60 81 -92 179 q-32 98 -32 208 q0 112 34.5 214 q34.5 102 98.5 184 l-168 171 l85 87 l166 -170 q78 67 175 103.5 q97 36.5 204 36.5 q106 0 203.5 -37 q97.5 -37 176.5 -104 l169 172 l87 -88 l-171 -175 q62 -82 96 -182.5 q34 -100.5 34 -211.5 q0 -108 -32 -206.5 q-32 -98.5 -90 -177.5 l163 -164 l-87 -87 l-157 160 ZM242 608 q0 -215 141 -366 q141 -151 341 -151 q198 0 339.5 151 q141.5 151 141.5 366 q0 213 -141.5 363.5 q-141.5 150.5 -339.5 150.5 q-200 0 -341 -150.5 q-141 -150.5 -141 -363.5 Z" /><glyph glyph-name="yen" unicode="¥" d="M1327 1367 l-132 -10 l-395 -652 l371 0 l0 -87 l-420 0 l0 -206 l420 0 l0 -86 l-420 0 l0 -225 l163 -13 l0 -88 l-446 0 l0 88 l163 13 l0 225 l-415 0 l0 86 l415 0 l0 206 l-415 0 l0 87 l369 0 l-395 652 l-131 10 l0 89 l373 0 l0 -89 l-106 -9 l367 -626 l366 626 l-106 9 l0 89 l374 0 l0 -89 Z" /><glyph glyph-name="brokenbar" unicode="¦" d="M150 -270 l0 771 l119 0 l0 -771 l-119 0 ZM269 698 l-119 0 l0 758 l119 0 l0 -758 Z" /><glyph glyph-name="section" unicode="§" d="M1100 431 q0 -98 -61 -168.5 q-61 -70.5 -171 -103.5 q94 -50 141 -120.5 q47 -70.5 47 -177.5 q0 -166 -127 -261 q-127 -95 -342 -95 q-212 0 -357 102.5 q-145 102.5 -140 322.5 l2 6 l111 2 q0 -173 113 -252 q113 -79 271 -79 q163 0 256 70.5 q93 70.5 93 181.5 q0 106 -77.5 166 q-77.5 60 -292.5 121 q-242 61 -359 149 q-117 88 -117 256 q0 98 58.5 169 q58.5 71 164.5 105 q-90 49 -134 119.5 q-44 70.5 -44 175.5 q0 161 128 259 q128 98 342 98 q222 0 346.5 -111.5 q124.5 -111.5 120.5 -313.5 l-2 -6 l-112 0 q0 141 -94 235 q-94 94 -259 94 q-173 0 -262 -71 q-89 -71 -89 -181 q0 -114 74 -173 q74 -59 299 -122 q247 -65 360 -148.5 q113 -83.5 113 -248.5 ZM577 729 q-40 9 -75.5 19.5 q-35.5 10.5 -66.5 22.5 q-113 -14 -169.5 -73 q-56.5 -59 -56.5 -145 q0 -116 79 -175 q79 -59 323 -127 q34 -10 65 -19 q31 -9 60 -18 q115 13 180 71.5 q65 58.5 65 142.5 q0 107 -85.5 170 q-85.5 63 -318.5 131 Z" /><glyph glyph-name="dieresis" unicode="¨" d="M795 1299 l-173 0 l0 157 l173 0 l0 -157 ZM326 1299 l-174 0 l0 157 l174 0 l0 -157 Z" /><glyph glyph-name="copyright" unicode="©" d="M1098 596 l2 -6 q4 -150 -78.5 -229 q-82.5 -79 -230.5 -79 q-151 0 -242 106.5 q-91 106.5 -91 280.5 l0 119 q0 172 91 279.5 q91 107.5 242 107.5 q148 0 231 -79 q83 -79 79 -228 l-2 -6 l-91 0 q0 113 -55.5 168 q-55.5 55 -161.5 55 q-110 0 -171.5 -83.5 q-61.5 -83.5 -61.5 -212.5 l0 -120 q0 -132 61.5 -214.5 q61.5 -82.5 171.5 -82.5 q107 0 161.5 54 q54.5 54 54.5 170 l91 0 ZM177 729 q0 -279 182.5 -471.5 q182.5 -192.5 442.5 -192.5 q257 0 440 192.5 q183 192.5 183 471.5 q0 277 -182.5 468.5 q-182.5 191.5 -440.5 191.5 q-260 0 -442.5 -191.5 q-182.5 -191.5 -182.5 -468.5 ZM92 729 q0 315 207 531 q207 216 503 216 q295 0 502 -216 q207 -216 207 -531 q0 -316 -207.5 -533 q-207.5 -217 -501.5 -217 q-296 0 -503 217 q-207 217 -207 533 Z" /><glyph glyph-name="ordfeminine" unicode="ª" d="M620 706 q-9 25 -14.5 52.5 q-5.5 27.5 -7.5 55.5 q-37 -53 -98.5 -87.5 q-61.5 -34.5 -144.5 -34.5 q-119 0 -184 61 q-65 61 -65 167 q0 105 78.5 163 q78.5 58 228.5 58 l183 0 l0 61 q0 85 -41.5 131.5 q-41.5 46.5 -120.5 46.5 q-92 0 -142 -37.5 q-50 -37.5 -50 -108.5 l-100 9 l-2 6 q-5 98 77.5 163 q82.5 65 216.5 65 q124 0 197.5 -71.5 q73.5 -71.5 73.5 -204.5 l0 -314 q0 -50 6 -94 q6 -44 20 -87 l-111 0 ZM374 787 q70 0 136 38.5 q66 38.5 86 85.5 l0 146 l-182 0 q-95 0 -147.5 -38.5 q-52.5 -38.5 -52.5 -94.5 q0 -66 39 -101.5 q39 -35.5 121 -35.5 Z" /><glyph glyph-name="logicalnot" unicode="¬" d="M932 386 l-119 0 l0 284 l-692 0 l0 106 l811 0 l0 -390 Z" /><glyph glyph-name="registered" unicode="®" d="M92 729 q0 315 207 531 q207 216 503 216 q295 0 502 -216 q207 -216 207 -531 q0 -316 -207.5 -533 q-207.5 -217 -501.5 -217 q-296 0 -503 217 q-207 217 -207 533 ZM177 729 q0 -279 182.5 -471.5 q182.5 -192.5 442.5 -192.5 q257 0 440 192.5 q183 192.5 183 471.5 q0 277 -182.5 468.5 q-182.5 191.5 -440.5 191.5 q-260 0 -442.5 -191.5 q-182.5 -191.5 -182.5 -468.5 ZM639 672 l0 -356 l-98 0 l0 850 l258 0 q147 0 226 -63 q79 -63 79 -185 q0 -68 -36.5 -117 q-36.5 -49 -104.5 -80 q68 -25 98 -78 q30 -53 30 -128 l0 -56 q0 -40 4 -73 q4 -33 13 -54 l0 -16 l-102 0 q-9 21 -11 61.5 q-2 40.5 -2 82.5 l0 54 q0 84 -38.5 121 q-38.5 37 -127.5 37 l-188 0 ZM639 763 l181 0 q79 0 133 40.5 q54 40.5 54 112.5 q0 85 -46.5 122 q-46.5 37 -161.5 37 l-160 0 l0 -312 Z" /><glyph glyph-name="macron" unicode="¯&#x2c9;" d="M824 1359 l-670 0 l0 97 l670 0 l0 -97 Z" /><glyph glyph-name="degree" unicode="°" d="M124 1227 q0 102 72 176 q72 74 173 74 q98 0 169.5 -74 q71.5 -74 71.5 -176 q0 -104 -71 -175.5 q-71 -71.5 -170 -71.5 q-102 0 -173.5 71.5 q-71.5 71.5 -71.5 175.5 ZM213 1227 q0 -67 45 -111.5 q45 -44.5 111 -44.5 q65 0 108.5 44 q43.5 44 43.5 112 q0 68 -43.5 113.5 q-43.5 45.5 -108.5 45.5 q-66 0 -111 -46 q-45 -46 -45 -113 Z" /><glyph glyph-name="plusminus" unicode="±" d="M600 829 l391 0 l0 -101 l-391 0 l0 -439 l-111 0 l0 439 l-414 0 l0 101 l414 0 l0 438 l111 0 l0 -438 ZM1017 48 l-835 0 l0 102 l835 0 l0 -102 Z" /><glyph glyph-name="twosuperior" unicode="²" d="M683 667 l-570 0 l0 90 l315 282 q77 70 104 115 q27 45 27 92 q0 65 -38.5 103.5 q-38.5 38.5 -117.5 38.5 q-87 0 -134 -42 q-47 -42 -47 -108 l-100 0 l-2 6 q-6 97 72.5 166 q78.5 69 210.5 69 q124 0 195 -60.5 q71 -60.5 71 -173.5 q0 -75 -47 -136 q-47 -61 -150 -158 l-215 -188 l3 -6 l423 0 l0 -90 Z" /><glyph glyph-name="threesuperior" unicode="³" d="M398 1119 q88 0 130 35 q42 35 42 99 q0 59 -45 96.5 q-45 37.5 -133 37.5 q-75 0 -124 -35.5 q-49 -35.5 -49 -93.5 l-100 0 l-2 6 q-6 94 75 154 q81 60 200 60 q133 0 210 -58.5 q77 -58.5 77 -166.5 q0 -59 -35.5 -105.5 q-35.5 -46.5 -99.5 -71.5 q73 -22 111 -70.5 q38 -48.5 38 -119.5 q0 -109 -83.5 -170 q-83.5 -61 -217.5 -61 q-120 0 -206.5 58.5 q-86.5 58.5 -81.5 168.5 l2 6 l101 0 q0 -63 51 -103 q51 -40 134 -40 q90 0 141 38 q51 38 51 103 q0 75 -46.5 109.5 q-46.5 34.5 -139.5 34.5 l-123 0 l0 89 l123 0 Z" /><glyph glyph-name="acute" unicode="´" d="M301 1478 l147 0 l3 -6 l-249 -260 l-107 0 l206 266 Z" /><glyph glyph-name="mu" unicode="µ" d="M347 1082 l0 -633 q0 -207 71 -288 q71 -81 192 -81 q137 0 212 59.5 q75 59.5 103 170.5 l0 670 l-163 13 l0 89 l283 0 l0 -981 l163 -13 l0 -88 l-266 0 l-11 155 q-48 -85 -126 -130.5 q-78 -45.5 -187 -45.5 q-88 0 -157 30 q-69 30 -114 96 l0 -521 l-118 0 l0 1396 l-163 13 l0 89 l163 0 l118 0 Z" /><glyph glyph-name="paragraph" unicode="¶" d="M513 88 l163 13 l0 419 l-106 0 q-234 0 -363 129.5 q-129 129.5 -129 338.5 q0 207 129.5 337.5 q129.5 130.5 362.5 130.5 l225 0 l0 -1355 l163 -13 l0 -88 l-445 0 l0 88 ZM958 1456 l0 -89 l-163 -13 l0 102 l163 0 Z" /><glyph glyph-name="periodcentered" unicode="·" d="M313 624 l-154 0 l0 180 l154 0 l0 -180 Z" /><glyph glyph-name="cedilla" unicode="¸" d="M250 0 l-11 -64 q79 -9 127.5 -48.5 q48.5 -39.5 48.5 -122.5 q0 -91 -79 -145.5 q-79 -54.5 -226 -54.5 l-7 78 q89 0 150.5 30.5 q61.5 30.5 61.5 89.5 q0 57 -41 79.5 q-41 22.5 -145 30.5 l28 127 l93 0 Z" /><glyph glyph-name="onesuperior" unicode="¹" d="M348 665 l-109 0 l0 703 l-148 -7 l0 93 l257 23 l0 -812 Z" /><glyph glyph-name="ordmasculine" unicode="º" d="M121 1142 q0 148 87.5 241.5 q87.5 93.5 234.5 93.5 q149 0 236.5 -93.5 q87.5 -93.5 87.5 -241.5 l0 -117 q0 -149 -87.5 -241.5 q-87.5 -92.5 -234.5 -92.5 q-149 0 -236.5 92.5 q-87.5 92.5 -87.5 241.5 l0 117 ZM229 1025 q0 -107 54.5 -173 q54.5 -66 161.5 -66 q103 0 158.5 66.5 q55.5 66.5 55.5 172.5 l0 117 q0 104 -56 171 q-56 67 -160 67 q-104 0 -159 -67 q-55 -67 -55 -171 l0 -117 Z" /><glyph glyph-name="questiondown" unicode="¿" d="M521 678 q-2 -131 -23.5 -183 q-21.5 -52 -113.5 -136 q-109 -113 -158 -188.5 q-49 -75.5 -49 -189.5 q0 -128 67.5 -198 q67.5 -70 194.5 -70 q117 0 189 68.5 q72 68.5 74 185.5 l112 0 l2 -6 q2 -165 -105 -260 q-107 -95 -272 -95 q-180 0 -280.5 101 q-100.5 101 -100.5 273 q0 134 65.5 238 q65.5 104 188.5 219 q61 52 75 98.5 q14 46.5 14 142.5 l120 0 ZM385 1083 l139 0 l0 -155 l-139 0 l0 155 Z" /><glyph glyph-name="AE" unicode="æ" d="M51 88 l130 10 l822 1358 l864 0 l0 -307 l-107 0 l-9 205 l-578 0 l23 -545 l589 0 l0 -102 l-585 0 l26 -606 l587 0 l9 205 l106 0 l0 -306 l-980 0 l0 88 l158 12 l-12 289 l-597 0 l-172 -293 l106 -8 l0 -88 l-380 0 l0 88 ZM564 502 l526 0 l-35 839 l-6 1 l-15 -44 l-470 -796 Z" /><glyph glyph-name="multiply" unicode="×" d="M79 318 l357 365 l-343 350 l79 80 l343 -350 l343 350 l79 -80 l-344 -350 l359 -365 l-79 -79 l-358 364 l-357 -364 l-79 79 Z" /><glyph glyph-name="Oslash" unicode="ø" d="M1351 718 q0 -328 -175 -533.5 q-175 -205.5 -455 -205.5 q-98 0 -185 27.5 q-87 27.5 -158 80.5 l-105 -171 l-104 0 l141 229 q-101 99 -155.5 246.5 q-54.5 147.5 -54.5 326.5 l0 19 q0 327 172 533.5 q172 206.5 448 206.5 q96 0 183.5 -27 q87.5 -27 161.5 -78 l82 133 l104 0 l-117 -191 q103 -100 160 -249 q57 -149 57 -328 l0 -19 ZM1231 739 q0 148 -40.5 270.5 q-40.5 122.5 -113.5 202.5 l-6 1 l-637 -1035 q59 -47 131 -71 q72 -24 156 -24 q237 0 373.5 174.5 q136.5 174.5 136.5 460.5 l0 21 ZM220 718 q0 -148 38 -269.5 q38 -121.5 109 -200.5 l6 -1 l635 1033 q-60 44 -132.5 68 q-72.5 24 -155.5 24 q-231 0 -365.5 -175 q-134.5 -175 -134.5 -458 l0 -21 Z" /><glyph glyph-name="Thorn" unicode="þ" d="M70 1367 l0 89 l282 0 l163 0 l0 -89 l-163 -13 l0 -202 l324 0 q221 0 345 -115 q124 -115 124 -299 q0 -185 -123.5 -299.5 q-123.5 -114.5 -345.5 -114.5 l-324 0 l0 -223 l163 -13 l0 -88 l-445 0 l0 88 l163 13 l0 1253 l-163 13 ZM352 1051 l0 -626 l324 0 q173 0 261.5 92 q88.5 92 88.5 219 q0 130 -88 222.5 q-88 92.5 -262 92.5 l-324 0 Z" /><glyph glyph-name="germandbls" unicode="ß" d="M337 0 l-282 0 l0 88 l163 13 l0 981 q0 204 102 317 q102 113 273 113 q140 0 232 -79.5 q92 -79.5 92 -222.5 q0 -109 -61.5 -215.5 q-61.5 -106.5 -61.5 -184.5 q0 -86 184 -228 q184 -142 184 -287 q0 -153 -109.5 -234.5 q-109.5 -81.5 -266.5 -81.5 q-86 0 -176.5 23.5 q-90.5 23.5 -129.5 56.5 l34 101 q40 -31 114.5 -55.5 q74.5 -24.5 143.5 -24.5 q125 0 197.5 60 q72.5 60 72.5 155 q0 99 -184 240.5 q-184 141.5 -184 276.5 q0 93 63 201.5 q63 108.5 63 190.5 q0 92 -59.5 149.5 q-59.5 57.5 -137.5 57.5 q-121 0 -193.5 -85.5 q-72.5 -85.5 -72.5 -243.5 l0 -1082 Z" /><glyph glyph-name="ae" unicode="æ" d="M1285 -21 q-138 0 -241 55.5 q-103 55.5 -163 157.5 q-49 -87 -159.5 -150 q-110.5 -63 -269.5 -63 q-170 0 -262.5 84.5 q-92.5 84.5 -92.5 229.5 q0 158 113 248.5 q113 90.5 325 90.5 l263 0 l0 88 q0 134 -63.5 207 q-63.5 73 -187.5 73 q-135 0 -213 -67 q-78 -67 -78 -168 l-110 12 l-2 6 q-5 138 106 228.5 q111 90.5 297 90.5 q125 0 213 -54 q88 -54 129 -157 q61 99 156 155 q95 56 210 56 q200 0 311.5 -124 q111.5 -124 111.5 -340 l0 -100 l-755 0 l0 -29 q0 -191 90 -310 q90 -119 272 -119 q103 0 181 32.5 q78 32.5 142 86.5 l48 -87 q-60 -55 -148.5 -94 q-88.5 -39 -222.5 -39 ZM469 79 q102 0 197.5 53.5 q95.5 53.5 131.5 115.5 l0 288 l-261 0 q-155 0 -237.5 -71 q-82.5 -71 -82.5 -176 q0 -97 64.5 -153.5 q64.5 -56.5 187.5 -56.5 ZM1255 1000 q-138 0 -224.5 -101.5 q-86.5 -101.5 -99.5 -257.5 l2 -5 l625 0 l0 31 q0 146 -77 239.5 q-77 93.5 -226 93.5 Z" /><glyph glyph-name="eth" unicode="ð" d="M807 1299 q111 -121 168.5 -289.5 q57.5 -168.5 57.5 -386.5 l0 -88 q0 -245 -137 -400.5 q-137 -155.5 -344 -155.5 q-207 0 -340.5 137 q-133.5 137 -133.5 339 q0 235 130 372.5 q130 137.5 347 137.5 q104 0 193.5 -40 q89.5 -40 143.5 -107 l4 5 q-18 131 -68 234 q-50 103 -126 182 l-308 -176 l-51 74 l288 164 q-45 33 -94.5 61 q-49.5 28 -103.5 51 l38 104 q77 -30 144 -68.5 q67 -38.5 124 -85.5 l258 148 l51 -74 l-241 -138 ZM914 625 q0 9 -0.5 27 q-0.5 18 -0.5 27 q-37 77 -127.5 129.5 q-90.5 52.5 -230.5 52.5 q-172 0 -264.5 -115 q-92.5 -115 -92.5 -291 q0 -149 97 -261 q97 -112 261 -112 q159 0 258.5 127.5 q99.5 127.5 99.5 325.5 l0 90 Z" /><glyph glyph-name="divide" unicode="÷" d="M1072 644 l-998 0 l0 116 l998 0 l0 -116 ZM650 1010 l-142 0 l0 160 l142 0 l0 -160 ZM650 212 l-142 0 l0 160 l142 0 l0 -160 Z" /><glyph glyph-name="oslash" unicode="ø" d="M97 557 q0 239 131 392 q131 153 347 153 q62 0 119 -14.5 q57 -14.5 108 -40.5 l86 167 l93 0 l-110 -214 q87 -73 135 -188 q48 -115 48 -255 l0 -33 q0 -240 -130.5 -392.5 q-130.5 -152.5 -346.5 -152.5 q-58 0 -110 11 q-52 11 -98 34 l-84 -164 l-93 0 l106 207 q-96 71 -148.5 190 q-52.5 119 -52.5 267 l0 33 ZM217 524 q0 -110 33.5 -202.5 q33.5 -92.5 96.5 -147.5 l6 0 l399 776 q-38 24 -82.5 37 q-44.5 13 -94.5 13 q-168 0 -263 -129 q-95 -129 -95 -314 l0 -33 ZM934 557 q0 100 -30 187.5 q-30 87.5 -85 144.5 l-5 0 l-397 -771 q34 -19 74 -28.5 q40 -9.5 86 -9.5 q167 0 262 128 q95 128 95 316 l0 33 Z" /><glyph glyph-name="thorn" unicode="þ" d="M47 -327 l163 13 l0 1772 l-163 13 l0 89 l282 0 l0 -640 q54 87 138.5 134.5 q84.5 47.5 198.5 47.5 q195 0 305 -155.5 q110 -155.5 110 -414.5 l0 -21 q0 -243 -110 -387.5 q-110 -144.5 -303 -144.5 q-114 0 -199.5 43.5 q-85.5 43.5 -139.5 123.5 l0 -460 l163 -13 l0 -89 l-445 0 l0 89 ZM961 532 q0 206 -82 336 q-82 130 -240 130 q-121 0 -196.5 -57.5 q-75.5 -57.5 -113.5 -149.5 l0 -520 q41 -89 118.5 -140 q77.5 -51 193.5 -51 q157 0 238.5 118 q81.5 118 81.5 313 l0 21 Z" /><glyph glyph-name="Hbar" unicode="&#x126;" d="M1437 1456 l0 -89 l-163 -13 l0 -264 l134 0 l0 -97 l-134 0 l0 -892 l163 -13 l0 -88 l-445 0 l0 88 l163 13 l0 569 l-828 0 l0 -569 l163 -13 l0 -88 l-445 0 l0 88 l163 13 l0 892 l-159 0 l0 97 l159 0 l0 264 l-163 13 l0 89 l445 0 l0 -89 l-163 -13 l0 -264 l828 0 l0 264 l-163 13 l0 89 l163 0 l119 0 l163 0 ZM327 772 l828 0 l0 221 l-828 0 l0 -221 Z" /><glyph glyph-name="dotlessi" unicode="&#x131;" d="M90 993 l0 89 l282 0 l0 -981 l163 -13 l0 -88 l-445 0 l0 88 l163 13 l0 879 l-163 13 Z" /><glyph glyph-name="kgreenlandic" unicode="&#x138;" d="M62 88 l163 13 l0 878 l-159 14 l0 88 l278 0 l0 -451 l127 0 l340 351 l-2 5 l-97 7 l0 89 l382 0 l0 -89 l-127 -12 l-382 -394 l420 -488 l120 -11 l0 -88 l-183 0 l-459 527 l-139 0 l0 -426 l163 -13 l0 -88 l-445 0 l0 88 Z" /><glyph glyph-name="Lslash" unicode="&#x141;" d="M517 1456 l0 -89 l-163 -13 l0 -542 l306 97 l0 -108 l-306 -97 l0 -603 l605 0 l9 205 l106 0 l0 -306 l-1003 0 l0 88 l163 13 l0 565 l-163 -52 l0 108 l163 52 l0 580 l-163 13 l0 89 l283 0 l163 0 Z" /><glyph glyph-name="lslash" unicode="&#x142;" d="M344 856 l187 74 l0 -109 l-187 -74 l0 -646 l163 -13 l0 -88 l-445 0 l0 88 l163 13 l0 599 l-168 -66 l0 109 l168 66 l0 649 l-163 13 l0 89 l282 0 l0 -704 Z" /><glyph glyph-name="Eng" unicode="&#x14a;" d="M70 1367 l0 89 l282 0 l828 -1245 l6 1 l0 1142 l-163 13 l0 89 l163 0 l120 0 l163 0 l0 -89 l-163 -13 l0 -1443 q0 -167 -80.5 -257.5 q-80.5 -90.5 -223.5 -90.5 q-31 0 -57 5 q-26 5 -55 14 l13 99 q15 -5 46 -10.5 q31 -5.5 53 -5.5 q87 0 135.5 64.5 q48.5 64.5 48.5 181.5 l0 89 l-828 1246 l-6 -1 l0 -1144 l163 -13 l0 -88 l-445 0 l0 88 l163 13 l0 1253 l-163 13 Z" /><glyph glyph-name="eng" unicode="&#x14b;" d="M90 993 l0 89 l269 0 l10 -185 q53 97 140.5 151 q87.5 54 206.5 54 q176 0 268 -107 q92 -107 92 -336 l0 -748 q0 -167 -80.5 -257.5 q-80.5 -90.5 -223.5 -90.5 q-34 0 -62.5 5 q-28.5 5 -60.5 14 l13 103 q16 -5 50.5 -10 q34.5 -5 59.5 -5 q88 0 136 62.5 q48 62.5 48 178.5 l0 747 q0 186 -69.5 263 q-69.5 77 -197.5 77 q-125 0 -203 -60.5 q-78 -60.5 -114 -163.5 l0 -673 l163 -13 l0 -88 l-445 0 l0 88 l163 13 l0 879 l-163 13 Z" /><glyph glyph-name="OE" unicode="&#x152;" d="M963 0 q-99 -10 -168.5 -15.5 q-69.5 -5.5 -142.5 -5.5 q-240 0 -389 166 q-149 166 -149 431 l0 304 q0 265 148.5 431 q148.5 166 387.5 166 q75 0 151.5 -6 q76.5 -6 161.5 -15 l889 0 l0 -320 l-106 0 l-9 218 l-683 0 l0 -547 l597 0 l0 -102 l-597 0 l0 -604 l688 0 l9 218 l106 0 l0 -319 l-894 0 ZM652 81 q29 0 59.5 0.5 q30.5 0.5 60.5 2.5 l0 4 l163 13 l0 1253 l-163 13 l0 5 q-30 1 -61 2 q-31 1 -61 1 q-192 0 -304 -132 q-112 -132 -112 -361 l0 -306 q0 -228 113.5 -361.5 q113.5 -133.5 304.5 -133.5 Z" /><glyph glyph-name="oe" unicode="&#x153;" d="M104 557 q0 239 130.5 392 q130.5 153 346.5 153 q146 0 255.5 -72.5 q109.5 -72.5 168.5 -199.5 q59 125 166 198.5 q107 73.5 234 73.5 q199 0 313 -126 q114 -126 114 -336 l0 -102 l-764 0 l0 -29 q0 -183 97 -306 q97 -123 255 -123 q112 0 191 31 q79 31 135 89 l51 -82 q-61 -64 -154.5 -101.5 q-93.5 -37.5 -222.5 -37.5 q-138 0 -248 72 q-110 72 -169 197 q-58 -126 -167 -197.5 q-109 -71.5 -253 -71.5 q-217 0 -348 152.5 q-131 152.5 -131 392.5 l0 33 ZM223 524 q0 -188 95 -316 q95 -128 265 -128 q167 0 262.5 128 q95.5 128 95.5 316 l0 33 q0 185 -96 314 q-96 129 -264 129 q-168 0 -263 -129 q-95 -129 -95 -314 l0 -33 ZM1405 1000 q-132 0 -222.5 -101.5 q-90.5 -101.5 -105.5 -254.5 l2 -5 l634 0 l0 30 q0 141 -83 236 q-83 95 -225 95 Z" /><glyph glyph-name="longs" unicode="&#x17f;" d="M220 1240 q0 163 81.5 252 q81.5 89 228.5 89 q33 0 67 -5 q34 -5 68 -14 l-15 -96 q-25 6 -49 9.5 q-24 3.5 -56 3.5 q-98 0 -152 -63.5 q-54 -63.5 -54 -175.5 l0 -1139 l163 -13 l0 -88 l-445 0 l0 88 l163 13 l0 1139 l0 0 Z" /><glyph glyph-name="florin" unicode="&#x192;" d="M657 984 l-245 0 l0 -1073 q0 -167 -80 -257.5 q-80 -90.5 -223 -90.5 q-31 0 -57.5 5 q-26.5 5 -54.5 14 l13 99 q15 -6 46 -11 q31 -5 53 -5 q87 0 135 65 q48 65 48 181 l0 1073 l-179 0 l0 98 l179 0 l0 158 q0 163 82 252 q82 89 229 89 q32 0 66 -5 q34 -5 69 -14 l-15 -99 q-24 6 -49 9.5 q-25 3.5 -59 3.5 q-98 0 -150.5 -62 q-52.5 -62 -52.5 -174 l0 -158 l245 0 l0 -98 Z" /><glyph glyph-name="Ohorn" unicode="&#x1a0;" d="M1349 718 q0 -328 -175 -533.5 q-175 -205.5 -455 -205.5 q-276 0 -448.5 206 q-172.5 206 -172.5 533 l0 19 q0 327 172 533.5 q172 206.5 448 206.5 q135 0 249 -51.5 q114 -51.5 198 -146.5 q111 9 156 80 q45 71 45 207 l111 0 q0 -160 -61 -253.5 q-61 -93.5 -187 -118.5 q58 -94 89 -209.5 q31 -115.5 31 -247.5 l0 -19 ZM1229 739 q0 283 -138 458 q-138 175 -373 175 q-231 0 -365.5 -175 q-134.5 -175 -134.5 -458 l0 -21 q0 -285 135 -460 q135 -175 366 -175 q237 0 373.5 174.5 q136.5 174.5 136.5 460.5 l0 21 Z" /><glyph glyph-name="ohorn" unicode="&#x1a1;" d="M103 557 q0 239 131 392 q131 153 347 153 q103 0 189.5 -37.5 q86.5 -37.5 150.5 -105.5 q92 9 123.5 66.5 q31.5 57.5 31.5 172.5 l103 0 q0 -136 -47.5 -215 q-47.5 -79 -154.5 -101 q40 -68 61.5 -151 q21.5 -83 21.5 -174 l0 -33 q0 -240 -130.5 -392.5 q-130.5 -152.5 -346.5 -152.5 q-218 0 -349 152.5 q-131 152.5 -131 392.5 l0 33 ZM223 524 q0 -188 95 -316 q95 -128 265 -128 q167 0 262 128 q95 128 95 316 l0 33 q0 185 -95.5 314 q-95.5 129 -263.5 129 q-168 0 -263 -129 q-95 -129 -95 -314 l0 -33 Z" /><glyph glyph-name="Uhorn" unicode="&#x1af;" d="M1244 1456 l0 -202 l6 -1 q126 1 175.5 74.5 q49.5 73.5 49.5 222.5 l103 0 l2 -5 q3 -188 -77 -287.5 q-80 -99.5 -259 -106.5 l0 -682 q0 -237 -146 -363.5 q-146 -126.5 -379 -126.5 q-231 0 -374 126.5 q-143 126.5 -143 363.5 l0 885 l-163 13 l0 89 l163 0 l119 0 l163 0 l0 -89 l-163 -13 l0 -885 q0 -186 110.5 -287.5 q110.5 -101.5 287.5 -101.5 q179 0 292 101 q113 101 113 288 l0 885 l-163 13 l0 89 l163 0 l120 0 Z" /><glyph glyph-name="uhorn" unicode="&#x1b0;" d="M1030 1082 l0 -135 l6 -2 q110 -1 145 52 q35 53 35 177 l87 0 l2 -5 q3 -154 -58.5 -230 q-61.5 -76 -216.5 -80 l0 -758 l145 -13 l0 -88 l-250 0 l-11 178 q-51 -95 -139.5 -147 q-88.5 -52 -208.5 -52 q-171 0 -267.5 116 q-96.5 116 -96.5 360 l0 525 l-134 13 l0 89 l134 0 l119 0 l0 -629 q0 -198 67.5 -284 q67.5 -86 191.5 -86 q136 0 216.5 60 q80.5 60 113.5 166 l0 671 l-154 13 l0 89 l154 0 l120 0 Z" /><glyph glyph-name="uni0237" unicode="&#x237;" d="M411 -89 q0 -167 -80 -257.5 q-80 -90.5 -223 -90.5 q-31 0 -57.5 5 q-26.5 5 -54.5 14 l13 99 q15 -6 46 -11 q31 -5 53 -5 q87 0 135 65 q48 65 48 181 l0 1069 l-163 13 l0 89 l283 0 l0 -1171 Z" /><glyph glyph-name="schwa" unicode="&#x259;" d="M506 1102 q203 0 337.5 -150 q134.5 -150 134.5 -380 l0 -55 q0 -233 -134 -385 q-134 -152 -322 -152 q-200 0 -314 125 q-114 125 -114 336 l0 102 l764 0 l0 29 q0 182 -97.5 305.5 q-97.5 123.5 -254.5 123.5 q-113 0 -191.5 -31.5 q-78.5 -31.5 -133.5 -89.5 l-51 83 q60 63 153 101 q93 38 223 38 ZM522 81 q131 0 220.5 100.5 q89.5 100.5 105.5 254.5 l-2 5 l-632 0 l0 -29 q0 -142 82.5 -236.5 q82.5 -94.5 225.5 -94.5 Z" /><glyph glyph-name="circumflex" unicode="&#x2c6;" d="M658 1270 l0 -18 l-112 0 l-167 168 l-166 -168 l-109 0 l0 21 l226 221 l98 0 l230 -224 Z" /><glyph glyph-name="caron" unicode="&#x2c7;" d="M370 1325 l167 169 l115 0 l0 -17 l-233 -225 l-98 0 l-231 225 l0 17 l114 0 l166 -169 Z" /><glyph glyph-name="breve" unicode="&#x2d8;" d="M688 1456 l2 -6 q4 -111 -73 -181.5 q-77 -70.5 -209 -70.5 q-134 0 -211 70 q-77 70 -72 182 l2 6 l94 0 q0 -77 45 -124 q45 -47 142 -47 q94 0 140 48 q46 48 46 123 l94 0 Z" /><glyph glyph-name="dotaccent" unicode="&#x2d9;" d="M303 1288 l-151 0 l0 168 l151 0 l0 -168 Z" /><glyph glyph-name="ring" unicode="&#x2da;" d="M138 1324 q0 69 49.5 117.5 q49.5 48.5 119.5 48.5 q68 0 117 -48.5 q49 -48.5 49 -117.5 q0 -71 -48.5 -117 q-48.5 -46 -117.5 -46 q-71 0 -120 46 q-49 46 -49 117 ZM216 1324 q0 -39 26.5 -65 q26.5 -26 64.5 -26 q37 0 62 25.5 q25 25.5 25 65.5 q0 40 -25 66.5 q-25 26.5 -62 26.5 q-38 0 -64.5 -26.5 q-26.5 -26.5 -26.5 -66.5 Z" /><glyph glyph-name="ogonek" unicode="&#x2db;" d="M309 0 q-72 -60 -110 -108 q-38 -48 -38 -104 q0 -31 19 -58 q19 -27 70 -27 q32 0 56.5 9 q24.5 9 48.5 23 l24 -83 q-29 -19 -65.5 -31.5 q-36.5 -12.5 -86.5 -12.5 q-76 0 -124.5 44.5 q-48.5 44.5 -48.5 124.5 q0 70 51 138.5 q51 68.5 143 121.5 l61 -37 Z" /><glyph glyph-name="tilde" unicode="&#x2dc;" d="M791 1481 q0 -88 -55 -146 q-55 -58 -137 -58 q-74 0 -151 55 q-77 55 -131 55 q-47 0 -79 -35 q-32 -35 -32 -89 l-79 18 q0 86 53.5 144.5 q53.5 58.5 136.5 58.5 q65 0 147.5 -55 q82.5 -55 134.5 -55 q46 0 79 36 q33 36 33 91 l80 -20 Z" /><glyph glyph-name="hungarumlaut" unicode="&#x2dd;" d="M617 1518 l144 0 l2 -6 l-295 -260 l-114 0 l-2 6 l265 260 ZM321 1518 l133 0 l3 -6 l-244 -260 l-102 0 l-3 5 l213 261 Z" /><glyph glyph-name="uni02F3" unicode="&#x2f3;" d="M72 -237 q0 57 43 98.5 q43 41.5 103 41.5 q58 0 100 -41 q42 -41 42 -99 q0 -56 -42 -95.5 q-42 -39.5 -100 -39.5 q-60 0 -103 40 q-43 40 -43 95 ZM144 -237 q0 -26 22 -46.5 q22 -20.5 52 -20.5 q29 0 50 20 q21 20 21 47 q0 29 -21 50 q-21 21 -50 21 q-30 0 -52 -21 q-22 -21 -22 -50 Z" /><glyph glyph-name="gravecomb" unicode="&#x300;" d="M351 1214 l-96 0 l-168 318 l125 0 l139 -318 Z" /><glyph glyph-name="acutecomb" unicode="&#x301;" d="M258 1533 l120 0 l-172 -318 l-88 0 l140 318 Z" /><glyph glyph-name="hook" unicode="&#x309;" d="M169 1234 l-1 125 q89 6 128 27 q39 21 39 67 q0 49 -58.5 72 q-58.5 23 -141.5 23 l7 77 q135 0 214 -47 q79 -47 79 -126 q0 -74 -49 -111.5 q-49 -37.5 -126 -44.5 l-1 -62 l-90 0 Z" /><glyph glyph-name="uni030F" unicode="&#x30f;" d="M496 1258 l-2 -6 l-113 0 l-295 260 l2 6 l144 0 l264 -260 ZM741 1257 l-3 -5 l-102 0 l-245 260 l3 6 l134 0 l213 -261 Z" /><glyph glyph-name="dotbelow" unicode="&#x323;" d="M252 -315 l-152 0 l0 168 l152 0 l0 -168 Z" /><glyph glyph-name="tonos" unicode="&#x384;" d="M214 1617 l152 0 l-159 -329 l-71 0 l78 329 Z" /><glyph glyph-name="dieresistonos" unicode="&#x385;" d="M803 1304 l-159 0 l0 152 l159 0 l0 -152 ZM310 1304 l-159 0 l0 152 l159 0 l0 -152 ZM461 1664 l174 0 l-122 -252 l-88 0 l36 252 Z" /><glyph glyph-name="Gamma" unicode="&#x393;" d="M77 88 l163 13 l0 1253 l-163 13 l0 89 l1039 0 l0 -307 l-107 0 l-9 205 l-641 0 l0 -1253 l163 -13 l0 -88 l-445 0 l0 88 Z" /><glyph glyph-name="Delta" unicode="&#x394;&#x2206;" d="M760 1456 l598 -1456 l-1327 0 l616 1456 l113 0 ZM197 101 l995 0 l-487 1205 l-6 0 l-502 -1205 Z" /><glyph glyph-name="Theta" unicode="&#x398;" d="M966 676 l-554 0 l0 101 l554 0 l0 -101 ZM1351 718 q0 -328 -175 -533.5 q-175 -205.5 -455 -205.5 q-276 0 -448.5 206 q-172.5 206 -172.5 533 l0 19 q0 327 172 533.5 q172 206.5 448 206.5 q280 0 455.5 -206.5 q175.5 -206.5 175.5 -533.5 l0 -19 ZM1231 739 q0 283 -138 458 q-138 175 -373 175 q-231 0 -365.5 -175 q-134.5 -175 -134.5 -458 l0 -21 q0 -285 135 -460 q135 -175 366 -175 q237 0 373.5 174.5 q136.5 174.5 136.5 460.5 l0 21 Z" /><glyph glyph-name="Lambda" unicode="&#x39b;" d="M52 88 l106 8 l499 1360 l113 0 l499 -1360 l108 -8 l0 -88 l-359 0 l0 88 l127 10 l-429 1187 l-6 0 l-428 -1187 l128 -10 l0 -88 l-358 0 l0 88 Z" /><glyph glyph-name="Xi" unicode="&#x39e;" d="M80 0 l0 306 l107 0 l8 -205 l809 0 l10 205 l106 0 l0 -306 l-1040 0 ZM1093 1456 l0 -307 l-106 0 l-9 205 l-771 0 l-8 -205 l-107 0 l0 307 l1001 0 ZM290 784 l611 0 l0 -102 l-611 0 l0 102 Z" /><glyph glyph-name="Pi" unicode="&#x3a0;" d="M77 88 l163 13 l0 1253 l-163 13 l0 89 l1393 0 l0 -89 l-163 -13 l0 -1253 l163 -13 l0 -88 l-445 0 l0 88 l163 13 l0 1253 l-829 0 l0 -1253 l163 -13 l0 -88 l-445 0 l0 88 Z" /><glyph glyph-name="Sigma" unicode="&#x3a3;" d="M718 743 l-489 -641 l741 0 l10 204 l106 0 l0 -306 l-1007 0 l0 93 l515 666 l-515 604 l0 93 l952 0 l0 -307 l-107 0 l-9 205 l-672 0 l-2 -5 l477 -570 l0 -36 Z" /><glyph glyph-name="Phi" unicode="&#x3a6;" d="M659 211 q-258 0 -419 146.5 q-161 146.5 -161 372.5 q0 224 161 372 q161 148 419 148 l2 0 l0 104 l-163 13 l0 89 l163 0 l283 0 l0 -89 l-163 -13 l0 -104 l2 0 q256 0 418.5 -147.5 q162.5 -147.5 162.5 -370.5 q0 -226 -162.5 -373.5 q-162.5 -147.5 -418.5 -147.5 l-2 0 l0 -110 l163 -13 l0 -88 l-446 0 l0 88 l163 13 l0 110 l-2 0 ZM781 1148 l0 -836 l4 0 q213 0 336.5 116 q123.5 116 123.5 304 q0 185 -124 300.5 q-124 115.5 -336 115.5 l-4 0 ZM659 1148 q-214 0 -337.5 -117 q-123.5 -117 -123.5 -301 q0 -188 123 -303 q123 -115 338 -115 l2 0 l0 836 l-2 0 Z" /><glyph glyph-name="Psi" unicode="&#x3a8;" d="M1018 1456 l0 -89 l-163 -13 l0 -855 l6 -2 q179 9 290.5 127 q111.5 118 111.5 312 l0 520 l282 0 l0 -89 l-163 -13 l0 -418 q0 -246 -145 -390 q-145 -144 -382 -158 l0 -287 l163 -13 l0 -88 l-446 0 l0 88 l163 13 l0 287 q-233 15 -375 159 q-142 144 -142 389 l0 418 l-163 13 l0 89 l163 0 l119 0 l0 -520 q0 -193 108.5 -310.5 q108.5 -117.5 283.5 -128.5 l6 2 l0 855 l-163 13 l0 89 l163 0 l120 0 l163 0 Z" /><glyph glyph-name="Omega" unicode="&#x3a9;&#x2126;" d="M745 134 q153 47 263 208.5 q110 161.5 110 424.5 l0 48 q0 253 -125 406.5 q-125 153.5 -335 153.5 q-210 0 -334 -153.5 q-124 -153.5 -124 -406.5 l0 -48 q0 -263 112 -424.5 q112 -161.5 267 -208.5 l0 -134 l-463 0 l0 101 l322 0 q-155 89 -256.5 266 q-101.5 177 -101.5 400 l0 46 q0 288 161 476 q161 188 417 188 q256 0 418 -188 q162 -188 162 -476 l0 -46 q0 -223 -101.5 -400 q-101.5 -177 -253.5 -266 l325 0 l0 -101 l-463 0 l0 134 Z" /><glyph glyph-name="alpha" unicode="&#x3b1;" d="M971 1082 l0 -808 q0 -104 26.5 -145.5 q26.5 -41.5 74.5 -41.5 q12 0 22.5 1.5 q10.5 1.5 27.5 6.5 l17 -93 q-23 -13 -47 -18 q-24 -5 -51 -5 q-80 0 -126 46.5 q-46 46.5 -59 150.5 q-53 -95 -138 -146 q-85 -51 -201 -51 q-194 0 -303.5 144.5 q-109.5 144.5 -109.5 387.5 l0 21 q0 259 109.5 414.5 q109.5 155.5 305.5 155.5 q115 0 198.5 -53.5 q83.5 -53.5 136.5 -152.5 l14 186 l103 0 ZM224 511 q0 -196 78.5 -313.5 q78.5 -117.5 236.5 -117.5 q117 0 193 64.5 q76 64.5 119 177.5 l0 413 q-42 117 -118 191 q-76 74 -192 74 q-158 0 -237.5 -130.5 q-79.5 -130.5 -79.5 -337.5 l0 -21 Z" /><glyph glyph-name="beta" unicode="&#x3b2;" d="M560 1477 q184 0 296.5 -107.5 q112.5 -107.5 112.5 -276.5 q0 -101 -52.5 -183.5 q-52.5 -82.5 -146.5 -127.5 q138 -39 212 -139.5 q74 -100.5 74 -238.5 q0 -200 -124 -312.5 q-124 -112.5 -326 -112.5 q-96 0 -188.5 32.5 q-92.5 32.5 -154.5 96.5 l0 -507 l-119 0 l0 1462 q0 174 122 294 q122 120 294 120 ZM556 823 q151 0 222.5 72 q71.5 72 71.5 203 q0 113 -75.5 195 q-75.5 82 -214.5 82 q-126 0 -211.5 -89 q-85.5 -89 -85.5 -223 l0 -825 q45 -73 134.5 -115.5 q89.5 -42.5 199.5 -42.5 q162 0 250.5 86 q88.5 86 88.5 234 q0 140 -87.5 230.5 q-87.5 90.5 -243.5 90.5 l-143 0 l0 102 l94 0 Z" /><glyph glyph-name="gamma" unicode="&#x3b3;" d="M1078 993 l-99 -8 l-362 -954 l0 -446 l-120 0 l0 438 l-297 849 q-27 74 -52.5 95 q-25.5 21 -67.5 21 q-18 0 -36.5 -5 q-18.5 -5 -32.5 -10 l-17 92 q20 11 52 19 q32 8 62 8 q74 0 115.5 -35.5 q41.5 -35.5 73.5 -129.5 l223 -656 l34 -128 l6 0 l38 128 l258 711 l-136 11 l0 89 l358 0 l0 -89 Z" /><glyph glyph-name="delta" unicode="&#x3b4;" d="M218 1289 q0 122 100 198 q100 76 265 76 q80 0 159 -20.5 q79 -20.5 151 -60.5 l-30 -88 q-68 30 -133 47.5 q-65 17.5 -148 17.5 q-107 0 -175.5 -45 q-68.5 -45 -68.5 -123 q0 -71 61.5 -124.5 q61.5 -53.5 215.5 -93.5 q210 -60 321.5 -204 q111.5 -144 111.5 -333 l0 -32 q0 -231 -130.5 -377.5 q-130.5 -146.5 -346.5 -146.5 q-218 0 -349 146.5 q-131 146.5 -131 377.5 l0 32 q0 188 104 317 q104 129 245 156 l2 11 q-114 43 -169 113.5 q-55 70.5 -55 155.5 ZM212 504 q0 -180 95 -302 q95 -122 264 -122 q167 0 262 122 q95 122 95 302 l0 32 q0 155 -101.5 273.5 q-101.5 118.5 -243.5 144.5 q-174 0 -272.5 -122.5 q-98.5 -122.5 -98.5 -295.5 l0 -32 Z" /><glyph glyph-name="epsilon" unicode="&#x3b5;" d="M105 297 q0 97 56.5 162.5 q56.5 65.5 167.5 95.5 q-98 34 -151.5 97.5 q-53.5 63.5 -53.5 141.5 q0 146 113.5 225.5 q113.5 79.5 309.5 79.5 q181 0 305 -84.5 q124 -84.5 119 -218.5 l-2 -6 l-109 0 q0 91 -90.5 149.5 q-90.5 58.5 -222.5 58.5 q-151 0 -227 -57 q-76 -57 -76 -145 q0 -92 72.5 -143 q72.5 -51 226.5 -51 l185 0 l0 -100 l-185 0 q-159 0 -238.5 -50.5 q-79.5 -50.5 -79.5 -156.5 q0 -96 85 -154.5 q85 -58.5 237 -58.5 q146 0 238 65.5 q92 65.5 92 162.5 l110 0 l2 -6 q5 -156 -127.5 -239 q-132.5 -83 -314.5 -83 q-197 0 -319.5 84 q-122.5 84 -122.5 231 Z" /><glyph glyph-name="zeta" unicode="&#x3b6;" d="M925 1456 l0 -78 l-396 -504 q-125 -155 -177.5 -272 q-52.5 -117 -52.5 -239 q0 -100 59 -156 q59 -56 194 -87 l109 -31 q126 -34 180.5 -72.5 q54.5 -38.5 54.5 -128.5 q-1 -80 -54.5 -159 q-53.5 -79 -111.5 -116 l-68 57 q50 42 84.5 94.5 q34.5 52.5 34.5 109.5 q0 45 -37.5 71 q-37.5 26 -121.5 48 l-90 23 q-191 49 -271.5 126.5 q-80.5 77.5 -80.5 217.5 q0 116 59.5 259.5 q59.5 143.5 197.5 312.5 l339 417 l-3 5 l-700 0 l0 102 l852 0 Z" /><glyph glyph-name="eta" unicode="&#x3b7;" d="M212 0 l1 891 q0 52 -19.5 72 q-19.5 20 -56.5 20 q-28 0 -57 -8 q-29 -8 -53 -20 l-31 91 q32 21 79 35.5 q47 14.5 94 14.5 q83 0 123.5 -43 q40.5 -43 40.5 -139 l0 -10 q53 94 139.5 146 q86.5 52 204.5 52 q177 0 268 -105 q91 -105 91 -338 l0 -1074 l-119 0 l0 1073 q0 186 -69.5 264 q-69.5 78 -198.5 78 q-124 0 -202 -61 q-78 -61 -114 -164 l0 -775 l-121 0 Z" /><glyph glyph-name="theta" unicode="&#x3b8;" d="M1033 565 q0 -282 -119.5 -434 q-119.5 -152 -332.5 -152 q-212 0 -332.5 152.5 q-120.5 152.5 -120.5 433.5 l0 325 q0 281 119.5 434 q119.5 153 331.5 153 q213 0 333.5 -153 q120.5 -153 120.5 -434 l0 -325 ZM247 775 l666 0 l0 135 q0 224 -85.5 344.5 q-85.5 120.5 -248.5 120.5 q-162 0 -247 -121 q-85 -121 -85 -344 l0 -135 ZM913 673 l-666 0 l0 -126 q0 -222 86.5 -344.5 q86.5 -122.5 247.5 -122.5 q162 0 247 122 q85 122 85 345 l0 126 Z" /><glyph glyph-name="iota" unicode="&#x3b9;" d="M312 274 q0 -106 38 -148.5 q38 -42.5 107 -42.5 q26 0 48.5 4 q22.5 4 51.5 13 l25 -89 q-35 -18 -70.5 -25 q-35.5 -7 -76.5 -7 q-123 0 -183 70.5 q-60 70.5 -60 229.5 l0 701 l-163 13 l0 89 l283 0 l0 -808 Z" /><glyph glyph-name="lambda" unicode="&#x3bb;" d="M167 0 l-132 0 l416 1052 l-80 206 q-27 80 -62 119 q-35 39 -95 39 q-8 0 -24 -1.5 q-16 -1.5 -23 -2.5 l-5 95 q12 4 39 7.5 q27 3.5 46 3.5 q102 0 152.5 -58 q50.5 -58 82.5 -155 l398 -1047 q30 -80 62 -121.5 q32 -41.5 78 -41.5 q9 0 22 0.5 q13 0.5 20 3.5 l8 -99 q-11 -4 -30.5 -7.5 q-19.5 -3.5 -36.5 -3.5 q-92 0 -143.5 58.5 q-51.5 58.5 -94.5 173.5 l-256 677 l-6 0 l-33 -114 l-303 -784 Z" /><glyph glyph-name="xi" unicode="&#x3be;" d="M902 1333 q-57 19 -114 30 q-57 11 -114 11 q-180 0 -270.5 -65 q-90.5 -65 -90.5 -167 q0 -114 88 -176 q88 -62 276 -62 l131 0 l0 -103 l-131 0 q-201 0 -319.5 -88.5 q-118.5 -88.5 -118.5 -268.5 q0 -147 98 -230.5 q98 -83.5 270 -125.5 l75 -16 q126 -30 183.5 -70 q57.5 -40 57.5 -128 q0 -73 -53.5 -143.5 q-53.5 -70.5 -110.5 -111.5 l-65 58 q57 53 85.5 90.5 q28.5 37.5 28.5 95.5 q0 46 -38.5 70.5 q-38.5 24.5 -127.5 43.5 l-48 12 q-230 54 -352.5 155.5 q-122.5 101.5 -122.5 303.5 q0 153 87 256 q87 103 241 148 q-122 37 -188.5 113 q-66.5 76 -66.5 173 q0 161 129.5 249 q129.5 88 353.5 88 q64 0 129 -12 q65 -12 115 -32 l-17 -98 Z" /><glyph glyph-name="pi" unicode="&#x3c0;" d="M1108 979 l-183 0 l0 -705 q0 -106 38 -148.5 q38 -42.5 107 -42.5 q26 0 48.5 4 q22.5 4 51.5 13 l25 -89 q-35 -18 -70.5 -25 q-35.5 -7 -76.5 -7 q-123 0 -183 70.5 q-60 70.5 -60 229.5 l0 700 l-463 0 l0 -979 l-120 0 l0 979 l-147 0 l0 103 l1033 0 l0 -103 Z" /><glyph glyph-name="rho" unicode="&#x3c1;" d="M1002 511 q0 -243 -108.5 -387.5 q-108.5 -144.5 -301.5 -144.5 q-112 0 -197 40 q-85 40 -141 115 l0 -550 l-120 0 l0 1015 l1 0 l-1 9 q0 234 122.5 364 q122.5 130 310.5 130 q207 0 321 -154.5 q114 -154.5 114 -415.5 l0 -21 ZM882 532 q0 207 -79 337.5 q-79 130.5 -236 130.5 q-158 0 -235.5 -122 q-77.5 -122 -77.5 -282 l0 -329 q42 -87 119.5 -137 q77.5 -50 191.5 -50 q157 0 237 117.5 q80 117.5 80 313.5 l0 21 Z" /><glyph glyph-name="sigma1" unicode="&#x3c2;" d="M573 1102 q176 0 290 -101.5 q114 -101.5 110 -279.5 l-2 -6 l-106 0 q0 132 -81 208.5 q-81 76.5 -211 76.5 q-166 0 -253.5 -126.5 q-87.5 -126.5 -87.5 -311.5 l0 -42 q0 -168 101.5 -274.5 q101.5 -106.5 294.5 -153.5 q135 -34 191 -76.5 q56 -42.5 56 -138.5 q-1 -66 -53 -142.5 q-52 -76.5 -104 -110.5 l-66 57 q49 43 78.5 85.5 q29.5 42.5 29.5 98.5 q0 56 -34.5 81 q-34.5 25 -131.5 46 q-232 50 -357.5 180 q-125.5 130 -125.5 348 l0 42 q0 233 124.5 386.5 q124.5 153.5 337.5 153.5 Z" /><glyph glyph-name="sigma" unicode="&#x3c3;" d="M1144 979 l-313 0 q110 -69 170 -182 q60 -113 60 -258 l0 -33 q0 -226 -131.5 -376.5 q-131.5 -150.5 -345.5 -150.5 q-217 0 -348 152.5 q-131 152.5 -131 392.5 l0 33 q0 229 130.5 377 q130.5 148 346.5 148 l562 0 l0 -103 ZM224 524 q0 -188 95 -316 q95 -128 265 -128 q167 0 262.5 128 q95.5 128 95.5 316 l0 33 q0 176 -96 299 q-96 123 -264 123 q-168 0 -263 -123 q-95 -123 -95 -299 l0 -33 Z" /><glyph glyph-name="tau" unicode="&#x3c4;" d="M959 1082 l0 -102 l-401 0 l0 -706 q0 -106 38 -148.5 q38 -42.5 107 -42.5 q25 0 49.5 5 q24.5 5 56.5 15 l25 -89 q-34 -18 -73 -26.5 q-39 -8.5 -80 -8.5 q-122 0 -182.5 70.5 q-60.5 70.5 -60.5 229.5 l0 701 l-376 0 l0 102 l897 0 Z" /><glyph glyph-name="upsilon" unicode="&#x3c5;" d="M348 405 q0 -168 65 -246.5 q65 -78.5 176 -78.5 q161 0 248.5 136.5 q87.5 136.5 87.5 323.5 q-2 140 -33 274.5 q-31 134.5 -84 267.5 l130 0 q49 -120 77.5 -246 q28.5 -126 28.5 -294 q0 -247 -116.5 -405 q-116.5 -158 -332.5 -158 q-174 0 -270 104.5 q-96 104.5 -96 323.5 l0 487 q0 51 -20 71 q-20 20 -57 20 q-28 0 -57.5 -8 q-29.5 -8 -52.5 -19 l-31 91 q35 23 80.5 36.5 q45.5 13.5 92.5 13.5 q84 0 124 -43 q40 -43 40 -140 l0 -511 Z" /><glyph glyph-name="phi" unicode="&#x3c6;" d="M635 -19 q-268 18 -395 173.5 q-127 155.5 -127 399.5 q0 176 69.5 311.5 q69.5 135.5 189.5 216.5 l63 -87 q-96 -70 -149 -189.5 q-53 -119.5 -54 -252.5 q0 -187 94 -318.5 q94 -131.5 303 -144.5 l6 2 l0 768 q0 96 65.5 159 q65.5 63 156.5 63 q184 0 310 -152.5 q126 -152.5 126 -384.5 q0 -230 -136.5 -388.5 q-136.5 -158.5 -401.5 -175.5 l0 -459 l-120 0 l0 459 ZM755 90 l6 -2 q201 12 307 145 q106 133 106 311 q-2 177 -89 306 q-87 129 -228 129 q-45 0 -73.5 -32.5 q-28.5 -32.5 -28.5 -83.5 l0 -773 Z" /><glyph glyph-name="chi" unicode="&#x3c7;" d="M73 88 l121 11 l337 447 l-321 436 l-122 11 l0 89 l205 -1 l313 -438 l254 345 l-111 5 l0 89 l367 0 l0 -89 l-121 -11 l-326 -429 l341 -454 l122 -11 l0 -88 l-198 0 l-332 461 l-274 -368 l111 -5 l0 -88 l-366 0 l0 88 Z" /><glyph glyph-name="psi" unicode="&#x3c8;" d="M341 591 q-1 -242 99 -365 q100 -123 275 -135 l6 2 l0 988 l120 0 l0 -990 l6 -2 q219 11 318 149.5 q99 138.5 99 339.5 q-1 129 -38 254.5 q-37 125.5 -101 249.5 l131 0 q59 -115 93.5 -231.5 q34.5 -116.5 34.5 -271.5 q0 -260 -131.5 -422 q-131.5 -162 -411.5 -176 l0 -424 l-120 0 l0 425 q-239 18 -370 168.5 q-131 150.5 -130 442.5 l0 302 q0 51 -19.5 71 q-19.5 20 -56.5 20 q-28 0 -57.5 -8 q-29.5 -8 -52.5 -19 l-32 91 q35 23 80.5 36.5 q45.5 13.5 93.5 13.5 q83 0 123.5 -43 q40.5 -43 40.5 -139 l0 -327 Z" /><glyph glyph-name="omega" unicode="&#x3c9;" d="M383 1082 q-69 -135 -108 -272 q-39 -137 -40 -281 q0 -192 66 -320.5 q66 -128.5 200 -128.5 q119 0 190 96.5 q71 96.5 71 301.5 l0 292 l121 0 l0 -292 q0 -205 70 -301.5 q70 -96.5 190 -96.5 q134 0 201 128 q67 128 67 321 q-3 143 -42.5 280 q-39.5 137 -106.5 273 l130 0 q64 -127 101 -254 q37 -127 37 -297 q0 -243 -97 -397.5 q-97 -154.5 -284 -154.5 q-121 0 -204.5 63 q-83.5 63 -122.5 190 q-40 -127 -123 -190 q-83 -63 -203 -63 q-189 0 -284.5 154 q-95.5 154 -95.5 398 q0 171 36.5 299 q36.5 128 100.5 252 l130 0 Z" /><glyph glyph-name="uni03D1" unicode="&#x3d1;" d="M620 83 q190 0 296 121 q106 121 106 345 l0 36 q-222 8 -357.5 133.5 q-135.5 125.5 -135.5 317.5 l0 62 q0 173 85 276 q85 103 220 103 q142 0 224.5 -101 q82.5 -101 82.5 -278 l0 -549 q0 -266 -142.5 -418 q-142.5 -152 -378.5 -152 q-224 0 -361.5 158.5 q-137.5 158.5 -137.5 411.5 l0 703 l119 2 l0 -705 q0 -211 102.5 -338.5 q102.5 -127.5 277.5 -127.5 ZM648 1034 q0 -144 98.5 -239 q98.5 -95 270.5 -100 l5 2 l0 401 q0 135 -48 204.5 q-48 69.5 -140 69.5 q-85 0 -135.5 -69.5 q-50.5 -69.5 -50.5 -204.5 l0 -64 Z" /><glyph glyph-name="uni03D2" unicode="&#x3d2;" d="M873 1239 q52 124 112.5 176 q60.5 52 146.5 52 q30 0 57.5 -7 q27.5 -7 48.5 -19 l-23 -94 q-10 5 -26.5 10 q-16.5 5 -36.5 5 q-49 0 -88.5 -29 q-39.5 -29 -76.5 -114 l-281 -620 l0 -599 l-120 0 l0 601 l-284 618 q-39 85 -78 114 q-39 29 -86 29 q-21 0 -38 -5 q-17 -5 -25 -10 l-23 94 q20 12 47.5 19 q27.5 7 58.5 7 q85 0 145.5 -52 q60.5 -52 113.5 -176 l189 -426 l36 -111 l6 0 l36 111 l189 426 Z" /><glyph glyph-name="uni03D6" unicode="&#x3d6;" d="M1621 979 l-166 0 q41 -97 64.5 -205.5 q23.5 -108.5 23.5 -242.5 q0 -243 -92 -397.5 q-92 -154.5 -270 -154.5 q-121 0 -204.5 63 q-83.5 63 -122.5 190 q-40 -127 -122.5 -190 q-82.5 -63 -202.5 -63 q-179 0 -270.5 154.5 q-91.5 154.5 -91.5 397.5 q0 133 23 241.5 q23 108.5 65 206.5 l-150 0 l0 103 l1516 0 l0 -103 ZM1424 529 q-2 116 -28.5 227.5 q-26.5 111.5 -72.5 222.5 l-937 0 q-47 -111 -73.5 -223 q-26.5 -112 -26.5 -227 q0 -193 62 -321 q62 -128 187 -128 q119 0 189 96.5 q70 96.5 70 301.5 l0 269 l121 0 l0 -269 q0 -205 70.5 -301.5 q70.5 -96.5 190.5 -96.5 q123 0 185.5 128 q62.5 128 62.5 321 Z" /><glyph glyph-name="uni0402" unicode="&#x402;" d="M1219 1149 l-107 0 l-9 205 l-465 0 l0 -540 q90 31 177 51 q87 20 154 20 q232 0 365.5 -116 q133.5 -116 133.5 -346 q0 -185 -122 -308.5 q-122 -123.5 -350 -120.5 l-5 2 l-1 90 q177 0 267.5 95 q90.5 95 90.5 242 q-1 179 -101 267.5 q-100 88.5 -278 88.5 q-76 0 -161.5 -19.5 q-85.5 -19.5 -169.5 -50.5 l0 -608 l154 -13 l0 -88 l-437 0 l0 88 l163 13 l0 1253 l-324 0 l-8 -205 l-107 0 l0 307 l1140 0 l0 -307 Z" /><glyph glyph-name="uni0404" unicode="&#x404;" d="M1215 1001 l-93 0 l-17 221 q-58 69 -151 111.5 q-93 42.5 -215 42.5 q-234 0 -375.5 -162.5 q-141.5 -162.5 -150.5 -420.5 l2 -5 l612 0 l0 -101 l-613 0 l-2 -5 q5 -265 145.5 -433 q140.5 -168 366.5 -168 q123 0 223.5 43 q100.5 43 157.5 111 l17 221 l93 0 l0 -256 q-68 -94 -198.5 -157 q-130.5 -63 -292.5 -63 q-280 0 -458 207.5 q-178 207.5 -178 531.5 l0 19 q0 325 177.5 532.5 q177.5 207.5 464.5 207.5 q162 0 289.5 -63.5 q127.5 -63.5 195.5 -157.5 l0 -256 Z" /><glyph glyph-name="uni0409" unicode="&#x409;" d="M1421 1456 l0 -89 l-163 -13 l0 -508 l364 0 q230 0 355.5 -117 q125.5 -117 125.5 -306 q0 -189 -126 -306 q-126 -117 -355 -117 l-484 0 l0 1354 l-562 0 l-20 -557 q-17 -437 -112.5 -617 q-95.5 -180 -342.5 -180 l-41 0 l0 101 l37 0 q175 0 249 148 q74 148 91 548 l19 557 l-159 13 l0 89 l961 0 l163 0 ZM1258 745 l0 -644 l364 0 q180 0 271 93 q91 93 91 231 q0 133 -91 226.5 q-91 93.5 -271 93.5 l-364 0 Z" /><glyph glyph-name="uni040A" unicode="&#x40a;" d="M77 1367 l0 89 l445 0 l0 -89 l-163 -13 l0 -569 l829 0 l0 569 l-163 13 l0 89 l163 0 l119 0 l163 0 l0 -89 l-163 -13 l0 -530 l365 0 q230 0 355 -113 q125 -113 125 -297 q0 -185 -126 -299.5 q-126 -114.5 -354 -114.5 l-647 0 l0 88 l163 13 l0 583 l-829 0 l0 -583 l163 -13 l0 -88 l-445 0 l0 88 l163 13 l0 1253 l-163 13 ZM1307 722 l0 -616 l365 0 q180 0 270.5 88 q90.5 88 90.5 222 q0 129 -90.5 217.5 q-90.5 88.5 -270.5 88.5 l-365 0 Z" /><glyph glyph-name="uni040B" unicode="&#x40b;" d="M1209 1149 l-106 0 l-9 205 l-446 0 l0 -546 q92 25 182.5 38.5 q90.5 13.5 194.5 13.5 q239 0 361 -105.5 q122 -105.5 122 -341.5 l0 -312 l163 -13 l0 -88 l-445 0 l0 88 l163 13 l0 312 q0 185 -90 265 q-90 80 -274 80 q-97 0 -190 -13.5 q-93 -13.5 -187 -38.5 l0 -605 l163 -13 l0 -88 l-446 0 l0 88 l163 13 l0 1253 l-344 0 l-8 -205 l-107 0 l0 307 l1140 0 l0 -307 Z" /><glyph glyph-name="uni040F" unicode="&#x40f;" d="M1470 1367 l-163 -13 l0 -1253 l163 -13 l0 -88 l-631 0 l0 -353 l-120 0 l0 353 l-642 0 l0 88 l163 13 l0 1253 l-163 13 l0 89 l282 0 l163 0 l0 -89 l-163 -13 l0 -1253 l829 0 l0 1253 l-163 13 l0 89 l445 0 l0 -89 Z" /><glyph glyph-name="uni0411" unicode="&#x411;" d="M1105 1149 l-107 0 l-9 205 l-637 0 l0 -532 l365 0 q230 0 355 -111 q125 -111 125 -298 q0 -188 -125.5 -300.5 q-125.5 -112.5 -354.5 -112.5 l-651 0 l0 88 l163 13 l0 1253 l-163 13 l0 89 l1039 0 l0 -307 ZM352 720 l0 -619 l365 0 q181 0 270.5 88.5 q89.5 88.5 89.5 225.5 q0 131 -90 218 q-90 87 -270 87 l-365 0 Z" /><glyph glyph-name="uni0414" unicode="&#x414;" d="M1390 -353 l-111 0 l0 353 l-1105 0 l0 -353 l-106 0 l-13 454 l98 0 q82 86 163 284 q81 198 98 547 l21 422 l-158 13 l0 89 l1129 0 l0 -89 l-163 -13 l0 -1253 l156 0 l-9 -454 ZM534 932 q-15 -285 -82.5 -499.5 q-67.5 -214.5 -160.5 -331.5 l832 0 l0 1253 l-568 0 l-21 -422 Z" /><glyph glyph-name="uni0416" unicode="&#x416;" d="M772 679 l-418 -584 l95 -7 l0 -88 l-386 0 l0 88 l142 11 l469 651 l-344 489 q-52 70 -88 94 q-36 24 -85 24 q-20 0 -38.5 -4 q-18.5 -4 -34.5 -10 l-26 89 q24 16 54 25.5 q30 9.5 64 9.5 q70 0 125.5 -33.5 q55.5 -33.5 125.5 -133.5 l362 -514 l163 0 l0 568 l-163 13 l0 89 l445 0 l0 -89 l-163 -13 l0 -568 l170 0 l362 514 q69 100 124.5 133.5 q55.5 33.5 127.5 33.5 q33 0 62.5 -9.5 q29.5 -9.5 54.5 -25.5 l-26 -89 q-17 6 -35.5 10 q-18.5 4 -37.5 4 q-50 0 -86 -24 q-36 -24 -87 -94 l-351 -494 l465 -646 l142 -11 l0 -88 l-385 0 l0 88 l94 7 l-418 584 l-176 0 l0 -578 l163 -13 l0 -88 l-445 0 l0 88 l163 13 l0 578 l-180 0 Z" /><glyph glyph-name="uni0417" unicode="&#x417;" d="M580 794 q195 0 287 74 q92 74 92 209 q0 134 -97.5 216 q-97.5 82 -294.5 82 q-123 0 -216 -42.5 q-93 -42.5 -150 -111.5 l-17 -210 l-93 0 l0 245 q67 94 194.5 157.5 q127.5 63.5 290.5 63.5 q233 0 368 -105 q135 -105 135 -299 q0 -109 -69.5 -196.5 q-69.5 -87.5 -192.5 -130.5 q140 -39 212 -128 q72 -89 72 -223 q0 -195 -145.5 -305.5 q-145.5 -110.5 -379.5 -110.5 q-205 0 -355 108 q-150 108 -145 311 l2 6 l111 0 q0 -140 108 -232 q108 -92 279 -92 q191 0 298.5 84 q107.5 84 107.5 227 q0 155 -101.5 227.5 q-101.5 72.5 -300.5 72.5 l-174 0 l0 103 l174 0 Z" /><glyph glyph-name="uni0418" unicode="&#x418;" d="M522 1456 l0 -89 l-163 -13 l0 -990 l6 -2 l828 876 l0 116 l-163 13 l0 89 l163 0 l119 0 l163 0 l0 -89 l-163 -13 l0 -1253 l163 -13 l0 -88 l-445 0 l0 88 l163 13 l0 981 l-6 2 l-828 -879 l0 -104 l163 -13 l0 -88 l-445 0 l0 88 l163 13 l0 1253 l-163 13 l0 89 l163 0 l119 0 l163 0 Z" /><glyph glyph-name="uni041A" unicode="&#x41a;" d="M71 88 l163 13 l0 1253 l-163 13 l0 89 l445 0 l0 -89 l-163 -13 l0 -574 l200 0 l385 520 q73 99 128 133 q55 34 124 34 q32 0 60 -9.5 q28 -9.5 54 -25.5 l-26 -90 q-17 6 -36 10.5 q-19 4.5 -38 4.5 q-50 0 -85.5 -24.5 q-35.5 -24.5 -87.5 -93.5 l-372 -498 l563 -641 l131 -12 l0 -88 l-415 0 l0 88 l138 8 l-513 578 l-210 0 l0 -573 l163 -13 l0 -88 l-445 0 l0 88 Z" /><glyph glyph-name="uni041B" unicode="&#x41b;" d="M531 1354 l-31 -557 q-21 -441 -103.5 -619 q-82.5 -178 -298.5 -178 l-41 0 l0 101 l37 0 q147 0 207 145.5 q60 145.5 80 550.5 l31 557 l-157 13 l0 89 l1174 0 l0 -89 l-163 -13 l0 -1253 l163 -13 l0 -88 l-446 0 l0 88 l163 13 l0 1253 l-615 0 Z" /><glyph glyph-name="uni0423" unicode="&#x423;" d="M1356 1367 l-116 -9 l-513 -1110 q-58 -122 -132 -195.5 q-74 -73.5 -220 -73.5 q-23 0 -53 3.5 q-30 3.5 -40 7.5 l11 97 q11 -3 37.5 -5 q26.5 -2 46.5 -2 q87 0 137.5 50 q50.5 50 97.5 145 l53 107 l-501 975 l-122 10 l0 89 l382 0 l0 -89 l-122 -9 l357 -698 l63 -147 l6 0 l372 844 l-128 10 l0 89 l384 0 l0 -89 Z" /><glyph glyph-name="uni0424" unicode="&#x424;" d="M675 171 q-266 0 -432.5 158.5 q-166.5 158.5 -166.5 400.5 q0 241 167 400.5 q167 159.5 432 159.5 l27 0 l0 133 l-163 14 l0 88 l446 0 l0 -88 l-163 -14 l0 -133 l27 0 q265 0 432.5 -158.5 q167.5 -158.5 167.5 -399.5 q0 -242 -168 -401.5 q-168 -159.5 -432 -159.5 l-27 0 l0 -138 l163 -14 l0 -88 l-446 0 l0 88 l163 14 l0 138 l-27 0 ZM822 1189 l0 -916 l29 0 q221 0 349.5 127 q128.5 127 128.5 332 q0 202 -128.5 329.5 q-128.5 127.5 -349.5 127.5 l-29 0 ZM675 1189 q-223 0 -351 -128 q-128 -128 -128 -331 q0 -205 127.5 -331 q127.5 -126 351.5 -126 l27 0 l0 916 l-27 0 Z" /><glyph glyph-name="uni0426" unicode="&#x426;" d="M1470 1456 l0 -89 l-163 -13 l0 -1253 l159 0 l0 -452 l-118 0 l0 351 l-1271 0 l0 88 l163 13 l0 1253 l-163 13 l0 89 l282 0 l163 0 l0 -89 l-163 -13 l0 -1253 l829 0 l0 1253 l-163 13 l0 89 l163 0 l119 0 l163 0 Z" /><glyph glyph-name="uni0427" unicode="&#x427;" d="M1104 664 q-101 -29 -196 -43.5 q-95 -14.5 -203 -14.5 q-240 0 -361.5 105 q-121.5 105 -121.5 342 l0 301 l-163 13 l0 89 l282 0 l163 0 l0 -89 l-163 -13 l0 -301 q0 -186 89 -265.5 q89 -79.5 275 -79.5 q102 0 200 14.5 q98 14.5 199 43.5 l0 588 l-163 13 l0 89 l283 0 l163 0 l0 -89 l-163 -13 l0 -1253 l163 -13 l0 -88 l-446 0 l0 88 l163 13 l0 563 l0 0 Z" /><glyph glyph-name="uni0428" unicode="&#x428;" d="M77 88 l163 13 l0 1253 l-163 13 l0 89 l283 0 l163 0 l0 -89 l-163 -13 l0 -1253 l584 0 l0 1253 l-163 13 l0 89 l446 0 l0 -89 l-163 -13 l0 -1253 l584 0 l0 1253 l-163 13 l0 89 l163 0 l119 0 l163 0 l0 -89 l-163 -13 l0 -1253 l163 -13 l0 -88 l-1853 0 l0 88 Z" /><glyph glyph-name="uni0429" unicode="&#x429;" d="M1930 1456 l0 -89 l-163 -13 l0 -1252 l173 0 l-9 -453 l-110 0 l0 351 l-1744 0 l0 88 l163 13 l0 1253 l-163 13 l0 89 l163 0 l120 0 l163 0 l0 -89 l-163 -13 l0 -1253 l584 0 l0 1253 l-163 13 l0 89 l283 0 l163 0 l0 -89 l-163 -13 l0 -1253 l584 0 l0 1253 l-163 13 l0 89 l163 0 l282 0 Z" /><glyph glyph-name="uni042A" unicode="&#x42a;" d="M185 1354 l-8 -204 l-107 0 l0 306 l652 0 l163 0 l0 -89 l-163 -13 l0 -532 l365 0 q230 0 355 -111 q125 -111 125 -298 q0 -188 -125.5 -300.5 q-125.5 -112.5 -354.5 -112.5 l-647 0 l0 88 l163 13 l0 1253 l-418 0 ZM722 720 l0 -619 l365 0 q181 0 270.5 88.5 q89.5 88.5 89.5 225.5 q0 131 -90 218 q-90 87 -270 87 l-365 0 Z" /><glyph glyph-name="uni042B" unicode="&#x42b;" d="M360 1456 l0 -634 l365 0 q230 0 355 -111 q125 -111 125 -298 q0 -188 -125.5 -300.5 q-125.5 -112.5 -354.5 -112.5 l-647 0 l0 88 l163 13 l0 1253 l-163 13 l0 89 l163 0 l119 0 ZM360 720 l0 -619 l365 0 q181 0 270.5 88.5 q89.5 88.5 89.5 225.5 q0 131 -90 218 q-90 87 -270 87 l-365 0 ZM1272 1367 l0 89 l446 0 l0 -89 l-163 -13 l0 -1253 l163 -13 l0 -88 l-446 0 l0 88 l163 13 l0 1253 l-163 13 ZM523 1456 l0 -89 l-163 -13 l0 102 l163 0 Z" /><glyph glyph-name="uni042C" unicode="&#x42c;" d="M352 1456 l0 -634 l365 0 q230 0 355 -111 q125 -111 125 -298 q0 -188 -125.5 -300.5 q-125.5 -112.5 -354.5 -112.5 l-647 0 l0 88 l163 13 l0 1253 l-163 13 l0 89 l163 0 l119 0 ZM352 720 l0 -619 l365 0 q181 0 270.5 88.5 q89.5 88.5 89.5 225.5 q0 131 -90 218 q-90 87 -270 87 l-365 0 ZM515 1456 l0 -89 l-163 -13 l0 102 l163 0 Z" /><glyph glyph-name="uni042D" unicode="&#x42d;" d="M89 1257 q67 93 195 156.5 q128 63.5 290 63.5 q284 0 453 -205.5 q169 -205.5 169 -533.5 l0 -20 q0 -327 -169.5 -532.5 q-169.5 -205.5 -446.5 -205.5 q-163 0 -293.5 62.5 q-130.5 62.5 -197.5 156.5 l0 257 l93 0 l17 -221 q55 -69 155.5 -111.5 q100.5 -42.5 225.5 -42.5 q224 0 356 168 q132 168 136 438 l-3 5 l-595 0 l0 101 l594 0 l2 5 q-10 258 -143 417.5 q-133 159.5 -362 159.5 q-123 0 -216.5 -42.5 q-93.5 -42.5 -149.5 -111.5 l-17 -221 l-93 0 l0 257 Z" /><glyph glyph-name="uni042E" unicode="&#x42e;" d="M57 1367 l0 89 l446 0 l0 -89 l-163 -13 l0 -589 l271 0 q9 315 180 512.5 q171 197.5 440 197.5 q280 0 455.5 -206.5 q175.5 -206.5 175.5 -533.5 l0 -19 q0 -328 -175 -533.5 q-175 -205.5 -455 -205.5 q-264 0 -434.5 190 q-170.5 190 -185.5 497 l-272 0 l0 -563 l163 -13 l0 -88 l-446 0 l0 88 l163 13 l0 1253 l-163 13 ZM1742 737 q0 283 -138 458 q-138 175 -373 175 q-231 0 -365.5 -175 q-134.5 -175 -134.5 -458 l0 -21 q0 -285 135 -460 q135 -175 366 -175 q237 0 373.5 174.5 q136.5 174.5 136.5 460.5 l0 21 Z" /><glyph glyph-name="uni042F" unicode="&#x42f;" d="M78 115 q13 -7 28.5 -10.5 q15.5 -3.5 32.5 -3.5 q46 0 82 30.5 q36 30.5 70 100.5 l199 404 l-3 2 q-151 46 -229.5 143 q-78.5 97 -78.5 242 q0 208 131 320.5 q131 112.5 362 112.5 l608 0 l0 -89 l-163 -13 l0 -1253 l163 -13 l0 -88 l-447 0 l0 88 l163 13 l0 505 l-409 0 l-203 -435 q-44 -94 -102.5 -136.5 q-58.5 -42.5 -125.5 -42.5 q-31 0 -56 8 q-25 8 -48 25 l26 90 ZM299 1025 q0 -143 89.5 -229.5 q89.5 -86.5 249.5 -86.5 l358 0 l0 645 l-324 0 q-184 0 -278.5 -86 q-94.5 -86 -94.5 -243 Z" /><glyph glyph-name="uni0431" unicode="&#x431;" d="M601 1010 q209 0 335.5 -136 q126.5 -136 126.5 -348 l0 -33 q0 -226 -131 -370 q-131 -144 -347 -144 q-217 0 -348 144 q-131 144 -131 370 l0 157 q0 314 130.5 504.5 q130.5 190.5 354.5 226.5 q151 23 213.5 61 q62.5 38 62.5 111 l94 0 l2 -6 q4 -136 -83.5 -192.5 q-87.5 -56.5 -263.5 -79.5 q-155 -19 -261.5 -131 q-106.5 -112 -127.5 -304 l4 -5 q58 79 155.5 127 q97.5 48 214.5 48 ZM583 909 q-168 0 -263 -112 q-95 -112 -95 -271 l0 -33 q0 -175 95 -294 q95 -119 265 -119 q167 0 262.5 119 q95.5 119 95.5 294 l0 33 q0 160 -96 271.5 q-96 111.5 -264 111.5 Z" /><glyph glyph-name="uni0432" unicode="&#x432;" d="M657 1082 q202 0 314 -72.5 q112 -72.5 112 -216.5 q0 -83 -50.5 -146 q-50.5 -63 -141.5 -91 q106 -20 170.5 -91.5 q64.5 -71.5 64.5 -164.5 q0 -147 -107.5 -223.5 q-107.5 -76.5 -292.5 -76.5 l-629 0 l0 88 l163 13 l0 879 l-163 13 l0 89 l163 0 l397 0 ZM379 498 l0 -398 l347 0 q134 0 207 52 q73 52 73 150 q0 90 -74 143 q-74 53 -206 53 l-347 0 ZM379 598 l289 0 q145 0 220 48.5 q75 48.5 75 143.5 q0 97 -77 143.5 q-77 46.5 -229 46.5 l-278 0 l0 -382 Z" /><glyph glyph-name="uni0433" unicode="&#x433;" d="M235 980 l-163 13 l0 89 l830 0 l0 -18 l15 0 l0 -215 l-88 0 l-9 130 l-466 0 l0 -878 l163 -13 l0 -88 l-445 0 l0 88 l163 13 l0 879 Z" /><glyph glyph-name="uni0434" unicode="&#x434;" d="M144 101 q86 108 137 226.5 q51 118.5 62 363.5 l13 289 l-158 13 l0 89 l965 0 l0 -89 l-163 -13 l0 -879 l112 0 l-9 -419 l-110 0 l0 318 l-813 0 l0 -318 l-106 0 l-8 419 l78 0 ZM462 691 q-9 -212 -57 -355 q-48 -143 -123 -235 l598 0 l0 869 l-405 0 l-13 -279 Z" /><glyph glyph-name="uni0436" unicode="&#x436;" d="M662 88 l163 13 l0 395 l-146 0 l-397 -496 l-224 0 l0 88 l152 11 l373 463 l-235 316 q-48 62 -83 85.5 q-35 23.5 -80 23.5 q-21 0 -36.5 -4 q-15.5 -4 -32.5 -10 l-26 88 q27 17 53.5 26.5 q26.5 9.5 59.5 9.5 q65 0 120.5 -36 q55.5 -36 117.5 -122 l247 -337 l137 0 l0 378 l-163 13 l0 89 l446 0 l0 -89 l-163 -13 l0 -378 l146 0 l246 337 q62 86 117 122 q55 36 121 36 q32 0 59 -9.5 q27 -9.5 54 -26.5 l-26 -88 q-16 6 -32.5 10 q-16.5 4 -35.5 4 q-47 0 -82 -23.5 q-35 -23.5 -82 -85.5 l-238 -320 l369 -459 l152 -11 l0 -88 l-224 0 l-397 496 l-147 0 l0 -395 l163 -13 l0 -88 l-446 0 l0 88 Z" /><glyph glyph-name="uni0437" unicode="&#x437;" d="M504 604 q142 0 206 49.5 q64 49.5 64 142.5 q0 89 -67.5 145.5 q-67.5 56.5 -206.5 56.5 q-117 0 -199 -59 q-82 -59 -82 -149 l-111 0 l-2 6 q-6 133 111 218 q117 85 283 85 q185 0 289.5 -79 q104.5 -79 104.5 -226 q0 -79 -49 -142 q-49 -63 -139 -97 q102 -30 154.5 -95 q52.5 -65 52.5 -163 q0 -148 -113.5 -231.5 q-113.5 -83.5 -299.5 -83.5 q-167 0 -291.5 83.5 q-124.5 83.5 -119.5 238.5 l2 6 l110 0 q0 -96 85 -162 q85 -66 214 -66 q141 0 217 58 q76 58 76 155 q0 107 -71 156 q-71 49 -218 49 l-164 0 l0 104 l164 0 Z" /><glyph glyph-name="uni0438" unicode="&#x438;" d="M542 1082 l0 -89 l-163 -13 l0 -780 l6 -1 l578 883 l120 0 l163 0 l0 -89 l-163 -13 l0 -879 l163 -13 l0 -88 l-446 0 l0 88 l163 13 l0 782 l-6 2 l-578 -885 l-282 0 l0 88 l163 13 l0 879 l-163 13 l0 89 l282 0 l163 0 Z" /><glyph glyph-name="uni043A" unicode="&#x43a;" d="M97 993 l0 89 l446 0 l0 -89 l-163 -13 l0 -378 l160 0 l265 337 q67 86 120.5 122 q53.5 36 117.5 36 q32 0 58.5 -9.5 q26.5 -9.5 54.5 -26.5 l-26 -88 q-18 6 -33.5 10 q-15.5 4 -35.5 4 q-44 0 -80 -25 q-36 -25 -83 -84 l-252 -319 l407 -459 l142 -12 l0 -88 l-211 0 l-438 496 l-166 0 l0 -395 l163 -13 l0 -88 l-446 0 l0 88 l163 13 l0 879 l-163 13 Z" /><glyph glyph-name="uni043B" unicode="&#x43b;" d="M437 979 l0 -375 q0 -318 -74.5 -461 q-74.5 -143 -250.5 -143 l-43 0 l1 107 l38 1 q110 0 159.5 110.5 q49.5 110.5 49.5 385.5 l0 376 l-163 13 l0 89 l1024 0 l0 -89 l-163 -13 l0 -879 l163 -13 l0 -88 l-446 0 l0 88 l163 13 l0 878 l-458 0 Z" /><glyph glyph-name="uni043C" unicode="&#x43c;" d="M842 168 l6 0 l427 914 l148 0 l163 0 l0 -89 l-163 -13 l0 -879 l163 -13 l0 -88 l-446 0 l0 88 l163 13 l0 770 l-6 2 l-409 -873 l-85 0 l-418 895 l-6 -1 l0 -793 l163 -13 l0 -88 l-445 0 l0 88 l163 13 l0 879 l-163 13 l0 89 l163 0 l156 0 l426 -914 Z" /><glyph glyph-name="uni043D" unicode="&#x43d;" d="M97 993 l0 89 l445 0 l0 -89 l-163 -13 l0 -383 l583 0 l0 383 l-163 13 l0 89 l163 0 l120 0 l163 0 l0 -89 l-163 -13 l0 -879 l163 -13 l0 -88 l-446 0 l0 88 l163 13 l0 395 l-583 0 l0 -395 l163 -13 l0 -88 l-445 0 l0 88 l163 13 l0 879 l-163 13 Z" /><glyph glyph-name="uni043F" unicode="&#x43f;" d="M97 88 l163 13 l0 879 l-163 13 l0 89 l1149 0 l0 -89 l-163 -13 l0 -879 l163 -13 l0 -88 l-446 0 l0 88 l163 13 l0 878 l-584 0 l0 -878 l163 -13 l0 -88 l-445 0 l0 88 Z" /><glyph glyph-name="uni0442" unicode="&#x442;" d="M1031 1082 l0 -307 l-106 0 l-9 205 l-306 0 l0 -879 l163 -13 l0 -88 l-445 0 l0 88 l163 13 l0 879 l-292 0 l-8 -205 l-107 0 l0 307 l947 0 Z" /><glyph glyph-name="uni0444" unicode="&#x444;" d="M778 1052 q35 24 81 37 q46 13 103 13 q185 0 288 -155 q103 -155 103 -415 l0 -21 q0 -243 -102.5 -387.5 q-102.5 -144.5 -286.5 -144.5 q-57 0 -103.5 12 q-46.5 12 -82.5 35 l0 -340 l163 -13 l0 -89 l-446 0 l0 89 l163 13 l0 338 q-36 -22 -81 -33.5 q-45 -11.5 -98 -11.5 q-184 0 -286 144.5 q-102 144.5 -102 387.5 l0 21 q0 260 102 415 q102 155 288 155 q53 0 97 -12.5 q44 -12.5 80 -34.5 l0 403 l-163 13 l0 89 l283 0 l0 -508 ZM1233 532 q0 207 -75 337.5 q-75 130.5 -223 130.5 q-54 0 -93 -12.5 q-39 -12.5 -64 -31.5 l0 -837 q28 -18 67 -28.5 q39 -10.5 92 -10.5 q147 0 221.5 117.5 q74.5 117.5 74.5 313.5 l0 21 ZM211 511 q0 -197 72 -314 q72 -117 219 -117 q50 0 89 11 q39 11 67 30 l0 838 q-27 18 -64.5 29.5 q-37.5 11.5 -89.5 11.5 q-148 0 -220.5 -130 q-72.5 -130 -72.5 -338 l0 -21 Z" /><glyph glyph-name="uni0446" unicode="&#x446;" d="M1056 101 l126 0 l-9 -422 l-109 0 l0 321 l-994 0 l0 88 l163 13 l0 879 l-163 13 l0 89 l163 0 l119 0 l163 0 l0 -89 l-163 -13 l0 -879 l584 0 l0 879 l-163 13 l0 89 l283 0 l0 -981 ZM1219 1082 l0 -89 l-163 -13 l0 102 l163 0 Z" /><glyph glyph-name="uni0447" unicode="&#x447;" d="M510 1082 l0 -88 l-163 -13 l0 -173 q0 -170 69.5 -237 q69.5 -67 224.5 -67 q72 1 145.5 15 q73.5 14 137.5 37 l0 424 l-163 13 l0 89 l445 0 l0 -89 l-163 -13 l0 -879 l163 -13 l0 -88 l-445 0 l0 88 l163 13 l0 354 q-69 -25 -142 -39.5 q-73 -14.5 -141 -14.5 q-209 0 -311 93.5 q-102 93.5 -102 313.5 l0 173 l-163 13 l0 88 l282 0 l163 0 Z" /><glyph glyph-name="uni0448" unicode="&#x448;" d="M97 993 l0 89 l282 0 l163 0 l0 -89 l-163 -13 l0 -879 l482 0 l0 981 l120 0 l0 -981 l477 0 l0 879 l-163 13 l0 89 l282 0 l163 0 l0 -89 l-163 -13 l0 -879 l163 -13 l0 -88 l-1643 0 l0 88 l163 13 l0 879 l-163 13 Z" /><glyph glyph-name="uni0449" unicode="&#x449;" d="M1735 1082 l0 -89 l-163 -13 l0 -878 l168 0 l-9 -423 l-110 0 l0 321 l-1529 0 l0 88 l163 13 l0 879 l-163 13 l0 89 l163 0 l119 0 l163 0 l0 -89 l-163 -13 l0 -879 l482 0 l0 981 l120 0 l0 -981 l477 0 l0 879 l-163 13 l0 89 l163 0 l119 0 l163 0 Z" /><glyph glyph-name="uni044A" unicode="&#x44a;" d="M178 980 l-8 -204 l-107 0 l0 306 l527 0 l163 0 l0 -89 l-163 -13 l0 -291 l310 0 q186 0 291 -95.5 q105 -95.5 105 -247.5 q0 -153 -105 -249.5 q-105 -96.5 -291 -96.5 l-592 0 l0 88 l163 13 l0 879 l-293 0 ZM590 587 l0 -486 l310 0 q139 0 207.5 69.5 q68.5 69.5 68.5 173.5 q0 100 -69 171.5 q-69 71.5 -207 71.5 l-310 0 Z" /><glyph glyph-name="uni044B" unicode="&#x44b;" d="M379 1082 l0 -393 l310 0 q186 0 291 -95.5 q105 -95.5 105 -247.5 q0 -153 -105 -249.5 q-105 -96.5 -291 -96.5 l-592 0 l0 88 l163 13 l0 879 l-163 13 l0 89 l163 0 l119 0 ZM379 587 l0 -486 l310 0 q139 0 207.5 69.5 q68.5 69.5 68.5 173.5 q0 100 -69 171.5 q-69 71.5 -207 71.5 l-310 0 ZM1139 88 l163 13 l0 879 l-163 13 l0 89 l282 0 l0 -981 l163 -13 l0 -88 l-445 0 l0 88 ZM542 1082 l0 -89 l-163 -13 l0 102 l163 0 Z" /><glyph glyph-name="uni044C" unicode="&#x44c;" d="M379 1082 l0 -393 l310 0 q186 0 291 -95.5 q105 -95.5 105 -247.5 q0 -153 -105 -249.5 q-105 -96.5 -291 -96.5 l-592 0 l0 88 l163 13 l0 879 l-163 13 l0 89 l163 0 l119 0 ZM379 587 l0 -486 l310 0 q139 0 207.5 69.5 q68.5 69.5 68.5 173.5 q0 100 -69 171.5 q-69 71.5 -207 71.5 l-310 0 ZM542 1082 l0 -89 l-163 -13 l0 102 l163 0 Z" /><glyph glyph-name="uni044D" unicode="&#x44d;" d="M530 80 q168 0 251.5 116 q83.5 116 86.5 295 l-3 5 l-494 0 l0 101 l493 0 l2 5 q-4 171 -87.5 284.5 q-83.5 113.5 -247.5 113.5 q-92 0 -164 -31.5 q-72 -31.5 -118 -85.5 l-20 -192 l-101 0 l4 236 q65 81 168.5 128 q103.5 47 230.5 47 q218 0 339 -152 q121 -152 121 -388 l0 -42 q0 -238 -121 -389.5 q-121 -151.5 -340 -151.5 q-166 0 -290.5 101 q-124.5 101 -118.5 251 l2 6 l105 0 q0 -121 91 -189 q91 -68 211 -68 Z" /><glyph glyph-name="uni044E" unicode="&#x44e;" d="M81 88 l163 13 l0 879 l-163 13 l0 89 l282 0 l0 -493 l285 0 q9 226 139 369.5 q130 143.5 338 143.5 q217 0 348 -153 q131 -153 131 -392 l0 -33 q0 -240 -130.5 -392.5 q-130.5 -152.5 -346.5 -152.5 q-209 0 -339 141 q-130 141 -140 368 l-285 0 l0 -387 l163 -13 l0 -88 l-445 0 l0 88 ZM767 524 q0 -188 95 -316 q95 -128 265 -128 q167 0 262 128 q95 128 95 316 l0 33 q0 185 -95.5 314 q-95.5 129 -263.5 129 q-168 0 -263 -129 q-95 -129 -95 -314 l0 -33 Z" /><glyph glyph-name="uni044F" unicode="&#x44f;" d="M532 436 l-264 -436 l-203 0 l0 88 l130 10 l214 352 q-112 30 -173 112 q-61 82 -61 197 q0 142 102.5 232.5 q102.5 90.5 285.5 90.5 l589 0 l0 -89 l-163 -13 l0 -879 l163 -13 l0 -88 l-446 0 l0 88 l163 13 l0 335 l-337 0 ZM295 757 q0 -92 58.5 -155.5 q58.5 -63.5 176.5 -63.5 l339 0 l0 442 l-306 0 q-134 0 -201 -64.5 q-67 -64.5 -67 -158.5 Z" /><glyph glyph-name="uni0452" unicode="&#x452;" d="M591 1217 l-247 0 l0 -320 q54 97 144 151 q90 54 210 54 q171 0 262.5 -106 q91.5 -106 91.5 -329 l0 -756 q0 -167 -80.5 -257.5 q-80.5 -90.5 -223.5 -90.5 q-34 0 -63 5 q-29 5 -61 14 l14 99 q17 -6 51.5 -11 q34.5 -5 58.5 -5 q87 0 135.5 64.5 q48.5 64.5 48.5 181.5 l0 758 q0 176 -69.5 252.5 q-69.5 76.5 -191.5 76.5 q-123 0 -205.5 -64.5 q-82.5 -64.5 -121.5 -171.5 l0 -661 l163 -13 l0 -88 l-445 0 l0 88 l163 13 l0 1116 l-207 0 l0 82 l207 0 l0 159 l-163 13 l0 89 l282 0 l0 -261 l247 0 l0 -82 Z" /><glyph glyph-name="uni0454" unicode="&#x454;" d="M578 80 q119 0 210 68 q91 68 91 189 l106 0 l2 -6 q5 -150 -119.5 -251 q-124.5 -101 -289.5 -101 q-220 0 -341 151.5 q-121 151.5 -121 389.5 l0 42 q0 236 121 388 q121 152 340 152 q125 0 229 -47 q104 -47 169 -128 l5 -236 l-102 0 l-19 192 q-48 54 -119.5 85.5 q-71.5 31.5 -162.5 31.5 q-167 0 -250.5 -115 q-83.5 -115 -85.5 -288 l2 -5 l468 0 l0 -101 l-468 0 l-2 -5 q2 -177 85 -291.5 q83 -114.5 252 -114.5 Z" /><glyph glyph-name="uni0459" unicode="&#x459;" d="M1161 1082 l0 -89 l-163 -13 l0 -331 l310 0 q187 0 291.5 -90 q104.5 -90 104.5 -233 q0 -144 -104.5 -235 q-104.5 -91 -291.5 -91 l-593 0 l0 88 l163 13 l0 878 l-441 0 l0 -375 q0 -317 -76 -460.5 q-76 -143.5 -253 -143.5 l-43 0 l1 103 l38 0 q110 0 161.5 113.5 q51.5 113.5 51.5 387.5 l0 376 l-163 13 l0 89 l844 0 l163 0 ZM998 548 l0 -448 l310 0 q139 0 207.5 66 q68.5 66 68.5 162 q0 92 -68.5 156 q-68.5 64 -207.5 64 l-310 0 Z" /><glyph glyph-name="uni045A" unicode="&#x45a;" d="M97 88 l163 13 l0 879 l-163 13 l0 89 l445 0 l0 -89 l-163 -13 l0 -328 l583 0 l0 328 l-163 13 l0 89 l163 0 l120 0 l163 0 l0 -89 l-163 -13 l0 -331 l310 0 q187 0 291.5 -90 q104.5 -90 104.5 -233 q0 -144 -104.5 -235 q-104.5 -91 -291.5 -91 l-593 0 l0 88 l163 13 l0 450 l-583 0 l0 -450 l163 -13 l0 -88 l-445 0 l0 88 ZM1082 548 l0 -448 l310 0 q139 0 207.5 66 q68.5 66 68.5 162 q0 92 -68.5 156 q-68.5 64 -207.5 64 l-310 0 Z" /><glyph glyph-name="uni045B" unicode="&#x45b;" d="M31 1224 l0 102 l194 0 l0 132 l-163 13 l0 89 l282 0 l0 -234 l299 0 l0 -102 l-299 0 l0 -327 q54 97 144 151 q90 54 210 54 q171 0 262.5 -106 q91.5 -106 91.5 -329 l0 -566 l163 -13 l0 -88 l-446 0 l0 88 l163 13 l0 568 q0 176 -69.5 252.5 q-69.5 76.5 -191.5 76.5 q-123 0 -205.5 -64.5 q-82.5 -64.5 -121.5 -171.5 l0 -661 l163 -13 l0 -88 l-445 0 l0 88 l163 13 l0 1123 l-194 0 Z" /><glyph glyph-name="uni045F" unicode="&#x45f;" d="M735 -353 l-119 0 l0 353 l-518 0 l0 88 l163 13 l0 879 l-163 13 l0 89 l282 0 l163 0 l0 -89 l-163 -13 l0 -879 l584 0 l0 879 l-163 13 l0 89 l446 0 l0 -89 l-163 -13 l0 -879 l163 -13 l0 -88 l-512 0 l0 -353 Z" /><glyph glyph-name="uni0460" unicode="&#x460;" d="M1613 1456 l0 -1045 q0 -211 -109.5 -321.5 q-109.5 -110.5 -286.5 -110.5 q-118 0 -207 53.5 q-89 53.5 -133 159.5 q-46 -106 -136 -159.5 q-90 -53.5 -210 -53.5 q-174 0 -280.5 110.5 q-106.5 110.5 -106.5 321.5 l0 1045 l119 0 l0 -1045 q0 -159 74 -245 q74 -86 194 -86 q127 0 206.5 86.5 q79.5 86.5 79.5 244.5 l0 1045 l122 0 l0 -1045 q0 -159 76.5 -245 q76.5 -86 201.5 -86 q122 0 199 86.5 q77 86.5 77 244.5 l0 1045 l120 0 Z" /><glyph glyph-name="uni0461" unicode="&#x461;" d="M1500 1082 l0 -700 q0 -197 -101.5 -300 q-101.5 -103 -265.5 -103 q-107 0 -187.5 47.5 q-80.5 47.5 -121.5 140.5 q-44 -93 -126.5 -140.5 q-82.5 -47.5 -189.5 -47.5 q-162 0 -260 103 q-98 103 -98 300 l0 700 l119 0 l0 -700 q0 -145 66 -223.5 q66 -78.5 173 -78.5 q114 0 185.5 78.5 q71.5 78.5 71.5 223.5 l0 700 l120 0 l0 -700 q0 -145 68.5 -223.5 q68.5 -78.5 179.5 -78.5 q110 0 178.5 78.5 q68.5 78.5 68.5 223.5 l0 700 l120 0 Z" /><glyph glyph-name="uni0463" unicode="&#x463;" d="M339 1183 l326 0 l0 -101 l-326 0 l0 -375 l310 0 q187 0 291.5 -98 q104.5 -98 104.5 -254 q0 -157 -104.5 -256 q-104.5 -99 -291.5 -99 l-592 0 l0 88 l163 13 l0 981 l-199 0 l0 101 l199 0 l0 276 l-163 13 l0 89 l282 0 l0 -378 ZM339 605 l0 -504 l310 0 q139 0 207.5 72 q68.5 72 68.5 180 q0 104 -69 178 q-69 74 -207 74 l-310 0 Z" /><glyph glyph-name="uni0464" unicode="&#x464;" d="M1723 1001 l-93 0 l-17 221 q-58 69 -151 111.5 q-93 42.5 -215 42.5 q-227 0 -368 -155 q-141 -155 -156 -402 l3 -6 l543 0 l0 -102 l-547 0 l-3 -5 q-1 -275 140.5 -450 q141.5 -175 372.5 -175 q123 0 223.5 43 q100.5 43 157.5 111 l17 221 l93 0 l0 -256 q-68 -94 -198.5 -157 q-130.5 -63 -292.5 -63 q-278 0 -456 205 q-178 205 -180 526 l-251 0 l0 -610 l163 -13 l0 -88 l-446 0 l0 88 l163 13 l0 1253 l-163 13 l0 89 l163 0 l120 0 l163 0 l0 -89 l-163 -13 l0 -541 l254 0 q21 296 195.5 480.5 q174.5 184.5 443.5 184.5 q162 0 289.5 -63.5 q127.5 -63.5 195.5 -157.5 l0 -256 Z" /><glyph glyph-name="uni0465" unicode="&#x465;" d="M370 601 l229 0 q10 221 130 361 q120 140 330 140 q125 0 229 -47 q104 -47 169 -128 l5 -236 l-102 0 l-19 192 q-48 54 -119.5 85.5 q-71.5 31.5 -162.5 31.5 q-165 0 -248 -112 q-83 -112 -87 -282 l2 -5 l471 0 l0 -101 l-472 0 l-3 -5 q0 -180 83.5 -297.5 q83.5 -117.5 254.5 -117.5 q119 0 210 68 q91 68 91 189 l106 0 l2 -6 q5 -150 -119.5 -251 q-124.5 -101 -289.5 -101 q-216 0 -336.5 145 q-120.5 145 -125.5 376 l-228 0 l0 -399 l163 -13 l0 -88 l-445 0 l0 88 l163 13 l0 879 l-163 13 l0 89 l163 0 l119 0 l0 -481 Z" /><glyph glyph-name="uni0466" unicode="&#x466;" d="M52 88 l106 8 l500 1360 l113 0 l496 -1360 l107 -8 l0 -88 l-359 0 l0 88 l128 10 l-139 386 l-237 0 l0 -484 l-120 0 l0 484 l-225 0 l-140 -386 l128 -10 l0 -88 l-358 0 l0 88 ZM460 590 l506 0 l-248 695 l-6 0 l-252 -695 Z" /><glyph glyph-name="uni0467" unicode="&#x467;" d="M853 347 l-171 0 l0 -347 l-119 0 l0 347 l-179 0 l-145 -347 l-178 0 l0 88 l93 8 l412 986 l105 0 l413 -986 l94 -8 l0 -88 l-177 0 l-148 347 ZM427 449 l383 0 l-153 360 l-36 120 l-6 0 l-37 -120 l-151 -360 Z" /><glyph glyph-name="uni0468" unicode="&#x468;" d="M510 1456 l0 -89 l-163 -13 l0 -764 l531 0 l318 866 l113 0 l496 -1360 l107 -8 l0 -88 l-359 0 l0 88 l128 10 l-139 386 l-237 0 l0 -484 l-120 0 l0 484 l-225 0 l-140 -386 l128 -10 l0 -88 l-358 0 l0 88 l106 8 l143 388 l-492 0 l0 -383 l163 -13 l0 -88 l-446 0 l0 88 l163 13 l0 1253 l-163 13 l0 89 l163 0 l120 0 l163 0 ZM998 590 l506 0 l-248 695 l-6 0 l-252 -695 Z" /><glyph glyph-name="uni0469" unicode="&#x469;" d="M353 449 l442 0 l265 633 l105 0 l413 -986 l94 -8 l0 -88 l-177 0 l-148 347 l-171 0 l0 -347 l-119 0 l0 347 l-179 0 l-145 -347 l-178 0 l0 88 l93 8 l105 251 l-400 0 l0 -246 l163 -13 l0 -88 l-445 0 l0 88 l163 13 l0 879 l-163 13 l0 89 l163 0 l119 0 l0 -633 ZM921 449 l383 0 l-153 360 l-36 120 l-6 0 l-37 -120 l-151 -360 Z" /><glyph glyph-name="uni046A" unicode="&#x46a;" d="M827 678 l-166 0 q-170 0 -246.5 -67 q-76.5 -67 -76.5 -231 l0 -279 l163 -13 l0 -88 l-446 0 l0 88 l163 13 l0 279 q0 210 113 305 q113 95 330 95 l101 0 l-369 576 l-135 11 l0 89 l1275 0 l0 -89 l-135 -11 l-368 -576 l95 0 q217 0 330.5 -94.5 q113.5 -94.5 113.5 -305.5 l0 -279 l163 -13 l0 -88 l-446 0 l0 88 l163 13 l0 279 q0 165 -77 231.5 q-77 66.5 -247 66.5 l-160 0 l-11 -17 l0 -560 l163 -13 l0 -88 l-446 0 l0 88 l163 13 l0 566 l-7 11 ZM886 780 l19 0 l355 574 l-728 0 l354 -574 Z" /><glyph glyph-name="uni046B" unicode="&#x46b;" d="M708 492 l-74 0 q-161 0 -233.5 -66.5 q-72.5 -66.5 -72.5 -230.5 l0 -195 l-265 0 l0 88 l145 13 l0 94 q0 210 108.5 304.5 q108.5 94.5 317.5 94.5 l6 0 l-259 388 l-138 11 l0 89 l1067 0 l0 -89 l-138 -11 l-260 -388 q208 0 317 -94.5 q109 -94.5 109 -304.5 l0 -94 l145 -13 l0 -88 l-265 0 l0 195 q0 164 -73 230.5 q-73 66.5 -233 66.5 l-68 0 l-9 -14 l0 -377 l163 -13 l0 -88 l-446 0 l0 88 l163 13 l0 381 l-7 10 ZM766 594 l21 0 l248 385 l-517 0 l248 -385 Z" /><glyph glyph-name="uni046C" unicode="&#x46c;" d="M1371 678 l-182 0 q-161 -4 -234 -71 q-73 -67 -73 -227 l0 -279 l163 -13 l0 -88 l-446 0 l0 88 l163 13 l0 279 q0 101 26.5 175 q26.5 74 78.5 123 l-523 0 l0 -577 l163 -13 l0 -88 l-446 0 l0 88 l163 13 l0 1253 l-163 13 l0 89 l163 0 l120 0 l163 0 l0 -89 l-163 -13 l0 -574 l840 0 l21 0 l101 0 l-369 576 l-135 11 l0 89 l1275 0 l0 -89 l-135 -11 l-368 -576 l95 0 q217 0 330.5 -94.5 q113.5 -94.5 113.5 -305.5 l0 -279 l163 -13 l0 -88 l-446 0 l0 88 l163 13 l0 279 q0 165 -77 231.5 q-77 66.5 -247 66.5 l-160 0 l-11 -17 l0 -560 l163 -13 l0 -88 l-446 0 l0 88 l163 13 l0 566 l-7 11 ZM1430 780 l19 0 l355 574 l-728 0 l354 -574 Z" /><glyph glyph-name="uni046D" unicode="&#x46d;" d="M57 88 l163 13 l0 879 l-163 13 l0 89 l282 0 l0 -488 l765 0 l-259 388 l-138 11 l0 89 l1067 0 l0 -89 l-138 -11 l-260 -388 q208 0 317 -94.5 q109 -94.5 109 -304.5 l0 -94 l145 -13 l0 -88 l-265 0 l0 195 q0 164 -73 230.5 q-73 66.5 -233 66.5 l-68 0 l-9 -14 l0 -377 l163 -13 l0 -88 l-446 0 l0 88 l163 13 l0 381 l-7 10 l-74 0 q-161 0 -233.5 -66.5 q-72.5 -66.5 -72.5 -230.5 l0 -195 l-265 0 l0 88 l145 13 l0 94 q0 101 25 174.5 q25 73.5 75 122.5 l-433 0 l0 -391 l163 -13 l0 -88 l-445 0 l0 88 ZM1230 594 l21 0 l248 385 l-517 0 l248 -385 Z" /><glyph glyph-name="uni046E" unicode="&#x46e;" d="M413 797 q193 0 285 73 q92 73 92 207 q0 125 -84.5 206 q-84.5 81 -248.5 81 q-94 0 -168 -31.5 q-74 -31.5 -122 -84.5 l-7 -192 l-101 0 l0 236 q64 80 168 127 q104 47 230 47 q205 0 329.5 -105.5 q124.5 -105.5 124.5 -287.5 q0 -110 -70.5 -196.5 q-70.5 -86.5 -195.5 -128.5 q142 -38 215 -127.5 q73 -89.5 73 -224.5 q0 -189 -143 -297 q-143 -108 -361 -108 l-67 0 q-91 0 -131.5 -32.5 q-40.5 -32.5 -40.5 -95.5 q0 -65 54 -113.5 q54 -48.5 117 -71.5 l-45 -87 q-91 33 -165.5 107.5 q-74.5 74.5 -74.5 168.5 q0 108 73.5 166.5 q73.5 58.5 216.5 58.5 l63 0 q175 0 279.5 81.5 q104.5 81.5 104.5 218.5 q0 154 -101.5 228 q-101.5 74 -298.5 74 l-132 0 l0 103 l132 0 ZM501 1716 l167 169 l115 0 l0 -17 l-233 -225 l-98 0 l-231 225 l0 17 l114 0 l166 -169 Z" /><glyph glyph-name="uni046F" unicode="&#x46f;" d="M836 794 q0 -79 -55.5 -144.5 q-55.5 -65.5 -154.5 -101.5 q114 -30 173 -93 q59 -63 59 -155 q0 -145 -127.5 -227 q-127.5 -82 -323.5 -82 l-45 0 q-91 0 -131 -32.5 q-40 -32.5 -40 -95.5 q0 -65 54 -113.5 q54 -48.5 117 -71.5 l-45 -87 q-92 33 -166.5 107.5 q-74.5 74.5 -74.5 168.5 q0 108 73.5 166.5 q73.5 58.5 216.5 58.5 l41 0 q152 0 241.5 54.5 q89.5 54.5 89.5 149.5 q0 101 -87.5 149 q-87.5 48 -259.5 48 l-132 0 l0 103 l132 0 q166 0 245.5 53.5 q79.5 53.5 79.5 148.5 q0 81 -72.5 133.5 q-72.5 52.5 -215.5 53.5 q-85 0 -151 -26.5 q-66 -26.5 -109 -70.5 l-6 -144 l-101 0 l0 188 q59 71 154.5 112.5 q95.5 41.5 212.5 41.5 q185 0 296.5 -78 q111.5 -78 111.5 -214 ZM430 1387 l167 169 l115 0 l0 -17 l-233 -225 l-98 0 l-231 225 l0 17 l114 0 l166 -169 Z" /><glyph glyph-name="uni0472" unicode="&#x472;" d="M1351 718 q0 -328 -175 -533.5 q-175 -205.5 -455 -205.5 q-276 0 -448.5 206 q-172.5 206 -172.5 533 l0 19 q0 327 172 533.5 q172 206.5 448 206.5 q280 0 455.5 -206.5 q175.5 -206.5 175.5 -533.5 l0 -19 ZM720 1372 q-224 0 -357 -164 q-133 -164 -137 -429 l2 -5 l995 0 l2 5 q-6 265 -141.5 429 q-135.5 164 -363.5 164 ZM721 83 q227 0 361.5 160.5 q134.5 160.5 142.5 424.5 l-2 5 l-995 0 l-2 -5 q6 -263 139.5 -424 q133.5 -161 355.5 -161 Z" /><glyph glyph-name="uni0473" unicode="&#x473;" d="M103 557 q0 239 131 392 q131 153 347 153 q217 0 348 -153 q131 -153 131 -392 l0 -33 q0 -240 -130.5 -392.5 q-130.5 -152.5 -346.5 -152.5 q-218 0 -349 152.5 q-131 152.5 -131 392.5 l0 33 ZM583 80 q159 0 252.5 117 q93.5 117 98.5 290 l-2 5 l-701 0 l-2 -5 q3 -174 97 -290.5 q94 -116.5 257 -116.5 ZM581 1000 q-160 0 -253.5 -116.5 q-93.5 -116.5 -98.5 -284.5 l2 -5 l701 0 l2 5 q-7 169 -100.5 285 q-93.5 116 -252.5 116 Z" /><glyph glyph-name="uni0474" unicode="&#x474;" d="M421 1367 l-131 -11 l352 -1101 l29 -101 l6 0 l29 101 l307 953 q44 145 112.5 206.5 q68.5 61.5 176.5 61.5 l28 -1 l-1 -105 l-11 0 q-65 0 -112.5 -37 q-47.5 -37 -83.5 -149 l-392 -1184 l-112 0 l-458 1359 l-103 8 l0 89 l364 0 l0 -89 Z" /><glyph glyph-name="uni0475" unicode="&#x475;" d="M423 993 l-131 -11 l234 -711 l35 -127 l6 0 l38 127 l186 593 q42 126 104 181.5 q62 55.5 149 55.5 q30 0 57 -7 q27 -7 49 -20 l-23 -93 q-10 5 -27 10 q-17 5 -37 5 q-49 0 -89 -32 q-40 -32 -69 -120 l-293 -844 l-96 0 l-346 985 l-105 8 l0 89 l358 0 l0 -89 Z" /><glyph glyph-name="uni047A" unicode="&#x47a;" d="M786 1248 l-119 0 l0 346 l119 0 l0 -346 ZM786 -143 l-119 0 l0 351 l119 0 l0 -351 ZM1351 718 q0 -328 -175 -533.5 q-175 -205.5 -455 -205.5 q-276 0 -448.5 206 q-172.5 206 -172.5 533 l0 19 q0 327 172 533.5 q172 206.5 448 206.5 q280 0 455.5 -206.5 q175.5 -206.5 175.5 -533.5 l0 -19 ZM1231 739 q0 283 -138 458 q-138 175 -373 175 q-231 0 -365.5 -175 q-134.5 -175 -134.5 -458 l0 -21 q0 -285 135 -460 q135 -175 366 -175 q237 0 373.5 174.5 q136.5 174.5 136.5 460.5 l0 21 Z" /><glyph glyph-name="uni047B" unicode="&#x47b;" d="M609 875 l-120 0 l0 337 l120 0 l0 -337 ZM609 -133 l-120 0 l0 337 l120 0 l0 -337 ZM103 557 q0 239 131 392 q131 153 347 153 q217 0 348 -153 q131 -153 131 -392 l0 -33 q0 -240 -130.5 -392.5 q-130.5 -152.5 -346.5 -152.5 q-218 0 -349 152.5 q-131 152.5 -131 392.5 l0 33 ZM223 524 q0 -188 95 -316 q95 -128 265 -128 q167 0 262 128 q95 128 95 316 l0 33 q0 185 -95.5 314 q-95.5 129 -263.5 129 q-168 0 -263 -129 q-95 -129 -95 -314 l0 -33 Z" /><glyph glyph-name="uni047C" unicode="&#x47c;" d="M1214 1445 l6 2 q169 5 275.5 -110 q106.5 -115 106.5 -333 l0 -575 q0 -219 -107 -334.5 q-107 -115.5 -281 -115.5 q-120 0 -210 53.5 q-90 53.5 -136 157.5 q-46 -104 -136 -157.5 q-90 -53.5 -209 -53.5 q-174 0 -280.5 115.5 q-106.5 115.5 -106.5 334.5 l0 575 q0 218 106 333 q106 115 275 110 l6 -2 l0 -92 q-120 0 -194 -91.5 q-74 -91.5 -74 -257.5 l0 -575 q0 -167 74 -258 q74 -91 194 -91 q127 0 206.5 86.5 q79.5 86.5 79.5 244.5 l0 473 l120 0 l0 -473 q0 -159 78.5 -245 q78.5 -86 206.5 -86 q119 0 193.5 91 q74.5 91 74.5 258 l0 575 q0 166 -74.5 257.5 q-74.5 91.5 -193.5 91.5 l0 92 ZM1326 1683 l0 -85 l-30 0 q-129 0 -263 78.5 q-134 78.5 -192 78.5 q-73 0 -111.5 -41 q-38.5 -41 -38.5 -106 l0 -18 l-91 0 l0 31 q0 102 63 162.5 q63 60.5 174 60.5 q80 0 215.5 -80.5 q135.5 -80.5 245.5 -80.5 l28 0 ZM820 1330 l-56 46 l62 121 l-1 140 l139 0 l0 -133 l-144 -174 Z" /><glyph glyph-name="uni047D" unicode="&#x47d;" d="M1105 1085 l6 2 q156 5 254 -102.5 q98 -107.5 98 -311.5 l0 -273 q0 -206 -98.5 -313.5 q-98.5 -107.5 -259.5 -107.5 q-109 0 -191.5 47.5 q-82.5 47.5 -125.5 142.5 q-43 -95 -125.5 -142.5 q-82.5 -47.5 -190.5 -47.5 q-162 0 -260 107.5 q-98 107.5 -98 313.5 l0 273 q0 204 97.5 311.5 q97.5 107.5 254.5 102.5 l6 -2 l0 -92 q-108 0 -173.5 -83.5 q-65.5 -83.5 -65.5 -236.5 l0 -273 q0 -154 65.5 -237 q65.5 -83 173.5 -83 q114 0 185.5 78.5 q71.5 78.5 71.5 223.5 l0 244 l119 0 l0 -244 q0 -145 71 -223.5 q71 -78.5 186 -78.5 q107 0 173 83 q66 83 66 237 l0 273 q0 153 -66 236.5 q-66 83.5 -173 83.5 l0 92 ZM1255 1355 l0 -85 l-30 0 q-128 0 -262.5 78.5 q-134.5 78.5 -193.5 78.5 q-72 0 -110.5 -40.5 q-38.5 -40.5 -38.5 -105.5 l0 -18 l-91 0 l0 30 q0 102 62.5 163 q62.5 61 173.5 61 q80 0 216 -81 q136 -81 246 -81 l28 0 ZM893 1176 l-144 -174 l-56 46 l61 121 l0 140 l139 0 l0 -133 Z" /><glyph glyph-name="uni047E" unicode="&#x47e;" d="M518 1697 l0 81 l756 0 l1 -81 l-331 0 l0 -114 l-111 0 l0 114 l-315 0 ZM1493 1456 l0 -1045 q0 -158 -77 -244.5 q-77 -86.5 -199 -86.5 q-125 0 -201.5 86 q-76.5 86 -76.5 245 l0 1045 l-122 0 l0 -1045 q0 -158 -79.5 -244.5 q-79.5 -86.5 -206.5 -86.5 q-120 0 -194 86 q-74 86 -74 245 l0 1045 l-119 0 l0 -1045 q0 -211 106.5 -321.5 q106.5 -110.5 280.5 -110.5 q120 0 210 53.5 q90 53.5 136 159.5 q44 -106 133 -159.5 q89 -53.5 207 -53.5 q177 0 286.5 110.5 q109.5 110.5 109.5 321.5 l0 1045 l-120 0 Z" /><glyph glyph-name="uni047F" unicode="&#x47f;" d="M443 1375 l2 81 l755 0 l3 -81 l-333 0 l0 -130 l-111 0 l0 130 l-316 0 ZM1380 1082 l0 -700 q0 -145 -68.5 -223.5 q-68.5 -78.5 -178.5 -78.5 q-111 0 -179.5 78.5 q-68.5 78.5 -68.5 223.5 l0 700 l-120 0 l0 -700 q0 -145 -71.5 -223.5 q-71.5 -78.5 -185.5 -78.5 q-107 0 -173 78.5 q-66 78.5 -66 223.5 l0 700 l-119 0 l0 -700 q0 -197 98 -300 q98 -103 260 -103 q107 0 189.5 47.5 q82.5 47.5 126.5 140.5 q41 -93 121.5 -140.5 q80.5 -47.5 187.5 -47.5 q164 0 265.5 103 q101.5 103 101.5 300 l0 700 l-120 0 Z" /><glyph glyph-name="uni0480" unicode="&#x480;" d="M732 -366 l-119 0 l0 347 q-227 16 -363 188.5 q-136 172.5 -136 439.5 l0 237 q0 278 149 454.5 q149 176.5 392 176.5 q236 0 378.5 -125 q142.5 -125 138.5 -344 l-2 -6 l-111 0 q0 176 -107.5 274.5 q-107.5 98.5 -296.5 98.5 q-191 0 -306.5 -147.5 q-115.5 -147.5 -115.5 -379.5 l0 -239 q0 -234 115.5 -381.5 q115.5 -147.5 306.5 -147.5 l77 0 l0 -446 Z" /><glyph glyph-name="uni0481" unicode="&#x481;" d="M640 -366 l-119 0 l0 347 q-194 17 -305.5 167 q-111.5 150 -111.5 372 l0 42 q0 233 124.5 386.5 q124.5 153.5 336.5 153.5 q173 0 289 -105 q116 -105 112 -276 l-2 -6 l-107 0 q0 130 -84.5 207.5 q-84.5 77.5 -207.5 77.5 q-166 0 -253.5 -126.5 q-87.5 -126.5 -87.5 -311.5 l0 -42 q0 -188 87.5 -314 q87.5 -126 254.5 -126 l74 0 l0 -446 Z" /><glyph glyph-name="uni0482" unicode="&#x482;" d="M480 432 l289 -172 l-54 -95 l-291 170 l-187 -335 l-134 0 l225 398 l-289 171 l52 94 l293 -171 l221 394 l-290 171 l54 96 l291 -171 l204 360 l131 0 l-240 -422 l293 -171 l-58 -94 l-288 170 l-222 -393 Z" /><glyph glyph-name="uni0483" unicode="&#x483;" d="M267 1339 l0 -123 l-111 0 l0 202 l510 0 l0 108 l110 0 l0 -187 l-509 0 Z" /><glyph glyph-name="uni0484" unicode="&#x484;" d="M164 1395 q110 0 246 81 q136 81 216 81 q110 0 173.5 -61 q63.5 -61 63.5 -163 l0 -30 l-91 0 l0 18 q0 65 -39 105.5 q-39 40.5 -111 40.5 q-59 0 -193 -78.5 q-134 -78.5 -262 -78.5 l-30 0 l0 85 l27 0 Z" /><glyph glyph-name="uni0485" unicode="&#x485;" d="M126 1500 l0 133 l138 0 l-1 -140 l62 -121 l-57 -46 l-142 174 Z" /><glyph glyph-name="uni0486" unicode="&#x486;" d="M182 1326 l-56 46 l61 121 l-1 140 l139 0 l0 -133 l-143 -174 Z" /><glyph glyph-name="uni0488" unicode="&#x488;" d="M800 1267 l-2 6 q-5 79 51 130.5 q56 51.5 153 51.5 q96 0 152.5 -51.5 q56.5 -51.5 52.5 -130.5 l-2 -6 l-104 0 q0 43 -24.5 72 q-24.5 29 -74.5 29 q-50 0 -73.5 -29 q-23.5 -29 -23.5 -72 l-105 0 ZM1391 990 l-2 6 q-5 78 51.5 130 q56.5 52 152.5 52 q96 0 153 -51.5 q57 -51.5 53 -130.5 l-2 -6 l-105 0 q0 44 -24 72.5 q-24 28.5 -75 28.5 q-50 0 -73 -29 q-23 -29 -23 -72 l-106 0 ZM1578 487 l-2 6 q-5 78 51.5 130 q56.5 52 152.5 52 q96 0 152.5 -51.5 q56.5 -51.5 52.5 -130.5 l-2 -6 l-104 0 q0 44 -24 72.5 q-24 28.5 -75 28.5 q-50 0 -73.5 -29 q-23.5 -29 -23.5 -72 l-105 0 ZM1381 -32 l-2 6 q-5 78 51.5 130 q56.5 52 152.5 52 q96 0 152.5 -51.5 q56.5 -51.5 52.5 -130.5 l-2 -6 l-104 0 q0 44 -24 72.5 q-24 28.5 -75 28.5 q-50 0 -73.5 -29 q-23.5 -29 -23.5 -72 l-105 0 ZM805 -316 l-2 6 q-5 80 51 131 q56 51 153 51 q96 0 152.5 -51 q56.5 -51 52.5 -131 l-2 -6 l-104 0 q0 44 -24.5 72.5 q-24.5 28.5 -74.5 28.5 q-50 0 -73.5 -28.5 q-23.5 -28.5 -23.5 -72.5 l-105 0 ZM227 990 l-2 6 q-5 79 51.5 130.5 q56.5 51.5 153.5 51.5 q96 0 152.5 -51.5 q56.5 -51.5 52.5 -130.5 l-2 -6 l-104 0 q0 43 -24.5 72 q-24.5 29 -74.5 29 q-50 0 -73.5 -29 q-23.5 -29 -23.5 -72 l-106 0 ZM51 487 l-2 6 q-5 78 51.5 130 q56.5 52 152.5 52 q96 0 152.5 -51.5 q56.5 -51.5 52.5 -130.5 l-2 -6 l-104 0 q0 44 -24 72.5 q-24 28.5 -75 28.5 q-50 0 -73.5 -29 q-23.5 -29 -23.5 -72 l-105 0 ZM217 -32 l-2 6 q-5 78 51.5 130 q56.5 52 152.5 52 q96 0 153 -51.5 q57 -51.5 53 -130.5 l-2 -6 l-105 0 q0 44 -24 72.5 q-24 28.5 -75 28.5 q-50 0 -73 -29 q-23 -29 -23 -72 l-106 0 Z" /><glyph glyph-name="uni0489" unicode="&#x489;" d="M1076 -60 l11 -14 l-122 -339 l-96 0 l70 353 l137 0 ZM881 1126 l-12 14 l122 338 l96 0 l-70 -352 l-136 0 ZM1559 631 l13 12 l333 -124 l0 -98 l-346 71 l0 139 ZM395 433 l-13 -12 l-333 124 l0 98 l346 -71 l0 -139 ZM1319 1002 l2 16 l321 153 l68 -68 q-37 -23 -294 -200 l-97 99 ZM635 21 l-2 -17 l-320 -153 l-69 69 l294 200 l97 -99 ZM495 860 l-17 2 l-148 326 l65 69 l198 -299 l-98 -98 ZM1457 161 l17 -2 l149 -325 l-66 -71 l-197 299 l97 99 Z" /><glyph glyph-name="uni048D" unicode="&#x48d;" d="M337 1456 l312 0 l0 -102 l-312 0 l0 -647 l310 0 q187 0 291 -98 q104 -98 104 -254 q0 -157 -104.5 -256 q-104.5 -99 -290.5 -99 l-593 0 l0 88 l163 13 l0 1253 l-212 0 l0 102 l212 0 l0 77 l-163 14 l0 88 l283 0 l0 -179 ZM337 605 l0 -504 l310 0 q139 0 207 72 q68 72 68 180 q0 104 -68.5 178 q-68.5 74 -206.5 74 l-310 0 Z" /><glyph glyph-name="uni048E" unicode="&#x48e;" d="M1164 566 l-75 -68 l-334 379 l75 67 l334 -378 ZM681 1456 q229 0 354.5 -116.5 q125.5 -116.5 125.5 -308.5 q0 -194 -125.5 -310 q-125.5 -116 -354.5 -116 l-332 0 l0 -504 l163 -13 l0 -88 l-445 0 l0 88 l163 13 l0 1253 l-163 13 l0 89 l163 0 l451 0 ZM349 707 l332 0 q180 0 270.5 91.5 q90.5 91.5 90.5 230.5 q0 140 -90 232.5 q-90 92.5 -271 92.5 l-332 0 l0 -647 Z" /><glyph glyph-name="uni048F" unicode="&#x48f;" d="M1042 -17 l-77 -67 l-290 360 l77 66 l290 -359 ZM65 993 l0 89 l263 0 l15 -168 q55 90 140.5 139 q85.5 49 200.5 49 q195 0 305 -155.5 q110 -155.5 110 -414.5 l0 -21 q0 -243 -110 -387.5 q-110 -144.5 -303 -144.5 q-114 0 -199.5 43.5 q-85.5 43.5 -139.5 123.5 l0 -460 l163 -13 l0 -89 l-445 0 l0 89 l163 13 l0 1294 l-163 13 ZM979 532 q0 206 -82 336 q-82 130 -240 130 q-121 0 -196.5 -57.5 q-75.5 -57.5 -113.5 -149.5 l0 -520 q41 -89 118.5 -140 q77.5 -51 193.5 -51 q157 0 238.5 118 q81.5 118 81.5 313 l0 21 Z" /><glyph glyph-name="uni0490" unicode="&#x490;" d="M1012 1810 l101 0 l0 -457 l-119 0 l0 1 l-642 0 l0 -1253 l163 -13 l0 -88 l-446 0 l0 88 l163 13 l0 1253 l-163 13 l0 89 l929 0 l14 354 Z" /><glyph glyph-name="uni0491" unicode="&#x491;" d="M793 1082 l23 291 l88 0 l0 -394 l-554 0 l0 -878 l163 -13 l0 -88 l-446 0 l0 88 l163 13 l0 879 l-163 13 l0 89 l163 0 l563 0 Z" /><glyph glyph-name="uni0493" unicode="&#x493;" d="M235 520 l-179 0 l0 101 l179 0 l0 359 l-163 13 l0 89 l850 0 l0 -233 l-88 0 l-8 130 l-472 0 l0 -358 l314 0 l0 -101 l-314 0 l0 -419 l163 -13 l0 -88 l-445 0 l0 88 l163 13 l0 419 Z" /><glyph glyph-name="uni0494" unicode="&#x494;" d="M77 88 l163 13 l0 1253 l-163 13 l0 89 l1039 0 l0 -307 l-107 0 l-9 205 l-641 0 l0 -527 l179 0 q268 0 423 -143.5 q155 -143.5 155 -427.5 q0 -227 -116.5 -382 q-116.5 -155 -334.5 -151 l-6 2 l-1 89 q167 0 252.5 125.5 q85.5 125.5 85.5 316.5 q-1 232 -122 348.5 q-121 116.5 -336 116.5 l-179 0 l0 -620 l163 -13 l0 -88 l-445 0 l0 88 Z" /><glyph glyph-name="uni0495" unicode="&#x495;" d="M912 849 l-88 0 l-8 130 l-466 0 l0 -354 l155 0 q232 0 374 -116.5 q142 -116.5 142 -343.5 q0 -132 -91 -264.5 q-91 -132.5 -284 -168.5 l-32 92 q153 35 219 128 q66 93 68 213 q2 174 -108 264 q-110 90 -288 90 l-155 0 l0 -418 l163 -13 l0 -88 l-446 0 l0 88 l163 13 l0 879 l-163 13 l0 89 l163 0 l668 0 l0 -18 l14 0 l0 -215 Z" /><glyph glyph-name="uni049C" unicode="&#x49c;" d="M70 88 l163 13 l0 1253 l-163 13 l0 89 l282 0 l163 0 l0 -89 l-163 -13 l0 -568 l145 0 l0 288 l102 0 l0 -288 l84 0 l316 514 q62 102 117.5 134.5 q55.5 32.5 129.5 32.5 q33 0 62.5 -9.5 q29.5 -9.5 54.5 -25.5 l-26 -89 q-16 6 -34.5 10 q-18.5 4 -38.5 4 q-51 0 -85 -23.5 q-34 -23.5 -83 -94.5 l-305 -490 l428 -651 l137 -10 l0 -88 l-223 0 l-435 679 l-99 0 l0 -274 l-102 0 l0 274 l-145 0 l0 -578 l163 -13 l0 -88 l-445 0 l0 88 Z" /><glyph glyph-name="uni049D" unicode="&#x49d;" d="M90 88 l163 13 l0 879 l-163 13 l0 89 l283 0 l163 0 l0 -89 l-163 -13 l0 -378 l136 0 l0 241 l102 0 l0 -241 l58 0 l215 337 q57 87 112 122.5 q55 35.5 122 35.5 q32 0 58.5 -9.5 q26.5 -9.5 54.5 -26.5 l-26 -88 q-18 6 -33.5 10 q-15.5 4 -34.5 4 q-48 0 -82 -23 q-34 -23 -78 -86 l-204 -307 l334 -473 l123 -10 l0 -88 l-211 0 l-333 496 l-75 0 l0 -238 l-102 0 l0 238 l-136 0 l0 -395 l163 -13 l0 -88 l-446 0 l0 88 Z" /><glyph glyph-name="uni04A0" unicode="&#x4a0;" d="M155 1354 l-8 -204 l-107 0 l0 306 l693 0 l163 0 l0 -89 l-163 -13 l0 -574 l200 0 l385 520 q73 99 128 133 q55 34 124 34 q32 0 60 -9.5 q28 -9.5 54 -25.5 l-26 -90 q-17 6 -36 10.5 q-19 4.5 -38 4.5 q-50 0 -85.5 -24.5 q-35.5 -24.5 -87.5 -93.5 l-372 -498 l563 -641 l131 -12 l0 -88 l-415 0 l0 88 l138 8 l-513 578 l-210 0 l0 -573 l163 -13 l0 -88 l-445 0 l0 88 l163 13 l0 1253 l-459 0 Z" /><glyph glyph-name="uni04A1" unicode="&#x4a1;" d="M385 88 l163 13 l0 879 l-11 1 l0 -1 l-340 0 l-8 -204 l-107 0 l0 306 l466 0 l120 0 l163 0 l0 -89 l-163 -13 l0 -378 l160 0 l265 337 q67 86 120.5 122 q53.5 36 117.5 36 q32 0 58.5 -9.5 q26.5 -9.5 54.5 -26.5 l-26 -88 q-18 6 -33.5 10 q-15.5 4 -35.5 4 q-44 0 -80 -25 q-36 -25 -83 -84 l-252 -319 l407 -459 l142 -12 l0 -88 l-211 0 l-438 496 l-166 0 l0 -395 l163 -13 l0 -88 l-446 0 l0 88 Z" /><glyph glyph-name="uni04A4" unicode="&#x4a4;" d="M2018 1150 l-107 0 l-9 204 l-615 0 l0 -1253 l163 -13 l0 -88 l-445 0 l0 88 l163 13 l0 569 l-828 0 l0 -569 l163 -13 l0 -88 l-445 0 l0 88 l163 13 l0 1253 l-163 13 l0 89 l163 0 l119 0 l163 0 l0 -89 l-163 -13 l0 -582 l828 0 l0 582 l-163 13 l0 89 l163 0 l850 0 l0 -306 Z" /><glyph glyph-name="uni04A5" unicode="&#x4a5;" d="M1505 776 l-106 0 l-9 203 l-313 0 l0 -878 l163 -13 l0 -88 l-446 0 l0 88 l163 13 l0 395 l-583 0 l0 -395 l163 -13 l0 -88 l-445 0 l0 88 l163 13 l0 879 l-163 13 l0 89 l163 0 l119 0 l163 0 l0 -89 l-163 -13 l0 -383 l583 0 l0 383 l-163 13 l0 89 l163 0 l548 0 l0 -306 Z" /><glyph glyph-name="uni04A6" unicode="&#x4a6;" d="M65 1367 l0 89 l1393 0 l0 -89 l-163 -13 l0 -519 l144 0 q268 0 423 -143.5 q155 -143.5 155 -427.5 q0 -227 -116.5 -382 q-116.5 -155 -334.5 -151 l-6 2 l-1 89 q167 0 252.5 125.5 q85.5 125.5 85.5 316.5 q-1 232 -122 348.5 q-121 116.5 -336 116.5 l-144 0 l0 -628 l163 -13 l0 -88 l-445 0 l0 88 l163 13 l0 1253 l-829 0 l0 -1253 l163 -13 l0 -88 l-445 0 l0 88 l163 13 l0 1253 l-163 13 Z" /><glyph glyph-name="uni04A7" unicode="&#x4a7;" d="M1241 993 l-163 -13 l0 -355 l96 0 q236 0 380.5 -116.5 q144.5 -116.5 144.5 -343.5 q0 -133 -90.5 -265 q-90.5 -132 -283.5 -169 l-32 93 q152 34 218.5 127.5 q66.5 93.5 67.5 213.5 q3 175 -109.5 264.5 q-112.5 89.5 -295.5 89.5 l-96 0 l0 -418 l163 -13 l0 -88 l-446 0 l0 88 l163 13 l0 878 l-584 0 l0 -878 l163 -13 l0 -88 l-445 0 l0 88 l163 13 l0 879 l-163 13 l0 89 l163 0 l986 0 l0 -89 Z" /><glyph glyph-name="uni04A8" unicode="&#x4a8;" d="M1411 -26 q-105 0 -200 18.5 q-95 18.5 -177 54.5 q-69 -34 -148.5 -51 q-79.5 -17 -165.5 -17 q-281 0 -447.5 203.5 q-166.5 203.5 -166.5 516.5 l0 151 q0 273 125 448.5 q125 175.5 323 170.5 l6 -1 l2 -96 q-153 0 -244.5 -149.5 q-91.5 -149.5 -91.5 -370.5 l0 -153 q0 -267 135 -441.5 q135 -174.5 359 -174.5 q52 0 100 7 q48 7 92 22 q-147 97 -227 249 q-80 152 -80 337 l0 201 q0 253 107.5 411 q107.5 158 286.5 158 q179 0 289 -157 q110 -157 110 -412 l0 -212 q0 -183 -66 -330.5 q-66 -147.5 -187 -241.5 q59 -19 125.5 -28 q66.5 -9 140.5 -9 l0 -104 ZM725 696 q0 -176 76.5 -314.5 q76.5 -138.5 223.5 -216.5 q121 77 187.5 214 q66.5 137 66.5 308 l0 214 q0 207 -75 335 q-75 128 -205 128 q-127 0 -200.5 -130 q-73.5 -130 -73.5 -333 l0 -205 Z" /><glyph glyph-name="uni04A9" unicode="&#x4a9;" d="M1146 -12 q-84 0 -159.5 14 q-75.5 14 -141.5 42 q-55 -32 -118.5 -48.5 q-63.5 -16.5 -133.5 -16.5 q-214 0 -347.5 162.5 q-133.5 162.5 -133.5 408.5 l0 77 q0 205 94 338.5 q94 133.5 241 128.5 l6 -2 l0 -95 q-94 0 -158 -105.5 q-64 -105.5 -64 -262.5 l0 -79 q0 -203 97.5 -335 q97.5 -132 264.5 -132 q37 0 71 5.5 q34 5.5 66 17.5 q-111 77 -170.5 193.5 q-59.5 116.5 -59.5 259.5 l0 106 q0 193 82.5 315 q82.5 122 219.5 122 q136 0 220 -130.5 q84 -130.5 84 -327.5 l0 -104 q0 -127 -42 -235.5 q-42 -108.5 -119 -184.5 q45 -14 95.5 -21 q50.5 -7 105.5 -7 l0 -104 ZM987 540 l0 107 q0 148 -51 249 q-51 101 -134 101 q-87 0 -134.5 -92 q-47.5 -92 -47.5 -238 l0 -110 q0 -130 55.5 -229.5 q55.5 -99.5 156.5 -154.5 l6 0 q71 56 110 152.5 q39 96.5 39 214.5 l0 0 Z" /><glyph glyph-name="uni04B4" unicode="&#x4b4;" d="M776 1456 l0 -1 l249 0 l0 -306 l-106 0 l-9 205 l-297 0 l0 -1253 l829 0 l0 1253 l-163 13 l0 89 l163 0 l119 0 l163 0 l0 -89 l-163 -13 l0 -1253 l159 0 l0 -452 l-118 0 l0 351 l-1271 0 l0 88 l163 13 l0 1253 l-302 0 l-8 -205 l-107 0 l0 306 l254 0 l0 1 l282 0 l163 0 Z" /><glyph glyph-name="uni04B5" unicode="&#x4b5;" d="M906 1082 l0 -307 l-107 0 l-9 205 l-245 0 l0 -879 l591 0 l0 981 l121 0 l163 0 l0 -89 l-163 -13 l0 -879 l126 0 l-9 -422 l-110 0 l0 321 l-1002 0 l0 88 l163 13 l0 879 l-260 0 l-8 -205 l-107 0 l0 307 l856 0 Z" /><glyph glyph-name="uni04B8" unicode="&#x4b8;" d="M750 361 l-102 0 l0 691 l102 0 l0 -691 ZM1104 664 q-101 -29 -196 -43.5 q-95 -14.5 -203 -14.5 q-240 0 -361.5 105 q-121.5 105 -121.5 342 l0 301 l-163 13 l0 89 l282 0 l163 0 l0 -89 l-163 -13 l0 -301 q0 -186 89 -265.5 q89 -79.5 275 -79.5 q102 0 200 14.5 q98 14.5 199 43.5 l0 588 l-163 13 l0 89 l283 0 l163 0 l0 -89 l-163 -13 l0 -1253 l163 -13 l0 -88 l-446 0 l0 88 l163 13 l0 563 Z" /><glyph glyph-name="uni04B9" unicode="&#x4b9;" d="M710 209 l-102 0 l0 561 l102 0 l0 -561 ZM552 1082 l0 -88 l-163 -13 l0 -173 q0 -170 69.5 -237 q69.5 -67 224.5 -67 q72 1 145.5 15 q73.5 14 137.5 37 l0 424 l-163 13 l0 89 l445 0 l0 -89 l-163 -13 l0 -879 l163 -13 l0 -88 l-445 0 l0 88 l163 13 l0 354 q-69 -25 -142 -39.5 q-73 -14.5 -141 -14.5 q-209 0 -311 93.5 q-102 93.5 -102 313.5 l0 173 l-163 13 l0 88 l282 0 l163 0 Z" /><glyph glyph-name="uni04BA" unicode="&#x4ba;" d="M487 1456 l0 -88 l-163 -13 l0 -563 q100 28 195 43 q95 15 204 15 q239 0 361 -105.5 q122 -105.5 122 -341.5 l0 -301 l163 -13 l0 -89 l-445 0 l0 89 l163 13 l0 301 q0 185 -89.5 265 q-89.5 80 -274.5 80 q-103 0 -201 -15.5 q-98 -15.5 -198 -43.5 l0 -587 l163 -13 l0 -89 l-446 0 l0 89 l163 13 l0 1253 l-163 13 l0 88 l163 0 l120 0 l163 0 Z" /><glyph glyph-name="uni04BC" unicode="&#x4bc;" d="M965 -23 q-282 0 -439 165.5 q-157 165.5 -157 437.5 l0 155 q-150 15 -229 103.5 q-79 88.5 -75 233.5 l2 5 l95 0 q0 -105 50.5 -168 q50.5 -63 150.5 -72 l6 2 l0 22 q0 267 153 440.5 q153 173.5 383 173.5 q254 0 397 -171 q143 -171 143 -465 l0 -106 l-956 0 l0 -153 q0 -223 118.5 -362.5 q118.5 -139.5 357.5 -139.5 q122 0 218 33 q96 33 171 88 l39 -89 q-68 -57 -170 -95 q-102 -38 -258 -38 ZM489 826 l836 0 l0 42 q0 222 -107 363 q-107 141 -313 141 q-192 0 -304 -146 q-112 -146 -112 -365 l0 -35 Z" /><glyph glyph-name="uni04BD" unicode="&#x4bd;" d="M710 -21 q-204 0 -338 149.5 q-134 149.5 -134 380.5 l0 50 q-99 22 -150 99 q-51 77 -51 201 l101 0 q0 -78 26 -130 q26 -52 80 -73 q26 197 153.5 321.5 q127.5 124.5 296.5 124.5 q199 0 313 -126 q114 -126 114 -336 l0 -102 l-764 0 l0 -29 q0 -182 97.5 -305.5 q97.5 -123.5 255.5 -123.5 q111 0 190 31 q79 31 135 89 l51 -82 q-61 -64 -154 -101.5 q-93 -37.5 -222 -37.5 ZM694 1000 q-132 0 -222.5 -101.5 q-90.5 -101.5 -105.5 -254.5 l2 -5 l634 0 l0 30 q0 141 -83 236 q-83 95 -225 95 Z" /><glyph glyph-name="uni04C3" unicode="&#x4c3;" d="M70 1367 l0 89 l445 0 l0 -89 l-163 -13 l0 -554 l177 0 l551 656 l202 0 l0 -89 l-143 -12 l-467 -555 q265 -2 418.5 -145.5 q153.5 -143.5 153.5 -425.5 q0 -227 -116.5 -382 q-116.5 -155 -333.5 -151 l-6 2 l-1 89 q166 0 252 125.5 q86 125.5 86 316.5 q-1 232 -122.5 348.5 q-121.5 116.5 -336.5 116.5 l-314 0 l0 -593 l163 -13 l0 -88 l-445 0 l0 88 l163 13 l0 1253 l-163 13 Z" /><glyph glyph-name="uni04C4" unicode="&#x4c4;" d="M90 88 l163 13 l0 879 l-163 13 l0 89 l446 0 l0 -89 l-163 -13 l0 -378 l135 0 l408 480 l209 0 l0 -89 l-146 -12 l-332 -383 q203 -19 322 -129 q119 -110 119 -314 q0 -130 -91 -259 q-91 -129 -283 -165 l-33 93 q152 34 219 124.5 q67 90.5 69 206.5 q2 173 -109 257 q-111 84 -297 84 l-190 0 l0 -395 l163 -13 l0 -88 l-446 0 l0 88 Z" /><glyph glyph-name="uni04C7" unicode="&#x4c7;" d="M77 88 l163 13 l0 1253 l-163 13 l0 89 l282 0 l163 0 l0 -89 l-163 -13 l0 -582 l828 0 l0 582 l-163 13 l0 89 l445 0 l0 -89 l-163 -13 l0 -1443 q0 -167 -80 -257.5 q-80 -90.5 -223 -90.5 q-31 0 -57.5 5 q-26.5 5 -55.5 14 l14 99 q15 -5 46 -10.5 q31 -5.5 53 -5.5 q87 0 135.5 65 q48.5 65 48.5 181 l0 759 l-828 0 l0 -569 l163 -13 l0 -88 l-445 0 l0 88 Z" /><glyph glyph-name="uni04C8" unicode="&#x4c8;" d="M1238 1082 l0 -89 l-163 -13 l0 -1069 q0 -167 -80.5 -257.5 q-80.5 -90.5 -223.5 -90.5 q-31 0 -57 5 q-26 5 -55 14 l14 99 q14 -5 45 -10.5 q31 -5.5 53 -5.5 q87 0 135.5 64.5 q48.5 64.5 48.5 181.5 l0 585 l-583 0 l0 -395 l163 -13 l0 -88 l-282 0 l0 980 l-163 13 l0 89 l282 0 l163 0 l0 -89 l-163 -13 l0 -383 l583 0 l0 383 l-163 13 l0 89 l163 0 l120 0 l163 0 ZM90 0 l0 88 l163 13 l0 -101 l-163 0 Z" /><glyph glyph-name="uni04D8" unicode="&#x4d8;" d="M637 1477 q296 0 461 -180.5 q165 -180.5 165 -474.5 l0 -168 q0 -296 -165 -485.5 q-165 -189.5 -412 -189.5 q-287 0 -447.5 170 q-160.5 170 -160.5 465 l0 117 l1066 0 l0 91 q0 245 -126.5 399 q-126.5 154 -380.5 154 q-129 0 -230 -33.5 q-101 -33.5 -179 -87.5 l-39 89 q71 56 177.5 95 q106.5 39 270.5 39 ZM686 80 q206 0 329 158 q123 158 124 395 l-3 5 l-939 0 l0 -53 q0 -224 124 -364.5 q124 -140.5 365 -140.5 Z" /><glyph glyph-name="uni04E0" unicode="&#x4e0;" d="M835 1349 l-2 5 l-610 0 l-8 -205 l-107 0 l0 307 l869 0 l2 -93 l-446 -527 q227 -2 346 -115.5 q119 -113.5 119 -325.5 q0 -195 -128.5 -305.5 q-128.5 -110.5 -333.5 -110.5 q-187 0 -322.5 108 q-135.5 108 -130.5 311 l2 6 l112 0 q0 -140 94 -232 q94 -92 245 -92 q161 0 252 84 q91 84 91 227 q0 181 -89.5 265 q-89.5 84 -265.5 84 l-122 0 l0 102 l433 507 Z" /><glyph glyph-name="uni04E1" unicode="&#x4e1;" d="M823 974 l-2 5 l-600 0 l-8 -204 l-107 0 l0 307 l869 0 l2 -93 l-439 -529 q218 -8 338 -122 q120 -114 120 -318 q0 -192 -128.5 -303.5 q-128.5 -111.5 -333.5 -111.5 q-186 0 -322 108.5 q-136 108.5 -131 309.5 l2 6 l112 0 q0 -138 94 -230 q94 -92 245 -92 q161 0 252 84 q91 84 91 225 q0 180 -96.5 264.5 q-96.5 84.5 -275.5 84.5 l-106 0 l0 103 l424 506 Z" /><glyph glyph-name="uni04FB" unicode="&#x4fb;" d="M275 980 l-163 14 l0 88 l830 0 l0 -17 l15 0 l0 -216 l-88 0 l-9 130 l-466 0 l0 -877 l163 -14 l0 -88 l-445 0 l0 88 l163 14 l0 878 ZM666 562 l-612 0 l0 102 l612 0 l0 -102 ZM575 61 l0 -142 q0 -146 -72 -226 q-72 -80 -200 -80 q-29 0 -54 5 q-25 5 -57 14 l13 103 q-2 1 39.5 -7 q41.5 -8 58.5 -8 q73 0 113 52 q40 52 40 147 l0 142 l119 0 Z" /><glyph glyph-name="uni0500" unicode="&#x500;" d="M558 0 q-229 0 -354 117 q-125 117 -125 306 q0 188 124.5 303.5 q124.5 115.5 354.5 115.5 l366 0 l0 512 l-163 13 l0 89 l445 0 l0 -89 l-163 -13 l0 -1253 l163 -13 l0 -88 l-648 0 ZM924 101 l0 639 l-366 0 q-180 0 -269.5 -91.5 q-89.5 -91.5 -89.5 -223.5 q0 -138 89.5 -231 q89.5 -93 269.5 -93 l366 0 Z" /><glyph glyph-name="uni0502" unicode="&#x502;" d="M558 0 q-229 0 -354 117 q-125 117 -125 306 q0 188 124.5 303.5 q124.5 115.5 354.5 115.5 l366 0 l0 512 l-163 13 l0 89 l163 0 l282 0 l0 -89 l-163 -13 l0 -1255 l124 1 q122 1 188.5 80.5 q66.5 79.5 70.5 220.5 q1 81 -15 170 q-16 89 -46 174 l114 0 q32 -105 50 -186 q18 -81 16 -158 q-4 -194 -112.5 -297.5 q-108.5 -103.5 -265.5 -103.5 l-609 0 ZM924 101 l0 639 l-366 0 q-180 0 -269.5 -91.5 q-89.5 -91.5 -89.5 -223.5 q0 -138 89.5 -231 q89.5 -93 269.5 -93 l366 0 Z" /><glyph glyph-name="uni0503" unicode="&#x503;" d="M945 1560 l0 -1215 q-1 -128 52 -196.5 q53 -68.5 147 -68.5 q151 2 233.5 121 q82.5 119 86.5 328 q1 94 -16 194 q-17 100 -48 208 l117 1 q34 -127 51.5 -219.5 q17.5 -92.5 15.5 -183.5 q-4 -268 -127 -409 q-123 -141 -313 -141 q-112 -2 -186.5 47 q-74.5 49 -107.5 155 q-53 -97 -141.5 -149.5 q-88.5 -52.5 -211.5 -52.5 q-194 0 -303.5 144.5 q-109.5 144.5 -109.5 387.5 l0 21 q0 259 109.5 414.5 q109.5 155.5 305.5 155.5 q109 0 190.5 -44.5 q81.5 -44.5 135.5 -127.5 l0 528 l-163 13 l0 89 l163 0 l120 0 ZM825 802 q-41 87 -115 141.5 q-74 54.5 -189 54.5 q-158 0 -237.5 -129.5 q-79.5 -129.5 -79.5 -336.5 l0 -21 q0 -196 78.5 -312 q78.5 -116 236.5 -116 q115 0 191.5 52 q76.5 52 119.5 143 q-3 14 -4 29 q-1 15 -1 38 l0 457 Z" /><glyph glyph-name="uni0504" unicode="&#x504;" d="M772 381 q0 135 -73.5 215 q-73.5 80 -211.5 80 l-191 0 l0 102 l168 0 q182 0 270.5 71.5 q88.5 71.5 88.5 216.5 q0 134 -85.5 211 q-85.5 77 -248.5 77 q-105 0 -187 -31.5 q-82 -31.5 -134 -85.5 l-7 -192 l-101 0 l0 236 q69 81 181 128 q112 47 248 47 q211 0 332 -101.5 q121 -101.5 121 -290.5 q0 -123 -68.5 -212.5 q-68.5 -89.5 -195.5 -129.5 q114 -36 164 -123 q50 -87 50 -216 l0 -79 q-1 -100 51 -162 q52 -62 139 -62 q140 2 220.5 130 q80.5 128 84.5 319 q0 72 -10.5 148.5 q-10.5 76.5 -29.5 157.5 l-114 8 l0 89 l206 0 q34 -130 52 -221 q18 -91 16 -182 q-4 -252 -123.5 -401 q-119.5 -149 -301.5 -149 q-144 -3 -223.5 75.5 q-79.5 78.5 -86.5 249.5 l0 77 Z" /><glyph glyph-name="uni0505" unicode="&#x505;" d="M1251 738 q34 -105 51 -176.5 q17 -71.5 16 -142.5 q-4 -215 -109.5 -328.5 q-105.5 -113.5 -260.5 -113.5 q-128 -3 -191.5 52.5 q-63.5 55.5 -68.5 184.5 l0 81 q0 87 -64 134.5 q-64 47.5 -184 47.5 l-211 0 l-2 100 l206 0 q127 0 196 56.5 q69 56.5 69 144.5 q0 93 -68 153 q-68 60 -191 58 q-128 0 -209.5 -59.5 q-81.5 -59.5 -81.5 -158.5 l-110 0 l-2 6 q-6 134 110 223.5 q116 89.5 293 89.5 q179 0 279.5 -82.5 q100.5 -82.5 100.5 -226.5 q0 -83 -49.5 -148.5 q-49.5 -65.5 -141.5 -100.5 q95 -28 137.5 -88 q42.5 -60 42.5 -148 l0 -82 q-1 -68 30 -102.5 q31 -34.5 110 -34.5 q118 2 182 91.5 q64 89.5 68 250.5 q1 53 -7 109 q-8 56 -25 112 l-126 9 l0 89 l211 0 l0 0 Z" /><glyph glyph-name="uni0506" unicode="&#x506;" d="M300 659 l0 102 l168 0 q181 0 269.5 74.5 q88.5 74.5 88.5 224.5 q0 131 -81 204 q-81 73 -252 73 q-105 0 -187.5 -31.5 q-82.5 -31.5 -134.5 -85.5 l-6 -192 l-102 0 l0 236 q69 81 181.5 127.5 q112.5 46.5 248.5 46.5 q219 0 336 -97 q117 -97 117 -283 q0 -125 -66 -216 q-66 -91 -189 -133 q127 -36 183 -122.5 q56 -86.5 56 -215.5 l0 -137 q0 -68 16.5 -122 q16.5 -54 53.5 -88 l0 -25 l-122 0 q-37 37 -52.5 102.5 q-15.5 65.5 -15.5 134.5 l0 133 q0 134 -86.5 212 q-86.5 78 -240.5 78 l-183 0 ZM1055 -15 q0 -92 -37.5 -180 q-37.5 -88 -102.5 -149 l-71 52 q47 66 69.5 131 q22.5 65 22.5 144 l0 142 l119 0 l0 -140 Z" /><glyph glyph-name="uni0507" unicode="&#x507;" d="M232 468 l-2 99 l206 0 q127 0 196 57 q69 57 69 145 q0 94 -68.5 153 q-68.5 59 -190.5 57 q-128 0 -209.5 -59 q-81.5 -59 -81.5 -159 l-110 0 l-2 6 q-6 135 109.5 224.5 q115.5 89.5 293.5 89.5 q179 0 279.5 -82.5 q100.5 -82.5 100.5 -226.5 q0 -84 -49.5 -149.5 q-49.5 -65.5 -141.5 -99.5 q101 -28 145 -92.5 q44 -64.5 44 -160.5 l0 -98 q0 -49 9 -89 q9 -40 32 -63 l0 -20 l-125 0 q-23 24 -29 73 q-6 49 -6 100 l0 96 q0 93 -65.5 146 q-65.5 53 -185.5 53 l-218 0 ZM894 20 q0 -92 -37.5 -180 q-37.5 -88 -102.5 -149 l-71 52 q47 66 69.5 131 q22.5 65 22.5 144 l0 142 l119 0 l0 -140 Z" /><glyph glyph-name="uni0508" unicode="&#x508;" d="M1099 1354 l-570 0 l0 -586 q0 -397 -98 -582.5 q-98 -185.5 -323 -185.5 l-53 0 l0 101 l41 0 q166 0 240 156 q74 156 74 511 l0 586 l-163 13 l0 89 l971 0 l163 0 l0 -89 l-163 -13 l0 -1009 q-1 -128 52 -196.5 q53 -68.5 147 -68.5 q151 2 233.5 121 q82.5 119 86.5 328 q0 72 -10 148 q-10 76 -28 156 l-164 10 l0 88 l138 0 l117 1 q34 -127 51.5 -219.5 q17.5 -92.5 15.5 -183.5 q-4 -268 -126.5 -409 q-122.5 -141 -313.5 -141 q-149 -3 -230.5 85.5 q-81.5 88.5 -87.5 280.5 l0 1009 Z" /><glyph glyph-name="uni0509" unicode="&#x509;" d="M855 979 l-411 0 l0 -357 q0 -315 -76 -468.5 q-76 -153.5 -246 -153.5 l-57 0 l1 107 l44 1 q113 0 164 122.5 q51 122.5 51 391.5 l0 358 l-163 13 l0 89 l975 0 l0 -89 l-163 -13 l0 -635 q-1 -128 49.5 -196.5 q50.5 -68.5 138.5 -68.5 q133 2 205.5 103.5 q72.5 101.5 76.5 279.5 q0 68 -9.5 139.5 q-9.5 71.5 -27.5 145.5 l-100 8 l0 88 l72 0 l117 1 q34 -124 52 -210 q18 -86 16 -172 q-4 -236 -116 -360 q-112 -124 -286 -124 q-143 -3 -222 85.5 q-79 88.5 -85 280.5 l0 634 Z" /><glyph glyph-name="uni050A" unicode="&#x50a;" d="M70 1367 l0 89 l282 0 l163 0 l0 -89 l-163 -13 l0 -583 l758 0 l0 583 l-163 13 l0 89 l163 0 l283 0 l0 -89 l-163 -13 l0 -1009 q-1 -128 52 -196.5 q53 -68.5 147 -68.5 q151 2 233.5 121 q82.5 119 86.5 328 q0 73 -10 149.5 q-10 76.5 -29 156.5 l-98 8 l0 88 l72 0 l118 1 q34 -127 51.5 -219.5 q17.5 -92.5 15.5 -183.5 q-4 -268 -127 -409 q-123 -141 -313 -141 q-149 -3 -230.5 85.5 q-81.5 88.5 -88.5 280.5 l0 324 l-758 0 l0 -568 l163 -13 l0 -88 l-445 0 l0 88 l163 13 l0 1253 l-163 13 Z" /><glyph glyph-name="uni050B" unicode="&#x50b;" d="M90 993 l0 89 l445 0 l0 -89 l-163 -13 l0 -389 l580 0 l0 389 l-163 13 l0 89 l446 0 l0 -89 l-163 -13 l0 -635 q-1 -128 49 -196.5 q50 -68.5 139 -68.5 q133 2 205 103 q72 101 76 280 q1 89 -16.5 183.5 q-17.5 94.5 -48.5 197.5 l118 1 q34 -124 52 -210 q18 -86 16 -172 q-4 -236 -116 -360 q-112 -124 -286 -124 q-144 -3 -223 85.5 q-79 88.5 -85 280.5 l0 146 l-580 0 l0 -390 l163 -13 l0 -88 l-445 0 l0 88 l163 13 l0 879 l-163 13 Z" /><glyph glyph-name="uni050C" unicode="&#x50c;" d="M1093 786 q27 -128 39.5 -204.5 q12.5 -76.5 11.5 -156.5 q-4 -216 -139.5 -331 q-135.5 -115 -334.5 -115 q-247 0 -401.5 175 q-154.5 175 -154.5 443 l0 262 q0 267 154.5 442.5 q154.5 175.5 401.5 175.5 q106 0 189 -19.5 q83 -19.5 147 -56.5 l-40 -94 q-67 33 -139 50.5 q-72 17.5 -157 17.5 q-200 0 -318.5 -148 q-118.5 -148 -118.5 -366 l0 -264 q0 -221 118.5 -369 q118.5 -148 318.5 -148 q168 2 259 93 q91 91 95 252 q0 62 -7 128.5 q-7 66.5 -21 134.5 l-143 9 l0 89 l240 0 l0 0 Z" /><glyph glyph-name="uni050D" unicode="&#x50d;" d="M922 537 q13 -68 20 -125.5 q7 -57.5 7 -110.5 q-4 -158 -106 -240 q-102 -82 -267 -82 q-220 0 -346 156.5 q-126 156.5 -126 384.5 l0 42 q0 226 121 383 q121 157 330 157 q93 0 161 -16 q68 -16 110 -47 l-34 -95 q-46 27 -107 41.5 q-61 14.5 -130 14.5 q-164 0 -248 -131 q-84 -131 -84 -307 l0 -42 q0 -177 91 -308.5 q91 -131.5 262 -131.5 q134 2 192.5 60 q58.5 58 61.5 161 q0 35 -2 69.5 q-2 34.5 -6 69.5 l-137 8 l0 89 l237 0 l0 0 Z" /><glyph glyph-name="uni050E" unicode="&#x50e;" d="M1229 1149 l-107 0 l-9 205 l-401 0 l0 -1009 q-2 -128 51.5 -196.5 q53.5 -68.5 147.5 -68.5 q151 2 233.5 121 q82.5 119 86.5 328 q0 71 -10 146.5 q-10 75.5 -29 158.5 l-120 9 l0 88 l94 0 l117 1 q34 -130 51.5 -221 q17.5 -91 15.5 -182 q-4 -268 -126.5 -409 q-122.5 -141 -312.5 -141 q-149 -3 -231 85.5 q-82 88.5 -89 280.5 l0 1009 l-400 0 l-8 -205 l-106 0 l0 307 l1152 0 l0 -307 Z" /><glyph glyph-name="uni050F" unicode="&#x50f;" d="M997 1082 l0 -307 l-107 0 l-9 206 l-284 0 l0 -636 q-1 -128 52.5 -196.5 q53.5 -68.5 147.5 -68.5 q124 2 191.5 71 q67.5 69 71.5 193 q0 37 -4.5 79 q-4.5 42 -13.5 85 l-128 9 l0 88 l101 0 l117 1 q24 -83 36.5 -143.5 q12.5 -60.5 11.5 -118.5 q-4 -178 -111 -271.5 q-107 -93.5 -272 -93.5 q-149 -3 -231 85.5 q-82 88.5 -89 280.5 l0 636 l-273 0 l-8 -206 l-106 0 l0 307 l907 0 Z" /><glyph glyph-name="uni0510" unicode="&#x510;" d="M106 395 q0 134 77 223 q77 89 228 128 q-135 43 -209 130.5 q-74 87.5 -74 196.5 q0 194 145 299 q145 105 398 105 q219 0 369 -110 q150 -110 145 -286 l-2 -6 l-110 0 q0 132 -115.5 216 q-115.5 84 -286.5 84 q-212 0 -318 -82 q-106 -82 -106 -216 q0 -135 102 -209 q102 -74 318 -74 l183 0 l0 -103 l-183 0 q-221 0 -331.5 -72.5 q-110.5 -72.5 -110.5 -227.5 q0 -143 117.5 -227 q117.5 -84 328.5 -84 q187 0 304.5 92 q117.5 92 117.5 232 l110 0 l2 -6 q4 -203 -155 -311 q-159 -108 -379 -108 q-253 0 -409 110.5 q-156 110.5 -156 305.5 Z" /><glyph glyph-name="uni2000" unicode="&#x2000;" d="" /><glyph glyph-name="uni2001" unicode="&#x2001;" d="" /><glyph glyph-name="uni2002" unicode="&#x2002;" d="" /><glyph glyph-name="uni2003" unicode="&#x2003;" d="" /><glyph glyph-name="uni2004" unicode="&#x2004;" d="" /><glyph glyph-name="uni2005" unicode="&#x2005;" d="" /><glyph glyph-name="uni2006" unicode="&#x2006;" d="" /><glyph glyph-name="uni2007" unicode="&#x2007;" d="" /><glyph glyph-name="uni2008" unicode="&#x2008;" d="" /><glyph glyph-name="uni2009" unicode="&#x2009;" d="" /><glyph glyph-name="uni200A" unicode="&#x200a;" d="" /><glyph glyph-name="uni200B" unicode="&#x200b;" d="" /><glyph glyph-name="quoteleft" unicode="&#x2018;" d="M98 1248 q0 93 37 180.5 q37 87.5 103 149.5 l72 -51 q-48 -67 -70 -131.5 q-22 -64.5 -22 -144.5 l0 -174 l-120 0 l0 171 Z" /><glyph glyph-name="quoteright" unicode="&#x2019;" d="M273 1385 q0 -94 -37.5 -182 q-37.5 -88 -102.5 -148 l-71 52 q47 65 69.5 130 q22.5 65 22.5 145 l0 178 l119 0 l0 -175 Z" /><glyph glyph-name="quotesinglbase" unicode="&#x201a;" d="M252 89 q0 -92 -37.5 -180 q-37.5 -88 -102.5 -149 l-71 52 q47 66 69.5 130.5 q22.5 64.5 22.5 144.5 l0 172 l119 0 l0 -170 Z" /><glyph glyph-name="quotedblbase" unicode="&#x201e;" d="M252 89 q0 -92 -37.5 -180 q-37.5 -88 -102.5 -149 l-71 52 q47 66 69.5 130.5 q22.5 64.5 22.5 144.5 l0 172 l119 0 l0 -170 ZM486 89 q0 -92 -37.5 -180 q-37.5 -88 -102.5 -149 l-71 52 q46 66 68.5 130.5 q22.5 64.5 22.5 144.5 l0 172 l120 0 l0 -170 Z" /><glyph glyph-name="dagger" unicode="&#x2020;" d="M1053 977 l-433 0 l0 -977 l-120 0 l0 977 l-437 0 l0 105 l437 0 l0 374 l120 0 l0 -374 l433 0 l0 -105 Z" /><glyph glyph-name="daggerdbl" unicode="&#x2021;" d="M1060 0 l-444 0 l0 -416 l-120 0 l0 416 l-425 0 l0 101 l425 0 l0 878 l-425 0 l0 103 l425 0 l0 374 l120 0 l0 -374 l444 0 l0 -103 l-444 0 l0 -878 l444 0 l0 -101 Z" /><glyph glyph-name="bullet" unicode="&#x2022;" d="M135 782 q0 79 50 129 q50 50 134 50 q85 0 135.5 -50.5 q50.5 -50.5 50.5 -128.5 l0 -65 q0 -79 -50.5 -128 q-50.5 -49 -134.5 -49 q-85 0 -135 49 q-50 49 -50 128 l0 65 Z" /><glyph glyph-name="perthousand" unicode="&#x2030;" d="M831 357 q0 126 78.5 213 q78.5 87 205.5 87 q81 0 142 -39 q61 -39 95 -106 q35 67 98 106 q63 39 144 39 q127 0 206 -87 q79 -87 79 -213 l0 -78 q0 -127 -78.5 -213.5 q-78.5 -86.5 -204.5 -86.5 q-82 0 -145.5 38.5 q-63.5 38.5 -98.5 105.5 q-34 -67 -94.5 -105.5 q-60.5 -38.5 -140.5 -38.5 q-129 0 -207.5 86.5 q-78.5 86.5 -78.5 213.5 l0 78 ZM76 1176 q0 127 78.5 214 q78.5 87 205.5 87 q128 0 207 -87 q79 -87 79 -214 l0 -77 q0 -126 -78.5 -212.5 q-78.5 -86.5 -205.5 -86.5 q-128 0 -207 86.5 q-79 86.5 -79 212.5 l0 77 ZM928 279 q0 -89 48.5 -151 q48.5 -62 140.5 -62 q89 0 138 62 q49 62 49 151 l0 78 q0 91 -49 152 q-49 61 -140 61 q-90 0 -138.5 -61.5 q-48.5 -61.5 -48.5 -151.5 l0 -78 ZM1401 279 q0 -89 48.5 -151 q48.5 -62 140.5 -62 q89 0 137.5 62 q48.5 62 48.5 151 l0 78 q0 91 -48.5 152 q-48.5 61 -139.5 61 q-90 0 -138.5 -61.5 q-48.5 -61.5 -48.5 -151.5 l0 -78 ZM173 1099 q0 -88 49 -150 q49 -62 140 -62 q89 0 138 62 q49 62 49 150 l0 77 q0 88 -49.5 151 q-49.5 63 -139.5 63 q-89 0 -138 -63 q-49 -63 -49 -151 l0 -77 ZM440 121 l-74 48 l711 1138 l74 -48 l-711 -1138 Z" /><glyph glyph-name="guilsinglleft" unicode="&#x2039;" d="M192 555 l276 -388 l-105 0 l-295 379 l0 19 l295 379 l105 0 l-276 -389 Z" /><glyph glyph-name="guilsinglright" unicode="&#x203a;" d="M188 944 l295 -384 l0 -19 l-295 -379 l-105 0 l276 388 l-276 394 l105 0 Z" /><glyph glyph-name="fraction" unicode="&#x2044;" d="M116 121 l-74 48 l711 1138 l74 -48 l-711 -1138 Z" /><glyph glyph-name="uni2074" unicode="&#x2074;" d="M665 845 l170 0 l0 -91 l-170 0 l0 -194 l-109 0 l0 194 l-485 0 l-4 76 l475 647 l123 0 l0 -632 ZM189 845 l367 0 l0 491 l-6 2 l-24 -48 l-337 -445 Z" /><glyph glyph-name="nsuperior" unicode="&#x207f;" d="M237 1453 l21 -134 q39 69 101.5 108 q62.5 39 142.5 39 q131 0 203.5 -75.5 q72.5 -75.5 72.5 -231.5 l0 -508 l-112 0 l0 495 q0 119 -50 171.5 q-50 52.5 -141 52.5 q-78 0 -132 -41.5 q-54 -41.5 -79 -113.5 l0 -564 l-113 0 l0 802 l86 0 Z" /><glyph glyph-name="lira" unicode="&#x20a4;" d="M422 495 l1 -29 q0 -107 -25.5 -204 q-25.5 -97 -71.5 -161 l654 0 l10 205 l106 0 l0 -306 l-941 0 l0 101 l10 0 q70 15 104.5 129.5 q34.5 114.5 34.5 235.5 l-1 29 l-212 0 l0 102 l208 0 l-6 164 l-196 0 l0 102 l192 0 l-6 177 q0 204 106 320.5 q106 116.5 284 116.5 q186 0 280 -103.5 q94 -103.5 91 -277.5 l-3 -6 l-111 0 q0 148 -69 216.5 q-69 68.5 -188 68.5 q-125 0 -198 -88 q-73 -88 -73 -247 l6 -177 l422 0 l0 -102 l-418 0 l6 -164 l417 0 l0 -102 l-413 0 Z" /><glyph glyph-name="peseta" unicode="&#x20a7;" d="M572 1456 q228 0 354 -121 q126 -121 126 -314 q0 -195 -125.5 -315 q-125.5 -120 -354.5 -120 l-212 0 l0 -484 l163 -14 l0 -88 l-446 0 l0 88 l163 14 l0 1252 l-163 14 l0 88 l163 0 l332 0 ZM360 687 l212 0 q179 0 269.5 96 q90.5 96 90.5 236 q0 142 -90 238.5 q-90 96.5 -270 96.5 l-212 0 l0 -667 ZM1304 1359 l0 -277 l238 0 l0 -98 l-238 0 l0 -705 q0 -106 38.5 -150.5 q38.5 -44.5 102.5 -44.5 q29 0 56.5 2.5 q27.5 2.5 63.5 8.5 l18 -89 q-30 -13 -73 -20 q-43 -7 -86 -7 q-114 0 -177.5 72 q-63.5 72 -63.5 228 l0 705 l-186 0 l0 98 l186 0 l0 277 l121 0 Z" /><glyph glyph-name="Euro" unicode="&#x20ac;" d="M905 533 l-546 0 l0 -19 q0 -198 101.5 -316 q101.5 -118 272.5 -118 q57 0 113 8.5 q56 8.5 107 25.5 l9 -104 q-54 -15 -112.5 -23 q-58.5 -8 -116.5 -8 q-221 0 -357.5 145 q-136.5 145 -136.5 390 l0 19 l-168 0 l0 88 l168 0 l0 195 l-168 0 l0 89 l168 0 l0 37 q0 244 135.5 389.5 q135.5 145.5 356.5 145.5 q56 0 111.5 -8 q55.5 -8 119.5 -23 l-9 -106 q-53 16 -109.5 25.5 q-56.5 9.5 -112.5 9.5 q-172 0 -272 -116 q-100 -116 -100 -315 l0 -39 l546 0 l0 -89 l-546 0 l0 -195 l546 0 l0 -88 Z" /><glyph glyph-name="uni2105" unicode="&#x2105;" d="M611 1034 l2 -6 q4 -94 -67.5 -161 q-71.5 -67 -188.5 -67 q-121 0 -199.5 87 q-78.5 87 -78.5 212 l0 77 q0 125 78 213 q78 88 198 88 q117 0 189.5 -67.5 q72.5 -67.5 68.5 -161.5 l-2 -6 l-89 0 q0 61 -43.5 104.5 q-43.5 43.5 -123.5 43.5 q-82 0 -130.5 -64 q-48.5 -64 -48.5 -150 l0 -77 q0 -86 49 -149 q49 -63 132 -63 q79 0 122 44 q43 44 43 103 l89 0 ZM803 279 q0 -127 78.5 -213.5 q78.5 -86.5 207.5 -86.5 q126 0 205 86.5 q79 86.5 79 213.5 l0 78 q0 126 -79 213 q-79 87 -207 87 q-127 0 -205.5 -87 q-78.5 -87 -78.5 -213 l0 -78 ZM899 357 q0 90 49 151.5 q49 61.5 139 61.5 q91 0 140 -61 q49 -61 49 -152 l0 -78 q0 -89 -49 -151 q-49 -62 -138 -62 q-92 0 -141 62.5 q-49 62.5 -49 150.5 l0 78 ZM1123 1259 l-74 48 l-711 -1138 l74 -48 l711 1138 Z" /><glyph glyph-name="uni2113" unicode="&#x2113;" d="M677 -12 l-6 -2 q-177 -5 -269 114.5 q-92 119.5 -92 330.5 l0 38 q-57 -19 -118.5 -28 q-61.5 -9 -126.5 -9 l0 113 q68 0 129.5 10 q61.5 10 115.5 30 l0 513 q0 177 67.5 278 q67.5 101 186.5 101 q103 0 168.5 -86 q65.5 -86 65.5 -230 l0 -42 q0 -177 -98 -342.5 q-98 -165.5 -270 -257.5 l0 -88 q0 -159 57.5 -253.5 q57.5 -94.5 189.5 -94.5 l0 -95 ZM678 1117 l0 44 q0 104 -31 157.5 q-31 53.5 -83 53.5 q-67 0 -100.5 -69.5 q-33.5 -69.5 -33.5 -204.5 l0 -441 l6 -2 q118 72 180 198.5 q62 126.5 62 263.5 l0 0 Z" /><glyph glyph-name="uni2116" unicode="&#x2116;" d="M2110 383 l-543 0 l0 97 l543 0 l0 -97 ZM1505 1137 q0 148 87.5 241.5 q87.5 93.5 235.5 93.5 q148 0 236 -93.5 q88 -93.5 88 -241.5 l0 -117 q0 -149 -87.5 -241.5 q-87.5 -92.5 -234.5 -92.5 q-149 0 -237 92.5 q-88 92.5 -88 241.5 l0 117 ZM1614 1020 q0 -107 54.5 -173 q54.5 -66 161.5 -66 q103 0 158.5 66.5 q55.5 66.5 55.5 172.5 l0 117 q0 104 -56 171.5 q-56 67.5 -160 67.5 q-104 0 -159 -67.5 q-55 -67.5 -55 -171.5 l0 -117 ZM1449 1456 l0 -89 l-163 -13 l0 -1354 l-119 0 l-827 1252 l-6 -1 l0 -1150 l163 -13 l0 -88 l-446 0 l0 88 l163 13 l0 1253 l-163 13 l0 89 l163 0 l120 0 l827 -1250 l6 1 l0 1147 l-163 13 l0 89 l282 0 l163 0 Z" /><glyph glyph-name="trademark" unicode="&#x2122;" d="M1020 1304 l-6 1 l-161 -386 l-51 0 l-164 399 l-6 -1 l0 -398 l-72 0 l0 537 l93 0 l172 -423 l6 0 l174 423 l87 0 l0 -537 l-72 0 l0 385 ZM482 1387 l-153 0 l0 -468 l-73 0 l0 468 l-158 0 l0 69 l384 0 l0 -69 Z" /><glyph glyph-name="estimated" unicode="&#x212e;" d="M991 94 q-87 -55 -181 -84.5 q-94 -29.5 -189 -29.5 q-218 0 -371 164.5 q-153 164.5 -153 396.5 q0 226 161.5 393.5 q161.5 167.5 362.5 167.5 q207 0 351 -155 q144 -155 144 -386 l0 -47 l-768 0 l0 -328 q55 -53 125.5 -81.5 q70.5 -28.5 147.5 -28.5 q95 0 188 30 q93 30 180 92 l2 -104 ZM621 1008 q-74 0 -144.5 -32.5 q-70.5 -32.5 -128.5 -89.5 l0 -277 l540 0 l0 286 q-54 52 -123.5 82.5 q-69.5 30.5 -143.5 30.5 Z" /><glyph glyph-name="partialdiff" unicode="&#x2202;" d="M416 1539 q303 -102 460 -310.5 q157 -208.5 157 -540.5 l0 -153 q0 -245 -137 -400.5 q-137 -155.5 -344 -155.5 q-207 0 -340.5 137 q-133.5 137 -133.5 339 q0 237 121.5 373.5 q121.5 136.5 335.5 136.5 q115 0 212 -46 q97 -46 151 -125 l3 5 q-18 256 -157 405 q-139 149 -367 231 l39 104 ZM556 82 q159 0 258.5 127.5 q99.5 127.5 99.5 325.5 l0 85 q-39 99 -136.5 170 q-97.5 71 -242.5 71 q-169 0 -253 -113.5 q-84 -113.5 -84 -292.5 q0 -149 97 -261 q97 -112 261 -112 Z" /><glyph glyph-name="product" unicode="&#x220f;" d="M1382 1367 l-163 -13 l0 -1597 l-119 0 l0 1597 l-758 0 l0 -1597 l-119 0 l0 1597 l-163 13 l0 89 l1322 0 l0 -89 Z" /><glyph glyph-name="summation" unicode="&#x2211;" d="M801 578 l-585 -745 l853 0 l10 203 l106 0 l0 -305 l-1116 0 l0 92 l602 768 l-602 772 l0 93 l1049 0 l0 -307 l-107 0 l-9 205 l-787 0 l586 -751 l0 -25 Z" /><glyph glyph-name="minus" unicode="&#x2212;" d="M989 686 l-835 0 l0 102 l835 0 l0 -102 Z" /><glyph glyph-name="radical" unicode="&#x221a;" d="M467 287 l34 -130 l6 0 l35 130 l388 1169 l124 0 l-501 -1456 l-96 0 l-243 640 l-153 0 l0 102 l239 0 l167 -455 Z" /><glyph glyph-name="infinity" unicode="&#x221e;" d="M2009 501 q0 -220 -125.5 -371 q-125.5 -151 -329.5 -151 q-181 0 -303 126.5 q-122 126.5 -194 296.5 q-73 -170 -194.5 -296.5 q-121.5 -126.5 -301.5 -126.5 q-206 0 -330.5 151 q-124.5 151 -124.5 371 l0 78 q0 220 124 371.5 q124 151.5 329 151.5 q180 0 301.5 -126.5 q121.5 -126.5 196.5 -295.5 q72 168 195 295 q123 127 304 127 q203 0 328 -152 q125 -152 125 -371 l0 -78 ZM225 501 q0 -177 87.5 -299 q87.5 -122 248.5 -122 q179 0 290.5 166 q111.5 166 138.5 274 l0 42 q-29 109 -140 273.5 q-111 164.5 -291 164.5 q-160 0 -247 -123 q-87 -123 -87 -298 l0 -78 ZM1889 579 q0 175 -87.5 298 q-87.5 123 -245.5 123 q-182 0 -292.5 -164 q-110.5 -164 -139.5 -274 l0 -42 q26 -109 137.5 -274.5 q111.5 -165.5 292.5 -165.5 q159 0 247 122 q88 122 88 299 l0 78 Z" /><glyph glyph-name="integral" unicode="&#x222b;" d="M325 -89 q0 -167 -80 -257.5 q-80 -90.5 -223 -90.5 q-30 0 -56 5 q-26 5 -56 14 l14 99 q15 -5 45.5 -10.5 q30.5 -5.5 52.5 -5.5 q87 0 135 65 q48 65 48 181 l0 1329 q0 163 82 252 q82 89 229 89 q33 0 67 -5 q34 -5 68 -14 l-15 -96 q-26 6 -49.5 9.5 q-23.5 3.5 -55.5 3.5 q-98 0 -152 -63.5 q-54 -63.5 -54 -175.5 l0 -1329 l0 0 Z" /><glyph glyph-name="approxequal" unicode="&#x2248;" d="M124 854 q47 68 109 107 q62 39 127 39 q69 1 101 -11 q32 -12 133 -62 q90 -46 122.5 -58.5 q32.5 -12.5 97.5 -12.5 q64 0 124.5 39 q60.5 39 109.5 109 l8 -117 q-48 -69 -110 -107.5 q-62 -38.5 -126 -38.5 q-66 0 -99 12.5 q-33 12.5 -119 56.5 q-106 52 -137 64 q-31 12 -99 11 q-65 0 -125.5 -39.5 q-60.5 -39.5 -108.5 -108.5 l-8 117 ZM114 447 q47 68 109 107 q62 39 127 39 q69 1 101 -11 q32 -12 133 -62 q94 -48 124.5 -60 q30.5 -12 95.5 -12 q63 0 124 39.5 q61 39.5 110 109.5 l7 -117 q-48 -69 -110 -107.5 q-62 -38.5 -126 -38.5 q-66 0 -99 12.5 q-33 12.5 -119 56.5 q-110 54 -139 65.5 q-29 11.5 -97 10.5 q-64 0 -125 -40 q-61 -40 -109 -109 l-7 117 Z" /><glyph glyph-name="notequal" unicode="&#x2260;" d="M734 939 l247 0 l0 -106 l-306 0 l-170 -305 l476 0 l0 -106 l-535 0 l-149 -269 l-59 43 l125 226 l-216 0 l0 106 l275 0 l169 305 l-444 0 l0 106 l503 0 l156 281 l60 -43 l-132 -238 Z" /><glyph glyph-name="lozenge" unicode="&#x25ca;" d="M465 1456 l96 0 l412 -729 l-410 -727 l-96 0 l-412 727 l410 729 ZM849 727 l-298 544 l-35 86 l-6 0 l-37 -86 l-294 -544 l297 -543 l36 -86 l6 0 l37 86 l294 543 Z" /><glyph glyph-name="commaaccent" unicode="&#xf6c3;" d="M275 70 q0 -87 -33 -169 q-33 -82 -92 -138 l-71 51 q41 61 60.5 121 q19.5 60 19.5 132 l0 109 l116 0 l0 -106 Z" /><glyph glyph-name="fi" unicode="&#xfb01;" d="M75 88 l163 13 l0 883 l-179 0 l0 98 l179 0 l0 138 q0 173 95.5 267 q95.5 94 264.5 94 q66 0 135 -15 q69 -15 140 -44 l-19 -103 q-60 25 -118 39 q-58 14 -131 14 q-122 0 -184.5 -65 q-62.5 -65 -62.5 -187 l0 -138 l621 0 l0 -981 l163 -13 l0 -88 l-445 0 l0 88 l163 13 l0 883 l-502 0 l0 -883 l163 -13 l0 -88 l-446 0 l0 88 Z" /><glyph glyph-name="fl" unicode="&#xfb02;" d="M932 1429 q-63 20 -130 31.5 q-67 11.5 -146 11.5 q-155 0 -226.5 -71 q-71.5 -71 -71.5 -210 l0 -109 l279 0 l0 -98 l-279 0 l0 -883 l163 -13 l0 -88 l-446 0 l0 88 l163 13 l0 883 l-158 0 l0 98 l158 0 l0 109 q0 186 109 288 q109 102 302 102 q86 0 176.5 -17.5 q90.5 -17.5 181.5 -51.5 l44 0 l0 -1411 l163 -13 l0 -88 l-445 0 l0 88 l163 13 l0 1328 l0 0 Z" /><glyph glyph-name="uniFEFF" unicode="&#xfeff;" d="" /><glyph glyph-name="uniFFFC" unicode="&#xfffc;" d="M877 580 q0 96 -64.5 157.5 q-64.5 61.5 -166.5 61.5 q-102 0 -166 -61.5 q-64 -61.5 -64 -157.5 l0 -112 q0 -98 64 -158.5 q64 -60.5 168 -60.5 q101 0 165 60.5 q64 60.5 64 158.5 l0 112 ZM1165 252 q92 0 144.5 39.5 q52.5 39.5 52.5 115.5 q0 45 -27 80 q-27 35 -75 48 q40 15 62 46 q22 31 22 70 q0 75 -55.5 112.5 q-55.5 37.5 -156.5 37.5 l-188 0 l0 -549 l221 0 ZM785 468 q0 -69 -37 -108 q-37 -39 -100 -39 q-66 0 -103 39 q-37 39 -37 108 l0 112 q0 68 37 107.5 q37 39.5 101 39.5 q64 0 101.5 -39.5 q37.5 -39.5 37.5 -107.5 l0 -112 ZM1739 425 q0 -44 -27.5 -71 q-27.5 -27 -67.5 -27 q-50 0 -77 22.5 q-27 22.5 -27 68.5 l-84 0 l-2 -6 q-6 -77 46.5 -117.5 q52.5 -40.5 143.5 -40.5 q81 0 134 46 q53 46 53 125 l0 378 l-92 0 l0 -378 ZM143 -398 l0 315 l113 0 l0 -202 l196 0 l0 -113 l-309 0 ZM1772 -398 l0 113 l199 0 l0 202 l111 0 l0 -315 l-310 0 ZM143 1169 l0 285 l309 0 l0 -116 l-196 0 l0 -169 l-113 0 ZM1772 1338 l0 116 l310 0 l0 -285 l-111 0 l0 169 l-199 0 ZM1165 496 l5 0 q47 -2 72.5 -25 q25.5 -23 25.5 -61 q0 -40 -26.5 -61.5 q-26.5 -21.5 -76.5 -21.5 l-126 0 l0 169 l126 0 ZM1373 1338 l0 116 l278 0 l0 -116 l-278 0 ZM974 1338 l0 116 l277 0 l0 -116 l-277 0 ZM575 1338 l0 116 l276 0 l0 -116 l-276 0 ZM1373 -398 l0 113 l278 0 l0 -113 l-278 0 ZM974 -398 l0 113 l277 0 l0 -113 l-277 0 ZM575 -398 l0 113 l276 0 l0 -113 l-276 0 ZM1039 717 l93 0 q61 0 89.5 -16 q28.5 -16 28.5 -55 q0 -40 -30 -60 q-30 -20 -88 -20 l-93 0 l0 151 ZM256 416 l-113 0 l0 252 l113 0 l0 -252 ZM256 794 l-113 0 l0 250 l113 0 l0 -250 ZM256 41 l-113 0 l0 249 l113 0 l0 -249 ZM2082 416 l-111 0 l0 252 l111 0 l0 -252 ZM2082 794 l-111 0 l0 250 l111 0 l0 -250 ZM2082 41 l-111 0 l0 249 l111 0 l0 -249 Z" /><glyph glyph-name="uniFFFD" unicode="&#xfffd;" d="M991 1618 l959 -975 l-959 -975 l-956 975 l956 975 ZM1074 402 q0 53 13 83.5 q13 30.5 53 56.5 q72 39 119 104.5 q47 65.5 47 143.5 q0 128 -84.5 203.5 q-84.5 75.5 -231.5 75.5 q-136 0 -219.5 -65 q-83.5 -65 -80.5 -195 l3 -6 l194 0 q1 51 30.5 77 q29.5 26 72.5 26 q54 0 83.5 -31.5 q29.5 -31.5 29.5 -84.5 q0 -50 -25.5 -88.5 q-25.5 -38.5 -67.5 -66.5 q-79 -55 -108.5 -100 q-29.5 -45 -29.5 -133 l202 0 ZM1074 311 l-202 0 l0 -170 l202 0 l0 170 ZM999 -551 l4 0 l0 -4 l-4 0 l0 4 ZM997 2146 l4 0 l0 -4 l-4 0 l0 4 Z" /><glyph glyph-name="Dcroat" unicode="&#x110;" d="M687 1456 q267 0 441 -178 q174 -178 174 -457 l0 -187 q0 -280 -174 -457 q-174 -177 -441 -177 l-586 0 l0 88 l163 13 l0 588 l-161 0 l0 102 l161 0 l0 563 l-163 13 l0 89 l586 0 ZM715 689 l-332 0 l0 -588 l304 0 q216 0 355.5 151 q139.5 151 139.5 382 l0 190 q0 228 -140 379 q-140 151 -355 151 l-304 0 l0 -563 l332 0 l0 -102 Z" /><glyph glyph-name="Eth" unicode="ð" d="M687 1456 q267 0 441 -178 q174 -178 174 -457 l0 -187 q0 -280 -174 -457 q-174 -177 -441 -177 l-586 0 l0 88 l163 13 l0 588 l-161 0 l0 102 l161 0 l0 563 l-163 13 l0 89 l586 0 ZM715 689 l-332 0 l0 -588 l304 0 q216 0 355.5 151 q139.5 151 139.5 382 l0 190 q0 228 -140 379 q-140 151 -355 151 l-304 0 l0 -563 l332 0 l0 -102 Z" /><glyph glyph-name="hbar" unicode="&#x127;" d="M81 1209 l0 102 l174 0 l0 147 l-163 13 l0 89 l282 0 l0 -249 l319 0 l0 -102 l-319 0 l0 -312 q54 97 144 151 q90 54 210 54 q171 0 262.5 -106 q91.5 -106 91.5 -329 l0 -566 l163 -13 l0 -88 l-446 0 l0 88 l163 13 l0 568 q0 176 -69.5 252.5 q-69.5 76.5 -191.5 76.5 q-123 0 -205.5 -64.5 q-82.5 -64.5 -121.5 -171.5 l0 -661 l163 -13 l0 -88 l-445 0 l0 88 l163 13 l0 1108 l-174 0 Z" /><glyph glyph-name="Tbar" unicode="&#x166;" d="M1218 1456 l0 -307 l-106 0 l-9 205 l-404 0 l0 -454 l270 0 l0 -102 l-270 0 l0 -697 l163 -13 l0 -88 l-446 0 l0 88 l163 13 l0 697 l-222 0 l0 102 l222 0 l0 454 l-404 0 l-8 -205 l-107 0 l0 307 l1158 0 Z" /><glyph glyph-name="tbar" unicode="&#x167;" d="M372 1359 l0 -277 l238 0 l0 -98 l-238 0 l0 -265 l285 0 l0 -102 l-285 0 l0 -338 q0 -106 38.5 -150.5 q38.5 -44.5 102.5 -44.5 q29 0 56.5 2.5 q27.5 2.5 63.5 8.5 l18 -89 q-30 -13 -73 -20 q-43 -7 -86 -7 q-114 0 -177.5 72 q-63.5 72 -63.5 228 l0 338 l-206 0 l0 102 l206 0 l0 265 l-186 0 l0 98 l186 0 l0 277 l121 0 Z" /><glyph glyph-name="uni0405" unicode="&#x405;" d="M1099 1024 l-98 0 l-17 206 q-54 68 -147 106.5 q-93 38.5 -218 38.5 q-180 0 -280.5 -78 q-100.5 -78 -100.5 -194 q0 -110 90.5 -183.5 q90.5 -73.5 313.5 -129.5 q235 -60 357.5 -162 q122.5 -102 122.5 -269 q0 -174 -142 -277 q-142 -103 -363 -103 q-156 0 -289.5 55 q-133.5 55 -218.5 157 l0 255 l98 0 l17 -213 q66 -75 169 -114 q103 -39 224 -39 q172 0 278.5 76 q106.5 76 106.5 201 q0 119 -89 194.5 q-89 75.5 -310 133.5 q-239 60 -362 156 q-123 96 -123 259 q0 167 140 272 q140 105 361 105 q159 0 283.5 -55 q124.5 -55 196.5 -149 l0 -249 Z" /><glyph glyph-name="uni0441" unicode="&#x441;" d="M559 80 q119 0 210 68 q91 68 91 189 l106 0 l2 -6 q5 -150 -119.5 -251 q-124.5 -101 -289.5 -101 q-220 0 -341 151.5 q-121 151.5 -121 389.5 l0 42 q0 236 121 388 q121 152 340 152 q125 0 229 -47 q104 -47 169 -128 l5 -236 l-102 0 l-19 192 q-48 54 -119.5 85.5 q-71.5 31.5 -162.5 31.5 q-174 0 -257.5 -124.5 q-83.5 -124.5 -83.5 -313.5 l0 -42 q0 -192 83 -316 q83 -124 259 -124 Z" /><glyph glyph-name="dcroat" unicode="&#x111;" d="M849 156 q-54 -85 -139 -131 q-85 -46 -200 -46 q-194 0 -303.5 145 q-109.5 145 -109.5 387 l0 21 q0 259 109.5 414.5 q109.5 155.5 305.5 155.5 q113 0 196 -47.5 q83 -47.5 138 -135.5 l0 290 l-283 0 l0 102 l283 0 l0 147 l-163 13 l0 89 l283 0 l0 -249 l209 0 l0 -102 l-209 0 l0 -1108 l163 -13 l0 -88 l-270 0 l-10 156 ZM218 511 q0 -196 78.5 -312 q78.5 -116 236.5 -116 q115 0 192.5 52 q77.5 52 120.5 143 l0 512 q-40 92 -115.5 150 q-75.5 58 -195.5 58 q-158 0 -237.5 -129.5 q-79.5 -129.5 -79.5 -336.5 l0 -21 Z" /><glyph glyph-name="uni048C" unicode="&#x48c;" d="M352 1172 l270 0 l0 -102 l-270 0 l0 -248 l365 0 q230 0 355 -111 q125 -111 125 -298 q0 -188 -125.5 -300.5 q-125.5 -112.5 -354.5 -112.5 l-647 0 l0 88 l163 13 l0 969 l-223 0 l0 102 l223 0 l0 182 l-163 13 l0 89 l282 0 l0 -284 ZM352 720 l0 -619 l365 0 q181 0 270.5 88.5 q89.5 88.5 89.5 225.5 q0 131 -90 218 q-90 87 -270 87 l-365 0 ZM515 1456 l0 -89 l-163 -13 l0 102 l163 0 Z" /><glyph glyph-name="uni0462" unicode="&#x462;" d="M352 1172 l270 0 l0 -102 l-270 0 l0 -248 l365 0 q230 0 355 -111 q125 -111 125 -298 q0 -188 -125.5 -300.5 q-125.5 -112.5 -354.5 -112.5 l-647 0 l0 88 l163 13 l0 969 l-223 0 l0 102 l223 0 l0 182 l-163 13 l0 89 l282 0 l0 -284 ZM352 720 l0 -619 l365 0 q181 0 270.5 88.5 q89.5 88.5 89.5 225.5 q0 131 -90 218 q-90 87 -270 87 l-365 0 ZM515 1456 l0 -89 l-163 -13 l0 102 l163 0 Z" /><glyph glyph-name="uni0492" unicode="&#x492;" d="M77 88 l163 13 l0 602 l-149 0 l0 102 l149 0 l0 549 l-163 13 l0 89 l1039 0 l0 -307 l-107 0 l-9 205 l-641 0 l0 -549 l344 0 l0 -102 l-344 0 l0 -602 l163 -13 l0 -88 l-445 0 l0 88 Z" /><glyph glyph-name="uni049E" unicode="&#x49e;" d="M91 88 l163 13 l0 990 l-225 0 l0 102 l225 0 l0 161 l-163 13 l0 89 l445 0 l0 -89 l-163 -13 l0 -161 l268 0 l0 -102 l-268 0 l0 -305 l199 0 l490 573 l-140 8 l0 89 l407 0 l0 -89 l-128 -12 l-521 -615 l562 -640 l131 -12 l0 -88 l-415 0 l0 88 l138 8 l-523 589 l-200 0 l0 -584 l163 -13 l0 -88 l-445 0 l0 88 Z" /><glyph glyph-name="uni049F" unicode="&#x49f;" d="M76 1213 l0 102 l169 0 l0 143 l-163 13 l0 89 l282 0 l0 -245 l324 0 l0 -102 l-324 0 l0 -583 l127 0 l329 351 l-2 5 l-99 7 l0 89 l381 0 l0 -89 l-126 -12 l-370 -393 l421 -489 l120 -11 l0 -88 l-380 0 l0 88 l114 7 l-376 432 l-139 0 l0 -426 l163 -13 l0 -88 l-445 0 l0 88 l163 13 l0 1112 l-169 0 Z" /><glyph glyph-name="uni04B0" unicode="&#x4b0;" d="M455 1367 l-140 -10 l394 -710 l396 710 l-140 10 l0 89 l401 0 l0 -89 l-124 -10 l-410 -713 l208 0 l0 -102 l-267 0 l-5 -10 l0 -431 l163 -13 l0 -88 l-446 0 l0 88 l163 13 l0 438 l-2 3 l-218 0 l0 102 l160 0 l-410 713 l-123 10 l0 89 l400 0 l0 -89 Z" /><glyph glyph-name="uni04B1" unicode="&#x4b1;" d="M886 -4 l-269 0 l0 -411 l-120 0 l0 411 l-223 0 l0 102 l196 0 l-270 774 q-27 74 -52.5 95 q-25.5 21 -67.5 21 q-18 0 -36.5 -5 q-18.5 -5 -32.5 -10 l-17 92 q20 11 52 19 q32 8 62 8 q74 0 115.5 -35.5 q41.5 -35.5 73.5 -129.5 l223 -656 l34 -128 l6 0 l38 128 l258 711 l-136 11 l0 89 l358 0 l0 -89 l-99 -8 l-337 -887 l244 0 l0 -102 Z" /><glyph glyph-name="uni04FE" unicode="&#x4fe;" d="M1016 691 l-213 0 l420 -593 l123 -10 l0 -88 l-399 0 l0 88 l137 6 l-384 553 l-385 -553 l138 -6 l0 -88 l-399 0 l0 88 l122 10 l419 593 l-191 0 l0 102 l186 0 l-399 564 l-122 10 l0 89 l400 0 l0 -89 l-139 -6 l368 -532 l369 532 l-137 6 l0 89 l399 0 l0 -89 l-122 -10 l-398 -564 l207 0 l0 -102 Z" /><glyph glyph-name="uni04FF" unicode="&#x4ff;" d="M921 505 l-218 0 l307 -406 l122 -11 l0 -88 l-366 0 l0 88 l111 5 l-275 368 l-274 -368 l111 -5 l0 -88 l-366 0 l0 88 l121 11 l307 406 l-192 0 l0 102 l184 0 l-283 375 l-122 11 l0 89 l367 0 l0 -89 l-112 -6 l258 -347 l259 348 l-111 5 l0 89 l367 0 l0 -89 l-121 -11 l-284 -375 l210 0 l0 -102 Z" /><glyph glyph-name=".null" unicode="" d="" /><glyph glyph-name="exclam" unicode="!" d="M273 478 l-119 0 l0 978 l119 0 l0 -978 ZM285 0 l-142 0 l0 167 l142 0 l0 -167 Z" /></font>
</defs>
</svg>
