<?xml version="1.0" standalone="no"?>
<!DOCTYPE svg PUBLIC "-//W3C//DTD SVG 1.1//EN" "http://www.w3.org/Graphics/SVG/1.1/DTD/svg11.dtd" >
<svg xmlns="http://www.w3.org/2000/svg">
    <defs>
        <font id="Geometria-ExtraBold">
            <font-face font-family="Geometria-ExtraBold"
                       units-per-em="1000"
                       ascent="786"
                       descent="-214"
                       bbox="-498 -290 1422 943"
                    />
            <missing-glyph horiz-adv-x="0" />
            
            <glyph glyph-name="!" unicode="&#x21;" horiz-adv-x="302" d=" M75,91 Q75,135 105.5,166 Q136,197 180,197 Q224,197 254.5,166 Q285,135 285,91 Q285,48 254,17 Q224,-14 180,-14 Q136,-14 105,17 Q75,48 75,91 M261,242 L100,242 L59,700 L302,700"/> 
            <glyph glyph-name="&quot;" unicode="&#x22;" horiz-adv-x="387" d=" M177,380 L25,380 L25,700 L177,700 M387,380 L235,380 L235,700 L387,700"/> 
            <glyph glyph-name="#" unicode="&#x23;" horiz-adv-x="767" d=" M283,0 L146,0 L171,155 L35,155 L57,290 L192,290 L211,410 L76,410 L97,545 L233,545 L257,700 L394,700 L370,545 L495,545 L519,700 L656,700 L632,545 L767,545 L745,410 L610,410 L591,290 L727,290 L705,155 L570,155 L545,0 L408,0 L433,155 L308,155 M348,410 L329,290 L454,290 L473,410"/> 
            <glyph glyph-name="$" unicode="&#x24;" horiz-adv-x="600" d=" M400,-107 L246,-107 L246,-10 Q125,4 43,61 L43,245 Q85,206 163,177 Q238,149 307,149 Q414,149 414,204 Q414,226 387,245 Q381,250 342,263 L279,282 L228,297 L182,315 Q151,327 136,337 Q82,377 68,401 Q43,449 43,504 Q43,588 96.5,641 Q150,694 246,708 L246,807 L400,807 L400,707 Q482,693 555,656 L555,483 Q508,512 444,531 Q378,551 320,551 Q228,551 228,505 Q228,485 257,473 L289,462 Q300,458 336,448 Q372,438 385,434 Q485,401 543,351 Q600,302 600,211 Q600,128 546,70.5 Q492,13 400,-5"/> 
            <glyph glyph-name="%" unicode="&#x25;" horiz-adv-x="804" d=" M258,0 L139,0 L562,700 L681,700 M66,657 Q118,707 196,707 Q274,707 326,657 Q377,608 377,533 Q377,458 326,409 Q274,359 196,359 Q118,359 66,409 Q15,458 15,533 Q15,608 66,657 M150,484 Q168,465 196,465 Q224,465 242,484 Q260,504 260,533 Q260,562 242,581 Q224,601 196,601 Q168,601 150,581 Q132,562 132,533 Q132,504 150,484 M493,291 Q545,341 623,341 Q701,341 753,291 Q804,241 804,167 Q804,93 753,43 Q701,-7 623,-7 Q545,-7 493,43 Q442,92 442,167 Q442,242 493,291 M577,118 Q595,99 623,99 Q651,99 669,118 Q687,138 687,167 Q687,196 669,215 Q651,235 623,235 Q595,235 577,215 Q559,196 559,167 Q559,138 577,118"/> 
            <glyph glyph-name="&amp;" unicode="&#x26;" horiz-adv-x="768" d=" M611,156 L768,0 L552,0 L504,45 Q415,-14 307,-14 Q186,-14 109,47 Q32,109 32,217 Q32,286 68,337 Q105,389 150,413 Q115,466 115,524 Q115,606 174,660 Q233,714 329,714 Q439,714 522,665 L522,501 Q445,563 364,563 Q291,563 291,510 Q291,474 368,399 L495,272 Q516,313 519,387 L681,387 Q677,261 611,156 M314,137 Q356,137 388,158 L246,303 Q228,293 216.5,272.5 Q205,252 205,228 Q205,187 235.5,162 Q266,137 314,137"/> 
            <glyph glyph-name="'" unicode="&#x27;" horiz-adv-x="177" d=" M177,380 L25,380 L25,700 L177,700"/> 
            <glyph glyph-name="(" unicode="&#x28;" horiz-adv-x="388" d=" M388,-206 L208,-206 Q65,-22 65,250 Q65,522 208,706 L388,706 Q228,501 228,250 Q228,-1 388,-206"/> 
            <glyph glyph-name=")" unicode="&#x29;" horiz-adv-x="346" d=" M203,-206 L23,-206 Q183,-1 183,250 Q183,501 23,706 L203,706 Q346,522 346,250 Q346,-22 203,-206"/> 
            <glyph glyph-name="*" unicode="&#x2A;" horiz-adv-x="396" d=" M258,326 L161,326 L165,436 L72,377 L23,462 L121,513 L23,564 L72,649 L165,589 L161,700 L258,700 L254,589 L347,649 L396,564 L298,513 L396,462 L347,377 L254,436"/> 
            <glyph glyph-name="+" unicode="&#x2B;" horiz-adv-x="589" d=" M405,67 L249,67 L249,251 L65,251 L65,407 L249,407 L249,592 L405,592 L405,407 L589,407 L589,251 L405,251"/> 
            <glyph glyph-name="," unicode="&#x2C;" horiz-adv-x="291" d=" M162,-152 L21,-152 L111,176 L291,176"/> 
            <glyph glyph-name="-" unicode="&#x2D;" horiz-adv-x="418" d=" M418,202 L95,202 L95,358 L418,358"/> 
            <glyph glyph-name="." unicode="&#x2E;" horiz-adv-x="245" d=" M214,17 Q184,-14 140,-14 Q96,-14 65,17 Q35,48 35,92 Q35,136 65,166 Q96,197 140,197 Q184,197 214,166 Q245,136 245,92 Q245,48 214,17"/> 
            <glyph glyph-name="/" unicode="&#x2F;" horiz-adv-x="560" d=" M139,-140 L-28,-140 L393,792 L560,792"/> 
            <glyph glyph-name="0" unicode="&#x30;" horiz-adv-x="662" d=" M522,39 Q449,-14 353,-14 Q257,-14 184,39 Q113,91 78,173 Q44,254 44,350 Q44,557 184,661 Q257,714 353,714 Q449,714 522,661 Q593,609 628,526 Q662,446 662,350 Q662,143 522,39 M353,151 Q415,151 448,210 Q482,268 482,350 Q482,432 448,490 Q415,549 353,549 Q293,549 258,490 Q224,432 224,350 Q224,268 258,210 Q293,151 353,151"/> 
            <glyph glyph-name="1" unicode="&#x31;" horiz-adv-x="334" d=" M334,0 L157,0 L157,510 L14,444 L14,617 L178,700 L334,700"/> 
            <glyph glyph-name="2" unicode="&#x32;" horiz-adv-x="540" d=" M540,0 L32,0 L32,130 L221,298 Q287,357 312.5,394.5 Q338,432 338,470 Q338,506 310.5,527.5 Q283,549 239,549 Q145,549 56,475 L56,655 Q141,714 258,714 Q363,714 440,653 Q518,593 518,492 Q518,418 485,360 Q454,304 370,229 L285,153 L540,153"/> 
            <glyph glyph-name="3" unicode="&#x33;" horiz-adv-x="547" d=" M38,44 L38,211 Q141,144 247,144 Q299,144 332.5,169.5 Q366,195 366,238 Q366,278 335.5,303 Q305,328 254,328 Q192,328 144,304 L144,421 L292,549 L57,549 L57,700 L514,700 L514,565 L378,445 Q433,431 485,386 Q547,332 547,238 Q547,121 463,54 Q380,-14 256,-14 Q132,-14 38,44"/> 
            <glyph glyph-name="4" unicode="&#x34;" horiz-adv-x="627" d=" M530,0 L355,0 L355,166 L18,166 L18,292 L352,700 L530,700 L530,306 L627,306 L627,166 L530,166 M355,482 L208,306 L355,306"/> 
            <glyph glyph-name="5" unicode="&#x35;" horiz-adv-x="544" d=" M243,-14 Q129,-14 40,36 L40,203 Q135,144 234,144 Q292,144 327.5,167.5 Q363,191 363,238 Q363,281 327.5,306.5 Q292,332 230,332 Q156,332 62,300 L108,700 L496,700 L496,547 L241,547 L232,470 Q253,474 275,474 Q392,474 468,409 Q544,345 544,238 Q544,117 457,51 Q369,-14 243,-14"/> 
            <glyph glyph-name="6" unicode="&#x36;" horiz-adv-x="595" d=" M333,-14 Q197,-14 122,74 Q47,162 47,314 Q47,473 124,588 Q164,647 229,680.5 Q294,714 376,714 Q468,714 539,669 L539,510 Q475,556 397,556 Q329,556 283.5,516 Q238,476 232,412 Q288,467 373,467 Q468,467 532,405 Q595,344 595,237 Q595,126 520,55 Q446,-14 333,-14 M322,136 Q364,136 390,162.5 Q416,189 416,232 Q416,274 390,302 Q364,330 323,330 Q258,330 224,269 Q224,206 250.5,171 Q277,136 322,136"/> 
            <glyph glyph-name="7" unicode="&#x37;" horiz-adv-x="542" d=" M261,0 L70,0 L340,543 L31,543 L31,700 L542,700 L542,560"/> 
            <glyph glyph-name="8" unicode="&#x38;" horiz-adv-x="603" d=" M478,372 Q532,353 567.5,305.5 Q603,258 603,202 Q603,100 520,43 Q437,-14 318,-14 Q197,-14 115,43 Q33,100 33,202 Q33,258 68.5,305.5 Q104,353 158,372 Q116,390 89.5,430 Q63,470 63,515 Q63,604 135,659 Q208,714 318,714 Q429,714 500,659 Q573,604 573,515 Q573,470 546.5,430 Q520,390 478,372 M378,546 Q354,566 318,566 Q282,566 257,546 Q233,526 233,496 Q233,466 257,446 Q282,427 318,427 Q354,427 378,446 Q403,466 403,496 Q403,526 378,546 M420,217 Q420,252 391,275.5 Q362,299 318,299 Q274,299 245,275.5 Q216,252 216,217 Q216,183 245,159.5 Q274,136 318,136 Q362,136 391,159.5 Q420,183 420,217"/> 
            <glyph glyph-name="9" unicode="&#x39;" horiz-adv-x="592" d=" M263,-14 Q170,-14 100,31 L100,190 Q164,144 242,144 Q310,144 355.5,184 Q401,224 407,288 Q351,233 266,233 Q171,233 107,295 Q44,356 44,463 Q44,575 118,644 Q192,714 306,714 Q442,714 517,625 Q592,536 592,386 Q592,227 514,111 Q475,53 410,19.5 Q345,-14 263,-14 M316,370 Q381,370 415,431 Q415,494 388.5,529 Q362,564 317,564 Q275,564 249,537.5 Q223,511 223,468 Q223,426 249,398 Q275,370 316,370"/> 
            <glyph glyph-name=":" unicode="&#x3A;" horiz-adv-x="245" d=" M214,325 Q184,294 140,294 Q96,294 65,325 Q35,356 35,400 Q35,444 65,474 Q96,505 140,505 Q184,505 214,474 Q245,444 245,400 Q245,356 214,325 M214,17 Q184,-14 140,-14 Q96,-14 65,17 Q35,48 35,92 Q35,136 65,166 Q96,197 140,197 Q184,197 214,166 Q245,136 245,92 Q245,48 214,17"/> 
            <glyph glyph-name=";" unicode="&#x3B;" horiz-adv-x="294" d=" M162,-152 L21,-152 L111,176 L291,176 M263,325 Q233,294 189,294 Q145,294 114,325 Q84,356 84,400 Q84,444 115,474 Q146,505 189,505 Q232,505 263,474 Q294,444 294,400 Q294,356 263,325"/> 
            <glyph glyph-name="&lt;" unicode="&#x3C;" horiz-adv-x="589" d=" M589,214 L589,42 L65,250 L65,417 L589,625 L589,454 L242,334"/> 
            <glyph glyph-name="=" unicode="&#x3D;" horiz-adv-x="589" d=" M589,137 L65,137 L65,295 L589,295 M589,364 L65,364 L65,522 L589,522"/> 
            <glyph glyph-name="&gt;" unicode="&#x3E;" horiz-adv-x="589" d=" M589,250 L65,42 L65,214 L412,334 L65,454 L65,625 L589,417"/> 
            <glyph glyph-name="?" unicode="&#x3F;" horiz-adv-x="483" d=" M297,17 Q267,-14 223,-14 Q179,-14 148,17 Q118,48 118,92 Q118,136 149,166 Q180,197 223,197 Q266,197 297,166 Q328,136 328,92 Q328,48 297,17 M304,242 L136,242 L136,391 Q204,403 252,431 Q302,460 302,497 Q302,555 205,555 Q121,555 23,502 L23,656 Q111,714 235,714 Q337,714 410,661 Q483,609 483,510 Q483,436 429,384 Q377,332 304,309"/> 
            <glyph glyph-name="@" unicode="&#x40;" horiz-adv-x="902" d=" M466,-162 Q282,-162 155,-38 Q29,87 29,276 Q29,461 156,587 Q283,714 466,714 Q652,714 776,594 Q902,474 902,302 Q902,186 850,118 Q798,50 713,50 Q609,50 562,118 Q510,45 412,45 Q324,45 268,110 Q212,177 212,274 Q212,373 268,438 Q324,503 410,503 Q492,503 543,443 L543,492 L686,492 L686,203 Q686,104 751,104 Q795,104 827,158.5 Q859,213 859,302 Q859,457 750,566 Q642,676 466,676 Q296,676 183,559 Q72,444 72,276 Q72,106 183,-9 Q294,-124 466,-124 Q580,-124 686,-61 L686,-104 Q589,-162 466,-162 M456,174 Q514,174 543,221 L543,327 Q514,374 456,374 Q415,374 389.5,345.5 Q364,317 364,274 Q364,231 389.5,202.5 Q415,174 456,174"/> 
            <glyph glyph-name="A" unicode="&#x41;" horiz-adv-x="771" d=" M200,0 L10,0 L304,704 L477,704 L771,0 L578,0 L519,148 L259,148 M389,479 L316,292 L462,292"/> 
            <glyph glyph-name="B" unicode="&#x42;" horiz-adv-x="677" d=" M427,0 L67,0 L67,700 L408,700 Q507,700 566.5,653.5 Q626,607 626,523 Q626,475 602.5,439 Q579,403 544,387 Q596,375 636,326 Q677,276 677,201 Q677,111 608,55 Q541,0 427,0 M247,299 L247,150 L392,150 Q433,150 456.5,169.5 Q480,189 480,224 Q480,259 456,279 Q432,299 392,299 M247,554 L247,432 L381,432 Q414,432 433.5,448 Q453,464 453,492 Q453,521 433.5,537.5 Q414,554 381,554"/> 
            <glyph glyph-name="C" unicode="&#x43;" horiz-adv-x="627" d=" M435,-14 Q267,-14 156,88 Q45,190 45,350 Q45,510 155,612 Q266,714 434,714 Q534,714 615,674 L615,497 Q533,548 436,548 Q348,548 289,492 Q230,436 230,350 Q230,262 290,207 Q351,152 443,152 Q553,152 627,208 L627,30 Q541,-14 435,-14"/> 
            <glyph glyph-name="D" unicode="&#x44;" horiz-adv-x="733" d=" M346,0 L67,0 L67,700 L346,700 Q516,700 625,602 Q733,504 733,350 Q733,194 625,97 Q518,0 346,0 M247,542 L247,158 L333,158 Q435,158 491,208 Q547,258 547,350 Q547,442 491,492 Q435,542 333,542"/> 
            <glyph glyph-name="E" unicode="&#x45;" horiz-adv-x="607" d=" M607,0 L67,0 L67,700 L599,700 L599,542 L247,542 L247,447 L527,447 L527,295 L247,295 L247,158 L607,158"/> 
            <glyph glyph-name="F" unicode="&#x46;" horiz-adv-x="599" d=" M247,0 L67,0 L67,700 L599,700 L599,542 L247,542 L247,440 L510,440 L510,288 L247,288"/> 
            <glyph glyph-name="G" unicode="&#x47;" horiz-adv-x="718" d=" M426,-14 Q264,-14 154,88 Q45,191 45,350 Q45,510 155,612 Q264,714 433,714 Q542,714 637,664 L637,495 Q540,548 446,548 Q351,548 290,492 Q230,436 230,347 Q230,254 287,200 Q344,146 426,146 Q496,146 537,179 L537,408 L718,408 L718,97 Q676,51 597,18 Q516,-14 426,-14"/> 
            <glyph glyph-name="H" unicode="&#x48;" horiz-adv-x="691" d=" M247,0 L67,0 L67,700 L247,700 L247,451 L511,451 L511,700 L691,700 L691,0 L511,0 L511,291 L247,291"/> 
            <glyph glyph-name="I" unicode="&#x49;" horiz-adv-x="251" d=" M251,0 L71,0 L71,700 L251,700"/> 
            <glyph glyph-name="J" unicode="&#x4A;" horiz-adv-x="456" d=" M197,-14 Q84,-14 25,25 L25,198 Q86,152 158,152 Q219,152 247.5,179 Q276,206 276,268 L276,700 L456,700 L456,239 Q456,96 375,37 Q303,-14 197,-14"/> 
            <glyph glyph-name="K" unicode="&#x4B;" horiz-adv-x="740" d=" M247,0 L67,0 L67,700 L247,700 L247,433 L474,700 L690,700 L419,378 L740,0 L521,0 L247,311"/> 
            <glyph glyph-name="L" unicode="&#x4C;" horiz-adv-x="583" d=" M583,0 L67,0 L67,700 L247,700 L247,158 L583,158"/> 
            <glyph glyph-name="M" unicode="&#x4D;" horiz-adv-x="779" d=" M247,0 L67,0 L67,700 L246,700 L423,431 L601,700 L779,700 L779,0 L600,0 L600,427 L475,239 L376,239 L247,427"/> 
            <glyph glyph-name="N" unicode="&#x4E;" horiz-adv-x="703" d=" M244,0 L67,0 L67,700 L221,700 L527,315 L527,700 L703,700 L703,0 L554,0 L244,387"/> 
            <glyph glyph-name="O" unicode="&#x4F;" horiz-adv-x="783" d=" M282,208 Q335,152 414,152 Q492,152 545,208 Q598,264 598,350 Q598,436 545,492 Q492,548 414,548 Q335,548 282,492 Q230,437 230,350 Q230,263 282,208 M678,92 Q573,-14 414,-14 Q255,-14 150,92 Q45,198 45,350 Q45,502 150,608 Q255,714 414,714 Q573,714 678,608 Q783,502 783,350 Q783,198 678,92"/> 
            <glyph glyph-name="P" unicode="&#x50;" horiz-adv-x="634" d=" M247,0 L67,0 L67,700 L379,700 Q497,700 565,639 Q634,578 634,481 Q634,384 565,322 Q497,261 379,261 L247,261 M247,548 L247,409 L366,409 Q405,409 428.5,427.5 Q452,446 452,479 Q452,512 429,530 Q406,548 366,548"/> 
            <glyph glyph-name="Q" unicode="&#x51;" horiz-adv-x="783" d=" M638,-175 Q573,-175 511.5,-137.5 Q450,-100 379,-12 Q233,0 139,103 Q45,206 45,350 Q45,502 150,608 Q255,714 414,714 Q573,714 678,608 Q783,502 783,350 Q783,240 726,152 Q668,62 572,19 Q608,-24 667,-24 Q712,-24 750,-3 L750,-152 Q698,-175 638,-175 M282,208 Q335,152 414,152 Q492,152 545,208 Q598,264 598,350 Q598,436 545,492 Q492,548 414,548 Q335,548 282,492 Q230,437 230,350 Q230,263 282,208"/> 
            <glyph glyph-name="R" unicode="&#x52;" horiz-adv-x="724" d=" M247,0 L67,0 L67,700 L396,700 Q512,700 579,639 Q648,579 648,484 Q648,416 612,364 Q576,312 512,287 L724,0 L517,0 L319,267 L247,267 M247,548 L247,414 L386,414 Q423,414 444.5,431.5 Q466,449 466,480 Q466,511 444.5,529.5 Q423,548 386,548"/> 
            <glyph glyph-name="S" unicode="&#x53;" horiz-adv-x="600" d=" M314,-14 Q152,-14 43,61 L43,245 Q85,206 163,177 Q238,149 307,149 Q414,149 414,204 Q414,226 387,245 Q381,250 342,263 L279,282 L228,297 L182,315 Q151,327 136,337 Q82,377 68,401 Q43,449 43,504 Q43,604 116.5,659 Q190,714 318,714 Q446,714 555,656 L555,483 Q508,512 444,531 Q378,551 320,551 Q228,551 228,505 Q228,485 257,473 L289,462 Q300,458 336,448 Q372,438 385,434 Q485,401 543,351 Q600,302 600,211 Q600,109 520,47 Q441,-14 314,-14"/> 
            <glyph glyph-name="T" unicode="&#x54;" horiz-adv-x="629" d=" M418,0 L238,0 L238,542 L28,542 L28,700 L629,700 L629,542 L418,542"/> 
            <glyph glyph-name="U" unicode="&#x55;" horiz-adv-x="672" d=" M58,293 L58,700 L238,700 L238,284 Q238,220 273,186 Q308,152 365,152 Q423,152 457.5,185.5 Q492,219 492,284 L492,700 L672,700 L672,293 Q672,147 585,66 Q497,-14 365,-14 Q233,-14 145,66 Q58,147 58,293"/> 
            <glyph glyph-name="V" unicode="&#x56;" horiz-adv-x="755" d=" M468,-4 L297,-4 L11,700 L210,700 L384,244 L559,700 L755,700"/> 
            <glyph glyph-name="W" unicode="&#x57;" horiz-adv-x="1078" d=" M404,-4 L244,-4 L12,700 L213,700 L331,283 L477,702 L617,702 L763,283 L881,700 L1078,700 L844,-4 L686,-4 L546,406"/> 
            <glyph glyph-name="X" unicode="&#x58;" horiz-adv-x="741" d=" M203,0 L-5,0 L263,376 L35,700 L245,700 L369,520 L494,700 L701,700 L473,377 L741,0 L530,0 L366,233"/> 
            <glyph glyph-name="Y" unicode="&#x59;" horiz-adv-x="723" d=" M454,0 L274,0 L274,310 L5,700 L210,700 L366,469 L523,700 L723,700 L454,314"/> 
            <glyph glyph-name="Z" unicode="&#x5A;" horiz-adv-x="617" d=" M617,0 L25,0 L25,128 L359,542 L38,542 L38,700 L601,700 L601,573 L268,158 L617,158"/> 
            <glyph glyph-name="[" unicode="&#x5B;" horiz-adv-x="417" d=" M417,-206 L71,-206 L71,706 L417,706 L417,570 L231,570 L231,-70 L417,-70"/> 
            <glyph glyph-name="\" unicode="&#x5C;" horiz-adv-x="574" d=" M574,-140 L407,-140 L-14,792 L153,792"/> 
            <glyph glyph-name="]" unicode="&#x5D;" horiz-adv-x="381" d=" M35,706 L381,706 L381,-206 L35,-206 L35,-70 L221,-70 L221,570 L35,570"/> 
            <glyph glyph-name="^" unicode="&#x5E;" horiz-adv-x="544" d=" M192,335 L25,335 L201,750 L368,750 L544,335 L378,335 L285,599"/> 
            <glyph glyph-name="_" unicode="&#x5F;" horiz-adv-x="657" d=" M657,-160 L3,-160 L3,-44 L657,-44"/> 
            <glyph glyph-name="`" unicode="&#x60;" horiz-adv-x="423" d=" M423,576 L276,576 L119,728 L328,728"/> 
            <glyph glyph-name="a" unicode="&#x61;" horiz-adv-x="581" d=" M205,-13 Q123,-13 71,34 Q20,80 20,156 Q21,237 81,279.5 Q141,322 218,320 Q293,320 347,294 L347,301 Q347,356 305,370 Q272,382 229,382 Q148,382 81,345 L81,484 Q159,521 272,521 Q383,521 453,465 Q522,410 522,316 L522,162 Q522,135 552,135 Q570,135 581,141 L581,15 Q547,-11 491,-11 Q401,-11 367,47 Q306,-13 205,-13 M265,106 Q318,106 347,150 L347,203 Q318,225 273,225 Q239,225 216.5,208 Q194,191 194,164 Q194,138 214,122 Q234,106 265,106"/> 
            <glyph glyph-name="b" unicode="&#x62;" horiz-adv-x="622" d=" M238,57 L238,0 L61,0 L61,700 L238,700 L238,451 Q292,521 390,521 Q490,521 556,444 Q622,367 622,254 Q622,140 556,63 Q490,-13 390,-13 Q290,-13 238,57 M339,137 Q386,137 416,170 Q446,203 446,254 Q446,305 416,338 Q386,371 339,371 Q272,371 238,317 L238,191 Q272,137 339,137"/> 
            <glyph glyph-name="c" unicode="&#x63;" horiz-adv-x="467" d=" M308,-13 Q196,-13 112,59 Q29,131 29,255 Q29,380 113,450 Q198,521 310,521 Q395,521 460,490 L460,342 Q397,368 338,368 Q280,368 241.5,337 Q203,306 203,254 Q203,202 241,170.5 Q279,139 337,139 Q410,139 467,169 L467,22 Q392,-13 308,-13"/> 
            <glyph glyph-name="d" unicode="&#x64;" horiz-adv-x="590" d=" M361,-13 Q161,-13 95,63 Q29,140 29,254 Q29,368 95,444 Q161,521 261,521 Q359,521 413,451 L413,700 L590,700 L590,0 L413,0 L413,57 M312,137 Q378,137 413,191 L413,317 Q378,371 312,371 Q265,371 235,338 Q205,305 205,254 Q205,203 235,170 Q265,137 312,137"/> 
            <glyph glyph-name="e" unicode="&#x65;" horiz-adv-x="543" d=" M312,-13 Q194,-13 111,59 Q29,132 29,254 Q29,367 103,444 Q177,521 298,521 Q407,521 474,446 Q543,373 543,255 L543,211 L203,211 Q214,173 254,152.5 Q294,132 351,132 Q434,132 514,176 L514,40 Q441,-13 312,-13 M202,305 L370,305 Q369,343 346,367 Q323,391 290,391 Q255,391 231,368 Q207,345 202,305"/> 
            <glyph glyph-name="f" unicode="&#x66;" horiz-adv-x="425" d=" M277,366 L277,0 L100,0 L100,366 L15,366 L15,508 L100,508 L100,535 Q100,616 148,665 Q196,714 286,714 Q366,714 425,692 L425,556 Q384,571 338,571 Q277,571 277,517 L277,508 L425,508 L425,366"/> 
            <glyph glyph-name="g" unicode="&#x67;" horiz-adv-x="585" d=" M282,-206 Q152,-206 81,-163 L81,-9 Q161,-58 263,-58 Q298,-58 328,-50 Q361,-41 384.5,-12 Q408,17 408,60 L408,86 Q348,21 254,21 Q155,21 92,92 Q29,162 29,271 Q29,380 92,450 Q155,521 254,521 Q346,521 408,455 L408,508 L585,508 L585,71 Q585,3 558.5,-52 Q532,-107 486,-140 Q396,-206 282,-206 M307,169 Q375,169 408,216 L408,326 Q373,373 307,373 Q260,373 232.5,344.5 Q205,316 205,271 Q205,226 232.5,197.5 Q260,169 307,169"/> 
            <glyph glyph-name="h" unicode="&#x68;" horiz-adv-x="573" d=" M238,318 L238,0 L61,0 L61,700 L238,700 L238,451 Q304,521 392,521 Q476,521 524.5,464.5 Q573,408 573,312 L573,0 L396,0 L396,279 Q396,322 376,342.5 Q356,363 323,363 Q271,363 238,318"/> 
            <glyph glyph-name="i" unicode="&#x69;" horiz-adv-x="256" d=" M243,0 L66,0 L66,508 L243,508 M154,554 Q112,554 82.5,583.5 Q53,613 53,656 Q53,699 82.5,728.5 Q112,758 154,758 Q197,758 226.5,728.5 Q256,699 256,656 Q256,613 226.5,583.5 Q197,554 154,554"/> 
            <glyph glyph-name="j" unicode="&#x6A;" horiz-adv-x="256" d=" M154,554 Q112,554 82.5,583.5 Q53,613 53,656 Q53,699 82.5,728.5 Q112,758 154,758 Q197,758 226.5,728.5 Q256,699 256,656 Q256,613 226.5,583.5 Q197,554 154,554 M39,-206 Q-42,-206 -81,-185 L-81,-40 Q-48,-56 -7,-56 Q67,-56 67,16 L67,508 L244,508 L244,1 Q244,-95 189.5,-150.5 Q135,-206 39,-206"/> 
            <glyph glyph-name="k" unicode="&#x6B;" horiz-adv-x="631" d=" M238,0 L61,0 L61,700 L238,700 L238,328 L389,508 L598,508 L397,280 L631,0 L410,0 L238,210"/> 
            <glyph glyph-name="l" unicode="&#x6C;" horiz-adv-x="304" d=" M206,-13 Q61,-13 61,135 L61,700 L238,700 L238,177 Q238,138 274,138 Q291,138 304,145 L304,6 Q267,-13 206,-13"/> 
            <glyph glyph-name="m" unicode="&#x6D;" horiz-adv-x="881" d=" M238,0 L61,0 L61,508 L238,508 L238,448 Q293,521 394,521 Q440,521 477.5,496.5 Q515,472 534,437 Q559,474 604.5,497.5 Q650,521 700,521 Q782,521 831.5,468 Q881,415 881,317 L881,0 L704,0 L704,282 Q704,364 640,364 Q587,364 560,317 L560,0 L383,0 L383,282 Q383,364 319,364 Q267,364 238,317"/> 
            <glyph glyph-name="n" unicode="&#x6E;" horiz-adv-x="573" d=" M238,318 L238,0 L61,0 L61,508 L238,508 L238,451 Q304,521 392,521 Q476,521 524.5,464.5 Q573,408 573,312 L573,0 L396,0 L396,279 Q396,322 376,342.5 Q356,363 323,363 Q271,363 238,318"/> 
            <glyph glyph-name="o" unicode="&#x6F;" horiz-adv-x="601" d=" M427,254 Q427,303 395,336.5 Q363,370 315,370 Q267,370 235,336.5 Q203,303 203,254 Q203,204 234.5,171 Q266,138 315,138 Q364,138 395.5,171 Q427,204 427,254 M520,63 Q440,-13 315,-13 Q190,-13 110,63 Q29,139 29,254 Q29,368 110,444 Q192,521 315,521 Q438,521 520,444 Q601,368 601,254 Q601,139 520,63"/> 
            <glyph glyph-name="p" unicode="&#x70;" horiz-adv-x="622" d=" M238,-200 L61,-200 L61,508 L238,508 L238,451 Q290,521 390,521 Q490,521 556,444 Q622,367 622,254 Q622,140 556,63 Q490,-13 390,-13 Q292,-13 238,57 M339,137 Q386,137 416,170 Q446,203 446,254 Q446,305 416,338 Q386,371 339,371 Q272,371 238,317 L238,191 Q272,137 339,137"/> 
            <glyph glyph-name="q" unicode="&#x71;" horiz-adv-x="590" d=" M590,-200 L413,-200 L413,57 Q359,-13 261,-13 Q161,-13 95,63 Q29,140 29,254 Q29,368 95,444 Q161,521 261,521 Q361,521 413,451 L413,508 L590,508 M312,137 Q378,137 413,191 L413,317 Q378,371 312,371 Q265,371 235,338 Q205,305 205,254 Q205,203 235,170 Q265,137 312,137"/> 
            <glyph glyph-name="r" unicode="&#x72;" horiz-adv-x="427" d=" M238,0 L61,0 L61,508 L238,508 L238,425 Q256,460 303,490 Q350,521 405,521 Q417,521 427,519 L427,348 Q393,356 367,356 Q323,356 288,339 Q253,322 238,295"/> 
            <glyph glyph-name="s" unicode="&#x73;" horiz-adv-x="489" d=" M257,-13 Q116,-13 42,32 L42,181 Q74,158 130,142 Q185,126 249,126 Q311,126 311,151 Q311,165 289,174 L266,182 Q259,184 195,201 Q108,226 72,258 Q37,290 37,359 Q37,435 99,478 Q161,521 270,521 Q382,521 462,473 L462,329 Q374,384 277,384 Q220,384 220,358 Q220,342 243,335 L267,328 Q276,326 302,320 Q328,314 333,313 Q415,292 452,254.5 Q489,217 489,151 Q489,78 426,32 Q364,-13 257,-13"/> 
            <glyph glyph-name="t" unicode="&#x74;" horiz-adv-x="410" d=" M280,-13 Q200,-13 152,30.5 Q104,74 104,153 L104,366 L15,366 L15,508 L104,508 L104,638 L281,638 L281,508 L410,508 L410,366 L281,366 L281,201 Q281,168 294.5,154 Q308,140 340,140 Q376,140 410,158 L410,17 Q362,-13 280,-13"/> 
            <glyph glyph-name="u" unicode="&#x75;" horiz-adv-x="564" d=" M233,-13 Q149,-13 100.5,43.5 Q52,100 52,196 L52,508 L229,508 L229,229 Q229,186 249,165.5 Q269,145 302,145 Q354,145 387,190 L387,508 L564,508 L564,0 L387,0 L387,57 Q321,-13 233,-13"/> 
            <glyph glyph-name="v" unicode="&#x76;" horiz-adv-x="596" d=" M381,-4 L221,-4 L6,508 L194,508 L304,216 L414,508 L596,508"/> 
            <glyph glyph-name="w" unicode="&#x77;" horiz-adv-x="823" d=" M327,-4 L176,-4 L10,508 L185,508 L266,249 L347,510 L487,510 L570,249 L649,508 L823,508 L654,-4 L502,-4 L413,257"/> 
            <glyph glyph-name="x" unicode="&#x78;" horiz-adv-x="586" d=" M202,0 L10,0 L193,262 L23,508 L216,508 L299,382 L382,508 L574,508 L404,263 L586,0 L391,0 L297,140"/> 
            <glyph glyph-name="y" unicode="&#x79;" horiz-adv-x="601" d=" M163,-206 Q99,-206 50,-183 L50,-31 Q88,-55 132,-55 Q166,-55 188,-38.5 Q210,-22 226,17 L10,508 L198,508 L311,202 L417,508 L601,508 L374,-51 Q311,-206 163,-206"/> 
            <glyph glyph-name="z" unicode="&#x7A;" horiz-adv-x="508" d=" M508,0 L30,0 L30,117 L256,365 L43,365 L43,508 L492,508 L492,387 L262,143 L508,143"/> 
            <glyph glyph-name="{" unicode="&#x7B;" horiz-adv-x="399" d=" M346,-70 L399,-70 L399,-206 L308,-206 Q224,-206 175,-156.5 Q126,-107 126,-24 L126,71 Q126,128 110.5,152.5 Q95,177 49,182 L49,318 Q95,323 110.5,347.5 Q126,372 126,429 L126,524 Q126,607 175,656.5 Q224,706 308,706 L399,706 L399,570 L346,570 Q319,570 302.5,552.5 Q286,535 286,508 L286,375 Q286,273 200,250 Q286,224 286,125 L286,-8 Q286,-35 302.5,-52.5 Q319,-70 346,-70"/> 
            <glyph glyph-name="|" unicode="&#x7C;" horiz-adv-x="257" d=" M257,-111 L105,-111 L105,760 L257,760"/> 
            <glyph glyph-name="}" unicode="&#x7D;" horiz-adv-x="385" d=" M126,-206 L35,-206 L35,-70 L88,-70 Q115,-70 131.5,-52.5 Q148,-35 148,-8 L148,125 Q148,224 234,250 Q148,273 148,375 L148,508 Q148,535 131.5,552.5 Q115,570 88,570 L35,570 L35,706 L126,706 Q210,706 259,656.5 Q308,607 308,524 L308,429 Q308,372 323.5,347.5 Q339,323 385,318 L385,182 Q339,177 323.5,152.5 Q308,128 308,71 L308,-24 Q308,-107 259,-156.5 Q210,-206 126,-206"/> 
            <glyph glyph-name="~" unicode="&#x7E;" horiz-adv-x="589" d=" M464,153 Q412,153 327,180 Q243,208 189,208 Q110,208 65,161 L65,318 Q80,337 115,349.5 Q150,362 189,362 Q243,362 327,334 Q411,306 464,306 Q542,306 589,354 L589,196 Q573,177 538.5,165 Q504,153 464,153"/> 
            <glyph glyph-name="¡" unicode="&#xA1;" horiz-adv-x="302" d=" M261,265 L302,-200 L59,-200 L100,265 M254,341 Q224,310 180,310 Q136,310 105,341 Q75,372 75,416 Q75,460 105,490 Q136,521 180,521 Q224,521 254,490 Q285,460 285,416 Q285,372 254,341"/> 
            <glyph glyph-name="¢" unicode="&#xA2;" horiz-adv-x="467" d=" M373,-117 L225,-117 L225,-2 L226,-2 Q139,21 84,88 Q29,155 29,255 Q29,355 84,420 Q140,487 225,509 L225,624 L373,624 L373,517 Q412,512 460,490 L460,342 Q397,368 338,368 Q280,368 241.5,337 Q203,306 203,254 Q203,202 241,170.5 Q279,139 337,139 Q410,139 467,169 L467,22 Q421,0 373,-8"/> 
            <glyph glyph-name="£" unicode="&#xA3;" horiz-adv-x="561" d=" M561,0 L30,0 L30,158 L60,158 Q117,158 117,222 L117,276 L30,276 L30,407 L117,407 L117,469 Q117,583 188,648 Q260,714 382,714 Q475,714 541,683 L541,518 Q470,548 412,548 Q297,548 297,444 L297,407 L497,407 L497,276 L297,276 L297,221 Q297,178 274,163 L266,158 L561,158"/> 
            <glyph glyph-name="¤" unicode="&#xA4;" horiz-adv-x="550" d=" M175,159 L109,93 L35,168 L101,234 Q68,287 68,351 Q68,415 101,468 L35,534 L109,609 L175,543 Q230,576 292,576 Q356,576 409,543 L476,609 L550,534 L484,468 Q517,415 517,351 Q517,287 484,234 L550,168 L476,93 L409,159 Q356,126 292,126 Q230,126 175,159 M292,260 Q330,260 356.5,286.5 Q383,313 383,351 Q383,389 356.5,415.5 Q330,442 292,442 Q255,442 228.5,415.5 Q202,389 202,351 Q202,313 228.5,286.5 Q255,260 292,260"/> 
            <glyph glyph-name="¥" unicode="&#xA5;" horiz-adv-x="693" d=" M439,0 L259,0 L259,123 L70,123 L70,233 L259,233 L259,293 L70,293 L70,403 L215,403 L5,700 L195,700 L351,464 L508,700 L693,700 L481,403 L628,403 L628,293 L439,293 L439,233 L628,233 L628,123 L439,123"/> 
            <glyph glyph-name="¦" unicode="&#xA6;" horiz-adv-x="257" d=" M257,-111 L105,-111 L105,242 L257,242 M257,407 L105,407 L105,760 L257,760"/> 
            <glyph glyph-name="§" unicode="&#xA7;" horiz-adv-x="623" d=" M309,-170 Q182,-170 83,-119 L83,36 Q199,-24 316,-24 Q397,-24 397,15 Q397,37 367,48 Q359,52 337,59 L292,72 L242,86 Q143,117 92,153 Q25,200 25,284 Q25,367 116,410 Q67,456 67,526 Q67,616 142,665 Q218,714 338,714 Q466,714 565,663 L565,508 Q450,568 332,568 Q251,568 251,529 Q251,507 280,496 Q288,493 311,485 L356,472 L406,458 Q505,427 556,391 Q623,344 623,260 Q623,176 532,134 Q581,88 581,18 Q581,-72 505,-121 Q431,-170 309,-170 M413,199 Q459,209 459,245 Q459,271 423,285 Q409,293 384,300 Q377,302 350.5,309 Q324,316 310,321 L235,345 Q189,335 189,298 Q189,272 225,258 Q253,247 264,244 Q271,242 297.5,235 Q324,228 338,223 Q347,220 375.5,211 Q404,202 413,199"/> 
            <glyph glyph-name="¨" unicode="&#xA8;" horiz-adv-x="469" d=" M155,566 Q120,566 94,591.5 Q68,617 68,653 Q68,689 93.5,714 Q119,739 155,739 Q192,739 217,714 Q242,689 242,653 Q242,617 217,591.5 Q192,566 155,566 M443,591 Q418,566 382,566 Q346,566 320,591 Q295,617 295,653 Q295,689 320,714 Q346,739 382,739 Q418,739 443,714 Q469,689 469,653 Q469,617 443,591"/> 
            <glyph glyph-name="©" unicode="&#xA9;" horiz-adv-x="769" d=" M436,148 Q346,148 282,207 Q220,267 220,350 Q220,433 282,492 Q344,551 436,551 Q493,551 536,529 L536,430 Q489,459 436,459 Q388,459 355.5,428 Q323,397 323,350 Q323,302 356.5,271.5 Q390,241 441,241 Q502,241 543,272 L543,173 Q497,148 436,148 M406,23 Q544,23 637,119 Q730,215 730,352 Q730,487 637,582 Q545,677 408,677 Q272,677 177,581 Q84,485 84,348 Q84,212 177,118 Q270,23 406,23 M45,200 Q45,500 151,606 Q258,714 408,714 Q559,714 664,607 Q769,501 769,350 Q769,200 663,93 Q556,-14 406,-14 Q255,-14 45,200"/> 
            <glyph glyph-name="ª" unicode="&#xAA;" horiz-adv-x="418" d=" M265,434 L265,473 Q234,495 190,495 Q157,495 137,481.5 Q117,468 117,445 Q117,422 135.5,408.5 Q154,395 183,395 Q235,395 265,434 M397,408 Q410,408 418,413 L418,333 Q396,317 360,317 Q297,317 276,365 Q227,314 149,314 Q88,314 49.5,348.5 Q11,383 11,440 Q11,499 55,531 Q99,563 159,563 Q218,563 265,538 L265,550 Q265,619 167,619 Q110,619 54,589 L54,679 Q114,708 193,708 Q274,708 322,668.5 Q370,629 370,561 L370,436 Q370,424 378,416 Q386,408 397,408"/> 
            <glyph glyph-name="«" unicode="&#xAB;" horiz-adv-x="585" d=" M327,32 L151,32 L21,210 L21,297 L151,476 L327,476 L167,254 M585,32 L409,32 L279,210 L279,297 L409,476 L585,476 L425,254"/> 
            <glyph glyph-name="¬" unicode="&#xAC;" horiz-adv-x="547" d=" M547,131 L389,131 L389,286 L65,286 L65,444 L547,444"/> 
            <glyph glyph-name="­" unicode="&#xAD;" horiz-adv-x="418" d=" M418,202 L95,202 L95,358 L418,358"/> 
            <glyph glyph-name="®" unicode="&#xAE;" horiz-adv-x="769" d=" M348,168 L249,168 L249,555 L431,555 Q494,555 532,522.5 Q570,490 570,436 Q570,398 550,369 Q530,340 495,327 L611,168 L501,168 L393,316 L348,316 M348,472 L348,396 L426,396 Q469,396 469,433 Q469,451 457.5,461.5 Q446,472 426,472 M406,23 Q544,23 637,119 Q730,215 730,352 Q730,487 637,582 Q545,677 408,677 Q270,677 177,581 Q84,485 84,348 Q84,213 176,118 Q269,23 406,23 M45,200 Q45,500 151,606 Q258,714 408,714 Q559,714 664,607 Q769,501 769,350 Q769,200 663,93 Q556,-14 406,-14 Q255,-14 45,200"/> 
            <glyph glyph-name="¯" unicode="&#xAF;" horiz-adv-x="416" d=" M416,592 L82,592 L82,708 L416,708"/> 
            <glyph glyph-name="°" unicode="&#xB0;" horiz-adv-x="352" d=" M255,582 Q217,622 189,622 Q161,622 141,602 Q122,582 122,553 Q122,524 141,504 Q161,485 189,485 Q217,485 236,504 Q255,524 255,582 M352,553 Q352,488 303,440 Q254,393 189,393 Q124,393 74,440 Q25,488 25,553 Q25,620 74,666 Q123,714 189,714 Q255,714 303,666 Q352,620 352,553"/> 
            <glyph glyph-name="±" unicode="&#xB1;" horiz-adv-x="589" d=" M589,0 L65,0 L65,158 L589,158 M405,218 L249,218 L249,377 L65,377 L65,533 L249,533 L249,700 L405,700 L405,533 L589,533 L589,377 L405,377"/> 
            <glyph glyph-name="²" unicode="&#xB2;" horiz-adv-x="322" d=" M322,322 L37,322 L37,399 L140,485 Q203,538 203,572 Q203,589 189.5,599.5 Q176,610 153,610 Q101,610 51,572 L51,678 Q98,708 162,708 Q221,708 265,675 Q310,642 310,586 Q310,545 292,513.5 Q274,482 228,443 L191,411 L322,411"/> 
            <glyph glyph-name="³" unicode="&#xB3;" horiz-adv-x="308" d=" M144,314 Q73,314 21,345 L21,442 Q79,408 135,408 Q165,408 183,420 Q201,432 201,452 Q201,471 185.5,482.5 Q170,494 143,494 Q103,494 79,482 L79,547 L160,611 L31,611 L31,700 L290,700 L290,621 L216,560 Q308,534 308,449 Q308,388 260,351 Q214,314 144,314"/> 
            <glyph glyph-name="´" unicode="&#xB4;" horiz-adv-x="426" d=" M269,576 L122,576 L217,728 L426,728"/> 
            <glyph glyph-name="µ" unicode="&#xB5;" horiz-adv-x="573" d=" M238,-200 L61,-200 L61,508 L238,508 L238,229 Q238,186 258,165.5 Q278,145 311,145 Q363,145 396,190 L396,508 L573,508 L573,0 L396,0 L396,57 Q330,-13 242,-13 L238,-13"/> 
            <glyph glyph-name="¶" unicode="&#xB6;" horiz-adv-x="531" d=" M531,0 L351,0 L351,274 L275,274 Q162,274 94,333 Q27,393 27,487 Q27,582 94,640 Q162,700 275,700 L531,700"/> 
            <glyph glyph-name="·" unicode="&#xB7;" horiz-adv-x="245" d=" M214,317 Q184,286 140,286 Q96,286 65,317 Q35,348 35,392 Q35,436 65,466 Q96,497 140,497 Q184,497 214,466 Q245,436 245,392 Q245,348 214,317"/> 
            <glyph glyph-name="¸" unicode="&#xB8;" horiz-adv-x="361" d=" M297,-152 L93,-152 L221,13 L361,13"/> 
            <glyph glyph-name="¹" unicode="&#xB9;" horiz-adv-x="222" d=" M222,322 L116,322 L116,592 L16,543 L16,646 L120,700 L222,700"/> 
            <glyph glyph-name="º" unicode="&#xBA;" horiz-adv-x="429" d=" M222,413 Q264,413 290,441 Q316,469 316,512 Q316,553 289.5,580.5 Q263,608 222,608 Q181,608 155,581 Q129,554 129,512 Q129,469 155,441 Q181,413 222,413 M370,370 Q311,314 222,314 Q132,314 73,370 Q15,427 15,511 Q15,596 73,651 Q131,708 222,708 Q312,708 370,651 Q429,595 429,511 Q429,427 370,370"/> 
            <glyph glyph-name="»" unicode="&#xBB;" horiz-adv-x="583" d=" M195,32 L19,32 L179,254 L19,476 L195,476 L325,297 L325,210 M453,32 L277,32 L437,254 L277,476 L453,476 L583,297 L583,210"/> 
            <glyph glyph-name="¼" unicode="&#xBC;" horiz-adv-x="758" d=" M216,0 L96,0 L521,700 L641,700 M222,322 L116,322 L116,592 L16,543 L16,646 L120,700 L222,700 M706,0 L603,0 L603,87 L416,87 L416,162 L597,378 L706,378 L706,169 L758,169 L758,87 L706,87 M603,262 L522,169 L603,169"/> 
            <glyph glyph-name="½" unicode="&#xBD;" horiz-adv-x="774" d=" M216,0 L96,0 L521,700 L641,700 M222,322 L116,322 L116,592 L16,543 L16,646 L120,700 L222,700 M774,0 L489,0 L489,77 L592,163 Q655,216 655,250 Q655,267 641.5,277.5 Q628,288 605,288 Q553,288 503,250 L503,356 Q550,386 614,386 Q674,386 717,353 Q762,320 762,264 Q762,223 744,191.5 Q726,160 680,121 L643,89 L774,89"/> 
            <glyph glyph-name="¾" unicode="&#xBE;" horiz-adv-x="800" d=" M257,0 L137,0 L562,700 L682,700 M748,0 L645,0 L645,87 L458,87 L458,162 L639,378 L748,378 L748,169 L800,169 L800,87 L748,87 M645,262 L564,169 L645,169 M144,314 Q73,314 21,345 L21,442 Q79,408 135,408 Q165,408 183,420 Q201,432 201,452 Q201,471 185.5,482.5 Q170,494 143,494 Q103,494 79,482 L79,547 L160,611 L31,611 L31,700 L290,700 L290,621 L216,560 Q308,534 308,449 Q308,388 260,351 Q214,314 144,314"/> 
            <glyph glyph-name="¿" unicode="&#xBF;" horiz-adv-x="478" d=" M203,491 Q234,522 278,522 Q322,522 352,491 Q383,460 383,416 Q383,372 352,341 Q322,311 278,311 Q234,311 203,341 Q173,372 173,416 Q173,460 203,491 M197,266 L365,266 L365,117 Q297,105 249,77 Q199,48 199,11 Q199,-47 296,-47 Q380,-47 478,6 L478,-148 Q390,-206 266,-206 Q164,-206 90,-153 Q18,-100 18,-2 Q18,71 71,124 Q125,176 197,199"/> 
            <glyph glyph-name="À" unicode="&#xC0;" horiz-adv-x="771" d=" M200,0 L10,0 L304,704 L477,704 L771,0 L578,0 L519,148 L259,148 M389,479 L316,292 L462,292 M469,760 L322,760 L165,912 L374,912"/> 
            <glyph glyph-name="Á" unicode="&#xC1;" horiz-adv-x="771" d=" M200,0 L10,0 L304,704 L477,704 L771,0 L578,0 L519,148 L259,148 M389,479 L316,292 L462,292 M467,760 L320,760 L415,912 L624,912"/> 
            <glyph glyph-name="Â" unicode="&#xC2;" horiz-adv-x="771" d=" M200,0 L10,0 L304,704 L477,704 L771,0 L578,0 L519,148 L259,148 M389,479 L316,292 L462,292 M327,761 L180,761 L307,912 L474,912 L598,761 L448,761 L387,830"/> 
            <glyph glyph-name="Ã" unicode="&#xC3;" horiz-adv-x="771" d=" M200,0 L10,0 L304,704 L477,704 L771,0 L578,0 L519,148 L259,148 M389,479 L316,292 L462,292 M459,757 Q426,757 386,777 Q348,797 328,797 Q293,797 284,761 L195,761 Q195,824 230,870 Q264,916 321,916 Q353,916 391,896 Q429,877 451,877 Q486,877 495,912 L584,912 Q584,853 548,805 Q514,757 459,757"/> 
            <glyph glyph-name="Ä" unicode="&#xC4;" horiz-adv-x="771" d=" M200,0 L10,0 L304,704 L477,704 L771,0 L578,0 L519,148 L259,148 M389,479 L316,292 L462,292 M276,750 Q241,750 215,775.5 Q189,801 189,837 Q189,873 214.5,898 Q240,923 276,923 Q313,923 338,898 Q363,873 363,837 Q363,801 338,775.5 Q313,750 276,750 M564,775 Q539,750 503,750 Q467,750 441,775 Q416,801 416,837 Q416,873 441,898 Q467,923 503,923 Q539,923 564,898 Q590,873 590,837 Q590,801 564,775"/> 
            <glyph glyph-name="Å" unicode="&#xC5;" horiz-adv-x="771" d=" M200,0 L10,0 L304,704 L477,704 L771,0 L578,0 L519,148 L259,148 M389,479 L316,292 L462,292 M347,943 Q433,943 464,912 Q495,881 495,837 Q495,794 464,763 Q433,732 390,732 Q347,732 315,763 Q284,794 284,837 Q284,880 315,911 M434,837 Q435,864 412.5,875.5 Q390,887 367,875.5 Q344,864 345,837 Q345,819 358.5,806 Q372,793 390,793 Q408,793 421,806 Q434,819 434,837"/> 
            <glyph glyph-name="Æ" unicode="&#xC6;" horiz-adv-x="1035" d=" M1035,0 L505,0 L505,141 L274,141 L199,0 L3,0 L379,700 L1027,700 L1027,542 L685,542 L685,447 L955,447 L955,295 L685,295 L685,158 L1035,158 M488,546 L354,292 L505,292 L505,546"/> 
            <glyph glyph-name="Ç" unicode="&#xC7;" horiz-adv-x="627" d=" M450,-152 L246,-152 L358,-7 Q220,15 132,112 Q45,209 45,350 Q45,510 155,612 Q266,714 434,714 Q534,714 615,674 L615,497 Q533,548 436,548 Q348,548 289,492 Q230,436 230,350 Q230,262 290,207 Q351,152 443,152 Q553,152 627,208 L627,30 Q576,2 505,-8"/> 
            <glyph glyph-name="È" unicode="&#xC8;" horiz-adv-x="607" d=" M607,0 L67,0 L67,700 L599,700 L599,542 L247,542 L247,447 L527,447 L527,295 L247,295 L247,158 L607,158 M433,760 L286,760 L129,912 L338,912"/> 
            <glyph glyph-name="É" unicode="&#xC9;" horiz-adv-x="607" d=" M607,0 L67,0 L67,700 L599,700 L599,542 L247,542 L247,447 L527,447 L527,295 L247,295 L247,158 L607,158 M375,760 L228,760 L323,912 L532,912"/> 
            <glyph glyph-name="Ê" unicode="&#xCA;" horiz-adv-x="607" d=" M607,0 L67,0 L67,700 L599,700 L599,542 L247,542 L247,447 L527,447 L527,295 L247,295 L247,158 L607,158 M275,761 L128,761 L255,912 L422,912 L546,761 L396,761 L335,830"/> 
            <glyph glyph-name="Ë" unicode="&#xCB;" horiz-adv-x="607" d=" M607,0 L67,0 L67,700 L599,700 L599,542 L247,542 L247,447 L527,447 L527,295 L247,295 L247,158 L607,158 M221,750 Q186,750 160,775.5 Q134,801 134,837 Q134,873 159.5,898 Q185,923 221,923 Q258,923 283,898 Q308,873 308,837 Q308,801 283,775.5 Q258,750 221,750 M509,775 Q484,750 448,750 Q412,750 386,775 Q361,801 361,837 Q361,873 386,898 Q412,923 448,923 Q484,923 509,898 Q535,873 535,837 Q535,801 509,775"/> 
            <glyph glyph-name="Ì" unicode="&#xCC;" horiz-adv-x="251" d=" M251,0 L71,0 L71,700 L251,700 M238,760 L91,760 L-66,912 L143,912"/> 
            <glyph glyph-name="Í" unicode="&#xCD;" horiz-adv-x="393" d=" M251,0 L71,0 L71,700 L251,700 M236,760 L89,760 L184,912 L393,912"/> 
            <glyph glyph-name="Î" unicode="&#xCE;" horiz-adv-x="370" d=" M99,761 L-48,761 L79,912 L246,912 L370,761 L220,761 L159,830 M251,0 L71,0 L71,700 L251,700"/> 
            <glyph glyph-name="Ï" unicode="&#xCF;" horiz-adv-x="361" d=" M47,750 Q12,750 -14,775.5 Q-40,801 -40,837 Q-40,873 -14.5,898 Q11,923 47,923 Q84,923 109,898 Q134,873 134,837 Q134,801 109,775.5 Q84,750 47,750 M335,775 Q310,750 274,750 Q238,750 212,775 Q187,801 187,837 Q187,873 212,898 Q238,923 274,923 Q310,923 335,898 Q361,873 361,837 Q361,801 335,775 M250,0 L70,0 L70,700 L250,700"/> 
            <glyph glyph-name="Ð" unicode="&#xD0;" horiz-adv-x="791" d=" M125,296 L36,296 L36,445 L125,445 L125,700 L404,700 Q574,700 683,602 Q791,504 791,350 Q791,194 683,97 Q576,0 404,0 L125,0 M305,296 L305,158 L391,158 Q493,158 549,208 Q605,258 605,350 Q605,442 549,492 Q493,542 391,542 L305,542 L305,445 L431,445 L431,296"/> 
            <glyph glyph-name="Ñ" unicode="&#xD1;" horiz-adv-x="703" d=" M244,0 L67,0 L67,700 L221,700 L527,315 L527,700 L703,700 L703,0 L554,0 L244,387 M455,757 Q422,757 382,777 Q344,797 324,797 Q289,797 280,761 L191,761 Q191,824 226,870 Q260,916 317,916 Q349,916 387,896 Q425,877 447,877 Q482,877 491,912 L580,912 Q580,853 544,805 Q510,757 455,757"/> 
            <glyph glyph-name="Ò" unicode="&#xD2;" horiz-adv-x="783" d=" M282,208 Q335,152 414,152 Q492,152 545,208 Q598,264 598,350 Q598,436 545,492 Q492,548 414,548 Q335,548 282,492 Q230,437 230,350 Q230,263 282,208 M678,92 Q573,-14 414,-14 Q255,-14 150,92 Q45,198 45,350 Q45,502 150,608 Q255,714 414,714 Q573,714 678,608 Q783,502 783,350 Q783,198 678,92 M490,760 L343,760 L186,912 L395,912"/> 
            <glyph glyph-name="Ó" unicode="&#xD3;" horiz-adv-x="783" d=" M282,208 Q335,152 414,152 Q492,152 545,208 Q598,264 598,350 Q598,436 545,492 Q492,548 414,548 Q335,548 282,492 Q230,437 230,350 Q230,263 282,208 M678,92 Q573,-14 414,-14 Q255,-14 150,92 Q45,198 45,350 Q45,502 150,608 Q255,714 414,714 Q573,714 678,608 Q783,502 783,350 Q783,198 678,92 M479,760 L332,760 L427,912 L636,912"/> 
            <glyph glyph-name="Ô" unicode="&#xD4;" horiz-adv-x="783" d=" M282,208 Q335,152 414,152 Q492,152 545,208 Q598,264 598,350 Q598,436 545,492 Q492,548 414,548 Q335,548 282,492 Q230,437 230,350 Q230,263 282,208 M678,92 Q573,-14 414,-14 Q255,-14 150,92 Q45,198 45,350 Q45,502 150,608 Q255,714 414,714 Q573,714 678,608 Q783,502 783,350 Q783,198 678,92 M352,761 L205,761 L332,912 L499,912 L623,761 L473,761 L412,830"/> 
            <glyph glyph-name="Õ" unicode="&#xD5;" horiz-adv-x="783" d=" M282,208 Q335,152 414,152 Q492,152 545,208 Q598,264 598,350 Q598,436 545,492 Q492,548 414,548 Q335,548 282,492 Q230,437 230,350 Q230,263 282,208 M678,92 Q573,-14 414,-14 Q255,-14 150,92 Q45,198 45,350 Q45,502 150,608 Q255,714 414,714 Q573,714 678,608 Q783,502 783,350 Q783,198 678,92 M484,757 Q451,757 411,777 Q373,797 353,797 Q318,797 309,761 L220,761 Q220,824 255,870 Q289,916 346,916 Q378,916 416,896 Q454,877 476,877 Q511,877 520,912 L609,912 Q609,853 573,805 Q538,757 484,757"/> 
            <glyph glyph-name="Ö" unicode="&#xD6;" horiz-adv-x="783" d=" M282,208 Q335,152 414,152 Q492,152 545,208 Q598,264 598,350 Q598,436 545,492 Q492,548 414,548 Q335,548 282,492 Q230,437 230,350 Q230,263 282,208 M678,92 Q573,-14 414,-14 Q255,-14 150,92 Q45,198 45,350 Q45,502 150,608 Q255,714 414,714 Q573,714 678,608 Q783,502 783,350 Q783,198 678,92 M302,750 Q267,750 241,775.5 Q215,801 215,837 Q215,873 240.5,898 Q266,923 302,923 Q339,923 364,898 Q389,873 389,837 Q389,801 364,775.5 Q339,750 302,750 M590,775 Q565,750 529,750 Q493,750 467,775 Q442,801 442,837 Q442,873 467,898 Q493,923 529,923 Q565,923 590,898 Q616,873 616,837 Q616,801 590,775"/> 
            <glyph glyph-name="×" unicode="&#xD7;" horiz-adv-x="567" d=" M316,223 L177,83 L65,195 L205,334 L65,474 L177,586 L316,446 L456,586 L567,474 L428,334 L567,195 L456,83"/> 
            <glyph glyph-name="Ø" unicode="&#xD8;" horiz-adv-x="783" d=" M414,-14 Q308,-14 222,36 L192,0 L57,0 L141,102 Q45,204 45,350 Q45,502 150,608 Q255,714 414,714 Q516,714 605,664 L635,700 L770,700 L686,599 Q783,495 783,350 Q783,198 678,92 Q573,-14 414,-14 M257,242 L494,530 Q455,548 414,548 Q335,548 282,492 Q230,437 230,350 Q230,288 257,242 M414,152 Q492,152 545,208 Q598,264 598,350 Q598,412 570,458 L333,170 Q369,152 414,152"/> 
            <glyph glyph-name="Ù" unicode="&#xD9;" horiz-adv-x="672" d=" M58,293 L58,700 L238,700 L238,284 Q238,220 273,186 Q308,152 365,152 Q423,152 457.5,185.5 Q492,219 492,284 L492,700 L672,700 L672,293 Q672,147 585,66 Q497,-14 365,-14 Q233,-14 145,66 Q58,147 58,293 M443,760 L296,760 L139,912 L348,912"/> 
            <glyph glyph-name="Ú" unicode="&#xDA;" horiz-adv-x="672" d=" M58,293 L58,700 L238,700 L238,284 Q238,220 273,186 Q308,152 365,152 Q423,152 457.5,185.5 Q492,219 492,284 L492,700 L672,700 L672,293 Q672,147 585,66 Q497,-14 365,-14 Q233,-14 145,66 Q58,147 58,293 M433,760 L286,760 L381,912 L590,912"/> 
            <glyph glyph-name="Û" unicode="&#xDB;" horiz-adv-x="672" d=" M58,293 L58,700 L238,700 L238,284 Q238,220 273,186 Q308,152 365,152 Q423,152 457.5,185.5 Q492,219 492,284 L492,700 L672,700 L672,293 Q672,147 585,66 Q497,-14 365,-14 Q233,-14 145,66 Q58,147 58,293 M303,761 L156,761 L283,912 L450,912 L574,761 L424,761 L363,830"/> 
            <glyph glyph-name="Ü" unicode="&#xDC;" horiz-adv-x="672" d=" M58,293 L58,700 L238,700 L238,284 Q238,220 273,186 Q308,152 365,152 Q423,152 457.5,185.5 Q492,219 492,284 L492,700 L672,700 L672,293 Q672,147 585,66 Q497,-14 365,-14 Q233,-14 145,66 Q58,147 58,293 M253,750 Q218,750 192,775.5 Q166,801 166,837 Q166,873 191.5,898 Q217,923 253,923 Q290,923 315,898 Q340,873 340,837 Q340,801 315,775.5 Q290,750 253,750 M541,775 Q516,750 480,750 Q444,750 418,775 Q393,801 393,837 Q393,873 418,898 Q444,923 480,923 Q516,923 541,898 Q567,873 567,837 Q567,801 541,775"/> 
            <glyph glyph-name="Ý" unicode="&#xDD;" horiz-adv-x="723" d=" M454,0 L274,0 L274,310 L5,700 L210,700 L366,469 L523,700 L723,700 L454,314 M430,760 L283,760 L378,912 L587,912"/> 
            <glyph glyph-name="Þ" unicode="&#xDE;" horiz-adv-x="651" d=" M247,0 L67,0 L67,700 L247,700 L247,569 L396,569 Q514,569 582,508 Q651,446 651,350 Q651,252 582,191 Q514,130 396,130 L247,130 M247,417 L247,278 L381,278 Q421,278 445,296 Q469,314 469,346 Q469,380 447,398.5 Q425,417 386,417"/> 
            <glyph glyph-name="ß" unicode="&#xDF;" horiz-adv-x="605" d=" M387,-8 Q325,-8 297,3 L297,139 Q324,131 351,131 Q388,131 410.5,154 Q433,177 433,215 Q433,259 402.5,284.5 Q372,310 320,310 L303,310 L303,427 L319,427 Q354,427 372.5,445 Q391,463 391,494 Q391,525 371.5,542.5 Q352,560 320,560 Q283,560 260.5,535 Q238,510 238,464 L238,0 L61,0 L61,464 Q61,582 132,648 Q204,714 317,714 Q432,714 495,657 Q559,600 559,515 Q559,465 535,428.5 Q511,392 478,378 Q526,362 566,314 Q605,268 605,196 Q605,98 545.5,45 Q486,-8 387,-8"/> 
            <glyph glyph-name="à" unicode="&#xE0;" horiz-adv-x="581" d=" M205,-13 Q123,-13 71,34 Q20,80 20,156 Q21,237 81,279.5 Q141,322 218,320 Q293,320 347,294 L347,301 Q347,356 305,370 Q272,382 229,382 Q148,382 81,345 L81,484 Q159,521 272,521 Q383,521 453,465 Q522,410 522,316 L522,162 Q522,135 552,135 Q570,135 581,141 L581,15 Q547,-11 491,-11 Q401,-11 367,47 Q306,-13 205,-13 M265,106 Q318,106 347,150 L347,203 Q318,225 273,225 Q239,225 216.5,208 Q194,191 194,164 Q194,138 214,122 Q234,106 265,106 M387,576 L240,576 L83,728 L292,728"/> 
            <glyph glyph-name="á" unicode="&#xE1;" horiz-adv-x="581" d=" M205,-13 Q123,-13 71,34 Q20,80 20,156 Q21,237 81,279.5 Q141,322 218,320 Q293,320 347,294 L347,301 Q347,356 305,370 Q272,382 229,382 Q148,382 81,345 L81,484 Q159,521 272,521 Q383,521 453,465 Q522,410 522,316 L522,162 Q522,135 552,135 Q570,135 581,141 L581,15 Q547,-11 491,-11 Q401,-11 367,47 Q306,-13 205,-13 M265,106 Q318,106 347,150 L347,203 Q318,225 273,225 Q239,225 216.5,208 Q194,191 194,164 Q194,138 214,122 Q234,106 265,106 M330,576 L183,576 L278,728 L487,728"/> 
            <glyph glyph-name="â" unicode="&#xE2;" horiz-adv-x="581" d=" M205,-13 Q123,-13 71,34 Q20,80 20,156 Q21,237 81,279.5 Q141,322 218,320 Q293,320 347,294 L347,301 Q347,356 305,370 Q272,382 229,382 Q148,382 81,345 L81,484 Q159,521 272,521 Q383,521 453,465 Q522,410 522,316 L522,162 Q522,135 552,135 Q570,135 581,141 L581,15 Q547,-11 491,-11 Q401,-11 367,47 Q306,-13 205,-13 M265,106 Q318,106 347,150 L347,203 Q318,225 273,225 Q239,225 216.5,208 Q194,191 194,164 Q194,138 214,122 Q234,106 265,106 M233,577 L86,577 L213,728 L380,728 L504,577 L354,577 L293,646"/> 
            <glyph glyph-name="ã" unicode="&#xE3;" horiz-adv-x="581" d=" M205,-13 Q123,-13 71,34 Q20,80 20,156 Q21,237 81,279.5 Q141,322 218,320 Q293,320 347,294 L347,301 Q347,356 305,370 Q272,382 229,382 Q148,382 81,345 L81,484 Q159,521 272,521 Q383,521 453,465 Q522,410 522,316 L522,162 Q522,135 552,135 Q570,135 581,141 L581,15 Q547,-11 491,-11 Q401,-11 367,47 Q306,-13 205,-13 M265,106 Q318,106 347,150 L347,203 Q318,225 273,225 Q239,225 216.5,208 Q194,191 194,164 Q194,138 214,122 Q234,106 265,106 M378,573 Q345,573 305,593 Q267,613 247,613 Q212,613 203,577 L114,577 Q114,640 149,686 Q183,732 240,732 Q272,732 310,712 Q348,693 370,693 Q405,693 414,728 L503,728 Q503,669 467,621 Q432,573 378,573"/> 
            <glyph glyph-name="ä" unicode="&#xE4;" horiz-adv-x="581" d=" M205,-13 Q123,-13 71,34 Q20,80 20,156 Q21,237 81,279.5 Q141,322 218,320 Q293,320 347,294 L347,301 Q347,356 305,370 Q272,382 229,382 Q148,382 81,345 L81,484 Q159,521 272,521 Q383,521 453,465 Q522,410 522,316 L522,162 Q522,135 552,135 Q570,135 581,141 L581,15 Q547,-11 491,-11 Q401,-11 367,47 Q306,-13 205,-13 M265,106 Q318,106 347,150 L347,203 Q318,225 273,225 Q239,225 216.5,208 Q194,191 194,164 Q194,138 214,122 Q234,106 265,106 M167,566 Q132,566 106,591.5 Q80,617 80,653 Q80,689 105.5,714 Q131,739 167,739 Q204,739 229,714 Q254,689 254,653 Q254,617 229,591.5 Q204,566 167,566 M455,591 Q430,566 394,566 Q358,566 332,591 Q307,617 307,653 Q307,689 332,714 Q358,739 394,739 Q430,739 455,714 Q481,689 481,653 Q481,617 455,591"/> 
            <glyph glyph-name="å" unicode="&#xE5;" horiz-adv-x="581" d=" M205,-13 Q123,-13 71,34 Q20,80 20,156 Q21,237 81,279.5 Q141,322 218,320 Q293,320 347,294 L347,301 Q347,356 305,370 Q272,382 229,382 Q148,382 81,345 L81,484 Q159,521 272,521 Q383,521 453,465 Q522,410 522,316 L522,162 Q522,135 552,135 Q570,135 581,141 L581,15 Q547,-11 491,-11 Q401,-11 367,47 Q306,-13 205,-13 M265,106 Q318,106 347,150 L347,203 Q318,225 273,225 Q239,225 216.5,208 Q194,191 194,164 Q194,138 214,122 Q234,106 265,106 M174,652 Q174,696 205,727 Q236,758 280,758 Q323,758 354,727 Q385,696 385,652 Q385,609 354,578 Q323,547 280,547 Q237,547 205.5,578 Q174,609 174,652 M324,652 Q325,679 302.5,690.5 Q280,702 257,690.5 Q234,679 235,652 Q235,634 248.5,621 Q262,608 280,608 Q298,608 311,621 Q324,634 324,652"/> 
            <glyph glyph-name="æ" unicode="&#xE6;" horiz-adv-x="854" d=" M210,-13 Q125,-13 72,34 Q20,80 20,156 Q21,237 81,279.5 Q141,322 218,320 Q293,320 347,294 L347,301 Q347,356 305,370 Q272,382 229,382 Q148,382 81,345 L81,484 Q159,521 267,521 Q376,521 440,457 Q507,521 609,521 Q718,521 785,446 Q854,373 854,255 L854,211 L514,211 Q525,173 565,152.5 Q605,132 662,132 Q745,132 825,176 L825,40 Q752,-13 623,-13 Q492,-13 412,68 Q332,-13 210,-13 M265,106 Q324,106 358,155 Q350,176 344,205 Q313,225 273,225 Q239,225 216.5,208 Q194,191 194,164 Q194,138 214,122 Q234,106 265,106 M513,305 L681,305 Q680,343 657,367 Q634,391 601,391 Q566,391 542,368 Q518,345 513,305"/> 
            <glyph glyph-name="ç" unicode="&#xE7;" horiz-adv-x="467" d=" M344,-152 L140,-152 L252,-8 Q158,8 93,78 Q29,146 29,255 Q29,380 113,450 Q198,521 310,521 Q395,521 460,490 L460,342 Q397,368 338,368 Q280,368 241.5,337 Q203,306 203,254 Q203,202 241,170.5 Q279,139 337,139 Q410,139 467,169 L467,22 Q433,6 402,-2"/> 
            <glyph glyph-name="è" unicode="&#xE8;" horiz-adv-x="543" d=" M312,-13 Q194,-13 111,59 Q29,132 29,254 Q29,367 103,444 Q177,521 298,521 Q407,521 474,446 Q543,373 543,255 L543,211 L203,211 Q214,173 254,152.5 Q294,132 351,132 Q434,132 514,176 L514,40 Q441,-13 312,-13 M202,305 L370,305 Q369,343 346,367 Q323,391 290,391 Q255,391 231,368 Q207,345 202,305 M404,576 L257,576 L100,728 L309,728"/> 
            <glyph glyph-name="é" unicode="&#xE9;" horiz-adv-x="543" d=" M312,-13 Q194,-13 111,59 Q29,132 29,254 Q29,367 103,444 Q177,521 298,521 Q407,521 474,446 Q543,373 543,255 L543,211 L203,211 Q214,173 254,152.5 Q294,132 351,132 Q434,132 514,176 L514,40 Q441,-13 312,-13 M202,305 L370,305 Q369,343 346,367 Q323,391 290,391 Q255,391 231,368 Q207,345 202,305 M328,576 L181,576 L276,728 L485,728"/> 
            <glyph glyph-name="ê" unicode="&#xEA;" horiz-adv-x="543" d=" M312,-13 Q194,-13 111,59 Q29,132 29,254 Q29,367 103,444 Q177,521 298,521 Q407,521 474,446 Q543,373 543,255 L543,211 L203,211 Q214,173 254,152.5 Q294,132 351,132 Q434,132 514,176 L514,40 Q441,-13 312,-13 M202,305 L370,305 Q369,343 346,367 Q323,391 290,391 Q255,391 231,368 Q207,345 202,305 M225,577 L78,577 L205,728 L372,728 L496,577 L346,577 L285,646"/> 
            <glyph glyph-name="ë" unicode="&#xEB;" horiz-adv-x="543" d=" M312,-13 Q194,-13 111,59 Q29,132 29,254 Q29,367 103,444 Q177,521 298,521 Q407,521 474,446 Q543,373 543,255 L543,211 L203,211 Q214,173 254,152.5 Q294,132 351,132 Q434,132 514,176 L514,40 Q441,-13 312,-13 M202,305 L370,305 Q369,343 346,367 Q323,391 290,391 Q255,391 231,368 Q207,345 202,305 M176,566 Q141,566 115,591.5 Q89,617 89,653 Q89,689 114.5,714 Q140,739 176,739 Q213,739 238,714 Q263,689 263,653 Q263,617 238,591.5 Q213,566 176,566 M464,591 Q439,566 403,566 Q367,566 341,591 Q316,617 316,653 Q316,689 341,714 Q367,739 403,739 Q439,739 464,714 Q490,689 490,653 Q490,617 464,591"/> 
            <glyph glyph-name="ì" unicode="&#xEC;" horiz-adv-x="227" d=" M227,0 L50,0 L50,508 L227,508 M214,576 L67,576 L-90,728 L119,728"/> 
            <glyph glyph-name="í" unicode="&#xED;" horiz-adv-x="364" d=" M208,577 L62,577 L157,728 L364,728 M227,0 L50,0 L50,508 L227,508"/> 
            <glyph glyph-name="î" unicode="&#xEE;" horiz-adv-x="347" d=" M76,577 L-71,577 L56,728 L223,728 L347,577 L197,577 L136,646 M227,0 L50,0 L50,508 L227,508"/> 
            <glyph glyph-name="ï" unicode="&#xEF;" horiz-adv-x="341" d=" M27,566 Q-8,566 -34,591.5 Q-60,617 -60,653 Q-60,689 -34.5,714 Q-9,739 27,739 Q64,739 89,714 Q114,689 114,653 Q114,617 89,591.5 Q64,566 27,566 M315,591 Q290,566 254,566 Q218,566 192,591 Q167,617 167,653 Q167,689 192,714 Q218,739 254,739 Q290,739 315,714 Q341,689 341,653 Q341,617 315,591 M227,0 L50,0 L50,508 L227,508"/> 
            <glyph glyph-name="ð" unicode="&#xF0;" horiz-adv-x="578" d=" M29,233 Q29,334 91,396 Q153,458 249,458 Q298,458 336,443 L265,529 L151,487 L88,568 L199,609 L123,700 L313,700 L344,662 L439,697 L502,616 L407,581 L463,511 Q525,435 552,374 Q578,317 578,247 Q578,137 500,62 Q422,-13 303,-13 Q185,-13 106,58 Q29,130 29,233 M203,194 Q259,138 303,138 Q346,138 374,166 Q403,195 403,237 Q403,278 374,307 Q345,336 303,336 Q260,336 231,307 Q203,279 203,237"/> 
            <glyph glyph-name="ñ" unicode="&#xF1;" horiz-adv-x="573" d=" M61,0 L61,508 L238,508 L238,451 Q304,521 392,521 Q476,521 524.5,464.5 Q573,408 573,312 L573,0 L396,0 L396,279 Q396,322 376,342.5 Q356,363 323,363 Q271,363 238,318 L238,0 M387,573 Q354,573 314,593 Q276,613 256,613 Q221,613 212,577 L123,577 Q123,640 158,686 Q192,732 249,732 Q281,732 319,712 Q357,693 379,693 Q414,693 423,728 L512,728 Q512,669 476,621 Q442,573 387,573"/> 
            <glyph glyph-name="ò" unicode="&#xF2;" horiz-adv-x="601" d=" M427,254 Q427,303 395,336.5 Q363,370 315,370 Q267,370 235,336.5 Q203,303 203,254 Q203,204 234.5,171 Q266,138 315,138 Q364,138 395.5,171 Q427,204 427,254 M520,63 Q440,-13 315,-13 Q190,-13 110,63 Q29,139 29,254 Q29,368 110,444 Q192,521 315,521 Q438,521 520,444 Q601,368 601,254 Q601,139 520,63 M396,576 L249,576 L92,728 L301,728"/> 
            <glyph glyph-name="ó" unicode="&#xF3;" horiz-adv-x="601" d=" M427,254 Q427,303 395,336.5 Q363,370 315,370 Q267,370 235,336.5 Q203,303 203,254 Q203,204 234.5,171 Q266,138 315,138 Q364,138 395.5,171 Q427,204 427,254 M520,63 Q440,-13 315,-13 Q190,-13 110,63 Q29,139 29,254 Q29,368 110,444 Q192,521 315,521 Q438,521 520,444 Q601,368 601,254 Q601,139 520,63 M379,576 L232,576 L327,728 L536,728"/> 
            <glyph glyph-name="ô" unicode="&#xF4;" horiz-adv-x="601" d=" M427,254 Q427,303 395,336.5 Q363,370 315,370 Q267,370 235,336.5 Q203,303 203,254 Q203,204 234.5,171 Q266,138 315,138 Q364,138 395.5,171 Q427,204 427,254 M520,63 Q440,-13 315,-13 Q190,-13 110,63 Q29,139 29,254 Q29,368 110,444 Q192,521 315,521 Q438,521 520,444 Q601,368 601,254 Q601,139 520,63 M253,577 L106,577 L233,728 L400,728 L524,577 L374,577 L313,646"/> 
            <glyph glyph-name="õ" unicode="&#xF5;" horiz-adv-x="601" d=" M427,254 Q427,303 395,336.5 Q363,370 315,370 Q267,370 235,336.5 Q203,303 203,254 Q203,204 234.5,171 Q266,138 315,138 Q364,138 395.5,171 Q427,204 427,254 M520,63 Q440,-13 315,-13 Q190,-13 110,63 Q29,139 29,254 Q29,368 110,444 Q192,521 315,521 Q438,521 520,444 Q601,368 601,254 Q601,139 520,63 M385,573 Q352,573 312,593 Q274,613 254,613 Q219,613 210,577 L121,577 Q121,640 156,686 Q190,732 247,732 Q279,732 317,712 Q355,693 377,693 Q412,693 421,728 L510,728 Q510,669 474,621 Q440,573 385,573"/> 
            <glyph glyph-name="ö" unicode="&#xF6;" horiz-adv-x="601" d=" M427,254 Q427,303 395,336.5 Q363,370 315,370 Q267,370 235,336.5 Q203,303 203,254 Q203,204 234.5,171 Q266,138 315,138 Q364,138 395.5,171 Q427,204 427,254 M520,63 Q440,-13 315,-13 Q190,-13 110,63 Q29,139 29,254 Q29,368 110,444 Q192,521 315,521 Q438,521 520,444 Q601,368 601,254 Q601,139 520,63 M202,566 Q167,566 141,591.5 Q115,617 115,653 Q115,689 140.5,714 Q166,739 202,739 Q239,739 264,714 Q289,689 289,653 Q289,617 264,591.5 Q239,566 202,566 M490,591 Q465,566 429,566 Q393,566 367,591 Q342,617 342,653 Q342,689 367,714 Q393,739 429,739 Q465,739 490,714 Q516,689 516,653 Q516,617 490,591"/> 
            <glyph glyph-name="÷" unicode="&#xF7;" horiz-adv-x="589" d=" M222,93 Q222,137 253,168 Q284,199 328,199 Q372,199 402.5,168 Q433,137 433,93 Q433,50 402,19 Q372,-12 328,-12 Q284,-12 253,19 Q222,50 222,93 M589,251 L65,251 L65,407 L589,407 M222,564 Q222,608 253,639 Q284,670 328,670 Q372,670 402.5,639 Q433,608 433,564 Q433,520 402.5,489.5 Q372,459 328,459 Q284,459 253,490 Q222,521 222,564"/> 
            <glyph glyph-name="ø" unicode="&#xF8;" horiz-adv-x="601" d=" M315,-13 Q239,-13 172,19 L152,-4 L31,-4 L99,74 Q29,148 29,254 Q29,368 110,444 Q192,521 315,521 Q392,521 457,488 L478,512 L599,512 L531,433 Q601,359 601,254 Q601,139 520,63 Q440,-13 315,-13 M212,205 L350,364 Q333,370 315,370 Q267,370 235,336.5 Q203,303 203,254 Q203,226 212,205 M315,138 Q364,138 395.5,171 Q427,204 427,254 Q427,281 417,302 L279,143 Q294,138 315,138"/> 
            <glyph glyph-name="ù" unicode="&#xF9;" horiz-adv-x="564" d=" M408,576 L261,576 L104,728 L313,728 M233,-13 Q149,-13 100.5,43.5 Q52,100 52,196 L52,508 L229,508 L229,229 Q229,186 249,165.5 Q269,145 302,145 Q354,145 387,190 L387,508 L564,508 L564,0 L387,0 L387,57 Q321,-13 233,-13"/> 
            <glyph glyph-name="ú" unicode="&#xFA;" horiz-adv-x="564" d=" M358,576 L211,576 L306,728 L515,728 M233,-13 Q149,-13 100.5,43.5 Q52,100 52,196 L52,508 L229,508 L229,229 Q229,186 249,165.5 Q269,145 302,145 Q354,145 387,190 L387,508 L564,508 L564,0 L387,0 L387,57 Q321,-13 233,-13"/> 
            <glyph glyph-name="û" unicode="&#xFB;" horiz-adv-x="564" d=" M233,-13 Q149,-13 100.5,43.5 Q52,100 52,196 L52,508 L229,508 L229,229 Q229,186 249,165.5 Q269,145 302,145 Q354,145 387,190 L387,508 L564,508 L564,0 L387,0 L387,57 Q321,-13 233,-13 M246,577 L99,577 L226,728 L393,728 L517,577 L367,577 L306,646"/> 
            <glyph glyph-name="ü" unicode="&#xFC;" horiz-adv-x="564" d=" M233,-13 Q149,-13 100.5,43.5 Q52,100 52,196 L52,508 L229,508 L229,229 Q229,186 249,165.5 Q269,145 302,145 Q354,145 387,190 L387,508 L564,508 L564,0 L387,0 L387,57 Q321,-13 233,-13 M196,566 Q161,566 135,591.5 Q109,617 109,653 Q109,689 134.5,714 Q160,739 196,739 Q233,739 258,714 Q283,689 283,653 Q283,617 258,591.5 Q233,566 196,566 M484,591 Q459,566 423,566 Q387,566 361,591 Q336,617 336,653 Q336,689 361,714 Q387,739 423,739 Q459,739 484,714 Q510,689 510,653 Q510,617 484,591"/> 
            <glyph glyph-name="ý" unicode="&#xFD;" horiz-adv-x="601" d=" M163,-206 Q99,-206 50,-183 L50,-31 Q88,-55 132,-55 Q166,-55 188,-38.5 Q210,-22 226,17 L10,508 L198,508 L311,202 L417,508 L601,508 L374,-51 Q311,-206 163,-206 M367,576 L220,576 L315,728 L524,728"/> 
            <glyph glyph-name="þ" unicode="&#xFE;" horiz-adv-x="622" d=" M238,-200 L61,-200 L61,700 L238,700 L238,451 Q290,521 390,521 Q490,521 556,444 Q622,367 622,254 Q622,140 556,63 Q490,-13 390,-13 Q292,-13 238,57 M339,137 Q386,137 416,170 Q446,203 446,254 Q446,305 416,338 Q386,371 339,371 Q272,371 238,317 L238,191 Q272,137 339,137"/> 
            <glyph glyph-name="ÿ" unicode="&#xFF;" horiz-adv-x="601" d=" M163,-206 Q99,-206 50,-183 L50,-31 Q88,-55 132,-55 Q166,-55 188,-38.5 Q210,-22 226,17 L10,508 L198,508 L311,202 L417,508 L601,508 L374,-51 Q311,-206 163,-206 M193,566 Q158,566 132,591.5 Q106,617 106,653 Q106,689 131.5,714 Q157,739 193,739 Q230,739 255,714 Q280,689 280,653 Q280,617 255,591.5 Q230,566 193,566 M481,591 Q456,566 420,566 Q384,566 358,591 Q333,617 333,653 Q333,689 358,714 Q384,739 420,739 Q456,739 481,714 Q507,689 507,653 Q507,617 481,591"/> 
            <glyph glyph-name="Ā" unicode="&#x100;" horiz-adv-x="771" d=" M200,0 L10,0 L304,704 L477,704 L771,0 L578,0 L519,148 L259,148 M389,479 L316,292 L462,292 M556,776 L222,776 L222,892 L556,892"/> 
            <glyph glyph-name="ā" unicode="&#x101;" horiz-adv-x="581" d=" M205,-13 Q123,-13 71,34 Q20,80 20,156 Q21,237 81,279.5 Q141,322 218,320 Q293,320 347,294 L347,301 Q347,356 305,370 Q272,382 229,382 Q148,382 81,345 L81,484 Q159,521 272,521 Q383,521 453,465 Q522,410 522,316 L522,162 Q522,135 552,135 Q570,135 581,141 L581,15 Q547,-11 491,-11 Q401,-11 367,47 Q306,-13 205,-13 M265,106 Q318,106 347,150 L347,203 Q318,225 273,225 Q239,225 216.5,208 Q194,191 194,164 Q194,138 214,122 Q234,106 265,106 M455,592 L121,592 L121,708 L455,708"/> 
            <glyph glyph-name="Ă" unicode="&#x102;" horiz-adv-x="771" d=" M200,0 L10,0 L304,704 L477,704 L771,0 L578,0 L519,148 L259,148 M389,479 L316,292 L462,292 M213,916 L325,916 Q328,886 346,867.5 Q364,849 391,849 Q419,849 436.5,867.5 Q454,886 456,916 L568,916 Q565,837 516,791 Q467,745 391,745 Q317,745 266,790 Q216,837 213,916"/> 
            <glyph glyph-name="ă" unicode="&#x103;" horiz-adv-x="581" d=" M205,-13 Q123,-13 71,34 Q20,80 20,156 Q21,237 81,279.5 Q141,322 218,320 Q293,320 347,294 L347,301 Q347,356 305,370 Q272,382 229,382 Q148,382 81,345 L81,484 Q159,521 272,521 Q383,521 453,465 Q522,410 522,316 L522,162 Q522,135 552,135 Q570,135 581,141 L581,15 Q547,-11 491,-11 Q401,-11 367,47 Q306,-13 205,-13 M265,106 Q318,106 347,150 L347,203 Q318,225 273,225 Q239,225 216.5,208 Q194,191 194,164 Q194,138 214,122 Q234,106 265,106 M104,732 L216,732 Q219,702 237,683.5 Q255,665 282,665 Q310,665 327.5,683.5 Q345,702 347,732 L459,732 Q456,653 407,607 Q358,561 282,561 Q208,561 157,606 Q107,653 104,732"/> 
            <glyph glyph-name="Ą" unicode="&#x104;" horiz-adv-x="818" d=" M753,-206 Q690,-206 653,-176.5 Q616,-147 616,-100 Q616,-44 664,0 L578,0 L519,148 L259,148 L200,0 L10,0 L304,700 L477,700 L771,0 Q738,-33 738,-64 Q738,-101 783,-101 Q805,-101 818,-94 L818,-197 Q794,-206 753,-206 M389,475 L316,292 L462,292"/> 
            <glyph glyph-name="ą" unicode="&#x105;" horiz-adv-x="617" d=" M552,-206 Q489,-206 452,-176.5 Q415,-147 415,-100 Q415,-49 455,-8 Q393,3 367,47 Q306,-13 205,-13 Q123,-13 71,34 Q20,80 20,156 Q21,237 81,279.5 Q141,322 218,320 Q293,320 347,294 L347,301 Q347,356 305,370 Q272,382 229,382 Q148,382 81,345 L81,484 Q159,521 272,521 Q383,521 453,465 Q522,410 522,316 L522,162 Q522,135 552,135 Q570,135 581,141 L581,15 Q537,-34 537,-64 Q537,-101 582,-101 Q604,-101 617,-94 L617,-197 Q593,-206 552,-206 M265,106 Q318,106 347,150 L347,203 Q318,225 273,225 Q239,225 216.5,208 Q194,191 194,164 Q194,138 214,122 Q234,106 265,106"/> 
            <glyph glyph-name="Ć" unicode="&#x106;" horiz-adv-x="627" d=" M435,-14 Q267,-14 156,88 Q45,190 45,350 Q45,510 155,612 Q266,714 434,714 Q534,714 615,674 L615,497 Q533,548 436,548 Q348,548 289,492 Q230,436 230,350 Q230,262 290,207 Q351,152 443,152 Q553,152 627,208 L627,30 Q541,-14 435,-14 M445,760 L298,760 L393,912 L602,912"/> 
            <glyph glyph-name="ć" unicode="&#x107;" horiz-adv-x="475" d=" M308,-13 Q196,-13 112,59 Q29,131 29,255 Q29,380 113,450 Q198,521 310,521 Q395,521 460,490 L460,342 Q397,368 338,368 Q280,368 241.5,337 Q203,306 203,254 Q203,202 241,170.5 Q279,139 337,139 Q410,139 467,169 L467,22 Q392,-13 308,-13 M318,576 L171,576 L266,728 L475,728"/> 
            <glyph glyph-name="Ĉ" unicode="&#x108;" horiz-adv-x="627" d=" M435,-14 Q267,-14 156,88 Q45,190 45,350 Q45,510 155,612 Q266,714 434,714 Q534,714 615,674 L615,497 Q533,548 436,548 Q348,548 289,492 Q230,436 230,350 Q230,262 290,207 Q351,152 443,152 Q553,152 627,208 L627,30 Q541,-14 435,-14 M328,761 L181,761 L308,912 L475,912 L599,761 L449,761 L388,830"/> 
            <glyph glyph-name="ĉ" unicode="&#x109;" horiz-adv-x="494" d=" M308,-13 Q196,-13 112,59 Q29,131 29,255 Q29,380 113,450 Q198,521 310,521 Q395,521 460,490 L460,342 Q397,368 338,368 Q280,368 241.5,337 Q203,306 203,254 Q203,202 241,170.5 Q279,139 337,139 Q410,139 467,169 L467,22 Q392,-13 308,-13 M223,577 L76,577 L203,728 L370,728 L494,577 L344,577 L283,646"/> 
            <glyph glyph-name="Ċ" unicode="&#x10A;" horiz-adv-x="627" d=" M435,-14 Q267,-14 156,88 Q45,190 45,350 Q45,510 155,612 Q266,714 434,714 Q534,714 615,674 L615,497 Q533,548 436,548 Q348,548 289,492 Q230,436 230,350 Q230,262 290,207 Q351,152 443,152 Q553,152 627,208 L627,30 Q541,-14 435,-14 M406,750 Q371,750 345,775.5 Q319,801 319,837 Q319,873 344.5,898 Q370,923 406,923 Q443,923 468,898 Q493,873 493,837 Q493,801 468,775.5 Q443,750 406,750"/> 
            <glyph glyph-name="ċ" unicode="&#x10B;" horiz-adv-x="467" d=" M308,-13 Q196,-13 112,59 Q29,131 29,255 Q29,380 113,450 Q198,521 310,521 Q395,521 460,490 L460,342 Q397,368 338,368 Q280,368 241.5,337 Q203,306 203,254 Q203,202 241,170.5 Q279,139 337,139 Q410,139 467,169 L467,22 Q392,-13 308,-13 M294,566 Q259,566 233,591.5 Q207,617 207,653 Q207,689 232.5,714 Q258,739 294,739 Q331,739 356,714 Q381,689 381,653 Q381,617 356,591.5 Q331,566 294,566"/> 
            <glyph glyph-name="Č" unicode="&#x10C;" horiz-adv-x="627" d=" M435,-14 Q267,-14 156,88 Q45,190 45,350 Q45,510 155,612 Q266,714 434,714 Q534,714 615,674 L615,497 Q533,548 436,548 Q348,548 289,492 Q230,436 230,350 Q230,262 290,207 Q351,152 443,152 Q553,152 627,208 L627,30 Q541,-14 435,-14 M476,761 L309,761 L185,912 L335,912 L396,843 L456,912 L603,912"/> 
            <glyph glyph-name="č" unicode="&#x10D;" horiz-adv-x="485" d=" M308,-13 Q196,-13 112,59 Q29,131 29,255 Q29,380 113,450 Q198,521 310,521 Q395,521 460,490 L460,342 Q397,368 338,368 Q280,368 241.5,337 Q203,306 203,254 Q203,202 241,170.5 Q279,139 337,139 Q410,139 467,169 L467,22 Q392,-13 308,-13 M358,576 L191,576 L67,727 L217,727 L278,658 L338,727 L485,727"/> 
            <glyph glyph-name="Ď" unicode="&#x10E;" horiz-adv-x="733" d=" M346,0 L67,0 L67,700 L346,700 Q516,700 625,602 Q733,504 733,350 Q733,194 625,97 Q518,0 346,0 M247,542 L247,158 L333,158 Q435,158 491,208 Q547,258 547,350 Q547,442 491,492 Q435,542 333,542 M434,761 L267,761 L143,912 L293,912 L354,843 L414,912 L561,912"/> 
            <glyph glyph-name="ď" unicode="&#x10F;" horiz-adv-x="859" d=" M361,-13 Q161,-13 95,63 Q29,140 29,254 Q29,368 95,444 Q161,521 261,521 Q359,521 413,451 L413,700 L590,700 L590,0 L413,0 L413,57 M312,137 Q378,137 413,191 L413,317 Q378,371 312,371 Q265,371 235,338 Q205,305 205,254 Q205,203 235,170 Q265,137 312,137 M775,482 L645,482 L705,700 L859,700"/> 
            <glyph glyph-name="Đ" unicode="&#x110;" horiz-adv-x="791" d=" M125,296 L36,296 L36,445 L125,445 L125,700 L404,700 Q574,700 683,602 Q791,504 791,350 Q791,194 683,97 Q576,0 404,0 L125,0 M305,296 L305,158 L391,158 Q493,158 549,208 Q605,258 605,350 Q605,442 549,492 Q493,542 391,542 L305,542 L305,445 L431,445 L431,296"/> 
            <glyph glyph-name="đ" unicode="&#x111;" horiz-adv-x="682" d=" M260,-13 Q160,-13 94,63 Q29,140 29,254 Q29,368 94,445 Q160,521 260,521 Q354,521 415,451 L415,571 L294,571 L294,646 L415,646 L415,700 L592,700 L592,646 L682,646 L682,571 L592,571 L592,0 L415,0 L415,57 Q354,-13 260,-13 M314,137 Q381,137 415,192 L415,316 Q381,371 314,371 Q267,371 236.5,337.5 Q206,304 206,254 Q206,204 236.5,170.5 Q267,137 314,137"/> 
            <glyph glyph-name="Ē" unicode="&#x112;" horiz-adv-x="607" d=" M607,0 L67,0 L67,700 L599,700 L599,542 L247,542 L247,447 L527,447 L527,295 L247,295 L247,158 L607,158 M504,776 L170,776 L170,892 L504,892"/> 
            <glyph glyph-name="ē" unicode="&#x113;" horiz-adv-x="543" d=" M312,-13 Q194,-13 111,59 Q29,132 29,254 Q29,367 103,444 Q177,521 298,521 Q407,521 474,446 Q543,373 543,255 L543,211 L203,211 Q214,173 254,152.5 Q294,132 351,132 Q434,132 514,176 L514,40 Q441,-13 312,-13 M202,305 L370,305 Q369,343 346,367 Q323,391 290,391 Q255,391 231,368 Q207,345 202,305 M454,592 L120,592 L120,708 L454,708"/> 
            <glyph glyph-name="Ĕ" unicode="&#x114;" horiz-adv-x="607" d=" M607,0 L67,0 L67,700 L599,700 L599,542 L247,542 L247,447 L527,447 L527,295 L247,295 L247,158 L607,158 M160,916 L272,916 Q275,886 293,867.5 Q311,849 338,849 Q366,849 383.5,867.5 Q401,886 403,916 L515,916 Q512,837 463,791 Q414,745 338,745 Q264,745 213,790 Q163,837 160,916"/> 
            <glyph glyph-name="ĕ" unicode="&#x115;" horiz-adv-x="543" d=" M312,-13 Q194,-13 111,59 Q29,132 29,254 Q29,367 103,444 Q177,521 298,521 Q407,521 474,446 Q543,373 543,255 L543,211 L203,211 Q214,173 254,152.5 Q294,132 351,132 Q434,132 514,176 L514,40 Q441,-13 312,-13 M202,305 L370,305 Q369,343 346,367 Q323,391 290,391 Q255,391 231,368 Q207,345 202,305 M110,732 L222,732 Q225,702 243,683.5 Q261,665 288,665 Q316,665 333.5,683.5 Q351,702 353,732 L465,732 Q462,653 413,607 Q364,561 288,561 Q214,561 163,606 Q113,653 110,732"/> 
            <glyph glyph-name="Ė" unicode="&#x116;" horiz-adv-x="607" d=" M607,0 L67,0 L67,700 L599,700 L599,542 L247,542 L247,447 L527,447 L527,295 L247,295 L247,158 L607,158 M336,750 Q301,750 275,775.5 Q249,801 249,837 Q249,873 274.5,898 Q300,923 336,923 Q373,923 398,898 Q423,873 423,837 Q423,801 398,775.5 Q373,750 336,750"/> 
            <glyph glyph-name="ė" unicode="&#x117;" horiz-adv-x="543" d=" M312,-13 Q194,-13 111,59 Q29,132 29,254 Q29,367 103,444 Q177,521 298,521 Q407,521 474,446 Q543,373 543,255 L543,211 L203,211 Q214,173 254,152.5 Q294,132 351,132 Q434,132 514,176 L514,40 Q441,-13 312,-13 M202,305 L370,305 Q369,343 346,367 Q323,391 290,391 Q255,391 231,368 Q207,345 202,305 M286,566 Q251,566 225,591.5 Q199,617 199,653 Q199,689 224.5,714 Q250,739 286,739 Q323,739 348,714 Q373,689 373,653 Q373,617 348,591.5 Q323,566 286,566"/> 
            <glyph glyph-name="Ę" unicode="&#x118;" horiz-adv-x="654" d=" M500,0 L67,0 L67,700 L599,700 L599,542 L247,542 L247,447 L527,447 L527,295 L247,295 L247,158 L607,158 L607,0 Q574,-33 574,-64 Q574,-101 619,-101 Q641,-101 654,-94 L654,-197 Q630,-206 589,-206 Q526,-206 489,-176.5 Q452,-147 452,-100 Q452,-44 500,0"/> 
            <glyph glyph-name="ę" unicode="&#x119;" horiz-adv-x="543" d=" M434,-206 Q371,-206 334,-177 Q297,-148 297,-102 Q297,-50 341,-12 Q338,-12 327,-12.5 Q316,-13 312,-13 Q194,-13 111,59 Q29,132 29,254 Q29,367 103,444 Q177,521 298,521 Q407,521 474,446 Q543,373 543,255 L543,211 L203,211 Q214,172 254.5,152 Q295,132 355,132 Q434,132 514,176 L514,40 Q513,39 504.5,33.5 Q496,28 483.5,19.5 Q471,11 462,4 Q419,-27 419,-64 Q419,-101 464,-101 Q486,-101 499,-94 L499,-197 Q475,-206 434,-206 M202,305 L370,305 Q369,343 346,367 Q323,391 290,391 Q255,391 231,368 Q207,345 202,305"/> 
            <glyph glyph-name="Ě" unicode="&#x11A;" horiz-adv-x="607" d=" M607,0 L67,0 L67,700 L599,700 L599,542 L247,542 L247,447 L527,447 L527,295 L247,295 L247,158 L607,158 M419,761 L252,761 L128,912 L278,912 L339,843 L399,912 L546,912"/> 
            <glyph glyph-name="ě" unicode="&#x11B;" horiz-adv-x="543" d=" M312,-13 Q194,-13 111,59 Q29,132 29,254 Q29,367 103,444 Q177,521 298,521 Q407,521 474,446 Q543,373 543,255 L543,211 L203,211 Q214,173 254,152.5 Q294,132 351,132 Q434,132 514,176 L514,40 Q441,-13 312,-13 M202,305 L370,305 Q369,343 346,367 Q323,391 290,391 Q255,391 231,368 Q207,345 202,305 M368,576 L201,576 L77,727 L227,727 L288,658 L348,727 L495,727"/> 
            <glyph glyph-name="Ĝ" unicode="&#x11C;" horiz-adv-x="718" d=" M426,-14 Q264,-14 154,88 Q45,191 45,350 Q45,510 155,612 Q264,714 433,714 Q542,714 637,664 L637,495 Q540,548 446,548 Q351,548 290,492 Q230,436 230,347 Q230,254 287,200 Q344,146 426,146 Q496,146 537,179 L537,408 L718,408 L718,97 Q676,51 597,18 Q516,-14 426,-14 M337,761 L190,761 L317,912 L484,912 L608,761 L458,761 L397,830"/> 
            <glyph glyph-name="ĝ" unicode="&#x11D;" horiz-adv-x="585" d=" M282,-206 Q152,-206 81,-163 L81,-9 Q161,-58 263,-58 Q298,-58 328,-50 Q361,-41 384.5,-12 Q408,17 408,60 L408,86 Q348,21 254,21 Q155,21 92,92 Q29,162 29,271 Q29,380 92,450 Q155,521 254,521 Q346,521 408,455 L408,508 L585,508 L585,71 Q585,3 558.5,-52 Q532,-107 486,-140 Q396,-206 282,-206 M307,169 Q375,169 408,216 L408,326 Q373,373 307,373 Q260,373 232.5,344.5 Q205,316 205,271 Q205,226 232.5,197.5 Q260,169 307,169 M250,577 L103,577 L230,728 L397,728 L521,577 L371,577 L310,646"/> 
            <glyph glyph-name="Ğ" unicode="&#x11E;" horiz-adv-x="718" d=" M426,-14 Q264,-14 154,88 Q45,191 45,350 Q45,510 155,612 Q264,714 433,714 Q542,714 637,664 L637,495 Q540,548 446,548 Q351,548 290,492 Q230,436 230,347 Q230,254 287,200 Q344,146 426,146 Q496,146 537,179 L537,408 L718,408 L718,97 Q676,51 597,18 Q516,-14 426,-14 M232,932 L344,932 Q347,902 365,883.5 Q383,865 410,865 Q438,865 455.5,883.5 Q473,902 475,932 L587,932 Q584,853 535,807 Q486,761 410,761 Q336,761 285,806 Q235,853 232,932"/> 
            <glyph glyph-name="ğ" unicode="&#x11F;" horiz-adv-x="585" d=" M282,-206 Q152,-206 81,-163 L81,-9 Q161,-58 263,-58 Q298,-58 328,-50 Q361,-41 384.5,-12 Q408,17 408,60 L408,86 Q348,21 254,21 Q155,21 92,92 Q29,162 29,271 Q29,380 92,450 Q155,521 254,521 Q346,521 408,455 L408,508 L585,508 L585,71 Q585,3 558.5,-52 Q532,-107 486,-140 Q396,-206 282,-206 M307,169 Q375,169 408,216 L408,326 Q373,373 307,373 Q260,373 232.5,344.5 Q205,316 205,271 Q205,226 232.5,197.5 Q260,169 307,169 M129,732 L241,732 Q244,702 262,683.5 Q280,665 307,665 Q335,665 352.5,683.5 Q370,702 372,732 L484,732 Q481,653 432,607 Q383,561 307,561 Q233,561 182,606 Q132,653 129,732"/> 
            <glyph glyph-name="Ġ" unicode="&#x120;" horiz-adv-x="718" d=" M426,-14 Q264,-14 154,88 Q45,191 45,350 Q45,510 155,612 Q264,714 433,714 Q542,714 637,664 L637,495 Q540,548 446,548 Q351,548 290,492 Q230,436 230,347 Q230,254 287,200 Q344,146 426,146 Q496,146 537,179 L537,408 L718,408 L718,97 Q676,51 597,18 Q516,-14 426,-14 M411,750 Q376,750 350,775.5 Q324,801 324,837 Q324,873 349.5,898 Q375,923 411,923 Q448,923 473,898 Q498,873 498,837 Q498,801 473,775.5 Q448,750 411,750"/> 
            <glyph glyph-name="ġ" unicode="&#x121;" horiz-adv-x="585" d=" M282,-206 Q152,-206 81,-163 L81,-9 Q161,-58 263,-58 Q298,-58 328,-50 Q361,-41 384.5,-12 Q408,17 408,60 L408,86 Q348,21 254,21 Q155,21 92,92 Q29,162 29,271 Q29,380 92,450 Q155,521 254,521 Q346,521 408,455 L408,508 L585,508 L585,71 Q585,3 558.5,-52 Q532,-107 486,-140 Q396,-206 282,-206 M307,169 Q375,169 408,216 L408,326 Q373,373 307,373 Q260,373 232.5,344.5 Q205,316 205,271 Q205,226 232.5,197.5 Q260,169 307,169 M307,566 Q272,566 246,591.5 Q220,617 220,653 Q220,689 245.5,714 Q271,739 307,739 Q344,739 369,714 Q394,689 394,653 Q394,617 369,591.5 Q344,566 307,566"/> 
            <glyph glyph-name="Ģ" unicode="&#x122;" horiz-adv-x="718" d=" M426,-14 Q264,-14 154,88 Q45,191 45,350 Q45,510 155,612 Q264,714 433,714 Q542,714 637,664 L637,495 Q540,548 446,548 Q351,548 290,492 Q230,436 230,347 Q230,254 287,200 Q344,146 426,146 Q496,146 537,179 L537,408 L718,408 L718,97 Q676,51 597,18 Q516,-14 426,-14 M426,-290 L296,-290 L356,-72 L510,-72"/> 
            <glyph glyph-name="ģ" unicode="&#x123;" horiz-adv-x="585" d=" M282,-206 Q152,-206 81,-163 L81,-9 Q161,-58 263,-58 Q298,-58 328,-50 Q361,-41 384.5,-12 Q408,17 408,60 L408,86 Q348,21 254,21 Q155,21 92,92 Q29,162 29,271 Q29,380 92,450 Q155,521 254,521 Q346,521 408,455 L408,508 L585,508 L585,71 Q585,3 558.5,-52 Q532,-107 486,-140 Q396,-206 282,-206 M307,169 Q375,169 408,216 L408,326 Q373,373 307,373 Q260,373 232.5,344.5 Q205,316 205,271 Q205,226 232.5,197.5 Q260,169 307,169 M323,800 L453,800 L393,582 L239,582"/> 
            <glyph glyph-name="Ĥ" unicode="&#x124;" horiz-adv-x="691" d=" M247,0 L67,0 L67,700 L247,700 L247,451 L511,451 L511,700 L691,700 L691,0 L511,0 L511,291 L247,291 M317,761 L170,761 L297,912 L464,912 L588,761 L438,761 L377,830"/> 
            <glyph glyph-name="ĥ" unicode="&#x125;" horiz-adv-x="563" d=" M51,0 L51,700 L228,700 L228,451 Q294,521 382,521 Q466,521 514.5,464.5 Q563,408 563,312 L563,0 L386,0 L386,279 Q386,322 366,342.5 Q346,363 313,363 Q261,363 228,318 L228,0 M80,761 L-67,761 L60,912 L227,912 L351,761 L201,761 L140,830"/> 
            <glyph glyph-name="Ħ" unicode="&#x126;" horiz-adv-x="783" d=" M277,0 L97,0 L97,509 L35,509 L35,625 L97,625 L97,700 L277,700 L277,625 L541,625 L541,700 L721,700 L721,625 L783,625 L783,509 L721,509 L721,0 L541,0 L541,291 L277,291 M277,509 L277,451 L541,451 L541,509"/> 
            <glyph glyph-name="ħ" unicode="&#x127;" horiz-adv-x="626" d=" M291,228 L291,0 L114,0 L114,509 L13,509 L13,625 L114,625 L114,700 L291,700 L291,625 L460,625 L460,509 L291,509 L291,359 Q358,429 452,429 Q535,429 580.5,373.5 Q626,318 626,220 L626,0 L449,0 L449,187 Q449,230 429.5,250.5 Q410,271 378,271 Q325,271 291,228"/> 
            <glyph glyph-name="Ĩ" unicode="&#x128;" horiz-adv-x="355" d=" M230,757 Q197,757 157,777 Q119,797 99,797 Q64,797 55,761 L-34,761 Q-34,824 1,870 Q35,916 92,916 Q124,916 162,896 Q200,877 222,877 Q257,877 266,912 L355,912 Q355,853 319,805 Q284,757 230,757 M251,0 L71,0 L71,700 L251,700"/> 
            <glyph glyph-name="ĩ" unicode="&#x129;" horiz-adv-x="333" d=" M208,573 Q175,573 135,593 Q97,613 77,613 Q42,613 33,577 L-56,577 Q-56,640 -21,686 Q13,732 70,732 Q102,732 140,712 Q178,693 200,693 Q235,693 244,728 L333,728 Q333,669 297,621 Q262,573 208,573 M227,0 L50,0 L50,508 L227,508"/> 
            <glyph glyph-name="Ī" unicode="&#x12A;" horiz-adv-x="329" d=" M251,0 L71,0 L71,700 L251,700 M329,776 L-5,776 L-5,892 L329,892"/> 
            <glyph glyph-name="ī" unicode="&#x12B;" horiz-adv-x="305" d=" M305,592 L-29,592 L-29,708 L305,708 M227,0 L50,0 L50,508 L227,508"/> 
            <glyph glyph-name="Ĭ" unicode="&#x12C;" horiz-adv-x="339" d=" M-16,916 L96,916 Q99,886 117,867.5 Q135,849 162,849 Q190,849 207.5,867.5 Q225,886 227,916 L339,916 Q336,837 287,791 Q238,745 162,745 Q88,745 37,790 Q-13,837 -16,916 M251,0 L71,0 L71,700 L251,700"/> 
            <glyph glyph-name="ĭ" unicode="&#x12D;" horiz-adv-x="315" d=" M-40,732 L72,732 Q75,702 93,683.5 Q111,665 138,665 Q166,665 183.5,683.5 Q201,702 203,732 L315,732 Q312,653 263,607 Q214,561 138,561 Q64,561 13,606 Q-37,653 -40,732 M227,0 L50,0 L50,508 L227,508"/> 
            <glyph glyph-name="Į" unicode="&#x12E;" horiz-adv-x="298" d=" M233,-206 Q170,-206 133,-176.5 Q96,-147 96,-100 Q96,-44 144,0 L71,0 L71,700 L251,700 L251,0 Q218,-33 218,-64 Q218,-101 263,-101 Q285,-101 298,-94 L298,-197 Q274,-206 233,-206"/> 
            <glyph glyph-name="į" unicode="&#x12F;" horiz-adv-x="290" d=" M225,-206 Q162,-206 125,-176.5 Q88,-147 88,-100 Q88,-44 136,0 L66,0 L66,508 L243,508 L243,0 Q210,-33 210,-64 Q210,-101 255,-101 Q277,-101 290,-94 L290,-197 Q266,-206 225,-206 M154,554 Q112,554 82.5,583.5 Q53,613 53,656 Q53,699 82.5,728.5 Q112,758 154,758 Q197,758 226.5,728.5 Q256,699 256,656 Q256,613 226.5,583.5 Q197,554 154,554"/> 
            <glyph glyph-name="İ" unicode="&#x130;" horiz-adv-x="251" d=" M161,750 Q126,750 100,775.5 Q74,801 74,837 Q74,873 99.5,898 Q125,923 161,923 Q198,923 223,898 Q248,873 248,837 Q248,801 223,775.5 Q198,750 161,750 M251,0 L71,0 L71,700 L251,700"/> 
            <glyph glyph-name="ı" unicode="&#x131;" horiz-adv-x="227" d=" M227,0 L50,0 L50,508 L227,508"/> 
            <glyph glyph-name="Ĳ" unicode="&#x132;" horiz-adv-x="585" d=" M251,278 L71,278 L71,700 L251,700 M276,-14 Q224,-14 165,-2 Q108,10 71,33 L71,202 Q154,152 249,152 Q329,152 367,181.5 Q405,211 405,279 L405,700 L585,700 L585,263 Q585,107 489,43 Q404,-14 276,-14"/> 
            <glyph glyph-name="ĳ" unicode="&#x133;" horiz-adv-x="546" d=" M444,554 Q402,554 372.5,583.5 Q343,613 343,656 Q343,699 372.5,728.5 Q402,758 444,758 Q487,758 516.5,728.5 Q546,699 546,656 Q546,613 516.5,583.5 Q487,554 444,554 M329,-206 Q248,-206 209,-185 L209,-40 Q242,-56 283,-56 Q357,-56 357,16 L357,508 L534,508 L534,1 Q534,-95 479.5,-150.5 Q425,-206 329,-206 M243,0 L66,0 L66,508 L243,508 M154,554 Q112,554 82.5,583.5 Q53,613 53,656 Q53,699 82.5,728.5 Q112,758 154,758 Q197,758 226.5,728.5 Q256,699 256,656 Q256,613 226.5,583.5 Q197,554 154,554"/> 
            <glyph glyph-name="Ĵ" unicode="&#x134;" horiz-adv-x="573" d=" M197,-14 Q84,-14 25,25 L25,198 Q86,152 158,152 Q219,152 247.5,179 Q276,206 276,268 L276,700 L456,700 L456,239 Q456,96 375,37 Q303,-14 197,-14 M302,761 L155,761 L282,912 L449,912 L573,761 L423,761 L362,830"/> 
            <glyph glyph-name="ĵ" unicode="&#x135;" horiz-adv-x="366" d=" M43,-206 Q-41,-206 -81,-184 L-81,-37 Q-42,-56 -4,-56 Q29,-56 48,-37.5 Q67,-19 67,14 L67,508 L244,508 L244,1 Q244,-96 191,-151 Q138,-206 43,-206 M95,577 L-52,577 L75,728 L242,728 L366,577 L216,577 L155,646"/> 
            <glyph glyph-name="Ķ" unicode="&#x136;" horiz-adv-x="740" d=" M247,0 L67,0 L67,700 L247,700 L247,433 L474,700 L690,700 L419,378 L740,0 L521,0 L247,311 M379,-290 L249,-290 L309,-72 L463,-72"/> 
            <glyph glyph-name="ķ" unicode="&#x137;" horiz-adv-x="621" d=" M228,0 L51,0 L51,700 L228,700 L228,328 L379,508 L588,508 L387,280 L621,0 L400,0 L228,210 M324,-290 L194,-290 L254,-72 L408,-72"/> 
            <glyph glyph-name="ĸ" unicode="&#x138;" horiz-adv-x="631" d=" M238,0 L61,0 L61,508 L238,508 L238,328 L389,508 L598,508 L397,280 L631,0 L410,0 L238,210"/> 
            <glyph glyph-name="Ĺ" unicode="&#x139;" horiz-adv-x="583" d=" M583,0 L67,0 L67,700 L247,700 L247,158 L583,158 M233,760 L86,760 L181,912 L390,912"/> 
            <glyph glyph-name="ĺ" unicode="&#x13A;" horiz-adv-x="371" d=" M196,-13 Q51,-13 51,135 L51,700 L228,700 L228,177 Q228,138 264,138 Q281,138 294,145 L294,6 Q257,-13 196,-13 M214,760 L67,760 L162,912 L371,912"/> 
            <glyph glyph-name="Ļ" unicode="&#x13B;" horiz-adv-x="583" d=" M583,0 L67,0 L67,700 L247,700 L247,158 L583,158 M345,-290 L215,-290 L275,-72 L429,-72"/> 
            <glyph glyph-name="ļ" unicode="&#x13C;" horiz-adv-x="294" d=" M196,-13 Q51,-13 51,135 L51,700 L228,700 L228,177 Q228,138 264,138 Q281,138 294,145 L294,6 Q257,-13 196,-13 M190,-290 L60,-290 L120,-72 L274,-72"/> 
            <glyph glyph-name="Ľ" unicode="&#x13D;" horiz-adv-x="583" d=" M583,0 L67,0 L67,700 L247,700 L247,158 L583,158 M482,482 L352,482 L412,700 L566,700"/> 
            <glyph glyph-name="ľ" unicode="&#x13E;" horiz-adv-x="480" d=" M184,-13 Q39,-13 39,135 L39,700 L216,700 L216,177 Q216,138 252,138 Q269,138 282,145 L282,6 Q245,-13 184,-13 M396,482 L266,482 L326,700 L480,700"/> 
            <glyph glyph-name="Ŀ" unicode="&#x13F;" horiz-adv-x="583" d=" M552,313 Q522,282 478,282 Q434,282 403,313 Q373,344 373,388 Q373,432 403,462 Q434,493 478,493 Q522,493 552,462 Q583,432 583,388 Q583,344 552,313 M583,0 L67,0 L67,700 L247,700 L247,158 L583,158"/> 
            <glyph glyph-name="ŀ" unicode="&#x140;" horiz-adv-x="483" d=" M196,-13 Q51,-13 51,135 L51,700 L228,700 L228,177 Q228,138 264,138 Q281,138 294,145 L294,6 Q257,-13 196,-13 M452,313 Q422,282 378,282 Q334,282 303,313 Q273,344 273,388 Q273,432 303,462 Q334,493 378,493 Q422,493 452,462 Q483,432 483,388 Q483,344 452,313"/> 
            <glyph glyph-name="Ł" unicode="&#x141;" horiz-adv-x="623" d=" M623,0 L107,0 L107,255 L9,191 L9,342 L107,406 L107,700 L287,700 L287,524 L429,618 L429,467 L287,373 L287,158 L623,158"/> 
            <glyph glyph-name="ł" unicode="&#x142;" horiz-adv-x="399" d=" M263,-13 Q118,-13 118,135 L118,233 L16,166 L16,317 L118,384 L118,700 L295,700 L295,500 L399,569 L399,418 L295,349 L295,177 Q295,138 331,138 Q348,138 361,145 L361,6 Q324,-13 263,-13"/> 
            <glyph glyph-name="Ń" unicode="&#x143;" horiz-adv-x="703" d=" M244,0 L67,0 L67,700 L221,700 L527,315 L527,700 L703,700 L703,0 L554,0 L244,387 M451,760 L304,760 L399,912 L608,912"/> 
            <glyph glyph-name="ń" unicode="&#x144;" horiz-adv-x="573" d=" M61,0 L61,508 L238,508 L238,451 Q304,521 392,521 Q476,521 524.5,464.5 Q573,408 573,312 L573,0 L396,0 L396,279 Q396,322 376,342.5 Q356,363 323,363 Q271,363 238,318 L238,0 M360,576 L213,576 L308,728 L517,728"/> 
            <glyph glyph-name="Ņ" unicode="&#x145;" horiz-adv-x="703" d=" M244,0 L67,0 L67,700 L221,700 L527,315 L527,700 L703,700 L703,0 L554,0 L244,387 M414,-290 L284,-290 L344,-72 L498,-72"/> 
            <glyph glyph-name="ņ" unicode="&#x146;" horiz-adv-x="573" d=" M238,318 L238,0 L61,0 L61,508 L238,508 L238,451 Q304,521 392,521 Q476,521 524.5,464.5 Q573,408 573,312 L573,0 L396,0 L396,279 Q396,322 376,342.5 Q356,363 323,363 Q271,363 238,318 M314,-290 L184,-290 L244,-72 L398,-72"/> 
            <glyph glyph-name="Ň" unicode="&#x147;" horiz-adv-x="703" d=" M244,0 L67,0 L67,700 L221,700 L527,315 L527,700 L703,700 L703,0 L554,0 L244,387 M467,761 L300,761 L176,912 L326,912 L387,843 L447,912 L594,912"/> 
            <glyph glyph-name="ň" unicode="&#x148;" horiz-adv-x="573" d=" M61,0 L61,508 L238,508 L238,451 Q304,521 392,521 Q476,521 524.5,464.5 Q573,408 573,312 L573,0 L396,0 L396,279 Q396,322 376,342.5 Q356,363 323,363 Q271,363 238,318 L238,0 M399,576 L232,576 L108,727 L258,727 L319,658 L379,727 L526,727"/> 
            <glyph glyph-name="ŉ" unicode="&#x149;" horiz-adv-x="773" d=" M261,0 L261,508 L438,508 L438,451 Q504,521 592,521 Q676,521 724.5,464.5 Q773,408 773,312 L773,0 L596,0 L596,279 Q596,322 576,342.5 Q556,363 523,363 Q471,363 438,318 L438,0 M169,482 L39,482 L99,700 L253,700"/> 
            <glyph glyph-name="Ŋ" unicode="&#x14A;" horiz-adv-x="703" d=" M498,-206 Q417,-206 378,-185 L378,-40 Q411,-56 452,-56 Q523,-56 524,14 L524,40 L247,393 L247,0 L67,0 L67,700 L220,700 L524,309 L524,700 L703,700 L703,1 Q703,-95 648.5,-150.5 Q594,-206 498,-206"/> 
            <glyph glyph-name="ŋ" unicode="&#x14B;" horiz-adv-x="573" d=" M368,-206 Q287,-206 248,-185 L248,-40 Q281,-56 322,-56 Q396,-56 396,16 L396,279 Q396,322 376.5,342.5 Q357,363 325,363 Q272,363 238,320 L238,0 L61,0 L61,508 L238,508 L238,451 Q305,521 399,521 Q482,521 527.5,465.5 Q573,410 573,312 L573,1 Q573,-95 518.5,-150.5 Q464,-206 368,-206"/> 
            <glyph glyph-name="Ō" unicode="&#x14C;" horiz-adv-x="783" d=" M282,208 Q335,152 414,152 Q492,152 545,208 Q598,264 598,350 Q598,436 545,492 Q492,548 414,548 Q335,548 282,492 Q230,437 230,350 Q230,263 282,208 M678,92 Q573,-14 414,-14 Q255,-14 150,92 Q45,198 45,350 Q45,502 150,608 Q255,714 414,714 Q573,714 678,608 Q783,502 783,350 Q783,198 678,92 M582,776 L248,776 L248,892 L582,892"/> 
            <glyph glyph-name="ō" unicode="&#x14D;" horiz-adv-x="601" d=" M427,254 Q427,303 395,336.5 Q363,370 315,370 Q267,370 235,336.5 Q203,303 203,254 Q203,204 234.5,171 Q266,138 315,138 Q364,138 395.5,171 Q427,204 427,254 M520,63 Q440,-13 315,-13 Q190,-13 110,63 Q29,139 29,254 Q29,368 110,444 Q192,521 315,521 Q438,521 520,444 Q601,368 601,254 Q601,139 520,63 M482,592 L148,592 L148,708 L482,708"/> 
            <glyph glyph-name="Ŏ" unicode="&#x14E;" horiz-adv-x="783" d=" M282,208 Q335,152 414,152 Q492,152 545,208 Q598,264 598,350 Q598,436 545,492 Q492,548 414,548 Q335,548 282,492 Q230,437 230,350 Q230,263 282,208 M678,92 Q573,-14 414,-14 Q255,-14 150,92 Q45,198 45,350 Q45,502 150,608 Q255,714 414,714 Q573,714 678,608 Q783,502 783,350 Q783,198 678,92 M236,931 L348,931 Q351,901 369,882.5 Q387,864 414,864 Q442,864 459.5,882.5 Q477,901 479,931 L591,931 Q588,852 539,806 Q490,760 414,760 Q340,760 289,805 Q239,852 236,931"/> 
            <glyph glyph-name="ŏ" unicode="&#x14F;" horiz-adv-x="601" d=" M427,254 Q427,303 395,336.5 Q363,370 315,370 Q267,370 235,336.5 Q203,303 203,254 Q203,204 234.5,171 Q266,138 315,138 Q364,138 395.5,171 Q427,204 427,254 M520,63 Q440,-13 315,-13 Q190,-13 110,63 Q29,139 29,254 Q29,368 110,444 Q192,521 315,521 Q438,521 520,444 Q601,368 601,254 Q601,139 520,63 M138,741 L250,741 Q253,711 271,692.5 Q289,674 316,674 Q344,674 361.5,692.5 Q379,711 381,741 L493,741 Q490,662 441,616 Q392,570 316,570 Q242,570 191,615 Q141,662 138,741"/> 
            <glyph glyph-name="Ő" unicode="&#x150;" horiz-adv-x="785" d=" M282,208 Q335,152 414,152 Q492,152 545,208 Q598,264 598,350 Q598,436 545,492 Q492,548 414,548 Q335,548 282,492 Q230,437 230,350 Q230,263 282,208 M678,92 Q573,-14 414,-14 Q255,-14 150,92 Q45,198 45,350 Q45,502 150,608 Q255,714 414,714 Q573,714 678,608 Q783,502 783,350 Q783,198 678,92 M356,760 L206,760 L301,912 L513,912 M628,760 L478,760 L573,912 L785,912"/> 
            <glyph glyph-name="ő" unicode="&#x151;" horiz-adv-x="673" d=" M427,254 Q427,303 395,336.5 Q363,370 315,370 Q267,370 235,336.5 Q203,303 203,254 Q203,204 234.5,171 Q266,138 315,138 Q364,138 395.5,171 Q427,204 427,254 M520,63 Q440,-13 315,-13 Q190,-13 110,63 Q29,139 29,254 Q29,368 110,444 Q192,521 315,521 Q438,521 520,444 Q601,368 601,254 Q601,139 520,63 M244,576 L94,576 L189,728 L401,728 M516,576 L366,576 L461,728 L673,728"/> 
            <glyph glyph-name="Œ" unicode="&#x152;" horiz-adv-x="1019" d=" M1019,0 L432,0 Q260,0 153,97 Q45,194 45,350 Q45,504 153,602 Q262,700 432,700 L1011,700 L1011,542 L669,542 L669,447 L939,447 L939,295 L669,295 L669,158 L1019,158 M445,158 L489,158 L489,542 L445,542 Q343,542 287,492 Q231,442 231,350 Q231,258 287,208 Q343,158 445,158"/> 
            <glyph glyph-name="œ" unicode="&#x153;" horiz-adv-x="927" d=" M927,255 L927,211 L587,211 Q598,173 638,152.5 Q678,132 735,132 Q818,132 898,176 L898,40 Q825,-13 705,-13 Q646,-13 593.5,7.5 Q541,28 510,61 Q425,-13 315,-13 Q190,-13 110,63 Q29,139 29,254 Q29,368 110,444 Q192,521 315,521 Q427,521 507,444 Q578,521 686,521 Q788,521 857,446 Q927,372 927,255 M427,254 Q427,303 395,336.5 Q363,370 315,370 Q267,370 235,336.5 Q203,303 203,254 Q203,204 234.5,171 Q266,138 315,138 Q364,138 395.5,171 Q427,204 427,254 M586,305 L754,305 Q753,343 730,367 Q707,391 674,391 Q639,391 615,368 Q591,345 586,305"/> 
            <glyph glyph-name="Ŕ" unicode="&#x154;" horiz-adv-x="724" d=" M247,0 L67,0 L67,700 L396,700 Q512,700 579,639 Q648,579 648,484 Q648,416 612,364 Q576,312 512,287 L724,0 L517,0 L319,267 L247,267 M247,548 L247,414 L386,414 Q423,414 444.5,431.5 Q466,449 466,480 Q466,511 444.5,529.5 Q423,548 386,548 M356,760 L209,760 L304,912 L513,912"/> 
            <glyph glyph-name="ŕ" unicode="&#x155;" horiz-adv-x="436" d=" M238,0 L61,0 L61,508 L238,508 L238,425 Q256,460 303,490 Q350,521 405,521 Q417,521 427,519 L427,348 Q393,356 367,356 Q323,356 288,339 Q253,322 238,295 M279,576 L132,576 L227,728 L436,728"/> 
            <glyph glyph-name="Ŗ" unicode="&#x156;" horiz-adv-x="724" d=" M247,0 L67,0 L67,700 L396,700 Q512,700 579,639 Q648,579 648,484 Q648,416 612,364 Q576,312 512,287 L724,0 L517,0 L319,267 L247,267 M247,548 L247,414 L386,414 Q423,414 444.5,431.5 Q466,449 466,480 Q466,511 444.5,529.5 Q423,548 386,548 M381,-290 L251,-290 L311,-72 L465,-72"/> 
            <glyph glyph-name="ŗ" unicode="&#x157;" horiz-adv-x="427" d=" M238,0 L61,0 L61,508 L238,508 L238,425 Q256,460 303,490 Q350,521 405,521 Q417,521 427,519 L427,348 Q393,356 367,356 Q323,356 288,339 Q253,322 238,295 M141,-290 L11,-290 L71,-72 L225,-72"/> 
            <glyph glyph-name="Ř" unicode="&#x158;" horiz-adv-x="724" d=" M247,0 L67,0 L67,700 L396,700 Q512,700 579,639 Q648,579 648,484 Q648,416 612,364 Q576,312 512,287 L724,0 L517,0 L319,267 L247,267 M247,548 L247,414 L386,414 Q423,414 444.5,431.5 Q466,449 466,480 Q466,511 444.5,529.5 Q423,548 386,548 M417,761 L250,761 L126,912 L276,912 L337,843 L397,912 L544,912"/> 
            <glyph glyph-name="ř" unicode="&#x159;" horiz-adv-x="433" d=" M228,0 L51,0 L51,508 L228,508 L228,425 Q246,460 293,490 Q340,521 395,521 Q407,521 417,519 L417,348 Q383,356 357,356 Q313,356 278,339 Q243,322 228,295 M306,576 L139,576 L15,727 L165,727 L226,658 L286,727 L433,727"/> 
            <glyph glyph-name="Ś" unicode="&#x15A;" horiz-adv-x="600" d=" M314,-14 Q152,-14 43,61 L43,245 Q85,206 163,177 Q238,149 307,149 Q414,149 414,204 Q414,226 387,245 Q381,250 342,263 L279,282 L228,297 L182,315 Q151,327 136,337 Q82,377 68,401 Q43,449 43,504 Q43,604 116.5,659 Q190,714 318,714 Q446,714 555,656 L555,483 Q508,512 444,531 Q378,551 320,551 Q228,551 228,505 Q228,485 257,473 L289,462 Q300,458 336,448 Q372,438 385,434 Q485,401 543,351 Q600,302 600,211 Q600,109 520,47 Q441,-14 314,-14 M343,760 L196,760 L291,912 L500,912"/> 
            <glyph glyph-name="ś" unicode="&#x15B;" horiz-adv-x="489" d=" M257,-13 Q116,-13 42,32 L42,181 Q74,158 130,142 Q185,126 249,126 Q311,126 311,151 Q311,165 289,174 L266,182 Q259,184 195,201 Q108,226 72,258 Q37,290 37,359 Q37,435 99,478 Q161,521 270,521 Q382,521 462,473 L462,329 Q374,384 277,384 Q220,384 220,358 Q220,342 243,335 L267,328 Q276,326 302,320 Q328,314 333,313 Q415,292 452,254.5 Q489,217 489,151 Q489,78 426,32 Q364,-13 257,-13 M277,576 L130,576 L225,728 L434,728"/> 
            <glyph glyph-name="Ŝ" unicode="&#x15C;" horiz-adv-x="600" d=" M314,-14 Q152,-14 43,61 L43,245 Q85,206 163,177 Q238,149 307,149 Q414,149 414,204 Q414,226 387,245 Q381,250 342,263 L279,282 L228,297 L182,315 Q151,327 136,337 Q82,377 68,401 Q43,449 43,504 Q43,604 116.5,659 Q190,714 318,714 Q446,714 555,656 L555,483 Q508,512 444,531 Q378,551 320,551 Q228,551 228,505 Q228,485 257,473 L289,462 Q300,458 336,448 Q372,438 385,434 Q485,401 543,351 Q600,302 600,211 Q600,109 520,47 Q441,-14 314,-14 M250,761 L103,761 L230,912 L397,912 L521,761 L371,761 L310,830"/> 
            <glyph glyph-name="ŝ" unicode="&#x15D;" horiz-adv-x="489" d=" M257,-13 Q116,-13 42,32 L42,181 Q74,158 130,142 Q185,126 249,126 Q311,126 311,151 Q311,165 289,174 L266,182 Q259,184 195,201 Q108,226 72,258 Q37,290 37,359 Q37,435 99,478 Q161,521 270,521 Q382,521 462,473 L462,329 Q374,384 277,384 Q220,384 220,358 Q220,342 243,335 L267,328 Q276,326 302,320 Q328,314 333,313 Q415,292 452,254.5 Q489,217 489,151 Q489,78 426,32 Q364,-13 257,-13 M203,577 L56,577 L183,728 L350,728 L474,577 L324,577 L263,646"/> 
            <glyph glyph-name="Ş" unicode="&#x15E;" horiz-adv-x="597" d=" M349,-152 L145,-152 L254,-11 Q130,0 44,61 L44,245 Q85,207 163,177 Q238,149 306,149 Q411,149 411,204 Q411,234 382,247 Q356,259 349,261 Q339,264 314,271 Q289,278 278,282 L227,297 L181,315 Q150,327 135,337 Q83,376 68,401 Q43,449 43,504 Q43,604 116.5,659 Q190,714 317,714 Q442,714 550,657 L550,484 Q502,513 439.5,532 Q377,551 319,551 Q228,551 228,505 Q228,485 257,473 Q284,463 288,462 Q313,456 384,434 Q491,399 544,348 Q597,297 597,211 Q597,130 546,73 Q495,16 406,-4"/> 
            <glyph glyph-name="ş" unicode="&#x15F;" horiz-adv-x="489" d=" M281,-152 L77,-152 L187,-9 Q89,2 42,32 L42,181 Q74,158 130,142 Q185,126 249,126 Q311,126 311,151 Q311,165 289,174 L266,182 Q259,184 195,201 Q108,226 72,258 Q37,290 37,359 Q37,435 99,478 Q161,521 270,521 Q382,521 462,473 L462,329 Q374,384 277,384 Q220,384 220,358 Q220,342 243,335 L267,328 Q276,326 302,320 Q328,314 333,313 Q415,292 452,254.5 Q489,217 489,151 Q489,94 449.5,52.5 Q410,11 338,-5"/> 
            <glyph glyph-name="Š" unicode="&#x160;" horiz-adv-x="600" d=" M314,-14 Q152,-14 43,61 L43,245 Q85,206 163,177 Q238,149 307,149 Q414,149 414,204 Q414,226 387,245 Q381,250 342,263 L279,282 L228,297 L182,315 Q151,327 136,337 Q82,377 68,401 Q43,449 43,504 Q43,604 116.5,659 Q190,714 318,714 Q446,714 555,656 L555,483 Q508,512 444,531 Q378,551 320,551 Q228,551 228,505 Q228,485 257,473 L289,462 Q300,458 336,448 Q372,438 385,434 Q485,401 543,351 Q600,302 600,211 Q600,109 520,47 Q441,-14 314,-14 M392,761 L225,761 L101,912 L251,912 L312,843 L372,912 L519,912"/> 
            <glyph glyph-name="š" unicode="&#x161;" horiz-adv-x="489" d=" M257,-13 Q116,-13 42,32 L42,181 Q74,158 130,142 Q185,126 249,126 Q311,126 311,151 Q311,165 289,174 L266,182 Q259,184 195,201 Q108,226 72,258 Q37,290 37,359 Q37,435 99,478 Q161,521 270,521 Q382,521 462,473 L462,329 Q374,384 277,384 Q220,384 220,358 Q220,342 243,335 L267,328 Q276,326 302,320 Q328,314 333,313 Q415,292 452,254.5 Q489,217 489,151 Q489,78 426,32 Q364,-13 257,-13 M347,576 L180,576 L56,727 L206,727 L267,658 L327,727 L474,727"/> 
            <glyph glyph-name="Ţ" unicode="&#x162;" horiz-adv-x="629" d=" M342,-152 L138,-152 L256,0 L238,0 L238,542 L28,542 L28,700 L629,700 L629,542 L418,542 L418,0 L401,0"/> 
            <glyph glyph-name="ţ" unicode="&#x163;" horiz-adv-x="410" d=" M284,-152 L80,-152 L199,1 Q104,39 104,153 L104,366 L15,366 L15,508 L104,508 L104,638 L281,638 L281,508 L410,508 L410,366 L281,366 L281,201 Q281,168 294.5,154 Q308,140 340,140 Q376,140 410,158 L410,17 Q384,1 340,-8"/> 
            <glyph glyph-name="Ť" unicode="&#x164;" horiz-adv-x="629" d=" M418,0 L238,0 L238,542 L28,542 L28,700 L629,700 L629,542 L418,542 M410,761 L243,761 L119,912 L269,912 L330,843 L390,912 L537,912"/> 
            <glyph glyph-name="ť" unicode="&#x165;" horiz-adv-x="656" d=" M285,-13 Q205,-13 157,30.5 Q109,74 109,153 L109,366 L20,366 L20,508 L109,508 L109,638 L286,638 L286,508 L415,508 L415,366 L286,366 L286,201 Q286,168 299.5,154 Q313,140 345,140 Q380,140 415,158 L415,17 Q367,-13 285,-13 M572,482 L442,482 L502,700 L656,700"/> 
            <glyph glyph-name="Ŧ" unicode="&#x166;" horiz-adv-x="629" d=" M418,0 L238,0 L238,302 L160,302 L160,418 L238,418 L238,542 L28,542 L28,700 L629,700 L629,542 L418,542 L418,418 L494,418 L494,302 L418,302"/> 
            <glyph glyph-name="ŧ" unicode="&#x167;" horiz-adv-x="410" d=" M280,-13 Q200,-13 152,30.5 Q104,74 104,153 L104,208 L15,208 L15,324 L104,324 L104,366 L15,366 L15,508 L104,508 L104,638 L281,638 L281,508 L410,508 L410,366 L281,366 L281,324 L410,324 L410,208 L281,208 L281,201 Q281,168 294.5,154 Q308,140 340,140 Q376,140 410,158 L410,17 Q362,-13 280,-13"/> 
            <glyph glyph-name="Ũ" unicode="&#x168;" horiz-adv-x="672" d=" M58,293 L58,700 L238,700 L238,284 Q238,220 273,186 Q308,152 365,152 Q423,152 457.5,185.5 Q492,219 492,284 L492,700 L672,700 L672,293 Q672,147 585,66 Q497,-14 365,-14 Q233,-14 145,66 Q58,147 58,293 M434,757 Q401,757 361,777 Q323,797 303,797 Q268,797 259,761 L170,761 Q170,824 205,870 Q239,916 296,916 Q328,916 366,896 Q404,877 426,877 Q461,877 470,912 L559,912 Q559,853 523,805 Q488,757 434,757"/> 
            <glyph glyph-name="ũ" unicode="&#x169;" horiz-adv-x="564" d=" M233,-13 Q149,-13 100.5,43.5 Q52,100 52,196 L52,508 L229,508 L229,229 Q229,186 249,165.5 Q269,145 302,145 Q354,145 387,190 L387,508 L564,508 L564,0 L387,0 L387,57 Q321,-13 233,-13 M378,573 Q345,573 305,593 Q267,613 247,613 Q212,613 203,577 L114,577 Q114,640 149,686 Q183,732 240,732 Q272,732 310,712 Q348,693 370,693 Q405,693 414,728 L503,728 Q503,669 467,621 Q432,573 378,573"/> 
            <glyph glyph-name="Ū" unicode="&#x16A;" horiz-adv-x="672" d=" M58,293 L58,700 L238,700 L238,284 Q238,220 273,186 Q308,152 365,152 Q423,152 457.5,185.5 Q492,219 492,284 L492,700 L672,700 L672,293 Q672,147 585,66 Q497,-14 365,-14 Q233,-14 145,66 Q58,147 58,293 M533,776 L199,776 L199,892 L533,892"/> 
            <glyph glyph-name="ū" unicode="&#x16B;" horiz-adv-x="564" d=" M233,-13 Q149,-13 100.5,43.5 Q52,100 52,196 L52,508 L229,508 L229,229 Q229,186 249,165.5 Q269,145 302,145 Q354,145 387,190 L387,508 L564,508 L564,0 L387,0 L387,57 Q321,-13 233,-13 M475,592 L141,592 L141,708 L475,708"/> 
            <glyph glyph-name="Ŭ" unicode="&#x16C;" horiz-adv-x="672" d=" M58,293 L58,700 L238,700 L238,284 Q238,220 273,186 Q308,152 365,152 Q423,152 457.5,185.5 Q492,219 492,284 L492,700 L672,700 L672,293 Q672,147 585,66 Q497,-14 365,-14 Q233,-14 145,66 Q58,147 58,293 M187,916 L299,916 Q302,886 320,867.5 Q338,849 365,849 Q393,849 410.5,867.5 Q428,886 430,916 L542,916 Q539,837 490,791 Q441,745 365,745 Q291,745 240,790 Q190,837 187,916"/> 
            <glyph glyph-name="ŭ" unicode="&#x16D;" horiz-adv-x="564" d=" M233,-13 Q149,-13 100.5,43.5 Q52,100 52,196 L52,508 L229,508 L229,229 Q229,186 249,165.5 Q269,145 302,145 Q354,145 387,190 L387,508 L564,508 L564,0 L387,0 L387,57 Q321,-13 233,-13 M131,732 L243,732 Q246,702 264,683.5 Q282,665 309,665 Q337,665 354.5,683.5 Q372,702 374,732 L486,732 Q483,653 434,607 Q385,561 309,561 Q235,561 184,606 Q134,653 131,732"/> 
            </font>
</defs>
</svg>
