<svg width="22" height="39" xmlns="http://www.w3.org/2000/svg"><path d="M21.285 38.968H.684a.571.571 0 0 1-.57-.573v-35.7C.115 1.208 1.315 0 2.789 0H19.18c1.474 0 2.673 1.209 2.673 2.694v35.7a.572.572 0 0 1-.57.574zM1.252 37.821h19.464V26.796H1.252v11.025zm0-12.171h19.464V2.694c0-.853-.689-1.547-1.535-1.547H2.788c-.847 0-1.536.694-1.536 1.547V25.65zm8.152-1.329h-.297a.571.571 0 0 1-.569-.573c0-.317.255-.574.57-.574h.296c.315 0 .57.257.57.574a.571.571 0 0 1-.57.573zm-2.438 0h-.297a.571.571 0 0 1-.57-.573c0-.317.256-.574.57-.574h.297c.314 0 .569.257.569.574a.571.571 0 0 1-.57.573zm-2.438 0H4.23a.571.571 0 0 1-.57-.573c0-.317.255-.574.57-.574h.297c.314 0 .569.257.569.574a.571.571 0 0 1-.57.573zm13.21-.802h-4.403a.571.571 0 0 1-.569-.574v-2.859c0-.317.255-.574.57-.574h4.402c.314 0 .569.257.569.574v2.86a.571.571 0 0 1-.57.573zm-3.834-1.147h3.265v-1.713h-3.265v1.713zm-4.5.118h-.297a.571.571 0 0 1-.569-.573c0-.317.255-.574.57-.574h.296c.315 0 .57.257.57.574a.571.571 0 0 1-.57.573zm-2.438 0h-.297a.571.571 0 0 1-.57-.573c0-.317.256-.574.57-.574h.297c.314 0 .569.257.569.574a.571.571 0 0 1-.57.573zm-2.438 0H4.23a.571.571 0 0 1-.57-.573c0-.317.255-.574.57-.574h.297c.314 0 .569.257.569.574a.571.571 0 0 1-.57.573zm4.876-1.83h-.297a.571.571 0 0 1-.569-.574c0-.317.255-.574.57-.574h.296c.315 0 .57.257.57.574a.571.571 0 0 1-.57.573zm-2.438 0h-.297a.571.571 0 0 1-.57-.574c0-.317.256-.574.57-.574h.297c.314 0 .569.257.569.574a.571.571 0 0 1-.57.573zm-2.438 0H4.23a.571.571 0 0 1-.57-.574c0-.317.255-.574.57-.574h.297c.314 0 .569.257.569.574a.571.571 0 0 1-.57.573zm13.21-2.609H4.23a.571.571 0 0 1-.57-.573V4.436c0-.317.255-.574.57-.574h13.507c.314 0 .569.257.569.574v13.042a.571.571 0 0 1-.57.573zM4.8 16.904h12.369V5.009H4.799v11.895z" fill="#FFF"/></svg>