<?xml version="1.0" standalone="no"?>
<!DOCTYPE svg PUBLIC "-//W3C//DTD SVG 1.1//EN" "http://www.w3.org/Graphics/SVG/1.1/DTD/svg11.dtd" >
<svg xmlns="http://www.w3.org/2000/svg">
    <defs>
        <font id="Exo-Regular">
            <font-face font-family="Exo-Regular"
                       units-per-em="1000"
                       ascent="1002"
                       descent="-327"
                       bbox="-508 -270 1333 1101"
                    />
            <missing-glyph horiz-adv-x="0" />
            
            <glyph glyph-name="!" unicode="&#x21;" horiz-adv-x="171" d=" M92,735 L171,735 L159,199 L102,199 M101,-1 Q92,8 92,15 L92,95 Q92,111 108,111 L152,111 Q168,111 168,95 L168,15 Q168,-1 152,-1 L108,-1"/> 
            <glyph glyph-name="&quot;" unicode="&#x22;" horiz-adv-x="243" d=" M40,679 L40,746 L117,746 L117,679 L109,507 L48,507 M166,679 L166,746 L243,746 L243,679 L235,507 L174,507"/> 
            <glyph glyph-name="#" unicode="&#x23;" horiz-adv-x="665" d=" M188,230 L22,230 L30,281 L198,281 L225,448 L56,448 L65,499 L235,499 L275,732 L326,732 L286,499 L440,499 L479,732 L530,732 L491,499 L665,499 L658,448 L482,448 L456,281 L630,281 L623,230 L445,230 L406,0 L355,0 L394,230 L239,230 L201,0 L150,0 M405,281 L431,448 L276,448 L249,281"/> 
            <glyph glyph-name="$" unicode="&#x24;" horiz-adv-x="519" d=" M429,406 Q519,313 519,235 L519,178 Q519,82 464.5,40.5 Q410,-1 314,-5 L314,-89 L267,-89 L267,-6 Q216,-4 155.5,1 Q95,6 63,12 L63,73 Q141,65 283,65 Q359,65 401,89 Q443,113 443,176 L443,226 Q443,330 333,330 L254,330 Q159,330 109.5,371.5 Q60,413 60,508 L60,550 Q60,651 114,696.5 Q168,742 274,742 L267,763 L302,824 L314,790 L287,742 Q331,741 389,734.5 Q447,728 486,721 L486,661 Q351,670 282,670 Q208,670 172,643.5 Q136,617 136,547 L136,513 Q136,455 166.5,430.5 Q197,406 257,406 L342,406"/> 
            <glyph glyph-name="%" unicode="&#x25;" horiz-adv-x="913" d=" M106,349 Q46,411 46,477 L46,604 Q46,670 76,701 Q106,732 179,732 L280,732 Q351,732 380.5,701 Q410,670 410,604 L410,477 Q410,411 380.5,380 Q351,349 278,349 L177,349 M669,732 L723,732 L283,0 L226,0 M269,400 Q317,400 337.5,419 Q358,438 358,487 L358,594 Q358,642 339,661.5 Q320,681 271,681 L187,681 Q139,681 118.5,663 Q98,645 98,594 L98,487 Q98,438 117.5,419 Q137,400 185,400 M609,3 Q550,65 550,131 L550,258 Q550,324 579.5,355 Q609,386 682,386 L783,386 Q854,386 883.5,355 Q913,324 913,258 L913,131 Q913,65 883.5,34 Q854,3 781,3 L680,3 M773,54 Q821,54 841.5,73 Q862,92 862,141 L862,248 Q862,296 843,315.5 Q824,335 775,335 L690,335 Q642,335 621.5,317 Q601,299 601,248 L601,141 Q601,93 620.5,73.5 Q640,54 688,54"/> 
            <glyph glyph-name="&amp;" unicode="&#x26;" horiz-adv-x="638" d=" M179,-6 Q90,42 65,86.5 Q40,131 40,189 Q40,298 135,378 L201,434 L183,461 Q132,531 132,601 Q132,670 179.5,702 Q227,734 303,734 Q398,734 474,721 L474,664 L316,664 Q211,664 211,587 Q211,562 222.5,536 Q234,510 261,473 L460,202 L609,341 L638,307 L569,214 L501,149 L612,0 L526,0 L449,103 L415,73 Q368,30 326.5,12 Q285,-6 235,-6 M280,68 Q339,94 373,127 L405,157 L240,379 L188,334 Q149,301 132.5,267.5 Q116,234 116,197 Q116,138 151.5,103 Q187,68 247,68"/> 
            <glyph glyph-name="'" unicode="&#x27;" horiz-adv-x="117" d=" M40,679 L40,746 L117,746 L117,679 L109,507 L48,507"/> 
            <glyph glyph-name="(" unicode="&#x28;" horiz-adv-x="325" d=" M169,-83 Q82,171 82,326 Q82,476 126.5,605 Q171,734 251,860 L324,860 Q247,725 204,596.5 Q161,468 161,326 Q161,181 202,56 Q243,-69 325,-210 L251,-210"/> 
            <glyph glyph-name=")" unicode="&#x29;" horiz-adv-x="264" d=" M102,-74 Q185,179 185,325 Q185,471 145,595 Q105,719 22,860 L96,860 Q179,733 221.5,607.5 Q264,482 264,325 Q264,171 221.5,44.5 Q179,-82 96,-210 L22,-210"/> 
            <glyph glyph-name="*" unicode="&#x2A;" horiz-adv-x="399" d=" M190,723 L221,733 L286,609 L241,590 M266,558 L380,641 L399,614 L297,522 M55,584 L55,616 L196,625 L198,578 M125,412 L155,547 L202,537 L155,402 M219,483 L243,525 L360,440 L341,414"/> 
            <glyph glyph-name="+" unicode="&#x2B;" horiz-adv-x="528" d=" M528,323 L337,323 L337,132 L271,132 L271,323 L80,323 L80,389 L271,389 L271,580 L337,580 L337,389 L528,389"/> 
            <glyph glyph-name="," unicode="&#x2C;" horiz-adv-x="137" d=" M81,-78 Q67,-76 65,-75 L65,-50 Q77,-50 81.5,-46.5 Q86,-43 86,-33 L86,5 L78,5 Q71,5 66.5,9.5 Q62,14 62,21 L62,93 Q62,111 78,111 L121,111 Q137,111 137,93 L137,-29 Q137,-78 90,-78"/> 
            <glyph glyph-name="-" unicode="&#x2D;" horiz-adv-x="318" d=" M25,323 L318,323 L318,257 L25,257"/> 
            <glyph glyph-name="." unicode="&#x2E;" horiz-adv-x="138" d=" M71,-1 Q62,8 62,15 L62,95 Q62,111 78,111 L122,111 Q138,111 138,95 L138,15 Q138,-1 122,-1 L78,-1"/> 
            <glyph glyph-name="/" unicode="&#x2F;" horiz-adv-x="380" d=" M303,770 L380,770 L99,-72 L22,-72"/> 
            <glyph glyph-name="0" unicode="&#x30;" horiz-adv-x="579" d=" M175,-2 Q76,85 76,173 L76,563 Q76,649 126,695.5 Q176,742 259,742 L402,742 Q491,742 535,694 Q579,646 579,563 L579,173 Q579,85 532,41.5 Q485,-2 402,-2 L259,-2 M384,69 Q499,69 499,183 L499,557 Q499,670 387,670 L272,670 Q218,670 187,640.5 Q156,611 156,557 L156,183 Q156,127 187,98 Q218,69 274,69"/> 
            <glyph glyph-name="1" unicode="&#x31;" horiz-adv-x="275" d=" M195,665 L44,624 L44,675 L203,743 L275,743 L275,0 L195,0"/> 
            <glyph glyph-name="2" unicode="&#x32;" horiz-adv-x="545" d=" M54,65 L326,326 Q388,385 413.5,433.5 Q439,482 439,543 Q439,603 404,635 Q369,667 280,667 L80,667 L80,728 Q128,733 186.5,737.5 Q245,742 297,742 Q416,742 467,692.5 Q518,643 518,553 Q518,476 488,416.5 Q458,357 387,289 L162,73 L545,73 L545,0 L54,0"/> 
            <glyph glyph-name="3" unicode="&#x33;" horiz-adv-x="514" d=" M154,-6 L43,7 L43,68 L284,68 Q356,68 395,92 Q434,116 434,180 L434,229 Q434,283 396.5,308 Q359,333 306,335 L117,342 L117,400 L303,408 Q424,413 424,504 L424,553 Q424,608 387.5,637.5 Q351,667 278,667 L68,667 L68,728 Q175,742 307,742 Q403,741 452.5,695 Q502,649 502,569 L502,506 Q502,445 469,412 Q436,379 396,371 Q422,365 449,347 Q476,329 495,296.5 Q514,264 514,219 L514,168 Q514,84 460.5,39 Q407,-6 310,-6"/> 
            <glyph glyph-name="4" unicode="&#x34;" horiz-adv-x="571" d=" M391,188 L44,188 L26,231 L304,736 L385,736 L118,256 L391,256 L391,452 L408,521 L470,521 L470,256 L571,256 L571,201 L470,188 L470,1 L391,1"/> 
            <glyph glyph-name="5" unicode="&#x35;" horiz-adv-x="567" d=" M194,-5 L84,6 L84,67 L339,67 Q406,67 447,99.5 Q488,132 488,188 L488,268 Q488,321 456.5,350 Q425,379 365,379 L286,379 Q193,379 179,295 L104,295 L125,736 L543,736 L543,664 L194,664 L181,394 Q194,416 225.5,431.5 Q257,447 301,447 L389,447 Q473,447 520,401 Q567,355 567,282 L567,173 Q567,86 505,40.5 Q443,-5 338,-5"/> 
            <glyph glyph-name="6" unicode="&#x36;" horiz-adv-x="559" d=" M207,-3 Q119,61 95,142.5 Q71,224 71,368 Q71,742 332,742 Q418,742 515,731 L515,670 L333,670 Q246,670 198.5,603 Q151,536 151,405 Q226,415 354,415 Q457,415 508,379 Q559,343 559,261 L559,158 Q559,74 512,35.5 Q465,-3 388,-3 L274,-3 M373,69 Q423,69 451.5,91 Q480,113 480,170 L480,248 Q480,307 445.5,327 Q411,347 336,347 L151,347 Q151,239 166.5,178 Q182,117 211.5,93 Q241,69 287,69"/> 
            <glyph glyph-name="7" unicode="&#x37;" horiz-adv-x="504" d=" M403,656 L33,656 L33,736 L478,736 L504,695 L235,0 L146,0"/> 
            <glyph glyph-name="8" unicode="&#x38;" horiz-adv-x="562" d=" M177,-2 Q82,68 82,144 L82,250 Q82,299 110.5,331.5 Q139,364 176,373 Q96,407 96,503 L96,587 Q96,666 140.5,703.5 Q185,741 258,741 L396,741 Q548,741 548,587 L548,503 Q548,465 528,429 Q508,393 473,383 Q517,374 539.5,337.5 Q562,301 562,256 L562,144 Q562,-2 396,-2 L261,-2 M376,409 Q424,409 447,436.5 Q470,464 470,501 L470,570 Q470,626 448,649.5 Q426,673 381,673 L272,673 Q220,673 197,649 Q174,625 174,570 L174,501 Q174,459 198.5,434 Q223,409 272,409 M380,66 Q433,66 458,88.5 Q483,111 483,155 L483,248 Q483,298 458.5,319.5 Q434,341 376,341 L272,341 Q232,341 196.5,318 Q161,295 161,248 L161,155 Q161,109 191,87.5 Q221,66 272,66"/> 
            <glyph glyph-name="9" unicode="&#x39;" horiz-adv-x="553" d=" M205,-5 L110,6 L110,67 L292,67 Q379,67 426.5,134 Q474,201 474,332 Q399,322 271,322 Q168,322 117,358 Q66,394 66,476 L66,579 Q66,662 112.5,701 Q159,740 236,740 L350,740 Q417,740 461,708 Q505,676 529,594.5 Q553,513 553,369 Q553,-5 293,-5 M474,390 Q474,498 458.5,559 Q443,620 413.5,644 Q384,668 337,668 L251,668 Q201,668 172.5,645.5 Q144,623 144,567 L144,489 Q144,431 179,410.5 Q214,390 289,390"/> 
            <glyph glyph-name=":" unicode="&#x3A;" horiz-adv-x="138" d=" M71,-1 Q62,8 62,15 L62,95 Q62,111 78,111 L122,111 Q138,111 138,95 L138,15 Q138,-1 122,-1 L78,-1 M71,422 Q62,431 62,438 L62,518 Q62,534 78,534 L122,534 Q138,534 138,518 L138,438 Q138,422 122,422 L78,422"/> 
            <glyph glyph-name=";" unicode="&#x3B;" horiz-adv-x="138" d=" M71,422 Q62,431 62,438 L62,518 Q62,534 78,534 L122,534 Q138,534 138,518 L138,438 Q138,422 122,422 L78,422 M81,-78 Q67,-76 65,-75 L65,-50 Q77,-50 81.5,-46.5 Q86,-43 86,-33 L86,5 L78,5 Q71,5 66.5,9.5 Q62,14 62,21 L62,93 Q62,111 78,111 L121,111 Q137,111 137,93 L137,-29 Q137,-78 90,-78"/> 
            <glyph glyph-name="&lt;" unicode="&#x3C;" horiz-adv-x="511" d=" M96,313 L96,385 L511,519 L511,450 L171,350 L511,246 L511,177"/> 
            <glyph glyph-name="=" unicode="&#x3D;" horiz-adv-x="528" d=" M80,525 L528,525 L528,459 L80,459 M80,509 L528,509 L528,443 L80,443"/> 
            <glyph glyph-name="&gt;" unicode="&#x3E;" horiz-adv-x="513" d=" M98,246 L438,349 L98,450 L98,519 L513,385 L513,313 L98,177"/> 
            <glyph glyph-name="?" unicode="&#x3F;" horiz-adv-x="453" d=" M170,356 L220,356 Q303,356 338,381 Q373,406 373,471 L373,530 Q373,605 341,636.5 Q309,668 237,668 Q188,668 143,659 Q98,650 45,630 L45,686 Q136,739 260,739 Q362,739 407.5,687.5 Q453,636 453,541 L453,470 Q453,380 400,336.5 Q347,293 231,293 L231,199 L170,199 M171,-1 Q162,8 162,15 L162,95 Q162,111 178,111 L222,111 Q238,111 238,95 L238,15 Q238,-1 222,-1 L178,-1"/> 
            <glyph glyph-name="@" unicode="&#x40;" horiz-adv-x="781" d=" M176,-164 Q71,-65 71,33 L71,355 Q71,426 111,482.5 Q151,539 262,539 L453,539 Q526,539 572.5,507 Q619,475 619,389 L619,27 L570,27 L558,88 Q556,87 498.5,52.5 Q441,18 362,18 Q303,18 268.5,55 Q234,92 234,145 L234,191 Q234,250 270,282 Q306,314 372,314 L556,314 L556,384 Q556,476 453,476 L262,476 Q202,476 168,448 Q134,420 134,352 L134,40 Q134,-35 171.5,-67.5 Q209,-100 262,-100 L581,-100 Q652,-100 685,-65 Q718,-30 718,40 L718,519 Q718,588 682.5,628.5 Q647,669 581,669 L187,669 L187,716 Q222,723 305,727.5 Q388,732 485,732 L581,732 Q669,732 725,679 Q781,626 781,519 L781,40 Q781,-60 734,-112 Q687,-164 584,-164 L262,-164 M422,81 Q526,115 556,134 L556,271 L386,262 Q349,260 324.5,246 Q300,232 300,192 L300,157 Q300,122 323,101.5 Q346,81 386,81"/> 
            <glyph glyph-name="A" unicode="&#x41;" horiz-adv-x="640" d=" M286,736 L388,736 L640,0 L558,0 L484,210 L188,210 L116,0 L34,0 M464,282 L337,666 L208,282"/> 
            <glyph glyph-name="B" unicode="&#x42;" horiz-adv-x="559" d=" M77,736 L343,736 Q533,736 533,547 Q533,481 503.5,438 Q474,395 429,382 Q479,371 519,327 Q559,283 559,204 Q559,92 507,46 Q455,0 353,0 L77,0 M348,410 Q397,410 427,446.5 Q457,483 457,544 Q457,664 343,664 L157,664 L157,410 M351,71 Q415,71 449,103 Q483,135 483,217 Q483,277 445.5,312 Q408,347 351,347 L157,347 L157,71"/> 
            <glyph glyph-name="C" unicode="&#x43;" horiz-adv-x="535" d=" M223,-6 Q113,53 86,134 Q59,215 59,370 Q59,517 87,597.5 Q115,678 172,710 Q229,742 324,742 Q370,742 429.5,734.5 Q489,727 535,715 L535,656 Q500,661 445,666 Q390,671 336,671 Q261,671 219,646.5 Q177,622 157.5,557.5 Q138,493 138,369 Q138,241 156.5,176.5 Q175,112 216,88.5 Q257,65 334,65 Q461,65 535,78 L535,18 Q489,7 431.5,0.5 Q374,-6 318,-6"/> 
            <glyph glyph-name="D" unicode="&#x44;" horiz-adv-x="610" d=" M77,736 L368,736 Q497,736 553.5,644 Q610,552 610,368 Q610,192 548.5,96 Q487,0 368,0 L77,0 M362,71 Q447,71 489,149.5 Q531,228 531,368 Q531,477 513.5,542 Q496,607 459,635.5 Q422,664 362,664 L157,664 L157,71"/> 
            <glyph glyph-name="E" unicode="&#x45;" horiz-adv-x="530" d=" M164,-4 Q77,55 77,139 L77,588 Q77,666 119,701 Q161,736 222,736 Q382,733 471,729 L530,727 L530,663 L242,663 Q157,663 157,575 L157,401 L486,396 L486,335 L157,330 L157,157 Q157,106 181,88 Q205,70 246,70 L530,70 L530,6 Q340,-4 227,-4"/> 
            <glyph glyph-name="F" unicode="&#x46;" horiz-adv-x="530" d=" M77,588 Q77,666 119,701 Q161,736 222,736 L278,735 Q302,734 382.5,732.5 Q463,731 530,726 L530,663 L241,663 Q201,663 179,640.5 Q157,618 157,576 L157,385 L486,380 L486,319 L157,314 L157,0 L77,0"/> 
            <glyph glyph-name="G" unicode="&#x47;" horiz-adv-x="575" d=" M202,-5 Q100,74 79.5,154.5 Q59,235 59,370 Q59,501 81,581 Q103,661 157.5,701.5 Q212,742 308,742 Q365,742 428,735 Q491,728 545,716 L545,657 Q505,662 442,666.5 Q379,671 320,671 Q248,671 208.5,641 Q169,611 153.5,546.5 Q138,482 138,369 Q138,249 153.5,185 Q169,121 207,94.5 Q245,68 317,68 Q361,68 409.5,79 Q458,90 499,106 L499,323 L321,323 L321,382 Q386,392 486,392 Q544,392 575,388 L575,0 L517,0 L505,52 Q460,29 405,12 Q350,-5 293,-5"/> 
            <glyph glyph-name="H" unicode="&#x48;" horiz-adv-x="604" d=" M77,736 L157,736 L157,395 L525,395 L525,736 L604,736 L604,0 L525,0 L525,324 L157,324 L157,0 L77,0"/> 
            <glyph glyph-name="I" unicode="&#x49;" horiz-adv-x="157" d=" M77,736 L157,736 L157,0 L77,0"/> 
            <glyph glyph-name="J" unicode="&#x4A;" horiz-adv-x="307" d=" M112,-6 Q48,7 27,17 L27,78 Q88,65 125,65 Q176,65 202,88 Q228,111 228,171 L228,736 L307,736 L307,161 Q307,71 266.5,32.5 Q226,-6 140,-6"/> 
            <glyph glyph-name="K" unicode="&#x4B;" horiz-adv-x="575" d=" M77,736 L157,736 L157,403 L286,403 L488,736 L572,736 L349,368 L575,0 L490,0 L286,331 L157,331 L157,0 L77,0"/> 
            <glyph glyph-name="L" unicode="&#x4C;" horiz-adv-x="506" d=" M155,0 Q77,67 77,148 L77,736 L157,736 L157,159 Q157,110 180,91.5 Q203,73 242,73 L506,73 L506,0 L225,0"/> 
            <glyph glyph-name="M" unicode="&#x4D;" horiz-adv-x="778" d=" M701,0 L631,611 L454,0 L381,0 L201,606 L134,0 L57,0 L141,736 L222,736 L418,100 L610,736 L692,736 L778,0"/> 
            <glyph glyph-name="N" unicode="&#x4E;" horiz-adv-x="619" d=" M91,736 L156,736 L540,137 L540,736 L619,736 L619,0 L554,0 L170,599 L170,0 L91,0"/> 
            <glyph glyph-name="O" unicode="&#x4F;" horiz-adv-x="627" d=" M239,-6 Q120,49 89.5,128.5 Q59,208 59,365 Q59,521 90.5,602.5 Q122,684 182,713 Q242,742 343,742 Q447,742 507,713.5 Q567,685 597,603.5 Q627,522 627,365 Q627,208 596.5,128.5 Q566,49 506.5,21.5 Q447,-6 343,-6 M423,65 Q508,109 528,173 Q548,237 548,365 Q548,498 528,563 Q508,628 465.5,649.5 Q423,671 343,671 Q267,671 224,649.5 Q181,628 159.5,562 Q138,496 138,365 Q138,236 157,172.5 Q176,109 218.5,87 Q261,65 343,65"/> 
            <glyph glyph-name="P" unicode="&#x50;" horiz-adv-x="562" d=" M77,736 L370,736 Q562,736 562,501 Q562,363 504.5,311 Q447,259 366,259 Q337,259 269,262.5 Q201,266 157,269 L157,0 L77,0 M356,330 Q482,330 482,500 Q482,664 363,664 L157,664 L157,330"/> 
            <glyph glyph-name="Q" unicode="&#x51;" horiz-adv-x="627" d=" M239,-6 Q120,49 89.5,128.5 Q59,208 59,365 Q59,521 90.5,602.5 Q122,684 182,713 Q242,742 343,742 Q447,742 507,713.5 Q567,685 597,603.5 Q627,522 627,365 Q627,208 596.5,128.5 Q566,49 506.5,21.5 Q447,-6 343,-6 M423,65 Q508,109 528,173 Q548,237 548,365 Q548,498 528,563 Q508,628 465.5,649.5 Q423,671 343,671 Q267,671 224,649.5 Q181,628 159.5,562 Q138,496 138,365 Q138,236 157,172.5 Q176,109 218.5,87 Q261,65 343,65 M446,-170 Q354,-99 346,-35 L400,-35 Q411,-72 440.5,-90.5 Q470,-109 505,-109 Q530,-109 557,-100 L557,-162 Q530,-170 506,-170"/> 
            <glyph glyph-name="R" unicode="&#x52;" horiz-adv-x="569" d=" M77,736 L367,736 Q453,736 505.5,690 Q558,644 558,519 Q558,412 518,368 Q478,324 418,312 L569,0 L488,0 L345,301 L290,302 L157,305 L157,0 L77,0 M355,366 Q414,366 446.5,398 Q479,430 479,519 Q479,603 446,633.5 Q413,664 355,664 L157,664 L157,366"/> 
            <glyph glyph-name="S" unicode="&#x53;" horiz-adv-x="519" d=" M239,-6 Q100,5 63,12 L63,73 Q141,65 283,65 Q359,65 401,89 Q443,113 443,176 L443,226 Q443,330 333,330 L254,330 Q159,330 109.5,371.5 Q60,413 60,508 L60,550 Q60,651 114,696.5 Q168,742 274,742 Q319,742 382.5,735.5 Q446,729 486,721 L486,661 Q351,670 282,670 Q208,670 172,643.5 Q136,617 136,547 L136,513 Q136,455 166.5,430.5 Q197,406 257,406 L342,406 Q429,406 474,359.5 Q519,313 519,235 L519,178 Q519,75 456.5,34.5 Q394,-6 286,-6"/> 
            <glyph glyph-name="T" unicode="&#x54;" horiz-adv-x="550" d=" M244,664 L16,664 L16,736 L550,736 L550,664 L323,664 L323,0 L244,0"/> 
            <glyph glyph-name="U" unicode="&#x55;" horiz-adv-x="609" d=" M205,-6 Q67,98 67,228 L67,736 L147,736 L147,228 Q147,138 194.5,102 Q242,66 338,66 Q434,66 481.5,102 Q529,138 529,228 L529,736 L609,736 L609,228 Q609,98 540,46 Q471,-6 338,-6"/> 
            <glyph glyph-name="V" unicode="&#x56;" horiz-adv-x="640" d=" M34,736 L116,736 L338,83 L559,736 L640,736 L388,0 L286,0"/> 
            <glyph glyph-name="W" unicode="&#x57;" horiz-adv-x="957" d=" M34,736 L116,736 L274,109 L456,736 L536,736 L717,109 L875,736 L957,736 L768,0 L682,0 L496,625 L309,0 L223,0"/> 
            <glyph glyph-name="X" unicode="&#x58;" horiz-adv-x="588" d=" M358,362 L586,0 L499,0 L309,302 L125,0 L38,0 L267,368 L35,736 L122,736 L316,428 L501,736 L588,736"/> 
            <glyph glyph-name="Y" unicode="&#x59;" horiz-adv-x="582" d=" M269,244 L35,736 L118,736 L310,324 L502,736 L582,736 L349,244 L349,0 L269,0"/> 
            <glyph glyph-name="Z" unicode="&#x5A;" horiz-adv-x="522" d=" M43,65 L426,664 L43,664 L43,736 L522,736 L522,671 L139,71 L522,71 L522,0 L43,0"/> 
            <glyph glyph-name="[" unicode="&#x5B;" horiz-adv-x="312" d=" M158,-210 Q93,-97 93,-22 L93,660 Q93,737 128,789.5 Q163,842 249,842 L312,842 L312,777 L268,777 Q223,777 197.5,746.5 Q172,716 172,651 L172,-19 Q172,-77 195.5,-111 Q219,-145 268,-145 L312,-145 L312,-210 L249,-210"/> 
            <glyph glyph-name="\" unicode="&#x5C;" horiz-adv-x="380" d=" M22,770 L99,770 L380,-72 L303,-72"/> 
            <glyph glyph-name="]" unicode="&#x5D;" horiz-adv-x="240" d=" M22,-145 L65,-145 Q115,-145 138,-111.5 Q161,-78 161,-19 L161,651 Q161,716 135.5,746.5 Q110,777 65,777 L22,777 L22,842 L85,842 Q171,842 205.5,789.5 Q240,737 240,660 L240,-22 Q240,-97 207.5,-153.5 Q175,-210 85,-210 L22,-210"/> 
            <glyph glyph-name="^" unicode="&#x5E;" horiz-adv-x="343" d=" M177,664 L233,664 L343,531 L295,531 L204,625 L104,531 L55,531"/> 
            <glyph glyph-name="_" unicode="&#x5F;" horiz-adv-x="609" d=" M0,-98 L609,-98 L609,-164 L0,-164"/> 
            <glyph glyph-name="`" unicode="&#x60;" horiz-adv-x="193" d=" M22,767 L89,767 L193,631 L147,631"/> 
            <glyph glyph-name="a" unicode="&#x61;" horiz-adv-x="472" d=" M120,-6 Q45,66 45,128 L45,166 Q45,231 87.5,269 Q130,307 212,307 L393,307 L393,373 Q393,427 363.5,453 Q334,479 255,479 L89,479 L89,526 Q183,542 284,542 Q381,542 426.5,502.5 Q472,463 472,377 L472,0 L411,0 L396,61 Q389,55 352.5,38 Q316,21 269,7.5 Q222,-6 180,-6 M242,53 Q320,73 351.5,84 Q383,95 393,99 L393,267 L230,260 Q175,258 149.5,233 Q124,208 124,165 L124,141 Q124,95 150.5,74 Q177,53 215,53"/> 
            <glyph glyph-name="b" unicode="&#x62;" horiz-adv-x="521" d=" M241,-6 L155,54 L140,0 L76,0 L76,763 L155,763 L155,485 Q197,509 244.5,525 Q292,541 330,541 Q428,541 474.5,477 Q521,413 521,263 Q521,-6 333,-6 M374,60 Q442,163 442,266 Q442,350 425.5,395.5 Q409,441 380,458 Q351,475 308,475 Q266,475 231,464 Q196,453 155,430 L155,103 Q192,83 228.5,71.5 Q265,60 308,60"/> 
            <glyph glyph-name="c" unicode="&#x63;" horiz-adv-x="457" d=" M168,-6 Q57,113 57,266 Q57,373 82.5,433 Q108,493 155,516.5 Q202,540 272,540 Q368,540 449,526 L449,479 L293,479 Q238,479 204.5,461 Q171,443 153.5,396.5 Q136,350 136,264 Q136,182 154.5,136.5 Q173,91 207,73.5 Q241,56 294,56 L457,56 L457,10 Q363,-6 270,-6"/> 
            <glyph glyph-name="d" unicode="&#x64;" horiz-adv-x="502" d=" M150,-6 Q57,124 57,263 Q57,363 77,424 Q97,485 141,513 Q185,541 259,541 Q335,541 423,509 L423,763 L502,763 L502,0 L438,0 L423,54 Q399,33 346,13.5 Q293,-6 249,-6 M314,59 Q385,84 423,104 L423,453 Q376,467 346.5,473 Q317,479 280,479 Q227,479 196,459.5 Q165,440 150.5,394 Q136,348 136,266 Q136,154 167,106.5 Q198,59 272,59"/> 
            <glyph glyph-name="e" unicode="&#x65;" horiz-adv-x="484" d=" M194,-6 Q99,44 78,103 Q57,162 57,268 Q57,375 78.5,434 Q100,493 148,517 Q196,541 281,541 Q354,541 398,525 Q442,509 463,470.5 Q484,432 484,364 Q484,296 444.5,265.5 Q405,235 332,235 L136,235 Q137,166 150,128.5 Q163,91 198,73.5 Q233,56 299,56 L471,56 L471,8 Q417,1 375,-2.5 Q333,-6 280,-6 M325,287 Q371,287 392,304 Q413,321 413,363 Q413,430 383.5,455.5 Q354,481 281,481 Q223,481 192,464 Q161,447 148,406 Q135,365 135,287"/> 
            <glyph glyph-name="f" unicode="&#x66;" horiz-adv-x="361" d=" M105,469 L23,469 L23,520 L105,534 L105,595 Q105,684 139.5,726.5 Q174,769 258,769 Q309,769 361,759 L361,703 L272,703 Q221,703 202.5,678.5 Q184,654 184,599 L184,534 L350,534 L350,469 L184,469 L184,0 L105,0"/> 
            <glyph glyph-name="g" unicode="&#x67;" horiz-adv-x="553" d=" M553,490 L433,480 Q453,467 466.5,453.5 Q480,440 490.5,412.5 Q501,385 501,343 Q501,273 456,227 Q411,181 312,181 L227,181 Q182,181 159,168 Q136,155 136,124 Q136,102 152.5,91 Q169,80 192,80 L369,80 Q462,80 507.5,44 Q553,8 553,-67 L553,-89 Q553,-163 502.5,-204 Q452,-245 356,-245 L207,-245 Q126,-245 78.5,-211.5 Q31,-178 31,-113 L31,-89 Q31,-45 55,-14 Q79,17 118,34 Q93,46 80,66.5 Q67,87 67,113 Q67,189 157,208 Q105,229 83.5,270.5 Q62,312 62,363 Q62,535 268,535 L553,535 M374,242 Q429,302 429,352 Q429,473 313,473 L256,473 Q196,473 165,446.5 Q134,420 134,359 Q134,242 244,242 L304,242 M221,18 Q173,18 139.5,-5.5 Q106,-29 106,-76 L106,-98 Q106,-187 225,-187 L349,-187 Q411,-187 444.5,-163.5 Q478,-140 478,-92 L478,-72 Q478,-29 451,-5.5 Q424,18 359,18"/> 
            <glyph glyph-name="h" unicode="&#x68;" horiz-adv-x="515" d=" M76,763 L155,763 L155,475 Q196,504 247.5,523.5 Q299,543 351,543 Q432,543 473.5,493 Q515,443 515,364 L515,0 L436,0 L436,355 Q436,406 406,438.5 Q376,471 325,471 Q277,471 239.5,458.5 Q202,446 155,419 L155,0 L76,0"/> 
            <glyph glyph-name="i" unicode="&#x69;" horiz-adv-x="159" d=" M81,629 Q72,638 72,645 L72,723 Q72,739 88,739 L144,739 Q159,739 159,723 L159,645 Q159,629 144,629 L88,629 M76,534 L155,534 L155,0 L76,0"/> 
            <glyph glyph-name="j" unicode="&#x6A;" horiz-adv-x="159" d=" M80,629 Q71,638 71,645 L71,723 Q71,739 87,739 L144,739 Q151,739 155,734.5 Q159,730 159,723 L159,645 Q159,638 155,633.5 Q151,629 144,629 L87,629 M76,534 L155,534 L155,17 Q155,-52 149.5,-120 Q144,-188 135,-237 L76,-237"/> 
            <glyph glyph-name="k" unicode="&#x6B;" horiz-adv-x="490" d=" M76,763 L155,763 L155,321 L231,321 L394,534 L478,534 L290,285 L490,0 L406,0 L228,250 L155,250 L155,0 L76,0"/> 
            <glyph glyph-name="l" unicode="&#x6C;" horiz-adv-x="284" d=" M145,-1 Q76,77 76,171 L76,763 L155,763 L155,181 Q155,115 173,91 Q191,67 230,62 L284,56 L284,-1 L216,-1"/> 
            <glyph glyph-name="m" unicode="&#x6D;" horiz-adv-x="876" d=" M76,534 L138,534 L155,475 Q255,543 355,543 Q403,543 438.5,521.5 Q474,500 494,464 Q536,495 596.5,519 Q657,543 709,543 Q792,543 834,492 Q876,441 876,360 L876,0 L797,0 L797,354 Q797,406 766.5,438.5 Q736,471 684,471 Q641,471 594.5,455 Q548,439 505,413 Q515,381 515,353 L515,0 L436,0 L436,354 Q436,406 406.5,438.5 Q377,471 325,471 Q277,471 239.5,458.5 Q202,446 155,419 L155,0 L76,0"/> 
            <glyph glyph-name="n" unicode="&#x6E;" horiz-adv-x="515" d=" M76,534 L138,534 L155,475 Q197,504 248,523.5 Q299,543 350,543 Q433,543 474,492 Q515,441 515,363 L515,0 L436,0 L436,354 Q436,406 406.5,438.5 Q377,471 325,471 Q277,471 239.5,458.5 Q202,446 155,419 L155,0 L76,0"/> 
            <glyph glyph-name="o" unicode="&#x6F;" horiz-adv-x="520" d=" M206,-6 Q106,40 81.5,99.5 Q57,159 57,268 Q57,378 82,437.5 Q107,497 156,519 Q205,541 288,541 Q370,541 420,518.5 Q470,496 495,436.5 Q520,377 520,268 Q520,159 495,99.5 Q470,40 420.5,17 Q371,-6 288,-6 M343,59 Q406,88 423,133 Q440,178 440,268 Q440,358 423.5,402.5 Q407,447 375,461.5 Q343,476 288,476 Q232,476 200.5,461.5 Q169,447 152.5,402.5 Q136,358 136,268 Q136,178 152.5,133 Q169,88 200.5,73.5 Q232,59 288,59"/> 
            <glyph glyph-name="p" unicode="&#x70;" horiz-adv-x="521" d=" M76,534 L140,534 L155,479 Q187,502 236,521.5 Q285,541 330,541 Q428,541 474.5,464 Q521,387 521,268 Q521,131 474.5,62 Q428,-7 330,-7 Q287,-7 241.5,7 Q196,21 155,44 L155,-237 L76,-237 M442,60 L442,268 Q442,373 404,424 Q366,475 308,475 Q266,475 229,462.5 Q192,450 155,430 L155,103 Q231,60 308,60"/> 
            <glyph glyph-name="q" unicode="&#x71;" horiz-adv-x="502" d=" M423,54 Q383,27 336,10.5 Q289,-6 247,-6 Q144,-6 100.5,60.5 Q57,127 57,268 Q57,407 105.5,474 Q154,541 257,541 Q364,541 502,527 L502,-237 L423,-237 M340,59 L423,104 L423,479 L275,479 Q200,479 168,425 Q136,371 136,270 Q136,156 166,107.5 Q196,59 266,59"/> 
            <glyph glyph-name="r" unicode="&#x72;" horiz-adv-x="388" d=" M76,534 L136,534 L155,441 Q194,488 239,514 Q284,540 338,540 Q365,540 388,535 L388,454 Q343,459 330,459 Q277,459 238.5,440 Q200,421 155,379 L155,0 L76,0"/> 
            <glyph glyph-name="s" unicode="&#x73;" horiz-adv-x="451" d=" M215,-6 Q79,2 54,8 L54,56 L273,56 Q329,56 355,71 Q381,86 381,134 L381,158 Q381,233 284,233 L209,233 Q132,233 90.5,263 Q49,293 49,365 L49,393 Q49,469 93.5,504 Q138,539 237,539 Q280,539 338.5,534.5 Q397,530 430,524 L430,476 L224,476 Q170,476 144,458 Q118,440 118,393 L118,371 Q118,328 143.5,313.5 Q169,299 222,299 L298,299 Q371,299 411,265 Q451,231 451,167 L451,130 Q451,54 402,24 Q353,-6 260,-6"/> 
            <glyph glyph-name="t" unicode="&#x74;" horiz-adv-x="334" d=" M174,0 Q100,81 102,173 L105,469 L20,469 L20,520 L106,534 L119,683 L180,683 L180,534 L334,534 L334,469 L180,469 L180,173 Q180,112 203,89.5 Q226,67 261,64 L326,58 L326,0 L253,0"/> 
            <glyph glyph-name="u" unicode="&#x75;" horiz-adv-x="515" d=" M75,-6 L75,158 L75,534 L154,534 L154,178 Q154,114 182.5,89 Q211,64 270,64 Q315,64 354,76.5 Q393,89 436,115 L436,534 L515,534 L515,0 L453,0 L436,59 Q334,-6 235,-6"/> 
            <glyph glyph-name="v" unicode="&#x76;" horiz-adv-x="517" d=" M19,534 L100,534 L266,74 L437,534 L517,534 L310,0 L220,0"/> 
            <glyph glyph-name="w" unicode="&#x77;" horiz-adv-x="778" d=" M19,534 L100,534 L231,74 L366,534 L435,534 L570,74 L697,534 L778,534 L617,0 L530,0 L399,428 L267,0 L181,0"/> 
            <glyph glyph-name="x" unicode="&#x78;" horiz-adv-x="486" d=" M298,263 L486,0 L404,0 L251,214 L102,0 L22,0 L210,271 L22,534 L103,534 L258,319 L404,533 L486,534"/> 
            <glyph glyph-name="y" unicode="&#x79;" horiz-adv-x="522" d=" M287,0 Q242,1 205,29.5 Q168,58 147,125 L19,534 L102,534 L221,142 Q246,68 304,68 L441,534 L522,534 L327,-138 L281,-237 L219,-237"/> 
            <glyph glyph-name="z" unicode="&#x7A;" horiz-adv-x="451" d=" M51,60 L359,469 L44,469 L44,534 L451,534 L451,474 L142,65 L451,65 L451,0 L51,0"/> 
            <glyph glyph-name="{" unicode="&#x7B;" horiz-adv-x="288" d=" M179,-210 Q101,-119 101,-38 L101,229 Q101,261 77,279.5 Q53,298 22,296 L22,371 Q102,378 102,438 L102,656 Q102,842 288,842 L288,777 Q231,777 206,744.5 Q181,712 181,630 L181,427 Q181,386 157,362.5 Q133,339 93,334 Q131,328 155.5,303.5 Q180,279 180,245 L180,-15 Q180,-88 205,-118 Q230,-148 288,-148 L288,-210"/> 
            <glyph glyph-name="|" unicode="&#x7C;" horiz-adv-x="159" d=" M93,770 L159,770 L159,-72 L93,-72"/> 
            <glyph glyph-name="}" unicode="&#x7D;" horiz-adv-x="288" d=" M22,-148 Q80,-148 105,-118 Q130,-88 130,-15 L130,245 Q130,279 154.5,303.5 Q179,328 217,334 Q177,339 153,362.5 Q129,386 129,427 L129,630 Q129,712 104,744.5 Q79,777 22,777 L22,842 Q208,842 208,656 L208,438 Q208,378 288,371 L288,296 Q257,298 233,279.5 Q209,261 209,229 L209,-38 Q209,-119 170,-164.5 Q131,-210 22,-210"/> 
            <glyph glyph-name="~" unicode="&#x7E;" horiz-adv-x="396" d=" M272,538 Q239,556 215,572 Q212,574 199.5,582 Q187,590 178,594 Q169,598 162,598 Q138,598 118,587.5 Q98,577 66,553 L55,580 Q84,610 110.5,627 Q137,644 167,644 Q182,644 198,635.5 Q214,627 238,610 Q256,596 268,589.5 Q280,583 289,583 Q330,583 384,632 L396,603 Q369,573 344,555.5 Q319,538 288,538"/> 
            <glyph glyph-name="¡" unicode="&#xA1;" horiz-adv-x="174" d=" M165,535 Q174,526 174,519 L174,439 Q174,423 158,423 L114,423 Q98,423 98,439 L98,519 Q98,535 114,535 L158,535 M174,-201 L95,-201 L107,335 L164,335"/> 
            <glyph glyph-name="¢" unicode="&#xA2;" horiz-adv-x="443" d=" M239,-5 Q178,-4 136,18 Q94,40 69,99 Q44,158 44,266 Q44,375 68,434 Q92,493 134,514.5 Q176,536 240,536 L240,623 L288,623 L288,535 Q358,530 436,507 L436,460 Q371,474 261,474 Q212,474 183,458 Q154,442 138.5,396.5 Q123,351 123,263 Q123,179 139,134 Q155,89 185.5,73 Q216,57 266,57 Q360,57 443,75 L443,27 Q400,11 365.5,4 Q331,-3 286,-5 L286,-86 L239,-86"/> 
            <glyph glyph-name="£" unicode="&#xA3;" horiz-adv-x="544" d=" M63,59 L172,71 L172,334 L63,340 L63,382 L172,392 L172,518 Q172,641 224.5,689.5 Q277,738 384,738 Q444,738 532,728 L532,666 L388,666 Q340,666 311,655 Q282,644 267,613.5 Q252,583 252,525 L252,392 L466,385 L466,340 L252,334 L252,71 L544,71 L544,0 L63,0"/> 
            <glyph glyph-name="¤" unicode="&#xA4;" horiz-adv-x="531" d=" M469,303 L437,260 L531,166 L494,129 L400,223 Q357,191 304,191 Q251,191 208,223 L114,129 L77,166 L171,260 Q140,304 140,356 Q140,408 171,452 L77,546 L114,583 L208,489 Q251,521 304,521 Q357,521 400,489 L494,583 L531,546 L437,452 Q469,409 469,356 M353,238 Q422,308 422,356 Q422,405 387.5,439.5 Q353,474 304,474 Q256,474 222,439.5 Q188,405 188,356 Q188,308 222,273 Q256,238 304,238"/> 
            <glyph glyph-name="¥" unicode="&#xA5;" horiz-adv-x="567" d=" M364,307 L530,307 L530,260 L342,260 L334,244 L334,181 L530,181 L530,134 L334,134 L334,0 L254,0 L254,134 L79,134 L79,181 L254,181 L254,244 L246,260 L79,260 L79,307 L224,307 L20,736 L103,736 L295,324 L487,736 L567,736"/> 
            <glyph glyph-name="¦" unicode="&#xA6;" horiz-adv-x="159" d=" M93,770 L159,770 L159,429 L93,429 M93,256 L159,256 L159,-72 L93,-72"/> 
            <glyph glyph-name="§" unicode="&#xA7;" horiz-adv-x="498" d=" M265,-6 Q128,-1 97,4 L97,59 L302,59 Q366,59 389,76.5 Q412,94 412,129 L412,182 Q412,205 406.5,216.5 Q401,228 384,232.5 Q367,237 330,237 L203,237 Q124,237 89,260.5 Q54,284 54,343 L54,396 Q54,440 70,460.5 Q86,481 122,491 Q63,509 63,590 L63,653 Q63,721 103.5,752.5 Q144,784 226,784 Q279,784 352,781 Q425,778 454,773 L454,719 L236,719 Q186,719 162.5,703 Q139,687 139,642 L139,593 Q139,560 157.5,548.5 Q176,537 220,537 L346,537 Q405,537 438,526 Q471,515 484.5,491.5 Q498,468 498,427 L498,375 Q498,333 483,311.5 Q468,290 433,283 Q466,275 477.5,251 Q489,227 489,190 L489,126 Q489,54 445.5,24 Q402,-6 316,-6 M330,299 Q373,299 391,303 Q409,307 415.5,319 Q422,331 422,361 L422,412 Q422,438 414.5,451 Q407,464 387.5,469.5 Q368,475 330,475 L219,475 Q168,475 149,461.5 Q130,448 130,410 L130,360 Q130,329 149,314 Q168,299 219,299"/> 
            <glyph glyph-name="¨" unicode="&#xA8;" horiz-adv-x="338" d=" M84,653 Q75,662 75,669 L75,747 Q75,763 91,763 L128,763 Q135,763 139,758.5 Q143,754 143,747 L143,669 Q143,662 139,657.5 Q135,653 128,653 L91,653 M279,653 Q270,662 270,669 L270,747 Q270,763 286,763 L323,763 Q330,763 334,758.5 Q338,754 338,747 L338,669 Q338,662 334,657.5 Q330,653 323,653 L286,653"/> 
            <glyph glyph-name="©" unicode="&#xA9;" horiz-adv-x="781" d=" M225,0 Q112,111 86,195 Q60,279 60,368 Q60,523 117,627.5 Q174,732 313,732 L551,732 Q684,732 732.5,625 Q781,518 781,368 Q781,260 754.5,176.5 Q728,93 676.5,46.5 Q625,0 551,0 L313,0 M547,43 Q601,43 643.5,78.5 Q686,114 710,187 Q734,260 734,368 Q734,511 692.5,600 Q651,689 551,689 L313,689 Q222,689 164.5,614.5 Q107,540 107,361 Q107,279 130,206.5 Q153,134 199.5,88.5 Q246,43 313,43 M318,147 Q237,243 237,365 Q237,583 388,583 Q423,583 474,578 Q525,573 563,564 L563,528 Q520,534 474,537 Q428,540 401,540 Q343,540 313.5,498.5 Q284,457 284,362 Q284,275 311,232.5 Q338,190 400,190 Q491,190 569,206 L569,170 Q528,156 487,151.5 Q446,147 388,147"/> 
            <glyph glyph-name="ª" unicode="&#xAA;" horiz-adv-x="365" d=" M32,531 Q94,582 154,582 L287,582 L287,631 Q287,668 266,685.5 Q245,703 187,703 L64,703 L64,744 Q128,757 210,758 Q285,758 321,729 Q357,700 357,635 L357,360 L303,360 L290,404 Q284,399 257.5,387 Q231,375 197,365.5 Q163,356 133,356 Q88,356 60,381.5 Q32,407 32,451 L32,484 M182,404 Q237,418 259,425.5 Q281,433 287,436 L287,553 L170,547 Q132,546 114,528.5 Q96,511 96,482 L96,465 Q96,433 115.5,418.5 Q135,404 162,404 M34,306 L365,306 L365,264 L34,264"/> 
            <glyph glyph-name="«" unicode="&#xAB;" horiz-adv-x="564" d=" M55,280 L268,489 L310,448 L139,280 L314,109 L272,65 M305,280 L518,489 L560,448 L389,280 L564,109 L522,65"/> 
            <glyph glyph-name="¬" unicode="&#xAC;" horiz-adv-x="528" d=" M528,509 L528,203 L462,203 L462,443 L80,443 L80,509"/> 
            <glyph glyph-name="­" unicode="&#xAD;" horiz-adv-x="318" d=" M25,323 L318,323 L318,257 L25,257"/> 
            <glyph glyph-name="®" unicode="&#xAE;" horiz-adv-x="781" d=" M225,0 Q112,111 86,195 Q60,279 60,368 Q60,523 117,627.5 Q174,732 313,732 L551,732 Q684,732 732.5,625 Q781,518 781,368 Q781,260 754.5,176.5 Q728,93 676.5,46.5 Q625,0 551,0 L313,0 M547,43 Q601,43 643.5,78.5 Q686,114 710,187 Q734,260 734,368 Q734,511 692.5,600 Q651,689 551,689 L313,689 Q222,689 164.5,614.5 Q107,540 107,361 Q107,279 130,206.5 Q153,134 199.5,88.5 Q246,43 313,43 M269,580 L450,580 Q508,580 542.5,552 Q577,524 577,450 Q577,403 562,379 Q547,355 529,348 Q511,341 481,335 L583,153 L535,153 L435,335 L316,339 L316,153 L269,153 M452,372 Q494,372 512,387 Q530,402 530,449 Q530,497 510,517 Q490,537 452,537 L316,537 L316,372"/> 
            <glyph glyph-name="¯" unicode="&#xAF;" horiz-adv-x="320" d=" M55,719 L320,719 L320,672 L55,672"/> 
            <glyph glyph-name="°" unicode="&#xB0;" horiz-adv-x="296" d=" M108,497 Q34,571 34,629 Q34,687 71.5,724.5 Q109,762 165,762 Q223,762 259.5,724.5 Q296,687 296,629 Q296,571 259.5,534 Q223,497 165,497 M206,535 Q258,588 258,629 Q258,670 232,697 Q206,724 165,724 Q124,724 97.5,697 Q71,670 71,629 Q71,588 97.5,561.5 Q124,535 165,535"/> 
            <glyph glyph-name="±" unicode="&#xB1;" horiz-adv-x="528" d=" M80,65725 L528,65725 L528,65659 L80,65659 M528,473 L337,473 L337,282 L271,282 L271,473 L80,473 L80,539 L271,539 L271,730 L337,730 L337,539 L528,539"/> 
            <glyph glyph-name="²" unicode="&#xB2;" horiz-adv-x="415" d=" M48,333 L244,522 Q288,563 306.5,598.5 Q325,634 325,676 Q325,716 300.5,738 Q276,760 214,760 L67,760 L67,813 L96,816 Q174,824 229,824 Q319,824 357,787.5 Q395,751 395,684 Q395,628 373,585.5 Q351,543 296,489 L143,343 L415,343 L415,280 L48,280"/> 
            <glyph glyph-name="³" unicode="&#xB3;" horiz-adv-x="394" d=" M111,276 L41,287 L41,340 L216,340 Q268,340 296,356.5 Q324,373 324,416 L324,449 Q324,486 298,503 Q272,520 233,522 L96,527 L96,578 L230,583 Q272,585 294,600.5 Q316,616 316,649 L316,683 Q316,760 211,760 L59,760 L59,813 Q132,825 238,824 Q310,824 347.5,790 Q385,756 385,696 L385,651 Q385,607 361.5,583.5 Q338,560 308,552 Q341,545 367.5,517.5 Q394,490 394,443 L394,407 Q394,344 353,310 Q312,276 237,276"/> 
            <glyph glyph-name="´" unicode="&#xB4;" horiz-adv-x="193" d=" M126,767 L193,767 L68,631 L22,631"/> 
            <glyph glyph-name="¶" unicode="&#xB6;" horiz-adv-x="558" d=" M274,323 Q265,317 244.5,313.5 Q224,310 195,311 Q118,311 77.5,354 Q37,397 37,462 L37,596 Q37,664 84,700 Q131,736 200,736 L558,736 L558,677 L481,677 L481,0 L425,0 L425,679 L330,679 L330,-270 L274,-270 M274,367 L274,679 L203,679 Q148,679 120.5,653.5 Q93,628 93,583 L93,469 Q93,409 129,388 Q165,367 203,367"/> 
            <glyph glyph-name="·" unicode="&#xB7;" horiz-adv-x="170" d=" M102,332 Q93,340 93,347 L93,394 Q93,410 109,410 L153,410 Q170,410 170,394 L170,347 Q170,332 153,332 L109,332"/> 
            <glyph glyph-name="¸" unicode="&#xB8;" horiz-adv-x="184" d=" M184,-58 L184,-118 Q184,-152 159,-171 Q134,-190 88,-190 L55,-190 L55,-157 L77,-155 Q105,-152 119,-141.5 Q133,-131 133,-110 Q133,-91 118.5,-79 Q104,-67 67,-66 L119,13 L156,13 L112,-54"/> 
            <glyph glyph-name="¹" unicode="&#xB9;" horiz-adv-x="404" d=" M404,341 L404,280 L68,280 L68,341 L201,341 L201,758 L76,728 L76,778 L207,825 L271,825 L271,341"/> 
            <glyph glyph-name="º" unicode="&#xBA;" horiz-adv-x="391" d=" M278,757 Q353,723 372,679.5 Q391,636 391,556 Q391,476 372.5,433 Q354,390 316.5,373 Q279,356 215,356 Q152,356 114.5,373.5 Q77,391 58.5,434 Q40,477 40,556 Q40,637 58.5,680.5 Q77,724 114.5,740.5 Q152,757 215,757 M253,408 Q297,429 309,461 Q321,493 321,557 Q321,621 309,653 Q297,685 275,695 Q253,705 215,705 Q176,705 154.5,695 Q133,685 121.5,653 Q110,621 110,557 Q110,493 121.5,461 Q133,429 155,418.5 Q177,408 215,408 M49,306 L382,306 L382,264 L49,264"/> 
            <glyph glyph-name="»" unicode="&#xBB;" horiz-adv-x="557" d=" M52,108 L223,277 L49,447 L92,489 L307,277 L93,65 M302,108 L473,277 L299,447 L342,489 L557,277 L343,65"/> 
            <glyph glyph-name="¼" unicode="&#xBC;" horiz-adv-x="1231" d=" M796,770 L854,770 L479,0 L420,0 M1093,133 L839,133 L828,179 L1024,540 L1095,540 L905,191 L1093,191 L1093,317 L1110,381 L1160,381 L1160,191 L1231,191 L1231,144 L1160,133 L1160,1 L1093,1 M411,341 L411,280 L75,280 L75,341 L208,341 L208,758 L83,728 L83,778 L214,825 L278,825 L278,341"/> 
            <glyph glyph-name="½" unicode="&#xBD;" horiz-adv-x="1210" d=" M796,770 L854,770 L479,0 L420,0 M843,53 L1039,242 Q1083,283 1101.5,318.5 Q1120,354 1120,396 Q1120,436 1095.5,458 Q1071,480 1009,480 L862,480 L862,533 L891,536 Q969,544 1024,544 Q1114,544 1152,507.5 Q1190,471 1190,404 Q1190,348 1168,305.5 Q1146,263 1091,209 L938,63 L1210,63 L1210,0 L843,0 M411,341 L411,280 L75,280 L75,341 L208,341 L208,758 L83,728 L83,778 L214,825 L278,825 L278,341"/> 
            <glyph glyph-name="¾" unicode="&#xBE;" horiz-adv-x="1231" d=" M796,770 L854,770 L479,0 L420,0 M1093,133 L839,133 L828,179 L1024,540 L1095,540 L905,191 L1093,191 L1093,317 L1110,381 L1160,381 L1160,191 L1231,191 L1231,144 L1160,133 L1160,1 L1093,1 M121,276 L51,287 L51,340 L226,340 Q278,340 306,356.5 Q334,373 334,416 L334,449 Q334,486 308,503 Q282,520 243,522 L106,527 L106,578 L240,583 Q282,585 304,600.5 Q326,616 326,649 L326,683 Q326,760 221,760 L69,760 L69,813 Q142,825 248,824 Q320,824 357.5,790 Q395,756 395,696 L395,651 Q395,607 371.5,583.5 Q348,560 318,552 Q351,545 377.5,517.5 Q404,490 404,443 L404,407 Q404,344 363,310 Q322,276 247,276"/> 
            <glyph glyph-name="¿" unicode="&#xBF;" horiz-adv-x="486" d=" M360,535 Q369,526 369,519 L369,439 Q369,423 353,423 L309,423 Q293,423 293,439 L293,519 Q293,535 309,535 L353,535 M361,178 L311,178 Q228,178 193,153 Q158,128 158,63 L158,4 Q158,-71 190,-102.5 Q222,-134 294,-134 Q343,-134 388,-125 Q433,-116 486,-96 L486,-152 Q395,-205 271,-205 Q169,-205 123.5,-153.5 Q78,-102 78,-7 L78,64 Q78,154 131.5,197.5 Q185,241 300,241 L300,335 L361,335"/> 
            <glyph glyph-name="À" unicode="&#xC0;" horiz-adv-x="640" d=" M286,736 L388,736 L640,0 L558,0 L484,210 L188,210 L116,0 L34,0 M464,282 L337,666 L208,282 M194,927 L261,927 L365,791 L319,791"/> 
            <glyph glyph-name="Á" unicode="&#xC1;" horiz-adv-x="640" d=" M286,736 L388,736 L640,0 L558,0 L484,210 L188,210 L116,0 L34,0 M464,282 L337,666 L208,282 M422,927 L489,927 L364,791 L318,791"/> 
            <glyph glyph-name="Â" unicode="&#xC2;" horiz-adv-x="640" d=" M286,736 L388,736 L640,0 L558,0 L484,210 L188,210 L116,0 L34,0 M464,282 L337,666 L208,282 M312,926 L368,926 L478,791 L430,791 L339,888 L239,791 L190,791"/> 
            <glyph glyph-name="Ã" unicode="&#xC3;" horiz-adv-x="640" d=" M286,736 L388,736 L640,0 L558,0 L484,210 L188,210 L116,0 L34,0 M464,282 L337,666 L208,282 M166,862 Q222,914 261,914 Q284,914 302.5,905.5 Q321,897 348,881 Q369,867 384.5,860 Q400,853 416,853 Q442,853 459,869.5 Q476,886 477,916 L517,916 Q516,865 491,836 Q466,807 421,807 Q400,807 381.5,815 Q363,823 336,840 Q313,854 297,861.5 Q281,869 265,869 Q240,869 223.5,853 Q207,837 206,807 L165,807"/> 
            <glyph glyph-name="Ä" unicode="&#xC4;" horiz-adv-x="640" d=" M286,736 L388,736 L640,0 L558,0 L484,210 L188,210 L116,0 L34,0 M464,282 L337,666 L208,282 M186,813 Q177,822 177,829 L177,907 Q177,923 193,923 L230,923 Q237,923 241.5,918.5 Q246,914 246,907 L246,829 Q246,822 241.5,817.5 Q237,813 230,813 L193,813 M422,813 Q413,822 413,829 L413,907 Q413,923 429,923 L466,923 Q473,923 477,918.5 Q481,914 481,907 L481,829 Q481,822 477,817.5 Q473,813 466,813 L429,813"/> 
            <glyph glyph-name="Å" unicode="&#xC5;" horiz-adv-x="640" d=" M286,736 L388,736 L640,0 L558,0 L484,210 L188,210 L116,0 L34,0 M464,282 L337,666 L208,282 M281,764 Q226,812 226,870 Q226,929 254,953.5 Q282,978 338,978 Q394,978 421,953.5 Q448,929 448,870 Q448,812 421,788 Q394,764 338,764 M376,797 Q408,828 408,870 Q408,912 392,928.5 Q376,945 338,945 Q300,945 282.5,928.5 Q265,912 265,870 Q265,829 282.5,813 Q300,797 338,797"/> 
            <glyph glyph-name="Æ" unicode="&#xC6;" horiz-adv-x="906" d=" M558,-4 Q483,52 480,118 L480,209 L242,209 L113,0 L34,0 L391,601 Q429,672 480.5,704 Q532,736 612,736 Q711,736 863,728 L906,726 L906,663 L625,663 Q586,663 569.5,647 Q553,631 553,596 L553,401 L863,396 L863,335 L553,330 L553,157 Q553,110 577,90 Q601,70 648,70 L906,70 L906,7 L880,6 Q724,-4 630,-4 M480,277 L480,615 L279,277"/> 
            <glyph glyph-name="Ç" unicode="&#xC7;" horiz-adv-x="535" d=" M261,671 Q177,622 157.5,557.5 Q138,493 138,369 Q138,241 156.5,176.5 Q175,112 216,88.5 Q257,65 334,65 Q461,65 535,78 L535,18 Q456,-2 352,-5 L320,-54 Q392,-58 392,-118 Q392,-152 367,-171 Q342,-190 296,-190 L263,-190 L263,-157 L285,-155 Q313,-152 327,-141.5 Q341,-131 341,-110 Q341,-91 326.5,-79 Q312,-67 275,-66 L314,-6 Q221,-5 167,24.5 Q113,54 86,135 Q59,216 59,370 Q59,517 87,597.5 Q115,678 172,710 Q229,742 324,742 Q370,742 429.5,734.5 Q489,727 535,715 L535,656 Q500,661 445,666 Q390,671 336,671"/> 
            <glyph glyph-name="È" unicode="&#xC8;" horiz-adv-x="530" d=" M164,-4 Q77,55 77,139 L77,588 Q77,666 119,701 Q161,736 222,736 Q382,733 471,729 L530,727 L530,663 L242,663 Q157,663 157,575 L157,401 L486,396 L486,335 L157,330 L157,157 Q157,106 181,88 Q205,70 246,70 L530,70 L530,6 Q340,-4 227,-4 M168,927 L235,927 L339,791 L293,791"/> 
            <glyph glyph-name="É" unicode="&#xC9;" horiz-adv-x="530" d=" M164,-4 Q77,55 77,139 L77,588 Q77,666 119,701 Q161,736 222,736 Q382,733 471,729 L530,727 L530,663 L242,663 Q157,663 157,575 L157,401 L486,396 L486,335 L157,330 L157,157 Q157,106 181,88 Q205,70 246,70 L530,70 L530,6 Q340,-4 227,-4 M396,927 L463,927 L338,791 L292,791"/> 
            <glyph glyph-name="Ê" unicode="&#xCA;" horiz-adv-x="530" d=" M164,-4 Q77,55 77,139 L77,588 Q77,666 119,701 Q161,736 222,736 Q382,733 471,729 L530,727 L530,663 L242,663 Q157,663 157,575 L157,401 L486,396 L486,335 L157,330 L157,157 Q157,106 181,88 Q205,70 246,70 L530,70 L530,6 Q340,-4 227,-4 M286,926 L342,926 L452,791 L404,791 L313,888 L213,791 L164,791"/> 
            <glyph glyph-name="Ë" unicode="&#xCB;" horiz-adv-x="530" d=" M164,-4 Q77,55 77,139 L77,588 Q77,666 119,701 Q161,736 222,736 Q382,733 471,729 L530,727 L530,663 L242,663 Q157,663 157,575 L157,401 L486,396 L486,335 L157,330 L157,157 Q157,106 181,88 Q205,70 246,70 L530,70 L530,6 Q340,-4 227,-4 M160,813 Q151,822 151,829 L151,907 Q151,923 167,923 L204,923 Q211,923 215.5,918.5 Q220,914 220,907 L220,829 Q220,822 215.5,817.5 Q211,813 204,813 L167,813 M396,813 Q387,822 387,829 L387,907 Q387,923 403,923 L440,923 Q447,923 451,918.5 Q455,914 455,907 L455,829 Q455,822 451,817.5 Q447,813 440,813 L403,813"/> 
            <glyph glyph-name="Ì" unicode="&#xCC;" horiz-adv-x="157" d=" M77,736 L157,736 L157,0 L77,0 M-26,927 L41,927 L145,791 L99,791"/> 
            <glyph glyph-name="Í" unicode="&#xCD;" horiz-adv-x="269" d=" M77,736 L157,736 L157,0 L77,0 M202,927 L269,927 L144,791 L98,791"/> 
            <glyph glyph-name="Î" unicode="&#xCE;" horiz-adv-x="258" d=" M77,736 L157,736 L157,0 L77,0 M92,926 L148,926 L258,791 L210,791 L119,888 L19,791 L-30,791"/> 
            <glyph glyph-name="Ï" unicode="&#xCF;" horiz-adv-x="261" d=" M77,736 L157,736 L157,0 L77,0 M-34,813 Q-43,822 -43,829 L-43,907 Q-43,923 -27,923 L10,923 Q17,923 21.5,918.5 Q26,914 26,907 L26,829 Q26,822 21.5,817.5 Q17,813 10,813 L-27,813 M202,813 Q193,822 193,829 L193,907 Q193,923 209,923 L246,923 Q253,923 257,918.5 Q261,914 261,907 L261,829 Q261,822 257,817.5 Q253,813 246,813 L209,813"/> 
            <glyph glyph-name="Ð" unicode="&#xD0;" horiz-adv-x="610" d=" M497,736 Q610,552 610,368 Q610,192 548.5,96 Q487,0 368,0 L77,0 L77,345 L15,345 L15,400 L77,400 L77,736 L368,736 M447,71 Q531,228 531,368 Q531,477 513.5,542 Q496,607 459,635.5 Q422,664 362,664 L157,664 L157,400 L325,400 L325,345 L157,345 L157,71 L362,71"/> 
            <glyph glyph-name="Ñ" unicode="&#xD1;" horiz-adv-x="619" d=" M91,736 L156,736 L540,137 L540,736 L619,736 L619,0 L554,0 L170,599 L170,0 L91,0 M169,862 Q225,914 264,914 Q287,914 305.5,905.5 Q324,897 351,881 Q372,867 387.5,860 Q403,853 419,853 Q445,853 462,869.5 Q479,886 480,916 L520,916 Q519,865 494,836 Q469,807 424,807 Q403,807 384.5,815 Q366,823 339,840 Q316,854 300,861.5 Q284,869 268,869 Q243,869 226.5,853 Q210,837 209,807 L168,807"/> 
            <glyph glyph-name="Ò" unicode="&#xD2;" horiz-adv-x="627" d=" M239,-6 Q120,49 89.5,128.5 Q59,208 59,365 Q59,521 90.5,602.5 Q122,684 182,713 Q242,742 343,742 Q447,742 507,713.5 Q567,685 597,603.5 Q627,522 627,365 Q627,208 596.5,128.5 Q566,49 506.5,21.5 Q447,-6 343,-6 M423,65 Q508,109 528,173 Q548,237 548,365 Q548,498 528,563 Q508,628 465.5,649.5 Q423,671 343,671 Q267,671 224,649.5 Q181,628 159.5,562 Q138,496 138,365 Q138,236 157,172.5 Q176,109 218.5,87 Q261,65 343,65 M200,927 L267,927 L371,791 L325,791"/> 
            <glyph glyph-name="Ó" unicode="&#xD3;" horiz-adv-x="627" d=" M239,-6 Q120,49 89.5,128.5 Q59,208 59,365 Q59,521 90.5,602.5 Q122,684 182,713 Q242,742 343,742 Q447,742 507,713.5 Q567,685 597,603.5 Q627,522 627,365 Q627,208 596.5,128.5 Q566,49 506.5,21.5 Q447,-6 343,-6 M423,65 Q508,109 528,173 Q548,237 548,365 Q548,498 528,563 Q508,628 465.5,649.5 Q423,671 343,671 Q267,671 224,649.5 Q181,628 159.5,562 Q138,496 138,365 Q138,236 157,172.5 Q176,109 218.5,87 Q261,65 343,65 M428,927 L495,927 L370,791 L324,791"/> 
            <glyph glyph-name="Ô" unicode="&#xD4;" horiz-adv-x="627" d=" M239,-6 Q120,49 89.5,128.5 Q59,208 59,365 Q59,521 90.5,602.5 Q122,684 182,713 Q242,742 343,742 Q447,742 507,713.5 Q567,685 597,603.5 Q627,522 627,365 Q627,208 596.5,128.5 Q566,49 506.5,21.5 Q447,-6 343,-6 M423,65 Q508,109 528,173 Q548,237 548,365 Q548,498 528,563 Q508,628 465.5,649.5 Q423,671 343,671 Q267,671 224,649.5 Q181,628 159.5,562 Q138,496 138,365 Q138,236 157,172.5 Q176,109 218.5,87 Q261,65 343,65 M318,926 L374,926 L484,791 L436,791 L345,888 L245,791 L196,791"/> 
            <glyph glyph-name="Õ" unicode="&#xD5;" horiz-adv-x="627" d=" M239,-6 Q120,49 89.5,128.5 Q59,208 59,365 Q59,521 90.5,602.5 Q122,684 182,713 Q242,742 343,742 Q447,742 507,713.5 Q567,685 597,603.5 Q627,522 627,365 Q627,208 596.5,128.5 Q566,49 506.5,21.5 Q447,-6 343,-6 M423,65 Q508,109 528,173 Q548,237 548,365 Q548,498 528,563 Q508,628 465.5,649.5 Q423,671 343,671 Q267,671 224,649.5 Q181,628 159.5,562 Q138,496 138,365 Q138,236 157,172.5 Q176,109 218.5,87 Q261,65 343,65 M172,862 Q228,914 267,914 Q290,914 308.5,905.5 Q327,897 354,881 Q375,867 390.5,860 Q406,853 422,853 Q448,853 465,869.5 Q482,886 483,916 L523,916 Q522,865 497,836 Q472,807 427,807 Q406,807 387.5,815 Q369,823 342,840 Q319,854 303,861.5 Q287,869 271,869 Q246,869 229.5,853 Q213,837 212,807 L171,807"/> 
            <glyph glyph-name="Ö" unicode="&#xD6;" horiz-adv-x="627" d=" M239,-6 Q120,49 89.5,128.5 Q59,208 59,365 Q59,521 90.5,602.5 Q122,684 182,713 Q242,742 343,742 Q447,742 507,713.5 Q567,685 597,603.5 Q627,522 627,365 Q627,208 596.5,128.5 Q566,49 506.5,21.5 Q447,-6 343,-6 M423,65 Q508,109 528,173 Q548,237 548,365 Q548,498 528,563 Q508,628 465.5,649.5 Q423,671 343,671 Q267,671 224,649.5 Q181,628 159.5,562 Q138,496 138,365 Q138,236 157,172.5 Q176,109 218.5,87 Q261,65 343,65 M192,813 Q183,822 183,829 L183,907 Q183,923 199,923 L236,923 Q243,923 247.5,918.5 Q252,914 252,907 L252,829 Q252,822 247.5,817.5 Q243,813 236,813 L199,813 M428,813 Q419,822 419,829 L419,907 Q419,923 435,923 L472,923 Q479,923 483,918.5 Q487,914 487,907 L487,829 Q487,822 483,817.5 Q479,813 472,813 L435,813"/> 
            <glyph glyph-name="×" unicode="&#xD7;" horiz-adv-x="486" d=" M304,403 L257,356 L122,491 L169,538 M351,356 L304,403 L439,538 L486,491 M257,356 L304,309 L169,174 L122,221 M351,356 L486,221 L439,174 L304,309"/> 
            <glyph glyph-name="Ø" unicode="&#xD8;" horiz-adv-x="627" d=" M597,620 Q627,476 627,365 Q627,208 596.5,128.5 Q566,49 506.5,21.5 Q447,-6 343,-6 Q278,-6 232.5,3.5 Q187,13 154,37 L130,0 L72,0 L119,72 Q89,113 74,184 Q59,255 59,365 Q59,521 90.5,602.5 Q122,684 182,713 Q242,742 343,742 Q407,742 453,732 Q499,722 532,698 L557,736 L615,736 L566,662 M138,210 L167,145 L489,632 Q466,655 431,663 Q396,671 343,671 Q267,671 224,649.5 Q181,628 159.5,562 Q138,496 138,365 M423,65 Q508,109 528,173 Q548,237 548,365 Q548,447 541,501 Q534,555 518,589 L197,102 Q221,81 255.5,73 Q290,65 343,65"/> 
            <glyph glyph-name="Ù" unicode="&#xD9;" horiz-adv-x="609" d=" M205,-6 Q67,98 67,228 L67,736 L147,736 L147,228 Q147,138 194.5,102 Q242,66 338,66 Q434,66 481.5,102 Q529,138 529,228 L529,736 L609,736 L609,228 Q609,98 540,46 Q471,-6 338,-6 M191,927 L258,927 L362,791 L316,791"/> 
            <glyph glyph-name="Ú" unicode="&#xDA;" horiz-adv-x="609" d=" M205,-6 Q67,98 67,228 L67,736 L147,736 L147,228 Q147,138 194.5,102 Q242,66 338,66 Q434,66 481.5,102 Q529,138 529,228 L529,736 L609,736 L609,228 Q609,98 540,46 Q471,-6 338,-6 M419,927 L486,927 L361,791 L315,791"/> 
            <glyph glyph-name="Û" unicode="&#xDB;" horiz-adv-x="609" d=" M205,-6 Q67,98 67,228 L67,736 L147,736 L147,228 Q147,138 194.5,102 Q242,66 338,66 Q434,66 481.5,102 Q529,138 529,228 L529,736 L609,736 L609,228 Q609,98 540,46 Q471,-6 338,-6 M309,926 L365,926 L475,791 L427,791 L336,888 L236,791 L187,791"/> 
            <glyph glyph-name="Ü" unicode="&#xDC;" horiz-adv-x="609" d=" M205,-6 Q67,98 67,228 L67,736 L147,736 L147,228 Q147,138 194.5,102 Q242,66 338,66 Q434,66 481.5,102 Q529,138 529,228 L529,736 L609,736 L609,228 Q609,98 540,46 Q471,-6 338,-6 M183,813 Q174,822 174,829 L174,907 Q174,923 190,923 L227,923 Q234,923 238.5,918.5 Q243,914 243,907 L243,829 Q243,822 238.5,817.5 Q234,813 227,813 L190,813 M419,813 Q410,822 410,829 L410,907 Q410,923 426,923 L463,923 Q470,923 474,918.5 Q478,914 478,907 L478,829 Q478,822 474,817.5 Q470,813 463,813 L426,813"/> 
            <glyph glyph-name="Ý" unicode="&#xDD;" horiz-adv-x="582" d=" M269,244 L35,736 L118,736 L310,324 L502,736 L582,736 L349,244 L349,0 L269,0 M395,927 L462,927 L337,791 L291,791"/> 
            <glyph glyph-name="Þ" unicode="&#xDE;" horiz-adv-x="518" d=" M77,736 L157,736 L157,601 L326,601 Q409,601 463.5,555 Q518,509 518,382 Q518,254 460.5,205.5 Q403,157 323,157 Q300,157 245.5,161 Q191,165 157,168 L157,0 L77,0 M313,229 Q438,229 438,382 Q438,529 320,529 L157,529 L157,229"/> 
            <glyph glyph-name="ß" unicode="&#xDF;" horiz-adv-x="561" d=" M346,-7 Q256,2 230,8 L230,60 Q298,56 375,56 Q436,56 460.5,82 Q485,108 485,140 L485,163 Q485,192 463.5,206 Q442,220 397,235 Q361,247 338.5,258 Q316,269 300.5,289.5 Q285,310 285,343 Q285,381 304,408.5 Q323,436 363,475 Q399,509 417.5,535.5 Q436,562 436,596 Q436,701 295,701 Q221,701 183,660.5 Q145,620 145,541 L145,0 L66,0 L66,548 Q66,645 124,706 Q182,767 295,767 Q407,767 459,721.5 Q511,676 511,601 Q511,554 489,521.5 Q467,489 424,450 Q391,419 376,399.5 Q361,380 361,355 Q361,328 381.5,314.5 Q402,301 445,285 Q482,272 505,260 Q528,248 544.5,225.5 Q561,203 561,168 L561,139 Q561,66 512.5,29.5 Q464,-7 392,-7"/> 
            <glyph glyph-name="à" unicode="&#xE0;" horiz-adv-x="472" d=" M120,-6 Q45,66 45,128 L45,166 Q45,231 87.5,269 Q130,307 212,307 L393,307 L393,373 Q393,427 363.5,453 Q334,479 255,479 L89,479 L89,526 Q183,542 284,542 Q381,542 426.5,502.5 Q472,463 472,377 L472,0 L411,0 L396,61 Q389,55 352.5,38 Q316,21 269,7.5 Q222,-6 180,-6 M242,53 Q320,73 351.5,84 Q383,95 393,99 L393,267 L230,260 Q175,258 149.5,233 Q124,208 124,165 L124,141 Q124,95 150.5,74 Q177,53 215,53 M141,767 L208,767 L312,631 L266,631"/> 
            <glyph glyph-name="á" unicode="&#xE1;" horiz-adv-x="472" d=" M120,-6 Q45,66 45,128 L45,166 Q45,231 87.5,269 Q130,307 212,307 L393,307 L393,373 Q393,427 363.5,453 Q334,479 255,479 L89,479 L89,526 Q183,542 284,542 Q381,542 426.5,502.5 Q472,463 472,377 L472,0 L411,0 L396,61 Q389,55 352.5,38 Q316,21 269,7.5 Q222,-6 180,-6 M242,53 Q320,73 351.5,84 Q383,95 393,99 L393,267 L230,260 Q175,258 149.5,233 Q124,208 124,165 L124,141 Q124,95 150.5,74 Q177,53 215,53 M342,767 L409,767 L284,631 L238,631"/> 
            <glyph glyph-name="â" unicode="&#xE2;" horiz-adv-x="472" d=" M120,-6 Q45,66 45,128 L45,166 Q45,231 87.5,269 Q130,307 212,307 L393,307 L393,373 Q393,427 363.5,453 Q334,479 255,479 L89,479 L89,526 Q183,542 284,542 Q381,542 426.5,502.5 Q472,463 472,377 L472,0 L411,0 L396,61 Q389,55 352.5,38 Q316,21 269,7.5 Q222,-6 180,-6 M242,53 Q320,73 351.5,84 Q383,95 393,99 L393,267 L230,260 Q175,258 149.5,233 Q124,208 124,165 L124,141 Q124,95 150.5,74 Q177,53 215,53 M245,766 L301,766 L411,631 L363,631 L272,728 L172,631 L123,631"/> 
            <glyph glyph-name="ã" unicode="&#xE3;" horiz-adv-x="472" d=" M120,-6 Q45,66 45,128 L45,166 Q45,231 87.5,269 Q130,307 212,307 L393,307 L393,373 Q393,427 363.5,453 Q334,479 255,479 L89,479 L89,526 Q183,542 284,542 Q381,542 426.5,502.5 Q472,463 472,377 L472,0 L411,0 L396,61 Q389,55 352.5,38 Q316,21 269,7.5 Q222,-6 180,-6 M242,53 Q320,73 351.5,84 Q383,95 393,99 L393,267 L230,260 Q175,258 149.5,233 Q124,208 124,165 L124,141 Q124,95 150.5,74 Q177,53 215,53 M107,702 Q163,754 202,754 Q225,754 243.5,745.5 Q262,737 289,721 Q310,707 325.5,700 Q341,693 357,693 Q383,693 400,709.5 Q417,726 418,756 L458,756 Q457,705 432,676 Q407,647 362,647 Q341,647 322.5,655 Q304,663 277,680 Q254,694 238,701.5 Q222,709 206,709 Q181,709 164.5,693 Q148,677 147,647 L106,647"/> 
            <glyph glyph-name="ä" unicode="&#xE4;" horiz-adv-x="472" d=" M120,-6 Q45,66 45,128 L45,166 Q45,231 87.5,269 Q130,307 212,307 L393,307 L393,373 Q393,427 363.5,453 Q334,479 255,479 L89,479 L89,526 Q183,542 284,542 Q381,542 426.5,502.5 Q472,463 472,377 L472,0 L411,0 L396,61 Q389,55 352.5,38 Q316,21 269,7.5 Q222,-6 180,-6 M242,53 Q320,73 351.5,84 Q383,95 393,99 L393,267 L230,260 Q175,258 149.5,233 Q124,208 124,165 L124,141 Q124,95 150.5,74 Q177,53 215,53 M146,653 Q137,662 137,669 L137,747 Q137,763 153,763 L189,763 Q205,763 205,747 L205,669 Q205,653 189,653 L153,653 M341,653 Q332,662 332,669 L332,747 Q332,763 348,763 L384,763 Q400,763 400,747 L400,669 Q400,653 384,653 L348,653"/> 
            <glyph glyph-name="å" unicode="&#xE5;" horiz-adv-x="472" d=" M120,-6 Q45,66 45,128 L45,166 Q45,231 87.5,269 Q130,307 212,307 L393,307 L393,373 Q393,427 363.5,453 Q334,479 255,479 L89,479 L89,526 Q183,542 284,542 Q381,542 426.5,502.5 Q472,463 472,377 L472,0 L411,0 L396,61 Q389,55 352.5,38 Q316,21 269,7.5 Q222,-6 180,-6 M242,53 Q320,73 351.5,84 Q383,95 393,99 L393,267 L230,260 Q175,258 149.5,233 Q124,208 124,165 L124,141 Q124,95 150.5,74 Q177,53 215,53 M214,594 Q159,642 159,700 Q159,759 187,783.5 Q215,808 271,808 Q327,808 354,783.5 Q381,759 381,700 Q381,642 354,618 Q327,594 271,594 M309,627 Q341,658 341,700 Q341,742 325,758.5 Q309,775 271,775 Q233,775 215.5,758.5 Q198,742 198,700 Q198,659 215.5,643 Q233,627 271,627"/> 
            <glyph glyph-name="æ" unicode="&#xE6;" horiz-adv-x="821" d=" M116,-6 Q46,68 46,131 L46,164 Q46,228 88,265 Q130,302 210,302 L394,302 L394,374 Q394,423 364.5,451 Q335,479 264,479 L90,479 L90,526 Q133,534 173.5,538 Q214,542 275,542 Q334,542 378,519 Q422,496 440,451 Q459,499 503.5,520 Q548,541 615,541 Q723,541 772,502 Q821,463 821,363 Q821,298 782.5,272.5 Q744,247 664,247 L472,247 Q471,137 516,96.5 Q561,56 645,56 L807,56 L807,8 Q728,-6 612,-6 Q479,-6 423,102 Q381,56 317.5,25 Q254,-6 183,-6 M662,300 Q706,300 727.5,313 Q749,326 749,364 Q749,427 718,453 Q687,479 611,479 Q555,479 526,464 Q497,449 485,411.5 Q473,374 472,300 M266,53 Q367,100 407,142 Q394,186 393,258 L223,254 Q172,253 148.5,228.5 Q125,204 125,165 L125,142 Q125,95 150,74 Q175,53 214,53"/> 
            <glyph glyph-name="ç" unicode="&#xE7;" horiz-adv-x="457" d=" M366,-5 L289,-6 L257,-54 Q329,-58 329,-118 Q329,-152 304,-171 Q279,-190 233,-190 L200,-190 L200,-157 L222,-155 Q250,-152 264,-141.5 Q278,-131 278,-110 Q278,-91 263.5,-79 Q249,-67 212,-66 L252,-6 Q159,-1 108,59.5 Q57,120 57,266 Q57,373 82.5,433 Q108,493 155,516.5 Q202,540 272,540 Q368,540 449,526 L449,479 L293,479 Q238,479 204.5,461 Q171,443 153.5,396.5 Q136,350 136,264 Q136,182 154.5,136.5 Q173,91 207,73.5 Q241,56 294,56 L457,56 L457,10"/> 
            <glyph glyph-name="è" unicode="&#xE8;" horiz-adv-x="484" d=" M194,-6 Q99,44 78,103 Q57,162 57,268 Q57,375 78.5,434 Q100,493 148,517 Q196,541 281,541 Q354,541 398,525 Q442,509 463,470.5 Q484,432 484,364 Q484,296 444.5,265.5 Q405,235 332,235 L136,235 Q137,166 150,128.5 Q163,91 198,73.5 Q233,56 299,56 L471,56 L471,8 Q417,1 375,-2.5 Q333,-6 280,-6 M325,287 Q371,287 392,304 Q413,321 413,363 Q413,430 383.5,455.5 Q354,481 281,481 Q223,481 192,464 Q161,447 148,406 Q135,365 135,287 M141,767 L208,767 L312,631 L266,631"/> 
            <glyph glyph-name="é" unicode="&#xE9;" horiz-adv-x="484" d=" M194,-6 Q99,44 78,103 Q57,162 57,268 Q57,375 78.5,434 Q100,493 148,517 Q196,541 281,541 Q354,541 398,525 Q442,509 463,470.5 Q484,432 484,364 Q484,296 444.5,265.5 Q405,235 332,235 L136,235 Q137,166 150,128.5 Q163,91 198,73.5 Q233,56 299,56 L471,56 L471,8 Q417,1 375,-2.5 Q333,-6 280,-6 M325,287 Q371,287 392,304 Q413,321 413,363 Q413,430 383.5,455.5 Q354,481 281,481 Q223,481 192,464 Q161,447 148,406 Q135,365 135,287 M342,767 L409,767 L284,631 L238,631"/> 
            <glyph glyph-name="ê" unicode="&#xEA;" horiz-adv-x="484" d=" M194,-6 Q99,44 78,103 Q57,162 57,268 Q57,375 78.5,434 Q100,493 148,517 Q196,541 281,541 Q354,541 398,525 Q442,509 463,470.5 Q484,432 484,364 Q484,296 444.5,265.5 Q405,235 332,235 L136,235 Q137,166 150,128.5 Q163,91 198,73.5 Q233,56 299,56 L471,56 L471,8 Q417,1 375,-2.5 Q333,-6 280,-6 M325,287 Q371,287 392,304 Q413,321 413,363 Q413,430 383.5,455.5 Q354,481 281,481 Q223,481 192,464 Q161,447 148,406 Q135,365 135,287 M245,766 L301,766 L411,631 L363,631 L272,728 L172,631 L123,631"/> 
            <glyph glyph-name="ë" unicode="&#xEB;" horiz-adv-x="484" d=" M194,-6 Q99,44 78,103 Q57,162 57,268 Q57,375 78.5,434 Q100,493 148,517 Q196,541 281,541 Q354,541 398,525 Q442,509 463,470.5 Q484,432 484,364 Q484,296 444.5,265.5 Q405,235 332,235 L136,235 Q137,166 150,128.5 Q163,91 198,73.5 Q233,56 299,56 L471,56 L471,8 Q417,1 375,-2.5 Q333,-6 280,-6 M325,287 Q371,287 392,304 Q413,321 413,363 Q413,430 383.5,455.5 Q354,481 281,481 Q223,481 192,464 Q161,447 148,406 Q135,365 135,287 M146,653 Q137,662 137,669 L137,747 Q137,763 153,763 L189,763 Q205,763 205,747 L205,669 Q205,653 189,653 L153,653 M341,653 Q332,662 332,669 L332,747 Q332,763 348,763 L384,763 Q400,763 400,747 L400,669 Q400,653 384,653 L348,653"/> 
            <glyph glyph-name="ì" unicode="&#xEC;" horiz-adv-x="157" d=" M76,534 L155,534 L155,0 L76,0 M242,767 L309,767 L413,631 L367,631"/> 
            <glyph glyph-name="í" unicode="&#xED;" horiz-adv-x="254" d=" M76,534 L155,534 L155,0 L76,0 M187,767 L254,767 L129,631 L83,631"/> 
            <glyph glyph-name="î" unicode="&#xEE;" horiz-adv-x="256" d=" M76,534 L155,534 L155,0 L76,0 M346,766 L402,766 L512,631 L464,631 L373,728 L273,631 L224,631"/> 
            <glyph glyph-name="ï" unicode="&#xEF;" horiz-adv-x="245" d=" M76,534 L155,534 L155,0 L76,0 M-9,653 Q-18,662 -18,669 L-18,747 Q-18,763 -2,763 L34,763 Q50,763 50,747 L50,669 Q50,653 34,653 L-2,653 M186,653 Q177,662 177,669 L177,747 Q177,763 193,763 L229,763 Q245,763 245,747 L245,669 Q245,653 229,653 L193,653"/> 
            <glyph glyph-name="ð" unicode="&#xF0;" horiz-adv-x="520" d=" M520,267 Q520,158 495,99 Q470,40 420.5,17 Q371,-6 288,-6 Q206,-6 156,17 Q106,40 81.5,98.5 Q57,157 57,264 Q57,372 82.5,430.5 Q108,489 155.5,511 Q203,533 279,533 Q331,533 368,521.5 Q405,510 429,483 Q404,590 343,645 L183,583 L172,612 L313,667 Q252,707 148,717 L148,767 Q296,758 379,693 L507,743 L519,713 L406,669 Q463,612 491.5,514 Q520,416 520,269 L520,268 L520,267 M343,59 Q406,88 423,132 Q440,176 440,265 Q440,353 423.5,397 Q407,441 375,455 Q343,469 288,469 Q232,469 200.5,455 Q169,441 152.5,397 Q136,353 136,265 Q136,176 152.5,132 Q169,88 200.5,73.5 Q232,59 288,59"/> 
            <glyph glyph-name="ñ" unicode="&#xF1;" horiz-adv-x="515" d=" M76,534 L138,534 L155,475 Q197,504 248,523.5 Q299,543 350,543 Q433,543 474,492 Q515,441 515,363 L515,0 L436,0 L436,354 Q436,406 406.5,438.5 Q377,471 325,471 Q277,471 239.5,458.5 Q202,446 155,419 L155,0 L76,0 M130,702 Q186,754 225,754 Q248,754 266.5,745.5 Q285,737 312,721 Q333,707 348.5,700 Q364,693 380,693 Q406,693 423,709.5 Q440,726 441,756 L481,756 Q480,705 455,676 Q430,647 385,647 Q364,647 345.5,655 Q327,663 300,680 Q277,694 261,701.5 Q245,709 229,709 Q204,709 187.5,693 Q171,677 170,647 L129,647"/> 
            <glyph glyph-name="ò" unicode="&#xF2;" horiz-adv-x="520" d=" M206,-6 Q106,40 81.5,99.5 Q57,159 57,268 Q57,378 82,437.5 Q107,497 156,519 Q205,541 288,541 Q370,541 420,518.5 Q470,496 495,436.5 Q520,377 520,268 Q520,159 495,99.5 Q470,40 420.5,17 Q371,-6 288,-6 M343,59 Q406,88 423,133 Q440,178 440,268 Q440,358 423.5,402.5 Q407,447 375,461.5 Q343,476 288,476 Q232,476 200.5,461.5 Q169,447 152.5,402.5 Q136,358 136,268 Q136,178 152.5,133 Q169,88 200.5,73.5 Q232,59 288,59 M159,767 L226,767 L330,631 L284,631"/> 
            <glyph glyph-name="ó" unicode="&#xF3;" horiz-adv-x="520" d=" M206,-6 Q106,40 81.5,99.5 Q57,159 57,268 Q57,378 82,437.5 Q107,497 156,519 Q205,541 288,541 Q370,541 420,518.5 Q470,496 495,436.5 Q520,377 520,268 Q520,159 495,99.5 Q470,40 420.5,17 Q371,-6 288,-6 M343,59 Q406,88 423,133 Q440,178 440,268 Q440,358 423.5,402.5 Q407,447 375,461.5 Q343,476 288,476 Q232,476 200.5,461.5 Q169,447 152.5,402.5 Q136,358 136,268 Q136,178 152.5,133 Q169,88 200.5,73.5 Q232,59 288,59 M360,767 L427,767 L302,631 L256,631"/> 
            <glyph glyph-name="ô" unicode="&#xF4;" horiz-adv-x="520" d=" M206,-6 Q106,40 81.5,99.5 Q57,159 57,268 Q57,378 82,437.5 Q107,497 156,519 Q205,541 288,541 Q370,541 420,518.5 Q470,496 495,436.5 Q520,377 520,268 Q520,159 495,99.5 Q470,40 420.5,17 Q371,-6 288,-6 M343,59 Q406,88 423,133 Q440,178 440,268 Q440,358 423.5,402.5 Q407,447 375,461.5 Q343,476 288,476 Q232,476 200.5,461.5 Q169,447 152.5,402.5 Q136,358 136,268 Q136,178 152.5,133 Q169,88 200.5,73.5 Q232,59 288,59 M263,766 L319,766 L429,631 L381,631 L290,728 L190,631 L141,631"/> 
            <glyph glyph-name="õ" unicode="&#xF5;" horiz-adv-x="520" d=" M206,-6 Q106,40 81.5,99.5 Q57,159 57,268 Q57,378 82,437.5 Q107,497 156,519 Q205,541 288,541 Q370,541 420,518.5 Q470,496 495,436.5 Q520,377 520,268 Q520,159 495,99.5 Q470,40 420.5,17 Q371,-6 288,-6 M343,59 Q406,88 423,133 Q440,178 440,268 Q440,358 423.5,402.5 Q407,447 375,461.5 Q343,476 288,476 Q232,476 200.5,461.5 Q169,447 152.5,402.5 Q136,358 136,268 Q136,178 152.5,133 Q169,88 200.5,73.5 Q232,59 288,59 M124,702 Q180,754 219,754 Q242,754 260.5,745.5 Q279,737 306,721 Q327,707 342.5,700 Q358,693 374,693 Q400,693 417,709.5 Q434,726 435,756 L475,756 Q474,705 449,676 Q424,647 379,647 Q358,647 339.5,655 Q321,663 294,680 Q271,694 255,701.5 Q239,709 223,709 Q198,709 181.5,693 Q165,677 164,647 L123,647"/> 
            <glyph glyph-name="ö" unicode="&#xF6;" horiz-adv-x="520" d=" M206,-6 Q106,40 81.5,99.5 Q57,159 57,268 Q57,378 82,437.5 Q107,497 156,519 Q205,541 288,541 Q370,541 420,518.5 Q470,496 495,436.5 Q520,377 520,268 Q520,159 495,99.5 Q470,40 420.5,17 Q371,-6 288,-6 M343,59 Q406,88 423,133 Q440,178 440,268 Q440,358 423.5,402.5 Q407,447 375,461.5 Q343,476 288,476 Q232,476 200.5,461.5 Q169,447 152.5,402.5 Q136,358 136,268 Q136,178 152.5,133 Q169,88 200.5,73.5 Q232,59 288,59 M164,653 Q155,662 155,669 L155,747 Q155,763 171,763 L207,763 Q223,763 223,747 L223,669 Q223,653 207,653 L171,653 M359,653 Q350,662 350,669 L350,747 Q350,763 366,763 L402,763 Q418,763 418,747 L418,669 Q418,653 402,653 L366,653"/> 
            <glyph glyph-name="÷" unicode="&#xF7;" horiz-adv-x="528" d=" M271,507 Q258,520 258,530 L258,579 Q258,591 264,597.5 Q270,604 282,604 L326,604 Q351,604 351,579 L351,530 Q351,507 326,507 L282,507 M80,389 L528,389 L528,323 L80,323 M271,108 Q258,121 258,131 L258,181 Q258,193 264,199.5 Q270,206 282,206 L326,206 Q351,206 351,181 L351,131 Q351,108 326,108 L282,108"/> 
            <glyph glyph-name="ø" unicode="&#xF8;" horiz-adv-x="525" d=" M475,472 Q520,410 520,268 Q520,159 495,99.5 Q470,40 420.5,17 Q371,-6 288,-6 Q232,-6 192,4 Q152,14 125,38 L94,0 L51,0 L102,63 Q57,126 57,268 Q57,378 82,437.5 Q107,497 156,519 Q205,541 288,541 Q344,541 384.5,531 Q425,521 452,497 L482,534 L525,534 M136,175 L154,128 L404,438 Q387,460 359,468 Q331,476 288,476 Q232,476 200.5,461.5 Q169,447 152.5,402.5 Q136,358 136,268 M440,360 L422,406 L172,97 Q190,75 217.5,67 Q245,59 288,59 Q343,59 374.5,73.5 Q406,88 423,133 Q440,178 440,268"/> 
            <glyph glyph-name="ù" unicode="&#xF9;" horiz-adv-x="515" d=" M75,-6 L75,158 L75,534 L154,534 L154,178 Q154,114 182.5,89 Q211,64 270,64 Q315,64 354,76.5 Q393,89 436,115 L436,534 L515,534 L515,0 L453,0 L436,59 Q334,-6 235,-6 M157,767 L224,767 L328,631 L282,631"/> 
            <glyph glyph-name="ú" unicode="&#xFA;" horiz-adv-x="515" d=" M75,-6 L75,158 L75,534 L154,534 L154,178 Q154,114 182.5,89 Q211,64 270,64 Q315,64 354,76.5 Q393,89 436,115 L436,534 L515,534 L515,0 L453,0 L436,59 Q334,-6 235,-6 M358,767 L425,767 L300,631 L254,631"/> 
            <glyph glyph-name="û" unicode="&#xFB;" horiz-adv-x="515" d=" M75,-6 L75,158 L75,534 L154,534 L154,178 Q154,114 182.5,89 Q211,64 270,64 Q315,64 354,76.5 Q393,89 436,115 L436,534 L515,534 L515,0 L453,0 L436,59 Q334,-6 235,-6 M261,766 L317,766 L427,631 L379,631 L288,728 L188,631 L139,631"/> 
            <glyph glyph-name="ü" unicode="&#xFC;" horiz-adv-x="515" d=" M75,-6 L75,158 L75,534 L154,534 L154,178 Q154,114 182.5,89 Q211,64 270,64 Q315,64 354,76.5 Q393,89 436,115 L436,534 L515,534 L515,0 L453,0 L436,59 Q334,-6 235,-6 M162,653 Q153,662 153,669 L153,747 Q153,763 169,763 L205,763 Q221,763 221,747 L221,669 Q221,653 205,653 L169,653 M357,653 Q348,662 348,669 L348,747 Q348,763 364,763 L400,763 Q416,763 416,747 L416,669 Q416,653 400,653 L364,653"/> 
            <glyph glyph-name="ý" unicode="&#xFD;" horiz-adv-x="522" d=" M287,0 Q242,1 205,29.5 Q168,58 147,125 L19,534 L102,534 L221,142 Q246,68 304,68 L441,534 L522,534 L327,-138 L281,-237 L219,-237 M339,767 L406,767 L281,631 L235,631"/> 
            <glyph glyph-name="þ" unicode="&#xFE;" horiz-adv-x="521" d=" M76,763 L155,763 L155,479 Q187,502 236,521.5 Q285,541 330,541 Q426,541 473.5,463.5 Q521,386 521,268 Q521,-7 330,-7 Q287,-7 241.5,7 Q196,21 155,44 L155,-237 L76,-237 M442,60 L442,265 Q442,372 404,423.5 Q366,475 308,475 Q266,475 229,462.5 Q192,450 155,430 L155,103 Q231,60 308,60"/> 
            <glyph glyph-name="ÿ" unicode="&#xFF;" horiz-adv-x="522" d=" M287,0 Q242,1 205,29.5 Q168,58 147,125 L19,534 L102,534 L221,142 Q246,68 304,68 L441,534 L522,534 L327,-138 L281,-237 L219,-237 M143,653 Q134,662 134,669 L134,747 Q134,763 150,763 L186,763 Q202,763 202,747 L202,669 Q202,653 186,653 L150,653 M338,653 Q329,662 329,669 L329,747 Q329,763 345,763 L381,763 Q397,763 397,747 L397,669 Q397,653 381,653 L345,653"/> 
            <glyph glyph-name="Ā" unicode="&#x100;" horiz-adv-x="640" d=" M286,736 L388,736 L640,0 L558,0 L484,210 L188,210 L116,0 L34,0 M464,282 L337,666 L208,282 M198,879 L463,879 L463,832 L198,832"/> 
            <glyph glyph-name="ā" unicode="&#x101;" horiz-adv-x="472" d=" M120,-6 Q45,66 45,128 L45,166 Q45,231 87.5,269 Q130,307 212,307 L393,307 L393,373 Q393,427 363.5,453 Q334,479 255,479 L89,479 L89,526 Q183,542 284,542 Q381,542 426.5,502.5 Q472,463 472,377 L472,0 L411,0 L396,61 Q389,55 352.5,38 Q316,21 269,7.5 Q222,-6 180,-6 M242,53 Q320,73 351.5,84 Q383,95 393,99 L393,267 L230,260 Q175,258 149.5,233 Q124,208 124,165 L124,141 Q124,95 150.5,74 Q177,53 215,53 M135,719 L400,719 L400,672 L135,672"/> 
            <glyph glyph-name="Ă" unicode="&#x102;" horiz-adv-x="640" d=" M286,736 L388,736 L640,0 L558,0 L484,210 L188,210 L116,0 L34,0 M464,282 L337,666 L208,282 M271,789 Q199,857 199,930 L238,930 Q238,877 262.5,852 Q287,827 327,827 Q423,827 423,930 L462,930 Q462,855 426,822 Q390,789 330,789"/> 
            <glyph glyph-name="ă" unicode="&#x103;" horiz-adv-x="472" d=" M120,-6 Q45,66 45,128 L45,166 Q45,231 87.5,269 Q130,307 212,307 L393,307 L393,373 Q393,427 363.5,453 Q334,479 255,479 L89,479 L89,526 Q183,542 284,542 Q381,542 426.5,502.5 Q472,463 472,377 L472,0 L411,0 L396,61 Q389,55 352.5,38 Q316,21 269,7.5 Q222,-6 180,-6 M242,53 Q320,73 351.5,84 Q383,95 393,99 L393,267 L230,260 Q175,258 149.5,233 Q124,208 124,165 L124,141 Q124,95 150.5,74 Q177,53 215,53 M204,629 Q132,697 132,770 L171,770 Q171,717 196,692 Q221,667 260,667 Q356,667 356,770 L395,770 Q395,695 359,662 Q323,629 263,629"/> 
            <glyph glyph-name="Ą" unicode="&#x104;" horiz-adv-x="640" d=" M286,736 L388,736 L640,0 L558,0 L484,210 L188,210 L116,0 L34,0 M464,282 L337,666 L208,282 M539,-187 Q483,-137 483,-98 Q483,-68 502,-43 Q521,-18 558,0 L588,0 Q525,-35 525,-81 Q525,-111 547,-128.5 Q569,-146 608,-146 L614,-146 L614,-184 Q603,-187 588,-187"/> 
            <glyph glyph-name="ą" unicode="&#x105;" horiz-adv-x="498" d=" M498,-146 L498,-184 Q488,-187 472,-187 Q423,-187 395,-162 Q367,-137 367,-98 Q367,-68 386,-43 Q405,-18 442,0 L411,0 L396,61 Q389,55 352.5,38 Q316,21 269,7.5 Q222,-6 180,-6 Q120,-6 82.5,30 Q45,66 45,128 L45,166 Q45,231 87.5,269 Q130,307 212,307 L393,307 L393,373 Q393,427 363.5,453 Q334,479 255,479 L89,479 L89,526 Q183,542 284,542 Q381,542 426.5,502.5 Q472,463 472,377 L472,0 Q409,-35 409,-81 Q409,-111 431,-128.5 Q453,-146 492,-146 M393,267 L230,260 Q175,258 149.5,233 Q124,208 124,165 L124,141 Q124,95 150.5,74 Q177,53 215,53 Q242,53 281,63 Q320,73 351.5,84 Q383,95 393,99"/> 
            <glyph glyph-name="Ć" unicode="&#x106;" horiz-adv-x="535" d=" M223,-6 Q113,53 86,134 Q59,215 59,370 Q59,517 87,597.5 Q115,678 172,710 Q229,742 324,742 Q370,742 429.5,734.5 Q489,727 535,715 L535,656 Q500,661 445,666 Q390,671 336,671 Q261,671 219,646.5 Q177,622 157.5,557.5 Q138,493 138,369 Q138,241 156.5,176.5 Q175,112 216,88.5 Q257,65 334,65 Q461,65 535,78 L535,18 Q489,7 431.5,0.5 Q374,-6 318,-6 M409,927 L476,927 L351,791 L305,791"/> 
            <glyph glyph-name="ć" unicode="&#x107;" horiz-adv-x="457" d=" M168,-6 Q57,113 57,266 Q57,373 82.5,433 Q108,493 155,516.5 Q202,540 272,540 Q368,540 449,526 L449,479 L293,479 Q238,479 204.5,461 Q171,443 153.5,396.5 Q136,350 136,264 Q136,182 154.5,136.5 Q173,91 207,73.5 Q241,56 294,56 L457,56 L457,10 Q363,-6 270,-6 M342,767 L409,767 L284,631 L238,631"/> 
            <glyph glyph-name="Ĉ" unicode="&#x108;" horiz-adv-x="535" d=" M223,-6 Q113,53 86,134 Q59,215 59,370 Q59,517 87,597.5 Q115,678 172,710 Q229,742 324,742 Q370,742 429.5,734.5 Q489,727 535,715 L535,656 Q500,661 445,666 Q390,671 336,671 Q261,671 219,646.5 Q177,622 157.5,557.5 Q138,493 138,369 Q138,241 156.5,176.5 Q175,112 216,88.5 Q257,65 334,65 Q461,65 535,78 L535,18 Q489,7 431.5,0.5 Q374,-6 318,-6 M299,926 L355,926 L465,791 L417,791 L326,888 L226,791 L177,791"/> 
            <glyph glyph-name="ĉ" unicode="&#x109;" horiz-adv-x="457" d=" M168,-6 Q57,113 57,266 Q57,373 82.5,433 Q108,493 155,516.5 Q202,540 272,540 Q368,540 449,526 L449,479 L293,479 Q238,479 204.5,461 Q171,443 153.5,396.5 Q136,350 136,264 Q136,182 154.5,136.5 Q173,91 207,73.5 Q241,56 294,56 L457,56 L457,10 Q363,-6 270,-6 M245,766 L301,766 L411,631 L363,631 L272,728 L172,631 L123,631"/> 
            <glyph glyph-name="Ċ" unicode="&#x10A;" horiz-adv-x="535" d=" M223,-6 Q113,53 86,134 Q59,215 59,370 Q59,517 87,597.5 Q115,678 172,710 Q229,742 324,742 Q370,742 429.5,734.5 Q489,727 535,715 L535,656 Q500,661 445,666 Q390,671 336,671 Q261,671 219,646.5 Q177,622 157.5,557.5 Q138,493 138,369 Q138,241 156.5,176.5 Q175,112 216,88.5 Q257,65 334,65 Q461,65 535,78 L535,18 Q489,7 431.5,0.5 Q374,-6 318,-6 M297,820 Q288,829 288,836 L288,914 Q288,930 304,930 L341,930 Q348,930 352,925.5 Q356,921 356,914 L356,836 Q356,829 352,824.5 Q348,820 341,820 L304,820"/> 
            <glyph glyph-name="ċ" unicode="&#x10B;" horiz-adv-x="457" d=" M168,-6 Q57,113 57,266 Q57,373 82.5,433 Q108,493 155,516.5 Q202,540 272,540 Q368,540 449,526 L449,479 L293,479 Q238,479 204.5,461 Q171,443 153.5,396.5 Q136,350 136,264 Q136,182 154.5,136.5 Q173,91 207,73.5 Q241,56 294,56 L457,56 L457,10 Q363,-6 270,-6 M244,660 Q235,669 235,676 L235,754 Q235,770 251,770 L288,770 Q295,770 299,765.5 Q303,761 303,754 L303,676 Q303,669 299,664.5 Q295,660 288,660 L251,660"/> 
            <glyph glyph-name="Č" unicode="&#x10C;" horiz-adv-x="535" d=" M223,-6 Q113,53 86,134 Q59,215 59,370 Q59,517 87,597.5 Q115,678 172,710 Q229,742 324,742 Q370,742 429.5,734.5 Q489,727 535,715 L535,656 Q500,661 445,666 Q390,671 336,671 Q261,671 219,646.5 Q177,622 157.5,557.5 Q138,493 138,369 Q138,241 156.5,176.5 Q175,112 216,88.5 Q257,65 334,65 Q461,65 535,78 L535,18 Q489,7 431.5,0.5 Q374,-6 318,-6 M184,926 L232,926 L324,829 L424,926 L472,926 L351,791 L295,791"/> 
            <glyph glyph-name="č" unicode="&#x10D;" horiz-adv-x="457" d=" M168,-6 Q57,113 57,266 Q57,373 82.5,433 Q108,493 155,516.5 Q202,540 272,540 Q368,540 449,526 L449,479 L293,479 Q238,479 204.5,461 Q171,443 153.5,396.5 Q136,350 136,264 Q136,182 154.5,136.5 Q173,91 207,73.5 Q241,56 294,56 L457,56 L457,10 Q363,-6 270,-6 M130,766 L178,766 L270,669 L370,766 L418,766 L297,631 L241,631"/> 
            <glyph glyph-name="Ď" unicode="&#x10E;" horiz-adv-x="610" d=" M77,736 L368,736 Q497,736 553.5,644 Q610,552 610,368 Q610,192 548.5,96 Q487,0 368,0 L77,0 M362,71 Q447,71 489,149.5 Q531,228 531,368 Q531,477 513.5,542 Q496,607 459,635.5 Q422,664 362,664 L157,664 L157,71 M178,926 L226,926 L318,829 L418,926 L466,926 L345,791 L289,791"/> 
            <glyph glyph-name="ď" unicode="&#x10F;" horiz-adv-x="642" d=" M150,-6 Q57,124 57,263 Q57,363 77,424 Q97,485 141,513 Q185,541 259,541 Q335,541 423,509 L423,763 L502,763 L502,0 L438,0 L423,54 Q399,33 346,13.5 Q293,-6 249,-6 M314,59 Q385,84 423,104 L423,453 Q376,467 346.5,473 Q317,479 280,479 Q227,479 196,459.5 Q165,440 150.5,394 Q136,348 136,266 Q136,154 167,106.5 Q198,59 272,59 M569,723 L569,783 L642,783 L642,723 L636,582 L575,582"/> 
            <glyph glyph-name="Đ" unicode="&#x110;" horiz-adv-x="610" d=" M497,736 Q610,552 610,368 Q610,192 548.5,96 Q487,0 368,0 L77,0 L77,345 L15,345 L15,400 L77,400 L77,736 L368,736 M447,71 Q531,228 531,368 Q531,477 513.5,542 Q496,607 459,635.5 Q422,664 362,664 L157,664 L157,400 L325,400 L325,345 L157,345 L157,71 L362,71"/> 
            <glyph glyph-name="đ" unicode="&#x111;" horiz-adv-x="571" d=" M571,629 L502,629 L502,0 L438,0 L423,54 Q399,33 346,13.5 Q293,-6 249,-6 Q150,-6 103.5,59 Q57,124 57,263 Q57,363 77,424 Q97,485 141,513 Q185,541 259,541 Q335,541 423,509 L423,629 L284,629 L284,664 L423,664 L423,763 L502,763 L502,664 L571,664 M423,453 Q376,467 346.5,473 Q317,479 280,479 Q227,479 196,459.5 Q165,440 150.5,394 Q136,348 136,266 Q136,154 167,106.5 Q198,59 272,59 Q314,59 349.5,71.5 Q385,84 423,104"/> 
            <glyph glyph-name="Ē" unicode="&#x112;" horiz-adv-x="530" d=" M164,-4 Q77,55 77,139 L77,588 Q77,666 119,701 Q161,736 222,736 Q382,733 471,729 L530,727 L530,663 L242,663 Q157,663 157,575 L157,401 L486,396 L486,335 L157,330 L157,157 Q157,106 181,88 Q205,70 246,70 L530,70 L530,6 Q340,-4 227,-4 M172,879 L437,879 L437,832 L172,832"/> 
            <glyph glyph-name="ē" unicode="&#x113;" horiz-adv-x="484" d=" M194,-6 Q99,44 78,103 Q57,162 57,268 Q57,375 78.5,434 Q100,493 148,517 Q196,541 281,541 Q354,541 398,525 Q442,509 463,470.5 Q484,432 484,364 Q484,296 444.5,265.5 Q405,235 332,235 L136,235 Q137,166 150,128.5 Q163,91 198,73.5 Q233,56 299,56 L471,56 L471,8 Q417,1 375,-2.5 Q333,-6 280,-6 M325,287 Q371,287 392,304 Q413,321 413,363 Q413,430 383.5,455.5 Q354,481 281,481 Q223,481 192,464 Q161,447 148,406 Q135,365 135,287 M135,719 L400,719 L400,672 L135,672"/> 
            <glyph glyph-name="Ĕ" unicode="&#x114;" horiz-adv-x="530" d=" M164,-4 Q77,55 77,139 L77,588 Q77,666 119,701 Q161,736 222,736 Q382,733 471,729 L530,727 L530,663 L242,663 Q157,663 157,575 L157,401 L486,396 L486,335 L157,330 L157,157 Q157,106 181,88 Q205,70 246,70 L530,70 L530,6 Q340,-4 227,-4 M245,789 Q173,857 173,930 L212,930 Q212,877 236.5,852 Q261,827 301,827 Q397,827 397,930 L436,930 Q436,855 400,822 Q364,789 304,789"/> 
            <glyph glyph-name="ĕ" unicode="&#x115;" horiz-adv-x="484" d=" M194,-6 Q99,44 78,103 Q57,162 57,268 Q57,375 78.5,434 Q100,493 148,517 Q196,541 281,541 Q354,541 398,525 Q442,509 463,470.5 Q484,432 484,364 Q484,296 444.5,265.5 Q405,235 332,235 L136,235 Q137,166 150,128.5 Q163,91 198,73.5 Q233,56 299,56 L471,56 L471,8 Q417,1 375,-2.5 Q333,-6 280,-6 M325,287 Q371,287 392,304 Q413,321 413,363 Q413,430 383.5,455.5 Q354,481 281,481 Q223,481 192,464 Q161,447 148,406 Q135,365 135,287 M204,629 Q132,697 132,770 L171,770 Q171,717 196,692 Q221,667 260,667 Q356,667 356,770 L395,770 Q395,695 359,662 Q323,629 263,629"/> 
            <glyph glyph-name="Ė" unicode="&#x116;" horiz-adv-x="530" d=" M164,-4 Q77,55 77,139 L77,588 Q77,666 119,701 Q161,736 222,736 Q382,733 471,729 L530,727 L530,663 L242,663 Q157,663 157,575 L157,401 L486,396 L486,335 L157,330 L157,157 Q157,106 181,88 Q205,70 246,70 L530,70 L530,6 Q340,-4 227,-4 M284,820 Q275,829 275,836 L275,914 Q275,930 291,930 L328,930 Q335,930 339,925.5 Q343,921 343,914 L343,836 Q343,829 339,824.5 Q335,820 328,820 L291,820"/> 
            <glyph glyph-name="ė" unicode="&#x117;" horiz-adv-x="484" d=" M194,-6 Q99,44 78,103 Q57,162 57,268 Q57,375 78.5,434 Q100,493 148,517 Q196,541 281,541 Q354,541 398,525 Q442,509 463,470.5 Q484,432 484,364 Q484,296 444.5,265.5 Q405,235 332,235 L136,235 Q137,166 150,128.5 Q163,91 198,73.5 Q233,56 299,56 L471,56 L471,8 Q417,1 375,-2.5 Q333,-6 280,-6 M325,287 Q371,287 392,304 Q413,321 413,363 Q413,430 383.5,455.5 Q354,481 281,481 Q223,481 192,464 Q161,447 148,406 Q135,365 135,287 M244,660 Q235,669 235,676 L235,754 Q235,770 251,770 L288,770 Q295,770 299,765.5 Q303,761 303,754 L303,676 Q303,669 299,664.5 Q295,660 288,660 L251,660"/> 
            <glyph glyph-name="Ę" unicode="&#x118;" horiz-adv-x="555" d=" M555,-140 L555,-178 Q545,-181 529,-181 Q480,-181 452,-156 Q424,-131 424,-92 Q424,-63 442,-38.5 Q460,-14 495,4 Q323,-4 227,-4 Q164,-4 120.5,25.5 Q77,55 77,139 L77,588 Q77,666 119,701 Q161,736 222,736 Q382,733 471,729 L530,727 L530,663 L242,663 Q157,663 157,575 L157,401 L486,396 L486,335 L157,330 L157,157 Q157,106 181,88 Q205,70 246,70 L530,70 L530,6 L529,6 Q466,-29 466,-75 Q466,-105 488,-122.5 Q510,-140 549,-140"/> 
            <glyph glyph-name="ę" unicode="&#x119;" horiz-adv-x="496" d=" M496,-122 L496,-160 Q485,-163 470,-163 Q421,-163 393,-138 Q365,-113 365,-74 Q365,-31 402,0 Q347,-6 280,-6 Q194,-6 146.5,19 Q99,44 78,103 Q57,162 57,268 Q57,375 78.5,434 Q100,493 148,517 Q196,541 281,541 Q354,541 398,525 Q442,509 463,470.5 Q484,432 484,364 Q484,296 444.5,265.5 Q405,235 332,235 L136,235 Q137,166 150,128.5 Q163,91 198,73.5 Q233,56 299,56 L471,56 L471,8 L441,4 Q407,-24 407,-57 Q407,-87 429,-104.5 Q451,-122 490,-122 M223,481 Q161,447 148,406 Q135,365 135,287 L325,287 Q371,287 392,304 Q413,321 413,363 Q413,430 383.5,455.5 Q354,481 281,481"/> 
            <glyph glyph-name="Ě" unicode="&#x11A;" horiz-adv-x="530" d=" M164,-4 Q77,55 77,139 L77,588 Q77,666 119,701 Q161,736 222,736 Q382,733 471,729 L530,727 L530,663 L242,663 Q157,663 157,575 L157,401 L486,396 L486,335 L157,330 L157,157 Q157,106 181,88 Q205,70 246,70 L530,70 L530,6 Q340,-4 227,-4 M171,926 L219,926 L311,829 L411,926 L459,926 L338,791 L282,791"/> 
            <glyph glyph-name="ě" unicode="&#x11B;" horiz-adv-x="484" d=" M194,-6 Q99,44 78,103 Q57,162 57,268 Q57,375 78.5,434 Q100,493 148,517 Q196,541 281,541 Q354,541 398,525 Q442,509 463,470.5 Q484,432 484,364 Q484,296 444.5,265.5 Q405,235 332,235 L136,235 Q137,166 150,128.5 Q163,91 198,73.5 Q233,56 299,56 L471,56 L471,8 Q417,1 375,-2.5 Q333,-6 280,-6 M325,287 Q371,287 392,304 Q413,321 413,363 Q413,430 383.5,455.5 Q354,481 281,481 Q223,481 192,464 Q161,447 148,406 Q135,365 135,287 M130,766 L178,766 L270,669 L370,766 L418,766 L297,631 L241,631"/> 
            <glyph glyph-name="Ĝ" unicode="&#x11C;" horiz-adv-x="575" d=" M202,-5 Q100,74 79.5,154.5 Q59,235 59,370 Q59,501 81,581 Q103,661 157.5,701.5 Q212,742 308,742 Q365,742 428,735 Q491,728 545,716 L545,657 Q505,662 442,666.5 Q379,671 320,671 Q248,671 208.5,641 Q169,611 153.5,546.5 Q138,482 138,369 Q138,249 153.5,185 Q169,121 207,94.5 Q245,68 317,68 Q361,68 409.5,79 Q458,90 499,106 L499,323 L321,323 L321,382 Q386,392 486,392 Q544,392 575,388 L575,0 L517,0 L505,52 Q460,29 405,12 Q350,-5 293,-5 M303,926 L359,926 L469,791 L421,791 L330,888 L230,791 L181,791"/> 
            <glyph glyph-name="ĝ" unicode="&#x11D;" horiz-adv-x="553" d=" M553,490 L433,480 Q453,467 466.5,453.5 Q480,440 490.5,412.5 Q501,385 501,343 Q501,273 456,227 Q411,181 312,181 L227,181 Q182,181 159,168 Q136,155 136,124 Q136,102 152.5,91 Q169,80 192,80 L369,80 Q462,80 507.5,44 Q553,8 553,-67 L553,-89 Q553,-163 502.5,-204 Q452,-245 356,-245 L207,-245 Q126,-245 78.5,-211.5 Q31,-178 31,-113 L31,-89 Q31,-45 55,-14 Q79,17 118,34 Q93,46 80,66.5 Q67,87 67,113 Q67,189 157,208 Q105,229 83.5,270.5 Q62,312 62,363 Q62,535 268,535 L553,535 M374,242 Q429,302 429,352 Q429,473 313,473 L256,473 Q196,473 165,446.5 Q134,420 134,359 Q134,242 244,242 L304,242 M221,18 Q173,18 139.5,-5.5 Q106,-29 106,-76 L106,-98 Q106,-187 225,-187 L349,-187 Q411,-187 444.5,-163.5 Q478,-140 478,-92 L478,-72 Q478,-29 451,-5.5 Q424,18 359,18 M264,766 L320,766 L430,631 L382,631 L291,728 L191,631 L142,631"/> 
            <glyph glyph-name="Ğ" unicode="&#x11E;" horiz-adv-x="575" d=" M202,-5 Q100,74 79.5,154.5 Q59,235 59,370 Q59,501 81,581 Q103,661 157.5,701.5 Q212,742 308,742 Q365,742 428,735 Q491,728 545,716 L545,657 Q505,662 442,666.5 Q379,671 320,671 Q248,671 208.5,641 Q169,611 153.5,546.5 Q138,482 138,369 Q138,249 153.5,185 Q169,121 207,94.5 Q245,68 317,68 Q361,68 409.5,79 Q458,90 499,106 L499,323 L321,323 L321,382 Q386,392 486,392 Q544,392 575,388 L575,0 L517,0 L505,52 Q460,29 405,12 Q350,-5 293,-5 M262,789 Q190,857 190,930 L229,930 Q229,877 253.5,852 Q278,827 318,827 Q414,827 414,930 L453,930 Q453,855 417,822 Q381,789 321,789"/> 
            <glyph glyph-name="ğ" unicode="&#x11F;" horiz-adv-x="553" d=" M553,490 L433,480 Q453,467 466.5,453.5 Q480,440 490.5,412.5 Q501,385 501,343 Q501,273 456,227 Q411,181 312,181 L227,181 Q182,181 159,168 Q136,155 136,124 Q136,102 152.5,91 Q169,80 192,80 L369,80 Q462,80 507.5,44 Q553,8 553,-67 L553,-89 Q553,-163 502.5,-204 Q452,-245 356,-245 L207,-245 Q126,-245 78.5,-211.5 Q31,-178 31,-113 L31,-89 Q31,-45 55,-14 Q79,17 118,34 Q93,46 80,66.5 Q67,87 67,113 Q67,189 157,208 Q105,229 83.5,270.5 Q62,312 62,363 Q62,535 268,535 L553,535 M374,242 Q429,302 429,352 Q429,473 313,473 L256,473 Q196,473 165,446.5 Q134,420 134,359 Q134,242 244,242 L304,242 M221,18 Q173,18 139.5,-5.5 Q106,-29 106,-76 L106,-98 Q106,-187 225,-187 L349,-187 Q411,-187 444.5,-163.5 Q478,-140 478,-92 L478,-72 Q478,-29 451,-5.5 Q424,18 359,18 M223,629 Q151,697 151,770 L190,770 Q190,717 215,692 Q240,667 279,667 Q375,667 375,770 L414,770 Q414,695 378,662 Q342,629 282,629"/> 
            <glyph glyph-name="Ġ" unicode="&#x120;" horiz-adv-x="575" d=" M202,-5 Q100,74 79.5,154.5 Q59,235 59,370 Q59,501 81,581 Q103,661 157.5,701.5 Q212,742 308,742 Q365,742 428,735 Q491,728 545,716 L545,657 Q505,662 442,666.5 Q379,671 320,671 Q248,671 208.5,641 Q169,611 153.5,546.5 Q138,482 138,369 Q138,249 153.5,185 Q169,121 207,94.5 Q245,68 317,68 Q361,68 409.5,79 Q458,90 499,106 L499,323 L321,323 L321,382 Q386,392 486,392 Q544,392 575,388 L575,0 L517,0 L505,52 Q460,29 405,12 Q350,-5 293,-5 M301,820 Q292,829 292,836 L292,914 Q292,930 308,930 L345,930 Q352,930 356,925.5 Q360,921 360,914 L360,836 Q360,829 356,824.5 Q352,820 345,820 L308,820"/> 
            <glyph glyph-name="ġ" unicode="&#x121;" horiz-adv-x="553" d=" M553,490 L433,480 Q453,467 466.5,453.5 Q480,440 490.5,412.5 Q501,385 501,343 Q501,273 456,227 Q411,181 312,181 L227,181 Q182,181 159,168 Q136,155 136,124 Q136,102 152.5,91 Q169,80 192,80 L369,80 Q462,80 507.5,44 Q553,8 553,-67 L553,-89 Q553,-163 502.5,-204 Q452,-245 356,-245 L207,-245 Q126,-245 78.5,-211.5 Q31,-178 31,-113 L31,-89 Q31,-45 55,-14 Q79,17 118,34 Q93,46 80,66.5 Q67,87 67,113 Q67,189 157,208 Q105,229 83.5,270.5 Q62,312 62,363 Q62,535 268,535 L553,535 M374,242 Q429,302 429,352 Q429,473 313,473 L256,473 Q196,473 165,446.5 Q134,420 134,359 Q134,242 244,242 L304,242 M221,18 Q173,18 139.5,-5.5 Q106,-29 106,-76 L106,-98 Q106,-187 225,-187 L349,-187 Q411,-187 444.5,-163.5 Q478,-140 478,-92 L478,-72 Q478,-29 451,-5.5 Q424,18 359,18 M263,660 Q254,669 254,676 L254,754 Q254,770 270,770 L307,770 Q314,770 318,765.5 Q322,761 322,754 L322,676 Q322,669 318,664.5 Q314,660 307,660 L270,660"/> 
            <glyph glyph-name="Ģ" unicode="&#x122;" horiz-adv-x="575" d=" M202,-5 Q100,74 79.5,154.5 Q59,235 59,370 Q59,501 81,581 Q103,661 157.5,701.5 Q212,742 308,742 Q365,742 428,735 Q491,728 545,716 L545,657 Q505,662 442,666.5 Q379,671 320,671 Q248,671 208.5,641 Q169,611 153.5,546.5 Q138,482 138,369 Q138,249 153.5,185 Q169,121 207,94.5 Q245,68 317,68 Q361,68 409.5,79 Q458,90 499,106 L499,323 L321,323 L321,382 Q386,392 486,392 Q544,392 575,388 L575,0 L517,0 L505,52 Q460,29 405,12 Q350,-5 293,-5 M257,-170 L287,-165 Q313,-161 327,-153.5 Q341,-146 348,-125 Q355,-104 355,-63 L404,-63 Q404,-115 395,-144.5 Q386,-174 362.5,-188 Q339,-202 295,-202 L257,-202"/> 
            <glyph glyph-name="ģ" unicode="&#x123;" horiz-adv-x="553" d=" M553,490 L433,480 Q453,467 466.5,453.5 Q480,440 490.5,412.5 Q501,385 501,343 Q501,273 456,227 Q411,181 312,181 L227,181 Q182,181 159,168 Q136,155 136,124 Q136,102 152.5,91 Q169,80 192,80 L369,80 Q462,80 507.5,44 Q553,8 553,-67 L553,-89 Q553,-163 502.5,-204 Q452,-245 356,-245 L207,-245 Q126,-245 78.5,-211.5 Q31,-178 31,-113 L31,-89 Q31,-45 55,-14 Q79,17 118,34 Q93,46 80,66.5 Q67,87 67,113 Q67,189 157,208 Q105,229 83.5,270.5 Q62,312 62,363 Q62,535 268,535 L553,535 M374,242 Q429,302 429,352 Q429,473 313,473 L256,473 Q196,473 165,446.5 Q134,420 134,359 Q134,242 244,242 L304,242 M221,18 Q173,18 139.5,-5.5 Q106,-29 106,-76 L106,-98 Q106,-187 225,-187 L349,-187 Q411,-187 444.5,-163.5 Q478,-140 478,-92 L478,-72 Q478,-29 451,-5.5 Q424,18 359,18 M236,667 Q254,726 277.5,739.5 Q301,753 345,753 L383,753 L383,721 L353,716 Q327,712 313,704.5 Q299,697 292,676 Q285,655 285,614 L236,614"/> 
            <glyph glyph-name="Ĥ" unicode="&#x124;" horiz-adv-x="604" d=" M77,736 L157,736 L157,395 L525,395 L525,736 L604,736 L604,0 L525,0 L525,324 L157,324 L157,0 L77,0 M316,926 L372,926 L482,791 L434,791 L343,888 L243,791 L194,791"/> 
            <glyph glyph-name="ĥ" unicode="&#x125;" horiz-adv-x="515" d=" M76,763 L155,763 L155,475 Q196,504 247.5,523.5 Q299,543 351,543 Q432,543 473.5,493 Q515,443 515,364 L515,0 L436,0 L436,355 Q436,406 406,438.5 Q376,471 325,471 Q277,471 239.5,458.5 Q202,446 155,419 L155,0 L76,0 M138,946 L194,946 L304,811 L256,811 L165,908 L65,811 L16,811"/> 
            <glyph glyph-name="Ħ" unicode="&#x126;" horiz-adv-x="667" d=" M667,525 L604,525 L604,0 L525,0 L525,324 L157,324 L157,0 L77,0 L77,525 L15,525 L15,571 L77,571 L77,736 L157,736 L157,571 L525,571 L525,736 L604,736 L604,571 L667,571 M525,525 L157,525 L157,395 L525,395"/> 
            <glyph glyph-name="ħ" unicode="&#x127;" horiz-adv-x="515" d=" M432,543 Q515,443 515,364 L515,0 L436,0 L436,355 Q436,406 406,438.5 Q376,471 325,471 Q277,471 239.5,458.5 Q202,446 155,419 L155,0 L76,0 L76,629 L4,629 L4,664 L76,664 L76,763 L155,763 L155,664 L291,664 L291,629 L155,629 L155,475 Q196,504 247.5,523.5 Q299,543 351,543"/> 
            <glyph glyph-name="Ĩ" unicode="&#x128;" horiz-adv-x="297" d=" M77,736 L157,736 L157,0 L77,0 M-54,862 Q2,914 41,914 Q64,914 82.5,905.5 Q101,897 128,881 Q149,867 164.5,860 Q180,853 196,853 Q222,853 239,869.5 Q256,886 257,916 L297,916 Q296,865 271,836 Q246,807 201,807 Q180,807 161.5,815 Q143,823 116,840 Q93,854 77,861.5 Q61,869 45,869 Q20,869 3.5,853 Q-13,837 -14,807 L-55,807"/> 
            <glyph glyph-name="ĩ" unicode="&#x129;" horiz-adv-x="303" d=" M76,534 L155,534 L155,0 L76,0 M208,702 Q264,754 303,754 Q326,754 344.5,745.5 Q363,737 390,721 Q411,707 426.5,700 Q442,693 458,693 Q484,693 501,709.5 Q518,726 519,756 L559,756 Q558,705 533,676 Q508,647 463,647 Q442,647 423.5,655 Q405,663 378,680 Q355,694 339,701.5 Q323,709 307,709 Q282,709 265.5,693 Q249,677 248,647 L207,647"/> 
            <glyph glyph-name="Ī" unicode="&#x12A;" horiz-adv-x="243" d=" M77,736 L157,736 L157,0 L77,0 M-22,879 L243,879 L243,832 L-22,832"/> 
            <glyph glyph-name="ī" unicode="&#x12B;" horiz-adv-x="245" d=" M76,534 L155,534 L155,0 L76,0 M236,719 L501,719 L501,672 L236,672"/> 
            <glyph glyph-name="Ĭ" unicode="&#x12C;" horiz-adv-x="242" d=" M77,736 L157,736 L157,0 L77,0 M51,789 Q-21,857 -21,930 L18,930 Q18,877 42.5,852 Q67,827 107,827 Q203,827 203,930 L242,930 Q242,855 206,822 Q170,789 110,789"/> 
            <glyph glyph-name="ĭ" unicode="&#x12D;" horiz-adv-x="240" d=" M76,534 L155,534 L155,0 L76,0 M305,629 Q233,697 233,770 L272,770 Q272,717 297,692 Q322,667 361,667 Q457,667 457,770 L496,770 Q496,695 460,662 Q424,629 364,629"/> 
            <glyph glyph-name="Į" unicode="&#x12E;" horiz-adv-x="182" d=" M77,736 L157,736 L157,0 L77,0 M363,-187 Q307,-137 307,-98 Q307,-68 326,-43 Q345,-18 382,0 L412,0 Q349,-35 349,-81 Q349,-111 371,-128.5 Q393,-146 432,-146 L438,-146 L438,-184 Q427,-187 412,-187"/> 
            <glyph glyph-name="į" unicode="&#x12F;" horiz-adv-x="181" d=" M81,629 Q72,638 72,645 L72,723 Q72,739 88,739 L144,739 Q159,739 159,723 L159,645 Q159,629 144,629 L88,629 M76,534 L155,534 L155,0 L76,0 M362,-187 Q306,-137 306,-98 Q306,-68 325,-43 Q344,-18 381,0 L411,0 Q348,-35 348,-81 Q348,-111 370,-128.5 Q392,-146 431,-146 L437,-146 L437,-184 Q426,-187 411,-187"/> 
            <glyph glyph-name="İ" unicode="&#x130;" horiz-adv-x="157" d=" M77,736 L157,736 L157,0 L77,0 M90,820 Q81,829 81,836 L81,914 Q81,930 97,930 L134,930 Q141,930 145,925.5 Q149,921 149,914 L149,836 Q149,829 145,824.5 Q141,820 134,820 L97,820"/> 
            <glyph glyph-name="ı" unicode="&#x131;" horiz-adv-x="155" d=" M76,534 L155,534 L155,0 L76,0"/> 
            <glyph glyph-name="Ĵ" unicode="&#x134;" horiz-adv-x="409" d=" M112,-6 Q48,7 27,17 L27,78 Q88,65 125,65 Q176,65 202,88 Q228,111 228,171 L228,736 L307,736 L307,161 Q307,71 266.5,32.5 Q226,-6 140,-6 M243,926 L299,926 L409,791 L361,791 L270,888 L170,791 L121,791"/> 
            <glyph glyph-name="ĵ" unicode="&#x135;" horiz-adv-x="256" d=" M76,534 L155,534 L155,17 Q155,-52 149.5,-120 Q144,-188 135,-237 L76,-237 M346,766 L402,766 L512,631 L464,631 L373,728 L273,631 L224,631"/> 
            <glyph glyph-name="Ķ" unicode="&#x136;" horiz-adv-x="575" d=" M77,736 L157,736 L157,403 L286,403 L488,736 L572,736 L349,368 L575,0 L490,0 L286,331 L157,331 L157,0 L77,0 M210,-170 L240,-165 Q266,-161 280,-153.5 Q294,-146 301,-125 Q308,-104 308,-63 L357,-63 Q357,-115 348,-144.5 Q339,-174 315.5,-188 Q292,-202 248,-202 L210,-202"/> 
            <glyph glyph-name="ķ" unicode="&#x137;" horiz-adv-x="490" d=" M76,763 L155,763 L155,321 L231,321 L394,534 L478,534 L290,285 L490,0 L406,0 L228,250 L155,250 L155,0 L76,0 M174,-170 L204,-165 Q230,-161 244,-153.5 Q258,-146 265,-125 Q272,-104 272,-63 L321,-63 Q321,-115 312,-144.5 Q303,-174 279.5,-188 Q256,-202 212,-202 L174,-202"/> 
            <glyph glyph-name="ĸ" unicode="&#x138;" horiz-adv-x="490" d=" M76,540 L155,540 L155,317 L229,317 L392,534 L478,534 L290,280 L490,0 L405,0 L229,245 L155,245 L155,0 L76,0"/> 
            <glyph glyph-name="Ĺ" unicode="&#x139;" horiz-adv-x="506" d=" M155,0 Q77,67 77,148 L77,736 L157,736 L157,159 Q157,110 180,91.5 Q203,73 242,73 L506,73 L506,0 L225,0 M202,927 L269,927 L144,791 L98,791"/> 
            <glyph glyph-name="ĺ" unicode="&#x13A;" horiz-adv-x="284" d=" M145,-1 Q76,77 76,171 L76,763 L155,763 L155,181 Q155,115 173,91 Q191,67 230,62 L284,56 L284,-1 L216,-1 M187,1001 L254,1001 L129,865 L83,865"/> 
            <glyph glyph-name="Ļ" unicode="&#x13B;" horiz-adv-x="506" d=" M155,0 Q77,67 77,148 L77,736 L157,736 L157,159 Q157,110 180,91.5 Q203,73 242,73 L506,73 L506,0 L225,0 M191,-170 L221,-165 Q247,-161 261,-153.5 Q275,-146 282,-125 Q289,-104 289,-63 L338,-63 Q338,-115 329,-144.5 Q320,-174 296.5,-188 Q273,-202 229,-202 L191,-202"/> 
            <glyph glyph-name="ļ" unicode="&#x13C;" horiz-adv-x="284" d=" M145,-1 Q76,77 76,171 L76,763 L155,763 L155,181 Q155,115 173,91 Q191,67 230,62 L284,56 L284,-1 L216,-1 M83,-170 L113,-165 Q139,-161 153,-153.5 Q167,-146 174,-125 Q181,-104 181,-63 L230,-63 Q230,-115 221,-144.5 Q212,-174 188.5,-188 Q165,-202 121,-202 L83,-202"/> 
            <glyph glyph-name="Ľ" unicode="&#x13D;" horiz-adv-x="506" d=" M155,0 Q77,67 77,148 L77,736 L157,736 L157,159 Q157,110 180,91.5 Q203,73 242,73 L506,73 L506,0 L225,0 M244,723 L244,783 L317,783 L317,723 L311,582 L250,582"/> 
            <glyph glyph-name="ľ" unicode="&#x13E;" horiz-adv-x="295" d=" M145,-1 Q76,77 76,171 L76,763 L155,763 L155,181 Q155,115 173,91 Q191,67 230,62 L284,56 L284,-1 L216,-1 M222,723 L222,783 L295,783 L295,723 L289,582 L228,582"/> 
            <glyph glyph-name="Ŀ" unicode="&#x13F;" horiz-adv-x="506" d=" M155,0 Q77,67 77,148 L77,736 L157,736 L157,159 Q157,110 180,91.5 Q203,73 242,73 L506,73 L506,0 L225,0 M363,352 Q354,360 354,367 L354,414 Q354,430 370,430 L414,430 Q431,430 431,414 L431,367 Q431,352 414,352 L370,352"/> 
            <glyph glyph-name="ŀ" unicode="&#x140;" horiz-adv-x="316" d=" M145,-1 Q76,77 76,171 L76,763 L155,763 L155,181 Q155,115 173,91 Q191,67 230,62 L284,56 L284,-1 L216,-1 M248,339 Q239,347 239,354 L239,401 Q239,417 255,417 L299,417 Q316,417 316,401 L316,354 Q316,339 299,339 L255,339"/> 
            <glyph glyph-name="Ł" unicode="&#x141;" horiz-adv-x="506" d=" M506,73 L506,0 L225,0 Q155,0 116,33.5 Q77,67 77,148 L77,347 L2,314 L2,361 L77,394 L77,736 L157,736 L157,418 L292,477 L292,431 L157,372 L157,159 Q157,110 180,91.5 Q203,73 242,73"/> 
            <glyph glyph-name="ł" unicode="&#x142;" horiz-adv-x="284" d=" M284,56 L284,-1 L216,-1 Q145,-1 110.5,38 Q76,77 76,171 L76,383 L3,356 L3,403 L76,430 L76,763 L155,763 L155,456 L257,492 L257,445 L155,409 L155,181 Q155,115 173,91 Q191,67 230,62"/> 
            <glyph glyph-name="Ń" unicode="&#x143;" horiz-adv-x="619" d=" M91,736 L156,736 L540,137 L540,736 L619,736 L619,0 L554,0 L170,599 L170,0 L91,0 M424,927 L491,927 L366,791 L320,791"/> 
            <glyph glyph-name="ń" unicode="&#x144;" horiz-adv-x="515" d=" M76,534 L138,534 L155,475 Q197,504 248,523.5 Q299,543 350,543 Q433,543 474,492 Q515,441 515,363 L515,0 L436,0 L436,354 Q436,406 406.5,438.5 Q377,471 325,471 Q277,471 239.5,458.5 Q202,446 155,419 L155,0 L76,0 M365,767 L432,767 L307,631 L261,631"/> 
            <glyph glyph-name="Ņ" unicode="&#x145;" horiz-adv-x="619" d=" M91,736 L156,736 L540,137 L540,736 L619,736 L619,0 L554,0 L170,599 L170,0 L91,0 M257,-170 L287,-165 Q313,-161 327,-153.5 Q341,-146 348,-125 Q355,-104 355,-63 L404,-63 Q404,-115 395,-144.5 Q386,-174 362.5,-188 Q339,-202 295,-202 L257,-202"/> 
            <glyph glyph-name="ņ" unicode="&#x146;" horiz-adv-x="515" d=" M76,534 L138,534 L155,475 Q197,504 248,523.5 Q299,543 350,543 Q433,543 474,492 Q515,441 515,363 L515,0 L436,0 L436,354 Q436,406 406.5,438.5 Q377,471 325,471 Q277,471 239.5,458.5 Q202,446 155,419 L155,0 L76,0 M211,-170 L241,-165 Q267,-161 281,-153.5 Q295,-146 302,-125 Q309,-104 309,-63 L358,-63 Q358,-115 349,-144.5 Q340,-174 316.5,-188 Q293,-202 249,-202 L211,-202"/> 
            <glyph glyph-name="Ň" unicode="&#x147;" horiz-adv-x="619" d=" M91,736 L156,736 L540,137 L540,736 L619,736 L619,0 L554,0 L170,599 L170,0 L91,0 M199,926 L247,926 L339,829 L439,926 L487,926 L366,791 L310,791"/> 
            <glyph glyph-name="ň" unicode="&#x148;" horiz-adv-x="515" d=" M76,534 L138,534 L155,475 Q197,504 248,523.5 Q299,543 350,543 Q433,543 474,492 Q515,441 515,363 L515,0 L436,0 L436,354 Q436,406 406.5,438.5 Q377,471 325,471 Q277,471 239.5,458.5 Q202,446 155,419 L155,0 L76,0 M153,766 L201,766 L293,669 L393,766 L441,766 L320,631 L264,631"/> 
            <glyph glyph-name="Ŋ" unicode="&#x14A;" horiz-adv-x="619" d=" M619,736 L619,-76 Q619,-166 575,-204.5 Q531,-243 439,-243 Q411,-243 379,-236.5 Q347,-230 326,-220 L326,-159 Q389,-172 427,-172 Q482,-172 511,-149 Q540,-126 540,-66 L540,22 L170,599 L170,0 L91,0 L91,736 L156,736 L540,137 L540,736"/> 
            <glyph glyph-name="ŋ" unicode="&#x14B;" horiz-adv-x="515" d=" M433,543 Q515,441 515,363 L515,-1 Q515,-167 386,-237 L322,-237 Q376,-196 406,-141 Q436,-86 436,-3 L436,354 Q436,406 406.5,438.5 Q377,471 325,471 Q277,471 239.5,458.5 Q202,446 155,419 L155,0 L76,0 L76,534 L138,534 L155,475 Q197,504 248,523.5 Q299,543 350,543"/> 
            <glyph glyph-name="Ō" unicode="&#x14C;" horiz-adv-x="627" d=" M239,-6 Q120,49 89.5,128.5 Q59,208 59,365 Q59,521 90.5,602.5 Q122,684 182,713 Q242,742 343,742 Q447,742 507,713.5 Q567,685 597,603.5 Q627,522 627,365 Q627,208 596.5,128.5 Q566,49 506.5,21.5 Q447,-6 343,-6 M423,65 Q508,109 528,173 Q548,237 548,365 Q548,498 528,563 Q508,628 465.5,649.5 Q423,671 343,671 Q267,671 224,649.5 Q181,628 159.5,562 Q138,496 138,365 Q138,236 157,172.5 Q176,109 218.5,87 Q261,65 343,65 M204,879 L469,879 L469,832 L204,832"/> 
            <glyph glyph-name="ō" unicode="&#x14D;" horiz-adv-x="520" d=" M206,-6 Q106,40 81.5,99.5 Q57,159 57,268 Q57,378 82,437.5 Q107,497 156,519 Q205,541 288,541 Q370,541 420,518.5 Q470,496 495,436.5 Q520,377 520,268 Q520,159 495,99.5 Q470,40 420.5,17 Q371,-6 288,-6 M343,59 Q406,88 423,133 Q440,178 440,268 Q440,358 423.5,402.5 Q407,447 375,461.5 Q343,476 288,476 Q232,476 200.5,461.5 Q169,447 152.5,402.5 Q136,358 136,268 Q136,178 152.5,133 Q169,88 200.5,73.5 Q232,59 288,59 M153,719 L418,719 L418,672 L153,672"/> 
            <glyph glyph-name="Ŏ" unicode="&#x14E;" horiz-adv-x="627" d=" M239,-6 Q120,49 89.5,128.5 Q59,208 59,365 Q59,521 90.5,602.5 Q122,684 182,713 Q242,742 343,742 Q447,742 507,713.5 Q567,685 597,603.5 Q627,522 627,365 Q627,208 596.5,128.5 Q566,49 506.5,21.5 Q447,-6 343,-6 M423,65 Q508,109 528,173 Q548,237 548,365 Q548,498 528,563 Q508,628 465.5,649.5 Q423,671 343,671 Q267,671 224,649.5 Q181,628 159.5,562 Q138,496 138,365 Q138,236 157,172.5 Q176,109 218.5,87 Q261,65 343,65 M277,789 Q205,857 205,930 L244,930 Q244,877 268.5,852 Q293,827 333,827 Q429,827 429,930 L468,930 Q468,855 432,822 Q396,789 336,789"/> 
            <glyph glyph-name="ŏ" unicode="&#x14F;" horiz-adv-x="520" d=" M206,-6 Q106,40 81.5,99.5 Q57,159 57,268 Q57,378 82,437.5 Q107,497 156,519 Q205,541 288,541 Q370,541 420,518.5 Q470,496 495,436.5 Q520,377 520,268 Q520,159 495,99.5 Q470,40 420.5,17 Q371,-6 288,-6 M343,59 Q406,88 423,133 Q440,178 440,268 Q440,358 423.5,402.5 Q407,447 375,461.5 Q343,476 288,476 Q232,476 200.5,461.5 Q169,447 152.5,402.5 Q136,358 136,268 Q136,178 152.5,133 Q169,88 200.5,73.5 Q232,59 288,59 M222,629 Q150,697 150,770 L189,770 Q189,717 214,692 Q239,667 278,667 Q374,667 374,770 L413,770 Q413,695 377,662 Q341,629 281,629"/> 
            <glyph glyph-name="Ő" unicode="&#x150;" horiz-adv-x="627" d=" M239,-6 Q120,49 89.5,128.5 Q59,208 59,365 Q59,521 90.5,602.5 Q122,684 182,713 Q242,742 343,742 Q447,742 507,713.5 Q567,685 597,603.5 Q627,522 627,365 Q627,208 596.5,128.5 Q566,49 506.5,21.5 Q447,-6 343,-6 M423,65 Q508,109 528,173 Q548,237 548,365 Q548,498 528,563 Q508,628 465.5,649.5 Q423,671 343,671 Q267,671 224,649.5 Q181,628 159.5,562 Q138,496 138,365 Q138,236 157,172.5 Q176,109 218.5,87 Q261,65 343,65 M324,927 L389,927 L270,791 L224,791 M474,927 L539,927 L420,791 L374,791"/> 
            </font>
</defs>
</svg>
