<svg xmlns="http://www.w3.org/2000/svg" width="80" height="80" viewBox="0 0 80 80">
<title>instagram-with-circle</title>
<path d="M52 40c0 6.628-5.372 12-12 12s-12-5.372-12-12c0-0.684 0.072-1.352 0.196-2h-4.196v15.988c0 1.112 0.9 2.012 2.012 2.012h27.98c1.108 0 2.008-0.9 2.008-2.012v-15.988h-4.196c0.124 0.648 0.196 1.316 0.196 2zM40 48c4.416 0 8-3.584 8-8s-3.584-8-8-8-8 3.584-8 8 3.584 8 8 8zM49.6 31.6h4.796c0.664 0 1.204-0.54 1.204-1.2v-4.796c0-0.664-0.54-1.204-1.204-1.204h-4.796c-0.664 0-1.204 0.54-1.204 1.204v4.796c0.004 0.66 0.544 1.2 1.204 1.2zM40 1.6c-21.208 0-38.4 17.192-38.4 38.4s17.192 38.4 38.4 38.4c21.208 0 38.4-17.192 38.4-38.4s-17.192-38.4-38.4-38.4zM60 55.556c0 2.444-2 4.444-4.444 4.444h-31.112c-2.444 0-4.444-2-4.444-4.444v-31.112c0-2.444 2-4.444 4.444-4.444h31.112c2.444 0 4.444 2 4.444 4.444v31.112z"></path>
</svg>
