<svg xmlns="http://www.w3.org/2000/svg" viewBox="0 0 340.75 110.77"><defs><style>.a,.b{fill:none;stroke:#000;stroke-width:0.75px;}.a{stroke-linejoin:round;}.b{stroke-miterlimit:10;}</style></defs><title>e-class</title><path class="a" d="M355.07,539c-3.4,0-21.79-1.92-24.76-3.49-0.9-.48.31-2.4,1.31-3.09s-0.17-15.82-.17-16.56-0.22-1.57,1.48-2.48,2.18-15.43,2.14-16.43,2.14-3.75,9-7.32,19.35-6.58,34.91-9,39.18-5.27,55.31-5.4c8.54-5.4,29.07-17,36-20.4s11.85-5.93,24.84-8S536.07,445,539.08,445s22.58,0.87,34,2.44,27.41,5.8,56.88,23c6.23,1.31,11.59,1.83,14.08,2.27a78.08,78.08,0,0,0,12.68,1c3.49-.17,3.7,1.74,3.79,2.14s3.09,12.42,3.31,15.47,4.14,10.46,5.1,13.9,1,12.24,1,13.9c0,2.4-2.88,12.42-7.63,13.47-4.57,1-30.9,5.14-33.47,5.4,0.13-3.23-.89-17.91-5.77-24.77-5.13-7.21-14-14.65-29.4-11.8-25.74,4.76-23.88,33.47-23.84,37.7-2.83.17-154.63-.78-156.94-0.78,0-1.87-.36-15.8-4.53-23.58a28.69,28.69,0,0,0-25.57-15.08C357.86,500,352.4,521.66,355.07,539Z" transform="translate(-329.63 -444.61)"/><path class="a" d="M335.85,519.88c0,1.48.74,9.81,2.7,10.5s6.49,1.74,8.06.31,2.18-3.09.78-5.45-4.36-7-8.15-7.23S335.85,519.45,335.85,519.88Z" transform="translate(-329.63 -444.61)"/><path class="a" d="M334.94,500.19c2-.83,12-5,16.61-5.88a27.15,27.15,0,0,1,10.94-.17c2.18,0.57,2.15,1.3,1.31,2.7-2.62,4.36-27.88,15.81-30.85,16.42" transform="translate(-329.63 -444.61)"/><path class="a" d="M351.06,494.48c-7.45,2.14-16.56,13.55-10.5,15.65" transform="translate(-329.63 -444.61)"/><line class="a" x1="83.24" y1="92.26" x2="240.13" y2="91.05"/><line class="a" x1="83.15" y1="88.7" x2="240.48" y2="85.12"/><path class="a" d="M350.8,494.52c3.31-.78,24.06-5.75,38.79-6.62s38.53-3.66,42.71-9.33" transform="translate(-329.63 -444.61)"/><path class="a" d="M425.85,475.52a7.22,7.22,0,0,0,7.61,2.73c4.82-1,11.16-5.06,13-6s25.8-15.4,32.83-18.48,13.54-5.29,20.45-6.16,23.56-2.38,27.17-2.55" transform="translate(-329.63 -444.61)"/><path class="a" d="M565.84,446.62c21.09,2.16,52.15,21.53,54.8,22.68s7.5,3.49,9.36,1.16" transform="translate(-329.63 -444.61)"/><path class="a" d="M669.22,506.49c0.12,1.16-.06,2.61-3.66,3.84s-5.4,2.15-7.55,6-3.89,7-4.42,7.9S652.19,527,654.8,527s10.11-.86,10.11-0.86" transform="translate(-329.63 -444.61)"/><path class="a" d="M661.11,533c1-2.53,7.41-13.07,8.89-13.77" transform="translate(-329.63 -444.61)"/><path class="a" d="M664.1,492.73c-0.81-1.74-3.49-6.75-6.62-8.38a13.61,13.61,0,0,0-6.16-1.63c-1.63-.23-5.35-0.12-7.21-0.12s-6.51,1.51-3.72,3.84,19.53,14.06,26.27,13.25" transform="translate(-329.63 -444.61)"/><path class="a" d="M617.26,507c5.35-.93,30.33-5.81,33.12-6.86a10.92,10.92,0,0,0,5-4" transform="translate(-329.63 -444.61)"/><path class="a" d="M620.64,469.3c4.88,3.16,30.46,9.09,32.31,9.82,5.24,2.06,9.87,7.79,10.68,12.26" transform="translate(-329.63 -444.61)"/><path class="a" d="M437.36,532.79c-1.13-2.44-2.44-6.8-2.79-7.67s-2.27-18-1.66-25.89,1.57-12.2,2.18-13.42,3.05-3.92,7-6.8,18.88-12.19,22.25-14.09c4-2.28,15.75-8.89,23.33-11.62,7.11-2.56,20-3.92,23.62-4.27s15.6-.44,18.13-0.52,18.91,0.35,22.92.52a69.09,69.09,0,0,1,22.23,5.06,95.69,95.69,0,0,1,19.61,11.51c1.39,1,6.36,4.88,6.45,9.68s-1.31,6.45-3.4,9.15S580.83,502,579.52,503.32s-7.58,7.84-9.59,13.25-3.05,9.5-3.23,13.25" transform="translate(-329.63 -444.61)"/><path class="a" d="M596,475.32c0-3.31-.53-4.77-2.36-6.78s-22-18.85-49.77-19.79" transform="translate(-329.63 -444.61)"/><path class="a" d="M466.74,479.15c19.53-1.26,41.92-2.59,55.3-2.93,20.53-.52,69.58-1.07,78.56-0.89" transform="translate(-329.63 -444.61)"/><path class="a" d="M439.69,480.94l12.48-.84" transform="translate(-329.63 -444.61)"/><path class="a" d="M386.8,491.43c24.87-2.56,146.44-4.42,191.07-.46" transform="translate(-329.63 -444.61)"/><path class="a" d="M418.64,526.31c27.2-1.16,140.44-6,150.9-8.56" transform="translate(-329.63 -444.61)"/><ellipse class="a" cx="175.24" cy="39.53" rx="8.76" ry="2.96"/><path class="a" d="M526.87,448.5c-0.52,2.7-4.84,27.72-4.84,27.72l-0.27,1.39s-4.74,9.59-3.87,43.84a60.37,60.37,0,0,0,1.31,9.5" transform="translate(-329.63 -444.61)"/><line class="a" x1="192.65" y1="4.17" x2="185.22" y2="31.86"/><line class="a" x1="201.46" y1="3.87" x2="199.52" y2="31.34"/><path class="a" d="M455.78,470.87c-1.51.73-5.14,3.31-5.14,5.46s0.84,5.06,6.25,5.17,9.7-.12,10-3,0.29-6-1-7.32a7.78,7.78,0,0,0-5.29-1.77A14,14,0,0,0,455.78,470.87Z" transform="translate(-329.63 -444.61)"/><path class="a" d="M496.37,483.44c2.16-.28,14.09-0.9,16.64-0.38" transform="translate(-329.63 -444.61)"/><path class="a" d="M496.56,485c2.16-.28,14.34-0.81,16.89-0.29" transform="translate(-329.63 -444.61)"/><ellipse class="a" cx="249.15" cy="39.53" rx="8.76" ry="2.96"/><path class="a" d="M570.28,483.44c2.16-.28,14.1-0.9,16.65-0.38" transform="translate(-329.63 -444.61)"/><path class="a" d="M570.47,485c2.16-.28,14.34-0.81,16.89-0.29" transform="translate(-329.63 -444.61)"/><circle class="a" cx="53.69" cy="84.04" r="26.27"/><circle class="a" cx="53.69" cy="84.04" r="19.39"/><circle class="a" cx="269.51" cy="84.13" r="26.27"/><circle class="a" cx="269.51" cy="84.13" r="19.39"/><path class="b" d="M434.26,475.17c0.94,0.69,3.57,1.68,5.43.73" transform="translate(-329.63 -444.61)"/><line class="a" x1="53.69" y1="77.04" x2="53.69" y2="91.03"/><line class="a" x1="60.68" y1="84.04" x2="46.7" y2="84.04"/><line class="a" x1="269.51" y1="77.14" x2="269.51" y2="91.12"/><line class="a" x1="276.5" y1="84.13" x2="262.52" y2="84.13"/></svg>