<svg xmlns="http://www.w3.org/2000/svg" viewBox="0 0 340.75 113.73"><defs><style>.a{fill:none;stroke:#000;stroke-miterlimit:10;stroke-width:0.75px;}</style></defs><title>standard</title><path class="a" d="M331.93,512.15c0.08-.53,3.95-2.84,4.86-3.44,0.41-1.52.61-7.7,2.94-10.53s7.39-5.47,10.33-6.58a183.67,183.67,0,0,1,32.61-9.32,336.6,336.6,0,0,1,36.15-4.66c2.94-1.82,34.23-20.36,46.89-25.62s39.5-7.39,50.43-7.7,29.77-.61,43.14.71,37,8.81,68.26,22.38c18.13,2,26.84,3.65,29,3.95s5.47,7.49,6.28,13,0.1,12.56,0,13.77c1.42,1.32,4.46,3.85,5.37,4.86a4.23,4.23,0,0,1,.91,3.24c0,1.22-.2,5.57-0.2,6.38a4.71,4.71,0,0,1,1.11,3,18.16,18.16,0,0,1-.41,4.86,20.33,20.33,0,0,1-6.89,6.08c-3.65,1.92-15.09,5.37-20.76,6.18s-19.24,2.53-21,2.63c0.1-2.73,2.36-16.74-7.36-25.25-15-13.11-33.55-6.62-41.66,2.57-7.49,8.49-7,24-6.79,26-2.94,0-144.82,1.92-146.44,1.92-0.3-2.63.3-16.47-6.08-25-12-16-39.73-15-48,2.06-4.54,9.3-3.31,20.32-3.31,21.74-2.73,0-15.29-1.52-15.29-1.52s-14.48-4.56-15.55-4.81-0.2-2.23,1.67-2.23c0.51-1.87-.49-11.22-0.71-11.8C331.12,518.23,331.85,512.68,331.93,512.15Z" transform="translate(-329.63 -443.66)"/><path class="a" d="M338.06,501.52a5.33,5.33,0,0,1,3.65-3.29,74.67,74.67,0,0,1,16.2-1.11c2.58,0.2,1.57,1.11.91,2.13s-7.29,9.47-7.29,9.47H336.79" transform="translate(-329.63 -443.66)"/><path class="a" d="M351.53,508.71c1.72,0.05,6.38.05,7.65,0.05,2.73,0,9.22,3.44,9.22,3.44" transform="translate(-329.63 -443.66)"/><path class="a" d="M331.42,519c1.57,0.25,6.23,1.06,6.84,1.16a7,7,0,0,1,4.46,2.84c1.67,2.28,5,7.8,5.32,8.41s0.3,1.77-1.62,1.67S332,530.78,332,530.78" transform="translate(-329.63 -443.66)"/><path class="a" d="M347.43,530.38c3,0,6.28,0,7.19.1s2.33,0.2,2.53-1.62,1.42-11.44,6.08-17.22,11.44-10.73,20.05-11.65,16.2,0.3,24.2,5,12.66,14,13.87,20.86c0.61,3.44,1.92,3.65,5.37,3.54s131-4.46,132.56-4.46,2.43-.1,2.73-2.43S564.75,514,568.5,510s7-7.19,14-9.92,15.49-2.23,21.57-.51,15.09,6.58,20.36,18.53c1.81,4.11,3.24,3.44,4.35,3.44s34.23-3.95,36.66-4.35,3.44-1.42,3.44-4.66" transform="translate(-329.63 -443.66)"/><path class="a" d="M433.61,477.21c-0.48.32-.83,0.56-1,0.71-1.72,1.32-3.75,3-6.08,7.6A30.26,30.26,0,0,0,423.68,496c-0.41,2.63-.61,14.08.41,24.2,0.81,8.1,1,9.42,1,9.42l1.92,5.67" transform="translate(-329.63 -443.66)"/><path class="a" d="M418.42,535.44l122.44-3.14c5.37-.2,11,0,15.6-7.19s32.71-48.21,34.84-51.85,1.32-5.67-5.77-9.82-15.09-9.62-28.46-11.95-39.9-1.82-42.33-1.72-26.43,1.42-35.85,4.15-19.75,7.94-24.91,10.78c-2.87,1.58-8.63,5.09-13.47,8.12" transform="translate(-329.63 -443.66)"/><line class="a" x1="97.2" y1="41.05" x2="259.97" y2="32.17"/><line class="a" x1="241.61" y1="11.98" x2="240.39" y2="33.15"/><line class="a" x1="239.33" y1="11.07" x2="237.96" y2="33.4"/><path class="a" d="M434.21,475.29c0.94-1.25,3.19-1.92,6-2.38s2.84-.15,3.14.15a5.56,5.56,0,0,1,1.52,3.85c0.05,2.28-.35,6.48-2.58,6.79s-6.38.71-7.6-1S433,476.91,434.21,475.29Z" transform="translate(-329.63 -443.66)"/><path class="a" d="M331.93,512.15c2.73,0.1,7.95.15,9.27,0.15,2.28,0,7.49-.2,10.33-3.6" transform="translate(-329.63 -443.66)"/><path class="a" d="M656.81,474.27c-1.32,1.11-10.63,5.47-11.75,6.08s-2.23.71-5.47,0.71S516.24,484.6,510,484.91s-78.49,4.25-85.17,4.66-59.34,4.25-65.83,7.7" transform="translate(-329.63 -443.66)"/><path class="a" d="M340.34,498.78c1.52-1.92,6.18-5.06,17-7.7s47.9-8.81,56.71-9.52,15.6-6.08,19-8.41S467.94,454,467.94,454l-2.23-2" transform="translate(-329.63 -443.66)"/><path class="a" d="M418.82,477.62c1.82,0.81,4.76,1.42,7.19.1" transform="translate(-329.63 -443.66)"/><path class="a" d="M414.06,481.57c-1.62,1.42-4.35,5.16-10.53,6.08s-26.43,3.24-32.2,4.25-16.91,3.65-18.33,5.16" transform="translate(-329.63 -443.66)"/><path class="a" d="M515.74,449.77s-4.66,29.17-4.86,30.38a43.54,43.54,0,0,1-.91,4.76c-0.41,1.32-2,12.56-2.13,14.68s-0.61,17.82-.61,19.14,0.3,7.19.2,8a46.41,46.41,0,0,0,1,6.38" transform="translate(-329.63 -443.66)"/><path class="a" d="M660.66,477.92c-2.43.1-12.36,2.43-13.77,2.94s-1.32,1.32-.61,2.53,5,8.1,5,8.1,10.53-.2,11.85-2.13" transform="translate(-329.63 -443.66)"/><path class="a" d="M608.7,506.58c4.05-.61,24.81-3.44,30.28-4.35s9.32-4.35,12.25-10.73" transform="translate(-329.63 -443.66)"/><path class="a" d="M668.86,504.35c-2.73.71-42.84,6-44.15,6.18s-1.82,1.11-1.62,2.84,0.41,2.84.41,2.84" transform="translate(-329.63 -443.66)"/><line class="a" x1="183.58" y1="6.11" x2="176.69" y2="36.69"/><line class="a" x1="188.75" y1="6.01" x2="185.61" y2="36.08"/><path class="a" d="M659.9,478c-1.42-2.18-2.08-3.09-2.58-3.39a3.24,3.24,0,0,0-2-.71c-1.32-.1-23.7-2.23-25.62-2.63a39.51,39.51,0,0,1-9.11-2.94c-5.27-2.23-43-17.11-43-17.11l1.62-1.92" transform="translate(-329.63 -443.66)"/><path class="a" d="M622.48,469.11a3.79,3.79,0,0,0,5.06-1.72" transform="translate(-329.63 -443.66)"/><path class="a" d="M493.52,490.89a2.44,2.44,0,0,1,2.4-2.06h3.51a2.44,2.44,0,0,1,2.41,2.09" transform="translate(-329.63 -443.66)"/><path class="a" d="M501.86,493.14a2.44,2.44,0,0,1-2.43,2.43h-3.51a2.44,2.44,0,0,1-2.43-2.43" transform="translate(-329.63 -443.66)"/><rect class="a" x="161.71" y="47.28" width="14.92" height="2.23" rx="1.08" ry="1.08"/><path class="a" d="M562.85,488.31a2.44,2.44,0,0,1,2.41-2.12h3.51a2.44,2.44,0,0,1,2.41,2.09" transform="translate(-329.63 -443.66)"/><path class="a" d="M571.2,490.51a2.44,2.44,0,0,1-2.43,2.43h-3.51a2.44,2.44,0,0,1-2.43-2.43" transform="translate(-329.63 -443.66)"/><rect class="a" x="231.04" y="44.64" width="14.92" height="2.23" rx="1.08" ry="1.08"/><circle class="a" cx="59.92" cy="88.34" r="25.01"/><circle class="a" cx="59.92" cy="88.34" r="18.03"/><line class="a" x1="59.92" y1="81.25" x2="59.92" y2="95.43"/><line class="a" x1="67" y1="88.34" x2="52.83" y2="88.34"/><circle class="a" cx="263.46" cy="88.34" r="25.01"/><circle class="a" cx="263.46" cy="88.34" r="18.03"/><line class="a" x1="263.46" y1="81.25" x2="263.46" y2="95.43"/><line class="a" x1="270.55" y1="88.34" x2="256.37" y2="88.34"/></svg>