<svg xmlns="http://www.w3.org/2000/svg" viewBox="0 0 40 40"><title>eye</title><path d="M20,12.71c-6,0-10.62,6.44-10.81,6.71a1,1,0,0,0,0,1.16C9.38,20.85,14,27.29,20,27.29s10.62-6.44,10.81-6.71a1,1,0,0,0,0-1.16C30.62,19.15,26,12.71,20,12.71Zm0,12.58c-4,0-7.51-3.81-8.73-5.29C12.48,18.52,16,14.71,20,14.71s7.51,3.81,8.73,5.29C27.52,21.48,24,25.29,20,25.29ZM20,16a4,4,0,1,0,4,4A4,4,0,0,0,20,16Zm0,2.46A1.54,1.54,0,0,0,18.46,20a0.5,0.5,0,0,1-1,0A2.54,2.54,0,0,1,20,17.46,0.5,0.5,0,0,1,20,18.46Zm-7,9.23L3.87,36.83h8.79a0.5,0.5,0,1,1,0,1H2.17V27.33a0.5,0.5,0,0,1,1,0v8.79L12.31,27A0.5,0.5,0,0,1,13,27.69ZM37.83,2.17v10.5a0.5,0.5,0,1,1-1,0V3.87L27.69,13A0.5,0.5,0,0,1,27,12.31l9.15-9.15H27.33a0.5,0.5,0,0,1,0-1h10.5Z"/></svg>