<svg xmlns="http://www.w3.org/2000/svg" viewBox="0 0 211.23 70"><defs><style>.a{fill:#d4aa49;}</style></defs><title>geaner-logo</title><path class="a" d="M191.23,115H-20V45H191.23v70Zm-208.77-2.46H188.77V47.46H-17.54v65.09Z" transform="translate(20 -45)"/><path d="M52.28,73.78c0-7.75,5.72-11,11.34-11A12.52,12.52,0,0,1,69.27,64a2.46,2.46,0,0,1,1.63,2.16c0,1-.69,2.61-2.09,2.61a6.39,6.39,0,0,1-2.16-.72,8.31,8.31,0,0,0-3.17-.65c-3,0-6,1.73-6,6.27s2.78,6.47,6,6.47a6.73,6.73,0,0,0,2.55-.46V77.67a3.24,3.24,0,0,1,.39-2.06,2.53,2.53,0,0,1,2.19-.75,2.53,2.53,0,0,1,2.19.75,3.24,3.24,0,0,1,.39,2.06v3.1c0,1.41-.26,2.16-2.09,2.91a15.36,15.36,0,0,1-5.59,1C57.31,84.7,52.28,81,52.28,73.78ZM89.28,84a2.6,2.6,0,0,0,0-3.73,3.54,3.54,0,0,0-2-.33H81.83V75.45h3.56a3.54,3.54,0,0,0,2-.33,2.6,2.6,0,0,0,0-3.73,3.54,3.54,0,0,0-2-.33H81.83V67.64h4.8a3.54,3.54,0,0,0,2-.33,2.6,2.6,0,0,0,0-3.73,3.55,3.55,0,0,0-2-.33H79.31c-1.77,0-2.42.65-2.42,2.42V82c0,1.73.65,2.42,2.42,2.42h8A3.54,3.54,0,0,0,89.28,84Zm19.16-1.9-1-2.65H100l-1,2.65c-0.62,1.63-1.27,2.39-3.1,2.39-1.63,0-2.26-.59-2.26-1.5a3.4,3.4,0,0,1,.36-1.34l6.8-16.28C101.51,63.88,102.16,63,104,63s2.42,0.88,3,2.42l6.54,16.34a3.37,3.37,0,0,1,.29,1.21c0,1-.78,1.57-2.42,1.57S109.09,83.88,108.44,82.15ZM106,75.45l-2.22-5.92-2.22,5.92H106Zm29,9.18c1.5,0,2.39-.69,2.39-2.06V65.84a3.14,3.14,0,0,0-.39-2,2.48,2.48,0,0,0-2.12-.78,2.45,2.45,0,0,0-2.09.78,3.14,3.14,0,0,0-.39,2V76l-8.43-11A3.8,3.8,0,0,0,120.47,63c-1.83,0-2.71.78-2.71,2v16.7a3.19,3.19,0,0,0,.39,2,2.48,2.48,0,0,0,2.12.78,2.46,2.46,0,0,0,2.09-.78,3.14,3.14,0,0,0,.39-2V71.24l9,11.54A3.68,3.68,0,0,0,135,84.63Zm20.43-4.31a3.54,3.54,0,0,0-2-.33H148V75.45h3.56a3.54,3.54,0,0,0,2-.33,2.6,2.6,0,0,0,0-3.73,3.54,3.54,0,0,0-2-.33H148V67.64h4.8a3.54,3.54,0,0,0,2-.33,2.6,2.6,0,0,0,0-3.73,3.55,3.55,0,0,0-2-.33h-7.32c-1.76,0-2.42.65-2.42,2.42V82c0,1.73.65,2.42,2.42,2.42h8a3.54,3.54,0,0,0,2-.33A2.6,2.6,0,0,0,155.41,80.32Zm19.8,4.05c-1.93,0-2.61-.82-3.53-2.16l-2.61-3.76c-0.56-.82-1.14-1.9-1.14-1.9h-2v5.16a3.41,3.41,0,0,1-.39,2,3.18,3.18,0,0,1-4.18,0,3.43,3.43,0,0,1-.36-2V66.3c0-1.11,0-2.29,1.93-2.88a14.82,14.82,0,0,1,4.12-.46,13,13,0,0,1,5.49,1,5.83,5.83,0,0,1,3.4,5.59,6.31,6.31,0,0,1-3.5,5.88l4.84,6.34C178.21,83,177.69,84.37,175.21,84.37Zm-4.44-14.54c0-2-1.47-2.55-3.37-2.55a10.81,10.81,0,0,0-1.44.1v5.16s0.42,0,.92,0C169.49,72.58,170.76,71.66,170.76,69.83ZM-6.49,54.93H42.25v2.95H41.16a1.76,1.76,0,0,0-1.76,1.76V99a1.76,1.76,0,0,0,1.76,1.76h1.09v2.95H-6.49v-2.95H-5.4A1.76,1.76,0,0,0-3.63,99V59.64A1.76,1.76,0,0,0-5.4,57.88H-6.49V54.93ZM26,79.3c0,12.69.45,17.82,0.45,17.82a1.47,1.47,0,0,0,1.69,1.68H29a1.47,1.47,0,0,0,1.69-1.68S31.1,92,31.1,79.3s-0.45-17.82-.45-17.82A1.47,1.47,0,0,0,29,59.81H28.12a1.47,1.47,0,0,0-1.69,1.68S26,66.62,26,79.3Zm-10.66,0c0,12.69.45,17.82,0.45,17.82a1.47,1.47,0,0,0,1.69,1.68H18.3A1.47,1.47,0,0,0,20,97.12s0.45-5.13.45-17.82S20,61.49,20,61.49a1.47,1.47,0,0,0-1.69-1.68H17.46a1.47,1.47,0,0,0-1.69,1.68S15.32,66.62,15.32,79.3Zm-10.66,0c0,12.69.45,17.82,0.45,17.82A1.47,1.47,0,0,0,6.8,98.8H7.64a1.47,1.47,0,0,0,1.69-1.68S9.78,92,9.78,79.3,9.33,61.49,9.33,61.49a1.47,1.47,0,0,0-1.69-1.68H6.8a1.47,1.47,0,0,0-1.69,1.68S4.66,66.62,4.66,79.3ZM57.93,93.93a2.53,2.53,0,0,1-2.64,2.73,4.35,4.35,0,0,1-.83-0.08V98.9h-0.8V91.68h0.8v0.67A1.77,1.77,0,0,1,56,91.58C57.27,91.58,57.93,92.57,57.93,93.93Zm-0.85.15c0-1-.46-1.79-1.25-1.79a1.48,1.48,0,0,0-1.37,1.64v1.86a2.45,2.45,0,0,0,1,.16A1.67,1.67,0,0,0,57.08,94.08Zm3.32-1.69V91.68H59.6v4.88h0.8V94.2c0-1,.36-1.82,1.24-1.82a1.63,1.63,0,0,1,.61.11l0.13-.82a1.58,1.58,0,0,0-.6-0.09A1.48,1.48,0,0,0,60.4,92.39Zm7.05,1.16a3,3,0,0,1-.08.71H64.16A1.51,1.51,0,0,0,65.69,96,2.56,2.56,0,0,0,67,95.59l0.23,0.6a3.36,3.36,0,0,1-1.7.48c-1.4,0-2.27-.85-2.27-2.5a2.33,2.33,0,0,1,2.31-2.58A1.79,1.79,0,0,1,67.45,93.55Zm-0.83.07a1.15,1.15,0,0,0-1.11-1.37,1.36,1.36,0,0,0-1.3,1.37h2.41Zm7.8-2a1.82,1.82,0,0,0-1.64.86,1.25,1.25,0,0,0-1.39-.86,1.76,1.76,0,0,0-1.45.77V91.68H69.13v4.88h0.8V93.83a1.44,1.44,0,0,1,1.3-1.54c0.71,0,.94.57,0.94,1.32v2.95H73V93.84a1.34,1.34,0,0,1,1.31-1.55c0.79,0,.93.6,0.93,1.43v2.84H76v-3C76,92.7,75.84,91.58,74.42,91.58Zm3.46,5h0.8V91.68h-0.8v4.88Zm0.4-6.91a0.51,0.51,0,0,0-.54.54A0.54,0.54,0,1,0,78.28,89.65Zm5.46,4.25c0,1.18-.57,2.06-1.46,2.06-0.68,0-.95-0.41-0.95-1.37V91.68H80.54v3.09c0,1.35.53,1.89,1.58,1.89a1.8,1.8,0,0,0,1.63-.94v0.83h0.8V91.68h-0.8V93.9Zm8-2.32a1.82,1.82,0,0,0-1.64.86,1.25,1.25,0,0,0-1.39-.86,1.76,1.76,0,0,0-1.45.77V91.68H86.45v4.88h0.8V93.83a1.44,1.44,0,0,1,1.3-1.54c0.71,0,.94.57,0.94,1.32v2.95h0.79V93.84a1.34,1.34,0,0,1,1.31-1.55c0.79,0,.93.6,0.93,1.43v2.84h0.8v-3C93.32,92.7,93.16,91.58,91.75,91.58ZM101,96a1.85,1.85,0,0,1-.08-3.66,2.78,2.78,0,0,1,1,.17l0.14-.72a3.44,3.44,0,0,0-1.06-.16,2.46,2.46,0,0,0-2.49,2.58,2.2,2.2,0,0,0,2.29,2.5,3.1,3.1,0,0,0,1.51-.4l-0.22-.64A2.35,2.35,0,0,1,101,96Zm6.48-2.9v3.51h-0.77V96.23a3,3,0,0,1,.06-0.55h0a1.22,1.22,0,0,1-.29.41,2.09,2.09,0,0,1-1.49.59,1.27,1.27,0,0,1-1.4-1.24c0-1.4,1.59-1.82,3.13-1.9v-0.3a0.84,0.84,0,0,0-1-1,3.53,3.53,0,0,0-1.57.39l-0.12-.7a4.37,4.37,0,0,1,1.77-.37C106.89,91.58,107.43,92,107.43,93.05Zm-0.8,1.08c-1.09,0-2.29.33-2.29,1.13a0.71,0.71,0,0,0,.78.73,1.59,1.59,0,0,0,1.5-1.59V94.13Zm3.49-1.74V91.68h-0.8v4.88h0.8V94.2c0-1,.36-1.82,1.24-1.82a1.63,1.63,0,0,1,.61.11l0.13-.82a1.58,1.58,0,0,0-.6-0.09A1.48,1.48,0,0,0,110.12,92.39ZM114,92.82a0.73,0.73,0,0,1,.87-0.56,3.57,3.57,0,0,1,1.23.24l0.14-.69a3.3,3.3,0,0,0-1.27-.23A1.55,1.55,0,0,0,113.22,93c0,1.46,2.53,1.3,2.53,2.32a0.89,0.89,0,0,1-1,.7,3.07,3.07,0,0,1-1.37-.36l-0.16.75a3.59,3.59,0,0,0,1.43.28,1.68,1.68,0,0,0,1.93-1.52C116.58,93.62,114,93.76,114,92.82Zm12.27,2.45-1.25-3.59h-0.47l-1.32,3.59L122,91.68h-0.86l1.8,4.88h0.6l1.22-3.35,1.18,3.35h0.58l1.89-4.88h-0.72Zm3.86-5.62a0.51,0.51,0,0,0-.54.54A0.54,0.54,0,1,0,130.16,89.65Zm-0.4,6.91h0.8V91.68h-0.8v4.88ZM134.3,96c-0.57,0-.68-0.47-0.68-1.14V92.36H135V91.68h-1.39V90.23l-0.79.18v1.27h-0.88v0.68h0.88V95c0,1.08.33,1.7,1.3,1.7a1.92,1.92,0,0,0,1-.27l-0.13-.6A1.72,1.72,0,0,1,134.3,96Zm4.63-4.37a1.87,1.87,0,0,0-1.6.86V89.16h-0.8v7.4h0.8V94.08a1.62,1.62,0,0,1,1.41-1.79c0.77,0,1,.5,1,1.38v2.89h0.8V93.47C140.59,92.18,140,91.58,138.93,91.58Zm10.35-2.44h0.8v7.42h-0.8V95.77a2,2,0,0,1-1.68.89c-1.22,0-1.87-.95-1.87-2.32a2.54,2.54,0,0,1,2.6-2.77,3.55,3.55,0,0,1,.95.12V89.14Zm0,3.4a2.55,2.55,0,0,0-1.09-.24,1.67,1.67,0,0,0-1.61,1.9c0,1,.4,1.76,1.15,1.76a1.67,1.67,0,0,0,1.55-1.63V92.54Zm3.51-.14V91.68H152v4.88h0.8V94.2c0-1,.36-1.82,1.24-1.82a1.63,1.63,0,0,1,.61.11l0.13-.82a1.58,1.58,0,0,0-.6-0.09A1.48,1.48,0,0,0,152.79,92.39Zm3.3,4.17h0.8V91.68h-0.8v4.88Zm0.4-6.91a0.51,0.51,0,0,0-.54.54A0.54,0.54,0,1,0,156.49,89.65Zm4.22,5.89-1.59-3.85h-0.87l2.05,4.88H161l2-4.88h-0.8Zm7.37-2a3,3,0,0,1-.08.71h-3.21A1.51,1.51,0,0,0,166.32,96a2.56,2.56,0,0,0,1.35-.41l0.23,0.6a3.36,3.36,0,0,1-1.7.48c-1.4,0-2.27-.85-2.27-2.5a2.33,2.33,0,0,1,2.31-2.58A1.79,1.79,0,0,1,168.08,93.55Zm-0.83.07a1.15,1.15,0,0,0-1.11-1.37,1.36,1.36,0,0,0-1.3,1.37h2.41Zm3.31-1.23V91.68h-0.8v4.88h0.8V94.2c0-1,.36-1.82,1.24-1.82a1.63,1.63,0,0,1,.61.11l0.13-.82a1.58,1.58,0,0,0-.6-0.09A1.48,1.48,0,0,0,170.56,92.39Zm3.91,0.43a0.73,0.73,0,0,1,.87-0.56,3.57,3.57,0,0,1,1.23.24l0.14-.69a3.3,3.3,0,0,0-1.27-.23A1.55,1.55,0,0,0,173.66,93c0,1.46,2.53,1.3,2.53,2.32a0.9,0.9,0,0,1-1,.7,3.07,3.07,0,0,1-1.37-.36l-0.16.75a3.59,3.59,0,0,0,1.43.28A1.68,1.68,0,0,0,177,95.14C177,93.62,174.47,93.76,174.47,92.82Z" transform="translate(20 -45)"/></svg>