<svg xmlns="http://www.w3.org/2000/svg" viewBox="0 0 160 160"><defs><style>.a{fill:#d4aa49;}</style></defs><title>ico-4</title><path class="a" d="M115.33,48.85V36.79A14.81,14.81,0,0,0,100.54,22H59.46A14.81,14.81,0,0,0,44.67,36.79V48.85a14.7,14.7,0,0,0,5.65,11.63L75.15,80,50.31,99.52a14.7,14.7,0,0,0-5.65,11.63v12.06A14.81,14.81,0,0,0,59.46,138h41.09a14.81,14.81,0,0,0,14.79-14.79V111.15a14.71,14.71,0,0,0-5.65-11.63L84.85,80l24.83-19.52A14.7,14.7,0,0,0,115.33,48.85ZM106,104.24a8.74,8.74,0,0,1,3.36,6.91v12.06a8.8,8.8,0,0,1-8.79,8.79H59.46a8.8,8.8,0,0,1-8.79-8.79V111.15A8.74,8.74,0,0,1,54,104.24L80,83.82Zm3.36-55.39A8.74,8.74,0,0,1,106,55.76L80,76.18,54,55.76a8.74,8.74,0,0,1-3.36-6.91V36.79A8.8,8.8,0,0,1,59.46,28h41.09a8.8,8.8,0,0,1,8.79,8.79V48.85Zm-9.25-5.53V47.5a4.79,4.79,0,0,1-1.83,3.76L80,65.61,61.75,51.26a4.79,4.79,0,0,1-1.83-3.76V43.33a4.79,4.79,0,0,1,4.79-4.79H95.29A4.79,4.79,0,0,1,100.08,43.33Z"/></svg>