<svg xmlns="http://www.w3.org/2000/svg" viewBox="0 0 160 160"><defs><style>.a{fill:#d4aa49;}</style></defs><title>ico-1</title><path class="a" d="M126.25,114.83c-0.08-8.45.08-12.35-1-15.27C124,95.95,117,90,115.77,88.67a37.05,37.05,0,0,0,5.2-.57c1.3-.32,1.38-2.6,1.22-3.57s-2.11-1.87-3.09-2.11-3.57-.73-4.22,0c-0.51.57-2.68,0.49-3.73-1s-3.64-5.12-5.19-6.9a10.71,10.71,0,0,0-6.55-3.36C98.22,71,87.28,70,80.17,70S62.22,71,61,71.18a10.46,10.46,0,0,0-6.45,3.36C53,76.32,50.44,80,49.38,81.44s-3.22,1.55-3.73,1c-0.65-.73-3.25-0.24-4.22,0s-2.92,1.14-3.09,2.11-0.08,3.25,1.22,3.57a37,37,0,0,0,5.2.57c-1.22,1.38-8.2,7.28-9.5,10.89-1.06,2.92-.89,6.83-1,15.27s0.32,13.16.65,14.7,0.73,5.12,3.57,5.36,10.24,0,11.94,0,2.31-3.9,2.31-4.87l27.41,0.08,27.51-.08c0,1,.65,4.87,2.36,4.87s9.12,0.24,12,0,3.26-3.82,3.59-5.36S126.33,123.27,126.25,114.83ZM37.94,106c-1.87-.89-2.14-3.41-1.71-5.85a5.81,5.81,0,0,1,3.18-4.18c1.83-.67,9.41,2.23,10.15,2.88-0.32,1.71,2.44,8,3.09,9C49.23,108.9,39.29,106.62,37.94,106Zm68-3.49a42.7,42.7,0,0,1-2.77,6c-0.65,1.14-1.29,2.44-4.95,3.17-2.85.57-13.7,1.29-18.09,1.58-4.39-.29-15.14-1-18-1.58-3.66-.73-4.2-2-4.85-3.17a42.7,42.7,0,0,1-2.77-6c-0.65-1.95-.09-2.36.88-2.44s18.25-.45,24.73-0.49,24,0.42,24.83.49S106.63,100.53,106,102.48ZM80.17,87.93c-7,0-26.08-.35-28.32-0.46s-2.6-1.67-2-2.92c1.8-3.77,6.6-9.54,7-9.93s9.5-1.94,23.31-2c13.8,0.1,22.88,1.53,23.4,2s5.25,6.16,7.05,9.93c0.6,1.26,0,2.82-2.07,2.92S87.28,87.89,80.17,87.93Zm42.43,18c-1.35.64-11.29,2.92-14.7,1.87,0.65-1,3.41-7.31,3.09-9,0.73-.65,8.31-3.55,10.15-2.88a5.81,5.81,0,0,1,3.18,4.18C124.73,102.57,124.47,105.08,122.6,106Z"/><path class="a" d="M8.9,101.91c2.89,2.07,2.16,5.77,4,8.08s4.83,2.52,8.44,3c-2.93-2.16-4.86-5.41-4.76-6.28,1,0.67,3,3,5.17,3.46a10.83,10.83,0,0,0-4.23-6.83C15.54,102.06,11.6,101.1,8.9,101.91Z"/><path class="a" d="M23.45,97.27c0.77,3.08-1.42,6.46-1.15,8.08a5.58,5.58,0,0,0,2.55,4.35c-0.72-4-.24-5.12.14-6.08a9.78,9.78,0,0,0,1.54,5.19c1.15-1,1.92-3.85,1.35-6.16A8.21,8.21,0,0,0,23.45,97.27Z"/><path class="a" d="M6.76,82.41c2.17,2.81.41,6.15,1.55,8.9s3.9,3.81,7.23,5.26c-2.19-2.92-3.1-6.58-2.76-7.38,0.73,0.92,2,3.71,4,4.8a10.83,10.83,0,0,0-2.09-7.76C13.08,84.46,9.58,82.4,6.76,82.41Z"/><path class="a" d="M22,82.15c-0.15,3.17-3.22,5.78-3.43,7.41a5.58,5.58,0,0,0,1.19,4.9c0.47-4.08,1.24-5,1.89-5.79a9.78,9.78,0,0,0,0,5.42C23,93.5,24.61,91,24.72,88.58A8.21,8.21,0,0,0,22,82.15Z"/><path class="a" d="M11.62,63.21c1.08,3.38-1.7,5.92-1.57,8.9s2.38,4.91,5,7.41C14,76,14.38,72.28,15,71.64c0.37,1.11.6,4.16,2.09,5.86a10.83,10.83,0,0,0,.67-8C16.86,67.29,14.27,64.16,11.62,63.21Z"/><path class="a" d="M26.06,68.16c-1.22,2.93-5,4.34-5.74,5.8a5.58,5.58,0,0,0-.55,5c1.83-3.67,2.86-4.26,3.74-4.8a9.78,9.78,0,0,0-1.86,5.09c1.5-.08,3.84-1.94,4.75-4.14A8.21,8.21,0,0,0,26.06,68.16Z"/><path class="a" d="M22.35,46.84c-0.29,3.54-3.83,4.83-4.85,7.62s0.32,5.44,1.81,8.76c0.34-3.63,2.14-7,2.93-7.31-0.08,1.17-1,4.07-.31,6.22A10.83,10.83,0,0,0,25.62,55C25.65,52.61,24.44,48.73,22.35,46.84Z"/><path class="a" d="M33.82,56.92C31.58,59.17,27.56,59,26.3,60.1a5.58,5.58,0,0,0-2.42,4.43c3.09-2.7,4.27-2.84,5.29-3a9.78,9.78,0,0,0-3.66,4c1.42,0.49,4.29-.33,6-2A8.21,8.21,0,0,0,33.82,56.92Z"/><path class="a" d="M37.64,32.16c-1.42,3.25-5.19,3.32-7.06,5.64s-1.46,5.25-1.13,8.87c1.5-3.32,4.27-5.88,5.14-6-0.46,1.08-2.3,3.52-2.3,5.78a10.83,10.83,0,0,0,5.79-5.57C38.89,38.68,39,34.63,37.64,32.16Z"/><path class="a" d="M45.23,45.42c-2.85,1.4-6.61,0-8.14.56a5.58,5.58,0,0,0-3.72,3.4c3.8-1.55,5-1.31,6-1.13a9.78,9.78,0,0,0-4.76,2.59c1.18,0.93,4.16,1.08,6.3,0A8.21,8.21,0,0,0,45.23,45.42Z"/><path class="a" d="M54.87,25c-2.26,2.74-5.91,1.76-8.34,3.48S43.68,33.13,43,36.69c2.36-2.78,5.73-4.47,6.59-4.32-0.74.91-3.18,2.75-3.81,4.92a10.83,10.83,0,0,0,7.1-3.75C54.27,31.61,55.5,27.74,54.87,25Z"/><path class="a" d="M73.88,28.49c-3.31,1.27-6-1.37-9-1.07s-4.77,2.65-7.11,5.42c3.42-1.26,7.19-1.08,7.86-.52-1.09.43-4.12,0.83-5.74,2.41A10.83,10.83,0,0,0,68,35C70.11,34,73.08,31.19,73.88,28.49Z"/><path class="a" d="M58.5,39.83c-3.12.56-6.35-1.86-8-1.71A5.58,5.58,0,0,0,46,40.37c4.08-.44,5.13.11,6.06,0.56a9.78,9.78,0,0,0-5.29,1.18c0.88,1.22,3.71,2.18,6,1.77A8.21,8.21,0,0,0,58.5,39.83Z"/><path class="a" d="M151.1,101.91c-2.89,2.07-2.16,5.77-4,8.08s-4.83,2.52-8.44,3c2.93-2.16,4.86-5.41,4.76-6.28-1,.67-3,3-5.17,3.46a10.83,10.83,0,0,1,4.23-6.83C144.46,102.06,148.4,101.1,151.1,101.91Z"/><path class="a" d="M136.55,97.27c-0.77,3.08,1.42,6.46,1.15,8.08a5.58,5.58,0,0,1-2.55,4.35c0.72-4,.24-5.12-0.14-6.08a9.78,9.78,0,0,1-1.54,5.19c-1.15-1-1.92-3.85-1.35-6.16A8.21,8.21,0,0,1,136.55,97.27Z"/><path class="a" d="M153.24,82.41c-2.17,2.81-.41,6.15-1.55,8.9s-3.9,3.81-7.23,5.26c2.19-2.92,3.1-6.58,2.76-7.38-0.73.92-2,3.71-4,4.8a10.83,10.83,0,0,1,2.09-7.76C146.92,84.46,150.42,82.4,153.24,82.41Z"/><path class="a" d="M138,82.15c0.15,3.17,3.22,5.78,3.43,7.41a5.58,5.58,0,0,1-1.19,4.9c-0.47-4.08-1.24-5-1.89-5.79a9.78,9.78,0,0,1,0,5.42c-1.38-.59-2.95-3.13-3.06-5.51A8.21,8.21,0,0,1,138,82.15Z"/><path class="a" d="M148.38,63.21c-1.08,3.38,1.7,5.92,1.57,8.9s-2.38,4.91-5,7.41c1.07-3.49.67-7.24,0.08-7.88-0.37,1.11-.6,4.16-2.09,5.86a10.83,10.83,0,0,1-.67-8C143.14,67.29,145.73,64.16,148.38,63.21Z"/><path class="a" d="M133.94,68.16c1.22,2.93,5,4.34,5.74,5.8a5.58,5.58,0,0,1,.55,5c-1.83-3.67-2.86-4.26-3.74-4.8a9.78,9.78,0,0,1,1.86,5.09c-1.5-.08-3.84-1.94-4.75-4.14A8.21,8.21,0,0,1,133.94,68.16Z"/><path class="a" d="M137.65,46.84c0.29,3.54,3.83,4.83,4.85,7.62s-0.32,5.44-1.81,8.76c-0.34-3.63-2.14-7-2.93-7.31,0.08,1.17,1,4.07.31,6.22A10.83,10.83,0,0,1,134.38,55C134.35,52.61,135.56,48.73,137.65,46.84Z"/><path class="a" d="M126.18,56.92c2.24,2.24,6.27,2.11,7.52,3.17a5.58,5.58,0,0,1,2.42,4.43c-3.09-2.7-4.27-2.84-5.29-3a9.78,9.78,0,0,1,3.66,4c-1.42.49-4.29-.33-6-2A8.21,8.21,0,0,1,126.18,56.92Z"/><path class="a" d="M122.36,32.16c1.42,3.25,5.19,3.32,7.06,5.64s1.46,5.25,1.13,8.87c-1.5-3.32-4.27-5.88-5.14-6,0.46,1.08,2.3,3.52,2.3,5.78a10.83,10.83,0,0,1-5.79-5.57C121.11,38.68,121,34.63,122.36,32.16Z"/><path class="a" d="M114.77,45.42c2.85,1.4,6.61,0,8.14.56a5.58,5.58,0,0,1,3.72,3.4c-3.8-1.55-5-1.31-6-1.13a9.78,9.78,0,0,1,4.76,2.59c-1.18.93-4.16,1.08-6.3,0A8.21,8.21,0,0,1,114.77,45.42Z"/><path class="a" d="M105.13,25c2.26,2.74,5.91,1.76,8.34,3.48s2.85,4.65,3.53,8.22c-2.36-2.78-5.73-4.47-6.59-4.32,0.74,0.91,3.18,2.75,3.81,4.92a10.83,10.83,0,0,1-7.1-3.75C105.73,31.61,104.5,27.74,105.13,25Z"/><path class="a" d="M86.12,28.49c3.31,1.27,6-1.37,9-1.07s4.77,2.65,7.11,5.42c-3.42-1.26-7.19-1.08-7.86-.52,1.09,0.43,4.12.83,5.74,2.41A10.83,10.83,0,0,1,92,35C89.89,34,86.92,31.19,86.12,28.49Z"/><path class="a" d="M101.5,39.83c3.12,0.56,6.35-1.86,8-1.71A5.58,5.58,0,0,1,114,40.37c-4.08-.44-5.13.11-6.06,0.56a9.78,9.78,0,0,1,5.29,1.18c-0.88,1.22-3.71,2.18-6,1.77A8.21,8.21,0,0,1,101.5,39.83Z"/></svg>