<svg xmlns="http://www.w3.org/2000/svg" viewBox="0 0 40.05 32"><title>ico-people</title><path d="M60,64V96H100V64H60Zm16.49,4A2.55,2.55,0,1,1,74,70.55,2.52,2.52,0,0,1,76.47,68Zm6.72,24H73.88a2.28,2.28,0,0,1-2.25-1.71l-3.36-14a2,2,0,0,1,0-.28c-0.45-2.15-.3-7.56,1-7.81,2.25-.43,2.92,1.3,2.77,2a25.47,25.47,0,0,1-1.29,3.49,2.26,2.26,0,0,1,2,1.69l3,12.26h7.45A2.17,2.17,0,1,1,83.19,92Zm8.61,0H88a0.78,0.78,0,0,1-.73-0.48L85.05,86H78.51a1.78,1.78,0,0,1-1.78-1.39l-2-8c-0.18-.92.54-2,2.24-2a2.16,2.16,0,0,1,2.44,1.79l1.13,6.23h5.74A1.81,1.81,0,0,1,88,83.68l2.66,6.75C90.83,90.85,92.58,92,91.8,92Z" transform="translate(-59.97 -64)"/></svg>