<svg xmlns="http://www.w3.org/2000/svg" viewBox="0 0 160 160"><defs><style>.a{fill:#d4aa49;}</style></defs><title>ico-8</title><path class="a" d="M125,99.55c-1.3-3.61-8.28-9.51-9.5-10.89a37.05,37.05,0,0,0,5.2-.57c1.3-.32,1.38-2.6,1.22-3.57s-2.11-1.87-3.09-2.11-3.57-.73-4.22,0c-0.51.57-2.68,0.49-3.73-1s-3.64-5.12-5.19-6.9a10.71,10.71,0,0,0-6.55-3.36C98,71,87,70,79.91,70S62,71,60.75,71.18a10.46,10.46,0,0,0-6.45,3.36c-1.54,1.79-4.13,5.44-5.19,6.9s-3.22,1.55-3.73,1c-0.65-.73-3.25-0.24-4.22,0s-2.92,1.14-3.09,2.11S38,87.78,39.3,88.1a37,37,0,0,0,5.2.57C43.28,90,36.3,95.95,35,99.55c-1.06,2.92-.89,6.83-1,15.27s0.33,13.16.65,14.7,0.73,5.12,3.57,5.36,10.24,0,11.94,0,2.31-3.9,2.31-4.87l27.41,0.08,27.51-.08c0,1,.65,4.87,2.36,4.87s9.12,0.24,12,0,3.26-3.82,3.59-5.36,0.74-6.26.66-14.7S126.07,102.48,125,99.55ZM37.67,106c-1.87-.89-2.14-3.4-1.71-5.85a5.81,5.81,0,0,1,3.18-4.18c1.83-.67,9.41,2.23,10.15,2.88-0.32,1.71,2.44,8,3.09,9C49,108.9,39,106.62,37.67,106Zm68-3.49a42.7,42.7,0,0,1-2.77,6c-0.65,1.14-1.29,2.44-4.95,3.17-2.85.57-13.7,1.29-18.09,1.58-4.39-.29-15.14-1-18-1.58-3.66-.73-4.2-2-4.85-3.17a42.71,42.71,0,0,1-2.77-6c-0.65-1.95-.09-2.36.88-2.44s18.25-.45,24.73-0.49,24,0.42,24.83.49S106.36,100.53,105.71,102.48ZM79.91,87.93c-7,0-26.08-.35-28.32-0.46s-2.6-1.67-2-2.92c1.8-3.77,6.6-9.54,7-9.93s9.5-1.94,23.31-2c13.8,0.1,22.88,1.53,23.4,2s5.25,6.16,7.05,9.93c0.6,1.26,0,2.82-2.07,2.92S87,87.89,79.91,87.93Zm42.43,18c-1.35.64-11.29,2.92-14.7,1.87,0.65-1,3.41-7.31,3.09-9,0.73-.65,8.31-3.55,10.14-2.88a5.81,5.81,0,0,1,3.18,4.18C124.47,102.57,124.2,105.08,122.33,106ZM45,39.88V39.45c9.63-.91,13.54-4.82,14.45-14.45h0.43c0.91,9.63,4.82,13.54,14.45,14.45v0.43c-9.63.91-13.54,4.82-14.45,14.45H59.45C58.54,44.7,54.63,40.79,45,39.88Zm90,27.23v0.3c-6.61.62-9.3,3.31-9.92,9.92h-0.3c-0.62-6.61-3.31-9.3-9.92-9.92v-0.3c6.61-.62,9.3-3.31,9.92-9.92h0.3C125.7,63.8,128.39,66.49,135,67.11ZM72,55.71c6.61-.62,9.3-3.31,9.92-9.92h0.3c0.62,6.61,3.31,9.3,9.92,9.92V56c-6.61.62-9.3,3.31-9.92,9.92H82C81.33,59.31,78.65,56.63,72,56v-0.3Zm32.56-5V50.49c4.34-.41,6.1-2.17,6.5-6.5h0.19c0.41,4.34,2.17,6.1,6.5,6.5v0.19c-4.34.41-6.1,2.17-6.5,6.5h-0.19C110.69,52.85,108.92,51.09,104.59,50.68ZM90.39,39.76V39.57c4.34-.41,6.1-2.17,6.5-6.5h0.19c0.41,4.34,2.17,6.1,6.5,6.5v0.19c-4.34.41-6.1,2.17-6.5,6.5H96.9C96.49,41.93,94.73,40.17,90.39,39.76ZM34.26,72.92c-0.58-6.17-3.09-8.68-9.26-9.26V63.38c6.17-.58,8.68-3.09,9.26-9.26h0.28c0.58,6.17,3.09,8.68,9.26,9.26v0.28c-6.17.58-8.68,3.09-9.26,9.26H34.26Z"/></svg>