<svg xmlns="http://www.w3.org/2000/svg" viewBox="0 0 160 160"><defs><style>.a{fill:#d4aa49;}</style></defs><title>ico-7</title><path class="a" d="M130,87.84l-7.94-2.58a41.31,41.31,0,0,0,0-10.53L130,72.16a5,5,0,0,0,3.21-6.3l-1.85-5.71a5,5,0,0,0-6.3-3.21l-7.93,2.58A42.54,42.54,0,0,0,111,51l4.91-6.75a5,5,0,0,0-1.11-7l-4.85-3.53a5,5,0,0,0-7,1.11L98,41.59a42.11,42.11,0,0,0-10-3.25V30a5,5,0,0,0-5-5H77a5,5,0,0,0-5,5v8.34a42.11,42.11,0,0,0-10,3.25l-4.9-6.74a5,5,0,0,0-7-1.11l-4.85,3.53a5,5,0,0,0-1.11,7L49,51a42.54,42.54,0,0,0-6.2,8.51l-7.93-2.58a5,5,0,0,0-6.3,3.21l-1.85,5.71A5,5,0,0,0,30,72.16l7.94,2.58a41.31,41.31,0,0,0,0,10.53L30,87.84a5,5,0,0,0-3.21,6.3l1.85,5.71a5,5,0,0,0,6.3,3.21l7.93-2.58A42.55,42.55,0,0,0,49,109l-4.91,6.75a5,5,0,0,0,1.11,7l4.85,3.53a5,5,0,0,0,7-1.11l4.9-6.74a42.11,42.11,0,0,0,10,3.25V130a5,5,0,0,0,5,5h6a5,5,0,0,0,5-5v-8.34a42.11,42.11,0,0,0,10-3.25l4.9,6.74a5,5,0,0,0,7,1.11l4.85-3.53a5,5,0,0,0,1.11-7L111,109a42.55,42.55,0,0,0,6.2-8.51l7.93,2.58a5,5,0,0,0,6.3-3.21l1.85-5.71A5,5,0,0,0,130,87.84ZM80,110a30,30,0,1,1,30-30A30,30,0,0,1,80,110ZM95.54,64.46L74.31,58.77,58.77,74.31l5.69,21.23,21.23,5.69,15.54-15.54ZM80,91.12A11.12,11.12,0,1,1,91.12,80,11.12,11.12,0,0,1,80,91.12Z"/></svg>