<svg xmlns="http://www.w3.org/2000/svg" viewBox="0 0 160 160"><defs><style>.a{fill:#d4aa49;}.b{fill:none;stroke:#d4aa49;stroke-miterlimit:10;stroke-width:4px;}</style></defs><title>ico-2</title><rect class="a" x="36.39" y="28.57" width="17.21" height="6.78" rx="2" ry="2" transform="translate(-10.19 31.16) rotate(-34.56)"/><path class="a" d="M124.45,53.15L120.76,45l1.15-1.89L102,29.34l-1.18,1.53L94.74,29.4c-2-.66-4.15,2.6-5.14,2.6H71c-1,0-3.17-3.26-5.16-2.6L59.8,31.13l-1.23-1.66-20,13.73,1,1.86-4.61,8.1C31.1,54.33,28,57.8,28,61.74V106.1C28,121.63,41.63,136,57.15,136h46.33C119,136,130,121.63,130,106.1V61.74C130,57.8,128.22,54.31,124.45,53.15ZM119,106.48A18.52,18.52,0,0,1,100.48,125h-45A18.52,18.52,0,0,1,37,106.48v-36A18.52,18.52,0,0,1,55.52,52h45A18.52,18.52,0,0,1,119,70.52v36Z"/><rect class="a" x="107.13" y="28.57" width="17.21" height="6.78" rx="2" ry="2" transform="matrix(-0.82, -0.57, 0.57, -0.82, 192.92, 123.93)"/><rect class="a" x="74.14" y="24.77" width="12.45" height="4.76" rx="2" ry="2"/><rect class="b" x="45.19" y="66.53" width="69.81" height="34.8" rx="7.63" ry="7.63"/><path class="a" d="M52.62,76.83a20.44,20.44,0,0,1,1.57,1.57v5.34a20.56,20.56,0,0,1-1.57,1.57,2.42,2.42,0,0,1-.52-0.52V77.36A2.43,2.43,0,0,1,52.62,76.83Z"/><path class="a" d="M52.62,85.84a20.44,20.44,0,0,1,1.57,1.57v5.34a20.67,20.67,0,0,1-1.57,1.57,2.43,2.43,0,0,1-.52-0.52V86.37A2.43,2.43,0,0,1,52.62,85.84Z"/><path class="a" d="M54.66,92.86H60a20.67,20.67,0,0,1,1.57,1.57,2.43,2.43,0,0,1-.52.52H53.62a2.43,2.43,0,0,1-.52-0.52A20.44,20.44,0,0,1,54.66,92.86Z"/><path class="a" d="M53.67,76.26h7.44a2.4,2.4,0,0,1,.52.52,20.73,20.73,0,0,1-1.57,1.57H54.72a20.36,20.36,0,0,1-1.57-1.57A2.42,2.42,0,0,1,53.67,76.26Z"/><path class="a" d="M62.1,76.78a2.43,2.43,0,0,1,.52.52v7.44a2.4,2.4,0,0,1-.52.52,20.62,20.62,0,0,1-1.57-1.57V78.35A20.67,20.67,0,0,1,62.1,76.78Z"/><path class="a" d="M62.1,85.9a2.43,2.43,0,0,1,.52.52v7.44a2.4,2.4,0,0,1-.52.52,20.62,20.62,0,0,1-1.57-1.57V87.47A20.67,20.67,0,0,1,62.1,85.9Z"/><path class="a" d="M65.37,93.75V93.65a11.23,11.23,0,0,1,1.26-1.26h0.11A11.11,11.11,0,0,1,68,93.65v0.11A11.08,11.08,0,0,1,66.73,95H66.62A11.2,11.2,0,0,1,65.37,93.75Z"/><path class="a" d="M65.42,80.66V80.55a11.08,11.08,0,0,1,1.26-1.26h0.11A11.2,11.2,0,0,1,68,80.55v0.11a11.23,11.23,0,0,1-1.26,1.26H66.68A11.11,11.11,0,0,1,65.42,80.66Z"/><path class="a" d="M71,76.83a20.44,20.44,0,0,1,1.57,1.57v5.34A20.56,20.56,0,0,1,71,85.32a2.42,2.42,0,0,1-.52-0.52V77.36A2.43,2.43,0,0,1,71,76.83Z"/><path class="a" d="M71,85.84a20.44,20.44,0,0,1,1.57,1.57v5.34A20.67,20.67,0,0,1,71,94.33a2.43,2.43,0,0,1-.52-0.52V86.37A2.43,2.43,0,0,1,71,85.84Z"/><path class="a" d="M73.06,92.86H78.4A20.67,20.67,0,0,1,80,94.43a2.43,2.43,0,0,1-.52.52H72a2.43,2.43,0,0,1-.52-0.52A20.44,20.44,0,0,1,73.06,92.86Z"/><path class="a" d="M72.06,76.26H79.5a2.4,2.4,0,0,1,.52.52,20.73,20.73,0,0,1-1.57,1.57H73.11a20.36,20.36,0,0,1-1.57-1.57A2.42,2.42,0,0,1,72.06,76.26Z"/><path class="a" d="M80.5,76.78a2.43,2.43,0,0,1,.52.52v7.44a2.4,2.4,0,0,1-.52.52,20.62,20.62,0,0,1-1.57-1.57V78.35A20.67,20.67,0,0,1,80.5,76.78Z"/><path class="a" d="M80.5,85.9a2.43,2.43,0,0,1,.52.52v7.44a2.4,2.4,0,0,1-.52.52,20.62,20.62,0,0,1-1.57-1.57V87.47A20.67,20.67,0,0,1,80.5,85.9Z"/><path class="a" d="M84.21,76.83a20.44,20.44,0,0,1,1.57,1.57v5.34a20.56,20.56,0,0,1-1.57,1.57,2.42,2.42,0,0,1-.52-0.52V77.36A2.43,2.43,0,0,1,84.21,76.83Z"/><path class="a" d="M84.21,85.84a20.44,20.44,0,0,1,1.57,1.57v5.34a20.67,20.67,0,0,1-1.57,1.57,2.43,2.43,0,0,1-.52-0.52V86.37A2.43,2.43,0,0,1,84.21,85.84Z"/><path class="a" d="M86.25,92.86h5.34a20.67,20.67,0,0,1,1.57,1.57,2.43,2.43,0,0,1-.52.52H85.2a2.43,2.43,0,0,1-.52-0.52A20.44,20.44,0,0,1,86.25,92.86Z"/><path class="a" d="M85.26,76.26h7.44a2.4,2.4,0,0,1,.52.52,20.73,20.73,0,0,1-1.57,1.57H86.3a20.36,20.36,0,0,1-1.57-1.57A2.42,2.42,0,0,1,85.26,76.26Z"/><path class="a" d="M93.69,76.78a2.43,2.43,0,0,1,.52.52v7.44a2.4,2.4,0,0,1-.52.52,20.62,20.62,0,0,1-1.57-1.57V78.35A20.67,20.67,0,0,1,93.69,76.78Z"/><path class="a" d="M93.69,85.9a2.43,2.43,0,0,1,.52.52v7.44a2.4,2.4,0,0,1-.52.52,20.62,20.62,0,0,1-1.57-1.57V87.47A20.67,20.67,0,0,1,93.69,85.9Z"/><path class="a" d="M97.18,84.3a11.88,11.88,0,0,1,.92.92v3.14a12.29,12.29,0,0,1-.92.92A1.43,1.43,0,0,1,96.88,89V84.6A1.43,1.43,0,0,1,97.18,84.3Z"/><path class="a" d="M97.18,89.59a12,12,0,0,1,.92.92v3.14a12,12,0,0,1-.92.92,1.42,1.42,0,0,1-.31-0.31V89.9A1.44,1.44,0,0,1,97.18,89.59Z"/><path class="a" d="M98.39,93.72h3.14a12.11,12.11,0,0,1,.92.92,1.4,1.4,0,0,1-.31.31H97.77a1.42,1.42,0,0,1-.31-0.31A12,12,0,0,1,98.39,93.72Z"/><path class="a" d="M97.8,84h4.38a1.42,1.42,0,0,1,.31.31,12,12,0,0,1-.92.92H98.42a12.16,12.16,0,0,1-.92-0.92A1.44,1.44,0,0,1,97.8,84Z"/><path class="a" d="M102.76,84.27a1.43,1.43,0,0,1,.31.31v4.38a1.43,1.43,0,0,1-.31.31,12.05,12.05,0,0,1-.92-0.92V85.19A12.29,12.29,0,0,1,102.76,84.27Z"/><path class="a" d="M102.76,89.63a1.42,1.42,0,0,1,.31.31v4.37a1.42,1.42,0,0,1-.31.31,12.18,12.18,0,0,1-.92-0.92V90.55A12.18,12.18,0,0,1,102.76,89.63Z"/><path class="a" d="M104.94,84.3a11.88,11.88,0,0,1,.92.92v3.14a12.29,12.29,0,0,1-.92.92,1.43,1.43,0,0,1-.31-0.31V84.6A1.43,1.43,0,0,1,104.94,84.3Z"/><path class="a" d="M104.94,89.59a12,12,0,0,1,.92.92v3.14a12,12,0,0,1-.92.92,1.42,1.42,0,0,1-.31-0.31V89.9A1.44,1.44,0,0,1,104.94,89.59Z"/><path class="a" d="M106.15,93.72h3.14a12.11,12.11,0,0,1,.92.92,1.4,1.4,0,0,1-.31.31h-4.37a1.42,1.42,0,0,1-.31-0.31A12,12,0,0,1,106.15,93.72Z"/><path class="a" d="M105.56,84h4.38a1.42,1.42,0,0,1,.31.31,12,12,0,0,1-.92.92h-3.14a12.16,12.16,0,0,1-.92-0.92A1.44,1.44,0,0,1,105.56,84Z"/><path class="a" d="M110.52,84.27a1.43,1.43,0,0,1,.31.31v4.38a1.43,1.43,0,0,1-.31.31,12.05,12.05,0,0,1-.92-0.92V85.19A12.29,12.29,0,0,1,110.52,84.27Z"/><path class="a" d="M110.52,89.63a1.42,1.42,0,0,1,.31.31v4.37a1.42,1.42,0,0,1-.31.31,12.18,12.18,0,0,1-.92-0.92V90.55A12.18,12.18,0,0,1,110.52,89.63Z"/></svg>