<svg xmlns="http://www.w3.org/2000/svg" viewBox="0 0 160 160"><defs><style>.a{fill:#d4aa49;}</style></defs><title>ico-5</title><path class="a" d="M92.59,87.37a5,5,0,0,1,0,5.24,2.71,2.71,0,0,1-4.14,0,5,5,0,0,1,0-5.24A2.71,2.71,0,0,1,92.59,87.37Zm41.64-4.28L129.08,92a5.83,5.83,0,0,0-.57,2.14v10.29a6.56,6.56,0,0,1-3.1,5.36l-8.91,5.14a5.86,5.86,0,0,0-1.57,1.57l-5.14,8.91a6.56,6.56,0,0,1-5.36,3.1H94.14a5.82,5.82,0,0,0-2.14.57l-8.91,5.14a6.56,6.56,0,0,1-6.19,0L68,129.08a5.83,5.83,0,0,0-2.14-.57H55.57a6.56,6.56,0,0,1-5.36-3.1l-5.14-8.91a5.86,5.86,0,0,0-1.57-1.57l-8.91-5.14a6.56,6.56,0,0,1-3.1-5.36V94.14A5.82,5.82,0,0,0,30.92,92L25.78,83.1a6.56,6.56,0,0,1,0-6.19L30.92,68a5.83,5.83,0,0,0,.57-2.14V55.57a6.56,6.56,0,0,1,3.1-5.36l8.91-5.14a5.86,5.86,0,0,0,1.57-1.57l5.14-8.91a6.56,6.56,0,0,1,5.36-3.1H65.86A5.82,5.82,0,0,0,68,30.92l8.91-5.14a6.56,6.56,0,0,1,6.19,0L92,30.92a5.83,5.83,0,0,0,2.14.57h10.29a6.56,6.56,0,0,1,5.36,3.1l5.14,8.91a5.85,5.85,0,0,0,1.57,1.57l8.91,5.14a6.56,6.56,0,0,1,3.1,5.36V65.86a5.82,5.82,0,0,0,.57,2.14l5.14,8.91A6.56,6.56,0,0,1,134.22,83.1Zm-73.32-13a7.61,7.61,0,0,0,2.45,6,9.67,9.67,0,0,0,12.26,0,7.61,7.61,0,0,0,2.45-6,7.61,7.61,0,0,0-2.45-6,9.67,9.67,0,0,0-12.26,0A7.6,7.6,0,0,0,60.9,70.07Zm35.93-5.33a1.69,1.69,0,0,0,.44-1,2,2,0,0,0-.07-0.62A1.16,1.16,0,0,0,96,62.4H92a5.42,5.42,0,0,0-4.29,2.34L63.19,95.4a1.63,1.63,0,0,0-.47.94A1.19,1.19,0,0,0,64,97.72H68a5.35,5.35,0,0,0,4.28-2.31ZM99.1,90a7.61,7.61,0,0,0-2.45-6,9.67,9.67,0,0,0-12.26,0,8.5,8.5,0,0,0,0,11.94,9.67,9.67,0,0,0,12.26,0A7.61,7.61,0,0,0,99.1,90ZM69.48,73.65a2.48,2.48,0,0,0,2.07-1,5,5,0,0,0,0-5.24,2.71,2.71,0,0,0-4.14,0,5,5,0,0,0,0,5.24A2.48,2.48,0,0,0,69.48,73.65Z"/></svg>