<svg xmlns="http://www.w3.org/2000/svg" viewBox="0 0 160 160"><defs><style>.a{fill:#d4aa49;}</style></defs><title>ico-9</title><path class="a" d="M115,91.71v14.87a2,2,0,0,1-2,2H102.74a32.46,32.46,0,0,0,0-18.87H113A2,2,0,0,1,115,91.71ZM39.42,99.15a32.35,32.35,0,0,1,1.4-9.44H27a2,2,0,0,0-2,2v14.87a2,2,0,0,0,2,2H40.82A32.35,32.35,0,0,1,39.42,99.15ZM133,89.71H122a2,2,0,0,0-2,2v14.87a2,2,0,0,0,2,2h11a2,2,0,0,0,2-2V91.71A2,2,0,0,0,133,89.71Zm0.22-44.2c-2.22-5.57-8.55-10.24-17.64-8.12a2,2,0,0,0,.91,3.9c6.79-1.59,11.43,1.72,13,5.7,1.39,3.49.87,8.82-5.19,12.37l-2.13,1.25,1.66,1.82c3.78,4.14,4.58,8.68,2.44,13.53-1.31-3-4-5.66-6.43-8.17-5.79-5.88-9-9.84-5.59-15.25L116,49.92l-3.11-.41c-7.33-1-9.69-5.07-9.48-8.28s2.91-6.37,7.67-6.37a2,2,0,0,0,0-4c-7.21,0-11.33,5.08-11.66,10.1-0.32,4.78,2.76,10,10.22,12-2.83,7.27,2.8,13,7.42,17.67s7.42,7.81,5.44,11.24h0a2,2,0,0,0-.1.23s0,0.09-.06.13a2,2,0,0,0,0,.21c0,0.06,0,.12,0,0.17s0,0.11,0,.16a2,2,0,0,0,0,.22c0,0.06,0,.11,0,0.17a2,2,0,0,0,0,.2c0,0.06,0,.12.07,0.19s0,0.12.07,0.17l0.09,0.14a2,2,0,0,0,.12.19l0.09,0.09a2,2,0,0,0,.19.2h0a2,2,0,0,0,.3.21h0a2,2,0,0,0,.42.17l0.11,0a2,2,0,0,0,.43.06h0a2,2,0,0,0,.45-0.06l0.14,0a2,2,0,0,0,.31-0.12l0.15-.09a2,2,0,0,0,.25-0.19l0.14-.13,0.07-.07c6.7-7.83,7.58-15.78,2.57-22.62C134.26,57,135.16,50.39,133.22,45.52ZM99.78,99.15a28,28,0,1,1-28-28A28,28,0,0,1,99.78,99.15Zm-23.15,0,8.89-8.89a3.43,3.43,0,1,0-4.85-4.85L71.78,94.3l-8.89-8.89A3.43,3.43,0,1,0,58,90.26l8.89,8.89L58,108a3.43,3.43,0,1,0,4.85,4.85L71.78,104l8.89,8.89A3.43,3.43,0,0,0,85.52,108Z"/></svg>