<svg xmlns="http://www.w3.org/2000/svg" viewBox="0 0 160 160"><defs><style>.a{fill:#d4aa49;}</style></defs><title>ico-3</title><path class="a" d="M107,105.4l11.92,20.42a1.15,1.15,0,0,1-1.48,1.62L89.24,114.32a3.49,3.49,0,0,0-3.22.14l-8,4.62L41.25,97.86V55.41L78,34.19l36.76,21.22V97.86l-6.81,4A2.61,2.61,0,0,0,107,105.4Zm17.59,29.43a1.89,1.89,0,0,0,2.41-2.69l-13.76-23.57h0l7.9-4.56a4.26,4.26,0,0,0,2.13-3.69V52.95a4.26,4.26,0,0,0-2.13-3.69l-41-23.69a4.27,4.27,0,0,0-4.26,0l-41,23.69a4.26,4.26,0,0,0-2.13,3.69v47.37A4.26,4.26,0,0,0,34.85,104l41,23.69a4.27,4.27,0,0,0,4.26,0l11.71-6.76Z"/><path class="a" d="M73.65,69.75a1.63,1.63,0,0,0-1.83-1.83H68.42V61h7.9c3.74,0,5.32,1.58,5.32,5.32v28a1.63,1.63,0,0,0,1.83,1.83h3.41v6.9H79c-3.74,0-5.32-1.58-5.32-5.32v-28Z"/><circle class="a" cx="76.5" cy="51.06" r="4.42"/></svg>