<svg xmlns="http://www.w3.org/2000/svg" viewBox="0 0 611.32 121.75"><defs><style>.a{fill:none;stroke:#000;stroke-miterlimit:10;stroke-width:0.75px;}</style></defs><title>limo</title><path class="a" d="M203.67,505.53c1.43-8.31,1.4-14.22,7.06-16.23,15.11-5.35,49.89-9.2,60.15-10.09s29.29-1.93,40.3-1.49,11.3,2.83,17.25-.74,12.19-8.18,18.14-12,22.6-13.23,24.09-14.13a4,4,0,0,0-2.08-2.68c9.81-4.76,29.29-5.35,32.56-5.65s40-1.49,50.71-1.64S593,439.36,605,439.51s41.78,0.45,59.48,3.12,29.44,5.5,35.84,8.62,20.82,19.33,22.9,21.26c4.31,0.3,50.56,4.31,61.41,8.18a11.74,11.74,0,0,1,6.1,5.2c1.34,2.53,2.84,8.07,3.72,16.8,0.15,1.49,1.78,1.93,2.68,2.38s3.87,0.89,5.2,4.16,3.4,10.21.45,17.7c-2.23,5.65-12.64,5.06-20.07,5.8s-44.46,4-46.25,4.16c0.45-4.91,2.23-18.59-8.33-30s-35.84-11-47,.3-9.37,28-9.52,30.48c-10.56.3-366.84,2.83-369.81,2.68,0.15-8.18-1.05-17.74-3.42-24.09-9.37-25.13-44.61-21.41-55.76-7.58-7,8.68-5.8,26.77-5.8,29.14-4.61.3-31.38-2.08-37.62-6.39s-5.5-12.67-5.43-15.06,1.56-8.25,4.24-9.18S203.67,505.53,203.67,505.53Z" transform="translate(-193.34 -439.13)"/><path class="a" d="M313.41,477.88c3.42-2.23,44.91-25.87,55.17-29.74" transform="translate(-193.34 -439.13)"/><path class="a" d="M779.13,479.36c4.46,1.49,7.14,18.44,8,28" transform="translate(-193.34 -439.13)"/><line class="a" x1="593.52" y1="64.18" x2="601.11" y2="64.18"/><line class="a" x1="607.65" y1="68.19" x2="535.38" y2="68.19"/><path class="a" d="M737.64,507.47s0.89,3.87,3.12,3.87h62.3" transform="translate(-193.34 -439.13)"/><line class="a" x1="543.41" y1="87.97" x2="610.18" y2="85.74"/><line class="a" x1="108.06" y1="91.28" x2="478.54" y2="88.49"/><path class="a" d="M203.67,505.38a53.63,53.63,0,0,1,3.12-9.7c1.3-2.52,2.42-2.57,5.46-2.71s14.28-.07,15.39,0a3.5,3.5,0,0,1,3.49,2.83c0.37,2.19.67,4.87,0.78,5.69s0.33,3.9-2.64,3.9Z" transform="translate(-193.34 -439.13)"/><line class="a" x1="100.03" y1="68.55" x2="490.78" y2="65.49"/><line class="a" x1="2.89" y1="69.31" x2="49.84" y2="68.94"/><path class="a" d="M194.75,511.33h34.8a3.61,3.61,0,0,0,3.12-3.12" transform="translate(-193.34 -439.13)"/><path class="a" d="M370.66,450.81c5.8-3.12,23.79-5.8,47.14-5.65-1.78,7-7.59,33.09-8.18,34.65-0.89,2.38-8,40.15-2.53,59.63" transform="translate(-193.34 -439.13)"/><path class="a" d="M341.66,468.14c0.92-.92,3.64-1.19,5.2-1.26s1.78,1.34,1.93,3,0.15,4.46.22,5.35a2.74,2.74,0,0,1-1.93,3c-1.26.15-4.4,0-5.58,0-1.78,0-2.81-2.83-2.75-3.79A10.46,10.46,0,0,1,341.66,468.14Z" transform="translate(-193.34 -439.13)"/><path class="a" d="M666.72,537.65s-0.47-2.06.45-10c2.6-22.68,17.32-29.67,22.38-31.67,5.75-2.28,4.61-8.33,3.79-18.59s-3.12-17.32-5.72-21-8.1-6.39-9.44-7.14a32.36,32.36,0,0,1-4.76-3.12c-21.41-3-55.54-4-59.7-3.94,0,0,.22,2.38.22,3.42s-5.35,31.67-5.35,31.67-0.37,3.42-.37,4.09S607,491.85,606.79,493s-1.56,15.17-1.71,18.14-0.3,22.08,1.34,26.84" transform="translate(-193.34 -439.13)"/><path class="a" d="M347.83,467.1c3.87-2.6,18.44-11.9,23.79-13.68s7.36-2.68,14.72-3.57S414,448.36,417,448.36s197-2.83,197-2.83c29.14-.07,48.4,3.87,54.65,5.87s8.4,3.27,10,4.46a16.36,16.36,0,0,1,4.39,4.68c1.56,2.68,3,9.29,3,14.57,0,2-.67,1.71-1.49,1.78s-75.84,0-75.84,0l-199,2.9s-72.71,1.86-75.76,1.86-1.86-2.08-.67-3.12,5.58-4.54,5.58-4.54" transform="translate(-193.34 -439.13)"/><line class="a" x1="153.23" y1="39.2" x2="150.55" y2="42.32"/><path class="a" d="M412.48,448.54c-1,2.34-8.59,29.44-9,31.45" transform="translate(-193.34 -439.13)"/><path class="a" d="M422.74,448.42c-0.56,3.12-4.91,24.88-5.46,31.24" transform="translate(-193.34 -439.13)"/><path class="a" d="M617.68,445.65c0.11,2-1.67,28.22-2.12,31.34" transform="translate(-193.34 -439.13)"/><path class="a" d="M606.7,445.92c-0.33,2.45-4.85,29.39-5.19,31.06" transform="translate(-193.34 -439.13)"/><path class="a" d="M652.59,448.1c3.46,0.67,25.74,5.91,29.11,15.17,1.34,3.68,1.56,13.61,1.56,13.61" transform="translate(-193.34 -439.13)"/><rect class="a" x="599.67" y="451.61" width="1.73" height="18.07" rx="0.52" ry="0.52" transform="translate(-114.73 -526.59) rotate(8.91)"/><rect class="a" x="596.72" y="451.61" width="1.73" height="18.07" rx="0.52" ry="0.52" transform="translate(-114.77 -526.14) rotate(8.91)"/><rect class="a" x="593.76" y="451.61" width="1.73" height="18.07" rx="0.52" ry="0.52" transform="translate(-114.8 -525.68) rotate(8.91)"/><rect class="a" x="590.8" y="451.61" width="1.73" height="18.07" rx="0.52" ry="0.52" transform="translate(-114.84 -525.22) rotate(8.91)"/><rect class="a" x="431.64" y="453.73" width="1.73" height="18.07" rx="0.52" ry="0.52" transform="translate(-116.43 -500.54) rotate(8.91)"/><rect class="a" x="428.68" y="453.73" width="1.73" height="18.07" rx="0.52" ry="0.52" transform="translate(-116.47 -500.08) rotate(8.91)"/><rect class="a" x="425.73" y="453.73" width="1.73" height="18.07" rx="0.52" ry="0.52" transform="translate(-116.5 -499.62) rotate(8.91)"/><rect class="a" x="422.77" y="453.73" width="1.73" height="18.07" rx="0.52" ry="0.52" transform="translate(-116.54 -499.17) rotate(8.91)"/><path class="a" d="M326.77,477.93c-2.23,1.17-10.54,13.33-10.09,29.83a191.13,191.13,0,0,0,4,32.34" transform="translate(-193.34 -439.13)"/><path class="a" d="M304.63,511.33c4,0,363.18-3.74,365.41-3.74s-0.45,2.79-1.84,2.84c-1.06,0-361.11,3.57-361.73,3.57C305.14,514,303.8,511.33,304.63,511.33Z" transform="translate(-193.34 -439.13)"/><path class="a" d="M400.88,489.83c0,2.72-4.69,2.24-10.48,2.24s-10.48-.29-10.48-2.24,4.69-2.24,10.48-2.24S400.88,486.8,400.88,489.83Z" transform="translate(-193.34 -439.13)"/><line class="a" x1="201.01" y1="48.4" x2="201.01" y2="52.97"/><path class="a" d="M686.38,486.49c0,2.72-4.69,2.24-10.48,2.24s-10.48-.29-10.48-2.24,4.69-2.24,10.48-2.24S686.38,483.46,686.38,486.49Z" transform="translate(-193.34 -439.13)"/><line class="a" x1="486.51" y1="45.05" x2="486.51" y2="49.62"/><circle class="a" cx="511.15" cy="93.05" r="28.33"/><circle class="a" cx="511.15" cy="93.05" r="21.09"/><line class="a" x1="511.15" y1="85.69" x2="511.15" y2="100.41"/><line class="a" x1="518.51" y1="93.05" x2="503.79" y2="93.05"/><circle class="a" cx="76.23" cy="93.05" r="28.33"/><circle class="a" cx="76.23" cy="93.05" r="21.09"/><line class="a" x1="76.23" y1="85.69" x2="76.23" y2="100.41"/><line class="a" x1="83.59" y1="93.05" x2="68.87" y2="93.05"/></svg>