<svg xmlns="http://www.w3.org/2000/svg" id="Layer_1" data-name="Layer 1" viewBox="0 0 340.6 156.32"><defs><style>.cls-1{fill:none;stroke:#000;stroke-linejoin:round;stroke-width:.75px}</style></defs><circle cx="53.53" cy="132.71" r="23.24" class="cls-1"/><circle cx="53.53" cy="132.71" r="14.73" class="cls-1"/><path d="M53.53 126.66v12.09M59.57 132.71H47.49" class="cls-1"/><circle cx="270.91" cy="132.71" r="23.24" class="cls-1" transform="rotate(-79.1 270.887 132.728)"/><circle cx="270.88" cy="132.71" r="14.73" class="cls-1"/><path d="M270.88 126.66v12.09M276.92 132.71h-12.08" class="cls-1"/><path d="M149.82 26.73l78.25-.13c5.32 0 80.38.8 82.64.93s6.92.13 8.12 5.59 4.79 32.87 5.06 34.6a2.62 2.62 0 0 1-2 3.13 2.76 2.76 0 0 1-.7.06c-1.86 0-83.7.4-86.63.4S161 72.64 158 72.64a8.32 8.32 0 0 1-8.52-7.45c-.92-5.81-3.6-33.54-3.74-35.53s1.26-2.93 4.08-2.93z" class="cls-1" transform="translate(-.03)"/><path d="M293.09 105.46c1 0 40.54-.44 41.61-.44s2.4.18 2.31 1.69-1.32 12.39-1.55 13.71c-.53 3.06-1.46 5.46-12.2 7.94-2.68.62-24.22 4.61-26.7 4.7.62-24.22-15.08-29.28-24.57-29.28-9 0-25.37 8.07-26.88 29-4 0-67.33 1.6-76.65 1.6s-80 1.86-87 1.86c-.53-21.56-13-31.67-27.55-31.67s-27 7.45-26.35 29c-5.06.27-14.64.2-17.7-.33s-9.38-3.13-9.38-8.52c0-5.66-.07-11.24-.07-12.58a5.56 5.56 0 0 1 1.86-3.59c.8-.67 1.33-15.57 1.46-18a8.79 8.79 0 0 1 3.73-6.39c5.86-4.59 18.48-10.11 27.15-13.24 8.85-3.19 13.11-4.19 16.17-5.66s5.52-4.26 9.22-8 26.61-26.41 30.2-29.73 16.63-14.64 27.41-20.1A58.75 58.75 0 0 1 141.17.78c4.34-.27 79.44-.4 85.56-.4s72.78.93 79.71 1.06 13.44.67 16.37 2 4.52 6 5.32 9.32 4.53 23.42 5.33 31.62S335.86 69.93 336 77s-.13 28.14-.13 28.14" class="cls-1" transform="translate(-.03)"/><path d="M2.91 104.44c2.79 0 6.92-.13 9-1.86s11.89-12.2 13-13.44.53-2.66-1.35-2.76-5-.09-7-.17c-2.61-.1-6.21 1.06-8 3.59-1.62 2.31-1.53 5.79-1.6 10 0 1.46.07 3.59-1.8 4.66M11.51 103.11c2.13 2.26 4.52 5.72 7.85 5.72s14.68.55 15.48.55a1.15 1.15 0 0 1 .93 1.06M138.64 1.05c0 2.79.27 9.85.27 10.91V23.8c0 1.86.4 63.48.4 64.27a40.71 40.71 0 0 0 .27 4.13c.13.67.13 13.44.13 14.5s.13 3.73.13 4.39.13 7.19 0 8.38.06 15.07.06 15.47M318.15 2.38a96.86 96.86 0 0 1 5.36 22c1.33 11.58 4.26 44.18 4.26 47.51s-.13 32.6-.13 33.14M118.51 78a4.13 4.13 0 0 1 7.86 0M126.39 80.38a4.13 4.13 0 0 1-8 0" class="cls-1" transform="translate(-.03)"/><rect width="15.57" height="2.33" x="115.59" y="78.01" class="cls-1" rx="1.16"/><path d="M327.7 71.83l8.07.79" class="cls-1"/><path d="M69.62 109.47h3.46l6-1.44 52.08-.89s117.57-1.06 119.35-1.06c3.46-4.7 11.45-9.41 21.2-9.67 8.38-.22 27.81 1.77 29.14 36" class="cls-1" transform="translate(-.03)"/><path d="M293.8 117.22c4.79 0 25.15-1.06 27.15-1.2s4.92-1.06 5.06-3.86 0-6.92 0-6.92M.71 110.83a7 7 0 0 0 4.19 1.46c1.73 0 23.75.2 24.55.2s-1.8-3.39-1.8-3.39M.51 123.38A5.39 5.39 0 0 0 4.77 125h5.74c1.4 0 4-1.33 2.33-3.33-2.36-2.83-4.86-5.59-6.92-6.25-1.6-.52-4.92-1.33-5.39-1.73M226.73.38c.35 3.86 1.06 10.78 1.06 11.49s.21 13.13.27 14.73M229.22 71.66v17.92c0 .53.35 15.61.35 16.15s.53 4.26.53 4.26-.35 7.81-.35 8.34-1.11 13.92-1.11 14.8M69.71 63.5c0-2 .53-7.81.53-9a2.82 2.82 0 0 1 2.27-2.35h1.69a1.16 1.16 0 0 1 .89 1.06c0 .53.62 17.39.62 17.83s.35 2.22-1.15 2.22h-2c-1.86 0-2.66-2-2.75-5.23s-.1-3.73-.1-4.53z" class="cls-1" transform="translate(-.03)"/><path d="M69.68 64.73h5.85" class="cls-1"/><path d="M28.9 87.05c3.61-2.17 20.67-8.29 27.23-9.67s15-3.19 20.23-4.17 35.93-6.48 39.83-7 10.47-1.83 11.63-8.83 2.93-22.18 3.18-24.75-1-4.35-3.46-4.35-22.31 2-26.17 2.71-12.76 5.16-18.8 11.28" class="cls-1" transform="translate(-.03)"/><path d="M72.51 52.15C75 49.67 92 32.9 94 31.15a20.64 20.64 0 0 1 10.11-4.61c5-1 24-2.22 32-2.57s65.29-.62 68.75-.71 28.21 0 38.86 0 79.58.71 79.58.71" class="cls-1" transform="translate(-.03)"/><path d="M228.03 26.59l1.16 45.07" class="cls-1"/><path d="M80 44.81c-.24 2.36-1.59 21.7-1.18 28M56.13 77.38c2.13-2.84 10.65-13.93 13.57-16.68" class="cls-1" transform="translate(-.03)"/><path d="M8.46 89.8l-4.69-.04M69.25 74.67v24.75" class="cls-1"/><path d="M27.29 109c4.89-8.65 15.63-13.33 26.27-13.33 9.76 0 32.29 6.83 33.89 40.37M28.9 87.05c4.44-1.2 25.76-5.63 40.38-7.41s48.15-7.64 51.35-8.34 8-3.55 8.52-8.61" class="cls-1" transform="translate(-.03)"/><path d="M249.94 109.98l-174.41 1.78M78.19 120.62l167.41-2.83" class="cls-1"/><path d="M50.74 65.32c1.75 1.73 3.53 4 12.58 3" class="cls-1" transform="translate(-.03)"/><path d="M135.15 24.11l-1.78 64.58-1.78 3.89-.43 14.56-.28 4.08-.7 8.34-3.55 15.78" class="cls-1"/><path d="M80.89 95.62c7.63-.35 45.42-3 50.74-3s86.59-3 97.59-3S336 88.38 336 88.38" class="cls-1" transform="translate(-.03)"/><path d="M336 81.07c-3.9.18-104.33 1.77-106.81 1.77s-83.13 4.61-89.91 5.23-52.74 6.65-58.42 7.54M90.2 27.53l4.39-.15-41 40.45s0 1.35-8.08 3.55c-10.74 3-28.85 13.23-30.72 14.83M110.16 19.68c2.93-2.66 8-6.92 18.9-7.45s84.63-.44 98.74-.35S314 13 321.48 13.57M250.51 106.08a5.49 5.49 0 0 1-1.24 4.88c-1.42 1.6-6.83 11.53-6.83 21.91M328.51 126.93l2.26 1.67a2.87 2.87 0 0 0 1.8.46l6.6-.87a1.24 1.24 0 0 0 1-1.13l.09-1.8a1 1 0 0 0-.95-1l-2.39-.07a1.73 1.73 0 0 1-1.4-1L335 122" class="cls-1" transform="translate(-.03)"/></svg>
