<svg xmlns="http://www.w3.org/2000/svg" id="Layer_1" data-name="Layer 1" viewBox="0 0 400.83 121.45"><defs><style>.cls-1{fill:none;stroke:#000;stroke-miterlimit:10;stroke-width:.75px}</style></defs><path d="M5.46 101.63c2.74-2.93 6.09-10.13-5-22.24 1.5-2.77 4.34-7 4.48-8.86.24-3 .56-13.88 6.68-17.21 5.3-2.88 14.47-5.48 21.43-7.17s41.15-8 74.71-10.13a31.34 31.34 0 0 0 15.7-5.35c7.43-5.09 35.09-19.78 50.07-24.42C184.75 2.77 195.36.37 235 .37s54 4.64 62 7 42.46 18.2 44.77 19.63c4.06 2.43 26 5.74 31.44 6.12 7.7.53 10.55.84 13.93 6.33s7.49 19.62 8.65 20.68c1.56 1.42 4.43 5.91 4.64 13.29s-.21 19.2-12.87 22.58-36.72 7.17-38.83 7.6c1.9-10.34.65-23.79-8.86-34-12-12.87-32.18-9.6-40.72-4.64-6.78 3.93-17.72 14.88-17.51 39.46-11.39 0-187.16 1.48-191.38 1.48-.24-8.68-.83-24.5-13.69-36.93-7-6.81-17.12-9-25.4-8.31-12.42 1.11-17.65 6-20.73 8.78-9.5 8.47-9.81 29.81-6.43 36.73-4.14.52-9.94-.6-18.55-4.54z" class="cls-1" transform="translate(0 .01)"/><path d="M3.22 82.7c-1 3-2.24 13-1.92 17a20.29 20.29 0 0 0 4.11 2M6.26 61.78c3.17-7 13.29-8.88 18.78-8.45s4.43 2.1 1.06 5.17S12.38 68.74 5.46 69" class="cls-1" transform="translate(0 .01)"/><path d="M27.46 53.76c6.65-4 43.36-7.81 56.21-8.65 9.71-.63 22.79-5.7 25.32-9.07" class="cls-1" transform="translate(0 .01)"/><path d="M89.76 97.69l192.39-2.81" class="cls-1"/><path d="M390.72 47.32c-3.53-4.38-1.69-6.44-16.51-8.33a6.59 6.59 0 0 0-5.59 1.79c-1.53 1.49-2.74 3.17 1 5.49 4 2.5 21.23 13.35 26.17 13.82M113.88 97.44c-3.8-6.75-5.91-43.68-2.11-51.7s22.16-18.57 34.61-24.69 25.32-13.29 47.48-16 53.17-.63 63.94.63 27.85 7.17 41.2 16.46S317.31 38 311.4 46.41s-17.94 14.52-23.65 22.33-9.75 16.88-9.92 26.17" class="cls-1" transform="translate(0 .01)"/><path d="M215.79 3.75c-1.69 9.71-5.28 28.49-5.7 30.81s-3.38 10.66-4.17 21.26-1.11 27.69-1.11 31 1.27 7.75 2.22 9" class="cls-1" transform="translate(0 .01)"/><path d="M221.76 3.57c45.58 1.11 70.85 14.3 84.25 31-5 0-51.15-.74-95.69.53-45.6 1.29-93.79 5.06-93.79 5.06" class="cls-1" transform="translate(0 .01)"/><path d="M210.99 3.92l-10.6 31.49M219.69 3.76l-.79 31.18" class="cls-1"/><circle cx="53.74" cy="92.17" r="28.91" class="cls-1"/><circle cx="53.74" cy="92.17" r="21.26" class="cls-1"/><path d="M53.74 82.75v18.84M63.16 92.17H44.32" class="cls-1"/><circle cx="316.14" cy="92.17" r="28.91" class="cls-1"/><circle cx="316.14" cy="92.17" r="21.26" class="cls-1"/><path d="M316.14 82.75v18.84M325.56 92.17h-18.84" class="cls-1"/><path d="M29.16 54.39c11.71-1.27 97.8-9.18 266.19-1M97.52 92.06c13.6.11 173.77-5.06 187.06-8.55M356.12 76.57c7-.95 40.2-4.75 44-6.65M337.12 67.37c8.86-1.27 30.7-3.8 36.08-5.06s10.44-5.7 11.08-7M301.89 42c27.28.28 57.7 1 65 2M259.9 42.05c4.85-.15 13-.21 22.63-.19M127.46 34.77c-.38-2.19 4.64-6.12 6.33-7.07a12.59 12.59 0 0 1 5.28-1.06c.84 0 4.43.42 4.43 3.17s-.11 5.7-.11 6.33a2.15 2.15 0 0 1-1.9 2.32c-1.66.21-13.37 0-14.03-3.69zM98.05 102.92c8.44-.21 157.41-4.43 175.14-1.9" class="cls-1" transform="translate(0 .01)"/><ellipse cx="189.66" cy="44.15" class="cls-1" rx="10.01" ry="3.68" transform="rotate(-2.51 189.7 44.116)"/><path d="M180.29 43.23c2.22-.4 13.77-1.42 18.83-.55M179.9 45.13c2.22-.4 14.48-1.5 19.54-.63" class="cls-1" transform="translate(0 .01)"/><ellipse cx="292" cy="42.67" class="cls-1" rx="10.01" ry="3.68" transform="rotate(-2.51 292.029 42.704)"/><path d="M282.63 41.76c2.22-.4 13.77-1.42 18.83-.55M282.24 43.66c2.22-.4 14.48-1.5 19.54-.63M278.25 3S284.34.74 285 .82s.87 2.14.87 3.4" class="cls-1" transform="translate(0 .01)"/></svg>