<svg xmlns="http://www.w3.org/2000/svg" viewBox="0 0 340.75 123.6"><defs><style>.a{fill:none;stroke:#000;stroke-linejoin:round;stroke-width:0.75px;}</style></defs><title>suv</title><path class="a" d="M330.62,502.22c1.39-2.9,4.75-11.7,11.48-15.07s23-6.44,29.4-7.46,47.25-6.44,50.76-6.73,7.75-2.49,9.51-3.66,18.43-11.56,23.4-14.48,17.41-9.51,25.6-11.7,26.62-4.1,60-3.95c14.78,0.06,67.14,3.22,75.63,4.1s18.67,3.82,18.94,4.53-3.29,2.93-3.29,2.93,20.77,17.26,23.7,21.8a2.65,2.65,0,0,1,1.87.29s6.11,5.63,6.62,6.22a2.13,2.13,0,0,1,.22,1.68s1.9,7.09,2.19,9.73,0.15,15.14.15,16c1,0.15,3.14,2,3.22,4.53s-0.15,15-.15,15.58-4,6.29-8.92,7.39-26.11,4.61-26.11,4.61,0.42-19.55-4.83-26.7c-11.7-15.94-36.42-14.77-47.1-3.51s-10.68,23.7-10.82,31.08c-3.88-.15-151.18.88-152.94,0.88-0.15-3.22-1.24-19.82-6.14-26.92-10.09-14.6-34-18.94-49.08-4.17-4.75,4.66-9.65,16.09-7.83,29.26-4-1-25.69-3.77-26-9.44-0.07-1.54.22-3.29,1-3.88-0.07-2-.29-8.78-0.73-9.44S329.81,503.9,330.62,502.22Z" transform="translate(-329.63 -438.79)"/><path class="a" d="M335.7,496.3c0.75-2,2.47-5.49,5.76-6.14a103.89,103.89,0,0,1,13.66-1.54c3.84-.11,3,1.43,2.52,2.08s-4.88,5.32-6,6.36c-2.36,2.14-8.34,2.08-14.7,2C335.59,499,334.6,499.26,335.7,496.3Z" transform="translate(-329.63 -438.79)"/><path class="a" d="M644.9,512c-0.59-5.12-8.19-15.51-15.65-19.89s-14.34-6.58-24.87-6.58S587.26,487,576,494.91s-15.8,21.8-16.68,25.75" transform="translate(-329.63 -438.79)"/><path class="a" d="M655.72,472.52c-1,.07-2.74.29-3.07,0.29s-2.47,4.39-2.85,5-0.49,2.25.66,4.06,11.57,20.41,12.23,21.56,1.52,3.11,4.08,3L644.9,512" transform="translate(-329.63 -438.79)"/><path class="a" d="M620.45,444c0.05,0.6,1.54,2.52,3.18,3.95L624.9,449l27.75,23.81" transform="translate(-329.63 -438.79)"/><path class="a" d="M635.32,447.8a82.77,82.77,0,0,1-11,.77" transform="translate(-329.63 -438.79)"/><line class="a" x1="302.4" y1="11.94" x2="299.27" y2="9.67"/><path class="a" d="M388.62,486.71c11.56-.73,2.93-0.44,40.08-1.32s153.74-4.68,166-4.83l69.78-.88" transform="translate(-329.63 -438.79)"/><path class="a" d="M418.16,530.6c4.68,0,152.72-5.12,155.64-6.29" transform="translate(-329.63 -438.79)"/><path class="a" d="M330.1,529.43c3.18,0.22,14.59.66,16.57,0.66s2.74-.88,2.74-2.74,1.54-14.59,7.79-21.17,15.36-12.4,29.51-12.51,27.5,7.24,33.83,21.85" transform="translate(-329.63 -438.79)"/><line class="a" x1="16.28" y1="91.3" x2="26.04" y2="91.41"/><path class="a" d="M330.54,516.26c1.1-.77,1.87-2.74,6.14-2.74s7,1.76,7.35,4.61,0.55,4.72.55,5.6-0.33,3.51-3,3.4-8.52.07-10.57-1.94" transform="translate(-329.63 -438.79)"/><line class="a" x1="0.92" y1="78.24" x2="14.19" y2="78.68"/><line class="a" x1="1.36" y1="84.93" x2="14.96" y2="84.93"/><path class="a" d="M330.4,502.8c3.51-.29,14-1.63,16.93-2.07s7.39-5.5,10.31-10" transform="translate(-329.63 -438.79)"/><line class="a" x1="326.1" y1="52.68" x2="337.07" y2="52.24"/><path class="a" d="M344.44,524.89c1.61-5.56,3.36-16.09,11.85-24s14.77-11.7,30-12.43,25,5.41,30.72,11.7,10.24,15.8,10.53,21.65" transform="translate(-329.63 -438.79)"/><path class="a" d="M330.1,511c0.88,0.88,16.24.73,18.43,0.59" transform="translate(-329.63 -438.79)"/><path class="a" d="M428.29,530.31c3.36-2.19,3.47-5,16.79-6s57.2-3.22,62.9-3.22,42.27-1.17,47.1-1,9.95,2.49,12.14,4.83" transform="translate(-329.63 -438.79)"/><path class="a" d="M418.6,534.25c5.85,0,80.89-2.34,89.82-2.49s60.27-3.07,64.51-3.66" transform="translate(-329.63 -438.79)"/><path class="a" d="M567.81,519.19c2.34-7,10.09-21.36,25.89-25s26.55,0.68,30.83,3.22c4.68,2.78,12.76,9.73,16.13,19.82" transform="translate(-329.63 -438.79)"/><path class="a" d="M632.61,518.31c5.27-.73,34.52-4.68,37.16-5" transform="translate(-329.63 -438.79)"/><path class="a" d="M633.93,524.89c4.83-.44,34.81-3.22,36-5.56" transform="translate(-329.63 -438.79)"/><path class="a" d="M429.06,540.29l-0.44-6.14s-0.66-7.24-1-10.53-0.44-18.21-.55-22.82a107.29,107.29,0,0,1,1.21-15.25,33.21,33.21,0,0,1,3.51-9.11c1.43-2.3,6.1-5.83,8.67-7.68,2.74-2,15.36-10.42,17-11.52a121.78,121.78,0,0,1,16.46-8.34,74.69,74.69,0,0,1,21.28-5.16c8.56-.66,16.79-1.21,23.26-1.21s41.58,1.1,58.48,2.63,21.94,2.19,24.9,2.63a24.66,24.66,0,0,1,8.89,2.63c5,2.74,17.88,15.14,20.84,17.77s3.29,5.92-1.21,6S517.27,477,511.56,477s-89.52,4.17-94,4.5-48.49,4.28-51.78,4.61a38.87,38.87,0,0,0-7.68,1.32" transform="translate(-329.63 -438.79)"/><path class="a" d="M599.48,447.44c7.24,0.88,11,4.1,14.55,7.61s12,12.29,13.53,13.82,0.51,2.85-1.68,2.85-105.76,2.19-113.44,2.41-77,3.51-81.62,3.73" transform="translate(-329.63 -438.79)"/><line class="a" x1="311.03" y1="78.42" x2="315.27" y2="73.23"/><line class="a" x1="312.93" y1="67.82" x2="333.78" y2="65.95"/><path class="a" d="M442.67,477.43c0.11-3.18.55-5.7,1.65-6.91s4.94-4.72,8.56-5.38,5,0.55,5.7,1.21,1.21,4.17,1.21,5.81-0.66,4.17-2.08,4.39" transform="translate(-329.63 -438.79)"/><line class="a" x1="128.29" y1="18.12" x2="126.54" y2="26.24"/><path class="a" d="M518.48,442.54l-6,31.6L511.56,477,510,483.13s-0.66,4.28-.88,6-1.35,26.77-1.17,31.93,0.29,6.58.29,6.58l0.15,4.1a71.73,71.73,0,0,0,.29,7.86" transform="translate(-329.63 -438.79)"/><path class="a" d="M577,445.17c1.43,2.19,13.49,26.44,13.93,27.32s1.65,2.74,1.65,2.74l2.19,5.34-1.54,21.54" transform="translate(-329.63 -438.79)"/><polyline class="a" points="242.39 6.05 248.64 19.55 247.98 33.92"/><path class="a" d="M514.64,442.54c-0.66,1.65-9.22,28.52-9.44,31.82" transform="translate(-329.63 -438.79)"/><path class="a" d="M522.43,442.65c-0.22,2-3.62,27.65-3.18,31.38" transform="translate(-329.63 -438.79)"/><path class="a" d="M436.16,517.58c9.36-.59,107.37-5.27,117.61-5.27" transform="translate(-329.63 -438.79)"/><path class="a" d="M502,489.74c-0.06,1.47-.49,2.82-2.22,2.82h-4.39c-1.63,0-2.44-.74-2.67-2.72" transform="translate(-329.63 -438.79)"/><path class="a" d="M492.79,487.27c0.39-2.11,2-2.6,5.06-2.6,3.33,0,3.93,1.18,4.1,2.63" transform="translate(-329.63 -438.79)"/><path class="a" d="M505,489.82H491.21a1.27,1.27,0,0,1-1.26-1.26h0a1.27,1.27,0,0,1,1.26-1.26H505a1.27,1.27,0,0,1,1.26,1.26h0A1.27,1.27,0,0,1,505,489.82Z" transform="translate(-329.63 -438.79)"/><path class="a" d="M580,487.69c-0.06,1.47-.49,2.82-2.22,2.82H573.4c-1.63,0-2.44-.74-2.67-2.72" transform="translate(-329.63 -438.79)"/><path class="a" d="M570.75,485.22c0.39-2.11,2-2.6,5.06-2.6,3.32,0,3.93,1.18,4.1,2.63" transform="translate(-329.63 -438.79)"/><path class="a" d="M583,487.77H569.18a1.27,1.27,0,0,1-1.26-1.26h0a1.27,1.27,0,0,1,1.26-1.26H583a1.27,1.27,0,0,1,1.26,1.26h0A1.27,1.27,0,0,1,583,487.77Z" transform="translate(-329.63 -438.79)"/><circle class="a" cx="57.31" cy="94.68" r="27.43"/><circle class="a" cx="57.31" cy="94.68" r="19.65"/><line class="a" x1="57.31" y1="87.54" x2="57.31" y2="101.81"/><line class="a" x1="64.44" y1="94.68" x2="50.18" y2="94.68"/><circle class="a" cx="274.23" cy="95.79" r="27.43"/><circle class="a" cx="274.23" cy="95.79" r="19.65"/><line class="a" x1="274.23" y1="88.66" x2="274.23" y2="102.93"/><line class="a" x1="281.36" y1="95.79" x2="267.1" y2="95.79"/></svg>