<svg xmlns="http://www.w3.org/2000/svg" viewBox="0 0 400.83 121.45"><defs><style>.a{fill:none;stroke:#fff;stroke-miterlimit:10;stroke-width:0.75px;}</style></defs><title>white-s-class</title><path class="a" d="M5.46,101.63C8.2,98.7,11.55,91.5.46,79.39c1.5-2.77,4.34-7,4.48-8.86,0.24-3,.56-13.88,6.68-17.21,5.3-2.88,14.47-5.48,21.43-7.17s41.15-8,74.71-10.13a31.35,31.35,0,0,0,15.7-5.35c7.43-5.09,35.09-19.78,50.07-24.42C184.75,2.77,195.36.37,235,.37s54,4.64,62,7S339.46,25.57,341.77,27c4.06,2.43,26,5.74,31.44,6.12,7.7,0.53,10.55.84,13.93,6.33s7.49,19.62,8.65,20.68c1.56,1.42,4.43,5.91,4.64,13.29S400.22,92.58,387.56,96s-36.72,7.17-38.83,7.6c1.9-10.34.65-23.79-8.86-34-12-12.87-32.18-9.6-40.72-4.64-6.78,3.93-17.72,14.88-17.51,39.46-11.39,0-187.16,1.48-191.38,1.48-0.24-8.68-.83-24.5-13.69-36.93-7-6.81-17.12-9-25.4-8.31-12.42,1.11-17.65,6-20.73,8.78-9.5,8.47-9.81,29.81-6.43,36.73C19.87,106.69,14.07,105.57,5.46,101.63Z" transform="translate(0 0.01)"/><path class="a" d="M3.22,82.7c-1,3-2.24,13-1.92,17a19.79,19.79,0,0,0,4.11,2" transform="translate(0 0.01)"/><path class="a" d="M6.26,61.78c3.17-7,13.29-8.88,18.78-8.45s4.43,2.1,1.06,5.17S12.38,68.74,5.46,69" transform="translate(0 0.01)"/><path class="a" d="M27.46,53.76c6.65-4,43.36-7.81,56.21-8.65,9.71-.63,22.79-5.7,25.32-9.07" transform="translate(0 0.01)"/><line class="a" x1="89.76" y1="97.69" x2="282.15" y2="94.88"/><path class="a" d="M390.72,47.32c-3.53-4.38-1.69-6.44-16.51-8.33a6.6,6.6,0,0,0-5.59,1.79c-1.53,1.49-2.74,3.17,1,5.49,4,2.5,21.23,13.35,26.17,13.82" transform="translate(0 0.01)"/><path class="a" d="M113.88,97.44c-3.8-6.75-5.91-43.68-2.11-51.7S133.93,27.17,146.38,21,171.7,7.76,193.86,5s53.17-.63,63.94.63S285.65,12.85,299,22.14,317.31,38,311.4,46.41s-17.94,14.52-23.65,22.33S278,85.62,277.83,94.91" transform="translate(0 0.01)"/><path class="a" d="M215.79,3.75c-1.69,9.71-5.28,28.49-5.7,30.81s-3.38,10.66-4.17,21.26-1.11,27.69-1.11,31,1.27,7.75,2.22,9" transform="translate(0 0.01)"/><path class="a" d="M221.76,3.57c45.58,1.11,70.85,14.3,84.25,31-5,0-51.15-.74-95.69.53-45.6,1.29-93.79,5.06-93.79,5.06" transform="translate(0 0.01)"/><line class="a" x1="210.99" y1="3.92" x2="200.39" y2="35.41"/><line class="a" x1="219.69" y1="3.76" x2="218.9" y2="34.94"/><circle class="a" cx="53.74" cy="92.17" r="28.91"/><circle class="a" cx="53.74" cy="92.17" r="21.26"/><line class="a" x1="53.74" y1="82.75" x2="53.74" y2="101.59"/><line class="a" x1="63.16" y1="92.17" x2="44.32" y2="92.17"/><circle class="a" cx="316.14" cy="92.17" r="28.91"/><circle class="a" cx="316.14" cy="92.17" r="21.26"/><line class="a" x1="316.14" y1="82.75" x2="316.14" y2="101.59"/><line class="a" x1="325.56" y1="92.17" x2="306.72" y2="92.17"/><path class="a" d="M29.16,54.39c11.71-1.27,97.8-9.18,266.19-1" transform="translate(0 0.01)"/><path class="a" d="M97.52,92.06c13.6,0.11,173.77-5.06,187.06-8.55" transform="translate(0 0.01)"/><path class="a" d="M356.12,76.57c7-1,40.2-4.75,44-6.65" transform="translate(0 0.01)"/><path class="a" d="M337.12,67.37c8.86-1.27,30.7-3.8,36.08-5.06s10.44-5.7,11.08-7" transform="translate(0 0.01)"/><path class="a" d="M301.89,42c27.28,0.28,57.7,1,65,2" transform="translate(0 0.01)"/><path class="a" d="M259.9,42.05c4.85-.15,13-0.21,22.63-0.19" transform="translate(0 0.01)"/><path class="a" d="M127.46,34.77c-0.38-2.19,4.64-6.12,6.33-7.07a12.5,12.5,0,0,1,5.28-1.06c0.84,0,4.43.42,4.43,3.17s-0.11,5.7-.11,6.33a2.15,2.15,0,0,1-1.9,2.32C139.83,38.67,128.12,38.46,127.46,34.77Z" transform="translate(0 0.01)"/><path class="a" d="M98,102.92c8.44-.21,157.41-4.43,175.14-1.9" transform="translate(0 0.01)"/><ellipse class="a" cx="189.66" cy="44.15" rx="10.01" ry="3.68" transform="translate(-1.75 8.35) rotate(-2.51)"/><path class="a" d="M180.29,43.23c2.22-.4,13.77-1.42,18.83-0.55" transform="translate(0 0.01)"/><path class="a" d="M179.9,45.13c2.22-.4,14.48-1.5,19.54-0.63" transform="translate(0 0.01)"/><ellipse class="a" cx="292" cy="42.67" rx="10.01" ry="3.68" transform="translate(-1.59 12.83) rotate(-2.51)"/><path class="a" d="M282.63,41.76c2.22-.4,13.77-1.42,18.83-0.55" transform="translate(0 0.01)"/><path class="a" d="M282.24,43.66c2.22-.4,14.48-1.5,19.54-0.63" transform="translate(0 0.01)"/><path class="a" d="M278.25,3S284.34,0.74,285,.82s0.87,2.14.87,3.4" transform="translate(0 0.01)"/></svg>