<svg xmlns="http://www.w3.org/2000/svg" viewBox="0 0 340.6 156.32"><defs><style>.a{fill:none;stroke:#fff;stroke-linejoin:round;stroke-width:0.75px;}</style></defs><title>white-minibus</title><circle class="a" cx="53.53" cy="132.71" r="23.24"/><circle class="a" cx="53.53" cy="132.71" r="14.73"/><line class="a" x1="53.53" y1="126.66" x2="53.53" y2="138.75"/><line class="a" x1="59.57" y1="132.71" x2="47.49" y2="132.71"/><circle class="a" cx="270.88" cy="132.71" r="23.24"/><circle class="a" cx="270.88" cy="132.71" r="14.73"/><line class="a" x1="270.88" y1="126.66" x2="270.88" y2="138.75"/><line class="a" x1="276.92" y1="132.71" x2="264.84" y2="132.71"/><path class="a" d="M149.82,26.73l78.25-.13c5.32,0,80.38.8,82.64,0.93s6.92,0.13,8.12,5.59,4.79,32.87,5.06,34.6a2.61,2.61,0,0,1-2.66,3.19c-1.86,0-83.7.4-86.63,0.4S161,72.64,158,72.64a8.32,8.32,0,0,1-8.52-7.45c-0.92-5.81-3.6-33.54-3.74-35.53S147,26.73,149.82,26.73Z" transform="translate(-0.03 0)"/><path class="a" d="M293.09,105.46c1,0,40.54-.44,41.61-0.44s2.4,0.18,2.31,1.69-1.32,12.39-1.55,13.71c-0.53,3.06-1.46,5.46-12.2,7.94-2.68.62-24.22,4.61-26.7,4.7,0.62-24.22-15.08-29.28-24.57-29.28-9,0-25.37,8.07-26.88,29-4,0-67.33,1.6-76.65,1.6s-80,1.86-87,1.86c-0.53-21.56-13-31.67-27.55-31.67s-27,7.45-26.35,29c-5.06.27-14.64,0.2-17.7-.33s-9.38-3.13-9.38-8.52c0-5.66-.07-11.24-0.07-12.58a5.56,5.56,0,0,1,1.86-3.59c0.8-.67,1.33-15.57,1.46-18a8.77,8.77,0,0,1,3.73-6.39c5.86-4.59,18.48-10.11,27.15-13.24,8.85-3.19,13.11-4.19,16.17-5.66S56.3,61,60,57.26,86.61,30.85,90.2,27.53s16.63-14.64,27.41-20.1A58.68,58.68,0,0,1,141.17.78c4.34-.27,79.44-0.4,85.56-0.4s72.78,0.93,79.71,1.06,13.44,0.67,16.37,2,4.52,6,5.32,9.32,4.53,23.42,5.33,31.62S335.86,69.93,336,77s-0.13,28.14-.13,28.14" transform="translate(-0.03 0)"/><path class="a" d="M2.91,104.44c2.79,0,6.92-.13,9-1.86s11.89-12.2,13-13.44,0.53-2.66-1.35-2.76-5-.09-7-0.17c-2.61-.1-6.21,1.06-8,3.59-1.62,2.31-1.53,5.79-1.6,10,0,1.46.07,3.59-1.8,4.66" transform="translate(-0.03 0)"/><path class="a" d="M11.51,103.11c2.13,2.26,4.52,5.72,7.85,5.72s14.68,0.55,15.48.55a1.15,1.15,0,0,1,.93,1.06" transform="translate(-0.03 0)"/><path class="a" d="M138.64,1.05c0,2.79.27,9.85,0.27,10.91V23.8c0,1.86.4,63.48,0.4,64.27a40.3,40.3,0,0,0,.27,4.13c0.13,0.67.13,13.44,0.13,14.5s0.13,3.73.13,4.39,0.13,7.19,0,8.38,0.06,15.07.06,15.47" transform="translate(-0.03 0)"/><path class="a" d="M318.15,2.38a97.36,97.36,0,0,1,5.36,22c1.33,11.58,4.26,44.18,4.26,47.51s-0.13,32.6-.13,33.14" transform="translate(-0.03 0)"/><path class="a" d="M118.51,78a4.13,4.13,0,0,1,7.86,0" transform="translate(-0.03 0)"/><path class="a" d="M126.39,80.38a4.13,4.13,0,0,1-8,0" transform="translate(-0.03 0)"/><rect class="a" x="115.59" y="78.01" width="15.57" height="2.33" rx="1.16" ry="1.16"/><line class="a" x1="327.7" y1="71.83" x2="335.77" y2="72.62"/><path class="a" d="M69.62,109.47h3.46l6-1.44,52.08-.89s117.57-1.06,119.35-1.06c3.46-4.7,11.45-9.41,21.2-9.67,8.38-.22,27.81,1.77,29.14,36" transform="translate(-0.03 0)"/><path class="a" d="M293.8,117.22c4.79,0,25.15-1.06,27.15-1.2s4.92-1.06,5.06-3.86,0-6.92,0-6.92" transform="translate(-0.03 0)"/><path class="a" d="M0.71,110.83a7,7,0,0,0,4.19,1.46c1.73,0,23.75.2,24.55,0.2s-1.8-3.39-1.8-3.39" transform="translate(-0.03 0)"/><path class="a" d="M0.51,123.38A5.41,5.41,0,0,0,4.77,125h5.74c1.4,0,4-1.33,2.33-3.33-2.36-2.83-4.86-5.59-6.92-6.25-1.6-.52-4.92-1.33-5.39-1.73" transform="translate(-0.03 0)"/><path class="a" d="M226.73,0.38c0.35,3.86,1.06,10.78,1.06,11.49S228,25,228.06,26.6" transform="translate(-0.03 0)"/><path class="a" d="M229.22,71.66V89.58c0,0.53.35,15.61,0.35,16.15s0.53,4.26.53,4.26-0.35,7.81-.35,8.34-1.11,13.92-1.11,14.8" transform="translate(-0.03 0)"/><path class="a" d="M69.71,63.5c0-2,.53-7.81.53-9a2.81,2.81,0,0,1,2.27-2.35H74.2a1.15,1.15,0,0,1,.89,1.06c0,0.53.62,17.39,0.62,17.83s0.35,2.22-1.15,2.22H72.51c-1.86,0-2.66-2-2.75-5.23S69.71,64.3,69.71,63.5Z" transform="translate(-0.03 0)"/><line class="a" x1="69.68" y1="64.73" x2="75.53" y2="64.73"/><path class="a" d="M28.9,87c3.61-2.17,20.67-8.29,27.23-9.67s15-3.19,20.23-4.17,35.93-6.48,39.83-7,10.47-1.83,11.63-8.83S130.75,35.2,131,32.63s-1-4.35-3.46-4.35-22.31,2-26.17,2.71-12.76,5.16-18.8,11.28" transform="translate(-0.03 0)"/><path class="a" d="M72.51,52.15C75,49.67,92,32.9,94,31.15a20.66,20.66,0,0,1,10.11-4.61c5-1,24-2.22,32-2.57s65.29-.62,68.75-0.71,28.21,0,38.86,0S323.28,24,323.28,24" transform="translate(-0.03 0)"/><line class="a" x1="228.03" y1="26.59" x2="229.19" y2="71.66"/><path class="a" d="M80,44.81c-0.24,2.36-1.59,21.7-1.18,28" transform="translate(-0.03 0)"/><path class="a" d="M56.13,77.38C58.26,74.54,66.78,63.45,69.7,60.7" transform="translate(-0.03 0)"/><line class="a" x1="8.46" y1="89.8" x2="3.77" y2="89.76"/><polyline class="a" points="69.25 74.67 69.25 79.64 69.25 99.42"/><path class="a" d="M27.29,109c4.89-8.65,15.63-13.33,26.27-13.33,9.76,0,32.29,6.83,33.89,40.37" transform="translate(-0.03 0)"/><path class="a" d="M28.9,87c4.44-1.2,25.76-5.63,40.38-7.41S117.43,72,120.63,71.3s8-3.55,8.52-8.61" transform="translate(-0.03 0)"/><line class="a" x1="249.94" y1="109.98" x2="75.53" y2="111.76"/><line class="a" x1="78.19" y1="120.62" x2="245.6" y2="117.79"/><path class="a" d="M50.74,65.32c1.75,1.73,3.53,4,12.58,3" transform="translate(-0.03 0)"/><polyline class="a" points="135.15 24.11 133.37 88.69 131.59 92.58 131.16 107.14 130.88 111.22 130.18 119.56 126.63 135.34"/><path class="a" d="M80.89,95.62c7.63-.35,45.42-3,50.74-3s86.59-3,97.59-3S336,88.38,336,88.38" transform="translate(-0.03 0)"/><path class="a" d="M336,81.07c-3.9.18-104.33,1.77-106.81,1.77s-83.13,4.61-89.91,5.23-52.74,6.65-58.42,7.54" transform="translate(-0.03 0)"/><path class="a" d="M90.2,27.53l4.39-.15-41,40.45s0,1.35-8.08,3.55c-10.74,3-28.85,13.23-30.72,14.83" transform="translate(-0.03 0)"/><path class="a" d="M110.16,19.68c2.93-2.66,8-6.92,18.9-7.45s84.63-.44,98.74-0.35S314,13,321.48,13.57" transform="translate(-0.03 0)"/><path class="a" d="M250.51,106.08a5.47,5.47,0,0,1-1.24,4.88c-1.42,1.6-6.83,11.53-6.83,21.91" transform="translate(-0.03 0)"/><path class="a" d="M328.51,126.93l2.26,1.67a2.86,2.86,0,0,0,1.8.46l6.6-.87a1.25,1.25,0,0,0,1-1.13l0.09-1.8a1,1,0,0,0-1-1l-2.39-.07a1.73,1.73,0,0,1-1.4-.95L335,122" transform="translate(-0.03 0)"/></svg>