<svg xmlns="http://www.w3.org/2000/svg" viewBox="0 0 611.33 121.76"><defs><style>.a{fill:none;stroke:#fff;stroke-miterlimit:10;stroke-width:0.75px;}</style></defs><title>white-limo</title><path class="a" d="M10.33,66.4c1.43-8.31,1.4-14.22,7.06-16.23C32.5,44.82,67.28,41,77.54,40.08s29.29-1.93,40.3-1.49,11.3,2.83,17.25-.74,12.19-8.18,18.14-12,22.6-13.23,24.09-14.13A4,4,0,0,0,175.24,9c9.81-4.76,29.29-5.35,32.56-5.65s40-1.49,50.71-1.64S399.66,0.23,411.66.38s41.78,0.45,59.48,3.12S500.58,9,507,12.12s20.82,19.33,22.9,21.26c4.31,0.3,50.56,4.31,61.41,8.18a11.74,11.74,0,0,1,6.1,5.2c1.34,2.53,2.84,8.07,3.72,16.8,0.15,1.49,1.78,1.93,2.68,2.38s3.87,0.89,5.2,4.16,3.4,10.21.45,17.7c-2.23,5.65-12.64,5.06-20.07,5.8s-44.46,4-46.25,4.16c0.45-4.91,2.23-18.59-8.33-30s-35.84-11-47,.3-9.37,28-9.52,30.48c-10.56.3-366.84,2.83-369.81,2.68,0.15-8.18-1-17.74-3.42-24.09C95.67,52,60.43,55.72,49.28,69.55c-7,8.68-5.8,26.77-5.8,29.14C38.87,99,12.1,96.61,5.86,92.3S0.36,79.63.43,77.24,2,69,4.67,68.06,10.33,66.4,10.33,66.4Z" transform="translate(0.01 0.01)"/><path class="a" d="M120.07,38.75C123.49,36.52,165,12.88,175.24,9" transform="translate(0.01 0.01)"/><path class="a" d="M585.79,40.23c4.46,1.49,7.14,18.44,8,28" transform="translate(0.01 0.01)"/><line class="a" x1="593.53" y1="64.19" x2="601.12" y2="64.19"/><line class="a" x1="607.66" y1="68.2" x2="535.39" y2="68.2"/><path class="a" d="M544.3,68.34s0.89,3.87,3.12,3.87h62.3" transform="translate(0.01 0.01)"/><line class="a" x1="543.42" y1="87.98" x2="610.19" y2="85.75"/><line class="a" x1="108.07" y1="91.29" x2="478.55" y2="88.5"/><path class="a" d="M10.33,66.25a53.63,53.63,0,0,1,3.12-9.7c1.3-2.52,2.42-2.57,5.46-2.71s14.28-.07,15.39,0a3.5,3.5,0,0,1,3.49,2.83c0.37,2.19.67,4.87,0.78,5.69s0.33,3.9-2.64,3.9H10.33Z" transform="translate(0.01 0.01)"/><line class="a" x1="100.04" y1="68.56" x2="490.79" y2="65.5"/><line class="a" x1="2.9" y1="69.32" x2="49.85" y2="68.95"/><path class="a" d="M1.41,72.2h34.8a3.61,3.61,0,0,0,3.12-3.12" transform="translate(0.01 0.01)"/><path class="a" d="M177.32,11.68c5.8-3.12,23.79-5.8,47.14-5.65-1.78,7-7.59,33.09-8.18,34.65-0.89,2.38-8,40.15-2.53,59.63" transform="translate(0.01 0.01)"/><path class="a" d="M148.32,29c0.92-.92,3.64-1.19,5.2-1.26s1.78,1.34,1.93,3,0.15,4.46.22,5.35a2.74,2.74,0,0,1-1.93,3c-1.26.15-4.4,0-5.58,0-1.78,0-2.81-2.83-2.75-3.79A10.46,10.46,0,0,1,148.32,29Z" transform="translate(0.01 0.01)"/><path class="a" d="M473.38,98.52s-0.47-2.06.45-10c2.6-22.68,17.32-29.67,22.38-31.67,5.75-2.28,4.61-8.33,3.79-18.59s-3.12-17.32-5.72-21-8.1-6.39-9.44-7.14A32.36,32.36,0,0,1,480.08,7c-21.41-3-55.54-4-59.7-3.94,0,0,.22,2.38.22,3.42s-5.35,31.67-5.35,31.67-0.37,3.42-.37,4.09-1.22,10.48-1.43,11.63S411.89,69,411.74,72s-0.3,22.08,1.34,26.84" transform="translate(0.01 0.01)"/><path class="a" d="M154.49,28c3.87-2.6,18.44-11.9,23.79-13.68s7.36-2.68,14.72-3.57,27.66-1.49,30.66-1.49,197-2.83,197-2.83c29.14-.07,48.4,3.87,54.65,5.87s8.4,3.27,10,4.46a16.36,16.36,0,0,1,4.39,4.68c1.56,2.68,3,9.29,3,14.57,0,2-.67,1.71-1.49,1.78s-75.84,0-75.84,0l-199,2.9s-72.71,1.86-75.76,1.86-1.86-2.08-.67-3.12,5.58-4.54,5.58-4.54" transform="translate(0.01 0.01)"/><line class="a" x1="153.24" y1="39.21" x2="150.56" y2="42.33"/><path class="a" d="M219.14,9.41c-1,2.34-8.59,29.44-9,31.45" transform="translate(0.01 0.01)"/><path class="a" d="M229.4,9.29c-0.56,3.12-4.91,24.88-5.46,31.24" transform="translate(0.01 0.01)"/><path class="a" d="M424.34,6.52c0.11,2-1.67,28.22-2.12,31.34" transform="translate(0.01 0.01)"/><path class="a" d="M413.36,6.79c-0.33,2.45-4.85,29.39-5.19,31.06" transform="translate(0.01 0.01)"/><path class="a" d="M459.25,9c3.46,0.67,25.74,5.91,29.11,15.17,1.34,3.68,1.56,13.61,1.56,13.61" transform="translate(0.01 0.01)"/><rect class="a" x="398.18" y="20.64" width="18.07" height="1.73" rx="0.52" ry="0.52" transform="translate(322.9 420.48) rotate(-81.09)"/><rect class="a" x="395.22" y="20.64" width="18.07" height="1.73" rx="0.52" ry="0.52" transform="translate(320.41 417.56) rotate(-81.09)"/><rect class="a" x="392.27" y="20.64" width="18.07" height="1.73" rx="0.52" ry="0.52" transform="translate(317.91 414.64) rotate(-81.09)"/><rect class="a" x="389.3" y="20.64" width="18.07" height="1.73" rx="0.52" ry="0.52" transform="translate(315.4 411.71) rotate(-81.09)"/><rect class="a" x="230.15" y="22.76" width="18.07" height="1.73" rx="0.52" ry="0.52" transform="translate(178.8 256.27) rotate(-81.09)"/><rect class="a" x="227.18" y="22.76" width="18.07" height="1.73" rx="0.52" ry="0.52" transform="translate(176.29 253.34) rotate(-81.09)"/><rect class="a" x="224.24" y="22.77" width="18.07" height="1.73" rx="0.52" ry="0.52" transform="matrix(0.15, -0.99, 0.99, 0.15, 173.8, 250.44)"/><rect class="a" x="221.27" y="22.76" width="18.07" height="1.73" rx="0.52" ry="0.52" transform="matrix(0.15, -0.99, 0.99, 0.15, 171.31, 247.5)"/><path class="a" d="M133.43,38.8C131.2,40,122.89,52.13,123.34,68.63a191.13,191.13,0,0,0,4,32.34" transform="translate(0.01 0.01)"/><path class="a" d="M111.29,72.2c4,0,363.18-3.74,365.41-3.74s-0.45,2.79-1.84,2.84c-1.06,0-361.11,3.57-361.73,3.57C111.8,74.87,110.46,72.2,111.29,72.2Z" transform="translate(0.01 0.01)"/><path class="a" d="M207.54,50.7c0,2.72-4.69,2.24-10.48,2.24s-10.48-.29-10.48-2.24,4.69-2.24,10.48-2.24S207.54,47.67,207.54,50.7Z" transform="translate(0.01 0.01)"/><line class="a" x1="201.02" y1="48.41" x2="201.02" y2="52.98"/><path class="a" d="M493,47.36c0,2.72-4.69,2.24-10.48,2.24s-10.48-.29-10.48-2.24,4.69-2.24,10.48-2.24S493,44.33,493,47.36Z" transform="translate(0.01 0.01)"/><line class="a" x1="486.52" y1="45.06" x2="486.52" y2="49.63"/><circle class="a" cx="511.16" cy="93.06" r="28.33"/><circle class="a" cx="511.16" cy="93.06" r="21.09"/><line class="a" x1="511.16" y1="85.7" x2="511.16" y2="100.42"/><line class="a" x1="518.52" y1="93.06" x2="503.8" y2="93.06"/><circle class="a" cx="76.24" cy="93.06" r="28.33"/><circle class="a" cx="76.24" cy="93.06" r="21.09"/><line class="a" x1="76.24" y1="85.7" x2="76.24" y2="100.42"/><line class="a" x1="83.6" y1="93.06" x2="68.88" y2="93.06"/></svg>