<svg xmlns="http://www.w3.org/2000/svg" viewBox="0 0 340.68 110.77"><defs><style>.a,.b{fill:none;stroke:#fff;stroke-width:0.75px;}.a{stroke-linejoin:round;}.b{stroke-miterlimit:10;}</style></defs><title>white-e-class</title><path class="a" d="M25.44,94.39C22,94.39,3.65,92.47.68,90.9c-0.9-.48.31-2.4,1.31-3.09S1.82,72,1.82,71.25,1.6,69.68,3.3,68.77,5.48,53.34,5.44,52.34s2.14-3.75,9-7.32,19.35-6.58,34.91-9,39.18-5.27,55.31-5.4c8.54-5.4,29.07-17,36-20.4s11.85-5.93,24.84-8,40.94-1.83,44-1.83,22.58,0.87,34,2.44,27.41,5.8,56.88,23c6.23,1.31,11.59,1.83,14.08,2.27a78.08,78.08,0,0,0,12.68,1c3.49-.17,3.7,1.74,3.79,2.14s3.09,12.42,3.31,15.47,4.14,10.46,5.1,13.9,1,12.24,1,13.9c0,2.4-2.88,12.42-7.63,13.47-4.57,1-30.9,5.14-33.47,5.4,0.13-3.23-.89-17.91-5.77-24.77-5.13-7.21-14-14.65-29.4-11.8-25.74,4.76-23.88,33.47-23.84,37.7-2.83.17-154.63-.78-156.94-0.78,0-1.87-.36-15.8-4.53-23.58A28.69,28.69,0,0,0,53.14,55.07C28.23,55.39,22.77,77,25.44,94.39Z" transform="translate(0.01 -0.01)"/><path class="a" d="M6.22,75.27c0,1.48.74,9.81,2.7,10.5s6.49,1.74,8.06.31,2.18-3.09.78-5.45-4.36-7-8.15-7.23S6.22,74.84,6.22,75.27Z" transform="translate(0.01 -0.01)"/><path class="a" d="M5.31,55.58c2-.83,12-5,16.61-5.88a27.15,27.15,0,0,1,10.94-.17c2.18,0.57,2.15,1.3,1.31,2.7C31.55,56.59,6.29,68,3.32,68.65" transform="translate(0.01 -0.01)"/><path class="a" d="M21.43,49.87C14,52,4.87,63.42,10.93,65.52" transform="translate(0.01 -0.01)"/><line class="a" x1="83.25" y1="92.25" x2="240.14" y2="91.04"/><line class="a" x1="83.16" y1="88.69" x2="240.49" y2="85.11"/><path class="a" d="M21.17,49.91c3.31-.78,24.06-5.75,38.79-6.62S98.49,39.63,102.67,34" transform="translate(0.01 -0.01)"/><path class="a" d="M96.22,30.91a7.22,7.22,0,0,0,7.61,2.73c4.82-1,11.16-5.06,13-6s25.8-15.4,32.83-18.48S163.2,3.87,170.11,3,193.67,0.62,197.28.45" transform="translate(0.01 -0.01)"/><path class="a" d="M236.21,2C257.3,4.17,288.36,23.54,291,24.69s7.5,3.49,9.36,1.16" transform="translate(0.01 -0.01)"/><path class="a" d="M339.59,61.88c0.12,1.16-.06,2.61-3.66,3.84s-5.4,2.15-7.55,6-3.89,7-4.42,7.9-1.4,2.77,1.21,2.77,10.11-.86,10.11-0.86" transform="translate(0.01 -0.01)"/><path class="a" d="M331.48,88.39c1-2.53,7.41-13.07,8.89-13.77" transform="translate(0.01 -0.01)"/><path class="a" d="M334.47,48.12c-0.81-1.74-3.49-6.75-6.62-8.38a13.61,13.61,0,0,0-6.16-1.63c-1.63-.23-5.35-0.12-7.21-0.12s-6.51,1.51-3.72,3.84S330.29,55.89,337,55.08" transform="translate(0.01 -0.01)"/><path class="a" d="M287.63,62.39c5.35-.93,30.33-5.81,33.12-6.86a10.92,10.92,0,0,0,5-4" transform="translate(0.01 -0.01)"/><path class="a" d="M291,24.69c4.88,3.16,30.46,9.09,32.31,9.82,5.24,2.06,9.87,7.79,10.68,12.26" transform="translate(0.01 -0.01)"/><path class="a" d="M107.73,88.18c-1.13-2.44-2.44-6.8-2.79-7.67s-2.27-18-1.66-25.89,1.57-12.2,2.18-13.42,3-3.92,7-6.8,18.88-12.19,22.25-14.09c4-2.28,15.75-8.89,23.33-11.62,7.11-2.56,20-3.92,23.62-4.27S197.26,4,199.79,3.9s18.91,0.35,22.92.52a69.09,69.09,0,0,1,22.23,5.06A95.69,95.69,0,0,1,264.55,21c1.39,1,6.36,4.88,6.45,9.68s-1.31,6.45-3.4,9.15-16.4,17.57-17.71,18.89S242.31,66.55,240.3,72s-3,9.5-3.23,13.25" transform="translate(0.01 -0.01)"/><path class="a" d="M266.37,30.71c0-3.31-.53-4.77-2.36-6.78S242,5.08,214.24,4.14" transform="translate(0.01 -0.01)"/><path class="a" d="M137.11,34.54c19.53-1.26,41.92-2.59,55.3-2.93,20.53-.52,69.58-1.07,78.56-0.89" transform="translate(0.01 -0.01)"/><path class="a" d="M110.06,36.33l12.48-.84" transform="translate(0.01 -0.01)"/><path class="a" d="M57.17,46.82C82,44.26,203.61,42.4,248.24,46.36" transform="translate(0.01 -0.01)"/><path class="a" d="M89,81.7c27.2-1.16,140.44-6,150.9-8.56" transform="translate(0.01 -0.01)"/><ellipse class="a" cx="175.25" cy="39.52" rx="8.76" ry="2.96"/><path class="a" d="M197.24,3.89c-0.52,2.7-4.84,27.72-4.84,27.72L192.13,33s-4.74,9.59-3.87,43.84a60.37,60.37,0,0,0,1.31,9.5" transform="translate(0.01 -0.01)"/><line class="a" x1="192.66" y1="4.16" x2="185.23" y2="31.85"/><line class="a" x1="201.47" y1="3.86" x2="199.53" y2="31.33"/><path class="a" d="M126.15,26.26c-1.51.73-5.14,3.31-5.14,5.46s0.84,5.06,6.25,5.17,9.7-.12,10-3,0.29-6-1-7.32A7.78,7.78,0,0,0,131,24.8,14,14,0,0,0,126.15,26.26Z" transform="translate(0.01 -0.01)"/><path class="a" d="M166.74,38.83c2.16-.28,14.09-0.9,16.64-0.38" transform="translate(0.01 -0.01)"/><path class="a" d="M166.93,40.39c2.16-.28,14.34-0.81,16.89-0.29" transform="translate(0.01 -0.01)"/><ellipse class="a" cx="249.16" cy="39.52" rx="8.76" ry="2.96"/><path class="a" d="M240.65,38.83c2.16-.28,14.1-0.9,16.65-0.38" transform="translate(0.01 -0.01)"/><path class="a" d="M240.84,40.39c2.16-.28,14.34-0.81,16.89-0.29" transform="translate(0.01 -0.01)"/><circle class="a" cx="53.7" cy="84.03" r="26.27"/><circle class="a" cx="53.7" cy="84.03" r="19.39"/><circle class="a" cx="269.52" cy="84.12" r="26.27"/><circle class="a" cx="269.52" cy="84.12" r="19.39"/><path class="b" d="M104.63,30.56c0.94,0.69,3.57,1.68,5.43.73" transform="translate(0.01 -0.01)"/><line class="a" x1="53.7" y1="77.03" x2="53.7" y2="91.02"/><line class="a" x1="60.69" y1="84.03" x2="46.71" y2="84.03"/><line class="a" x1="269.52" y1="77.13" x2="269.52" y2="91.11"/><line class="a" x1="276.51" y1="84.12" x2="262.53" y2="84.12"/></svg>