<svg xmlns="http://www.w3.org/2000/svg"><symbol id="sprite-arrow-left" viewBox="0 0 14 12"><title>arrow-left</title><path data-name="Shape 1" d="M.223 5.439L5.279.23a.752.752 0 011.084 0l.459.473a.8.8 0 01.224.558.812.812 0 01-.224.565l-2.95 3.045h9.371a.759.759 0 01.756.776v.669a.79.79 0 01-.756.811h-9.4l2.983 3.063a.8.8 0 010 1.109l-.459.471a.753.753 0 01-1.084 0L.227 6.561a.814.814 0 010-1.121z"/></symbol><symbol id="sprite-arrow-right" viewBox="0 0 14 12"><title>arrow-right</title><path data-name="Shape 1" d="M13.776 5.439L8.72.23a.752.752 0 00-1.084 0l-.459.473a.8.8 0 00-.224.558.812.812 0 00.224.565l2.95 3.045H.756A.759.759 0 000 5.647v.669a.79.79 0 00.756.811h9.4L7.173 10.19a.8.8 0 000 1.109l.459.471a.753.753 0 001.084 0l5.056-5.209a.814.814 0 000-1.121z"/></symbol><symbol id="sprite-mouse" viewBox="0 0 21 32"><title>mouse</title><path data-name="mouse down" d="M0 21.436V10.563a10.5 10.5 0 1121 0v10.905a10.5 10.5 0 11-21-.032zm1.976-10.873v10.873a8.525 8.525 0 1017.05.032V10.563a8.525 8.525 0 10-17.05 0zm8.515 2.907a.981.981 0 01-.98-.98V9.07a.98.98 0 01.98-.98h.01a.98.98 0 01.98.98v3.42a.981.981 0 01-.98.98z"/></symbol><symbol id="sprite-pop_arrow" viewBox="0 0 20 13"><title>pop_arrow</title><path data-name="Forma 1" d="M0 5.417h15.778l-4-3.9L13.334 0l6.667 6.5-6.667 6.5-1.556-1.517 4-3.9H0z" fill="#fff"/></symbol><symbol id="sprite-tour-next" viewBox="0 0 22.002 17.002"><title>tour-next</title><path data-name="Forma 1" d="M1.143 7.315H18.1L13 2.025a1.217 1.217 0 010-1.677 1.113 1.113 0 011.616 0l7.047 7.314a1.217 1.217 0 010 1.677l-7.047 7.315a1.113 1.113 0 01-1.616 0 1.218 1.218 0 010-1.677l5.1-5.29H1.143a1.187 1.187 0 010-2.372z" fill="#3f3f3f"/></symbol><symbol id="sprite-tour-prev" viewBox="0 0 22.002 17.002"><title>tour-prev</title><path data-name="Forma 1" d="M20.859 7.315H3.902l5.1-5.29a1.217 1.217 0 000-1.677 1.113 1.113 0 00-1.616 0L.339 7.662a1.218 1.218 0 000 1.677l7.047 7.315a1.113 1.113 0 001.616 0 1.218 1.218 0 000-1.677l-5.1-5.29h16.957a1.187 1.187 0 000-2.372z" fill="#3f3f3f"/></symbol></svg>