<?xml version="1.0" encoding="UTF-8" standalone="no"?>
<svg width="315px" height="49px" viewBox="0 0 315 49" version="1.1" xmlns="http://www.w3.org/2000/svg" xmlns:xlink="http://www.w3.org/1999/xlink">
    <!-- Generator: Sketch 47 (45396) - http://www.bohemiancoding.com/sketch -->
    <title>icons</title>
    <desc>Created with Sketch.</desc>
    <defs></defs>
    <g id="Page-1" stroke="none" stroke-width="1" fill="none" fill-rule="evenodd">
        <g id="icons" fill-rule="nonzero" fill="#000000">
            <g transform="translate(279.133921, 0.297690)">
                <path id="delete" d="M35.0232198,12.6915139 L0.590418354,12.6915139 C0.272882432,12.6915139 0.0148844963,12.9495118 0.0148844963,13.2670477 L0.0148844963,16.4424069 C0.0148844963,16.7599428 0.272882432,17.0179408 0.590418354,17.0179408 L3.6169326,17.0179408 L5.97860602,44.9511789 C6.15721997,47.0747003 7.93343653,48.7020719 10.056958,48.7020719 L26.0032151,48.7020719 C28.1565055,48.7020719 29.9426451,47.0350083 30.09149,44.8817179 L31.9867826,17.0179408 L35.0132968,17.0179408 C35.3308327,17.0179408 35.5888307,16.7599428 35.5888307,16.4424069 L35.5888307,13.2670477 C35.5888307,12.9395888 35.3308327,12.6915139 35.0232198,12.6915139 Z"></path>
            </g>
            <g transform="translate(227.435104, 10.121457)">
                <path id="preview" d="M24.2542867,0.0719417322 C14.986207,0.0719417322 6.58142812,5.14259347 0.379554656,13.3786814 C-0.126518219,14.0534453 -0.126518219,14.99613 0.379554656,15.6708939 C6.58142812,23.9169048 14.986207,28.9875566 24.2542867,28.9875566 C33.5223664,28.9875566 41.9271454,23.9169048 48.1290188,15.6808169 C48.6350917,15.006053 48.6350917,14.0633683 48.1290188,13.3886044 C41.9271454,5.14259347 33.5223664,0.0719417322 24.2542867,0.0719417322 Z M24.9191276,24.7107446 C18.7668691,25.0977415 13.6862944,20.0270898 14.0732913,13.8649083 C14.3908272,8.78433357 18.5088712,4.66628959 23.5894459,4.34875367 C29.7417044,3.96175677 34.8222791,9.03240851 34.4352822,15.19459 C34.1078233,20.2652417 29.9897793,24.3832857 24.9191276,24.7107446 Z M24.6115146,20.0072438 C21.2972335,20.2156267 18.5584861,17.4868024 18.7767921,14.1725212 C18.9454831,11.4337739 21.1682345,9.22094546 23.9069818,9.04233151 C27.221263,8.83394856 29.9600103,11.5627729 29.7417044,14.8770541 C29.5630904,17.6257244 27.340339,19.8385528 24.6115146,20.0072438 Z"></path>
            </g>
            <g transform="translate(181.888545, 0.297690)">
                <path id="rewind" d="M23.5348694,48.440204 C33.279253,47.3486743 41.0886521,39.5591212 42.2000278,29.8147376 C43.6587084,17.0736088 33.7555569,6.22777249 21.341887,6.08885052 L21.341887,0.373203937 C21.341887,0.0556680162 20.9449671,-0.113022942 20.6770461,0.0854370088 L8.90837104,8.72836787 C8.70991109,8.87721283 8.70991109,9.16497976 8.90837104,9.31382472 L20.6770461,17.9567556 C20.9449671,18.1552155 21.341887,17.9766016 21.341887,17.6689886 L21.341887,11.9632651 C30.0642018,12.102187 37.0499921,19.5245892 36.4546122,28.395749 C35.9485393,36.0265341 29.7268199,42.2184846 22.0960348,42.7047114 C14.0087918,43.2207073 7.13215448,37.4455227 5.90170279,29.8048146 C5.67347384,28.385826 4.43309915,27.3538342 3.0041875,27.3538342 C1.22797095,27.3538342 -0.16124871,28.9315909 0.116595221,30.6879614 C1.84319679,41.5734897 11.8951933,49.7401167 23.5348694,48.440204 Z"></path>
            </g>
            <g transform="translate(130.090498, 0.000000)">
                <path id="settings" d="M48.6177264,24.321267 L48.6177264,22.0489005 C48.6177264,21.2054457 48.0025006,20.4711439 47.1689688,20.332222 L42.6440819,19.5780741 C42.197547,17.8415496 41.5128602,16.204255 40.6197904,14.6860364 L43.2791538,10.9450663 C43.7653806,10.2504565 43.6859967,9.30777169 43.0906168,8.71239184 L41.4930142,7.11478924 L39.8954116,5.51718663 C39.3000318,4.92180678 38.357347,4.8424228 37.6627372,5.33857268 L33.9217671,7.99793602 C32.4035485,7.09494324 30.7662539,6.43010241 29.0297293,5.97364452 L28.2656585,1.44875764 C28.1267365,0.60530285 27.4023577,-5.32907052e-15 26.5489799,-5.32907052e-15 L24.2766135,-5.32907052e-15 L22.004247,-5.32907052e-15 C21.1905612,0.0396919902 20.4661824,0.654917838 20.3272605,1.47852663 L19.5731126,6.00341351 C17.8365881,6.4499484 16.1992935,7.13463523 14.6810749,8.02770501 L10.9401048,5.36834167 C10.245495,4.88211479 9.30281019,4.96149877 8.70743034,5.55687862 L7.11975073,7.17432722 L5.52214813,8.77192982 C4.92676828,9.36730968 4.8473843,10.3099944 5.34353417,11.0046043 L8.00289752,14.7455743 C7.08005874,16.283639 6.38544892,17.9606255 5.95876002,19.7566881 L1.48348813,20.5207589 C0.649956339,20.6596809 0.0347304914,21.3840597 0.0347304914,22.2374375 L0.0347304914,24.5098039 L0.0347304914,26.7821704 C0.0347304914,27.6256251 0.649956339,28.359927 1.48348813,28.4988489 L6.048067,29.2728427 C6.49460189,31.0093673 7.21898071,32.6466619 8.09220449,34.1351115 L5.41299516,37.8165436 C4.92676828,38.5111534 5.00615226,39.4538382 5.60153211,40.0492181 L7.19913471,41.6468207 L8.79673732,43.2444233 C9.39211717,43.8398031 10.3348019,43.9191871 11.0294118,43.4230372 L14.7902278,40.7438279 C16.3084465,41.6269747 17.945741,42.2918155 19.6822656,42.7284274 L20.4463364,47.2036993 C20.5951814,48.0471541 21.3096372,48.6524569 22.163015,48.6524569 L24.4353814,48.6524569 L26.7077479,48.6524569 C27.5512027,48.6524569 28.2855045,48.0372311 28.4244265,47.2036993 L29.1984203,42.6391204 C29.5953402,42.5398905 29.9823371,42.4208145 30.359411,42.2918155 C30.4586409,42.2620465 30.5677939,42.2223545 30.6670239,42.1826625 C30.9845598,42.0735096 31.2921727,41.9544336 31.5997857,41.8254346 C31.6692466,41.7956656 31.7387076,41.7658966 31.8081686,41.7361276 C32.1753195,41.5773597 32.5325474,41.4086687 32.8897753,41.2300548 C32.8996983,41.2201318 32.9096213,41.2201318 32.9195443,41.2102088 C33.2767722,41.0315948 33.6340002,40.8331349 33.9713821,40.6346749 C34.189688,40.505676 34.407994,40.366754 34.6163769,40.227832 L28.7816544,34.3931095 C27.7397396,33.3511947 26.290982,32.8451219 24.8124553,32.9443518 C22.31186,33.1130428 19.7517266,32.249742 17.8465111,30.3346035 C15.5344526,28.0225451 14.7505358,24.7479559 15.4947607,21.7809796 C15.5443756,21.5626737 15.8222196,21.4932127 15.9710645,21.6519806 L19.6128046,25.2937207 C20.6944114,26.3753275 22.4805509,26.3753275 23.5621577,25.2837977 L25.2192982,23.6266571 C26.310828,22.5351274 26.310828,20.7589109 25.2292212,19.6773041 L21.3989442,15.8470271 C21.2500992,15.6981821 21.3096372,15.4401842 21.5080972,15.3707232 C24.6139954,14.3784234 28.1565055,15.1028023 30.6174089,17.5637056 C32.6218544,19.5681511 33.4752322,22.2870525 33.1874653,24.9067238 C33.0187743,26.4646344 33.5248472,28.0225451 34.6362229,29.1339208 L40.1633325,34.6610304 C40.3419465,34.3831865 40.5106375,34.1053425 40.6793284,33.8274986 C40.8678654,33.5000397 41.0464793,33.1725808 41.2151703,32.8351989 C41.2647853,32.7359689 41.3144003,32.6367389 41.3640152,32.5375089 C41.4731682,32.30928 41.5723982,32.081051 41.6815512,31.8428991 C41.7609351,31.6642851 41.8403191,31.4757482 41.9097801,31.2971342 C41.9593951,31.1780583 41.9990871,31.0490593 42.0487021,30.9200603 C42.147932,30.6620624 42.237239,30.4040645 42.326546,30.1361435 L42.326546,30.1361435 C42.435699,29.7789156 42.5448519,29.4316107 42.6440819,29.0743828 L47.1689688,28.310312 C48.0124236,28.17139 48.6177264,27.4470112 48.6177264,26.5936334 L48.6177264,24.321267 Z"></path>
            </g>
            <g transform="translate(78.193221, 6.846868)">
                <path id="cloud" d="M37.9455426,35.4002937 L30.0964515,35.4002937 L27.9828531,35.4002937 L27.5263952,35.4002937 L27.5263952,24.8719933 L30.9696753,24.8719933 C31.8428991,24.8719933 32.358895,23.8796936 31.8428991,23.1652378 L25.1448758,13.8971581 C24.7181869,13.3017782 23.8350401,13.3017782 23.4083512,13.8971581 L16.7103279,23.1652378 C16.194332,23.8796936 16.7004049,24.8719933 17.5835516,24.8719933 L21.0268318,24.8719933 L21.0268318,35.4002937 L20.5703739,35.4002937 L18.4567754,35.4002937 L9.35738668,35.4002937 C4.14781297,35.1125268 0,30.240335 0,24.9613003 C0,21.3195602 1.97467651,18.144201 4.90196078,16.4275224 C4.63403985,15.7031436 4.49511789,14.9291498 4.49511789,14.115464 C4.49511789,10.3943399 7.50178614,7.38767167 11.2229102,7.38767167 C12.026673,7.38767167 12.8006668,7.52659363 13.5250456,7.79451457 C15.6783361,3.2299357 20.322299,0.064499484 25.7204096,0.064499484 C32.7061999,0.0744224815 38.4615385,5.42291816 39.1164563,12.2400175 C44.484798,13.1628562 48.56315,18.134278 48.56315,23.7606176 C48.56315,29.7739541 43.8794951,34.9835278 37.9455426,35.4002937 Z"></path>
            </g>
            <g transform="translate(41.875050, 0.297690)">
                <path id="search" d="M33.0981583,16.5317139 C33.0981583,7.40255616 25.6956021,0 16.5664444,0 C7.43728666,0 0.0347304914,7.40255616 0.0347304914,16.5317139 C0.0347304914,24.6189569 5.84960705,31.3467492 13.5200841,32.7756609 L12.8453203,44.8321029 C12.7262443,46.8861634 14.3635389,48.6127649 16.4175994,48.6127649 L16.7152894,48.6127649 L16.7152894,48.6127649 C18.7693498,48.6127649 20.4066444,46.8861634 20.2875685,44.8321029 L19.6128046,32.7756609 C27.2932047,31.3467492 33.0981583,24.6189569 33.0981583,16.5317139 Z M16.5664444,27.3874732 C10.5729539,27.3874732 5.71068508,22.5252044 5.71068508,16.5317139 C5.71068508,10.5382234 10.5729539,5.67595459 16.5664444,5.67595459 C22.5599349,5.67595459 27.4222037,10.5382234 27.4222037,16.5317139 C27.4222037,22.5351274 22.5599349,27.3874732 16.5664444,27.3874732 Z"></path>
            </g>
            <g transform="translate(0.000000, 0.297690)">
                <path id="pin" d="M18.6477931,0.0123045169 C29.6226284,-0.374692387 38.6426332,8.40716044 38.6426332,19.3026117 C38.6426332,20.5529094 38.5235572,21.7734381 38.2953283,22.9641978 C38.2953283,22.9641978 38.2556363,23.1825038 38.1663293,23.5695007 C37.8686394,24.9091053 37.4320275,26.189172 36.8664166,27.3997777 C34.9215091,32.0040486 30.4462372,39.6745257 20.4041637,48.0098436 C19.7790148,48.5258395 18.8760221,48.5258395 18.2607962,48.0098436 C8.21872271,39.6646027 3.74345082,31.9941256 1.8084663,27.4097007 C1.25277844,26.199095 0.80624355,24.9091053 0.508553624,23.5794237 C0.409323648,23.1825038 0.379554656,22.9741208 0.379554656,22.9741208 C0.0421727395,21.1979043 -0.0669802334,19.3423037 0.12155672,17.4271652 C1.04439549,7.85147257 9.03240851,0.349686433 18.6477931,0.0123045169 Z M19.33248,28.9080734 C24.5122847,28.9080734 28.7097126,24.7106454 28.7097126,19.5308407 C28.7097126,14.351036 24.5122847,10.153608 19.33248,10.153608 C14.1526752,10.153608 9.95524728,14.351036 9.95524728,19.5308407 C9.95524728,24.7106454 14.1526752,28.9080734 19.33248,28.9080734 Z"></path>
            </g>
        </g>
    </g>
</svg>
